<?xml version="1.0" encoding="utf-8"?>
<!-- Generator: Adobe Illustrator 19.1.0, SVG Export Plug-In . SVG Version: 6.00 Build 0)  -->
<svg version="1.0" id="Layer_1" xmlns="http://www.w3.org/2000/svg" xmlns:xlink="http://www.w3.org/1999/xlink" x="0px" y="0px"
	 viewBox="0 0 612 568" style="enable-background:new 0 0 612 568;" xml:space="preserve">
<style type="text/css">
	.st0{fill:#7CA71E;}
	.st1{fill:#489318;}
</style>
<path class="st0" d="M316.6,482.3c-1.5,4.3-2.1,7.8,3.4,10.4c7,3.3,10,11.7,7.9,19.1c-2.2,7.5-9.1,12.7-16.7,12.6
	c-7.6-0.1-14.4-5.6-16.3-13.1c-1.9-7.4,1.6-15.2,8.5-19.1c4.5-2.5,5.4-6.3,2.2-9.6c-0.1-2.3-2-3.3-3.4-4.7
	c-17.4-17.5-34.9-35-52.3-52.5c-1.4-1.4-3.2-2.4-3.4-4.7c5.9-2.4,11.8-1,17.6,0.6c16.3,4.4,31,11.7,43.2,25.1
	c0-12.4,0.2-24.2,0-35.9c-0.1-5.4,1.2-10.9-0.8-16.2c-23.3-23.4-46.6-46.9-69.9-70.3c-1.4-1.4-2.6-3-3.9-4.4
	c7.4-2.6,14.9-1.5,22,0.5c19.5,5.5,37.8,13.7,51.5,29.6c0.2,0.2,0.6,0.1,1.2,0.2c0-14.1,0-28.2,0-42.2c0-0.4-0.5-0.8-0.7-1.2
	c-20.1-20.2-40.3-40.5-60.4-60.8c-4.6-4.6-9-9.3-13.5-13.9c9.5-3.1,18.8-0.9,27.8,2.1c17.5,5.8,33.7,13.9,46.1,28.2
	c1.6-0.7,0.8-2,0.8-3c0.1-12.1,0.1-24.3,0-36.4c0-1.4,0.6-3-0.8-4.2c-23.9-24.1-47.8-48.1-71.7-72.2c-0.8-0.8-1.7-1.6-3-1.7
	c5.2-3.8,11.3-2.6,16.7-1.5c22.1,4.5,42,13.4,57.5,30.6c0.2,0.2,0.6,0.2,1.4,0.4c0-14.2,0-28.3,0.1-42.3c0-1.8-1.1-2.2-2.3-2.8
	c-21.3-11.2-28-25-23.5-48.7c3.2-16.7,9.1-32.3,19.6-45.9c2.8-3.6,5.8-7.3,10.5-8.7c0,33.4-0.1,66.7-0.1,100.1c0,2.9-0.2,5.6,4,4.8
	c0,14.4,0,28.8,0,44.8c10.9-12.9,23.9-20.1,37.7-25.9c10.3-4.4,21-7.7,32.4-6.8c2.1,0.2,4.3-0.2,5.7,2c-0.9,0.4-1.9,0.7-2.6,1.3
	c-24.1,24.1-48.2,48.2-72.3,72.3c-0.2,0.4-0.7,0.8-0.7,1.2c-0.1,14.1-0.1,28.1-0.1,43.2c10.5-12.4,23.4-19.6,37.2-25.4
	c10.3-4.4,20.9-7.7,32.3-6.8c1.8,0.1,3.7-0.1,5.2,1.2c-1.3,1.5-2.6,3-4,4.4c-23.3,23.4-46.7,46.7-70,70.1c-0.3,0.4-0.7,0.8-0.7,1.2
	c-0.1,14.1-0.1,28.1-0.1,43.2c10.4-12.4,23.4-19.6,37.2-25.4c10.5-4.4,21.2-7.8,32.8-6.8c1.6,0.1,3.4-0.2,4.7,1.1
	c-1.3,1.5-2.6,3-4,4.4c-23.3,23.4-46.7,46.8-70,70.1c-1.1,0.8-0.8,2.1-0.8,3.2c0,16,0,32-0.1,49.2c5.5-6.9,11.7-11.4,18.4-15.2
	c11.7-6.5,23.8-11.9,37.6-11.8c2.3,0,4.7-0.2,6.3,2c-0.8,0.5-1.8,0.8-2.5,1.5C355.9,443,336.3,462.7,316.6,482.3z"/>
<path class="st1" d="M160.7,333c0,8.9,0,17.5,0,26.5c11-10.6,23.6-17.3,38.4-19.2c8.7-1.1,10.1,0.1,9.1,9.1
	c-1.5,12.6-6.9,23.6-14.8,33.3c-7.2,9-18.2,11.4-28.8,7.1c-1.2-0.5-2.2-1.6-3.9-1.1c-0.1,0.7-0.2,1.5-0.2,2.4c0,7.6,0,15.3,0,24
	c7.1-7.6,15.2-12.2,24-15.8c6.2-2.5,12.5-4.3,19.4-4c3.2,0.1,4.3,1.6,4.5,4.5c0.3,3.2-0.2,6.4-0.9,9.4c-2.5,10.3-7,19.7-13.6,28.1
	c-7.5,9.4-18.6,12.2-29.5,7.4c-2.9-1.3-4-1.4-3.9,2.3c0.2,9,0,18,0,28c6.8-6.8,14.4-11,22.6-13.9c3.9-1.4,8-2.4,12.2-2.4
	c3.1,0,4.7,1.1,4.5,4.4c-0.7,13.4-6,24.9-15.7,34c-5.7,5.3-12.3,5.3-23.2,1.5c-0.9,2.6-0.7,4.4,2.1,6c4.9,2.9,6.3,7.5,4.7,12.4
	c-1.5,4.3-5.8,7.4-10.3,7.3c-4.6-0.1-8.5-3.1-9.9-7.7c-1.5-4.7,0.1-9.3,4.7-11.9c2.9-1.6,3.1-3.4,2.2-6.2c-4.6,1.8-9,3.5-14,2.6
	c-5.2-0.9-9.5-3.2-12.6-7.3c-6.6-8.6-11.5-18-12.1-29c-0.3-5.6,0.6-6.6,6.2-6c12.5,1.3,23.1,6.9,32.6,15.8c0-10.4,0-20.5,0-30.8
	c-1.6-0.8-2.8,0.9-4.2,1.4c-9.7,3.8-20.7,1.6-27.4-6.4c-8.4-10-13.9-21.5-15.7-34.5c-1.1-7.9,0.9-10,8.9-9
	c14.9,1.9,27.4,8.6,38.5,19.2c0-8.8,0-17.4,0-26.3c-3.1,1.2-6.2,3-9.6,3.4c-9.1,1.1-16.9-1.5-22.7-8.7c-7.7-9.6-13.2-20.5-14.8-32.8
	c-1.2-9-0.4-11.2,9.8-9.7c14.4,2.1,26.7,8.7,37.5,19.1c0-8.9,0-17.6,0-26.6c-4.1,1.8-8.1,3.7-12.7,3.8c-7.8,0.1-14.4-2.6-19.4-8.6
	c-8-9.8-13.6-21-15.2-33.7c-1.1-8.7-0.1-10.6,9.4-9.3c14.6,2.1,27.1,8.6,38.3,19.6c0-9.2,0-17.9,0-26.6c0-1.8-1.7-1.8-2.8-2.4
	c-11.2-6.1-15.7-15.3-13.5-27.8c2-11.5,5.7-22.3,13.1-31.4c4.9-6.1,7.4-6.1,12.2,0.2c8.5,10.8,12.9,23.4,13.5,36.9
	c0.4,10-4.9,17.4-13.8,21.9c-1.9,1-3.1,1.8-3.1,4.3c0.2,8,0.1,16,0,25c6.8-7.3,14.6-11.8,23-15.4c6.2-2.7,12.5-4.5,19.3-4.6
	c3.8-0.1,6,1.6,5.7,5.6c-1.4,16.6-7.5,31.1-20.3,41.9C180.9,338.4,172.6,338.1,160.7,333z"/>
<path class="st1" d="M468.8,498.7c-1.1,2.9-0.5,4.6,2.3,6.2c4.5,2.6,6.1,7.4,4.6,12c-1.4,4.5-5.4,7.5-10.1,7.6
	c-4.5,0-8.8-3.1-10.2-7.4c-1.5-4.8,0-9.2,4.4-12.2c0.7-0.5,1.6-0.7,2.2-1.2c1.3-1.2,1.1-2.9,0.6-4.2c-0.7-1.7-1.9-0.2-2.8,0.2
	c-10.4,3.8-19,1.4-25.5-7.6c-5.7-7.9-10-16.6-10.7-26.5c-0.5-6.3,0.7-7.5,7-6.6c11.2,1.4,21,6.2,29.4,13.7c0.7,0.6,0.9,1.7,1.4,2.6
	c0.5-0.3,1-0.6,1.4-0.9c0-9.6,0-19.2,0-28.7c0-2.1-0.9-1.9-2.5-1.4c-16.5,5.5-25.4,2.5-34.6-12.2c-5.3-8.3-9.3-17.3-10.5-27.2
	c-1.1-8.3,0.7-10.4,8.9-9.3c14.8,1.9,27.4,8.6,38.5,19.2c0-8.8,0-17.3,0-26.1c-3.9,1-7.4,3.1-11.4,3.3c-8.4,0.5-15.5-2.2-20.8-8.7
	c-8.1-10-13.8-21.3-15.1-34.2c-0.9-8.5,0.3-9.6,8.6-8.6c14.8,1.8,27.5,8.5,38.6,19.2c0-8.7,0-17.4,0-26.1c-2.4,0.9-5,2.1-7.6,2.7
	c-10.1,2.3-18.6-0.6-24.9-8.6c-7.8-9.8-13.2-20.8-14.6-33.4c-1-8.9,0.5-10,8.9-8.9c14.8,1.9,27.4,8.6,38.8,19.6
	c0-9.1,0-17.7,0.1-26.2c0-1.8-1.4-2-2.5-2.7c-11.7-6.5-16-14.9-13.8-28.1c1.9-11.6,5.8-22.6,13.5-31.8c4.6-5.5,6.8-5.5,11.3,0
	c8.9,11,13.4,23.8,14,37.7c0.4,9.8-4.8,17.2-13.5,21.6c-2.7,1.4-3.4,2.9-3.4,5.7c0.2,7.6,0,15.3,0,23.7c9.3-9.4,20-15.1,31.9-18.3
	c4.9-1.3,11-3.9,14.7,0c3.4,3.6,1,9.6-0.2,14.4c-2.4,9.3-6.6,17.8-12.4,25.4c-8,10.6-19.4,13.3-31.5,7.7c-0.7-0.3-1.5-0.6-2.6-1.1
	c0,1.9,0,3.4,0,4.8c0,7.1,0,14.3,0,22.3c8.5-8.9,18.4-14.1,29.1-17.7c4.4-1.5,9-2.3,13.7-2.3c3.5,0,5.1,1.6,5.1,5.1
	c0.1,4-0.6,8-1.7,11.8c-2.5,8.9-6.6,17-12.2,24.4c-8.3,10.9-19,13.1-33.7,6.8c0,8.8,0,17.4,0,26.5c9.3-9.4,20.3-15.5,32.8-18.2
	c15.8-3.4,16.6-1.1,13.7,13.4c-1.9,9.5-6.5,18.1-12.2,26c-7.9,10.9-19.4,13.9-31.8,8.5c-0.7-0.3-1.4-1-2.4-0.5
	c-0.1,0.3-0.3,0.8-0.3,1.2c0,9.7,0,19.3,0,30c5.5-5.6,11.4-9.4,17.8-12.1c5.5-2.4,11.1-4.3,17.3-4.2c2.9,0.1,4.3,1.3,4.1,4.2
	c-0.6,13.6-6,25.2-16,34.3C486,502.8,478.9,502.7,468.8,498.7z"/>
<path class="st1" d="M232,144.6c1.3,0.1,2.1,0.8,3,1.7c23.9,24.1,47.8,48.1,71.7,72.2c-15.1,10.2-35.6,9.1-48.1-3.9
	C242.9,198.3,234,178.4,231,156C230.5,152.2,230.6,148.3,232,144.6z"/>
<path class="st1" d="M316.9,218.5c24.1-24.1,48.2-48.2,72.3-72.3c0.7-0.7,1.7-0.9,2.6-1.3c2.1,6.3,1.3,12.6-0.1,18.7
	c-4.1,17.8-11.7,33.9-23.4,47.9C355.3,226.9,333.6,229.7,316.9,218.5z"/>
<path class="st1" d="M232.8,231.8c4.5,4.6,8.9,9.3,13.5,13.9c20.1,20.3,40.2,40.5,60.4,60.8c-16.8,10.9-38,8.4-50.9-6.8
	c-13.2-15.6-21.6-33.7-24.6-54.1C230.4,241,229.7,236,232.8,231.8z"/>
<path class="st1" d="M316.8,306.4c23.3-23.4,46.7-46.7,70-70.1c1.4-1.4,2.7-2.9,4-4.4c3.6,6.4,2.1,13.2,0.6,19.7
	c-3.8,17.4-11.4,33.2-22.7,47C355.5,314.7,334.2,317.7,316.8,306.4z"/>
<path class="st1" d="M315.8,130.7c-4.2,0.7-4-2-4-4.8c0.1-33.4,0.1-66.7,0.1-100.1c4.3,1.1,7.1,4.3,9.6,7.5
	c13.5,17.4,20.9,37.4,21.7,59.3c0.6,16.6-8,28.6-23.1,35.9C318.7,129.1,317,129.3,315.8,130.7z"/>
<path class="st1" d="M232.7,319.7c1.3,1.5,2.6,3,3.9,4.4c23.3,23.4,46.6,46.9,69.9,70.3c-17.9,11.3-38.9,8.1-52.2-8.4
	c-12.3-15.3-20.3-32.6-23.2-52.1C230.4,329.2,229.5,324.1,232.7,319.7z"/>
<path class="st1" d="M316.7,394.4c23.3-23.4,46.7-46.8,70-70.1c1.4-1.4,2.6-2.9,4-4.4c3.6,6.4,2.1,13.2,0.6,19.7
	c-3.8,17.2-11.2,33-22.4,46.6C355.5,402.6,334.6,405.7,316.7,394.4z"/>
<path class="st1" d="M246.5,420.8c0.1,2.3,2,3.3,3.4,4.7c17.4,17.5,34.9,35,52.3,52.5c1.4,1.4,3.2,2.4,3.4,4.7
	c-11.9,7.7-27.5,7.1-37.7-2.9c-14.1-13.9-22.1-31.3-23.6-51.2C244.2,426,243,422.5,246.5,420.8z"/>
<path class="st1" d="M316.6,482.3c19.7-19.7,39.3-39.4,59-59c0.7-0.7,1.7-1,2.5-1.5c1.3,4.8,1,9.6,0,14.3c-3,14-8.9,26.8-17.7,38.1
	C349.2,488.9,332.5,491.8,316.6,482.3z"/>
</svg>
