<?xml version="1.0" encoding="utf-8"?>
<!-- Generator: Adobe Illustrator 19.1.0, SVG Export Plug-In . SVG Version: 6.00 Build 0)  -->
<svg version="1.0" id="Layer_1" xmlns="http://www.w3.org/2000/svg" xmlns:xlink="http://www.w3.org/1999/xlink" x="0px" y="0px"
	 viewBox="0 0 612 564.2" style="enable-background:new 0 0 612 564.2;" xml:space="preserve">
<style type="text/css">
	.st0{fill:#272526;}
	.st1{fill:#939292;}
	.st2{fill:#A77C4D;}
	.st3{fill:#F9F5EE;}
	.st4{fill:#8F6842;}
	.st5{fill:#7C7B7C;}
	.st6{fill:#DCDCD9;}
	.st7{fill:#828181;}
	.st8{fill:#676565;}
	.st9{fill:#898687;}
	.st10{fill:#A7A5A5;}
	.st11{fill:#5A5859;}
	.st12{fill:#AA8563;}
</style>
<path class="st0" d="M91,367.7c2.2-8.9,5.8-17.1,12-23.9c3.1-3.4,6.3-6.7,9.6-9.8c1.4-1.4,1.5-2.1-0.1-3.3
	c-6.5-4.5-10.9-10.6-13.4-18c-3.3-9.7-2.7-19.7-1.2-29.6c0.8-5.1,4.9-8.5,8.8-11.5c8-6.1,16.4-11.5,26.9-11.4
	c4.5,0,9.2,0.4,13.2,2.9c1.9,1.2,3.2,0.2,4.7-0.7c6.6-4.1,13.1-8.3,19.2-13c8.8-6.7,18.7-11.8,28.1-17.6
	c37.6-22.9,75.4-45.5,111.9-70.1c8.2-5.5,17.6-8.8,25.6-14.6c15.2-11.2,32.1-19.5,47.9-29.7c10.6-6.9,21.4-13.4,31.8-20.8
	c11.5-8.2,24.4-14.1,36.3-21.8c9.5-6.1,19.1-12,28.9-17.7c8.6-5.1,17.3-9.9,26-14.6c3.4-1.8,7.2-2.8,11-2.5
	c5.6,0.4,11.2,6.8,11.8,12.6c1,9.7-2.8,16.5-11.1,21.9c-15.1,9.8-31.1,17.8-46.6,26.7c-10.1,5.8-19.4,12.9-28.9,19.8
	c-13.6,9.8-27.8,18.5-41.9,27.4c-19.3,12.2-39.1,23.7-57.1,37.9c-10.5,8.3-22.6,14.4-33.2,22.6c-19.1,14.9-39.4,28.3-59.6,41.6
	c-25.8,17.1-51.9,33.7-79.2,48.3c-1.8,0.9-2.5,1.9-2.4,4c0.2,3.6,0.2,7.2-0.1,10.8c-0.2,2.8,1.1,4.2,3.4,5.3
	c6.3,2.7,12.9,4.2,19.5,5.1c25.2,3.6,42.1,18.1,54.3,39.7c6.3,11.2,12.4,22.6,17.9,34.2c7.4,15.5,16,30.3,21.9,46.5
	c5.3,14.3,12.6,27.9,19.3,41.6c1.3,2.7,0.6,3.5-2,4.1c-5.4,1.2-10.8,2.2-16.4,2.5c-0.8,0-1.8-0.5-2.2,0.7c-12.4,0-24.7,0-37.1,0
	c-0.2-0.6-0.6-0.7-1.1-0.7c-13.1-1.1-26.3-1.9-39.4-3.6c-15.8-2-30.9-6.2-45.7-11.8c-8.9-3.4-17.2-8.3-25.8-12.3
	c-1.6-0.7-2.6-2.1-3.6-3.6c-8.5-13.3-16.2-26.9-23.9-40.7c-5.7-10.2-11.3-20.4-14.7-31.6c-1.1-3.6-1.5-7.3-3.1-10.7
	C91,374.6,91,371.1,91,367.7z M135.7,299.9c-0.2-0.1-0.4-0.4-0.5-0.4c-0.5,0.3-0.1,0.5,0.1,0.8c0.2,0.1,0.4,0.3,0.6,0.4
	C135.9,300.4,135.8,300.2,135.7,299.9z M133.9,298c0.2,0.1,0.4,0.3,0.6,0.4c-0.1-0.2-0.2-0.5-0.3-0.7c-0.3-0.5-0.5-1-0.8-1.5
	c-0.6-1.8-1.5-3.3-3-4.5c-1.5-2.6-3.7-4.5-6.4-5.7c-0.2,0.3-0.5,0.5-0.7,0.8c2.2,1.8,4.4,3.6,6.6,5.3c0.5,1.8,1.6,3.3,3,4.4
	C133.3,297.1,133.6,297.6,133.9,298z M239.4,214c-0.4,0.2-0.7,0.5-1.1,0.7c-7,3.2-13,7.9-19.6,11.8c-21.7,12.6-43.1,25.8-65.3,37.7
	c-2,1.1-2.1,1.9-0.6,3.2c6.7,5.9,10.4,13.7,13.9,21.6c0.9,2.6,1.7,5.2,2.7,8c0.9-0.5,1.5-0.9,2.1-1.3c11.9-8.2,23.6-16.6,35.7-24.4
	c13.6-8.8,27.6-16.8,41.1-25.7c15.1-10,29.9-20.5,44.7-31c12.5-8.8,24.7-18,37.7-26.2c14.2-8.9,26.8-20.3,41.4-28.6
	c12.4-7.1,24.1-15.4,36.4-22.7c21.2-12.6,41.3-27,62.4-39.8c15.7-9.5,31.2-19.5,46.6-29.5c3.8-2.4,6.6-6,6.1-11.1
	c0-0.7,0.1-1.5,0.1-2.2c0-6.6-4-10.2-10.3-8.9c-7.9,1.6-15.3,4.8-22,9.1c-7.6,4.9-14.8,10.3-22.1,15.5
	C448.9,84.7,426.4,95.6,406,110c-15.9,11.2-32.8,21.1-49.8,30.7c-8.6,4.8-16,11.6-24.8,16.1c-10.7,5.5-20.8,11.9-30.8,18.4
	c-18.3,11.9-36.8,23.3-55.3,34.9c-0.9,0.4-1.8,0.8-2.3,1.7l0-0.1c-1,0.2-1.8,0.6-2.2,1.5l0.1,0C240.2,213.2,239.7,213.5,239.4,214
	C239.4,214,239.4,214,239.4,214z M117.1,326.7c-0.3-0.4-0.8-1.2-1.3-0.6c-0.6,0.6,0.3,0.9,0.7,1.2c1.2,1.7,2.7,3,5.6,3.4
	C120.3,328.8,118.9,327.5,117.1,326.7z M131.2,331.5c-1.7,0.1-3.4-0.7-5.6,0.7c2.3,0.7,4,0.7,5.7,0.3c8.8-0.6,15.6-5.4,22.4-10.3
	c0.2,0,0.3-0.1,0.3-0.3c0.3-0.1,0.6-0.1,0.9-0.2c2.7-1.8,5.8-3.2,7.4-6.4c3-5.5,1.6-11.3,0.8-17c0.1-0.2,0.1-0.3-0.1-0.5
	c0-0.5-0.1-1-0.1-1.5c-0.4-1.3-0.8-2.6-1.2-4c-1.8-5-3.9-9.9-7-14.2c-4.5-6.3-9.7-12-18.4-11.8c-1.7-1.1-3.6-0.8-5.3-0.5
	c-9,1.6-16.7,6-23.2,12.4c-3.6,3.1-5.2,7-5,11.8c0.2,3.3,0.1,6.7-0.1,10c-0.4,8.7,3.5,15.7,8.7,22.2c0.6,0.8,1.3,1.6,2.7,1.6
	c-0.2-0.7-0.2-1.1-0.4-1.3c-7.1-9.4-9.4-20.2-8.7-31.7c0.2-3.2,1.2-5.9,3.9-8c2.9-2.2,6.1-3.1,9.6-3.3c8.1,0.2,13.4,4.9,17.8,11
	c3.5,4.8,5.7,10.3,7.9,15.8c0,0.4,0.1,0.7,0.1,1.1c0.3,2,0.5,4,0.8,5.9c0,1,0,2,0,3C144.1,326.8,141.3,329.8,131.2,331.5z
	 M134,336.6c-0.5,0-0.9,0-1.4,0c-1,0-2,0-3,0c-1-0.1-1.9-0.3-2.9-0.4c-0.7-0.2-1.4-0.6-2.1-0.6c-1.7-0.1-3-2.4-5-0.5
	c-5.6,5.2-11.4,10.2-16.6,15.8c-8.2,9-10.2,18.8-6.2,30.4c6.4,18.5,16.7,34.9,25.8,52c0.4,0.7,0.7,1.2,1.6,1.4
	c3.3,0.9,6.6,1.9,9.9,2.8c5.4,2.1,10.9,4,16.5,5.2c13.2,3,26.7,4.4,40.2,5.8c9.3,1,18.7,1.5,28,2.2l0.3,0.1l0.3-0.1c0.5,0,1,0,1.5,0
	l0.3,0.1l0.3-0.1c2,0,4,0,6,0c5.9,0,11.8,0,17.7,0c3,0,5.9,0.1,8.9,0.1c1,0,2.1,0.1,3.1,0.1c7.7,1.4,15.2-0.4,22.7-1.9
	c2.2-0.5,1.8-1.4,1.3-3.1c-3-10-8.2-19-12.9-28.2c-9.7-19.2-18.9-38.8-30.2-57.2c-5.3-8.8-11.3-17.1-20.4-22.5
	c-5.8-3.5-12.3-5.7-18.8-7.5c-9.7-2.6-19.5-5-29.3-7.4c-2.8-2.7-4.9-2.6-8.3,0.2C153.4,329.8,144.7,335.4,134,336.6z M165.9,472.5
	c11.4,3.9,23.1,7.3,35,9.4c12.3,2.2,24.7,2.9,37.1,4.1c16.5,1.5,33.1,1.4,49.6,1.8c4.7,0.1,9.4-0.6,14.4-1
	c-7-10.6-11.2-22.2-17.2-32.7c-1.2-2.2-1.9-3-4.6-2c-6.5,2.3-13.2,3.9-20.2,3.9c-20.3-0.2-40.5,1.1-60.7-1.3
	c-19.8-2.3-39.6-3.6-58.5-10.6c-5.1-2.2-10.2-4.4-16.3-7.1c5.5,7.6,8.6,15.4,12.9,22.5c0.5,0.9,1.1,1.6,2,2.1
	C147.9,466,156.7,469.6,165.9,472.5z M134.7,320.2c-0.2-9.5-3.6-17.8-9.6-25.1c-2.9-3.6-6.1-6.9-11-7.4c-2.5-0.3-5.4-0.3-5.9,2.9
	c-0.5,3-0.9,6-0.3,9.1c1.3,6,3.7,11.5,7.1,16.6c2.9,4.4,6.5,8.1,11.8,9.6C131.6,327.2,134.7,324.8,134.7,320.2z M140.3,323.8
	c2.1-6.4,0.7-12.3-2.1-18.1C139.7,311.7,140.4,317.7,140.3,323.8z M123.5,285.6c-1.8-1.1-2.8-2-5.5-1.2
	C120.3,284.8,121.2,286.1,123.5,285.6z M136.6,301.8c-0.6,1.2-0.1,1.9,0.9,2.6C138,303.1,137.4,302.5,136.6,301.8z M122.7,330.6
	c-0.2,0.1-0.4,0.2-0.5,0.4c0.2,0.1,0.3,0.3,0.5,0.3c0.3,0.1,0.7,0,0.6-0.4C123.3,330.7,122.9,330.7,122.7,330.6z M115,324.8
	c-0.1,0.1-0.2,0.2-0.2,0.3c0,0.1,0.2,0.2,0.2,0.2c0.1-0.1,0.2-0.3,0.2-0.4C115.1,324.9,115,324.8,115,324.8z"/>
<path class="st1" d="M169.7,323.1c9.8,2.5,19.6,4.8,29.3,7.4c6.5,1.8,13,4,18.8,7.5c9.1,5.4,15.1,13.7,20.4,22.5
	c11.2,18.5,20.4,38,30.2,57.2c4.7,9.2,9.9,18.2,12.9,28.2c0.5,1.7,0.9,2.7-1.3,3.1c-7.5,1.6-14.9,3.4-22.7,1.9c-1-1.2-2-1.2-3.1-0.1
	c-3,0-5.9-0.1-8.9-0.1c-5.9-1.1-11.8-1.1-17.7,0c-2,0-4,0-6,0c-0.2-0.4-0.5-0.4-0.7,0c-0.5,0-1,0-1.5,0c-0.2-0.4-0.4-0.4-0.7,0
	c-9.3-0.7-18.7-1.2-28-2.2c-13.4-1.5-26.9-2.9-40.2-5.8c-5.6-1.3-11.1-3.1-16.5-5.2c-0.4-3.9-3.4-6.2-5.4-9.2
	c-7.1-10.8-13.2-22.2-18.9-33.7c-2.4-4.8-4.3-9.9-6.2-14.9c-3.2-8.6-0.8-16,4.6-23c7-9.1,15.8-15,27.3-16.7
	c5.6-0.8,11.1-1.8,16.6-3.4C159.6,334.3,165.6,330,169.7,323.1z"/>
<path class="st2" d="M166.7,289c-3.5-7.9-7.2-15.7-13.9-21.6c-1.5-1.3-1.4-2.1,0.6-3.2c22.1-11.9,43.6-25,65.3-37.7
	c6.6-3.8,12.6-8.6,19.6-11.8c0.4-0.2,0.7-0.5,1-0.7c0,0,0,0,0,0c0.6,0,1.2-0.1,1.5-0.8c0,0-0.1,0-0.1,0c1.2,0.1,2.3,0.1,2.2-1.5
	c0,0,0,0.1,0,0.1c1.2,0.1,2-0.5,2.3-1.7c18.4-11.6,37-23.1,55.3-34.9c10.1-6.5,20.1-12.9,30.8-18.4c8.8-4.5,16.2-11.3,24.8-16.1
	c17-9.5,33.9-19.4,49.8-30.7c20.4-14.4,42.9-25.3,63.2-39.8c7.3-5.2,14.5-10.6,22.1-15.5c6.7-4.3,14.1-7.6,22-9.1
	c6.4-1.3,10.4,2.4,10.3,8.9c0,0.7,0,1.5-0.1,2.2c-0.8-0.1-0.4-2.6-2.1-0.9c-0.7,0.7-1.5,1.5-2.4,2.1c-13.6,8.8-27.2,17.7-40.7,26.7
	c-18.5,12.3-37,24.7-55.8,36.5c-10.9,6.9-21.4,14.3-32.2,21.4c-18.3,12-36.5,24.1-54.9,36c-13.8,9-27.8,17.6-41.5,26.9
	c-8.8,6-17.8,11.6-26.6,17.6c-11.9,8.1-24.1,15.9-36.2,23.9c-5.6,3.7-11.2,7.6-17,11.1c-8.5,5.1-16.6,11-25,16.3
	C181.8,279.1,174.3,284.1,166.7,289z"/>
<path class="st3" d="M140.8,444.1c18.9,7,38.8,8.3,58.5,10.6c20.3,2.4,40.5,1.1,60.7,1.3c7,0.1,13.7-1.6,20.2-3.9
	c2.6-0.9,3.3-0.2,4.6,2c6,10.6,10.2,22.1,17.2,32.7c-5,0.4-9.7,1.1-14.4,1c-16.5-0.4-33.1-0.3-49.6-1.8c-12.4-1.1-24.8-1.9-37.1-4.1
	c-11.9-2.1-23.5-5.5-35-9.4c0.2-2.8-2.5-3.1-4-4.3c-7.8-6.1-13.4-14.3-20.3-21.2C141,446.4,139.1,445.5,140.8,444.1z"/>
<path class="st4" d="M166.7,289c7.5-4.9,15-9.9,22.6-14.7c8.4-5.3,16.5-11.2,25-16.3c5.8-3.5,11.3-7.4,17-11.1
	c12.1-8,24.2-15.8,36.2-23.9c8.8-6,17.8-11.6,26.6-17.6c13.6-9.3,27.7-17.9,41.5-26.9c18.3-11.9,36.6-24,54.9-36
	c10.8-7.1,21.3-14.5,32.2-21.4c18.8-11.8,37.3-24.2,55.8-36.5c13.5-9,27-17.9,40.7-26.7c0.9-0.6,1.7-1.4,2.4-2.1
	c1.7-1.7,1.4,0.7,2.1,0.9c0.5,5.1-2.3,8.7-6.1,11.1c-15.4,10-30.9,19.9-46.6,29.5c-21.1,12.8-41.2,27.2-62.4,39.8
	c-12.3,7.3-24,15.6-36.4,22.7c-14.6,8.3-27.2,19.7-41.4,28.6c-13,8.2-25.2,17.4-37.7,26.2c-14.8,10.5-29.6,21-44.7,31
	c-13.5,8.9-27.6,16.9-41.1,25.7c-12.1,7.9-23.8,16.3-35.7,24.4c-0.6,0.4-1.2,0.8-2.1,1.3C168.5,294.2,167.6,291.6,166.7,289z"/>
<path class="st5" d="M169.7,323.1c-4,6.9-10,11.2-17.6,13.4c-5.4,1.6-11,2.5-16.6,3.4c-11.4,1.7-20.3,7.6-27.3,16.7
	c-5.4,7-7.8,14.4-4.6,23c1.9,5,3.8,10.1,6.2,14.9c5.7,11.6,11.8,22.9,18.9,33.7c2,3,4.9,5.4,5.4,9.2c-3.3-0.9-6.6-1.9-9.9-2.8
	c-0.8-0.2-1.2-0.8-1.6-1.4c-9.2-17-19.5-33.5-25.8-52c-4-11.6-2-21.5,6.2-30.4c5.2-5.7,11-10.6,16.6-15.8c2-1.9,3.3,0.4,5,0.5
	c0.7,0.1,1.4,0.4,2.1,0.6c0.7,1.6,1.8,1.4,2.9,0.4c1,0,2,0,3,0c0.5,0.7,0.9,0.7,1.4,0c10.7-1.2,19.4-6.8,27.4-13.4
	C164.7,320.4,166.8,320.4,169.7,323.1z"/>
<path class="st1" d="M144.2,306.5c-2.3-5.5-4.4-11-7.9-15.8c-4.4-6.1-9.7-10.8-17.8-11c0-0.4,0-0.7,0-1.1c5.3-3,10.6-5.9,15.9-8.9
	c1.2-0.7,2.3-1.5,1.9-3.2c8.8-0.2,13.9,5.5,18.4,11.8c3.1,4.3,5.2,9.2,7,14.2c-1.2,2.6-3.4,4.4-5.5,6.3
	C152.5,301.9,147.9,303.5,144.2,306.5z"/>
<path class="st4" d="M134.7,320.2c0.1,4.6-3.1,7-7.8,5.7c-5.3-1.4-8.9-5.2-11.8-9.6c-3.4-5.1-5.8-10.5-7.1-16.6
	c-0.7-3.1-0.2-6.2,0.3-9.1c0.5-3.2,3.4-3.2,5.9-2.9c4.9,0.5,8.1,3.9,11,7.4C131.1,302.4,134.5,310.7,134.7,320.2z"/>
<path class="st6" d="M140.8,444.1c-1.6,1.5,0.2,2.4,0.8,3c6.9,6.9,12.6,15,20.3,21.2c1.5,1.2,4.2,1.4,4,4.3
	c-9.1-2.9-17.9-6.5-26.4-10.9c-0.9-0.5-1.4-1.2-2-2.1c-4.3-7.1-7.5-14.8-12.9-22.5C130.6,439.6,135.7,441.8,140.8,444.1z"/>
<path class="st5" d="M144.2,306.5c3.7-3,8.3-4.5,11.9-7.7c2.2-1.9,4.3-3.6,5.5-6.3c0.4,1.3,0.8,2.6,1.2,4c-0.8,0.6-0.6,1,0.1,1.5
	c0.1,0.1,0.1,0.3,0.1,0.5c-0.3,0.9-0.9,2-0.7,2.8c1.2,4.8,0.5,9.5-0.1,14.2c-1.6,3.1-4.7,4.5-7.4,6.4c-0.5-0.8-0.7-0.3-0.9,0.2
	c0,0.2-0.1,0.3-0.3,0.3c-1-1.8-1.5-6-4.1-0.8c-0.2,0.5-1.1,2.1-2.4,2.1c-1.1-1.6,0.4-2.3,0.8-3.3c0.2-0.5,0.5-1.9,0.2-1.8
	c-2.4,1.3-1.7-1.7-2.9-1.9c0-1,0-2,0-3c3.2-2.5,1.3-4.2-0.8-5.9C144.3,307.2,144.3,306.8,144.2,306.5z"/>
<path class="st5" d="M136.2,266.6c0.3,1.7-0.7,2.5-1.9,3.2c-5.3,3-10.6,5.9-15.9,8.9c-3.1-0.1-6.3-1-8.9,1.5l0,0
	c0-1.2-0.8-1.5-1.8-1.6c6.5-6.4,14.2-10.8,23.2-12.4C132.6,265.8,134.6,265.5,136.2,266.6z"/>
<path class="st7" d="M109.5,280.1c2.6-2.5,5.8-1.6,8.9-1.5c0,0.4,0,0.7,0,1.1c-3.5,0.2-6.7,1.1-9.6,3.3c-2.7,2-3.8,4.7-3.9,8
	c-0.7,11.6,1.6,22.3,8.7,31.7c0.2,0.3,0.2,0.7,0.4,1.3c-1.4,0-2.1-0.8-2.7-1.6c-5.2-6.5-9.1-13.5-8.7-22.2c0.2-3.3,0.2-6.7,0.1-10
	c-0.3-4.8,1.3-8.7,5-11.8C108.7,278.6,109.5,278.9,109.5,280.1c-0.1,0.1-0.1,0.2-0.2,0.3C109.4,280.3,109.5,280.2,109.5,280.1z"/>
<path class="st7" d="M145.2,316.5c1.2,0.2,0.5,3.2,2.9,1.9c0.3-0.2,0,1.2-0.2,1.8c-0.4,1-1.9,1.7-0.8,3.3c1.3,0,2.2-1.6,2.4-2.1
	c2.6-5.2,3.1-1,4.1,0.8c-6.8,5-13.6,9.7-22.4,10.3c0-0.3,0-0.7,0-1C141.3,329.8,144.1,326.8,145.2,316.5z"/>
<path class="st8" d="M140.3,323.8c0.1-6.1-0.6-12.1-2.1-18.1C141,311.5,142.5,317.4,140.3,323.8z"/>
<path class="st9" d="M162.3,315.4c0.6-4.7,1.3-9.4,0.1-14.2c-0.2-0.8,0.4-1.9,0.7-2.8C163.8,304.1,165.2,309.8,162.3,315.4z"/>
<path class="st8" d="M129.9,292.3c-2.2-1.8-4.4-3.6-6.6-5.4c0.2-0.3,0.5-0.5,0.7-0.8c2.7,1.2,4.9,3,6.4,5.7
	C130.3,292,130.1,292.1,129.9,292.3z"/>
<path class="st10" d="M227.6,450.7c5.9-1.1,11.8-1.1,17.7,0C239.4,450.7,233.5,450.7,227.6,450.7z"/>
<path class="st7" d="M144.4,307.5c2.1,1.7,4.1,3.5,0.8,5.9C144.9,311.5,144.6,309.5,144.4,307.5z"/>
<path class="st7" d="M117.1,326.7c1.8,0.8,3.2,2.1,4.9,4c-2.8-0.4-4.4-1.7-5.6-3.4C116.7,327.1,116.9,326.9,117.1,326.7z"/>
<path class="st11" d="M131.2,331.5c0,0.3,0,0.7,0,1c-1.7,0.4-3.3,0.4-5.7-0.3C127.8,330.8,129.5,331.6,131.2,331.5z"/>
<path class="st8" d="M130.5,291.8c1.4,1.2,2.4,2.7,3,4.5c-0.2,0.1-0.3,0.3-0.5,0.4c-1.5-1.1-2.5-2.6-3-4.4
	C130.1,292.1,130.3,292,130.5,291.8z"/>
<path class="st8" d="M123.5,285.6c-2.4,0.6-3.2-0.8-5.5-1.2C120.7,283.6,121.8,284.4,123.5,285.6z"/>
<path class="st8" d="M136.6,301.8c0.9,0.6,1.4,1.3,0.9,2.6C136.4,303.7,135.9,303,136.6,301.8z"/>
<path class="st12" d="M243,211.7c0.1,1.7-1,1.6-2.2,1.5C241.3,212.3,242.1,211.9,243,211.7z"/>
<path class="st12" d="M245.3,210.1c-0.3,1.2-1,1.8-2.3,1.7C243.5,210.8,244.4,210.4,245.3,210.1z"/>
<path class="st9" d="M129.5,336.6c-1.1,0.9-2.2,1.2-2.9-0.4C127.6,336.3,128.6,336.4,129.5,336.6z"/>
<path class="st10" d="M254.2,450.8c1.1-1.1,2.1-1.1,3.1,0.1C256.3,450.9,255.3,450.9,254.2,450.8z"/>
<path class="st12" d="M240.9,213.2c-0.3,0.7-0.9,0.8-1.5,0.8C239.7,213.5,240.2,213.2,240.9,213.2z"/>
<path class="st7" d="M116.5,327.3c-0.4-0.3-1.3-0.6-0.7-1.2c0.5-0.5,1,0.2,1.3,0.6C116.9,326.9,116.7,327.1,116.5,327.3z"/>
<path class="st9" d="M163,297.9c-0.7-0.4-0.9-0.9-0.1-1.5C162.9,296.9,163,297.4,163,297.9z"/>
<path class="st9" d="M134,336.6c-0.5,0.7-0.9,0.7-1.4,0C133,336.6,133.5,336.6,134,336.6z"/>
<path class="st8" d="M133.9,298c-0.3-0.5-0.6-0.9-0.9-1.4c0.2-0.1,0.3-0.3,0.5-0.4c0.3,0.5,0.5,1,0.8,1.5
	C134.1,297.8,134,297.9,133.9,298z"/>
<path class="st7" d="M122.7,330.6c0.2,0.1,0.5,0.1,0.6,0.3c0.1,0.4-0.2,0.5-0.6,0.4c-0.2-0.1-0.4-0.2-0.5-0.3
	C122.4,330.8,122.6,330.7,122.7,330.6z"/>
<path class="st12" d="M239.4,214c-0.3,0.2-0.7,0.5-1,0.7C238.7,214.5,239.1,214.2,239.4,214z"/>
<path class="st8" d="M135.7,299.9c0.1,0.2,0.2,0.5,0.3,0.7c-0.2-0.1-0.4-0.3-0.6-0.4C135.5,300.2,135.6,300.1,135.7,299.9z"/>
<path class="st8" d="M135.3,300.3c-0.3-0.2-0.6-0.5-0.1-0.8c0,0,0.3,0.3,0.5,0.4C135.6,300.1,135.5,300.2,135.3,300.3z"/>
<path class="st7" d="M153.9,321.9c0.2-0.5,0.4-0.9,0.9-0.2C154.5,321.8,154.2,321.9,153.9,321.9z"/>
<path class="st8" d="M134.2,297.7c0.1,0.2,0.2,0.5,0.3,0.7c-0.2-0.1-0.4-0.3-0.6-0.4C134,297.9,134.1,297.8,134.2,297.7z"/>
<path class="st7" d="M115,324.8c0.1,0,0.2,0.1,0.2,0.1c-0.1,0.1-0.2,0.3-0.2,0.4c-0.1-0.1-0.2-0.2-0.2-0.2
	C114.7,325,114.9,324.9,115,324.8z"/>
<path class="st10" d="M218.7,450.7c0.2-0.4,0.5-0.4,0.7,0l-0.3,0.1L218.7,450.7z"/>
<path class="st10" d="M220.9,450.7c0.2-0.4,0.5-0.4,0.7,0c0,0-0.3,0.1-0.3,0.1L220.9,450.7z"/>
<path class="st5" d="M109.5,280.1c-0.1,0.1-0.1,0.2-0.2,0.3C109.4,280.3,109.5,280.2,109.5,280.1
	C109.5,280.1,109.5,280.1,109.5,280.1z"/>
</svg>
