<?xml version="1.0" encoding="utf-8"?>
<!-- Generator: Adobe Illustrator 19.1.0, SVG Export Plug-In . SVG Version: 6.00 Build 0)  -->
<svg version="1.0" id="Layer_2" xmlns="http://www.w3.org/2000/svg" xmlns:xlink="http://www.w3.org/1999/xlink" x="0px" y="0px"
	 viewBox="0 0 392 256" style="enable-background:new 0 0 392 256;" xml:space="preserve">
<style type="text/css">
	.st0{fill:#98712A;stroke:#000000;stroke-miterlimit:10;}
	.st1{fill:#CCCCCC;stroke:#000000;stroke-miterlimit:10;}
	.st2{fill:#F7F6F5;stroke:#000000;stroke-miterlimit:10;}
</style>
<path class="st0" d="M92.5,110.2l189.1,36.3c0,0-3.9,4.2-5.1,4L92.5,114.6C92.5,114.6,87.7,113,92.5,110.2z"/>
<path class="st1" d="M245.3,167.3l-0.7,3.5l-19.3-1c0,0,1.6-3,5.2-2.8C230.5,166.9,244.7,167.9,245.3,167.3z"/>
<path class="st0" d="M306.8,129.4c0,0-28.7,39.2-41,42c0,0-10,2.8-21.3-0.6l1-5.9c0,0,12.2,14.2,51.2-31.2
	C296.7,133.7,304.3,128,306.8,129.4z"/>
<path class="st0" d="M331.4,122c0,0-19.2-9.1-42.3,16.3c0,0-22.4,29-45.6,22.7c0,0-3,4.4,1.8,6.3c0,0,17,7.8,41.4-20.9
	c24.4-28.6,43.6-21.4,43.6-21.4L331.4,122z"/>
<path class="st2" d="M243.5,161l-15.8,0.5c0,0-6.5,4.3-11.6,5.1c0,0,1.5,3.3,9.2,3.2c0,0,1.1-3,5.2-2.8l14.4,0.5
	c0,0-5.2-3.2-1.5-5.9"/>
<path class="st0" d="M148.3,100.4l-88.9,26.4c-1.9,0.6-4-0.5-4.6-2.5l0,0c-0.6-1.9,0.5-4,2.5-4.6l88.9-26.4c1.9-0.6,4,0.5,4.6,2.5h0
	C151.4,97.8,150.3,99.8,148.3,100.4z"/>
</svg>
