<?xml version="1.0" encoding="utf-8"?>
<!-- Generator: Adobe Illustrator 19.1.0, SVG Export Plug-In . SVG Version: 6.00 Build 0)  -->
<svg version="1.0" id="Layer_1" xmlns="http://www.w3.org/2000/svg" xmlns:xlink="http://www.w3.org/1999/xlink" x="0px" y="0px"
	 viewBox="0 0 519.4 478.4" style="enable-background:new 0 0 519.4 478.4;" xml:space="preserve">
<style type="text/css">
	.st0{fill:#292424;}
	.st1{fill:#F4C462;}
	.st2{fill:#E8EAEB;}
	.st3{fill:#DFBF94;}
	.st4{fill:#ECBF70;}
	.st5{fill:#F6C170;}
	.st6{fill:#F0C953;}
	.st7{fill:#E3BC75;}
	.st8{fill:#271B2F;}
	.st9{fill:#241D37;}
	.st10{fill:#2C2321;}
	.st11{fill:#F5C959;}
	.st12{fill:#F7C16C;}
	.st13{fill:#DA604F;}
	.st14{fill:#CE5F5C;}
</style>
<path class="st0" d="M17.2,156.4c2.2,0.5,1.8-1.4,2.2-2.5c5.5-15.2,16-24.9,32-27.5c17.2-2.8,31.4,3.2,41,17.7
	c9.3,14,9.2,28.7,1.2,43.5c-1.4,2.6-5.5,4.5-4.1,7.7c1.1,2.4,4.4,3.9,6.7,5.8c20.6,16.7,41.2,33.3,61.6,50c2.8,2.3,4,2.7,6.3-0.8
	c24.3-36.8,48.7-73.5,73.2-110.1c2.3-3.4,0.9-4-2-5.3c-23.2-10.6-34.3-38.9-24.5-61.8c10.6-24.6,37.7-36.6,61.9-26.9
	c19.2,7.7,30.2,22.5,31,43.1c0.7,20.4-8.8,35.8-27.2,45.1c-4,2-4.3,3-1.8,6.8c24.4,36.3,48.5,72.9,72.6,109.4
	c1.7,2.6,2.8,3.2,5.6,0.9c21.5-17.6,43.1-35.1,64.8-52.4c3.1-2.5,3.3-3.8,0.7-6.8c-10.1-11.3-12.2-30-5.2-43.6
	c7.8-15.3,23.6-24.4,39.5-22.9c18.3,1.7,30.2,11.5,36.4,28.6c0.4,1.1,0.4,2.4,2.1,2c0,7,0,14,0,21c-1.9-1-1.7,0.6-2,1.6
	c-4.5,13.1-13.1,22.2-26.4,26.5c-2.4,0.8-3.4,2-3.8,4.5c-2.2,14.1-4.6,28.2-7,42.3c-8.9,52.8-17.8,105.6-26.7,158.4
	c-1.4,8.5-4.7,11.3-13.4,11.3c-103.6,0-207.2,0-310.9,0c-1,0-2,0-3,0c-7.5-0.3-10.7-3-11.9-10.2c-2.4-13.6-4.6-27.2-6.9-40.8
	c-9-53.5-18-106.9-26.9-160.4c-0.4-2.6-1.5-3.6-4-4.2c-14.6-3.9-24.3-13.2-29.1-27.4c-0.4-1-0.2-2.6-2-1.5
	C17.2,170.4,17.2,163.4,17.2,156.4z M379.5,305.1c-0.2,0.2-0.4,0.4-0.7,0.6c-0.2,0-0.4,0.1-0.5,0.2c-2.5,1.4-4.7,3.1-6.6,5.3
	c-8.7,6.9-17.4,13.9-26.2,20.7c-5.6,4.3-11.4,3.6-15.1-2c-15.1-22.3-30.1-44.6-45-67c-9.1-13.7-18-27.5-27-41.3
	c-1.8-2.8-3.5-3.3-5.5-0.2c-7.5,11.6-15.1,23.1-22.7,34.6l0,0.1c0,0-0.2,0.1-0.2,0.1c-0.5,0.7-0.9,1.3-1.4,2
	c-8.9,12.8-17.7,25.7-25.8,39.1c-1.9,1.7-3.2,3.7-4.1,6c-5.8,8.5-11.6,17.1-17.4,25.6c-4.3,6.3-9.8,7.4-15.8,3.2
	c-2.6-1.8-5-3.8-7.5-5.7c-0.5-0.9-1-1.6-2.1-1.7c-0.6-0.4-1.3-0.8-1.9-1.2c-0.9-2.2-3-3.1-4.8-4.3c-6.5-5.3-13-10.5-19.5-15.8
	c-1.8-2.1-4-3.8-6.4-5.1c-9.5-7.6-18.9-15.2-28.4-22.9c-4.3-3.9-8.6-7.7-14.3-11.5c1.6,8.5,2.9,15.9,4.3,23.3c0,0,0.1,0.2,0.1,0.2
	c0.8,9.8,2.8,19.4,4.9,28.9c0.1,2,0,4,0.4,5.9c5.3,25.1,8,50.6,13.4,75.6c0.9,4.3,2.1,4.9,5.6,4.3c0.5,0.1,1,0.2,1.5,0.2
	c97.2,0,194.4,0,291.6,0c1.2,0,2.7,0.7,3.6-0.9c3-7.4,3.7-15.2,4.8-23c0-0.4,0.1-0.8,0.1-1.2c6.4-37.6,12.9-75.1,19.3-112.7
	c-0.3-0.2-0.6-0.4-1-0.6c-2.1,1.8-4.1,3.6-6.2,5.4c-1.8,0.8-3.2,2.1-4.4,3.6c-11.5,8.7-22.7,17.8-33.6,27.2c-2.1,1-3.9,2.4-5.2,4.3
	C379.7,304.7,379.5,304.8,379.5,305.1z M283.2,83.5L283.2,83.5c-2-9-8-14.4-15.8-18.3c-9.6-4.6-18.7-3.8-27.5,2.1
	c-2.6,1.9-5.3,3.6-6.9,6.5c-6.3,7.7-8.1,16.2-4.7,25.7c0.3,1.3,0.7,2.7,1,4c-2.3,5.3,4.4,17.3,9.8,17.8c1,0.1,2.2-0.1,2.4-1.3
	c0.2-1.3-0.5-2.2-1.8-2.5c-3.6-1-5.3-4.3-7.9-6.6c-0.6-0.5-2-1.8,0.1-2.6c2.5,3.3,5.6,6,9.3,8c12.8,6.3,23.8,4.8,34.4-4.5
	c3.2-3.7,6.8-7.1,7.4-12.4c0.1-0.3,0.2-0.6,0.2-0.9C285.1,93.5,285.1,88.5,283.2,83.5z M471.1,160.5c0-1,0.1-2.1,0.1-3.1
	c3.9,2.4,1.5,6.2,1.9,9.4c0.4,2.7,0.3,5.2,3.7,6.1c1.5-4.1-2.9-7.2-1.6-11.1c1.3-4.1-1.7-7.5-2.4-11.3c-0.7-3.6-4.7-3.9-7.5-1
	c-0.7,0-1.3,0-2,0c-0.8-0.5-1.7-1-2.5-1.5c-7.7-4.1-20.1-4.3-27.4,5c-6.8,8.6-6.6,19.5,0.5,27.8c2.3,3.2,5.4,5.4,9.3,6.3
	c4.3,1.8,8.7,1.6,13.1,0.4c7.4-2,11.1-7.6,14-14.1C472.8,169.2,471.6,164.8,471.1,160.5z M71.3,183.5L71.3,183.5
	c8.8-6,11-16,5.9-26.8c-0.3-0.5-0.5-1-0.8-1.5c-3.3-5.1-7.6-8.8-14-9c-4.6-2.4-8.9-1.1-13.2,1.1c-4.5,1.6-7.6,4.7-9.7,9
	c-4.3,7.9-3.6,16.9,1.7,23.7c5.8,7.2,14,9.8,23,7.2C67.2,187,69.4,185.6,71.3,183.5z M71.2,205.9c1.5,8.7,2.9,16.4,3.9,24.1
	c0.4,3.5,1.9,5.7,4.6,7.8c29.1,23.4,58.1,46.8,87,70.3c3,2.4,4.1,2.2,6.3-1c24.3-36.8,48.7-73.5,73.1-110.2c6-9,13.2-9,19.1,0
	c24.4,36.7,48.8,73.4,73.2,110.2c2,3,3.1,3.6,6.2,1.1c29.1-23.9,58.3-47.5,87.5-71.3c1.4-1.1,3.1-2,3.5-4c1.4-8.6,2.9-17.2,4.5-27
	c-13.6,11-26.3,21.3-38.9,31.5c-15.1,12.3-30.3,24.5-45.4,36.8c-7.1,5.7-12.3,4.8-17.6-2.6c-0.6-0.8-1.1-1.6-1.7-2.5
	c-24.3-36.6-48.6-73.2-72.9-109.8c-2.5-3.8-5.1-7.5-7.9-11.6c-0.8,1.1-1.2,1.6-1.6,2.1c-26.8,40.3-53.6,80.7-80.5,121
	c-5.5,8.3-11,9.1-18.6,2.9c-22.1-17.9-44.2-35.9-66.3-53.8C83.2,215.4,77.6,211,71.2,205.9z M87.2,352.7c0-3,0-5.9,0-8.9
	c0-1.3-0.5-2.3-2-2.2c-1.2,0-1.9,0.7-1.9,1.9c0,5.9,0,11.9,0,17.8c0,1.1,0.5,1.9,1.7,2c1.5,0.1,2.1-0.7,2.1-2.1
	C87.2,358.3,87.1,355.5,87.2,352.7z M38.1,153.3c2.3-2.2,4.8-4,6.5-6.4c1.2-1.7,6.6-1.2,3.8-4.5c-2.4-2.8-4.2,1.5-6,2.9
	c-1.4,1.1-2.5,2.6-3.9,3.8C37.4,150.2,36.7,151.3,38.1,153.3z M479.7,161.9c1.4-2,2.2-16,1.1-17.5c-0.7-1-1.8-1-2.6-0.5
	c-1,0.6-1.2,1.9-0.6,2.6c1.9,1.9,1.5,4.2,1.6,6.5C479.3,155.8,478.7,158.8,479.7,161.9z M405.1,405.4c-1.5,0.3-3.7-0.6-3.8,1.9
	c-0.1,2.6,2.1,2.1,3.6,2c1.6-0.1,4.1,0.8,4-2.1C408.9,404.7,406.6,405.7,405.1,405.4z M84.5,305.5c-2,2.9-1.1,5.5-1.3,7.9
	c-0.1,1.1,0.6,1.9,1.8,2c1.5,0.1,1.9-0.8,2.1-2.1C87.6,310.2,85.2,308.6,84.5,305.5z M411.1,395.6c0.7,2.9-1.2,5.5,1.5,7.5
	c0.8,0.6,2.1,0.2,2.4-0.9C415.7,399.3,415,397.1,411.1,395.6z M82,324.1c-0.9,4.2-1.2,8.4,0.2,12.6C83.2,332.5,83.6,328.3,82,324.1z
	 M414.3,384.8c1-3.6,1.5-7.2-0.2-10.6C412.9,377.7,412.9,381.2,414.3,384.8z M465.9,140.4c3.6,1.3,7.1,1.2,10.6-0.1
	C472.9,139.5,469.4,139,465.9,140.4z M170.5,316.4c-3.6-1.3-7.1-1.1-10.6-0.1C163.5,317.5,167,317.7,170.5,316.4z M285.7,82.4
	c1.6-2.3,2.2-4.5,0.6-6.6c-0.3-0.4-1.9-0.5-2.2-0.1C281.4,78.7,286.2,80,285.7,82.4z M234.1,244.9c1.1-1.3,3.8-1.6,2.5-4.2
	c-0.5-1-1.6-1.6-2.5-0.9C232.4,241.2,233.2,243,234.1,244.9z M287.1,104.4c-0.2-0.4,0-1.8-1.5-1.5c-1.3,0.3-2.4,0.9-2.4,2.6
	c0,1.1,0.5,1.8,1.7,1.9C286.8,107.4,287.2,106.2,287.1,104.4z M202.9,287.5c-1,0-1.7,0.6-1.7,1.8c0,0.9-0.6,2.3,0.9,2.3
	c1,0,2.5,0,2.8-1.5C205.2,288.7,204.4,288,202.9,287.5z M145.1,309.2c-0.1-1.2-0.8-1.8-2-1.7c-1.2,0-1.9,0.6-1.7,1.9
	c0.2,1.1,0.9,1.8,2,1.8C144.8,311.3,145.1,310.3,145.1,309.2z M472.3,177.3c-0.9,1.6-3.5,1.7-2.2,3.9c0.3,0.6,1.7,1.3,1.8,1.1
	C473.1,181.2,473.6,179.7,472.3,177.3z M81.9,289.2c1.9-1.9,1.3-3.6,0.7-6.5C80.8,285.6,81,287.2,81.9,289.2z"/>
<path class="st1" d="M158.2,326.4c2.5,1.9,5,3.9,7.5,5.7c6,4.2,11.5,3.1,15.8-3.2c5.8-8.5,11.6-17.1,17.4-25.6c5.6,0.9,4.2-3,4.1-6
	c8.1-13.4,16.9-26.3,25.8-39.1c1.2,0.6,0.4,1.7,0.6,2.6c0.5,2.7,3.1,3.5,3.6,1.2c0.7-2.5,0.3-4.9-2.7-6
	c7.6-11.5,15.1-23.1,22.7-34.6c2-3.1,3.7-2.6,5.5,0.2c9,13.8,17.9,27.6,27,41.3c14.9,22.4,29.9,44.7,45,67c3.8,5.6,9.5,6.4,15.1,2
	c8.8-6.8,17.5-13.8,26.2-20.7c7.8,0.6,8.1,0.4,6.6-5.3c0.1-0.2,0.3-0.2,0.5-0.2c0.7,0.3,0.9,0.1,0.7-0.6c0-0.2,0.2-0.4,0.4-0.4
	c1.9-0.1,3.2,1.2,5.2,3.1c0-3.2,0-5.3,0-7.4c10.9-9.4,22.1-18.6,33.6-27.2c0.5,0.9,0.6,2.4,2.3,1.8c2.7-1,2.1-3.4,2.1-5.4
	c2.1-1.8,4.1-3.6,6.2-5.4c0.3,0.2,0.6,0.4,1,0.6c-6.4,37.6-12.9,75.1-19.3,112.7c-2.7-0.5-1.3-2.2-1.1-3.7c0.2-1.7,0.3-4-2.7-2.3
	c-1.3,0-2.7,0-4,0c-0.3-1.4-1.5-2.5-1.8-0.5c-0.5,3.9-0.8,8,0.3,12.1c2-1,1.2-2.5,1.4-3.6c1.3,0,2.7,0,4,0c0.3,1.2-0.6,2.7,1.1,3.5
	c1.6-1.1,0.5-3.7,2.7-4.4c-1.1,7.8-1.8,15.6-4.8,23c-1-0.1-1.9-0.2-2.9-0.2c0-1.4,0-2.9-2-2.9c0-0.3,0-0.7,0-1c1.3-0.1,2-0.7,2-2
	c0.8,0,1.7,0.2,2.4-0.2c2.7-1.2,1.2-3.7,1.5-5.6c0.2-1.4-0.7-2.2-2.1-2.1c-1.9,0.1-1.7,1.6-1.8,2.9c-3.3,7.2-9.7,4.9-15.2,4.9
	c-38.3,0.1-76.5,0-114.8,0c-0.3-1.8,0.6-3.9-0.9-5.6c-1.6,0.9-0.7,3.7-3.2,3.6c1.5-3.9-3.6-3.4-4-6c1.9-0.4,4.6,1.2,5.7-1.3
	c0.9-2.2-1.6-3.2-2.7-4.7c0-0.7,0-1.4-0.1-2.1c1.7-3,3.3-6,5.2-8.9c7.2-10.5,14.2-21.2,22.1-31.2c5.3-6.8,6-12.9,0.7-19.6
	c1,0,2.1-0.1,3.1-0.1c2.9,0.4,3.9-0.8,4.1-3.8c0.2-3.1-2.4-4.9-2.3-7.9c0.1-2.5-2.2-4.1-4.2-3.8c-2.5,0.5-1.3,2.8-0.8,4.5
	c0.2,0.6,0.1,1.3,0.2,2c-4.2-1.5-2.2,2.9-3.8,4c-3.8-4.7-7.4-9.6-10.5-14.8c1.3-0.2,3.1,0.1,3.2-2.1c0-1.1-0.5-1.8-1.7-1.9
	c-2.2-0.2-2.2,1.4-2.3,2.9c-6.4-8.2-12.4-16.9-18.2-25.6c-0.3-5.1-3.8-3.3-6.6-3.1c-0.8,0-1.5,0.1-2.3,0.1c-0.9-1.1-1.5-3-3.2-2.3
	c-1.8,0.7-1.5,2.8-1.7,4.5c-11.9,16.8-23.7,33.5-35.6,50.3c-3.2,4.5-3.2,8.8,0,13.3c2.7,3.8,5.7,7.3,7.6,11.6
	c-1.4,0-2.8,0.1-4.2,0.1l0,0c-0.2-1.6,0.7-4-2.2-3.8c-2.4,0.2-1.5,2.4-1.8,3.8c-1,3.4-0.3,6.7,1,9.8c0.5,1.4,2.2,3,4,1.8
	c1.7-1.1,1.2-2.9,0.4-4.5c-0.5-1-1.4-1.9-1.4-3.1c3.3,0.6,4.3-1.2,4.2-4.1c2.7,2.2,4.3,5.2,5.9,8.1c-1.1,2.4,0.6,4.9-1,7.5
	c2.3-0.5,3.8-0.8,5.4-1.1l0,0.1c-0.1,0.8,0.3,1.2,1.1,1.2c1.5,1.3,2.5,2.9,3.3,4.8c-1.8,0.7-3,1.9-2.9,4c0,1.2,0.1,2.4,1.3,3
	c1.5,0.7,1.7-1.1,2.7-1.5c0.2,0.9,0.3,2.7,0.6,2.7c4.3,0.4,4.6,4.5,6.6,6.9c1.8,2.3,3.3,5,7,4.2c0,0,0,0,0,0c0.8,3.9,4,1.4,5.9,2.2
	c0,1.3,0,2.6,0,4c-0.8,3.3-3.5,1.9-5.4,1.9c-44.8,0.1-89.6,0.1-134.4,0.1c-1.3,0-2.7,0-4,0c-1.1,0-1.9,0.4-2.1,1.6
	c-0.2,1.4,0.4,2.2,1.9,2.4c0,0.6,0,1.2,0,1.8c-1.3,0.3-2.8-0.3-3.8,1.1c-3.5,0.6-4.7-0.1-5.6-4.3c-5.4-25.1-8.1-50.6-13.4-75.6
	c-0.4-1.9-0.3-3.9-0.4-5.9c2.2-2,0.7-6.6,5.1-7c0.3,1.8-0.6,3.8,1.7,6.6c0.4-6,0.6-10.8-0.1-15.6c-0.1-0.4-1-0.6-1.6-0.9
	c-0.3-1.8,0.5-3.8-1.3-6.2c-1.3,5.5-3.7,9.9-3.4,15.1c-1.4-6.6-2.8-13,0.1-19.5c0.8-1.8,1.6-4.1-0.8-5.1c-2.4-1.1-2.3,1.4-3,2.8
	c-0.2,0.5-1.1,0.6-1.6,1c0,0-0.1-0.2-0.1-0.2c0.6-1.9-1.2-5.4,1.7-5.5c6.4-0.4,3.9-3.3,2.4-6.2c0-0.7,0-1.4,0.1-2.1
	c2,0.5,3.4,2.8,5.9,2c9.5,7.6,18.9,15.2,28.4,22.9c-0.4,4.8,2.8,5.2,6.4,5.1c6.5,5.3,13,10.5,19.5,15.8c0,0-0.3,0.3-0.3,0.3
	c-1.3,0.1-3.1-0.7-3.7,1.3c-0.5,1.5,0.2,2.5,1.8,2.7c-1,2-2.4,4.3,0.8,5.5c3.7,1.4,3-1.7,3.2-3.7c0.2-1.9,1.6-1.8,2.9-1.8
	c0.6,0.4,1.3,0.8,1.9,1.2c-0.9,1-3.2,0.7-2.8,2.9c0.1,0.9,0.6,1.5,1.5,1.7C157.2,329.8,156.9,327.1,158.2,326.4z M163.2,345.4
	c2.7,2.8,7.3,2.8,10,0c1.5-0.7,2.1,2.6,3.7,0.8c0.6-0.7,0.4-2.2-0.7-2.5c-4.2-1.5-8.3-3.1-12.9-2.3c-1.1,0.2-1.9,0.5-2,1.7
	C161.1,344.6,161.9,345.3,163.2,345.4z M107.2,384.4c2.5,0.8,4.4,1,4.1-2.7c-0.3-3.4-0.1-6.8-0.1-10.3c3.2-2.7,3.3-5.3,0-8
	c-2.7-0.3-4.4,0.5-4,3.7c0.2,1.4,0,2.9,0,4.3c-3.4-1-1.5-3.8-2-5.8c-0.3-1-0.3-2.1-1.7-1.9c-1.2,0.2-0.9,1-0.7,1.9
	c1.1,6.9,0.2,13.9,1.9,21.1C105.6,385.9,106.4,385.1,107.2,384.4z M403.5,297.3c1.8-1.8,4.8-1.4,7.2-2.6c1.1-0.6,3.2-1.8,1.9-3.9
	c-1.2-1.9-3-1.7-4.7-0.6c-1.9,1.2-3.3,3.1-5.8,3.6c-0.9,0.2-1,1.2-0.8,2.1C401.5,296.8,402.2,297.2,403.5,297.3z M130.6,310.4
	c-3.1-0.4-5.4-2.8-8.5-3c-1.4-0.1-2.7,0.1-2.7,2c0,1.5,1.1,2,2.3,1.9C124.6,311.2,127.6,311.9,130.6,310.4z M230.7,375
	c0.6-2.5,0.8-4.7-0.2-7.2C226.2,371.3,226.2,371.8,230.7,375z M302.3,337.2c-0.7,2.4-4.4,2.7-2.6,5.4c0.8,1.2,2.6,1.2,3.6,0.3
	C305.2,341.2,303.7,339.5,302.3,337.2z M334.2,335.4c-0.9,0.3-2.6,0-2.1,1.7c0.3,0.9,0.5,2.7,2.5,2.3c1.4-0.2,2.6-0.4,2.5-2.2
	C337,335.4,335.5,335.5,334.2,335.4z"/>
<path class="st2" d="M71.2,205.9c6.4,5.1,12,9.5,17.5,14c22.1,17.9,44.2,35.9,66.3,53.8c7.6,6.2,13.1,5.3,18.6-2.9
	c26.8-40.3,53.6-80.7,80.5-121c0.4-0.5,0.8-1,1.6-2.1c2.8,4.1,5.4,7.8,7.9,11.6c24.3,36.6,48.6,73.2,72.9,109.8
	c0.6,0.8,1.1,1.7,1.7,2.5c5.2,7.4,10.5,8.2,17.6,2.6c15.2-12.2,30.3-24.5,45.4-36.8c12.7-10.2,25.3-20.5,38.9-31.5
	c-1.6,9.8-3,18.4-4.5,27c-0.3,2-2.1,2.9-3.5,4c-29.2,23.7-58.4,47.4-87.5,71.3c-3.1,2.6-4.3,1.9-6.2-1.1
	c-24.3-36.8-48.8-73.5-73.2-110.2c-6-9-13.1-9-19.1,0c-24.4,36.7-48.9,73.4-73.1,110.2c-2.1,3.2-3.2,3.4-6.3,1
	c-28.9-23.5-58-46.9-87-70.3c-2.6-2.1-4.1-4.3-4.6-7.8C74.1,222.2,72.6,214.6,71.2,205.9z"/>
<path class="st1" d="M470.3,173.3c-2.9,6.5-6.5,12.1-14,14.1c-4.4,1.2-8.8,1.4-13.1-0.4c1.3-0.7,1.6-1.5,0.1-2.3
	c-3-1.6-5.7-4.1-9.4-4c-7.2-8.3-7.3-19.2-0.5-27.8c7.2-9.2,19.7-9,27.4-5c0.9,0.5,1.7,1,2.5,1.5c0.6,0.7,1.3,1.4,1.9,2
	C466.8,158.8,469.7,165.8,470.3,173.3z"/>
<path class="st1" d="M64.3,187.2c-9,2.6-17.3,0-23-7.2c-5.4-6.7-6.1-15.8-1.7-23.7c2,0,3.2,2,5.8,2.8c-0.7-3.4,0.5-5.8,2.8-7.7
	c1.4-1.1,1-2.7,1-4.1c4.3-2.2,8.6-3.5,13.2-1.1c-0.1,0.1-0.3,0.2-0.3,0.4c0,0.1,0,0.4,0.1,0.5c10.5,4.4,9.5,3.8,9.1,13.4
	c-0.1,1.7,0,3.3,0,5c0,4.2-0.4,8.1-4.9,10.2c-1.1,0.5-1.3,1.7-0.8,2.5c0.9,1.4,1.6,0,2.4-0.4c1.8-0.8,3.5-1.6,5.3-2.4
	c0.7,0,1.3,0,2,0c-1.3,2.7-2.6,5.4-3.9,8.1c0,0,0,0,0,0C67.9,182.8,65.9,184.6,64.3,187.2z"/>
<path class="st3" d="M109.4,402.3c1-1.4,2.5-0.7,3.8-1.1c0.7,0,1.3,0.1,2,0.1c95.3,0,190.6,0,286,0c0.7,0,1.3,0,2,0
	c1,0.1,1.9,0.2,2.9,0.2c-0.9,1.6-2.4,0.9-3.6,0.9c-97.2,0-194.4,0-291.6,0C110.4,402.5,109.9,402.4,109.4,402.3z"/>
<path class="st4" d="M95.2,309.4c-4.4,0.4-2.9,5-5.1,7c-2-9.6-4.1-19.1-4.9-28.9c0.6-0.3,1.4-0.5,1.6-1c0.7-1.4,0.6-3.9,3-2.8
	c2.3,1,1.6,3.4,0.8,5.1c-2.9,6.5-1.5,12.9-0.1,19.5c-0.3-5.2,2.2-9.6,3.4-15.1c1.8,2.4,1,4.4,1.3,6.2
	C95.2,302.7,95.2,306.1,95.2,309.4z"/>
<path class="st5" d="M73.2,175.4c-1.8,0.8-3.5,1.6-5.3,2.4c-0.8,0.4-1.5,1.8-2.4,0.4c-0.5-0.9-0.3-2.1,0.8-2.5c4.5-2,5-6,4.9-10.2
	c0-1.7-0.1-3.3,0-5c0.4-9.6,1.4-9-9.1-13.4c-0.1,0-0.1-0.3-0.1-0.5c0-0.1,0.2-0.3,0.3-0.4c6.5,0.2,10.7,3.9,14,9
	C73.9,161.8,76.3,169,73.2,175.4z"/>
<path class="st6" d="M233,73.8c1.6-2.9,4.3-4.6,6.9-6.5c0.4,0.1,0.9,0.1,1.3,0.2c0.6,2.8-1.3,4.5-2.5,6.6c-1.9,3.1-3.1,6.4,0.6,9.3
	c0,2.7,0,5.3,0.1,8c0,0.7,0,1.4,0,2c0,0.7,0,1.3,0,2c-2.9,0.2-1.1-4.2-4-4c-0.8-4.3,1.8-9.2-2-13C233.1,76.9,233,75.3,233,73.8z"/>
<path class="st7" d="M95.1,275.4c-2.5,0.8-3.9-1.5-5.9-2c-0.2-1.8-1.6-2.8-3-2.5c-1.7,0.4-1,2.2-1,3.4c0,1.1-0.7,3.4,2,2.1
	c0.3-0.3,0.7-0.7,1-1c0.3,0,0.6,0,0.9,0c1.6,3,4.1,5.9-2.4,6.2c-2.9,0.2-1.1,3.6-1.7,5.5c-1.4-7.4-2.7-14.8-4.3-23.3
	C86.5,267.7,90.8,271.5,95.1,275.4z"/>
<path class="st4" d="M283,99.5c-0.7,5.2-4.2,8.7-7.4,12.4c-0.2-0.2-0.3-0.3-0.5-0.5c0-5.6,0.2-11.3,0-16.9c-0.1-3,0.9-4.8,4-5
	c0,2.6,0.2,5.3-0.1,7.9C278.8,101.2,280.3,101.3,283,99.5z"/>
<path class="st4" d="M275.6,111.8c-10.7,9.3-21.6,10.8-34.4,4.5c0-1,0.1-1.9,0.1-2.9c1.7-0.1,3,0.5,4.6,1.3c7.3,4,14.9,3.9,22.4,0.3
	c2.4-1.1,3.8-4,6.9-3.8C275.3,111.5,275.4,111.7,275.6,111.8z"/>
<path class="st8" d="M87.1,352.7c0,2.8,0,5.6,0,8.4c0,1.4-0.6,2.2-2.1,2.1c-1.2-0.1-1.7-0.9-1.7-2c0-5.9,0-11.9,0-17.8
	c0-1.1,0.7-1.8,1.9-1.9c1.5,0,2,0.9,2,2.2C87.2,346.8,87.2,349.7,87.1,352.7z"/>
<path class="st8" d="M465.2,149.4c2.8-2.8,6.8-2.6,7.5,1c0.7,3.8,3.7,7.2,2.4,11.3c-1.3,4,3.1,7,1.6,11.1c-3.4-0.9-3.3-3.4-3.7-6.1
	c-0.4-3.1,2-7-1.9-9.4C471.4,153.1,468.3,151.2,465.2,149.4z"/>
<path class="st4" d="M267.4,65.2c7.8,3.9,13.8,9.3,15.8,18.2c-2.8,0.2-1.1-4.2-4-4c-0.6-1-1.5-2.4-1.9-0.1c-0.5,2.5-0.4,5-0.5,7.6
	c-2.3-3.7-1.2-7.7-1.5-11.5c-0.1-1.6,0.5-3.5-1.9-3.9c-3.3-0.6-4.6-3.5-6.2-6L267.4,65.2z"/>
<path class="st4" d="M241.2,67.5c-0.4-0.1-0.9-0.1-1.3-0.2c8.8-5.9,17.9-6.7,27.5-2.1c0,0-0.3,0.3-0.3,0.3
	C258.3,64.4,249.7,65.8,241.2,67.5z"/>
<path class="st8" d="M231.9,108.4c-2.2,0.7-0.8,2-0.1,2.6c2.6,2.2,4.3,5.6,7.9,6.6c1.3,0.4,2.1,1.3,1.8,2.5
	c-0.2,1.1-1.4,1.4-2.4,1.3c-5.5-0.5-12.1-12.5-9.8-17.8c1,0.7,1.1,2.5,2.8,2.3C232,106.7,231.9,107.5,231.9,108.4z"/>
<path class="st7" d="M71.3,183.5c1.3-2.7,2.6-5.4,3.9-8.1c2.4-0.4,1.9-2.3,2-3.8c0.1-4.9,0-9.9,0-14.8
	C82.3,167.6,80.1,177.5,71.3,183.5z"/>
<path class="st7" d="M470.3,173.3c-0.6-7.6-3.5-14.6-5.1-21.9c3,2.4,4.4,5.7,5.9,9.1C471.6,164.8,472.8,169.2,470.3,173.3z"/>
<path class="st7" d="M233,73.8c0.1,1.5,0.1,3,0.2,4.6c-2.3,0.9-3.2,2.6-3,5c-2.1,3.9-0.6,8-1,12l-0.2,0.2c-1,1-0.9,1.9,0.1,2.8
	c0.4,0,0.7,0.1,1.1,0.1c-0.7,0.3-1.3,0.6-2,1C224.9,90,226.7,81.5,233,73.8z"/>
<path class="st6" d="M231.9,108.4c0.1-0.8,0.1-1.7,0.2-2.5c0-0.8,0.1-1.6,0.1-2.4c1,0,2,0,3,0c-0.1,2.1-0.1,4.3,3,4.1
	c-0.2,2.6,2.7,3.7,3.1,6c0,1-0.1,1.9-0.1,2.9C237.5,114.3,234.4,111.7,231.9,108.4z"/>
<path class="st6" d="M279.2,79.4c2.9-0.2,1.1,4.1,4,4c0,0,0,0,0,0c-2.1,5-3.3,10.1,0.1,15.1c-0.1,0.3-0.2,0.6-0.2,0.9
	c-2.7,1.8-4.2,1.7-3.9-2.2c0.2-2.6,0-5.2,0.1-7.9C279.2,86.1,279.2,82.8,279.2,79.4z"/>
<path class="st6" d="M49.1,147.3c0,1.4,0.4,3-1,4.1c-2.3,1.8-3.5,4.2-2.8,7.7c-2.6-0.7-3.7-2.7-5.8-2.8
	C41.5,152.1,44.7,149,49.1,147.3z"/>
<path class="st6" d="M77.2,156.7c0,4.9,0,9.9,0,14.8c0,1.6,0.5,3.5-2,3.8c-0.7,0-1.3,0-2,0c3.1-6.4,0.7-13.6,3.2-20.1
	C76.7,155.8,76.9,156.2,77.2,156.7z"/>
<path class="st8" d="M38.1,153.3c-1.4-1.9-0.7-3.1,0.5-4.2c1.3-1.2,2.4-2.7,3.9-3.8c1.9-1.4,3.6-5.8,6-2.9c2.8,3.3-2.6,2.8-3.8,4.5
	C42.9,149.3,40.3,151.1,38.1,153.3z"/>
<path class="st8" d="M479.7,161.9c-1-3-0.3-6-0.5-9c-0.1-2.3,0.2-4.6-1.6-6.5c-0.7-0.7-0.4-2,0.6-2.6c0.9-0.5,1.9-0.4,2.6,0.5
	C481.9,145.8,481,159.8,479.7,161.9z"/>
<path class="st4" d="M154.2,323.5c-1.3,0-2.7,0-2.9,1.8c-0.2,2,0.4,5-3.2,3.7c-3.2-1.2-1.8-3.5-0.8-5.5c2.6-0.4,1.9-2.3,1.9-4
	c0,0,0.3-0.3,0.3-0.3C151.2,320.3,153.3,321.3,154.2,323.5z"/>
<path class="st4" d="M283.3,98.5c-3.4-5-2.1-10.1-0.1-15.1C285.1,88.5,285.1,93.5,283.3,98.5z"/>
<path class="st8" d="M405.1,405.4c1.5,0.3,3.7-0.6,3.8,1.9c0.1,2.9-2.4,2.1-4,2.1c-1.5,0-3.7,0.5-3.6-2
	C401.5,404.7,403.7,405.7,405.1,405.4z"/>
<path class="st6" d="M407.2,371.4c3-1.7,2.9,0.6,2.7,2.3c-0.2,1.5-1.6,3.1,1.1,3.7c0,0.4-0.1,0.8-0.1,1.2c-2.1,0.6-1.1,3.3-2.7,4.4
	c-1.6-0.9-0.8-2.4-1.1-3.5C407.2,376.7,407.2,374.1,407.2,371.4z"/>
<path class="st9" d="M84.5,305.5c0.6,3.1,3.1,4.8,2.6,7.7c-0.2,1.3-0.6,2.2-2.1,2.1c-1.2-0.1-1.8-0.8-1.8-2
	C83.4,310.9,82.5,308.4,84.5,305.5z"/>
<path class="st8" d="M411.1,395.6c3.9,1.5,4.6,3.8,3.9,6.6c-0.3,1.2-1.6,1.5-2.4,0.9C409.8,401.1,411.8,398.5,411.1,395.6z"/>
<path class="st7" d="M433.9,180.7c3.8-0.1,6.4,2.4,9.4,4c1.5,0.8,1.2,1.6-0.1,2.3C439.3,186,436.2,183.9,433.9,180.7z"/>
<path class="st8" d="M82,324.1c1.6,4.2,1.2,8.4,0.2,12.6C80.8,332.5,81.2,328.3,82,324.1z"/>
<path class="st10" d="M471.1,160.5c-1.5-3.3-2.9-6.7-5.9-9.1c-0.6-0.7-1.3-1.4-1.9-2c0.7,0,1.3,0,2,0c3.1,1.9,6.2,3.7,6,8
	C471.2,158.4,471.1,159.5,471.1,160.5z"/>
<path class="st8" d="M414.3,384.8c-1.4-3.5-1.4-7.1-0.2-10.6C415.8,377.6,415.2,381.2,414.3,384.8z"/>
<path class="st6" d="M378.4,305.9c1.5,5.6,1.2,5.9-6.6,5.3C373.7,309,375.9,307.3,378.4,305.9z"/>
<path class="st6" d="M230.3,255.9c3,1.1,3.3,3.5,2.7,6c-0.6,2.3-3.2,1.5-3.6-1.2c-0.2-0.9,0.7-1.9-0.6-2.6c0.5-0.7,0.9-1.3,1.4-2
	c0.2,0.2,0.4,0.4,0.6,0.6C230.6,256.5,230.5,256.2,230.3,255.9C230.3,256,230.3,255.9,230.3,255.9z"/>
<path class="st8" d="M465.9,140.4c3.5-1.4,7-0.9,10.6-0.1C473,141.5,469.5,141.7,465.9,140.4z"/>
<path class="st8" d="M170.5,316.4c-3.5,1.3-7,1.1-10.6-0.1C163.4,315.3,166.9,315.1,170.5,316.4z"/>
<path class="st9" d="M285.7,82.4c0.5-2.4-4.3-3.7-1.6-6.7c0.3-0.4,1.9-0.3,2.2,0.1C287.9,78,287.3,80.1,285.7,82.4z"/>
<path class="st6" d="M385.2,300.3c0,2.1,0,4.2,0,7.4c-2-1.8-3.3-3.1-5.2-3.1C381.2,302.7,383.1,301.4,385.2,300.3z"/>
<path class="st8" d="M234.1,244.9c-0.9-1.9-1.7-3.7,0-5.1c0.9-0.7,2-0.1,2.5,0.9C238,243.2,235.2,243.5,234.1,244.9z"/>
<path class="st6" d="M158.2,326.4c-1.3,0.8-1,3.5-3.4,2.9c-0.9-0.2-1.4-0.7-1.5-1.7c-0.3-2.2,1.9-1.9,2.8-2.9
	C157.2,324.7,157.7,325.5,158.2,326.4z"/>
<path class="st9" d="M287.1,104.4c0.1,1.9-0.3,3-2.1,2.9c-1.2,0-1.7-0.7-1.7-1.9c-0.1-1.6,1.1-2.3,2.4-2.6
	C287.2,102.6,286.9,103.9,287.1,104.4z"/>
<path class="st3" d="M423.2,269.5c0,2.1,0.6,4.4-2.1,5.4c-1.7,0.7-1.8-0.9-2.3-1.8C419.9,271.5,421.4,270.3,423.2,269.5z"/>
<path class="st7" d="M129.9,303.4c-3.6,0.1-6.7-0.3-6.4-5.1C125.9,299.7,128.1,301.3,129.9,303.4z"/>
<path class="st7" d="M203,297.3c0.1,3,1.4,6.9-4.1,6C199.8,301,201.2,299,203,297.3z"/>
<path class="st8" d="M202.9,287.5c1.5,0.4,2.3,1.2,2,2.6c-0.3,1.5-1.7,1.5-2.8,1.5c-1.5,0-0.9-1.4-0.9-2.3
	C201.2,288.1,201.9,287.6,202.9,287.5z"/>
<path class="st3" d="M232.2,103.4c0,0.8-0.1,1.6-0.1,2.4c-1.8,0.2-1.8-1.6-2.8-2.3c-0.3-1.3-0.6-2.7-1-4c0.7-0.3,1.3-0.6,2-1
	C232,99.7,230.2,102.3,232.2,103.4z"/>
<path class="st7" d="M64.3,187.2c1.6-2.6,3.6-4.5,7-3.7C69.4,185.6,67.2,187,64.3,187.2z"/>
<path class="st9" d="M145.1,309.2c0,1.1-0.3,2-1.6,2c-1.1-0.1-1.9-0.8-2-1.8c-0.2-1.3,0.5-1.8,1.7-1.9
	C144.3,307.5,145,308,145.1,309.2z"/>
<path class="st9" d="M472.3,177.3c1.3,2.4,0.8,3.8-0.4,5.1c-0.1,0.1-1.5-0.6-1.8-1.1C468.8,179,471.4,178.9,472.3,177.3z"/>
<path class="st9" d="M81.9,289.2c-0.8-2.1-1-3.7,0.7-6.5C83.1,285.7,83.7,287.3,81.9,289.2z"/>
<path class="st6" d="M379.5,305.1c0.2,0.7,0,0.9-0.7,0.6C379.1,305.5,379.3,305.3,379.5,305.1z"/>
<path class="st1" d="M230.3,256c0.1,0.2,0.3,0.5,0.4,0.7c-0.2-0.2-0.4-0.4-0.6-0.6C230.1,256.1,230.3,256,230.3,256z"/>
<path class="st10" d="M263,272.8c5.8,8.7,11.7,17.3,18.2,25.6c0.3,0.4,0.5,0.7,0.8,1.1c3.1,5.2,6.6,10.1,10.5,14.8
	c0.2,0.4,0.5,0.7,0.7,1.1c0.7,1,1.4,1.9,2.1,2.9l0,0.1c0.3,0.4,0.6,0.7,0.9,1.1l-0.1,0c5.3,6.8,4.6,12.8-0.7,19.6
	c-7.8,10-14.8,20.7-22.1,31.2c-1.9,2.8-3.5,5.9-5.2,8.9c-1.6,0-2.2,1.3-2.9,2.4c-3.2,5.4-7.8,7.4-13.9,5.6c0,0,0,0,0,0
	c-6-5-8.9-12.3-14.1-17.8c-0.3-0.5-0.7-1-1-1.4c0,0-0.1-0.1-0.1-0.1l0-0.1c-0.8-1.8-1.9-3.4-3.3-4.8c-0.4-0.4-0.7-0.8-1.1-1.2
	c0,0,0-0.1,0-0.1c-1-2.5-2.6-4.6-4.4-6.4c-1.6-3-3.3-5.9-5.9-8.1c0,0,0,0,0,0c-1.9-4.3-5-7.8-7.6-11.6c-3.2-4.6-3.2-8.8,0-13.3
	c11.9-16.8,23.7-33.5,35.6-50.3c1.3-1.6,3.4-1.1,4.9-2.2c0.8,0,1.5-0.1,2.3-0.1C258.6,270.8,260.8,271.8,263,272.8z M248.9,350.6
	c0.3,3,2.5,4.7,4.3,6.7c1,1.2,1.3,5.2,3.8,1.9c3.7-4.9,8.1-9.5,10.3-15.5c3.8-3.5,6.4-7.9,9.4-12c1.9-2.7,1.6-4.8-1.4-6.4l0,0
	c-0.7-1-1.3-2.1-2-3.1c0-0.3-0.1-0.6-0.3-0.8c-2.7-4.7-5.6-9.3-9.7-13c-2.1-3-4.1-6-6.2-9c-0.5-2.7-1.7-2.4-3-0.6
	c-1.5,2.1-2.8,4.3-4.2,6.4c-0.2,0.4-0.5,0.8-0.7,1.3c-2.3,2.7-5.1,5.2-6.1,8.8c-10.8,11.2-10.9,12.6-2.2,24.7c0.4,0.5,0.8,1,1.1,1.6
	C243.8,344.9,245.8,348.3,248.9,350.6L248.9,350.6z M258.4,280.5c-1.8,5.1-5,6.2-8.4,7.2c-1.5,0.4-2.5,1.6-2.7,3.3
	c-0.1,0.8,0,1.7,0.9,2.1c1.8,0.8,2.8-0.4,3.8-1.5c2.8-3.3,4.8-2.3,6.4,2.6C259.5,289.2,259.4,285.6,258.4,280.5z M224.6,322.8
	c0.9-3.5,4.9-7-1.3-9.5C223.4,316.5,222.4,319.6,224.6,322.8z M281.2,308.3c0,1.6,0.1,3.1,2.2,3c1.2,0,1.8-0.9,1.7-2
	c-0.3-1.6-0.9-3.4-2.5-3.6C281,305.5,281.3,307.2,281.2,308.3z M293.7,321.4c-0.5,2.5-1.4,4.4,0.8,5.7c0.8,0.5,2,0.4,2.4-0.8
	C297.7,323.9,295.8,323,293.7,321.4z M247,279.4c2.6,0.5,4.1-0.3,4.7-2.5c0.1-0.3-0.3-1.2-0.5-1.2C248.8,275.6,248,277.4,247,279.4z
	 M257.1,273.6c0-1.1-0.3-2-1.6-2c-1.1,0.1-1.9,0.7-2,1.8c-0.2,1.3,0.5,1.8,1.7,1.9C256.3,275.3,257,274.8,257.1,273.6z M254.4,283.3
	c0.7-0.1,1.3-0.2,0.9-0.9c-0.1-0.3-0.5-0.6-0.7-0.6c-0.4,0.1-0.7,0.4-1.1,0.6C253.9,282.8,254.2,283.1,254.4,283.3z"/>
<path class="st11" d="M401.2,401.3c-95.3,0-190.6,0-286,0c-0.7,0-1.3-0.1-2-0.1c0-0.6,0-1.2,0-1.8c0.6-3.1,3.1-2,4.8-2
	c94.4,0,188.8,0,283.1,0c0,0.3,0,0.7,0,1C401.2,399.4,401.2,400.4,401.2,401.3z"/>
<path class="st5" d="M401.2,397.4c-94.4,0-188.8,0-283.1,0c-1.7,0-4.2-1.1-4.8,2c-1.4-0.1-2.1-0.9-1.9-2.4c0.2-1.2,1-1.6,2.1-1.6
	c1.3,0,2.7,0,4,0c44.8,0,89.6,0,134.4-0.1c1.9,0,4.6,1.3,5.4-1.9c5,3.4,10.6,1.5,16,2c38.3,0,76.5,0,114.8,0c5.5,0,12,2.2,15.2-4.9
	c0,1.7,0,3.3,0,5C403.2,396.7,402.5,397.4,401.2,397.4z"/>
<path class="st11" d="M107.2,371.4c0-1.4,0.1-2.9,0-4.3c-0.3-3.2,1.3-4,4-3.7c0,2.7,0,5.3,0,8c0,3.4-0.2,6.9,0.1,10.3
	c0.3,3.7-1.6,3.5-4.1,2.7C107.2,380.1,107.2,375.7,107.2,371.4z"/>
<path class="st12" d="M296.2,310.4c-0.1-0.7,0-1.3-0.2-2c-0.5-1.7-1.7-4,0.8-4.5c2-0.4,4.3,1.3,4.2,3.8c-0.2,3,2.5,4.8,2.3,7.9
	c-0.2,3-1.2,4.2-4.1,3.8C299.3,316,297.1,313.4,296.2,310.4z"/>
<path class="st12" d="M107.2,371.4c0,4.3,0,8.7,0,13c-0.8,0.7-1.6,1.5-2.6,2.3c-1.7-7.2-0.8-14.3-1.9-21.1c-0.1-0.8-0.4-1.7,0.7-1.9
	c1.3-0.2,1.4,0.9,1.7,1.9C105.7,367.6,103.7,370.4,107.2,371.4z"/>
<path class="st11" d="M273.2,395.4c-5.4-0.5-11,1.4-16-2c0-1.3,0-2.6,0-4c1.3,0,2.7,0,4-0.1c2.4,1.9,4.2,4.9,8,4
	c2.4,0.1,1.5-2.6,3.2-3.6C273.8,391.5,272.9,393.6,273.2,395.4z"/>
<path class="st12" d="M217.2,351.4c0,1.3,0.9,2.1,1.4,3.1c0.8,1.5,1.3,3.4-0.4,4.5c-1.8,1.2-3.5-0.5-4-1.8c-1.2-3.1-2-6.4-1-9.8
	c1.3,0,2.7,0,4,0c0,0,0,0,0,0C217.2,348.7,217.2,350.1,217.2,351.4z"/>
<path class="st6" d="M163.2,345.4c-1.3-0.2-2.1-0.9-1.9-2.3c0.1-1.2,0.9-1.5,2-1.7c4.6-0.7,8.7,0.9,12.9,2.3c1,0.4,1.3,1.8,0.7,2.5
	c-1.5,1.8-2.2-1.5-3.7-0.8C169.9,345.4,166.5,345.4,163.2,345.4z"/>
<path class="st12" d="M403.5,297.3c-1.4,0-2-0.5-2.2-1.4c-0.1-0.8-0.1-1.9,0.8-2.1c2.4-0.5,3.8-2.4,5.8-3.6c1.7-1.1,3.5-1.3,4.7,0.6
	c1.3,2.1-0.8,3.3-1.9,3.9C408.4,295.9,405.3,295.4,403.5,297.3z"/>
<path class="st7" d="M237.2,369.5c5.2,5.6,8.1,12.9,14.1,17.8c-3.7,0.8-5.2-1.9-7-4.2c-2-2.5-2.3-6.6-6.6-6.9
	c-0.3,0-0.4-1.8-0.6-2.7C237.2,372.1,237.2,370.8,237.2,369.5z"/>
<path class="st7" d="M261.2,389.4c-1.3,0-2.7,0-4,0.1c-1.9-0.8-5.1,1.7-5.9-2.2c6.1,1.8,10.7-0.2,13.9-5.6c0.7-1.1,1.3-2.4,2.9-2.4
	c0,0.7,0,1.4,0.1,2.1c-1,1.3-2.8,2.1-3.1,4C263.1,386,261.7,387.3,261.2,389.4z"/>
<path class="st12" d="M130.6,310.4c-3,1.5-6,0.8-8.9,1c-1.3,0.1-2.3-0.4-2.3-1.9c0-1.9,1.3-2.1,2.7-2
	C125.1,307.6,127.5,310,130.6,310.4z"/>
<path class="st6" d="M296.2,310.4c0.9,3.1,3.1,5.6,3,9c-1,0-2.1,0.1-3.1,0.1c0,0,0.1,0,0.1,0c-0.3-0.4-0.6-0.7-0.9-1.1
	c0,0,0-0.1,0-0.1c0-1.4,0-2.9-2.1-2.9c-0.2-0.4-0.5-0.7-0.7-1.1C294,313.3,292,308.9,296.2,310.4z"/>
<path class="st4" d="M261.2,389.4c0.5-2.1,1.9-3.4,3.9-4c0,0.7,0.1,1.3,0.1,2c0.3,2.6,5.5,2.2,4,6
	C265.4,394.3,263.6,391.3,261.2,389.4z"/>
<path class="st11" d="M403.2,395.4c0-1.7,0-3.3,0-5c0.1-1.3-0.1-2.8,1.8-2.9c1.4-0.1,2.3,0.7,2.1,2.1c-0.2,1.9,1.2,4.4-1.5,5.6
	C404.9,395.6,404,395.4,403.2,395.4z"/>
<path class="st6" d="M95.2,309.4c0-3.3,0-6.6,0-10c0.6,0.3,1.5,0.5,1.6,0.9c0.7,4.8,0.4,9.6,0.1,15.6
	C94.6,313.2,95.5,311.2,95.2,309.4z"/>
<path class="st5" d="M407.2,371.4c0,2.7,0,5.3,0,8c-1.3,0-2.7,0-4,0c0-2.7,0-5.3,0-8C404.5,371.4,405.9,371.4,407.2,371.4z"/>
<path class="st6" d="M265.2,387.4c0-0.7-0.1-1.3-0.1-2c0.3-1.9,2-2.7,3.1-4c1.2,1.4,3.6,2.5,2.7,4.7
	C269.8,388.6,267.1,387,265.2,387.4z"/>
<path class="st6" d="M403.2,371.4c0,2.7,0,5.3,0,8c-0.3,1.1,0.6,2.6-1.4,3.6c-1.1-4.1-0.8-8.2-0.3-12.1
	C401.7,368.9,402.8,370,403.2,371.4z"/>
<path class="st5" d="M230.7,375c-4.5-3.2-4.5-3.7-0.2-7.2C231.5,370.3,231.4,372.5,230.7,375z"/>
<path class="st7" d="M227.3,355.4c1.9,1.9,3.4,4,4.4,6.4c-1.6,0.3-3.1,0.6-5.4,1.1C227.9,360.2,226.1,357.8,227.3,355.4z"/>
<path class="st6" d="M237.2,369.5c0,1.3,0,2.6,0,3.9c-1,0.4-1.3,2.2-2.7,1.5c-1.1-0.6-1.2-1.8-1.3-3c-0.1-2.1,1.1-3.3,2.9-4
	c0,0,0,0.1,0,0.1c-0.1,0.2-0.3,0.5-0.4,0.7c0.2-0.2,0.4-0.4,0.5-0.7C236.6,368.5,236.9,369,237.2,369.5z"/>
<path class="st5" d="M302.3,337.2c1.4,2.3,2.9,4,1,5.8c-0.9,0.8-2.8,0.9-3.6-0.3C297.9,339.9,301.6,339.6,302.3,337.2z"/>
<path class="st11" d="M89.2,275.5c-0.3,0-0.6,0-0.9,0c-0.3,0.3-0.7,0.7-1,1c-2.7,1.3-2-1-2-2.1c0-1.2-0.7-3,1-3.4
	c1.5-0.3,2.8,0.6,3,2.5C89.2,274.1,89.2,274.8,89.2,275.5z"/>
<path class="st6" d="M334.2,335.4c1.4,0.1,2.8,0,2.9,1.8c0.1,1.8-1.1,1.9-2.5,2.2c-2,0.3-2.2-1.4-2.5-2.3
	C331.5,335.4,333.3,335.7,334.2,335.4z"/>
<path class="st5" d="M163.2,345.4c3.3,0,6.6,0,10,0C170.5,348.3,165.9,348.3,163.2,345.4z"/>
<path class="st6" d="M149.1,319.5c0,1.6,0.8,3.6-1.9,4c-1.6-0.2-2.3-1.2-1.8-2.7C146,318.8,147.7,319.6,149.1,319.5z"/>
<path class="st6" d="M281.9,299.5c-0.3-0.4-0.5-0.7-0.8-1.1c0.1-1.5,0.1-3.1,2.3-2.9c1.2,0.1,1.7,0.8,1.7,1.9
	C285,299.6,283.3,299.3,281.9,299.5z"/>
<path class="st5" d="M111.2,371.4c0-2.7,0-5.3,0-8C114.5,366.1,114.4,368.7,111.2,371.4z"/>
<path class="st6" d="M217.2,347.4c-1.3,0-2.7,0-4,0c0.2-1.5-0.7-3.7,1.8-3.8C217.8,343.4,217,345.8,217.2,347.4z"/>
<path class="st6" d="M217.2,351.4c0-1.3,0-2.7,0-4c1.4,0,2.8-0.1,4.2-0.1c0,0,0,0,0,0C221.5,350.2,220.5,352,217.2,351.4z"/>
<path class="st7" d="M254.1,269.9c-1.5,1.1-3.6,0.6-4.9,2.2c0.1-1.7-0.2-3.8,1.7-4.5C252.7,266.8,253.2,268.8,254.1,269.9z"/>
<path class="st7" d="M263,272.8c-2.2-1-4.4-2.1-6.6-3.1C259.2,269.6,262.7,267.8,263,272.8z"/>
<path class="st5" d="M401.2,401.3c0-1,0-1.9,0-2.9c2,0.1,2,1.5,2,2.9C402.5,401.4,401.8,401.4,401.2,401.3z"/>
<path class="st7" d="M231.6,362c0.4,0.4,0.7,0.8,1.1,1.2C232,363.1,231.5,362.8,231.6,362z"/>
<path class="st1" d="M279.2,79.4c0,3.3,0,6.7,0,10c-3.1,0.3-4.1,2-4,5c0.2,5.6,0,11.3,0,16.9c-3.1-0.2-4.6,2.7-6.9,3.8
	c-7.5,3.5-15.1,3.6-22.4-0.3c-1.5-0.8-2.9-1.4-4.6-1.3c-0.4-2.3-3.2-3.4-3.1-6c1.5-1.3,2.2-3.5,2.4-5c0.6-2.9,2.5-6.6-1.4-9
	c0-0.7,0-1.4,0-2c4.1-3.4,1.2-7.5,1.9-11.8c-2.5,1.2-1.7,2.7-1.9,3.9c-3.7-2.9-2.5-6.2-0.6-9.3c1.3-2.1,3.1-3.9,2.5-6.6
	c8.6-1.7,17.2-3.1,26-2c1.6,2.5,2.8,5.3,6.1,6c2.4,0.5,1.8,2.4,1.9,3.9c0.3,3.8-0.7,7.8,1.5,11.5c0.2-2.5,0-5.1,0.5-7.6
	C277.7,77.1,278.6,78.4,279.2,79.4z"/>
<path class="st12" d="M230.2,83.4c-0.2-2.4,0.8-4.1,3-5c3.8,3.8,1.3,8.7,2,13c0,2,0,4,0,6c0,0,0,0,0,0c-3.3-0.7-1.4-4.8-4-6
	C231.4,88.6,231,86,230.2,83.4z"/>
<path class="st12" d="M239.2,93.4c3.9,2.4,2,6.1,1.4,9c-0.3,1.5-0.9,3.7-2.4,5c-3.1,0.2-3.1-1.9-3-4.1c0-2,0-4,0-6l0,0
	c1.6-0.2,3.7,0.7,4-2C239.2,94.7,239.2,94.1,239.2,93.4z"/>
<path class="st5" d="M239.2,83.4c0.3-1.1-0.6-2.7,1.9-3.9c-0.7,4.3,2.2,8.4-1.9,11.8C239.2,88.7,239.2,86.1,239.2,83.4z"/>
<path class="st1" d="M239.2,95.4c-0.3,2.7-2.4,1.8-4,2c0-2,0-4,0-6C238,91.2,236.3,95.6,239.2,95.4z"/>
<path class="st1" d="M87.2,276.4c0.3-0.3,0.7-0.7,1-1C87.9,275.8,87.6,276.1,87.2,276.4z"/>
<path class="st1" d="M235.2,97.4c0,2,0,4,0,6c-1,0-2,0-3,0c-2-1.1-0.2-3.7-2-4.9c-0.4,0-0.7-0.1-1.1-0.1c0-0.9-0.1-1.9-0.1-2.8
	c0,0,0.2-0.2,0.2-0.2c2.7-0.3,1.7-2.5,2-4C233.8,92.6,231.9,96.7,235.2,97.4z"/>
<path class="st6" d="M231.2,91.4c-0.3,1.5,0.7,3.7-2,4c0.4-4-1.1-8.1,1-12C231,86,231.4,88.6,231.2,91.4z"/>
<path class="st3" d="M229,95.6c0,0.9,0.1,1.9,0.1,2.8C228.1,97.5,227.9,96.6,229,95.6z"/>
<path class="st13" d="M272.9,321.4c0.3,0.2,0.4,0.5,0.3,0.8c-0.1,1.5-0.2,3.1,2,3.1c0,0,0,0,0,0c-0.1,6.3-4.4,10.6-7.4,15.5
	c-0.7,1.1-1.2,1.8-0.6,2.9c-2.2,6-6.6,10.6-10.3,15.5c-2.4,3.2-2.7-0.8-3.8-1.9c-0.1-3.1,0.9-6.9-4.3-6.7c0,0,0,0,0,0
	c0-1.6,0.1-3.2-0.1-4.8c-0.5-3.6-4.5-6-6.9-4.3c-0.4-0.5-0.8-1-1.1-1.6c-8.7-12.1-8.6-13.5,2.2-24.7c1.4,0,2.9,0.2,4.3,0
	c2-0.3,2.4-1.3,1-2.9l-0.1-0.1c0.3-2,0.7-3.9,1-5.9c0.2-0.4,0.5-0.8,0.7-1.3c3.8-0.2,3.6-5.4,7.2-5.8c2.1,3,4.1,6,6.2,9
	c0.8,2,1.9,3.7,2,6C265.6,320,267,321.2,272.9,321.4z"/>
<path class="st8" d="M258.4,280.5c1,5.2,1,8.7,0,13.7c-1.7-4.9-3.6-6-6.4-2.6c-1,1.1-2.1,2.3-3.8,1.5c-0.9-0.4-1-1.3-0.9-2.1
	c0.2-1.7,1.2-2.8,2.7-3.3C253.4,286.7,256.6,285.6,258.4,280.5z"/>
<path class="st14" d="M267.3,343.7c-0.6-1.2-0.1-1.8,0.6-2.9c3-4.9,7.2-9.3,7.4-15.5c3,1.6,3.4,3.7,1.4,6.4
	C273.7,335.9,271.1,340.2,267.3,343.7z"/>
<path class="st14" d="M272.9,321.4c-5.9-0.2-7.3-1.4-7.7-7c-0.1-2.3-1.3-4-2-6C267.3,312.1,270.2,316.7,272.9,321.4z"/>
<path class="st14" d="M241.9,341.5c2.4-1.7,6.4,0.7,6.9,4.3c0.2,1.6,0.1,3.2,0.1,4.8C245.8,348.3,243.8,344.9,241.9,341.5z"/>
<path class="st14" d="M248.2,312.5c1.4,1.6,1,2.6-1,2.9c-1.4,0.2-2.8,0-4.3,0c1.1-3.6,3.8-6,6.1-8.8
	C248.8,308.4,248.5,310.4,248.2,312.5c-0.2,0.1-0.3,0.2-0.5,0.4C247.9,312.7,248.1,312.6,248.2,312.5z"/>
<path class="st8" d="M224.6,322.8c-2.2-3.1-1.3-6.3-1.3-9.5C229.6,315.7,225.6,319.3,224.6,322.8z"/>
<path class="st9" d="M281.2,308.3c0.1-1.1-0.1-2.8,1.4-2.6c1.6,0.3,2.2,2.1,2.5,3.6c0.2,1.1-0.4,1.9-1.7,2
	C281.2,311.4,281.2,309.8,281.2,308.3z"/>
<path class="st9" d="M293.7,321.4c2.1,1.6,4,2.5,3.2,4.9c-0.4,1.1-1.6,1.3-2.4,0.8C292.3,325.8,293.2,323.9,293.7,321.4z"/>
<path class="st14" d="M257,299.4c-3.6,0.4-3.4,5.7-7.2,5.8c1.4-2.1,2.8-4.3,4.2-6.4C255.4,297,256.5,296.7,257,299.4z"/>
<path class="st14" d="M248.9,350.6c5.2-0.2,4.2,3.6,4.3,6.7C251.4,355.4,249.2,353.6,248.9,350.6z"/>
<path class="st8" d="M247,279.4c1-2.1,1.8-3.8,4.2-3.7c0.2,0,0.6,0.8,0.5,1.2C251.1,279.2,249.6,280,247,279.4z"/>
<path class="st9" d="M257.1,273.6c-0.1,1.3-0.8,1.7-2,1.7c-1.2,0-1.9-0.6-1.7-1.9c0.2-1.1,0.9-1.8,2-1.8
	C256.8,271.6,257.1,272.5,257.1,273.6z"/>
<path class="st8" d="M254.4,283.3c-0.2-0.2-0.5-0.6-0.8-0.9c0.3-0.2,0.7-0.5,1.1-0.6c0.2,0,0.6,0.3,0.7,0.6
	C255.7,283.1,255.1,283.2,254.4,283.3z"/>
<path class="st14" d="M275.3,325.3c-2.2,0-2.1-1.6-2-3.1C273.9,323.3,274.6,324.3,275.3,325.3z"/>
<path class="st1" d="M293.1,315.5c2.1,0,2.1,1.4,2.1,2.9C294.5,317.4,293.8,316.4,293.1,315.5z"/>
<path class="st1" d="M295.3,318.4c0.3,0.4,0.6,0.7,0.9,1.1C295.9,319.1,295.6,318.8,295.3,318.4z"/>
<path class="st1" d="M236.2,368c-0.2,0.2-0.4,0.4-0.5,0.7c0.1-0.2,0.3-0.5,0.4-0.7C236.1,368,236.2,368,236.2,368z"/>
<path class="st13" d="M248.2,312.5c-0.2,0.1-0.3,0.3-0.5,0.4C247.9,312.7,248,312.5,248.2,312.5
	C248.1,312.4,248.2,312.5,248.2,312.5z"/>
</svg>
