<?xml version="1.0" encoding="utf-8"?>
<!-- Generator: Adobe Illustrator 19.1.0, SVG Export Plug-In . SVG Version: 6.00 Build 0)  -->
<svg version="1.0" id="Layer_1" xmlns="http://www.w3.org/2000/svg" xmlns:xlink="http://www.w3.org/1999/xlink" x="0px" y="0px"
	 viewBox="0 0 500 500" style="enable-background:new 0 0 500 500;" xml:space="preserve">
<style type="text/css">
	.st0{fill:#F8AF77;}
	.st1{fill:#46425D;}
	.st2{fill:#FCDD98;}
	.st3{fill:#F9F3C5;}
	.st4{fill:#E1B986;}
	.st5{fill:#934435;}
	.st6{fill:#914032;}
	.st7{fill:#903E2F;}
	.st8{fill:#384053;}
	.st9{fill:#252328;}
	.st10{fill:#DB9863;}
	.st11{fill:#FCD4A6;}
	.st12{fill:#302C3F;}
	.st13{fill:#F8C59B;}
	.st14{fill:#C88D62;}
</style>
<path class="st0" d="M332.7,103.3c-0.1,21.4-0.1,42.9-0.2,64.3c-6.3,6.2-12.5,12.5-18.2,19.2c-8.8,10.3-16.4,21.5-24.5,32.3
	c0-0.5,0-1.1-0.1-1.6c-0.4-1.8,1.1-4.9-2.1-5c-4.4-0.1-8.9-1.2-13.2,0.8c-0.3,0.1-0.3,0.9-0.4,1.4c-1.4,6.3,0.2,8.5,6.3,9.2
	c1.9,0.2,3.7,0.7,5.6,1c-3.5,6.6-3.5,6.6,2.7,10.7c1,0.7,1.9,1.4,2.8,2.1c-0.3,0.3-0.7,0.7-1,1c-3.9-0.4-7.5-5-11-2.7
	c-3,2-4.5,6.5-6.6,9.8c-0.7,1-1.4,2-2.1,3c-23.2,0.1-46.4,0.3-69.5-1.1c-5.3-0.3-5,2.6-4.9,6.1c0.1,3.5-0.7,6.8,5,6.6
	c19-0.5,38,1.6,57,0.9c1.5-0.1,3.2-0.4,4.3,1.2c-4.5,8-8.4,16.4-13.8,24c-1.7,0-3.5,0.1-5.2-0.2c-8.7-1.4-8.5-1.5-8.5,7.2
	c0,3.2,0.7,5,4.3,4.6c1.2-0.2,2.4,0,3.2,1.2c-3.6,8-7.3,15.9-10.9,23.9c-10.4,0-20.9,0.2-31.3,0c-3.6-0.1-5.4,0.6-5.2,4.8
	c0.2,6.8,0,6.8,6.8,6.8c2.6,0,5.2,0,7.8,0c5.5,0,11-0.3,16.1,2.3c-3.7,11.3-7.7,22.5-8.7,34.4c-5.6,0-11.1,0-16.7,0
	c-1.4-1.5-3.3-1-4.9-1c-24.2,0-48.5,0-72.7-0.1c-15.3-0.4-30.7-0.7-46-1.1c0.3-34.7,0.6-69.5,0.9-104.2c0.4-37.2,0.5-74.4,1.3-111.5
	c0.4-18,0.4-35.9,0.7-53.9c18,0.4,35.9,0,53.9,0.8c30.9,1.4,61.8,0,92.7,1C261.8,103.1,297.3,101.9,332.7,103.3z M132.9,284.9
	c-11.6,0-20.2,0-28.7,0c-3.9,0-6.2,2-6.6,5.9c-0.4,4,2.3,5.6,5.5,6.5c1.3,0.4,2.8,0.2,4.2,0.2c17.8,0,35.7-0.2,53.5,0.1
	c7.6,0.1,15.3,1.2,23,0.9c6-0.2,3.6-4.8,4-7.8c0.4-2.9-0.1-5-4-4.9C165.8,286.6,147.8,283.9,132.9,284.9z M153.3,186.2c4,0,8,0,12,0
	c1.3,0,2.7,0.2,3.4-1.6c2.5-6.3-0.5-11-7.2-11c-5.6,0-11.2,0-16.8,0c-5.9,0-12,0.5-17.8-0.3c-7.3-1.1-14.6-0.5-21.9-0.6
	c-4-0.1-6.6,2.5-6.5,6.6c0.1,3.9,2.6,5.8,6.6,5.8C121.3,185.2,137.3,184.8,153.3,186.2z M193.1,224c4,0,8.1-0.2,12.1,0.1
	c3.7,0.2,5.2-1.1,4.7-4.7c-0.2-1.2-0.1-2.5,0-3.7c0.3-3.1-0.9-4.4-4.1-4.3c-4.4,0.2-8.7-0.1-13.1,0.1c-14.5,0.6-28.9-1.1-43.4-1.1
	c-3.4,0-4.9,1.1-4.5,4.5c0.2,1.4,0.1,2.8,0,4.2c-0.3,2.9,0.9,4.1,3.9,4C163.5,222.8,178.3,222.9,193.1,224z M163.9,136.9
	c-3.8,0-7.7,0.1-11.5,0c-6-0.1-4.1,4.3-4.4,7.4c-0.3,3.1-0.1,5.3,4.2,5.2c15.3-0.2,30.6-0.2,45.9,0.8c8.7,0.6,8.6,0.1,10.3-8.4
	c0.6-3.1-0.3-4.2-3.3-4.1C191.3,138.4,177.6,137.4,163.9,136.9z M293.7,151.6c3.7,0,7.3,0.1,11,0c5.1-0.1,8.3-2.5,7.9-6.4
	c-0.4-4.5-3.4-6.2-7.6-6.2c-15,0-30,0.1-45-0.9c-8.4-0.5-8.6,0.2-8.2,8.8c0.1,2.7,1,3.8,3.7,3.7
	C268.2,149.8,280.9,151.7,293.7,151.6z M119.3,322.6C119.3,322.6,119.3,322.6,119.3,322.6c-5.1,0-10.1,0.2-15.2-0.1
	c-4.3-0.2-7.1,1.7-7.3,5.7c-0.2,4.2,3.1,6,7.1,6c10.3,0,20.6-0.1,30.9,0.1c5.2,0.1,3.4-3.7,3.7-6.3c0.3-2.8,0.6-5.7-4-5.4
	C129.4,322.8,124.4,322.6,119.3,322.6z M163.5,335.2c3.5,0,7,0,10.5,0c7.7,0,7.5,0,7.7-7.5c0.1-3.8-0.8-5.3-4.9-5.2
	c-9.1,0.3-18.1,0.2-27.2,0c-3.6-0.1-5.2,1-4.7,4.7c0.1,0.9,0.1,1.8,0,2.6c-0.5,3.9,0.7,5.8,5.1,5.4
	C154.4,334.9,158.9,335.2,163.5,335.2z M253.4,174.7c-4.4,0-8.7,0.2-13.1-0.1c-3.7-0.2-4.7,1.6-4.2,4.7c0.5,3-2.1,7.8,3.9,7.9
	c9.1,0.2,18.1,0,27.2,0.1c2.9,0,3.7-1.3,3.5-3.8c-0.1-1.6-0.1-3.2,0-4.7c0.3-3.3-1.2-4.3-4.3-4.1
	C262.1,174.8,257.8,174.7,253.4,174.7z M208.3,186.2c4.4,0,8.7,0,13.1,0c4.1,0,3.2-3,3-5.2c-0.2-2.3,1.9-6.5-2.9-6.3
	c-7.2,0.3-14.2-1.1-21.3-1.1c-8.6,0-8.4,0-8.3,8.5c0.1,3.3,1.3,4.2,4.4,4.1C200.3,186.1,204.3,186.2,208.3,186.2z M115.5,210.3
	c-3.1,0-6.3,0.1-9.4,0c-4.2-0.1-7.3,1-7.5,5.9c-0.2,4.1,2.5,6.5,7.5,6.7c5.1,0.1,10.1,0,15.2,0c7.7,0,8.8-1.2,8.8-8.9
	c0-2.6-0.8-3.9-3.6-3.8C122.9,210.5,119.2,210.4,115.5,210.3z M158.4,260.7c3.7,0,7.3-0.1,11,0c2.6,0.1,4-0.8,3.7-3.6
	c-0.1-1.6-0.2-3.2,0-4.7c0.4-3.5-1.2-4.5-4.5-4.4c-6.1,0.2-12.2,0.4-18.3,0c-5.1-0.4-7,1-6.8,6.5c0.1,5.1,1.5,6.9,6.5,6.2
	C152.8,260.4,155.6,260.7,158.4,260.7z M114.8,248.1c-3.5,0-7,0.1-10.5,0c-3.7-0.1-6.5,1.6-6.6,5.2c-0.1,3.8,2.1,6.5,6.6,6.4
	c5.4-0.1,10.9-0.4,16.2,0.1c5.4,0.5,7.8-1,8.2-6.7c0.2-3.5,0.1-5.4-4-5.1C121.5,248.3,118.1,248.1,114.8,248.1z M251.4,224
	c1.6,0,3.2-0.2,4.7,0c4.8,0.7,5.3-1.8,5.3-5.8c0-3.9-0.3-6.3-5.2-5.9c-3.8,0.3-7.6,0.7-11.4-0.6c-2-0.7-3.1,0.1-3.4,2.5
	c-1.2,9-0.5,9.8,8.5,9.8C250.3,224,250.8,224,251.4,224z M300.8,187.3c1.9,0,3.8,0,5.7,0c4,0,5.9-2.7,5.8-5.9c0-3-1.9-5.6-5.6-5.6
	c-2.8,0-5.6,0.1-8.3-0.1c-6.8-0.5-6.5-0.5-6.8,6.2c-0.2,4.4,1.3,6.1,5.6,5.4C298.3,187.1,299.6,187.3,300.8,187.3z M208.9,298.5
	c2.1,0,4.2,0,6.3,0c1.5,0,3-0.2,3-2.1c0.1-2.8,0.2-5.6,0-8.4c-0.2-2.6-2.4-2.4-4-2.1c-4.2,0.7-10.1-2.6-12.4,1.9
	C198,295.2,200.8,298.5,208.9,298.5z M113.2,143.3c1.2-5-0.5-6.9-5.6-6.5c-4.1,0.3-8,0.6-8.6,5.5c-0.5,4.2,3.9,6.9,10.2,7.2
	C114.8,149.8,112.9,145.9,113.2,143.3z"/>
<path class="st1" d="M248.7,286.9c5.4-7.5,9.3-15.9,13.8-24c2.7-4.6,5.4-9.2,8.2-13.8c0.7-1,1.4-2,2.1-3c2.2-3.4,3.6-7.8,6.6-9.8
	c3.5-2.3,7.1,2.3,11,2.7c0.6,0.6,1.3,1.1,2,0.3c0.1-0.1-0.6-0.9-1-1.3c-0.9-0.7-1.9-1.5-2.8-2.1c-6.3-4.1-6.3-4.1-2.7-10.7
	c1.6-1.8,3.1-3.7,3.9-5.9c8.2-10.8,15.8-22,24.5-32.3c5.7-6.8,11.9-13.1,18.2-19.2c8.6-7.7,20.1-9.4,29.9-14.6
	c2.3-1.2,3.8,0.3,6.4,2.2c-1.8-3.6-0.7-5,1.9-6.4c16.9-8.3,33.5-17.2,49.7-26.7c2.1-1.2,3.6-1.4,5.5,0.4c2.1,2,4.6,3.7,7,5.5
	c0.4,0.4,0.8,1.1,1.4,0.3c0.1-0.1-0.5-0.6-0.7-1c-2.2-2.9-4.4-5.7-6.7-8.7c16.1-9.7,32.1-19.3,48-28.9c1-0.6,2.1-1.2,3.1-1.9
	c6.1-3.8,7.2-3.3,7.5,4c0.3,6.3-1.5,12.4-3.6,18.3c-8.2,22.3-21.3,41.8-34.7,61.1c-6.1,8.7-12.5,17.2-18.6,25.9
	c-1.6,2.3-2.7,2.8-5.2,1c-4.6-3.4-8.9-7.2-14.1-9.8c-0.1-0.4-0.3-0.9-0.8-0.5c-0.1,0.1,0.1,0.7,0.2,1.1c2.6,5.7,4.9,11.4,7.8,17
	c1.8,3.4,1.7,6.1-1.2,8.7c-0.8,0.7-1.4,1.6-1.9,2.5c-2.2,4-4.7,4.4-7.7,0.9c-0.5-0.4-1-0.9-1.5-1.3c-0.4-0.3-0.8-0.6-1.1-1
	c-0.3-0.3-0.7-0.8-0.8-0.8c-0.9,0.5-0.1,0.9,0.2,1.4c0.3,0.3,0.5,0.7,0.8,1c0.5,0.6,1,1.2,1.6,1.9c3.2,3.4,2.3,6.1-0.6,9.6
	c-23,27.7-46.5,55.1-71.2,81.4c-0.9,1-1.8,2.1-2.6,3.2c-6.6,6.8-13.5,13.4-19.8,20.5c-3.2,3.6-6.2,5-10.4,2.5
	c-4.1-2.4-8.2-4.5-14.5-5.5c3.9,2.9,6.5,4.8,9.1,6.7c2.1,1.8,4.1,3.6,6.3,5.6c-11.7,11.7-24.3,21.5-38.9,28.9
	c-0.9,0.1-1.7,0.2-2.2,1c-1.8,0.6-3.6,1.3-5.4,1.9c-9.4,3.2-19,5.8-29.1,4.5c1.7-2.2,3.4-4.4,5.1-6.5c10.5-12.5,21.7-24.5,31.6-37.5
	c0.9-0.8,2-1.5,2.7-2.4c13-15.7,25.9-31.4,38.9-47c14.2-17.1,28.2-34.4,40.4-53.1c1.2-1.9,2.4-3.8,3.5-5.8c0.8-1.4,1.2-3.3,0-4.4
	c-1.2-1-2.5,0.4-3.7,1.1c-0.6,0.4-1,0.9-1.5,1.4c-13.9,13-26.2,27.5-38.5,41.9c-12.2,14.4-24.1,29.3-35.8,44.1
	c-4.6,5.8-9.8,11.2-13.3,17.9c-2.1,0.5-2.9,2.4-4,3.9c-7.8,9.9-15.4,19.9-23.2,29.8c-3.3,4.2-6,9-10.4,12.3c-0.1-1-0.1-2.1-0.2-3.1
	c1-11.9,5-23.1,8.7-34.4c1.9-4.6,3.9-9.3,5.8-13.9c3.6-8,7.3-15.9,10.9-23.9C244.9,295.6,247.6,291.6,248.7,286.9z"/>
<path class="st2" d="M332.7,103.3c-35.4-1.4-70.9-0.2-106.4-1.3c-30.9-1-61.9,0.3-92.7-1c-18-0.8-36-0.4-53.9-0.8
	c-1.6,0-3.1-0.1-4.7-0.1c-8.8,0-8.8,0-8.9-8.6c-0.7-11.9,1.7-23.7,0.9-35.6c0-1.4,0.2-2.8,0-4.2c-0.4-3.3,1.2-4.1,4.3-4.1
	c22.7,0.2,45.4-0.3,68.1,0.4c11.9,0.4,23.7,0.5,35.6,0.6c47.5,0.5,95,0.7,142.5,1.4c7.8,0.1,15.7,0.9,23.5,0.6
	c4.6-0.2,7.1,0.9,6.1,6c-0.1,0.8,0.1,1.7,0.1,2.6c-0.8,2.7-1.1,5.4-1.1,8.1c0.1,9.1,0,18.3,0,27.4c0,8.4,0,8.4-8.4,8.4
	C336.1,103.2,334.4,103.3,332.7,103.3z"/>
<path class="st2" d="M217.1,371.9c0.1,1,0.1,2.1,0.2,3.1c0,1.3-0.8,2.2-1.6,3.2c-5.4,7-10.6,14.1-16,21.1
	c-6.4,8.4-12.8,16.7-19.2,25.1c-36.1-1.3-72.2-1-108.4-1.2c-9.1,0-9.1,0-9.2-9c0-11.7,0-23.4,0-35.1c0-1,0.2-2.1,0.1-3.1
	c-0.5-4.1,1-5.6,5.2-5.3c2.8,0.2,5.9,1.1,8.6-0.8c15.3,0.4,30.7,0.7,46,1.1c1.6,1.7,3.6,1,5.4,1c24.1,0,48.1,0,72.2,0
	C206,371.9,211.5,371.9,217.1,371.9z"/>
<path class="st2" d="M225.5,379.3c10.1,1.2,19.7-1.3,29.1-4.5c1.8-0.6,3.6-1.2,5.4-1.9c12.3,0,24.6,0.1,36.9,0.1
	c10.9,0,21.8,0,32.6,0c1.5,0,3.1,0.1,4.6,0.1c8.8,0.1,8.8,0.1,9,9c0,11.7,0,23.4,0,35.1c-0.1,1-0.3,2.1-0.1,3.1
	c0.6,4.2-1.1,5.3-5.3,5.3c-27.4-0.3-54.9,0.4-82.3-0.6c-23.2-0.8-46.4-0.2-69.6-0.9c7.7-9,15.3-18,23.3-26.8
	C214.6,391.4,219.2,384.6,225.5,379.3z"/>
<path class="st0" d="M329.6,373c-10.9,0-21.8,0-32.6,0c-1.6-1.6-3.6-0.9-5.5-1c-9.8-0.1-19.5-0.1-29.3-0.2
	c14.6-7.3,27.2-17.2,38.9-28.9c-2.2-1.9-4.3-3.8-6.3-5.6c1.5-1.9,3.6-0.8,5.4-1.2c4.3,2.5,7.2,1.2,10.4-2.5
	c6.3-7.1,13.1-13.7,19.8-20.5C330.7,333.2,330.4,353.1,329.6,373z"/>
<path class="st3" d="M225.5,379.3c-6.3,5.3-11,12.1-16.4,18.2c-7.9,8.8-15.5,17.9-23.3,26.8c-1.5,1.5-3.1,3-4.6,4.5
	c-1-0.1-1.9-0.2-2.9-0.3c0.7-1.4,1.4-2.7,2.1-4.1c6.4-8.4,12.8-16.7,19.2-25.1c5.3-7,10.6-14.1,16-21.1c0.7-1,1.6-1.9,1.6-3.2
	c4.3-3.4,7-8.1,10.4-12.3c7.8-9.8,15.4-19.9,23.2-29.8c1.1-1.4,1.9-3.4,4-3.9c2.5,2.1,4.9,4.1,7.4,6.2c-9.9,13.1-21,25-31.6,37.5
	C228.9,374.9,227.2,377.1,225.5,379.3z"/>
<path class="st4" d="M346.3,94.8c0-9.1,0.1-18.3,0-27.4c0-2.8,0.3-5.5,1.1-8.1c0.9,0,1.7,0,2.6,0c8.2,0,8.3,0,9,8
	c0.2,1.6,1,2.5,2,3.4c-2.2,0.3-1.9,2-1.9,3.5c0,3.7,0,7.5,0,11.2c-0.2,9.5-0.2,9.5-9.5,9.5C348.3,94.7,347.3,94.8,346.3,94.8z"/>
<path class="st4" d="M343.2,417.3c0-11.7,0-23.4,0-35.1c4,0.8,9.5-1.8,11.7,1.3c2,2.8,0.6,7.9,0.7,12c0,1.5,0.1,3.1,0.1,4.6
	c0,4.9,0,9.9,0,14.8c-0.4,2.1-1.4,2.8-3.6,2.5C349.1,417.1,346.1,417.3,343.2,417.3z"/>
<path class="st4" d="M62.9,379.1c0,11.7,0,23.4,0,35.1c-3-0.1-5.9-0.1-8.9-0.2c-1.7,0-3.7,0.3-3.7-2.4c0-5.1,0-10.2,0-15.3
	c0.1-4.5,0.2-9,0.2-13.5c0-3,0.5-4.6,4.1-3.9C57.3,379.4,60.1,379.1,62.9,379.1z"/>
<path class="st4" d="M67,55.9c0.8,11.9-1.6,23.7-0.9,35.6c-1.7,0-3.5,0.1-5.2,0c-4.1-0.1-7.7-0.8-6.5-6.4c0.3-1.6-0.6-2.6-1.9-3.4
	c2.1-0.8,1.8-2.6,1.9-4.3c0-3.6,0.1-7.2,0.1-10.8C54.5,56.2,54.5,56.2,65,56C65.7,56,66.4,56,67,55.9z"/>
<path class="st5" d="M358.9,85.2c0-3.7,0-7.5,0-11.2c0-1.5-0.2-3.2,1.9-3.5c11.8,2.8,23.4,6.3,34.8,10.7c1.2,0.5,3.1,0.5,3,2.3
	c-0.2,2.3-2.3,1.7-3.7,1.7C382.9,85.3,370.9,85.3,358.9,85.2z"/>
<path class="st6" d="M54.5,66.6c0,3.6-0.1,7.2-0.1,10.8c0,1.7,0.2,3.5-1.9,4.3c-11.5-0.4-22.9-0.7-34.4-1.1c-1.4-0.1-3.7,0.7-4-1.2
	c-0.3-1.8,1.8-2.2,3.3-2.6C29.6,73,41.9,69.2,54.5,66.6z"/>
<path class="st6" d="M50.3,396.3c0,5.1,0,10.2,0,15.3c-12-0.3-24.1-0.7-36.1-1.1c-1.2,0-3.1,0.8-3.5-1.1c-0.4-2.1,1.6-2.3,3-2.8
	C25.7,402.7,37.9,399.3,50.3,396.3z"/>
<path class="st7" d="M355.7,415c0-4.9,0-9.9,0-14.8c12.4,2.6,24.5,6.5,36.3,10.9c1.2,0.4,3.2,0.6,3,2.4c-0.3,2.3-2.4,1.5-3.8,1.5
	C379.4,415,367.5,415,355.7,415z"/>
<path class="st8" d="M178.3,428.5c1,0.1,1.9,0.2,2.9,0.3c0.8,4.9-2.7,7.6-5.7,10.4c-2.6-0.1-5.2-0.1-7.7-0.2
	C170.1,434.3,173.7,431,178.3,428.5z"/>
<path class="st9" d="M167.8,439.1c2.6,0.1,5.2,0.1,7.7,0.2c-3,4-7,6.7-11.8,9.5C164.7,444.9,165.4,441.6,167.8,439.1z"/>
<path class="st10" d="M132.9,284.9c14.9-0.9,32.9,1.8,50.9,1c3.9-0.2,4.4,1.9,4,4.9c-0.4,3,2,7.6-4,7.8c-7.7,0.3-15.3-0.8-23-0.9
	c-17.8-0.3-35.7-0.1-53.5-0.1c-1.4,0-2.9,0.2-4.2-0.2c-3.2-0.9-5.9-2.5-5.5-6.5c0.4-4,2.6-5.9,6.6-5.9
	C112.7,284.8,121.3,284.9,132.9,284.9z"/>
<path class="st10" d="M270.6,249.2c-2.7,4.6-5.4,9.2-8.2,13.8c-1.1-1.5-2.8-1.2-4.3-1.2c-19,0.7-38-1.4-57-0.9
	c-5.7,0.2-4.9-3.1-5-6.6c-0.1-3.5-0.3-6.5,4.9-6.1C224.2,249.4,247.4,249.2,270.6,249.2z"/>
<path class="st10" d="M153.3,186.2c-16-1.4-32-1-48-1c-3.9,0-6.5-1.9-6.6-5.8c-0.1-4.1,2.5-6.7,6.5-6.6c7.3,0.1,14.6-0.5,21.9,0.6
	c5.8,0.9,11.8,0.3,17.8,0.3c5.6,0,11.2,0,16.8,0c6.7,0,9.7,4.7,7.2,11c-0.7,1.8-2.1,1.6-3.4,1.6
	C161.3,186.2,157.3,186.2,153.3,186.2z"/>
<path class="st10" d="M193.1,224c-14.8-1.1-29.6-1.2-44.4-1c-3,0-4.1-1.1-3.9-4c0.1-1.4,0.2-2.8,0-4.2c-0.4-3.4,1-4.5,4.5-4.5
	c14.5,0,28.9,1.7,43.4,1.1c4.4-0.2,8.7,0.1,13.1-0.1c3.3-0.2,4.5,1.1,4.1,4.3c-0.1,1.2-0.1,2.5,0,3.7c0.5,3.7-1.1,5-4.7,4.7
	C201.1,223.8,197.1,224,193.1,224z"/>
<path class="st10" d="M163.9,136.9c13.7,0.5,27.5,1.5,41.2,1c3-0.1,3.9,1,3.3,4.1c-1.6,8.5-1.5,9-10.3,8.4c-15.3-1-30.6-1-45.9-0.8
	c-4.3,0-4.5-2.2-4.2-5.2c0.3-3.1-1.6-7.6,4.4-7.4C156.2,137,160,136.9,163.9,136.9z"/>
<path class="st10" d="M293.7,151.6c-12.7,0.1-25.4-1.7-38.2-1c-2.7,0.2-3.6-1-3.7-3.7c-0.4-8.6-0.2-9.4,8.2-8.8c15,1,30,0.9,45,0.9
	c4.2,0,7.2,1.7,7.6,6.2c0.3,3.8-2.8,6.3-7.9,6.4C301,151.6,297.3,151.6,293.7,151.6z"/>
<path class="st10" d="M119.3,322.6c5.1,0,10.1,0.2,15.2-0.1c4.5-0.3,4.2,2.6,4,5.4c-0.2,2.6,1.6,6.3-3.7,6.3
	c-10.3-0.1-20.6,0-30.9-0.1c-4,0-7.2-1.8-7.1-6c0.2-4,3-5.9,7.3-5.7C109.2,322.8,114.2,322.6,119.3,322.6
	C119.3,322.6,119.3,322.6,119.3,322.6z"/>
<path class="st10" d="M163.5,335.2c-4.5,0-9.1-0.3-13.6,0.1c-4.4,0.4-5.6-1.5-5.1-5.4c0.1-0.9,0.1-1.8,0-2.6
	c-0.5-3.7,1.1-4.8,4.7-4.7c9.1,0.2,18.1,0.3,27.2,0c4.1-0.1,5,1.4,4.9,5.2c-0.2,7.5,0,7.5-7.7,7.5
	C170.4,335.2,167,335.2,163.5,335.2z"/>
<path class="st10" d="M253.4,174.7c4.4,0,8.7,0.1,13.1,0c3.1-0.1,4.6,0.9,4.3,4.1c-0.2,1.6-0.1,3.1,0,4.7c0.2,2.5-0.7,3.9-3.5,3.8
	c-9.1-0.1-18.1,0.1-27.2-0.1c-6-0.1-3.4-4.9-3.9-7.9c-0.5-3.1,0.5-4.9,4.2-4.7C244.7,174.9,249,174.7,253.4,174.7z"/>
<path class="st10" d="M231.6,323.6c-1.9,4.6-3.9,9.3-5.8,13.9c-5.1-2.6-10.7-2.3-16.1-2.3c-2.6,0-5.2,0-7.8,0c-6.8,0-6.5,0-6.8-6.8
	c-0.1-4.2,1.6-4.9,5.2-4.8C210.7,323.8,221.2,323.6,231.6,323.6z"/>
<path class="st10" d="M208.3,186.2c-4,0-8-0.1-12,0c-3.1,0.1-4.3-0.8-4.4-4.1c-0.1-8.5-0.3-8.5,8.3-8.5c7.1,0,14.2,1.4,21.3,1.1
	c4.8-0.2,2.7,3.9,2.9,6.3c0.2,2.2,1.1,5.3-3,5.2C217,186.2,212.7,186.2,208.3,186.2z"/>
<path class="st10" d="M115.5,210.3c3.7,0,7.3,0.1,11,0c2.8-0.1,3.6,1.2,3.6,3.8c0,7.6-1.1,8.9-8.8,8.9c-5.1,0-10.1,0.1-15.2,0
	c-5-0.1-7.7-2.6-7.5-6.7c0.2-4.9,3.3-6,7.5-5.9C109.2,210.4,112.4,210.3,115.5,210.3z"/>
<path class="st10" d="M158.4,260.7c-2.8,0-5.6-0.3-8.4,0.1c-5,0.6-6.4-1.1-6.5-6.2c-0.1-5.5,1.7-6.9,6.8-6.5
	c6.1,0.4,12.2,0.3,18.3,0c3.4-0.1,4.9,0.9,4.5,4.4c-0.2,1.5-0.1,3.1,0,4.7c0.2,2.8-1.2,3.7-3.7,3.6
	C165.7,260.6,162.1,260.7,158.4,260.7z"/>
<path class="st10" d="M114.8,248.1c3.3,0,6.6,0.2,9.9,0c4.1-0.3,4.2,1.6,4,5.1c-0.4,5.7-2.8,7.2-8.2,6.7c-5.4-0.5-10.8-0.2-16.2-0.1
	c-4.5,0.1-6.6-2.6-6.6-6.4c0.1-3.6,2.9-5.3,6.6-5.2C107.8,248.2,111.3,248.1,114.8,248.1z"/>
<path class="st10" d="M251.4,224c-0.5,0-1,0-1.6,0c-9,0-9.7-0.8-8.5-9.8c0.3-2.4,1.4-3.2,3.4-2.5c3.8,1.3,7.7,0.9,11.4,0.6
	c4.9-0.4,5.2,2.1,5.2,5.9c0,4-0.5,6.5-5.3,5.8C254.5,223.8,252.9,224,251.4,224z"/>
<path class="st10" d="M300.8,187.3c-1.2,0-2.5-0.1-3.6,0c-4.3,0.6-5.8-1-5.6-5.4c0.3-6.8,0.1-6.7,6.8-6.2c2.8,0.2,5.6,0,8.3,0.1
	c3.7,0,5.6,2.6,5.6,5.6c0.1,3.3-1.9,5.9-5.8,5.9C304.6,187.3,302.7,187.3,300.8,187.3z"/>
<path class="st10" d="M208.9,298.5c-8.1,0-10.8-3.3-7.1-10.6c2.3-4.5,8.2-1.2,12.4-1.9c1.6-0.3,3.8-0.5,4,2.1c0.2,2.8,0.1,5.6,0,8.4
	c-0.1,1.9-1.5,2.1-3,2.1C213,298.5,211,298.5,208.9,298.5z"/>
<path class="st10" d="M289.7,219.2c-0.9,2.3-2.3,4.2-3.9,5.9c-1.9-0.4-3.7-0.8-5.6-1c-6.2-0.8-7.7-3-6.3-9.2
	c0.1-0.5,0.1-1.3,0.4-1.4c4.3-2,8.8-0.9,13.2-0.8c3.2,0.1,1.7,3.2,2.1,5C289.7,218.1,289.7,218.7,289.7,219.2z"/>
<path class="st10" d="M113.2,143.3c-0.2,2.6,1.7,6.5-3.9,6.2c-6.3-0.3-10.7-2.9-10.2-7.2c0.5-5,4.5-5.2,8.6-5.5
	C112.7,136.4,114.4,138.3,113.2,143.3z"/>
<path class="st10" d="M248.7,286.9c-1.1,4.7-3.8,8.7-6.1,12.8c-0.8-1.2-2-1.3-3.2-1.2c-3.6,0.4-4.3-1.3-4.3-4.6
	c0-8.7-0.1-8.7,8.5-7.2C245.2,287,246.9,286.9,248.7,286.9z"/>
<path class="st11" d="M200.4,371.9c-24.1,0-48.1,0-72.2,0c-1.8,0-3.9,0.7-5.4-1c24.2,0,48.5,0,72.7,0.1
	C197.1,371,199,370.4,200.4,371.9z"/>
<path class="st12" d="M262.3,335.3c-2.5-2.1-4.9-4.1-7.4-6.2c3.4-6.7,8.6-12.1,13.3-17.9c11.8-14.8,23.6-29.6,35.8-44.1
	c12.3-14.5,24.6-29,38.5-41.9c0.5-0.5,1-1,1.5-1.4c1.1-0.7,2.5-2.1,3.7-1.1c1.3,1.1,0.8,2.9,0,4.4c-1.1,2-2.3,3.9-3.5,5.8
	c-12.2,18.7-26.2,36-40.4,53.1c-13,15.6-25.9,31.3-38.9,47C264.2,333.8,263.2,334.5,262.3,335.3z"/>
<path class="st13" d="M262.2,371.8c9.8,0,19.5,0.1,29.3,0.2c1.8,0,3.9-0.7,5.5,1c-12.3,0-24.6-0.1-36.9-0.1
	C260.5,372,261.3,371.9,262.2,371.8z"/>
<path class="st14" d="M300.2,336.2c-1.8,0.4-4-0.7-5.4,1.2c-2.6-1.9-5.2-3.9-9.1-6.7C292,331.7,296.1,333.8,300.2,336.2z"/>
<path class="st0" d="M291.4,238c0.4,0.5,1.1,1.3,1,1.3c-0.8,0.8-1.4,0.2-2-0.3C290.7,238.7,291,238.3,291.4,238z"/>
</svg>
