<?xml version="1.0" encoding="utf-8"?>
<!-- Generator: Adobe Illustrator 19.1.0, SVG Export Plug-In . SVG Version: 6.00 Build 0)  -->
<svg version="1.0" xmlns="http://www.w3.org/2000/svg" xmlns:xlink="http://www.w3.org/1999/xlink" x="0px" y="0px"
	 viewBox="0 0 612 792" style="enable-background:new 0 0 612 792;" xml:space="preserve">
<style type="text/css">
	.st0{fill:#BEE5EA;}
	.st1{fill:#F4F9ED;}
	.st2{fill:#54AF5E;}
	.st3{fill:#7EA7B3;}
	.st4{fill:#55B260;}
	.st5{fill:#D7D8A1;}
	.st6{fill:#62BE72;}
	.st7{fill:#424026;}
	.st8{fill:#FBF6B6;}
	.st9{fill:#FAF5B6;}
	.st10{fill:#77C370;}
	.st11{fill:none;}
	.st12{font-family:'ComicSansMS';}
	.st13{font-size:17.3071px;}
	.st14{font-size:12.9803px;}
	.st15{fill:#8B8C35;}
	.st16{font-family:'ComicSansMS-Bold';}
	.st17{font-size:18.7493px;}
	.st18{font-size:14.4226px;}
</style>
<g id="Layer_1">
	<path class="st0" d="M81.6,638.4c-33.6,0-67.2,0-100.8,0.1c-2,0-2.4-0.4-2.4-2.4c0.1-45.3,0.1-90.6,0.1-135.9
		c5.4-1.1,7.6-0.7,8.9,2.6c1.3,3.2,2.6,6.7,1.8,10.4c-1.1,5.2,1.1,8.4,6.3,9.1c6.6,1,9.6,6,7.4,12.2c-1.8,4.9,0,8.2,5,9.7
		c1.6,0.5,3.5,0.1,4.8,1.4c4.8,4.8,11,6,17.3,6.9c1.6,0.2,1.8,0.8,1.3,2.2c-1.8,5-0.1,9.3,3.5,12.5c6.3,5.7,13.4,10.5,21.5,13.5
		c2.1,0.8,4.7,2.4,6.8,1c4.1-2.7,9.2-1.8,13.2-4.5c0.5-0.4,1.3-0.6,1.9,0c0.6,0.6,0.1,1.4-0.3,1.8c-2.6,2.4-3.8,6.7-8.5,6.2
		c-0.9-0.1-1.3,0.7-1.9,1.2c-1.1,1.1-2.3,1.4-3.9,1.9c-2.6,0.7-5.5,0.2-7.8,2.1c-1.5,1.2-3.9,1.9-5-0.7c-1-2.4-3-3.5-5-2.8
		c-2.3,0.9-3.6,3.6-2.7,5.9c1.7,4.1,3.2,8.2,6.7,11.4c4.6,4.2,9.7,8.2,13,13.6c3.4,5.7,8.1,10.1,12.4,15
		C76.9,635,80,635.8,81.6,638.4z"/>
	<path class="st0" d="M627.9,638.4c-43.4,0-86.8,0-130.2,0c-0.3-2.3-1.4-4.2-2.2-6.3c-0.9-2.4-2.2-5.1,0-7.3c4.3-4.4,9-8.2,15.9-6.1
		c1.2,0.4,2.4,0.4,3.4-0.7c4.3-4.8,8.6-9.8,10.8-16c0.8-2.3,2.2-4,3.8-5.7c3.8-4,8.8-5.8,14-6.8c12.5-2.5,23.6-8.6,35.5-12.9
		c3.2-1.1,5.5-1.3,8,0.8c2.1,1.9,4.5,2.5,7.3,2.9c3.3,0.5,6.5,1.1,9.9,1.4c2.6,0.3,4.8,2.1,5.9,4.5c2.3,5.1,5.4,9.8,6.1,15.6
		c0.4,3-0.2,6.6,3.3,8.6c0.7,0.4,0.5,1.7,0.4,2.6c-0.1,1.1,0,2.2,0.5,3.3c2,4.2,4.6,8.2,5.9,12.7c0.1,0.4,0.2,0.8,0.3,1.3
		c-0.5,2.4,1.5,4.3,1.4,6.6C628,637.4,628,637.9,627.9,638.4z"/>
	<path class="st1" d="M627.9,638.4c0-0.5,0-1,0.1-1.5c1.1-1.4,0.9-3,0.5-4.5c0-1.6,0-3.1,0-4.7c1.2-4-0.3-8.1,0.3-12.1
		c0.6-0.9,0.5-1.9,0.5-2.9c-0.2-20.3-0.1-40.6-0.4-60.9c-0.5-32.5-0.1-64.9-0.2-97.4c2,0,4,0,6,0c0,60.1,0,120.3,0.1,180.4
		c0,3.2-0.6,4.4-3.8,3.7C630,638.2,629,638.4,627.9,638.4z"/>
	<path class="st2" d="M61.5,253.1c-0.3,0.5-0.7,0.9-0.8,1.4c-2.4,8.5-1.4,17.1-1,25.6c0.1,2.7,0.5,5.2-1.3,7.6
		c-1.2,1.6-2.3,3.3-2.8,5.3c-1.1,3.9-0.3,5.3,3.6,6.3c2.1,0.5,4.1,1.2,6.2,1.2c-0.9,2.2-2.9,0.8-4.3,1.3c-1.3-0.2-2.6,0-3.8-0.6
		c-0.6-1.1-1.6-1.4-2.8-1.5c-1-0.5-1.6-1.1-1.4-2.3c-0.1-0.3-0.3-0.7-0.4-1c0-0.7,0-1.4,0-2.1c0.1-0.3,0.3-0.7,0.4-1
		c0,0,0-0.2,0-0.2c0.2-0.4,0.5-0.8,0.7-1.1c-0.2-1.2,0.8-2,0.9-3c0,0,0.1-0.3,0.1-0.3s0.1-0.2,0-0.2c0.2-0.2,0.3-0.5,0.5-0.7
		c0.4-0.7,0.9-1.3,1.3-2c1.4-1.2,1.6-2.6,0.6-4.2c-0.1-5.6-0.2-11.2-0.4-16.8c0.3-2.1,0.3-4.1,0-6.2c0.6-1.3,1.1-2.6,1-4
		c0.2-0.2,0.2-0.4,0.2-0.6c0.2-0.7,0.3-1.4,0.5-2.1c0.5-0.3,0.7-0.8,0.5-1.4c0.3-0.7,0.6-1.3,0.9-2c0.2-0.1,0.2-0.3,0.2-0.5
		c0.4-0.8,0.7-1.5,1.1-2.3c0.9-0.3,1.3-1,1.3-1.9c0.7-0.9,1.4-1.9,2.1-2.8c0.1-0.2,0.3-0.4,0.4-0.6c0.6-0.8,1.4-1.6,1.5-2.7
		c0.2-0.1,0.2-0.3,0.2-0.6c2.1-3.2,6.2-4.5,8.1-8c0.8-1,3-2,1.9-3.2c-1-1.2-3.1-0.5-4.4,0.8c-4.7,1.1-9.1-0.9-13.6-1.4
		c-2.5-0.3-4.1-2.8-4.4-5.4c-0.6-4.7-2.7-9-3.6-13.6c-0.9-4.8-2.5-9.5-3.2-14.3c-1.7-11,3.5-19.2,11.6-25.9c1.6-1.4,3.6-2.4,4.8-4.2
		c5.5-8.1,11.6-6.2,16.8-2.7c4.5,3.1,8.5,3.3,13,0.4c2.1-1.3,4.8-1.9,7.2-2.8c1-0.4,2.3-0.5,2.6-1.8c1.3,0,2.7,0,4,0
		c0.5,1,1.6,0.7,2.4,1c1.6,0.7,3.6,1.8,3.6,3.2c0.2,5.6,3.6,10.2,3.9,15.8c0.4,6.3,0.8,12.5,0.9,18.8c0.1,1.9,0.7,3.4,2.3,4.6
		c2.9,2.2,4.4,5.7,7.5,7.6c1.4,0.9,2.5,0.7,4,0.5c7.3-1,12.2-6.9,19-8.9c1.2-0.4,2.2-1.2,3.5-1.2c0,0.5,0.1,1.1,0.1,1.6
		c-7.1,3-12.9,8.5-20.7,10.6c-3.5,0.9-6,0.9-8.5-1.6c-2-2-3.8-4.2-6-5.9c-3.2-2.4-3.8-5.5-3.9-9.1c-0.2-5.5,0.3-10.9-1-16.4
		c-0.9-3.4-0.4-7.1-2.7-10.2c-0.5-0.6-0.3-1.7-0.3-2.6c-0.3-4.1-3.3-6.3-7.2-4.9c-3.9,1.4-7.8,2.8-11.4,4.8c-4.8,2.8-9.1,1.8-13.2-1
		c-6.3-4.2-10.2-3.7-14.5,2.3c-1.1,1.5-2.2,2.9-3.7,3.9c-8,5.2-12.3,12.4-12,22.1c0.1,5.4,3.2,10.2,3.4,15.6
		c0.2,4.7,3.1,8.8,3.6,13.6c0.3,2.4,2.4,4,4.9,4.5c4.4,0.9,8.7,2.3,13-0.2c1.6-0.9,3.3,0.1,4.6,1.3c0.9,0.7,1.1,1.9,0.4,2.8
		c-2.1,2.7-3.9,6-6.7,7.9c-2.6,1.8-4.6,3.6-6,6.4"/>
	<path class="st3" d="M81.6,638.4c-1.6-2.6-4.7-3.4-6.6-5.6c-4.3-4.9-9-9.3-12.4-15c-3.2-5.4-8.4-9.3-13-13.6
		c-3.5-3.2-5.1-7.3-6.7-11.4c-0.9-2.3,0.4-5,2.7-5.9c2-0.7,3.9,0.4,5,2.8c1.1,2.6,3.5,1.9,5,0.7c2.4-1.9,5.3-1.4,7.8-2.1
		c1.5-0.4,2.8-0.8,3.9-1.9c0.5-0.5,1-1.3,1.9-1.2c4.7,0.5,5.9-3.8,8.5-6.2c0.4-0.4,0.9-1.2,0.3-1.8c-0.6-0.6-1.3-0.3-1.9,0
		c-4,2.6-9.1,1.8-13.2,4.5c-2,1.3-4.7-0.2-6.8-1c-8-3-15.1-7.8-21.5-13.5c-3.6-3.2-5.3-7.6-3.5-12.5c0.5-1.4,0.3-1.9-1.3-2.2
		c-6.3-1-12.5-2.2-17.3-6.9c-1.3-1.3-3.2-1-4.8-1.4c-5-1.5-6.8-4.8-5-9.7c2.2-6.2-0.8-11.2-7.4-12.2c-5.2-0.8-7.4-3.9-6.3-9.1
		c0.8-3.7-0.4-7.2-1.8-10.4c-1.4-3.4-3.5-3.7-8.9-2.6c0-0.7,0-1.3,0-2c8.9-2.6,11,3.2,12.7,10.9c0.3,1.5,0,3.1-0.2,4.7
		c-0.7,4.2,0.6,6.1,4.7,6.9c2.5,0.5,4.7,1.3,6.8,3.1c3.8,3.4,3.4,7.1,2,11.2c-1.2,3.6-0.6,6.1,2.9,7c4.8,1.4,9,3.9,13.3,6.2
		c2.8,1.5,5.8,2.1,9.1,2.2c3.7,0.1,4.6,1.6,3.3,5.1c-1.5,4.1,1.4,11.9,5.8,13.5c6,2.2,10.4,6.9,16.3,9.3c3.6,1.5,6.5,2.1,10.5,0.4
		c3.9-1.6,8.3-2.2,12.3-4c1.3-0.6,2.7-1,3.2-2.6c0.6-1.7,2.3-2.1,3.6-1.3c1.5,0.9,1,2.6,0.1,3.9c-1,1.4-2.2,2.6-3.4,3.8
		c-2,2.1-4.4,3.8-6,6.3c-0.2,0.4-0.6,0.8-1,0.9c-4.9,1.1-8.4,5.2-13.2,6.1c-2.6,0.5-5,1.1-7.5,2c-1.9,0.7-4,0.6-4.9-2
		c-0.4-1.2-1.4-2.4-2.8-1.5c-1.2,0.7-1,2.1-0.5,3.3c2.5,5.5,6.3,10,10.3,14.4c3.9,4.3,8.7,7.6,11.5,13.3c2.3,4.8,7,8.4,11.2,11.9
		c2.2,1.8,4.3,3.6,6.4,5.4C83.9,638.4,82.7,638.4,81.6,638.4z"/>
	<path class="st3" d="M628.8,615.5c-0.6,4,0.8,8.1-0.3,12.1c-1.3-1.6,0-3.7-1.1-5.7c-1,2.5-0.4,4.8-1,7c-1.3-4.6-3.9-8.5-5.9-12.7
		c-0.5-1.1-0.6-2.2-0.5-3.3c0-0.9,0.3-2.2-0.4-2.6c-3.5-2-2.8-5.5-3.3-8.6c-0.8-5.7-3.9-10.5-6.1-15.6c-1.1-2.4-3.3-4.2-5.9-4.5
		c-3.3-0.4-6.6-1-9.9-1.4c-2.8-0.4-5.2-1.1-7.3-2.9c-2.4-2.2-4.8-2-8-0.8c-11.8,4.3-23,10.3-35.5,12.9c-5.2,1.1-10.1,2.8-14,6.8
		c-1.6,1.7-3,3.4-3.8,5.7c-2.2,6.2-6.5,11.1-10.8,16c-1,1.1-2.2,1.1-3.4,0.7c-6.9-2.2-11.6,1.7-15.9,6.1c-2.2,2.2-0.9,4.9,0,7.3
		c0.8,2.1,1.9,4,2.2,6.3c-1.3,0-2.7,0-4,0c0.8-1.3,1.1-2.7,0.3-4.1c-5.9-10.6,6.5-19.8,15-17.7c4.6,1.1,6.2-1.4,8.3-4.2
		c3.7-4.8,6.4-10.2,8.6-15.9c2.1-0.1,1.5-3.6,4-3.1c1.5-1.2,3-2.1,4.9-2.9c6.4-2.5,13.1-4.4,19.6-6.7c9.3-3.3,18.5-7.2,27.7-10.8
		c0.8,0.7,1.6,0.8,2.4,0c4.7,5.1,11,6.6,17.5,6.7c7.1,0.1,9.8,5.2,12.3,10.2c3.6,7.2,4.5,15.4,7.3,23c0.7,2,1.8,3.8,2.9,5.7
		c0.4,0.8,1,1.8,2,1.5c1.1-0.3,0.6-1.5,0.8-2.3c0.1-0.7,0.1-1.3,0.1-2C627.9,615.6,628.3,615.6,628.8,615.5z"/>
	<path class="st0" d="M138.3,638.4c-13,0-26.1,0-39.1,0c4.7-2.8,9.7-5,14.8-7c3.2-1.2,6.9-2.1,8-6c0.4-1.4,1.1-2.4,1.8-3.5
		c2-2.8,4.1-5.7,3.9-9.4c-0.2-3.8-0.7-7.5,1.1-11.2c0.5-0.9,0-2.5,1.8-2.1c1.6,0.4,1.7,1.6,1.3,2.9c-1,3.7,1.8,7.3,0.1,11
		c-0.3,0.7,0.7,2.2,1.9,2.5c1.5,0.4,1.2,1,0.6,2.1c-2.4,3.8-1.6,7.6,0.3,11.4C136.3,632.2,137.6,635.2,138.3,638.4z"/>
	<path class="st3" d="M138.3,638.4c-0.7-3.2-2-6.2-3.4-9.1c-1.9-3.8-2.7-7.6-0.3-11.4c0.7-1.1,0.9-1.6-0.6-2.1
		c-1.2-0.3-2.2-1.8-1.9-2.5c1.7-3.8-1.1-7.4-0.1-11c0.3-1.3,0.3-2.6-1.3-2.9c-1.8-0.4-1.4,1.2-1.8,2.1c-1.8,3.6-1.3,7.4-1.1,11.2
		c0.2,3.7-1.9,6.6-3.9,9.4c-0.8,1.1-1.4,2.1-1.8,3.5c-1.1,3.9-4.8,4.8-8,6c-5.1,2-10.1,4.2-14.8,7c-1.1,0-2.2,0-3.4,0
		c5.4-3.2,10.9-6.2,16.7-8.3c3.8-1.4,7.2-2.6,8.2-6.9c0.2-0.7,0.6-1.5,1.1-2.1c2.6-3.2,4-6.7,3.6-10.8c-0.4-4.2,0.5-8.2,1.7-12.2
		c0.4-1.2,0.5-3.2,2.3-2.7c1.5,0.4,3.5,0.9,4,2.9c0.3,1.2,0.8,2.3,0.3,3.6c-0.2,0.4-0.4,1-0.2,1.3c2.2,3.1,2.5,6.2,0.5,9.7
		c-0.6,1.1,1.2,1.6,2.2,2c2.2,0.9,4,1.5,1.3,4.2c-2.3,2.3-2.1,5.6-1.1,8.6c1.2,3.6,2.5,7.2,3.8,10.8
		C139.6,638.4,138.9,638.4,138.3,638.4z"/>
	<path class="st4" d="M167.3,193.2c10.7-0.9,21.1-0.7,30.3,5.8c1.1,0.7,1.7,1.7,2.4,2.7c5.2,7.3,11.3,14,17.9,20
		c0.6,0.6,1.5,1.2,2.3,1.4c9.1,2.1,17.5,6.6,26.7,8.1c5.1,0.8,8,4.4,11.4,7.3c8.6,7.2,17.2,14.2,27,19.9c4,2.3,7.2,6.1,10.5,9.4
		c1.6,1.6,2.5,3.8,2.3,6.1c-0.1,1.2,0.2,2.2,0.7,3.3c3.2,6.8,2.5,14,2.4,21.1c0,2.4-1.9,4-3.9,5.2c-1.5,1-3.1,1.9-4.6,2.7
		c-1.2,0.7-2.4,1.6-2.2,3.1c0.6,4.5,1,9.2,4.6,12.7c3.4,3.2,4.9,7.4,4.7,11.9c-0.3,6.9,3.5,11.5,7.9,15.7c3.2,3,7.1,5.1,11.2,6.8
		c8.8,3.8,11.7,9.3,9.7,18.7c-0.3,1.4-0.2,2.7,0.3,4c0.6,1.6,1,3.3,0.6,5c-1.3,5.5,1.2,9.8,4,14.1c0.6,0.9,1.3,1.8,1.4,3
		c0.5,6.2,3.6,10.9,9.3,13c7,2.5,12.4,7.5,18.5,11.3c6,3.7,10.8,8.7,15.9,13.3c3.3,3,7.5,4.2,11.8,4c6.7-0.2,12.8,2.2,19,3.9
		c2.8,0.8,5.5,1.7,8.5,1.6c4.4-0.1,8.1,2.4,12.2,3.4c9,2.2,18,4.6,27.4,4.9c0.9,0,1.8,0.2,2.6,0.7c8,5.4,17.2,7.9,26.1,11.1
		c3.8,1.4,7.9,1.2,11.9-0.2c2.8-0.9,6.1-1.2,8.6,0.1c7.5,3.7,15,3.3,22.5,0.5c9.3-3.5,18.7-3.8,28.5-3.2c6.4,0.4,13,0.6,19.3-1.9
		c1.1-0.5,2.4-0.7,3.6-0.3c-1.6,1.8-4.9,0.3-6,3c-1.9,1-4,1.3-6.1,1.3c-9,0-17.9,0-26.9,0c-1.5,0-2.8,0.1-4.2,0.9
		c-4.6,2.8-10.2,3.1-15.2,4.6c-3.6,1.1-8.8,0.8-13-1.7c-3.8-2.3-7.9-2.5-11.9-0.5c-1.3,0.6-2.5,0.9-3.9,0.6
		c-6.6-1.2-13.2-2-19.3-5.3c-4.6-2.5-10.2-2.7-14.2-6.6c-0.7-0.7-1.8-0.8-2.9-0.7c-3.2,0.2-6.1-0.4-9.2-1.3
		c-4.7-1.4-9.7-1.5-14.5-2.7c-4.5-1.2-8.9-3.2-13.5-3.9c-4.3-0.7-8.5-1.3-12.7-2.6c-5.7-1.8-11.4-4-17.6-3.6c-5.4,0.3-9.9-2-14-5.5
		c-3-2.6-5.2-6.1-8.8-8.2c-4-2.4-8-4.9-11.7-7.8c-4.9-3.7-10.2-6.9-16-8.9c-1.5-0.5-2.7-1.4-3-2.9c-0.9-3.6-4.6-6.2-3.8-10.5
		c0.1-0.4-0.6-0.9-0.9-1.4c-2.7-4.8-6.3-9.4-4.4-15.5c0.2-0.7,0.1-1.6-0.2-2.3c-1.1-3-0.4-5.9-0.2-8.9c0.3-3.6-0.1-6.9-2.8-9.9
		c-3.9-4.3-9.4-5.9-14-9c-7.4-4.8-12.6-10.9-12.5-20.3c0-3.1-0.8-6.5-3-8.7c-3.3-3.2-4.8-7-5.7-11.3c-1.3-6.5-0.9-7.6,4.6-10.5
		c2.9-1.5,5.5-3.2,5.7-7.7c0.4-8.3-2.2-15.9-3.7-23.7c-0.2-1.1-0.8-2.1-1.6-2.9c-3.6-3.2-7.1-6.5-11.2-9.1
		c-4.2-2.7-8.5-5.4-12.4-8.5c-4.9-3.9-9.4-8.3-14.3-12.1c-2.7-2.1-5-5.1-8.7-5.2c-2-0.1-3.7-0.9-5.4-1.7c-2.5-1.2-5.5-1.5-7.9-2.6
		c-6.2-2.9-13.8-2-19.1-7.7c-5.2-5.7-10.6-11.1-15.2-17.3c-3.1-4.1-7.4-6.6-12.4-7.8c-6.3-1.6-12.7-1.4-19-1.5
		C167.7,194.5,167.5,193.8,167.3,193.2z"/>
	<path class="st2" d="M584.6,573c-0.8,0.8-1.6,0.7-2.4,0c0.1-4.8-0.7-9.6,0.8-14.4c1.7-5.1,3-10.3,2.3-15.7
		c-0.4-3.2-0.3-6.5-0.6-9.7c-0.4-4.4-1.5-9.1-4.8-11.8c-4-3.2-7.2-6.3-9.3-11.3c-3.8-9,1-19,10.9-19.3c8.9-0.3,17.5-1.9,25.9-4.5
		c3.6-1.1,6.8-2.9,9.3-5.8c2.8-3.3,4.3-7.1,2.7-11.2c-1.6-4.2-5.5-5.2-9.7-5c0-0.7,0-1.3,0-2c0.3-0.1,0.6-0.1,0.9-0.2
		c8.1,0.5,13.4,5.5,12.1,12c-1.1,5.4-4.8,9.4-9.4,12.1c-4.6,2.8-10.1,3.6-15.3,4.9c-5.7,1.5-11.5,1.4-17.3,2
		c-6.6,0.7-11.8,10.5-8,16.3c2.4,3.7,4.7,6.9,8.4,9.5c3.5,2.5,5.1,7.1,5.4,11.2c0.6,8.6,2.4,17.3-0.3,25.7
		C584.5,561.8,584,567.2,584.6,573z"/>
	<path class="st5" d="M628.8,615.5c-0.4,0.1-0.9,0.1-1.3,0.2c0.9-15.3,0.4-30.7,0.4-46.1c0.1-37.2,0.1-74.4,0.1-111.6
		c0-1.3-0.5-2.7,0.7-3.8c0,32.5-0.3,65,0.2,97.4c0.3,20.3,0.2,40.6,0.4,60.9C629.3,613.6,629.4,614.6,628.8,615.5z"/>
	<path class="st4" d="M609.8,462.4c0,0.7,0,1.3,0,2c-9.2,1.3-18.4,0.1-27.7,0.6c0-0.5,0-1.1,0-1.6c7.8-1.9,15.8-0.7,23.7-0.8
		c1,0.6,1.9,0.7,2.6-0.4c0.4,0,0.9-0.1,1.3-0.1C609.7,462.1,609.8,462.4,609.8,462.4z"/>
	<path class="st2" d="M167.3,193.2c0.2,0.6,0.4,1.3,0.6,1.9c-0.7,0-1.4,0.1-2,0.1c-0.2-0.3-0.4-0.3-0.6,0c-3.1-0.2-5.8,1.6-8.8,2.1
		c0-0.5,0-1-0.1-1.5c0.4-0.2,0.8-0.4,1.1-0.6c0.7,0.1,1.3,0,1.6-0.7c0.8-0.3,1.5-0.5,2.3-0.8c1.1,0,2.2,0.6,3.1-0.5
		C165.5,192.7,166.4,192.6,167.3,193.2z"/>
	<path class="st2" d="M582.1,463.4c0,0.5,0,1.1,0,1.6c-2.5,0.5-4.9,0.9-7.4,1.4c1.2-2.7,4.4-1.2,6-3
		C581.2,463.4,581.6,463.4,582.1,463.4z"/>
	<path class="st4" d="M164.5,193.2c-0.9,1.1-2,0.6-3.1,0.5C162.3,192.7,163.4,192.8,164.5,193.2z"/>
	<path class="st6" d="M608.4,462.3c-0.7,1.1-1.6,0.9-2.6,0.4C606.6,461.8,607.5,461.8,608.4,462.3z"/>
	<path class="st4" d="M156.4,195.8c0,0.5,0,1,0.1,1.5c-0.3,0.5-0.8,0.7-1.3,0.7c0-0.5-0.1-1.1-0.1-1.6
		C155.5,196.1,156,195.9,156.4,195.8z"/>
	<path class="st4" d="M159.2,194.5c-0.3,0.7-0.9,0.7-1.6,0.7C157.9,194.6,158.4,194.1,159.2,194.5z"/>
	<path class="st6" d="M609.8,462.4c0,0-0.1-0.3-0.1-0.3c0.3,0,0.7,0.1,1,0.1C610.4,462.3,610.1,462.4,609.8,462.4z"/>
	<path class="st2" d="M218.4,418.5c-0.2-0.4-0.4-0.8-0.6-1.2c-0.8-5.8-3.3-10.8-6.3-15.7c-0.4-0.8-0.7-1.7-1.1-2.5
		c0-0.3,0.1-0.7,0.1-1c1.6,0,2.3,0.8,2.8,2.3c1.6,4.6,4.2,8.9,5.4,13.7c1.1,4.1,4.6,7.4,5,11.6c0.9,9.1,2.4,18.2,1.1,27.4
		c-0.6,4.1,1.1,6.8,3.9,7.1c2.4,0.3,4.9,0.2,7.3,0.7c3.8,0.7,7.1,0.1,10.6-1.5c4.7-2.2,8.8,1.2,8,6.2c-0.4,2.5-0.4,4.9-0.4,7.4
		c0.1,2.5-0.4,4.7-1.7,6.7c-2.6,3.8-4.4,7.4,0,11.2c0.2,0.2,0.2,0.6,0.3,0.9c1.1,4.3,1.7,8.8,1.4,13.2c-0.8,9.4,2,18.7,0.8,28.1
		c-0.4,2.6,0,5.4,0.1,8.1c0.2,5.5,0.7,11.1-1.3,16.2c-2.1,5.5-5.1,10.7-7.6,16.1c-1.4,3,0.2,5.7,3.5,5.4c3.8-0.3,7.5-1.9,10.6-3.8
		c7.8-4.7,16-8,24.8-9.6c4.4-0.8,8.2,0.5,10.3,5c0.6,1.2,1.4,2.3,2.1,3.5c1.1,2.1,2.8,2.9,5.2,3c5.2,0.2,9.5-1.9,13.8-4.6
		c7.6-4.8,12.6-12.5,20.3-17.4c4.1-2.5,8.1-3.7,12.4-4.3c8.6-1.2,17-2.6,24-8.3c1-0.8,2.1-1,3.3-1.4c2.7-0.8,5.3-0.2,8-0.4
		c0.1,1.4-1.8,1-2,2.2c-0.5,0.1-0.9,0.2-1.4,0.3c-0.7-0.7-1.3-0.7-2,0c-0.5,0-0.9-0.1-1.4-0.1c-0.5-0.5-0.9-0.5-1.3,0.1
		c-0.3,0.1-0.6,0.1-0.9,0.2c-0.9-0.1-1.6,0.1-1.8,1.1c-0.4,0.8-1.1,1.1-1.8,1.5c-0.3,0.2-0.5,0.5-0.8,0.7c0,0,0.1,0,0.1,0
		c-2.9,1.1-6.2,1.3-8.8,3.2c-0.2,0.2-0.3,0.2-0.5,0.2c-0.7,0-1.2,0.1-1.6,0.8c0,0-0.2,0-0.2,0c-0.7-0.1-1.4-0.1-1.8,0.7
		c-0.5,0.1-0.9,0.2-1.4,0.4c-0.7-0.7-1-0.4-1.3,0.4c-0.5,0.1-0.9,0.2-1.4,0.2c-1.4-0.7-2.7-1-4,0.3c-0.7,0.1-1.4,0.2-2.1,0.3
		c-1.9-0.2-3.9-0.4-5.3,1.4c-0.9,0.5-1.8,1.1-2.9,1c-0.8,0.1-1.1,0.6-1.1,1.3c-0.7,1.1-1.4,2.2-2.9,2.2c-0.8-0.1-1.5,0-1.8,1
		c-0.4,0.3-0.9,0.6-1.3,0.9c-1.3,0.1-2,0.7-2.1,2l-0.1,0.1c0,0-0.2-0.1-0.2,0c-0.3,0.3-0.7,0.6-1,0.9c-0.2,0.2-0.3,0.3-0.5,0.5
		c-0.3,0.2-0.6,0.5-0.9,0.7c0,0,0.1-0.1,0.1-0.1c-0.2,0.3-0.5,0.6-0.7,0.9c-0.4,0.4-0.7,0.8-1.1,1.1c-0.7,0.1-0.9,0.6-1,1.3
		c0,0,0,0,0,0c-0.8,0-1.3,0.5-1.4,1.3c-1.8,1.9-4,3.3-6.1,4.8c-0.6,0.1-1.1,0.2-1.2,0.9c0,0,0.1,0,0.1,0c-1.3,0.1-2.7,0.1-3.5,1.5
		c-0.5,0.2-1.1,0.3-1.6,0.5c-0.8-0.1-1.4-0.1-1.8,0.7c-0.5,0.2-1.1,0.4-1.6,0.6c-1.4,0.2-2.8,0.5-4.2,0.7c-4.4,1.3-6.9-0.6-9-4.5
		c-3.8-7.2-7-8.4-14.7-5.5c-6.2,2.3-12.4,4.4-18.2,7.9c-3.7,2.2-7.8,4.5-12.5,4.4c-4.9,0-7.7-4.5-5.6-8.9c1.4-2.9,2.7-6,4.5-8.7
		c4.4-6.8,4.3-14.3,4.5-22c0.4-14.3-1-28.5-1.1-42.7c0-3.3-0.6-6.4-2.8-9.1c-1.9-2.4-2.5-5-0.5-7.7c4-5.2,4-11.2,3.6-17.3
		c-0.2-3.6-2.2-4.8-5-2.6c-3.6,2.7-7.4,0.3-11,0.8c-1.7,0.3-3.6-0.2-5.4-0.1c-4.6,0.1-7.7-2.4-7.9-7.1c-0.2-5.3,0.2-10.5,0.1-15.8
		c-0.2-6.8-0.6-13.6-3.5-20C219.2,419.5,219.1,418.9,218.4,418.5z"/>
	<path class="st4" d="M210.5,398.1c0,0.3-0.1,0.7-0.1,1c-4.7-5.2-11.3-8-16.3-12.9c-3.5-3.5-5.1-8-5.9-12.8
		c-0.2-1.1-0.1-2.5-0.8-3.2c-3.2-3-3.8-6.8-4.3-10.9c-0.8-5.7-5-9.3-10.9-10.6c-4-0.9-7.9-1.4-11.9-1.8c-6.9-0.7-12.8-4-18.7-7.2
		c-3.3-1.7-5.1-5-6.4-8.4c-2.3-6.2-4.7-12.4-4.6-19.1c0-0.8,0.3-2-0.8-2.3c-1.2-0.3-1.7,0.9-2.1,1.8c-5.1,10.6-13.9,14.6-25.2,14.4
		c-3.6,0-6.4-1.5-8.3-4.3c-3.2-4.9-6.1-9.9-8.9-15.1c-0.9-1.6-2.1-2-3.6-2.6c-5-1.8-10.2-0.9-15.3-1.2c-1.8-0.1-3.6,0-5.2-1.1
		c1.4-0.5,3.4,0.9,4.3-1.3c2.4-0.3,4.7,0.3,7,0.3c6.6-0.1,13.3-0.4,16.5,7.3c0.4,1,1.2,1.9,1.6,2.9c1.6,4.1,5.1,6.7,7.6,10.1
		c1.5,2,2.8,3,5.1,2.9c9.8-0.5,17.9-3.8,22.3-13.3c0.7-1.4,1.4-2.8,2.2-4.2c1.1-1.9,2.4-1.8,3.8-0.4c1,1,1.5,2.2,1.5,3.7
		c0,5.5,0.8,10.9,2.8,16.1c1.6,4.2,2.5,9,6.5,11.5c7.3,4.5,15.2,7.4,24,7.8c3.9,0.2,8.2,1,11.6,2.9c5.2,2.9,7.9,8,8.4,14.1
		c0.1,1.8,0.8,3.4,2,4.9c1.1,1.4,2.7,2.5,2.8,4.5c0.4,8.8,4.9,14.9,12.5,18.9C206.6,392.1,209,394.8,210.5,398.1z"/>
	<path class="st4" d="M382.4,542.9c0.2-1.2,2.1-0.8,2-2.2c7.7-0.3,15.5-0.3,23.1-0.9c3.4-0.3,7,0.6,10.2-1.1
		c3.5-1.8,7.1-3.3,10.8-4.5c4.7-1.6,9-4.6,14.8-1.9c9.9,4.5,20.3,7.8,31.5,6.4c3.6-0.4,6.8,1.1,9.8,2.9c6,3.6,9.1,9.7,13.1,15
		c2.6,3.4,4,7.7,7.7,10.4c8.7,6.6,15.8,14.7,20.8,24.5c0.8,1.5,2.1,1.9,3.6,1.9c-2.5-0.4-1.9,3.1-4,3.1
		c-4.9-12.4-13.8-21.5-24.1-29.5c-2.7-2.1-3.9-5.7-5.7-8.7c-2.7-4.4-5.8-8.6-9.4-12.2c-3.9-4-8.7-5.6-14.4-5.2
		c-5.8,0.4-11.7,0.8-17.3-1.5c-3.1-1.2-6.3-2.3-9.3-3.8c-4.9-2.6-9.6-1.9-14.5,0c-5.2,2.1-10.5,4-15.8,5.8
		c-3.7,1.3-7.6,0.3-11.4,0.4C396.9,542.1,389.7,543.1,382.4,542.9z"/>
	<path class="st4" d="M211.5,401.6c3,4.9,5.6,9.9,6.3,15.7c-2.3-3-2.7-6.8-4.3-10.1C212.6,405.5,211.3,403.8,211.5,401.6z"/>
	<path class="st4" d="M362.2,549.9c2.7-1.9,5.9-2.1,8.8-3.2C368.8,549.6,365.3,549.3,362.2,549.9z"/>
	<path class="st5" d="M72.6,226.7c1.3-1.3,3.3-2,4.4-0.8c1,1.2-1.1,2.2-1.9,3.2C75.1,227.5,74.2,226.8,72.6,226.7z"/>
	<path class="st5" d="M57,258.6c0.3,2.1,0.3,4.1,0,6.2C55.5,262.7,55.5,260.7,57,258.6z"/>
	<path class="st4" d="M342.6,554.5c1.4-1.7,3.3-1.6,5.3-1.4C346.3,554.2,344.5,554.5,342.6,554.5z"/>
	<path class="st4" d="M350.1,552.9c1.2-1.4,2.6-1,4-0.3C352.8,553.4,351.4,553.2,350.1,552.9z"/>
	<path class="st5" d="M57.4,281.6c1,1.6,0.8,2.9-0.6,4.2C56.8,284.3,56.2,282.8,57.4,281.6z"/>
	<path class="st4" d="M313,576.6c0.8-1.4,2.2-1.4,3.5-1.5C315.7,576.4,314.3,576.5,313,576.6z"/>
	<path class="st4" d="M303.7,579.2c1.4-0.2,2.8-0.5,4.2-0.7C306.7,579.6,305.4,580.6,303.7,579.2z"/>
	<path class="st4" d="M54.6,299.8c1.1,0.1,2.1,0.4,2.8,1.5C56,301.5,55.1,301.1,54.6,299.8z"/>
	<path class="st4" d="M330.5,562.8c0.1-1.3,0.8-1.9,2.1-2C332.2,561.8,331.6,562.5,330.5,562.8z"/>
	<path class="st4" d="M379.1,543.3c0.6-0.8,1.3-0.8,2,0C380.4,543.7,379.7,543.9,379.1,543.3z"/>
	<path class="st5" d="M62.6,243.8c0,1-0.4,1.6-1.3,1.9C61.4,244.8,61.5,244,62.6,243.8z"/>
	<path class="st4" d="M358.2,551.6c0.3-0.8,1-0.9,1.8-0.7C359.5,551.5,358.9,551.8,358.2,551.6z"/>
	<path class="st4" d="M218.4,418.5c0.8,0.3,0.8,1,0.7,1.7C218.5,419.8,218.1,419.3,218.4,418.5z"/>
	<path class="st4" d="M355.4,552.3c0.3-0.8,0.6-1.1,1.3-0.4C356.4,552.4,356,552.6,355.4,552.3z"/>
	<path class="st4" d="M333.9,559.9c0.2-1,0.9-1.1,1.8-1C335.3,559.6,334.6,559.9,333.9,559.9z"/>
	<path class="st4" d="M323.7,569.5c0.1-0.8,0.5-1.3,1.4-1.3C325,569,324.5,569.4,323.7,569.5z"/>
	<path class="st4" d="M309.6,577.9c0.3-0.8,1-0.9,1.8-0.7C310.9,577.8,310.4,578.1,309.6,577.9z"/>
	<path class="st5" d="M59.2,250.5c0.1,0.6-0.1,1-0.5,1.4C57.8,251,58.4,250.7,59.2,250.5z"/>
	<path class="st4" d="M373.6,544.5c0.2-1,0.9-1.2,1.8-1.1C375,544.1,374.4,544.4,373.6,544.5z"/>
	<path class="st4" d="M376.4,543.3c0.4-0.6,0.8-0.7,1.3-0.1C377.2,543.2,376.8,543.2,376.4,543.3z"/>
	<path class="st4" d="M360.1,550.9c0.3-0.6,0.9-0.8,1.6-0.8C361.3,550.7,360.8,550.8,360.1,550.9z"/>
	<path class="st4" d="M338.6,556.8c0.1-0.7,0.4-1.2,1.1-1.3C339.3,556,339,556.4,338.6,556.8z"/>
	<path class="st4" d="M325.1,568.2c0-0.6,0.3-1.1,1-1.3C325.8,567.4,325.4,567.8,325.1,568.2z"/>
	<path class="st4" d="M316.4,575.2c0.2-0.6,0.6-0.8,1.2-0.9C317.4,574.8,317,575.1,316.4,575.2z"/>
	<path class="st5" d="M55.4,287.8c-0.2,0.2-0.3,0.5-0.5,0.7C54.9,288.1,55.1,287.9,55.4,287.8z"/>
	<path class="st5" d="M54.9,288.7c0,0-0.1,0.3-0.1,0.3c-0.1,0-0.2-0.1-0.3-0.1C54.6,288.8,54.8,288.7,54.9,288.7z"/>
	<path class="st4" d="M53.9,292c-0.2,0.4-0.5,0.8-0.7,1.1C53.4,292.7,53.6,292.3,53.9,292z"/>
	<path class="st4" d="M53.2,293.3c-0.1,0.3-0.3,0.7-0.4,1C52.9,294,53,293.7,53.2,293.3z"/>
	<path class="st4" d="M52.8,296.5c0.1,0.3,0.3,0.7,0.4,1C53,297.2,52.9,296.8,52.8,296.5z"/>
	<path class="st4" d="M371,546.8c0.3-0.2,0.5-0.5,0.8-0.7C371.5,546.3,371.3,546.5,371,546.8z"/>
	<path class="st5" d="M58.1,254c0,0.2,0,0.4-0.2,0.6c0-0.2-0.1-0.3-0.1-0.5C57.9,254.1,58,254,58.1,254z"/>
	<path class="st5" d="M60.2,248c0,0.2,0,0.4-0.2,0.5c0-0.2-0.1-0.3-0.1-0.5C60,248,60.1,248,60.2,248z"/>
	<path class="st4" d="M329.2,563.8c0.3-0.3,0.7-0.6,1-0.9C329.9,563.2,329.5,563.5,329.2,563.8z"/>
	<path class="st4" d="M327.8,565c0.3-0.2,0.6-0.5,0.9-0.7C328.4,564.5,328.1,564.7,327.8,565z"/>
	<path class="st4" d="M327.2,565.8c0.2-0.3,0.5-0.6,0.7-0.9C327.7,565.2,327.4,565.5,327.2,565.8z"/>
	<path class="st7" d="M49.8,354.4c-0.1-0.4-0.2-0.7-0.3-1.1C49.9,353.7,49.9,354,49.8,354.4z"/>
	<path class="st5" d="M65.2,240.4c-0.1,0.2-0.3,0.4-0.4,0.6C64.9,240.8,65,240.6,65.2,240.4z"/>
	<path class="st5" d="M66.9,237.2c0,0.2-0.1,0.4-0.2,0.6c0-0.2-0.1-0.3-0.1-0.5C66.6,237.2,66.8,237.2,66.9,237.2z"/>
	<path class="st7" d="M626.3,629c0.6-2.2-0.1-4.6,1-7c1.1,1.9-0.2,4.1,1.1,5.7c0,1.6,0,3.1,0,4.7c-1.1-0.3-1.3-1.4-1.9-2.1
		C626.5,629.9,626.4,629.5,626.3,629z"/>
	<path class="st3" d="M626.6,630.3c0.6,0.7,0.8,1.8,1.9,2.1c0.4,1.6,0.6,3.1-0.5,4.5C628,634.6,626.1,632.7,626.6,630.3z"/>
	<path class="st8" d="M107.9,154.8c174.5,0,349,0,523.5-0.1c2.6,0,3.3,0.4,3.3,3.2c-0.1,98.8-0.1,197.5-0.1,296.3c-2,0-4,0-6,0
		c-1.3,1.1-0.7,2.5-0.7,3.8c0,37.2,0,74.4-0.1,111.6c0,15.4,0.5,30.7-0.4,46.1c0,0.7,0,1.4-0.1,2c-0.2,0.8,0.3,2-0.8,2.3
		c-1,0.3-1.6-0.7-2-1.5c-1-1.9-2.1-3.6-2.9-5.7c-2.8-7.6-3.7-15.7-7.3-23c-2.5-5.1-5.2-10.1-12.3-10.2c-6.5-0.1-12.8-1.6-17.5-6.7
		c-0.6-5.7-0.1-11.2,1.7-16.8c2.7-8.4,0.9-17.2,0.3-25.7c-0.3-4.1-1.9-8.7-5.4-11.2c-3.7-2.6-6-5.8-8.4-9.5
		c-3.8-5.9,1.4-15.7,8-16.3c5.8-0.6,11.6-0.5,17.3-2c5.2-1.3,10.7-2.1,15.3-4.9c4.5-2.8,8.3-6.7,9.4-12.1c1.3-6.5-4-11.5-12.1-12
		c-0.3,0-0.7-0.1-1-0.1c-0.4,0-0.9,0.1-1.3,0.1c-0.9-0.4-1.8-0.5-2.6,0.4c-7.9,0.1-15.9-1.1-23.7,0.8c-0.5,0-0.9,0-1.4,0
		c-1.3-0.4-2.5-0.2-3.6,0.3c-6.2,2.5-12.9,2.3-19.3,1.9c-9.8-0.7-19.2-0.3-28.5,3.2c-7.5,2.8-15,3.3-22.5-0.5
		c-2.5-1.2-5.8-1-8.6-0.1c-4,1.3-8.1,1.5-11.9,0.2c-8.9-3.2-18.1-5.7-26.1-11.1c-0.8-0.5-1.6-0.7-2.6-0.7
		c-9.4-0.3-18.3-2.7-27.4-4.9c-4.1-1-7.8-3.5-12.2-3.4c-3,0.1-5.7-0.9-8.5-1.6c-6.2-1.7-12.3-4.1-19-3.9c-4.4,0.1-8.5-1.1-11.8-4
		c-5.2-4.6-10-9.6-15.9-13.3c-6.1-3.8-11.5-8.8-18.5-11.3c-5.8-2.1-8.8-6.8-9.3-13c-0.1-1.2-0.8-2-1.4-3c-2.8-4.3-5.3-8.6-4-14.1
		c0.4-1.6,0-3.4-0.6-5c-0.5-1.3-0.6-2.6-0.3-4c2-9.4-0.9-14.9-9.7-18.7c-4-1.8-8-3.8-11.2-6.8c-4.4-4.1-8.2-8.8-7.9-15.7
		c0.2-4.4-1.3-8.6-4.7-11.9c-3.6-3.5-4-8.1-4.6-12.7c-0.2-1.5,1-2.4,2.2-3.1c1.6-0.9,3.1-1.8,4.6-2.7c1.9-1.3,3.8-2.8,3.9-5.2
		c0.1-7.1,0.8-14.4-2.4-21.1c-0.5-1-0.8-2.1-0.7-3.3c0.1-2.4-0.8-4.6-2.3-6.1c-3.3-3.3-6.5-7.1-10.5-9.4c-9.7-5.7-18.4-12.7-27-19.9
		c-3.4-2.9-6.3-6.5-11.4-7.3c-9.2-1.5-17.6-6-26.7-8.1c-0.8-0.2-1.6-0.8-2.3-1.4c-6.6-6.1-12.7-12.7-17.9-20c-0.7-1-1.4-1.9-2.4-2.7
		c-9.3-6.5-19.7-6.7-30.3-5.8c-0.9-0.6-1.9-0.5-2.8,0c-1.1-0.5-2.2-0.5-3.1,0.5c-0.8,0.3-1.5,0.5-2.3,0.8c-0.8-0.4-1.2,0.1-1.6,0.7
		c-0.4,0.2-0.8,0.4-1.1,0.6c-0.5,0.2-0.9,0.3-1.4,0.5c-1.3,0-2.3,0.9-3.5,1.2c-6.7,2-11.7,7.9-19,8.9c-1.5,0.2-2.6,0.4-4-0.5
		c-3.1-2-4.7-5.5-7.5-7.6c-1.6-1.2-2.2-2.7-2.3-4.6c-0.2-6.3-0.6-12.5-0.9-18.8c-0.3-5.7-3.8-10.3-3.9-15.8c0-1.4-2-2.5-3.6-3.2
		C109.5,155.5,108.4,155.8,107.9,154.8z"/>
	<path class="st9" d="M95.8,638.4c-3.6,0-7.2,0-10.8,0c-2.1-1.8-4.2-3.7-6.4-5.4c-4.3-3.5-8.9-7-11.2-11.9c-2.7-5.7-7.6-9-11.5-13.3
		c-4-4.4-7.8-8.9-10.3-14.4c-0.5-1.2-0.7-2.6,0.5-3.3c1.4-0.8,2.3,0.3,2.8,1.5c0.9,2.6,3.1,2.8,4.9,2c2.5-1,4.9-1.5,7.5-2
		c4.7-0.9,8.3-5,13.2-6.1c0.4-0.1,0.8-0.5,1-0.9c1.5-2.5,3.9-4.3,6-6.3c1.2-1.2,2.4-2.4,3.4-3.8c0.9-1.2,1.4-2.9-0.1-3.9
		c-1.3-0.8-3-0.4-3.6,1.3c-0.6,1.6-1.9,2-3.2,2.6c-4,1.9-8.4,2.4-12.3,4c-4,1.7-6.9,1.1-10.5-0.4c-5.8-2.4-10.2-7.2-16.3-9.3
		c-4.4-1.6-7.4-9.4-5.8-13.5c1.3-3.5,0.4-5-3.3-5.1c-3.2-0.1-6.3-0.7-9.1-2.2c-4.3-2.3-8.5-4.9-13.3-6.2c-3.5-1-4.1-3.4-2.9-7
		c1.4-4.1,1.8-7.8-2-11.2c-2.1-1.9-4.3-2.7-6.8-3.1c-4.1-0.8-5.4-2.6-4.7-6.9c0.3-1.5,0.6-3.2,0.2-4.7c-1.7-7.7-3.8-13.4-12.7-10.9
		c0-113.4,0-226.9-0.1-340.3c0-2.5,0.6-3.1,3.1-3.1c40.8,0.1,81.6,0.1,122.4,0.1c-0.4,1.3-1.6,1.4-2.6,1.8c-2.4,1-5,1.5-7.2,2.8
		c-4.6,2.9-8.5,2.7-13-0.4c-5.2-3.5-11.3-5.4-16.8,2.7c-1.2,1.8-3.1,2.9-4.8,4.2c-8.2,6.7-13.3,14.9-11.6,25.9
		c0.7,4.8,2.4,9.5,3.2,14.3c0.8,4.7,3,8.9,3.6,13.6c0.3,2.6,1.9,5.1,4.4,5.4c4.5,0.6,8.9,2.5,13.6,1.4c1.6,0.1,2.5,0.8,2.4,2.4
		c-1.9,3.5-6,4.8-8.1,8c-0.1,0-0.3,0-0.3,0.1c0,0.2,0,0.3,0.1,0.5c-0.2,1.1-0.9,1.9-1.5,2.7c-0.1,0.2-0.3,0.4-0.4,0.6
		c-0.7,0.9-1.4,1.9-2.1,2.8c-1.2,0.2-1.3,1-1.3,1.9c-0.4,0.8-0.7,1.5-1.1,2.3c-0.1,0-0.2,0-0.3,0c0,0.2,0.1,0.3,0.1,0.5
		c-0.3,0.7-0.6,1.3-0.9,2c-0.8,0.2-1.3,0.5-0.5,1.4c-0.2,0.7-0.3,1.4-0.5,2.1c-0.1,0-0.3,0.1-0.3,0.1c0,0.2,0.1,0.3,0.1,0.5
		c0.1,1.4-0.3,2.7-1,4c-1.5,2.1-1.5,4.1,0,6.2c0.1,5.6,0.2,11.2,0.4,16.8c-1.1,1.3-0.5,2.8-0.6,4.2c-0.4,0.7-0.9,1.3-1.3,2
		c-0.4,0.1-0.6,0.3-0.5,0.7l-0.1,0.2c-0.1,0-0.3,0.1-0.4,0.1c0.1,0,0.2,0.1,0.3,0.1c-0.1,1-1.1,1.9-0.9,3c-0.2,0.4-0.5,0.8-0.7,1.1
		l0,0.2c-0.1,0.3-0.3,0.7-0.4,1c0,0.7,0,1.4,0,2.1c0.1,0.3,0.3,0.7,0.4,1c-0.2,1.2,0.4,1.9,1.4,2.3c0.5,1.2,1.5,1.7,2.7,1.5
		c1.2,0.7,2.6,0.4,3.8,0.6c1.6,1.1,3.4,1,5.2,1.1c5.1,0.3,10.3-0.6,15.3,1.2c1.5,0.6,2.7,1,3.6,2.6c2.8,5.1,5.7,10.2,8.9,15.1
		c1.8,2.8,4.7,4.3,8.3,4.3c11.3,0.1,20.1-3.8,25.2-14.4c0.4-0.9,0.9-2,2.1-1.8c1.2,0.2,0.8,1.5,0.8,2.3c-0.1,6.8,2.2,13,4.6,19.1
		c1.3,3.4,3.1,6.7,6.4,8.4c5.9,3.1,11.9,6.5,18.7,7.2c4,0.4,8,0.9,11.9,1.8c5.9,1.3,10.1,4.9,10.9,10.6c0.6,4.1,1.1,7.9,4.3,10.9
		c0.7,0.7,0.6,2,0.8,3.2c0.8,4.8,2.4,9.3,5.9,12.8c4.9,4.9,11.5,7.7,16.3,12.9c0.4,0.8,0.7,1.7,1.1,2.5c-0.2,2.1,1.1,3.9,2,5.6
		c1.7,3.3,2.1,7.1,4.3,10.1c0.2,0.4,0.4,0.8,0.6,1.2c-0.2,0.8,0.1,1.3,0.7,1.7c2.9,6.4,3.3,13.2,3.5,20c0.1,5.3-0.3,10.6-0.1,15.8
		c0.2,4.7,3.3,7.2,7.9,7.1c1.8,0,3.6,0.4,5.4,0.1c3.7-0.5,7.5,1.9,11-0.8c2.8-2.1,4.8-1,5,2.6c0.4,6.1,0.4,12.1-3.6,17.3
		c-2,2.7-1.4,5.3,0.5,7.7c2.2,2.7,2.7,5.8,2.8,9.1c0.1,14.3,1.5,28.5,1.1,42.7c-0.2,7.7,0,15.2-4.5,22c-1.8,2.7-3.1,5.7-4.5,8.7
		c-2.1,4.5,0.6,8.9,5.6,8.9c4.7,0,8.9-2.2,12.5-4.4c5.8-3.5,12-5.6,18.2-7.9c7.7-2.8,10.9-1.7,14.7,5.5c2.1,4,4.6,5.8,9,4.5
		c1.7,1.4,3,0.4,4.2-0.7c0.5-0.2,1.1-0.4,1.6-0.6c0.8,0.2,1.4-0.1,1.8-0.7c0.5-0.2,1.1-0.3,1.6-0.5c1.3-0.2,2.7-0.2,3.5-1.5l-0.1,0
		c0.6,0,1-0.3,1.2-0.9c2.1-1.5,4.3-2.8,6.1-4.8c0.7-0.1,1.2-0.5,1.4-1.3l0,0c0.3-0.4,0.7-0.9,1-1.3c0.4-0.4,0.7-0.8,1.1-1.1
		c0.2-0.3,0.5-0.6,0.7-0.9c0,0-0.1,0.1-0.1,0.1c0.3-0.2,0.6-0.5,0.9-0.7c0.2-0.2,0.3-0.3,0.5-0.5c0.3-0.3,0.7-0.6,1-0.9l0.2,0.1
		l0.1-0.1c1.1-0.3,1.7-1,2.1-2c0.4-0.3,0.9-0.6,1.3-0.9c0.7-0.1,1.4-0.3,1.8-1c1.5,0,2.2-1.1,2.9-2.2c0.4-0.4,0.8-0.8,1.1-1.3
		c1.1,0.1,2-0.5,2.9-1c1.9-0.1,3.7-0.4,5.3-1.4c0.7-0.1,1.4-0.2,2.1-0.3c1.4,0.3,2.7,0.5,4-0.3c0.5-0.1,0.9-0.2,1.4-0.2
		c0.5,0.2,1,0.1,1.3-0.4c0.5-0.1,0.9-0.2,1.4-0.4c0.8,0.2,1.3-0.1,1.8-0.7l0.2,0c0.6,0,1.2-0.2,1.6-0.8c0.2,0,0.4,0,0.5-0.2
		c3.1-0.7,6.5-0.3,8.8-3.2l-0.1,0c0.3-0.2,0.5-0.5,0.8-0.7c0.7-0.4,1.5-0.7,1.8-1.5c0.7-0.1,1.4-0.5,1.8-1.1
		c0.3-0.1,0.6-0.1,0.9-0.2c0.4,0,0.9-0.1,1.3-0.1c0.5,0,0.9,0.1,1.4,0.1c0.7,0.6,1.3,0.4,2,0c0.5-0.1,0.9-0.2,1.4-0.3
		c7.3,0.2,14.5-0.9,21.7-1.2c3.8-0.2,7.7,0.8,11.4-0.4c5.3-1.8,10.6-3.7,15.8-5.8c4.9-1.9,9.6-2.6,14.5,0c2.9,1.6,6.2,2.6,9.3,3.8
		c5.6,2.2,11.5,1.8,17.3,1.5c5.6-0.4,10.5,1.2,14.4,5.2c3.6,3.7,6.7,7.8,9.4,12.2c1.8,2.9,2.9,6.5,5.7,8.7
		c10.3,8.1,19.2,17.1,24.1,29.5c-2.1,5.7-4.8,11-8.6,15.9c-2.1,2.7-3.7,5.3-8.3,4.2c-8.5-2.1-20.9,7.2-15,17.7
		c0.8,1.4,0.5,2.8-0.3,4.1c-117.8,0-235.6,0-353.4,0c-1.3-3.6-2.6-7.2-3.8-10.8c-1-3-1.2-6.3,1.1-8.6c2.7-2.7,0.9-3.4-1.3-4.2
		c-1-0.4-2.8-0.8-2.2-2c2-3.5,1.7-6.5-0.5-9.7c-0.2-0.3,0-0.9,0.2-1.3c0.5-1.3-0.1-2.4-0.3-3.6c-0.5-2-2.5-2.5-4-2.9
		c-1.8-0.5-1.9,1.5-2.3,2.7c-1.2,3.9-2.1,8-1.7,12.2c0.4,4.2-1,7.7-3.6,10.8c-0.5,0.6-0.9,1.3-1.1,2.1c-1.1,4.4-4.5,5.6-8.2,6.9
		C106.6,632.2,101.1,635.2,95.8,638.4z"/>
	<path class="st10" d="M62.7,249.3c0.3-3.3,3.2-5,4.5-7.7c1.4-2.7,3.4-4.6,6-6.4c2.7-1.9,4.6-5.1,6.7-7.9c0.7-0.9,0.5-2-0.4-2.8
		c-1.3-1.1-3-2.2-4.6-1.3c-4.4,2.5-8.7,1.1-13,0.2c-2.5-0.5-4.6-2-4.9-4.5c-0.6-4.7-3.4-8.8-3.6-13.6c-0.2-5.4-3.3-10.2-3.4-15.6
		c-0.2-9.6,4-16.9,12-22.1c1.5-1,2.6-2.4,3.7-3.9c4.4-6,8.3-6.5,14.5-2.3c4.1,2.7,8.4,3.8,13.2,1c3.5-2.1,7.5-3.4,11.4-4.8
		c3.9-1.4,7,0.8,7.2,4.9c0.1,0.9-0.1,2,0.3,2.6c2.3,3.1,1.8,6.8,2.7,10.2c1.4,5.5,0.9,10.9,1,16.4c0.1,3.6,0.7,6.7,3.9,9.1
		c2.2,1.7,4,3.9,6,5.9c2.5,2.5,5,2.6,8.5,1.6c7.8-2,13.6-7.5,20.7-10.6c0.6,0,1-0.2,1.3-0.7c3-0.5,5.7-2.3,8.8-2.1c0,0,0.3,0,0.3,0
		l0.3,0c0.7,0,1.4-0.1,2-0.1c6.4,0.2,12.8-0.1,19,1.5c4.9,1.3,9.3,3.7,12.4,7.8c4.7,6.2,10,11.7,15.2,17.3
		c5.3,5.7,12.8,4.9,19.1,7.7c2.4,1.1,5.4,1.4,7.9,2.6c1.7,0.8,3.4,1.6,5.4,1.7c3.8,0.2,6.1,3.1,8.7,5.2c4.9,3.9,9.4,8.3,14.3,12.1
		c3.9,3.1,8.2,5.8,12.4,8.5c4.1,2.6,7.6,5.9,11.2,9.1c0.9,0.8,1.4,1.8,1.6,2.9c1.5,7.9,4.1,15.4,3.7,23.7c-0.2,4.5-2.8,6.3-5.7,7.7
		c-5.5,2.8-6,4-4.6,10.5c0.9,4.3,2.4,8.1,5.7,11.3c2.2,2.2,3,5.6,3,8.7c0,9.4,5.1,15.5,12.5,20.3c4.6,3,10.1,4.6,14,9
		c2.7,3,3.1,6.3,2.8,9.9c-0.3,3-0.9,6,0.2,8.9c0.3,0.7,0.4,1.6,0.2,2.3c-1.9,6.2,1.7,10.7,4.4,15.5c0.3,0.5,0.9,1,0.9,1.4
		c-0.7,4.3,2.9,6.9,3.8,10.5c0.4,1.5,1.6,2.4,3,2.9c5.9,2,11.1,5.2,16,8.9c3.7,2.8,7.7,5.4,11.7,7.8c3.5,2.1,5.8,5.6,8.8,8.2
		c4.1,3.6,8.6,5.9,14,5.5c6.3-0.4,11.9,1.9,17.6,3.6c4.2,1.3,8.4,1.9,12.7,2.6c4.6,0.8,8.9,2.8,13.5,3.9c4.8,1.2,9.8,1.3,14.5,2.7
		c3.1,0.9,6,1.5,9.2,1.3c1-0.1,2.2,0,2.9,0.7c3.9,3.9,9.6,4.2,14.2,6.6c6.1,3.3,12.7,4.1,19.3,5.3c1.4,0.3,2.6,0,3.9-0.6
		c4.1-1.9,8.1-1.8,11.9,0.5c4.1,2.5,9.4,2.9,13,1.7c5-1.6,10.6-1.8,15.2-4.6c1.4-0.8,2.7-0.9,4.2-0.9c9,0,17.9,0,26.9,0
		c2.2,0,4.2-0.3,6.1-1.3c2.5-0.5,4.9-0.9,7.4-1.4c9.2-0.5,18.5,0.7,27.7-0.6c4.2-0.2,8.1,0.8,9.7,5c1.6,4.1,0,7.9-2.7,11.2
		c-2.5,2.9-5.7,4.7-9.3,5.8c-8.4,2.6-17,4.2-25.9,4.5c-10,0.4-14.8,10.3-10.9,19.3c2.1,5,5.3,8,9.3,11.3c3.3,2.7,4.4,7.4,4.8,11.8
		c0.3,3.2,0.2,6.5,0.6,9.7c0.6,5.4-0.7,10.6-2.3,15.7c-1.5,4.7-0.7,9.6-0.8,14.4c-9.2,3.6-18.4,7.5-27.7,10.8
		c-6.5,2.3-13.1,4.2-19.6,6.7c-1.8,0.7-3.4,1.7-4.9,2.9c-1.5,0-2.9-0.3-3.6-1.9c-5-9.8-12.1-17.9-20.8-24.5c-3.6-2.8-5.1-7-7.7-10.4
		c-4-5.3-7.1-11.4-13.1-15c-3-1.8-6.2-3.3-9.8-2.9c-11.2,1.4-21.6-1.9-31.5-6.4c-5.9-2.7-10.1,0.4-14.8,1.9
		c-3.7,1.2-7.3,2.7-10.8,4.5c-3.2,1.7-6.8,0.8-10.2,1.1c-7.7,0.6-15.4,0.6-23.1,0.9c-2.7,0.3-5.3-0.4-8,0.4
		c-1.2,0.4-2.4,0.6-3.3,1.4c-7,5.7-15.4,7.1-24,8.3c-4.3,0.6-8.3,1.8-12.4,4.3c-7.7,4.8-12.7,12.6-20.3,17.4
		c-4.2,2.7-8.6,4.7-13.8,4.6c-2.4-0.1-4.1-0.9-5.2-3c-0.6-1.2-1.5-2.3-2.1-3.5c-2.1-4.5-5.9-5.8-10.3-5c-8.9,1.6-17.1,4.8-24.8,9.6
		c-3.1,1.9-6.8,3.5-10.6,3.8c-3.3,0.3-4.9-2.4-3.5-5.4c2.5-5.4,5.5-10.6,7.6-16.1c2-5.1,1.5-10.7,1.3-16.2c-0.1-2.7-0.5-5.4-0.1-8.1
		c1.3-9.4-1.6-18.7-0.8-28.1c0.4-4.5-0.2-8.9-1.4-13.2c-0.1-0.3-0.1-0.8-0.3-0.9c-4.4-3.7-2.6-7.4,0-11.2c1.4-2,1.8-4.3,1.7-6.7
		c-0.1-2.4-0.1-4.9,0.4-7.4c0.9-5-3.3-8.4-8-6.2c-3.5,1.6-6.8,2.3-10.6,1.5c-2.4-0.5-4.9-0.4-7.3-0.7c-2.8-0.3-4.5-3-3.9-7.1
		c1.3-9.2-0.3-18.3-1.1-27.4c-0.4-4.3-4-7.5-5-11.6c-1.2-4.8-3.8-9.1-5.4-13.7c-0.5-1.5-1.3-2.3-2.8-2.3c-1.5-3.4-3.9-6-7.1-7.8
		c-7.6-4.1-12.1-10.1-12.5-18.9c-0.1-2-1.7-3.1-2.8-4.5c-1.2-1.5-1.8-3.1-2-4.9c-0.5-6.1-3.2-11.2-8.4-14.1
		c-3.4-1.9-7.6-2.7-11.6-2.9c-8.8-0.4-16.7-3.3-24-7.8c-4.1-2.5-5-7.3-6.5-11.5c-1.9-5.2-2.8-10.6-2.8-16.1c0-1.4-0.5-2.7-1.5-3.7
		c-1.4-1.3-2.8-1.5-3.8,0.4c-0.7,1.4-1.5,2.7-2.2,4.2c-4.4,9.5-12.5,12.8-22.3,13.3c-2.3,0.1-3.6-0.8-5.1-2.9c-2.4-3.4-6-6-7.6-10.1
		c-0.4-1-1.1-1.9-1.6-2.9c-3.2-7.6-9.9-7.3-16.5-7.3c-2.3,0-4.7-0.6-7-0.3c-2.1,0-4.2-0.7-6.2-1.2c-3.8-1-4.6-2.4-3.6-6.3
		c0.5-2,1.6-3.7,2.8-5.3c1.8-2.4,1.5-4.9,1.3-7.6c-0.5-8.6-1.4-17.2,1-25.6c0.1-0.5,0.5-0.9,0.8-1.4"/>
	<path class="st4" d="M165.9,195.2l-0.3,0c0,0-0.3,0-0.3,0C165.5,194.9,165.7,194.9,165.9,195.2z"/>
	<path class="st6" d="M232.6,251.8c0.6-0.7,1-0.3,1.4,0.3C233.4,252.6,233,252.4,232.6,251.8z"/>
	<path class="st6" d="M227.8,253.9c0.2-0.3,0.3-0.7,0.5-1C228.1,253.3,228,253.6,227.8,253.9z"/>
	<path class="st10" d="M213.6,248.3c-0.1,0.6-0.3,1.4-1.1,0.9c-0.8-0.6-0.4-1.3,0.4-1.7C213.1,247.8,213.3,248,213.6,248.3z"/>
	<path class="st10" d="M209.3,248c0.2-0.4,0.4-1.1,1-0.6c0.5,0.4,0,0.9-0.2,1.4C209.9,248.6,209.6,248.3,209.3,248z"/>
</g>
<g id="Layer_3">
	<rect x="329.5" y="170" class="st11" width="254.6" height="68.5"/>
	<text transform="matrix(1 0 0 1 379.665 183.4659)"><tspan x="0" y="0" class="st12 st13">KARKOTA EMPIRE</tspan><tspan x="-0.3" y="20.8" class="st12 st13">(8</tspan><tspan x="16.6" y="20.8" class="st12 st14">TH</tspan><tspan x="35.3" y="20.8" class="st12 st13"> CENTURY CE)</tspan></text>
	<text transform="matrix(1 0 0 1 347.7266 298.3649)" class="st15 st16 st17">TUFAN EMPIRE</text>
	<text transform="matrix(1 0 0 1 16.9135 254.0555)" class="st16 st18">Kabul</text>
	<circle cx="64.2" cy="252.2" r="2.2"/>
	<text transform="matrix(1 0 0 1 188.0359 252.6133)" class="st12 st18">Srinagara</text>
	<text transform="matrix(1 0 0 1 1.834 355.7349)" class="st12 st17">Arabs</text>
	<circle cx="182.4" cy="247.2" r="2.2"/>
	<text transform="matrix(1 0 0 1 325.6073 487.701)" class="st12 st18">Kanyakubja</text>
	<text transform="matrix(1 0 0 1 421.7539 507.1717)" class="st12 st18">Magadha</text>
	<circle cx="317.3" cy="483" r="2.2"/>
	<text transform="matrix(1 0 0 1 -10.5405 460.2987)" class="st12 st17">Sindh</text>
</g>
</svg>
