<?xml version="1.0" encoding="utf-8"?>
<!-- Generator: Adobe Illustrator 19.1.0, SVG Export Plug-In . SVG Version: 6.00 Build 0)  -->
<svg version="1.0" id="Layer_1" xmlns="http://www.w3.org/2000/svg" xmlns:xlink="http://www.w3.org/1999/xlink" x="0px" y="0px"
	 viewBox="0 0 500 500" style="enable-background:new 0 0 500 500;" xml:space="preserve">
<style type="text/css">
	.st0{fill:#33362F;}
	.st1{fill:#F0B75D;}
	.st2{fill:#DEA857;}
	.st3{fill:#E0A453;}
	.st4{fill:#FDFDFD;}
	.st5{fill:#DDDAC9;}
</style>
<path class="st0" d="M253.4,437.3c-54.5,0-109,0-163.5,0c-18.9,0-30.9-10.9-33.1-29.6c-4.6-39.1-9.3-78.1-14-117.2
	c-2.3-18.9-4.5-37.8-6.7-56.7c-0.4-3.1,0.2-5.9,1.6-8.7c24.5-50.9,49.1-101.8,73.4-152.8c6.6-13.9,17.1-20.3,32.4-20.3
	c73.6,0.1,147.1,0.1,220.7,0c14.6,0,24.8,6.4,31,19.4c24.6,51.2,49.1,102.4,73.9,153.6c3,6.2,0.9,12.2,0.3,18.2
	c-3.2,28.7-6.7,57.4-10.1,86c-3.2,27.3-6.2,54.5-9.7,81.8c-2,15.7-15,26.2-31.3,26.3C363.4,437.4,308.4,437.3,253.4,437.3z
	 M342.8,116c0.7-6.7,0.7-6.7-5.9-6.7c-55.7,0-111.4,0-167.1,0c-6.6,0-6.6,0-5.9,6.7c-0.3,3.5,0.9,4.9,4.8,4.9
	c56.4-0.1,112.9-0.1,169.3,0C341.9,120.9,343.1,119.5,342.8,116z M355.5,155.1c1.4-3.6,1.6-7.4,2.2-11.3c-69.6,0-139.1,0-208.8,0
	c0.6,3.7,1.2,7.1,1.8,10.5c0,0.3,0.3,0.5,0.5,0.8c0.5,7.6,0.5,7.6,7.6,7.6c63,0,126,0,189,0C355,162.7,355,162.7,355.5,155.1z
	 M374.3,208.5c0.9-6.1,1.7-12.2,2.8-18.3c0.7-3.8-0.5-4.6-4.3-4.6c-35.9,0.1-71.8,0.1-107.6,0.1c-44,0-88,0-131.9-0.1
	c-3.3,0-4.5,0.7-3.8,4.1c1.1,6.2,1.9,12.5,2.9,18.8c0.2,1.7,0.6,3.5,0.5,5.2c-0.5,5.7,2.4,6.4,7.3,6.4c74.2-0.2,148.3-0.1,222.5-0.1
	C374,219.9,374,219.9,374.3,208.5z M441.8,280.9c1.3-10.7,2.7-21.4,4-32.1c0.8-6,0.8-6-5.2-6c-124.6,0-249.1,0-373.7,0
	c-6.9,0-6.8,0-5.9,6.6c2.8,23,5.5,46,8.3,69c3.6,30.1,7.2,60.2,10.8,90.3c1.4,4.6,4.8,5.8,9.2,5.8c26.9-0.1,53.7,0,80.6,0
	c82.3,0,164.6,0,246.9,0c7.3,0,9.5-1.8,10.3-8.8c2-16.4,3.9-32.8,5.8-49.2C435.9,331.3,438.8,306.1,441.8,280.9z M65.6,219.9
	c13.8,0,26.8-0.2,39.8,0.1c4.5,0.1,5.2-1.2,4.6-5.3c-2-12.7-3.7-25.4-5.3-38.2c-1-8.3,4-13.7,12.4-13.8c2.4,0,4.8-0.3,7.1,0.1
	c4.3,0.6,4.6-1.5,3.9-4.9c-1.3-6.7-2.5-13.4-3.7-20.1c-2.1-11.9,1.6-16.5,13.7-16.9c2.8-0.1,3.1-1,2.7-3.4
	c-0.7-5.3-1.2-10.7-1.9-16.1c-1.2-9.4,3.7-14.9,13.1-14.9c67.4,0,134.8,0,202.1,0c9.7,0,14.4,5.6,13.1,15.4
	c-0.6,4.6-0.9,9.2-1.7,13.7c-0.7,4,0.3,5.5,4.8,5.4c8.7-0.3,13.7,6.1,12,14.7c-1,5.1-1.9,10.3-2.8,15.4c-0.6,3.6-2.8,8.2-1.4,10.5
	c1.8,2.9,6.9,1,10.6,1.1c9.4,0.2,14.1,5.9,12.8,15.3c-1.8,12.7-3.5,25.5-5.3,38.2c-0.4,2.8,0.2,3.9,3.3,3.9
	c9.8-0.2,19.7-0.1,29.6-0.1c3.7,0,7.4,0,11.3,0c-0.3-1.2-0.4-1.7-0.6-2.1c-22-45.8-43.9-91.5-65.9-137.3c-2.1-4.3-5.4-5.6-10-5.6
	c-73.9,0.1-147.8,0.1-221.7,0c-5.1,0-8.2,1.9-10.4,6.5c-13.7,28.8-27.6,57.5-41.4,86.2C82.5,184.8,74.3,202,65.6,219.9z"/>
<path class="st1" d="M80.1,408.7c-3.6-30.1-7.2-60.2-10.8-90.3c-2.8-23-5.5-46-8.3-69c-0.8-6.7-0.9-6.6,5.9-6.6
	c124.6,0,249.1,0,373.7,0c6,0,6,0,5.2,6c-1.3,10.7-2.7,21.4-4,32.1c-3.5,2.6-4.4,6.8-6.5,10.2c-13.8,23.1-30.2,44.2-51,61.4
	c-18.5,15.3-38.6,27.9-60.9,37.2c-26.3,10.9-53.6,16.7-81.9,18c-26,1.1-52-0.1-78,0.8C135.7,409.5,107.9,408.7,80.1,408.7z
	 M253.4,361.1c18.7,0,37.5,0,56.2,0c7.8,0,12.4-4.6,12.4-12.5c0.1-10.8,0.1-21.6,0-32.4c0-7.1-4.8-12.2-11.2-12.3
	c-6.6-0.1-11.6,5-11.7,12.3c-0.1,6.4-0.1,12.7,0,19.1c0,2.2-0.6,3-2.9,3c-28.6-0.1-57.2-0.1-85.8,0c-2.3,0-3-0.8-2.9-3
	c0.1-6.2,0.1-12.4,0-18.6c0-7.4-4.6-12.6-11.2-12.8c-6.8-0.1-11.6,5.1-11.7,12.8c0,10.3,0,20.6,0,31c0,9.1,4.3,13.4,13.4,13.5
	C216.5,361.1,235,361.1,253.4,361.1z"/>
<path class="st2" d="M65.6,219.9c8.6-18,16.8-35.1,25.1-52.2c13.8-28.7,27.7-57.5,41.4-86.2c2.2-4.6,5.3-6.5,10.4-6.5
	c73.9,0.1,147.8,0.1,221.7,0c4.6,0,8,1.3,10,5.6c22,45.8,43.9,91.5,65.9,137.3c0.2,0.4,0.3,0.9,0.6,2.1c-3.9,0-7.6,0-11.3,0
	c-9.9,0-19.7-0.1-29.6,0.1c-3.2,0.1-3.8-1-3.3-3.9c1.8-12.7,3.5-25.5,5.3-38.2c1.4-9.4-3.4-15-12.8-15.3c-3.7-0.1-8.7,1.8-10.6-1.1
	c-1.5-2.3,0.7-6.9,1.4-10.5c0.9-5.2,1.8-10.3,2.8-15.4c1.6-8.6-3.3-15-12-14.7c-4.5,0.1-5.5-1.4-4.8-5.4c0.8-4.5,1.1-9.1,1.7-13.7
	c1.3-9.7-3.4-15.4-13.1-15.4c-67.4,0-134.8,0-202.1,0c-9.5,0-14.3,5.6-13.1,14.9c0.7,5.4,1.1,10.7,1.9,16.1c0.3,2.3,0,3.3-2.7,3.4
	c-12.1,0.4-15.8,5-13.7,16.9c1.2,6.7,2.4,13.4,3.7,20.1c0.7,3.4,0.4,5.5-3.9,4.9c-2.3-0.3-4.8-0.1-7.1-0.1
	c-8.4,0.1-13.4,5.5-12.4,13.8c1.6,12.7,3.3,25.5,5.3,38.2c0.7,4.2-0.1,5.5-4.6,5.3C92.5,219.7,79.4,219.9,65.6,219.9z"/>
<path class="st3" d="M80.1,408.7c27.8,0,55.6,0.8,83.4-0.2c26-1,52,0.3,78-0.8c28.3-1.2,55.6-7.1,81.9-18
	c22.3-9.3,42.4-21.9,60.9-37.2c20.8-17.2,37.2-38.2,51-61.4c2.1-3.4,3-7.7,6.5-10.2c-3,25.2-5.9,50.4-8.9,75.6
	c-1.9,16.4-3.8,32.8-5.8,49.2c-0.9,7-3,8.8-10.3,8.8c-82.3,0-164.6,0-246.9,0c-26.9,0-53.7,0-80.6,0
	C84.9,414.5,81.5,413.3,80.1,408.7z"/>
<path class="st4" d="M132.4,208.5c-0.9-6.3-1.8-12.6-2.9-18.8c-0.6-3.4,0.5-4.2,3.8-4.1c44,0.1,88,0.1,131.9,0.1
	c35.9,0,71.8,0.1,107.6-0.1c3.7,0,5,0.8,4.3,4.6c-1.1,6.1-1.9,12.2-2.8,18.3C293.7,208.5,213,208.5,132.4,208.5z"/>
<path class="st5" d="M132.4,208.5c80.6,0,161.3,0,241.9,0c-0.4,11.5-0.4,11.5-11.6,11.5c-74.2,0-148.3,0-222.5,0.1
	c-5,0-7.9-0.7-7.3-6.4C133,212,132.6,210.2,132.4,208.5z"/>
<path class="st4" d="M151.2,155.1c-0.2-0.3-0.5-0.5-0.5-0.8c-0.6-3.4-1.2-6.9-1.8-10.5c69.7,0,139.2,0,208.8,0
	c-0.6,3.9-0.8,7.7-2.2,11.3C287.4,155.1,219.3,155.1,151.2,155.1z"/>
<path class="st5" d="M151.2,155.1c68.1,0,136.2,0,204.3,0c-0.5,7.6-0.5,7.6-7.6,7.6c-63,0-126,0-189,0
	C151.7,162.7,151.7,162.7,151.2,155.1z"/>
<path class="st4" d="M163.9,116c-0.7-6.7-0.7-6.7,5.9-6.7c55.7,0,111.4,0,167.1,0c6.5,0,6.5,0,5.9,6.7c-1.7,1.2-3.6,0.9-5.5,0.9
	c-56,0-111.9,0-167.9,0C167.6,117,165.6,117.3,163.9,116z"/>
<path class="st5" d="M163.9,116c1.7,1.2,3.6,1,5.5,1c56,0,111.9,0,167.9,0c1.9,0,3.8,0.3,5.5-0.9c0.3,3.5-0.9,4.9-4.8,4.9
	c-56.4-0.1-112.9-0.1-169.3,0C164.8,120.9,163.6,119.5,163.9,116z"/>
<path class="st0" d="M253.4,361.1c-18.4,0-36.8,0-55.3,0c-9.1,0-13.4-4.3-13.4-13.5c0-10.3,0-20.6,0-31c0-7.7,4.9-12.9,11.7-12.8
	c6.6,0.1,11.2,5.3,11.2,12.8c0,6.2,0.1,12.4,0,18.6c0,2.2,0.6,3,2.9,3c28.6-0.1,57.2-0.1,85.8,0c2.3,0,3-0.8,2.9-3
	c-0.1-6.3-0.1-12.7,0-19.1c0.1-7.3,5.1-12.4,11.7-12.3c6.4,0.1,11.1,5.3,11.2,12.3c0.1,10.8,0.1,21.6,0,32.4
	c0,7.8-4.6,12.5-12.4,12.5C290.8,361.1,272.1,361.1,253.4,361.1z"/>
</svg>
