<?xml version="1.0" encoding="utf-8"?>
<!-- Generator: Adobe Illustrator 19.1.0, SVG Export Plug-In . SVG Version: 6.00 Build 0)  -->
<svg version="1.1" xmlns="http://www.w3.org/2000/svg" xmlns:xlink="http://www.w3.org/1999/xlink" x="0px" y="0px"
	 viewBox="0 0 500 500" style="enable-background:new 0 0 500 500;" xml:space="preserve">
<style type="text/css">
	.st0{fill:#F9D9BC;}
	.st1{fill:none;stroke:#000000;stroke-miterlimit:10;}
</style>
<g id="Layer_3">
	<g>
		<path class="st0" d="M411.9,28.6H189.8c-14.9,0-29.6,4.3-42,12.7c-11.4,7.8-21.9,24.2-21.9,37.4v239.8h183.6
			c-2.1-1.1-50.3,12-49.6,54.4c0,2.2,0,4.3,0.3,6.5l0,0.1c0,0,4.5,30.8,30.5,43.3c11.3,5.5,24.3,6,36.2,2c0.2-0.1,0.4-0.2,0.7-0.2
			c25.5-8.8,42.5-33,42.5-60v-282c0-10.3,2.2-20.5,6.7-29.7C382.5,41,393.1,28.6,411.9,28.6z"/>
		<g>
			<path d="M411.9,22.6c-30.7,0-61.5,0-92.2,0c-40.5,0-81,0-121.6,0c-22.1,0-44.9,3.7-61.2,20.1c-9.5,9.6-16.8,22.8-17,36.5
				c-0.1,3.5,0,7.1,0,10.6c0,40.9,0,81.8,0,122.7c0,34.7-0.6,69.5,0,104.2c0,0.6,0,1.2,0,1.7c0,3.2,2.7,6,6,6c20.6,0,41.2,0,61.9,0
				c32.9,0,65.9,0,98.8,0c7.6,0,15.3,0,22.9,0c7.1,0,7.7-9.5,1.6-11.8c-5.4-2-14.5,2.9-19.1,5c-9.8,4.5-19,11.1-25.8,19.6
				c-14.8,18.5-15.4,42.5-5.3,63.1c6.8,13.8,18.2,25,32.8,30.2c17.6,6.2,37.5,1.7,52.5-8.9c19.7-13.9,29.8-35.9,29.8-59.7
				c0-31.2,0-62.4,0-93.6c0-44.9,0-89.7,0-134.6c0-14.2,0-28.4,0-42.7c0-17,1.7-34.8,14.4-47.6c5.9-5.9,13.2-8.8,21.6-8.9
				C419.6,34.4,419.7,22.4,411.9,22.6c-31.8,0.6-47.8,32.2-47.9,60.7c0,8.7,0,17.4,0,26.1c0,40.1,0,80.2,0,120.2
				c0,38.5,0,77,0,115.5c0,6.5,0.1,13,0,19.5c-0.1,16.1-6.7,31.4-18.6,42.4c-12.8,11.9-31.6,18-48.5,12
				c-12.9-4.6-22.1-15.7-27.2-28.1c-1.5-3.6-2.6-7.3-3.4-11.1c-0.1-0.4-0.5-2.9-0.2-1.1c0.3,2.2-0.1-1.2-0.1-1.7
				c-0.1-1.1-0.1-2.2-0.1-3.2c0-2.2,0-4.4,0.2-6.5c2.1-20.9,20.4-36.2,39.2-41.8c1.2-0.3,2.3-0.6,3.5-0.9c1.4-0.4-0.1,0.1-0.8-0.2
				c0.5-3.9,1.1-7.9,1.6-11.8c-20.6,0-41.2,0-61.9,0c-32.9,0-65.9,0-98.8,0c-7.6,0-15.3,0-22.9,0c2,2,4,4,6,6c0-28.6,0-57.2,0-85.8
				c0-43.5,0-87.1,0-130.6c0-8.8-1.2-18.5,0.3-27.2c3.5-19.7,21.4-33.2,39.7-38c7.2-1.9,14.4-2.3,21.7-2.3c37.1,0,74.2,0,111.2,0
				c35.1,0,70.2,0.6,105.2,0c0.6,0,1.2,0,1.9,0C419.6,34.6,419.7,22.6,411.9,22.6z"/>
		</g>
	</g>
</g>
<g id="Layer_4">
	<g>
		<path class="st0" d="M311.9,318.5H93c0,0-1.7,0.6-4.5,1.7c-36.8,15.6-49.9,61.6-26,93.6c6.3,8.4,22.5,14.7,33,14.7h219.4
			c0,0-55.1-8.6-55.1-58S311.9,318.5,311.9,318.5z"/>
		<g>
			<path d="M311.9,312.5c-33.3,0-66.6,0-100,0c-38.9,0-77.9,0-116.8,0c-8.5,0-17.3,5.9-23.8,10.9c-12.8,9.8-22.1,24.2-25.4,40.1
				c-3.4,16.3-0.8,33.5,7.7,47.9c8.6,14.5,25.2,22.9,41.9,23.2c33.5,0.6,67.2,0,100.7,0c38.9,0,77.7,0,116.6,0c0.7,0,1.4,0,2.1,0
				c6.5,0,8.5-10.7,1.6-11.8c-16.6-2.6-34.3-11.8-43.4-26.2c-8-12.6-9.5-29.5-4.4-43.5c4-11.1,13.2-19.1,23.8-23.6
				c4.6-2,9.5-3.3,14.4-4.2c0.8-0.2,1.7-0.3,2.5-0.4c-0.8,0.1-0.4,0,0.7-0.1c0.6-0.1,1.2-0.1,1.8-0.2
				C319.6,324.1,319.6,312.1,311.9,312.5c-20.3,1-42,11.8-51.7,30.2c-8.4,15.9-8.5,36.3-1.4,52.6c5.8,13.4,17,23.7,29.9,30.4
				c7.6,3.9,16.1,7.3,24.6,8.6c0.5-3.9,1.1-7.9,1.6-11.8c-31.6,0-63.2,0-94.8,0c-39.8,0-79.7,0-119.5,0c-5.1,0-9.9-0.1-14.9-1.6
				c-7.7-2.2-15.4-6-19.9-12.8c-4.4-6.5-7.3-13.7-8.6-21.4c-2.6-15,1.6-30.9,10.7-43c4.7-6.3,10.8-11.5,17.7-15.3
				c1.5-0.9,3.1-1.7,4.7-2.4c1.1-0.5,5.7-1.6,2.7-1.5c0.2,0,0.4,0,0.6,0c3.9,0.5,8.1,0,12,0c8,0,16,0,24,0c22.9,0,45.9,0,68.8,0
				c37.1,0,74.3,0.6,111.4,0c0.7,0,1.3,0,2,0C319.6,324.5,319.6,312.5,311.9,312.5z"/>
		</g>
	</g>
</g>
<g id="Layer_5">
	<path class="st1" d="M178.3,99"/>
	<g>
		<g>
			<path d="M307,91.5c-37.5,0-75,0-112.5,0c-5.4,0-10.8,0-16.2,0c-9.7,0-9.7,15,0,15c37.5,0,75,0,112.5,0c5.4,0,10.8,0,16.2,0
				C316.7,106.5,316.7,91.5,307,91.5L307,91.5z"/>
		</g>
	</g>
	<g>
		<g>
			<path d="M307,144.5c-37.5,0-75,0-112.5,0c-5.4,0-10.8,0-16.2,0c-9.7,0-9.7,15,0,15c37.5,0,75,0,112.5,0c5.4,0,10.8,0,16.2,0
				C316.7,159.5,316.7,144.5,307,144.5L307,144.5z"/>
		</g>
	</g>
	<g>
		<g>
			<path d="M307,200.5c-37.5,0-75,0-112.5,0c-5.4,0-10.8,0-16.2,0c-9.7,0-9.7,15,0,15c37.5,0,75,0,112.5,0c5.4,0,10.8,0,16.2,0
				C316.7,215.5,316.7,200.5,307,200.5L307,200.5z"/>
		</g>
	</g>
	<g>
		<g>
			<path d="M307,256.5c-37.5,0-75,0-112.5,0c-5.4,0-10.8,0-16.2,0c-9.7,0-9.7,15,0,15c37.5,0,75,0,112.5,0c5.4,0,10.8,0,16.2,0
				C316.7,271.5,316.7,256.5,307,256.5L307,256.5z"/>
		</g>
	</g>
	<g>
		<g>
			<path class="st0" d="M371,73.4c0-24.9,19.5-45.2,43.6-45.2c24.1,0,43.6,20.2,43.6,45.2"/>
			<g>
				<path d="M377,73.4c0.3-20.7,16.2-39.1,37.6-39.2c21.4,0,37.3,18.5,37.6,39.2c0.1,7.7,12.1,7.7,12,0
					c-0.4-27.2-21.7-51.2-49.6-51.2c-28,0-49.2,24-49.6,51.2C364.9,81.1,376.9,81.1,377,73.4L377,73.4z"/>
			</g>
		</g>
		<g>
			<line class="st0" x1="371" y1="73.4" x2="458.3" y2="73.4"/>
			<g>
				<path d="M371,79.4c25.4,0,50.9,0,76.3,0c3.6,0,7.3,0,10.9,0c7.7,0,7.7-12,0-12c-25.4,0-50.9,0-76.3,0c-3.6,0-7.3,0-10.9,0
					C363.3,67.4,363.3,79.4,371,79.4L371,79.4z"/>
			</g>
		</g>
	</g>
</g>
</svg>
