<?xml version="1.0" encoding="utf-8"?>
<!-- Generator: Adobe Illustrator 19.1.0, SVG Export Plug-In . SVG Version: 6.00 Build 0)  -->
<svg version="1.1" xmlns="http://www.w3.org/2000/svg" xmlns:xlink="http://www.w3.org/1999/xlink" x="0px" y="0px"
	 viewBox="0 0 500 500" style="enable-background:new 0 0 500 500;" xml:space="preserve">
<style type="text/css">
	.st0{fill:#F9AF77;}
	.st1{fill:#DA9762;}
	.st2{fill:#FCDD98;}
	.st3{fill:#E1B884;}
	.st4{fill:#8E3B2C;}
</style>
<g id="Layer_2">
	<rect x="118.4" y="89.8" class="st0" width="261" height="331.4"/>
</g>
<g id="Layer_3">
	<g>
		<path class="st1" d="M272.1,152.3c0,0.1,0,0.2,0,0.3h83.1C327.3,152.4,299.7,152.3,272.1,152.3z"/>
		<g>
			<path class="st1" d="M266.1,152.3c0,0.1,0,0.2,0,0.3c0.4,3.2,2.4,6,6,6c27.7,0,55.4,0,83.1,0c7.7,0,7.7-12,0-12
				c-27.7-0.2-55.4-0.3-83.1-0.3c-7.7,0-7.7,12,0,12c27.7,0,55.4,0.1,83.1,0.3c0-4,0-8,0-12c-27.7,0-55.4,0-83.1,0c2,2,4,4,6,6
				c0-0.1,0-0.2,0-0.3C277.1,144.8,265.1,144.7,266.1,152.3z"/>
		</g>
	</g>
	<g>
		<path class="st1" d="M245.4,152.3c-20.1,0-40.2,0.1-60.4,0.2c0,0,0,0,0,0h60.4C245.3,152.5,245.4,152.4,245.4,152.3z"/>
		<g>
			<path class="st1" d="M245.4,146.3c-20.1,0-40.3,0.1-60.4,0.2c-2.5,0-5.3,1.8-5.8,4.4c0,0,0,0,0,0c-0.8,3.8,1.7,7.6,5.8,7.6
				c20.1,0,40.3,0,60.4,0c3.5,0,5.6-2.8,6-6c0-0.1,0-0.2,0-0.3c0.9-7.6-11.1-7.6-12,0c0,0.1,0,0.2,0,0.3c2-2,4-4,6-6
				c-20.1,0-40.3,0-60.4,0c1.9,2.5,3.9,5.1,5.8,7.6c0,0,0,0,0,0c-1.9,1.5-3.9,2.9-5.8,4.4c20.1-0.1,40.3-0.2,60.4-0.2
				C253.1,158.3,253.1,146.3,245.4,146.3z"/>
		</g>
	</g>
	<g>
		<path class="st1" d="M158,152.4c-5.8-0.1-11.5-0.1-17,0.2h16.9C158,152.5,158,152.4,158,152.4z"/>
		<g>
			<path class="st1" d="M158,146.4c-5.7-0.1-11.3,0-17,0.2c-7.7,0.4-7.8,12,0,12c5.6,0,11.3,0,16.9,0c2.9,0,4.8-1.9,5.8-4.4
				c0-0.1,0.1-0.1,0.1-0.2c1.2-3-1.3-6.6-4.2-7.4c-3.4-0.9-6.2,1.2-7.4,4.2c0,0.1-0.1,0.1-0.1,0.2c1.9-1.5,3.9-2.9,5.8-4.4
				c-5.6,0-11.3,0-16.9,0c0,4,0,8,0,12c5.7-0.3,11.3-0.3,17-0.2C165.8,158.5,165.8,146.5,158,146.4z"/>
		</g>
	</g>
	<g>
		<path class="st1" d="M228.2,191.1C228.2,191.1,228.2,191.2,228.2,191.1l43.6,0.1c0-0.1,0-0.2,0-0.3
			C257.2,190.9,242.6,191,228.2,191.1z"/>
		<g>
			<path class="st1" d="M222.2,191.1C222.2,191.1,222.2,191.2,222.2,191.1c0.4,3.3,2.4,6.1,6,6.1c14.5,0,29,0,43.6,0
				c3.3,0,5.9-2.8,6-6c0-0.1,0-0.2,0-0.3c0.1-3.2-2.9-6-6-6c-14.5,0-29.1,0.1-43.6,0.2c-7.7,0.1-7.7,12.1,0,12
				c14.5-0.1,29.1-0.2,43.6-0.2c-2-2-4-4-6-6c0,0.1,0,0.2,0,0.3c2-2,4-4,6-6c-14.5,0-29,0-43.6,0c2,2,4,4,6,6c0,0,0,0,0-0.1
				C233.3,183.5,221.3,183.4,222.2,191.1z"/>
		</g>
	</g>
	<g>
		<path class="st1" d="M312.7,191c0,0.1,0,0.1,0.1,0.2h42.4C341.1,191.1,326.9,191,312.7,191z"/>
		<g>
			<path class="st1" d="M307,192.5c0,0.1,0,0.1,0.1,0.2c0.7,2.5,3.2,4.4,5.8,4.4c14.1,0,28.2,0,42.4,0c7.7,0,7.7-11.9,0-12
				c-14.1-0.1-28.3-0.2-42.4-0.2c-7.7,0-7.7,12,0,12c14.1,0,28.3,0.1,42.4,0.2c0-4,0-8,0-12c-14.1,0-28.2,0-42.4,0
				c1.9,1.5,3.9,2.9,5.8,4.4c0-0.1,0-0.1-0.1-0.2C316.5,181.9,304.9,185.1,307,192.5z"/>
		</g>
	</g>
	<g>
		<path class="st1" d="M141.1,191.2c20-0.4,40.5-0.4,61.4,0"/>
		<g>
			<path class="st1" d="M141.1,197.2c20.5-0.4,40.9-0.4,61.4,0c7.7,0.1,7.7-11.9,0-12c-20.5-0.4-40.9-0.4-61.4,0
				C133.4,185.3,133.3,197.3,141.1,197.2L141.1,197.2z"/>
		</g>
	</g>
	<g>
		<path class="st1" d="M303.3,230.5c17.7,0,35.3,0,53,0"/>
		<g>
			<path class="st1" d="M303.3,236.5c17.7,0,35.3,0,53,0c7.7,0,7.7-12,0-12c-17.7,0-35.3,0-53,0
				C295.6,224.5,295.6,236.5,303.3,236.5L303.3,236.5z"/>
		</g>
	</g>
	<g>
		<path class="st1" d="M210.1,230.5c23.4,0,46.8,0,70.2,0"/>
		<g>
			<path class="st1" d="M210.1,236.5c23.4,0,46.8,0,70.2,0c7.7,0,7.7-12,0-12c-23.4,0-46.8,0-70.2,0
				C202.4,224.5,202.4,236.5,210.1,236.5L210.1,236.5z"/>
		</g>
	</g>
	<g>
		<path class="st1" d="M142.2,230.5c13.2,0,26.9,0,40.8,0"/>
		<g>
			<path class="st1" d="M142.2,236.5c13.6,0,27.2,0,40.8,0c7.7,0,7.7-12,0-12c-13.6,0-27.2,0-40.8,0
				C134.5,224.5,134.5,236.5,142.2,236.5L142.2,236.5z"/>
		</g>
	</g>
	<g>
		<g>
			<path class="st1" d="M316.7,306.9h38.8c-12.9-0.1-25.8-0.2-38.8-0.2C316.7,306.8,316.7,306.9,316.7,306.9z"/>
			<g>
				<path class="st1" d="M316.7,312.9c12.9,0,25.9,0,38.8,0c7.7,0,7.7-11.9,0-12c-12.9-0.1-25.9-0.2-38.8-0.2c-3.5,0-5.6,2.8-6,6
					c0,0.1,0,0.1,0,0.2c-0.9,7.6,11.1,7.6,12,0c0-0.1,0-0.1,0-0.2c-2,2-4,4-6,6c12.9,0,25.9,0.1,38.8,0.2c0-4,0-8,0-12
					c-12.9,0-25.9,0-38.8,0C309,300.9,309,312.9,316.7,312.9z"/>
			</g>
		</g>
		<g>
			<path class="st1" d="M286.2,306.7c-24,0-47.9,0-71.5,0.2c0,0,0,0.1,0,0.1h71.5C286.2,306.8,286.2,306.7,286.2,306.7z"/>
			<g>
				<path class="st1" d="M286.2,300.7c-23.8,0-47.7,0-71.5,0.2c-3.1,0-6.1,2.7-6,6c0,0,0,0.1,0,0.1c0.1,3.2,2.6,6,6,6
					c23.8,0,47.7,0,71.5,0c3,0,6.3-2.8,6-6c0-0.1,0-0.2,0-0.3c-0.8-7.6-12.8-7.7-12,0c0,0.1,0,0.2,0,0.3c2-2,4-4,6-6
					c-23.8,0-47.7,0-71.5,0c2,2,4,4,6,6c0,0,0-0.1,0-0.1c-2,2-4,4-6,6c23.8-0.1,47.7-0.2,71.5-0.2
					C293.9,312.7,293.9,300.7,286.2,300.7z"/>
			</g>
		</g>
		<g>
			<path class="st1" d="M141.4,306.9c15.1-0.4,31-0.4,45.3,0"/>
			<g>
				<path class="st1" d="M141.4,312.9c15.1-0.4,30.2-0.4,45.3,0c7.7,0.2,7.7-11.8,0-12c-15.1-0.4-30.2-0.4-45.3,0
					C133.7,301.1,133.7,313.1,141.4,312.9L141.4,312.9z"/>
			</g>
		</g>
	</g>
	<g>
		<path class="st1" d="M296.9,345.2c-18.8,0-37.7,0-56.5,0.2c0,0,0,0.1,0,0.1h56.5C296.9,345.4,296.9,345.3,296.9,345.2z"/>
		<g>
			<path class="st1" d="M296.9,339.2c-18.8,0-37.7,0-56.5,0.2c-3.1,0-6.1,2.7-6,6c0,0,0,0.1,0,0.1c0.1,3.2,2.6,6,6,6
				c18.8,0,37.7,0,56.5,0c4.1,0,6.6-3.8,5.8-7.6c0-0.1,0-0.2-0.1-0.3c-1.6-7.6-13.1-4.4-11.6,3.2c0,0.1,0,0.2,0.1,0.3
				c1.9-2.5,3.9-5.1,5.8-7.6c-18.8,0-37.7,0-56.5,0c2,2,4,4,6,6c0,0,0-0.1,0-0.1c-2,2-4,4-6,6c18.8-0.1,37.7-0.2,56.5-0.2
				C304.6,351.2,304.6,339.2,296.9,339.2z"/>
		</g>
	</g>
	<g>
		<path class="st1" d="M319.7,345.3c0,0.1,0,0.1,0,0.2h36.3C343.9,345.4,331.8,345.3,319.7,345.3z"/>
		<g>
			<path class="st1" d="M313.9,343.7c0,0.1,0,0.1,0,0.2c-0.8,3.8,1.7,7.6,5.8,7.6c12.1,0,24.2,0,36.3,0c7.7,0,7.7-11.9,0-12
				c-12.1-0.1-24.2-0.2-36.3-0.2c-7.7,0-7.7,12,0,12c12.1,0,24.2,0.1,36.3,0.2c0-4,0-8,0-12c-12.1,0-24.2,0-36.3,0
				c1.9,2.5,3.9,5.1,5.8,7.6c0-0.1,0-0.1,0-0.2C327,339.4,315.4,336.1,313.9,343.7z"/>
		</g>
	</g>
	<g>
		<path class="st1" d="M141.8,345.5c22.7-0.4,46.5-0.4,69.1,0"/>
		<g>
			<path class="st1" d="M141.8,351.5c23-0.4,46.1-0.4,69.1,0c7.7,0.1,7.7-11.9,0-12c-23-0.4-46.1-0.4-69.1,0
				C134.1,339.6,134.1,351.6,141.8,351.5L141.8,351.5z"/>
		</g>
	</g>
	<g>
		<path class="st1" d="M298.4,269.1c19.3,0,38.6,0,57.9,0"/>
		<g>
			<path class="st1" d="M298.4,275.1c19.3,0,38.6,0,57.9,0c7.7,0,7.7-12,0-12c-19.3,0-38.6,0-57.9,0
				C290.7,263.1,290.7,275.1,298.4,275.1L298.4,275.1z"/>
		</g>
	</g>
	<g>
		<path class="st1" d="M193.3,269.1c25.3,0,50.5,0,75.8,0"/>
		<g>
			<path class="st1" d="M193.3,275.1c25.3,0,50.5,0,75.8,0c7.7,0,7.7-12,0-12c-25.3,0-50.5,0-75.8,0
				C185.6,263.1,185.6,275.1,193.3,275.1L193.3,275.1z"/>
		</g>
	</g>
	<g>
		<path class="st1" d="M142.2,269.1c8.7,0,16.6,0,25.7,0"/>
		<g>
			<path class="st1" d="M142.2,275.1c8.6,0,17.1,0,25.7,0c7.7,0,7.7-12,0-12c-8.6,0-17.1,0-25.7,0
				C134.5,263.1,134.5,275.1,142.2,275.1L142.2,275.1z"/>
		</g>
	</g>
</g>
<g id="Layer_4">
	<g>
		<rect x="103.2" y="55" class="st2" width="292.8" height="53"/>
	</g>
	<rect x="93" y="62.9" class="st3" width="10.2" height="36.7"/>
	<rect x="396" y="66.9" class="st3" width="10.2" height="36.7"/>
	<polygon class="st4" points="93,73.2 50.3,85.3 93,88.3 	"/>
	<polygon class="st4" points="407.7,78.5 450.5,90.6 407.7,93.6 	"/>
	<g>
		<rect x="102.5" y="392" class="st2" width="292.8" height="53"/>
	</g>
	<rect x="92.3" y="400.4" class="st3" width="10.2" height="36.7"/>
	<rect x="395.3" y="396.4" class="st3" width="10.2" height="36.7"/>
	<polygon class="st4" points="92.3,426.8 49.5,414.7 92.3,411.7 	"/>
	<polygon class="st4" points="407,421.5 449.7,409.4 407,406.4 	"/>
</g>
<g id="Layer_5">
</g>
</svg>
