<?xml version="1.0" encoding="utf-8"?>
<!-- Generator: Adobe Illustrator 19.1.0, SVG Export Plug-In . SVG Version: 6.00 Build 0)  -->
<svg version="1.0" xmlns="http://www.w3.org/2000/svg" xmlns:xlink="http://www.w3.org/1999/xlink" x="0px" y="0px"
	 viewBox="0 0 500 500" style="enable-background:new 0 0 500 500;" xml:space="preserve">
<style type="text/css">
	.st0{fill:#EE5725;}
	.st1{fill:#DD4D25;}
	.st2{fill:#D41625;}
	.st3{fill:#F9E7BF;}
	.st4{fill:#F1DBAE;}
	.st5{fill:#E7B98A;}
	.st6{fill:none;}
	.st7{fill:#5E6C87;}
</style>
<g id="Layer_2">
</g>
<g id="Layer_3">
</g>
<g id="Layer_4">
	<path class="st0" d="M423.8,387.4H76.2c-9.4,0-17.2-7.7-17.2-17.2V166.5c0-9.4,7.7-17.2,17.2-17.2h347.7c9.4,0,17.2,7.7,17.2,17.2
		v203.8C441,379.7,433.3,387.4,423.8,387.4z"/>
	<path class="st1" d="M440.9,370c-1.6,10.3-10.6,18.2-21.3,18.2H80.7c-11.8,0-21.5-9.7-21.5-21.5V171.5c0-9.7,6.5-17.9,15.3-20.6
		c-0.2,1.1-0.3,2.2-0.3,3.4v195.1c0,11.8,9.7,21.5,21.5,21.5h338.9C436.8,370.9,438.9,370.6,440.9,370z"/>
	<rect x="235.3" y="149.7" class="st2" width="34.5" height="237.1"/>
	<path class="st3" d="M86.6,140.3v217c0,0-4.4,7.5,20.7,8.8s303.6,0,303.6,0s9.4,2.5,9.4-14.4V140.3c0,0-94.7-58.3-158.7-3.1
		C261.6,137.2,184.5,78.2,86.6,140.3z"/>
	<path class="st4" d="M420.7,140.4v211.4c0,16.9-9.4,14.4-9.4,14.4s-74.9,0.3-150.5,0.5V136.3c0.8,0.6,1.3,0.9,1.3,0.9
		C326,82,420.7,140.4,420.7,140.4z"/>
	<path class="st5" d="M420.3,337.8c0,0,1.8,28.9-2.8,28.9c-93.5,0-245.2-0.1-328.6-0.2c-4.4,0-3.3-29-2.3-28.8
		c98.8-62.7,174.4-3.2,174.4-3.2C325.6,278.6,420.3,337.8,420.3,337.8z"/>
	<polyline class="st6" points="441,366.1 419.7,366.1 86,366.1 75.3,366.1 	"/>
	<path class="st7" d="M216.3,116.8v80l15.6-12.5l13.8,17.8v-74.2C245.7,127.8,229.8,119.6,216.3,116.8z"/>
	<g>
		<g>
			<path class="st7" d="M111.1,184.1c25.5-9.3,55.2-12.7,81.9-7.7c3.1,0.6,4.5-4.2,1.3-4.8c-27.5-5.1-58.2-1.9-84.5,7.7
				C106.8,180.4,108.1,185.2,111.1,184.1L111.1,184.1z"/>
		</g>
	</g>
	<g>
		<g>
			<path class="st7" d="M109.1,164.6c25.5-9.3,55.2-12.7,81.9-7.7c3.1,0.6,4.5-4.2,1.3-4.8c-27.5-5.1-58.2-1.9-84.5,7.7
				C104.8,160.9,106.1,165.7,109.1,164.6L109.1,164.6z"/>
		</g>
	</g>
	<g>
		<g>
			<path class="st7" d="M111.7,233.7c7.5-3.7,15.9-5.9,24.1-7.5c20.3-4.1,41.3-3.1,61.2,2.4c3.1,0.9,4.4-4,1.3-4.8
				c-28.2-7.7-62.3-7.7-89.1,5.6C106.3,230.8,108.8,235.2,111.7,233.7L111.7,233.7z"/>
		</g>
	</g>
	<g>
		<g>
			<path class="st7" d="M111,209.4c7.5-3.7,15.9-5.9,24.1-7.5c20.3-4.1,41.3-3.1,61.2,2.4c3.1,0.9,4.4-4,1.3-4.8
				c-28.2-7.7-62.3-7.7-89.1,5.6C105.6,206.5,108.1,210.8,111,209.4L111,209.4z"/>
		</g>
	</g>
	<g>
		<g>
			<path class="st7" d="M111.7,259.2c7.5-3.7,15.9-5.9,24.1-7.5c20.3-4.1,41.3-3.1,61.2,2.4c3.1,0.9,4.4-4,1.3-4.8
				c-28.2-7.7-62.3-7.7-89.1,5.6C106.3,256.4,108.8,260.7,111.7,259.2L111.7,259.2z"/>
		</g>
	</g>
	<g>
		<g>
			<path class="st7" d="M116.3,282.4c7.5-3.7,15.9-5.9,24.1-7.5c20.3-4.1,41.3-3.1,61.2,2.4c3.1,0.9,4.4-4,1.3-4.8
				c-28.2-7.7-62.3-7.7-89.1,5.6C110.9,279.5,113.4,283.9,116.3,282.4L116.3,282.4z"/>
		</g>
	</g>
	<g>
		<g>
			<path class="st7" d="M116.3,307.2c7.5-3.7,15.9-5.9,24.1-7.5c20.3-4.1,41.3-3.1,61.2,2.4c3.1,0.9,4.4-4,1.3-4.8
				c-28.2-7.7-62.3-7.7-89.1,5.6C110.9,304.3,113.4,308.6,116.3,307.2L116.3,307.2z"/>
		</g>
	</g>
	<g>
		<g>
			<path class="st7" d="M292.2,307.2c7.5-3.7,15.9-5.9,24.1-7.5c20.3-4.1,41.3-3.1,61.2,2.4c3.1,0.9,4.4-4,1.3-4.8
				c-28.2-7.7-62.3-7.7-89.1,5.6C286.8,304.3,289.4,308.6,292.2,307.2L292.2,307.2z"/>
		</g>
	</g>
	<g>
		<g>
			<path class="st7" d="M292.2,282.4c7.5-3.7,15.9-5.9,24.1-7.5c20.3-4.1,41.3-3.1,61.2,2.4c3.1,0.9,4.4-4,1.3-4.8
				c-28.2-7.7-62.3-7.7-89.1,5.6C286.8,279.5,289.4,283.9,292.2,282.4L292.2,282.4z"/>
		</g>
	</g>
	<g>
		<g>
			<path class="st7" d="M292.2,228.6c7.5-3.7,15.9-5.9,24.1-7.5c20.3-4.1,41.3-3.1,61.2,2.4c3.1,0.9,4.4-4,1.3-4.8
				c-28.2-7.7-62.3-7.7-89.1,5.6C286.8,225.7,289.4,230,292.2,228.6L292.2,228.6z"/>
		</g>
	</g>
	<g>
		<g>
			<path class="st7" d="M292.2,254.1c7.5-3.7,15.9-5.9,24.1-7.5c20.3-4.1,41.3-3.1,61.2,2.4c3.1,0.9,4.4-4,1.3-4.8
				c-28.2-7.7-62.3-7.7-89.1,5.6C286.8,251.2,289.4,255.5,292.2,254.1L292.2,254.1z"/>
		</g>
	</g>
	<g>
		<g>
			<path class="st7" d="M292.2,203.8c7.5-3.7,15.9-5.9,24.1-7.5c20.3-4.1,41.3-3.1,61.2,2.4c3.1,0.9,4.4-4,1.3-4.8
				c-28.2-7.7-62.3-7.7-89.1,5.6C286.8,200.9,289.4,205.2,292.2,203.8L292.2,203.8z"/>
		</g>
	</g>
	<g>
		<g>
			<path class="st7" d="M292.2,179c7.5-3.7,15.9-5.9,24.1-7.5c20.3-4.1,41.3-3.1,61.2,2.4c3.1,0.9,4.4-4,1.3-4.8
				c-28.2-7.7-62.3-7.7-89.1,5.6C286.8,176.2,289.4,180.5,292.2,179L292.2,179z"/>
		</g>
	</g>
	<g>
		<g>
			<path class="st7" d="M292.2,156.6c7.5-3.7,15.9-5.9,24.1-7.5c20.3-4.1,41.3-3.1,61.2,2.4c3.1,0.9,4.4-4,1.3-4.8
				c-28.2-7.7-62.3-7.7-89.1,5.6C286.8,153.8,289.4,158.1,292.2,156.6L292.2,156.6z"/>
		</g>
	</g>
</g>
<g id="Layer_5">
</g>
<g id="Layer_6">
</g>
</svg>
