<?xml version="1.0" encoding="utf-8"?>
<!-- Generator: Adobe Illustrator 19.1.0, SVG Export Plug-In . SVG Version: 6.00 Build 0)  -->
<svg version="1.1" xmlns="http://www.w3.org/2000/svg" xmlns:xlink="http://www.w3.org/1999/xlink" x="0px" y="0px"
	 viewBox="0 0 500 500" style="enable-background:new 0 0 500 500;" xml:space="preserve">
<style type="text/css">
	.st0{fill:#FFFFFF;}
	.st1{fill:#AFABD5;}
	.st2{fill:#FCDABC;}
	.st3{fill:#67BA8D;}
</style>
<g id="Layer_2">
</g>
<g id="Layer_3">
</g>
<g id="Layer_4">
</g>
<g id="Layer_5">
	<circle class="st0" cx="250" cy="250" r="243.5"/>
	<g>
		<path class="st1" d="M391.4,127.4H145.6c-6.3,0-11.5-5.2-11.5-11.5v-11.1c0-6.3,5.2-11.5,11.5-11.5h245.8
			c6.3,0,11.5,5.2,11.5,11.5v11.1C402.9,122.2,397.7,127.4,391.4,127.4z"/>
		<g>
			<path d="M391.4,124.9c-31.9,0-63.8,0-95.6,0c-45.1,0-90.3,0-135.4,0c-4.5,0-8.9,0.1-13.4,0c-2.8-0.1-5.5-0.5-7.7-2.6
				c-3.9-3.9-2.9-12-2.6-17.2c0.4-8.5,7.2-9.3,13.6-9.3c6,0,12,0,18,0c47,0,94.1,0,141.1,0c20.6,0,41.3,0,61.9,0
				c5.6,0,11.2,0,16.8,0c1.1,0,2.1-0.1,3.2,0c7.2,0.4,9.2,6,9.2,12.2C400.4,115,401.2,124.3,391.4,124.9c-3.2,0.2-3.2,5.2,0,5
				c7.9-0.5,13.7-6.1,14-14.1c0.2-5,0.8-11.4-1-16.1c-2.9-7.3-9.7-8.9-16.6-8.9c-16.2,0-32.3,0-48.5,0c-51.6,0-103.2,0-154.8,0
				c-12.8,0-25.6-0.3-38.4,0c-4.4,0.1-8.4,1.6-11.3,5.1c-4.1,4.9-3.3,11.3-3.3,17.3c0,9.6,5.3,16.6,15.3,16.7
				c39.7,0.4,79.4,0,119.1,0c41.1,0,82.1,0,123.2,0c0.7,0,1.5,0,2.2,0C394.6,129.9,394.6,124.9,391.4,124.9z"/>
		</g>
	</g>
	<g>
		<g>
			<path d="M261,92.6c0.1,0.9-0.1-1.1-0.1-1.5c0-1.2,0-2.5,0.2-3.8c0.5-3.6,2.3-6.9,5.9-8.1c8.1-2.7,10.4,8.1,10.6,14
				c0.1,3.2,5.1,3.2,5,0c-0.2-9.1-4.7-21.7-16-19.1c-8.9,2.1-11.5,11.7-10.3,19.7C256.6,97.1,261.4,95.8,261,92.6L261,92.6z"/>
		</g>
	</g>
	<g>
		<path class="st0" d="M150.3,295.5h229.8c4.8,0,8.8-3.9,8.8-8.8V127.9c0-0.3-0.2-0.5-0.5-0.5H142c-0.3,0-0.5,0.2-0.5,0.5v158.9
			C141.5,291.5,145.4,295.5,150.3,295.5z"/>
		<g>
			<path d="M150.3,298c21.7,0,43.3,0,65,0c38.7,0,77.4,0,116,0c13.1,0,26.3,0,39.4,0c8.7,0,20,0.8,20.6-11.3c0.5-8.8,0-17.7,0-26.5
				c0-18.6,0-37.3,0-55.9c0-18.1,0-36.2,0-54.4c0-5.7,0-11.4,0-17c0-2.3,0.8-6.4-1.7-7.7c-1.4-0.7-3.8-0.3-5.3-0.3
				c-4.2,0-8.3,0-12.5,0c-14.5,0-29,0-43.5,0c-38.8,0-77.6,0-116.4,0c-15.7,0-31.4,0-47.1,0c-7.2,0-15.2-1-22.4,0
				c-2.9,0.4-3.4,2.2-3.4,4.7c-0.1,4.4,0,8.7,0,13.1c0,16.8,0,33.5,0,50.3c0,30.8-0.5,61.7,0,92.6
				C139.1,292.3,143.1,297.4,150.3,298c3.2,0.2,3.2-4.8,0-5c-6.6-0.5-6.3-6.2-6.3-10.9c0-5.2,0-10.4,0-15.6c0-17.4,0-34.8,0-52.1
				c0-18.4,0-36.8,0-55.1c0-6.7,0-13.3,0-20c0-2.3,0-4.6,0-6.8c0-0.8,0.4-3,0-3.7c-0.8-1.5-1.5,1.5-1.8,1.3c0.3,0.2,1.8,0,2.1,0
				c3.3,0,6.7,0,10,0c13.1,0,26.2,0,39.3,0c37.3,0,74.6,0,111.9,0c26.4,0,52.8,0,79.2,0c0.7,0,2.4,0.3,3,0c0.1-0.1,0.5,0.1,0.6,0
				c0.4-0.4-2-1.8-1.9-1.9c-0.9,0.8,0,7,0,8.1c0,14.6,0,29.2,0,43.8c0,33.2,0,66.5,0,99.7c0,2.3,0.2,4.8,0,7.1
				c-0.6,5.7-4.9,6.3-9.3,6.3c-9.9,0-19.8,0-29.7,0c-36.1,0-72.3,0-108.4,0c-28.1,0-56.1,0-84.2,0c-1.5,0-3,0-4.4,0
				C147,293,147,298,150.3,298z"/>
		</g>
	</g>
	<g>
		<g>
			<path d="M262.2,275.2c-22.5,0-44.9,0-67.4,0c-3.2,0-3.2,5,0,5c22.5,0,44.9,0,67.4,0C265.4,280.2,265.4,275.2,262.2,275.2
				L262.2,275.2z"/>
		</g>
	</g>
	<g>
		<g>
			<path d="M350.3,275.2c-24.2,0-48.4,0-72.5,0c-3.2,0-3.2,5,0,5c24.2,0,48.4,0,72.5,0C353.5,280.2,353.5,275.2,350.3,275.2
				L350.3,275.2z"/>
		</g>
	</g>
	<g>
		<g>
			<path d="M367.1,154.8c0,38.2,0,76.5,0,114.7c0,3.2,5,3.2,5,0c0-38.2,0-76.5,0-114.7C372.1,151.6,367.1,151.6,367.1,154.8
				L367.1,154.8z"/>
		</g>
	</g>
	<g>
		<g>
			<path d="M350.5,143.3c-10.9,0-21.8,0-32.6,0c-3.2,0-3.2,5,0,5c10.9,0,21.8,0,32.6,0C353.7,148.3,353.7,143.3,350.5,143.3
				L350.5,143.3z"/>
		</g>
	</g>
	<g>
		<g>
			<path d="M277.4,144.1c-14.1,0-28.2,0-42.3,0c-3.2,0-3.2,5,0,5c14.1,0,28.2,0,42.3,0C280.6,149.1,280.6,144.1,277.4,144.1
				L277.4,144.1z"/>
		</g>
	</g>
	<g>
		<g>
			<path d="M275.1,334.7c0-13.1,0-26.2,0-39.2c0-2.5-3.4-3.4-4.7-1.3c-12.5,20.7-25,41.5-37.5,62.2c-1.7,2.8,2.7,5.3,4.3,2.5
				c12.5-20.7,25-41.5,37.5-62.2c-1.6-0.4-3.1-0.8-4.7-1.3c0,13.1,0,26.2,0,39.2C270.1,337.9,275.1,337.9,275.1,334.7L275.1,334.7z"
				/>
		</g>
	</g>
	<g>
		<g>
			<path d="M271.9,297.3c12.5,20.7,25,41.5,37.5,62.2c1.7,2.8,6,0.2,4.3-2.5c-12.5-20.7-25-41.5-37.5-62.2
				C274.6,292,270.2,294.5,271.9,297.3L271.9,297.3z"/>
		</g>
	</g>
	<g>
		<circle class="st2" cx="148.2" cy="152.5" r="25.4"/>
		<g>
			<path d="M171.1,152.5c-0.3,12.5-10.2,22.9-22.9,22.9c-12.5,0-22.9-10.4-22.9-22.9c-0.1-12.5,10.5-22.9,22.9-22.9
				C160.9,129.6,170.8,140,171.1,152.5c0.1,3.2,5.1,3.2,5,0c-0.3-11.5-7.1-21.9-18-26.1c-11-4.2-23.9-0.8-31.4,8.3
				c-16.2,19.6,1.2,49.6,26.3,45.3c13.5-2.3,22.8-14.1,23.1-27.5C176.2,149.3,171.2,149.3,171.1,152.5z"/>
		</g>
	</g>
	<g>
		<path class="st3" d="M153.8,296.7c-1.5-0.8-3.2-1.2-4.9-1.2c-2.2,0-4.2,0.6-5.9,1.7c0,0-0.1,0.1-0.1,0.1v88.8
			c0,11.5-12.9,13.1-13.1,13.1c0,0,0,0,0,0c-11.5,0-13.1-12.9-13.1-13.1c0,0,0,0,0,0V226.6V302c0,0.1-0.1,0.1-0.1,0.1
			c-14.9-0.1-14.4-14.4-14.4-14.4v-56.4c0-12.6,5.5-24.7,15.2-32.8c35.7-29.7,83.4,4,97.8,15.7c3,2.4,6.7,3.7,10.5,3.7h22.9
			c5.5,0,7.9,3.6,9,6.4c0.9,2.3,1,4.8,0.2,7.1c-0.2,0.6-0.4,1.1-0.7,1.6c-2.3,4.5-7.2,7.2-12.3,7.1l-29.6-0.3c-3.7,0-7.2-1.1-10.3-3
			l-24.7-15.4c-0.1-0.1-0.2,0-0.2,0.1v83.2v81.2c0,3.6-1.5,6.9-3.8,9.2c-2.3,2.3-5.5,3.8-9,3.8c-7.3,0.1-13.3-6.4-13.3-13.7l0-80.6
			V296.7"/>
		<g>
			<path d="M155.1,294.5c-4.2-1.8-13.6-3-14.6,3.2c-0.5,2.7,0,5.9,0,8.7c0,12.3,0,24.6,0,36.8c0,12,0,24,0,35.9c0,2.3,0.1,4.6,0,6.9
				c-0.3,6-5.1,10.2-11,10.7c-6.8,0.6-10.2-7.8-10.2-13.5c0-7.6,0-15.2,0-22.8c0-26.2,0-52.4,0-78.6c0-18.4,0-36.8,0-55.2
				c0-3.2-5-3.2-5,0c0,23.1,0,46.2,0,69.3c0,1.6-0.2,3.3,0,4.8c0,0.2-0.1,1,0,1.2c0,0,0,0.1,0,0.1c0,0.9,0.3,0.1,1-2.4
				c0,0-4.6-1.1-5.1-1.4c-3.9-2.1-5.3-6.4-5.4-10.6c-0.4-11.5,0-23,0-34.5c0-13.1-1.8-28,4.3-40c11.4-22.6,38.5-27.5,60.9-21
				c9.4,2.8,18.4,7.1,26.8,12.1c6.5,4,12.3,9,18.6,13.1c5.9,3.8,12.8,3.1,19.5,3.1c5.1,0,16.1-1.9,19.5,2.8
				c5.2,7.2-2.5,14.3-9.6,14.5c-2.5,0.1-5,0-7.5-0.1c-7.1-0.1-14.2,0-21.3-0.2c-7-0.2-12.2-4.2-17.9-7.8c-5.5-3.4-11-6.9-16.5-10.3
				c-0.8-0.5-1.8-0.4-2.5,0c-0.1,0-0.1,0.1-0.2,0.1c-0.8,0.4-1.2,1.3-1.2,2.2c0,32.1,0,64.2,0,96.3c0,21.9,0,43.7,0,65.6
				c0,4.9-1,9.7-6,12.1c-8.1,4-15-3.4-15.2-11.1c-0.2-8.5,0-17.1,0-25.7c0-20.7,0-41.5,0-62.2c0-3.2-5-3.2-5,0c0,19.3,0,38.6,0,57.9
				c0,9.8-0.1,19.6,0,29.3c0,4.8,1.2,9.4,4.6,13c5.6,5.7,14.7,6.4,20.9,1.2c7.2-6.1,5.6-16.2,5.6-24.6c0-12.9,0-25.9,0-38.8
				c0-14.4,0-28.9,0-43.3c0-23.2,0-46.4,0-69.6c-0.4,0.7-0.8,1.4-1.2,2.2c0.1,0,0.1-0.1,0.2-0.1c-0.8,0-1.7,0-2.5,0
				c5.4,3.3,10.7,6.7,16.1,10c6.5,4,12.3,8.4,20.2,8.7c6.1,0.3,12.2,0.1,18.3,0.2c6.4,0.1,14.1,1.2,19.8-2.1c8.7-5,10.7-19,0.8-24
				c-5.6-2.8-14.7-1.2-20.7-1.2c-2.5,0-5.1,0.1-7.6,0c-5.8-0.2-9.6-3.7-14-7c-7.6-5.7-15.7-10.7-24.3-14.8
				c-20.4-9.7-44.8-14.2-65.1-1.7c-11,6.8-19.1,17.4-21.7,30.2c-1.1,5.5-0.9,11.1-0.9,16.8c0,15.2,0,30.3,0,45.5
				c0,3.1-0.1,6.1,0.9,9.2c1,3.1,2.8,6,5.5,7.9c2.5,1.8,9.2,4.8,12.1,2.6c2.1-1.6,1.1-6.9,1.1-9.1c0-7.3,0-14.5,0-21.8
				c0-14.6,0-29.2,0-43.8c0-0.9,0-1.8,0-2.7c0-3.2-5-3.2-5,0c0,43,0,86.1,0,129.1c0,8.6,0,17.3,0,25.9c0,5.3,0.5,9.9,3.9,14.3
				c7.3,9.5,23.5,6,26.7-5.6c1.9-6.9,0.6-15.5,0.6-22.4c0-15.2,0-30.3,0-45.5c0-6.1,0-12.1,0-18.2c0-1.7-0.3-3.8,0-5.4
				c0.1-0.4-0.2-0.9,0-1.3c0-0.1,0-0.2,0-0.2c-0.4,0.6,6.9,1.4,7.1,1.5C155.5,300.1,158.1,295.8,155.1,294.5L155.1,294.5z"/>
		</g>
	</g>
</g>
<g id="Layer_6">
</g>
<g id="Layer_7">
</g>
</svg>
