<?xml version="1.0" encoding="utf-8"?>
<!-- Generator: Adobe Illustrator 19.1.0, SVG Export Plug-In . SVG Version: 6.00 Build 0)  -->
<svg version="1.0" id="Layer_2" xmlns="http://www.w3.org/2000/svg" xmlns:xlink="http://www.w3.org/1999/xlink" x="0px" y="0px"
	 viewBox="0 0 257.5 148.5" style="enable-background:new 0 0 257.5 148.5;" xml:space="preserve">
<style type="text/css">
	.st0{fill:#28A025;stroke:#000000;stroke-miterlimit:10;}
	.st1{stroke:#000000;stroke-width:2;}
	.st2{fill:#E84949;stroke:#000000;stroke-width:0.5;stroke-miterlimit:10;}
	.st3{fill:none;stroke:#000000;stroke-miterlimit:10;}
	.st4{fill:none;stroke:#000000;stroke-width:0.75;stroke-miterlimit:10;}
</style>
<rect x="85.5" y="29.2" class="st0" width="23.8" height="17.5"/>
<rect x="109.3" y="29.9" class="st0" width="23.8" height="17.5"/>
<rect x="133" y="29.4" class="st0" width="23.8" height="17.5"/>
<rect x="157" y="29.2" class="st0" width="23.8" height="17.5"/>
<rect x="180.5" y="29.7" class="st0" width="23.8" height="17.5"/>
<line class="st1" x1="60" y1="46.9" x2="207.5" y2="46.9"/>
<ellipse class="st2" cx="97.4" cy="37.4" rx="1.9" ry="2"/>
<rect x="62.4" y="29.4" class="st0" width="23.8" height="17.5"/>
<ellipse class="st2" cx="74.3" cy="37.7" rx="1.9" ry="2"/>
<ellipse class="st2" cx="121.4" cy="37.8" rx="1.9" ry="2"/>
<ellipse class="st2" cx="144.2" cy="37.9" rx="1.9" ry="2"/>
<ellipse class="st2" cx="167.2" cy="37.6" rx="1.9" ry="2"/>
<ellipse class="st2" cx="192.2" cy="37.6" rx="1.9" ry="2"/>
<rect x="14" y="116.9" class="st0" width="23.8" height="17.5"/>
<rect x="38" y="116.7" class="st0" width="23.8" height="17.5"/>
<rect x="61.5" y="117.2" class="st0" width="23.8" height="17.5"/>
<line class="st1" x1="8.3" y1="116.9" x2="88.5" y2="116.9"/>
<line class="st1" x1="8.3" y1="134.4" x2="88.5" y2="134.4"/>
<ellipse class="st2" cx="25.2" cy="125.4" rx="1.9" ry="2"/>
<ellipse class="st2" cx="48.2" cy="125.1" rx="1.9" ry="2"/>
<ellipse class="st2" cx="73.2" cy="125.1" rx="1.9" ry="2"/>
<rect x="177.5" y="115.8" class="st0" width="23.8" height="17.5"/>
<rect x="201.5" y="115.5" class="st0" width="23.8" height="17.5"/>
<rect x="225" y="116" class="st0" width="23.8" height="17.5"/>
<line class="st1" x1="171.8" y1="115.8" x2="252" y2="115.8"/>
<line class="st1" x1="171.8" y1="133.3" x2="252" y2="133.3"/>
<ellipse class="st2" cx="188.7" cy="124.3" rx="1.9" ry="2"/>
<ellipse class="st2" cx="211.7" cy="123.9" rx="1.9" ry="2"/>
<ellipse class="st2" cx="236.7" cy="123.9" rx="1.9" ry="2"/>
<line class="st0" x1="132.7" y1="9.6" x2="132.7" y2="64.4"/>
<polyline class="st3" points="129.1,13.1 132.6,9.6 136,13 "/>
<polyline class="st4" points="218,100.6 217.9,108.9 212,108.5 "/>
<polyline class="st3" points="136.3,62.1 132.8,65.6 129.4,62.2 "/>
<line class="st0" x1="182.4" y1="53.2" x2="217.3" y2="108.3"/>
<polyline class="st4" points="55.4,108.1 47.7,110.7 45.9,103.1 "/>
<line class="st0" x1="90.1" y1="53.8" x2="48.3" y2="110.3"/>
<line class="st1" x1="60" y1="29.4" x2="207.5" y2="29.4"/>
</svg>
