<?xml version="1.0" encoding="utf-8"?>
<!-- Generator: Adobe Illustrator 19.1.0, SVG Export Plug-In . SVG Version: 6.00 Build 0)  -->
<svg version="1.0" id="Layer_2" xmlns="http://www.w3.org/2000/svg" xmlns:xlink="http://www.w3.org/1999/xlink" x="0px" y="0px"
	 viewBox="0 0 472.5 555" style="enable-background:new 0 0 472.5 555;" xml:space="preserve">
<style type="text/css">
	.st0{fill:none;stroke:#000000;stroke-width:4;stroke-miterlimit:10;}
	.st1{fill:#B3D15D;stroke:#000000;stroke-width:4;stroke-miterlimit:10;}
	.st2{fill:#D01144;}
	.st3{fill:#FFFFFF;}
	.st4{fill:#D3E38D;stroke:#000000;stroke-width:2;stroke-miterlimit:10;}
</style>
<path class="st0" d="M182.9,42.9c0,0-28,94-18,158s-7,132-7,132c3-32-16-75-16-75s-23-54-20-109s-13-105-13-105"/>
<path class="st0" d="M353.5,46.2c0,0-28,94-18,158s-7,132-7,132c3-32-16-75-16-75s-23-54-20-109s-13-105-13-105"/>
<path class="st1" d="M346.5,339.2c-9.4-7.1-22.6-6.2-30.8,2.3c-27.9,29.1-83.6,98.9-20.3,140.7C375.7,535.1,432.7,404.5,346.5,339.2
	z"/>
<circle class="st2" cx="331.2" cy="428.5" r="19.8"/>
<circle class="st3" cx="330.2" cy="427.5" r="4.8"/>
<path class="st4" d="M297,366.7c0,0,34,43,75.5-1c0,0-12.3-15.8-28.3-27.5c-7.7-5.6-18.4-4.7-25,2.1
	C309.9,349.7,297.9,362.5,297,366.7z"/>
<path class="st1" d="M174,336.7c-9.4-7.1-22.6-6.2-30.8,2.3C115.3,368.1,59.6,438,123,479.7C203.2,532.6,260.2,402,174,336.7z"/>
<circle class="st2" cx="158.7" cy="426" r="19.8"/>
<circle class="st3" cx="157.7" cy="425" r="4.8"/>
<path class="st4" d="M124.5,364.2c0,0,34,43,75.5-1c0,0-12.3-15.8-28.3-27.5c-7.7-5.6-18.4-4.7-25,2.1
	C137.4,347.2,125.4,360,124.5,364.2z"/>
</svg>
