<?xml version="1.0" encoding="utf-8"?>
<!-- Generator: Adobe Illustrator 19.1.0, SVG Export Plug-In . SVG Version: 6.00 Build 0)  -->
<svg version="1.0" id="Layer_1" xmlns="http://www.w3.org/2000/svg" xmlns:xlink="http://www.w3.org/1999/xlink" x="0px" y="0px"
	 viewBox="0 0 520 492" style="enable-background:new 0 0 520 492;" xml:space="preserve">
<style type="text/css">
	.st0{fill:#844E8A;}
	.st1{fill:#B989BD;}
</style>
<path class="st0" d="M401,90c1.4-0.6,1.9,0.7,2.8,1.3c0.3,0.3,0.6,0.7,0.8,1c0.2,0.2,0.3,0.4,0.4,0.7c-0.1,6.8-0.1,13.5-0.2,20.3
	c0,0.9-0.3,2.2,0.9,2.4c0.6,0.1,1.5-0.6,2-1.1c3.1-2.9,6.2-5.9,9.3-8.8c0.8,1,1.6,2,2.5,3c-10.4,9.8-20.8,19.6-31.2,29.4
	c-16.3,15.4-33.2,30.1-50.6,44.2c-21.4,17.3-43.3,34-66.5,49c-26.7,17.3-54.4,32.7-84.8,42.8c-8.7,2.9-8.7,2.8-6,11.4
	c0.2,0.8,0.2,1.6,0.3,2.4c-9.6,1.1-19.3,2.1-28.9,3.2c-0.1-4.1-2.5-7.8-2-12c7.6-1,15.2-2.1,22.8-3c2.1-0.2,3.6-0.5,3.3-3
	c4.8-2.7,10.7-2.4,15.7-5.7c-3.6-2.2-6.9-4.1-10-6.2c-3.8-2.5-7.1-5.9-11.7-7.2c0,0,0,0,0,0c-0.2-0.3-0.4-0.7-0.6-1
	c-1.3-2.5-2.3-5-2.4-7.9c8.7,6.6,17.2,13.6,27,18.6c1.8,0.9,3.6,2.1,5.7,1.3c5.7-2.4,11.4-4.9,17.8-7.7c-1.9-1.4-3-2.4-4.3-3.1
	c-10.2-5.9-19.9-12.7-29.3-19.7c-8.2-6.1-16.4-12.4-24.6-18.6c-1.1-2.2-1.5-4.5-1.6-6.9c0.7,0.4,1.5,0.8,2.1,1.3
	c17.2,13.6,34.3,27.3,52.9,38.9c7.1,4.4,13,5.8,19.8,0.6c1.1-0.9,3.3-0.9,3-2.8c-0.2-1.4-2-1.6-3.1-2.2
	c-23.8-11.3-43.1-28.4-61.4-46.9c-5.9-6-10.8-13-17.7-18c-0.3-1.9-0.7-3.9-1-5.8c1.1-2.4,2.1-1.1,3.1,0.1c10.4,13,22.1,24.9,34.5,36
	c14.1,12.7,29.1,24.3,46.8,31.8c5.8,2.4,8.7,1.8,13.9-3.5c-0.7-0.4-1.4-0.9-2.1-1.2c-16.2-7.8-30-18.8-43-31.2
	c-18.5-17.6-34.2-37.6-49.2-58.2c0.5-1.7,0.4-3.5,1.6-4.9c7.1,9.8,14,19.7,22.4,29.2c0.8-2.5,0.5-4.2,0.3-5.8
	c-1-6.4-0.5-12.9-0.2-19.4c0.6-11.4,0.8-22.9,1.1-34.3c1.4-1.9,3.3-2.7,5.5-3.1c-2.1,5.1-0.8,10.5-1.3,15.8
	c-1.6,17-1.5,34.1-0.8,51.2c0,0.8,0.1,1.8,0.6,2.3c4.7,4.7,8.3,10.6,14.4,15.1c0-2.2,0-3.7,0-5.1c-0.4-20.1,0.4-40.1,2.9-60.1
	c1.1-8.9,2-17.8,3.1-26.6c1.3-0.9,2.7-1.1,4.2-1.2c-0.1,1.5,0,3-0.2,4.5c-3.8,28.2-6.6,56.4-5.9,84.8c0.2,8.9,9.6,21.3,18.6,24.2
	c-1.5-9.4-1.8-18.9-1.7-28.3c0.1-17.4,0-34.9,1.9-52.3c1.4-13.2,2.1-26.4,3.2-39.7c1-0.7,2-1.3,3-2c2.7,0.3,1.9,2.3,1.7,3.8
	c-3,20.7-4.4,41.5-5.5,62.3c-0.9,16.7-0.9,33.6,0.7,50.3c1,10.3,5,15.8,13.2,17.5c-1.5-4.2-1.1-8.3-1.3-12.5
	c-0.8-25.4,1.1-50.8,3.2-76.1c0.9-10.7,2.7-21.4,3.6-32.1c0.7-7.2,2.2-14.4,1.9-21.7c1.5-1.4,3.1-2.6,5.3-2.6
	c-2,10.4-2.9,21-3.9,31.5c-1.6,15.5-3.1,31-4.3,46.5c-1.5,19.1-2.1,38.1-1.6,57.3c0.2,7.4,0.3,14.8,10,18.1c5.7,1.9,7.8-2,11.5-3.3
	c3.9-1.4,4.9-4.3,4.3-8.3c-3.6-23.7-4-47.6-4.7-71.4c-0.7-22.9-0.2-45.9-0.3-68.9c0-2-0.3-4-0.4-6c1.2-1.2,2.8-1.7,4.5-2
	c-0.1,36.9-0.2,73.9,1.8,110.8c0.7,12.3,1.6,24.5,3.1,36.7c0.4,2.9,1.1,3,3.3,1.5c5.6-3.9,11.1-7.9,16.9-11.5c3.1-2,4.1-4,2.6-7.7
	c-5.5-13.9-6.8-28.7-7.5-43.5c-0.7-15.7-0.2-31.5-0.2-47.3c0-15.6,1.7-31.1,2.8-46.7c0,0,0.1,0,0.1,0c0.4-0.2,0.8-0.4,1.2-0.6
	c1-0.2,2-0.4,3-0.6c-1,14.1-2.7,28.1-2.9,42.2c-0.4,23.7-1.5,47.5,1.8,71.2c1.2,8.4,2.7,16.7,5.6,24.7c0.8,2.2,1.4,2.7,3.4,1.1
	c3.9-3.1,7.9-6,11.9-8.9c1.3-1,2.1-2,2.1-3.7c-0.1-6.5,1.1-12.9,1.1-19.4c-0.3-19.3-2.5-38.3-4.8-57.4c-2.1-17.4-5.1-34.7-8.1-52
	c1.6-0.2,2.9-1.7,4.8-1c0.1,1.8,0,3.7,0.3,5.5c2.7,15.2,5,30.4,7.1,45.6c3.4,25.3,5.9,50.6,4.3,76.7c5.5-2.9,9.6-6.1,10.4-12.5
	c1.7-14.1,1.7-28.2-0.1-42.2c-3.3-25.2-9.1-49.9-16.7-74.1c1.5-0.5,3.1-1.1,4.7-0.8c3,11.7,6.1,23.4,8.9,35.2
	c5.1,21.5,8.8,43.2,8.4,65.4c-0.1,5.7-0.5,11.4-1.3,17.4c6.9-3.3,10-7.7,9.3-15.1c-0.8-8.4-0.1-16.9-1-25.4
	c-1.7-16.6-4-33.2-6.9-49.7c-1.7-9.8-4.6-19.4-5.3-29.3c1.3,0,2.7,0,4,0c0.4,6.5,2.3,12.7,3.5,19c5.5,27.8,10.2,55.7,9.5,84.3
	c0,1,0,2,0,3c0.1,1,0.5,1.5,1.6,1.3c3-0.6,8.1-7,8.3-10.2c0.2-4.5-0.7-8.9-0.8-13.4c-0.4-15-2.9-29.7-5.9-44.3
	c-2.7-13.3-6.2-26.4-9.3-39.7c0.3,0,0.7,0,1,0c1,1.4,2.5,0.9,3.8,1.1c0,0,0.1,0,0.1,0c0.3,1.5,0.4,3,0.8,4.4
	c6.4,25.1,12,50.3,13.6,76.3c0.3,4.8,0,9.7,1.1,14.6c4.5-2.3,6.1-6,6.5-10.3c0.5-6,1-11.9,1-17.9c0-21.5-2.9-42.7-6.4-63.8
	c1.6,0.3,3.1,0.7,4.4,1.7c2,14.9,4.4,29.8,5.3,44.9c0.6,10.6,1.2,21.2-0.1,31.8c-0.1,1.1-0.8,4.1,1.7,2.6c4.1-2.4,8.7-5.3,9.8-10.1
	c1.5-6.4,2.4-13.2,2-19.7c-0.6-11.2-2-22.4-4.3-33.5c-0.5-2.5-2.6-5.2-0.5-8c1.6,1,3.6,1.6,4.5,3.5c-0.1,0.8-0.3,1.7-0.1,2.5
	c2.8,15.6,5.8,31.2,3.9,47.2c-0.2,1.3-0.9,2.9,0.7,4c5.2-4.3,10.3-8.4,10.2-16.1C400.7,106.2,400.9,98.1,401,90z"/>
<path class="st1" d="M330.9,59.1c0.7,10,3.6,19.5,5.3,29.3c2.9,16.5,5.1,33,6.9,49.7c0.9,8.5,0.2,17,1,25.4
	c0.7,7.4-2.5,11.8-9.3,15.1c0.8-6,1.2-11.7,1.3-17.4c0.4-22.2-3.3-43.9-8.4-65.4c-2.8-11.8-5.9-23.5-8.9-35.2c1.9-1,4.4,0.3,6.2-1.4
	C326.9,59.1,328.9,59.1,330.9,59.1z"/>
<path class="st1" d="M341.9,59.1c3.1,13.2,6.6,26.4,9.3,39.7c3,14.6,5.5,29.3,5.9,44.3c0.1,4.5,1.1,8.9,0.8,13.4
	c-0.2,3.3-5.3,9.7-8.3,10.2c-1.1,0.2-1.5-0.3-1.6-1.3c-0.1-1-0.1-2,0-3c0.7-28.5-4-56.4-9.5-84.3c-1.3-6.3-3.1-12.5-3.5-19
	C337.2,59.1,339.5,59.1,341.9,59.1z"/>
<path class="st1" d="M346.7,60.2c-1.3-0.2-2.9,0.3-3.8-1.1c1.3,0,2.7,0,4,0C346.8,59.5,346.8,59.8,346.7,60.2z"/>
<path class="st1" d="M149.9,279.1c-0.6,4.2,1.8,7.9,2,12c-11.4,2-22.8,3.9-34.2,6c-16.8,3.1-33.6,6.6-49.6,13.1
	c-2.1,0.9-4.2,2-6.2,3.2c-5.4,3.4-5.4,5.1,0.1,8.9c6.2,4.3,13.3,6,20.5,7.5c16.8,3.6,33.8,5,50.9,6.4c18.7,1.6,37.5,2.5,55.9,6.2
	c5.7,1.1,11.3,2.9,16.1,6.5c7.4,5.4,7.2,12.9-0.4,17.8c-7.3,4.7-15.9,5.9-24.2,7.2c-23.6,3.9-47.5,5.9-71.2,8.4
	c-14.7,1.5-29.4,2.6-44.5,6.2c3.3,2.6,7,2.8,10.3,3.5c7,1.3,14.1,2.2,21.2,3.2c4.1,0.6,6.5,2.8,6.2,6.9c-0.4,4.3-3.6,6.1-7.4,5.8
	c-10.7-1-21.5-2.3-31.8-5.8c-3.8-1.3-7.5-2.8-10.6-5.4c-6.8-5.7-6-13.7,1.9-17.8c7.2-3.7,15.3-4.6,23.2-5.5
	c30.2-3.5,60.4-6.7,90.6-10.2c8.6-1,17.3-2.3,26.5-5.4c-8.5-3.7-16.8-4.6-25-5.4c-22.8-2.3-45.7-3.9-68.5-6.4
	c-12.2-1.3-24.4-3.4-36-7.8c-6.4-2.5-12.5-5.6-17.1-10.9c-5.2-6.1-5.1-13.6,0.4-19.4c4.9-5.2,11.3-8.1,17.9-10.6
	c18.4-6.9,37.7-10.7,57-14C132.5,281.6,141.2,280.4,149.9,279.1z"/>
<path class="st1" d="M429.9,123c3.6,5,6.9,10.2,8.9,16c-11.7,10.9-23.4,21.7-35,32.6c-17.1,16-34.9,31.2-53.2,45.8
	c-23.9,19-48.5,37.2-74.7,53c-20.7,12.5-41.9,23.7-64.9,31.4c-6.7,2.2-13.5,4.2-20.3,6.2c-2.3-5-5.3-9.8-6.8-15.1
	c14.3-3.7,28.1-8.9,41.6-15.1c21.2-9.7,41-22,60.4-34.8c23-15.3,44.9-32,66.1-49.6c13.3-11,26.4-22.3,39.1-33.9
	C404.3,147.6,417.3,135.6,429.9,123z"/>
<path class="st1" d="M447.8,165.1c2.8,6.4,3.7,13.2,3.8,20.2c-18.8,18.1-38.3,35.4-58.3,52.2c-28,23.6-57.2,45.5-88.2,64.9
	c-19.6,12.2-40,23.2-61.8,31.2c-9.6,3.5-19.6,6.1-29.5,8.6c-4.2-3.5-8.3-7.2-10-12.6c0.8-1.9,2.7-1.8,4.2-2.2
	c28.2-6.5,53.7-19.5,78.2-34.3c28.6-17.3,55.5-36.9,81.5-58c26.2-21.3,51.4-43.6,75.7-66.9C444.7,166.8,445.7,165.1,447.8,165.1z"/>
<path class="st1" d="M440.8,144.1c3.3,4.8,4.8,10.4,6.1,15.9c-1.7,0-2.6,1.3-3.7,2.3c-19.9,19.6-40.8,38.2-62.1,56.2
	c-30.9,26.1-63,50.5-97.7,71.3c-21.2,12.7-43.1,23.8-66.9,30.9c-5.4,1.6-10.7,3.7-16.5,3.4c-3.7-3.5-5.2-8.3-7.4-12.7
	c2.9-0.7,5.8-1.3,8.7-2.1c25.7-7.1,49.4-18.7,72.1-32.3c25-14.9,48.6-31.9,71.6-49.7c18.5-14.3,36.2-29.7,53.9-45.1
	c12.9-11.3,25-23.4,37.5-35.1C437.7,145.8,438.6,144,440.8,144.1z"/>
<path class="st0" d="M213.8,342.1c9.9-2.6,19.8-5.1,29.5-8.6c21.8-8,42.2-18.9,61.8-31.2c31.1-19.4,60.2-41.3,88.2-64.9
	c20-16.8,39.5-34.1,58.3-52.2c0.5,2.3,0.6,4.5,0.1,6.8c-0.5,0.1-1.1,0.1-1.4,0.4c-10,9.2-20,18.4-30.1,27.6c-2.1,2-0.7,2.9,0.8,4.3
	c10.3,9.5,17.9,20.8,22.9,33.9c-0.5,2.9-0.9,5.8-1.4,8.7c-0.5-1.1-1.1-2.1-1.3-3.2c-3.7-14.3-12.5-25.4-22.3-35.9
	c-2.3-2.5-4.5-3.4-7.4-0.3c-2.8,3-6.2,5.5-9.5,7.9c-3.7,2.7-3.6,5-0.9,8.5c8.3,10.6,15.1,22.1,20.5,34.5c4.5,10.2,7,21,9.5,31.8
	c-0.7,3.7-2.1,7.1-4.3,10.1c0.1-5.5-0.6-11-1.6-16.3c-3.6-19.2-12.5-36-23.4-51.9c-6.9-10.1-6.8-10.1-16.2-2.8
	c-0.1,0.1-0.3,0.2-0.4,0.3c-7.8,5.9-7.5,5.7-1.9,13.7c11.6,16.4,20.4,34.1,23.7,54.3c1.4,8.6,0.7,17.1,1,25.7
	c-1.3,1.9-3.1,3.1-5.3,3.7c1.5-8.7,1.8-17.6,0.6-26.3c-2.9-21.4-12.4-40.1-25-57.3c-1.2-1.7-2.6-4.6-4.6-4c-3,1-5.7,3.2-7.7,6
	c-0.7,0.9-0.1,1.9,0.5,2.7c7.9,11.9,11.6,25.2,13.8,39.1c1.6,10.3,2.6,20.7,1.9,31.2c-0.3,5-0.7,9.9-0.2,14.9
	c-0.9,1.1-2.1,0.8-3.2,0.9c-1.6-0.3-1.3-1.4-1.3-2.6c0.2-5,0.1-10,0.3-15c0.1-2.2-0.7-3.2-2.7-4c-19.5-8-37-19.4-53.6-32.3
	c-1.5-1.2-2.7-1.6-4.5-0.5c-4.1,2.6-8.2,5.1-12.3,7.5c-1.7,1-2.4,2-0.7,3.8c12.4,12.8,25.7,24.5,40.5,34.5
	c6.2,4.2,13.4,6.6,19.1,11.4c-2.6,0.7-5.2,1.4-7.9,0.9c-2.1-3.1-5.7-3.8-8.6-5.6c-15-9.4-28.5-20.6-40.9-33.1
	c-8.2-8.2-8.3-8-18.3-2.3c-3.4,1.9-3.8,3.5-0.7,6.2c12.5,10.7,25.5,20.7,39.4,29.5c4.3,2.7,9.2,4.3,12.9,7.9
	c-2.9,0.6-5.8,0.9-8.7,0.3c-0.8-0.8-1.5-1.9-2.4-2.4c-14.8-7.9-27.4-18.8-40.4-29c-9.6-7.5-9.5-7.6-20.1-1.9
	c-0.1,0.1-0.3,0.2-0.4,0.2c-2.8,1.2-3.1,2.4-0.5,4.5c11.5,9,23.4,17.5,36.2,24.7c3,1.7,7,2.3,8.7,6c-2.3,0-4.6,0-7,0
	c-12.3-7.4-25-14.4-35.8-24c-6.8-6-13-8.2-20.8-2.9c-0.5,0.4-1.2,0.6-1.9,0.7c-3.1,0.7-2.5,2.1-0.7,3.5c3.9,3.1,7.7,6.2,12,8.8
	c9,5.4,18.7,9.2,28,13.8c-5,0.4-9.9,0-14.7-1.2c-0.2-1.1-1.1-1.6-2-2c-10.4-4.9-20.2-10.8-28.6-18.7c-1.1-1-2.4-1.2-3.7-0.9
	c-6,1.7-12,3.5-18.1,5.3C216.6,344.9,215,343.8,213.8,342.1z M377.9,321.7c0.1-6.2-1.5-12.2-2.2-18.3c-0.2-1.7-1-2.9-2.9-3.6
	c-10.6-3.6-20.5-8.7-29.9-14.7c-1.8-1.2-3.2-1-4.9,0.3c-3.6,2.7-7.3,5.2-11.1,7.6c-2.8,1.8-4.2,3.4-0.3,5.6c2,1.1,3.7,2.8,5.6,4.2
	c12.7,9.5,26.2,17.6,40.6,24.2c4.5,2,5.1,1.6,5.1-3.4C377.9,323,377.9,322.4,377.9,321.7z M373.5,293.7c-0.1-0.3-0.2-0.6-0.3-0.9
	c-2.8-7.4-5.3-15-9.7-21.7c-1.3-2-2.4-2.4-4.3-0.9c-4.1,3.1-8.3,6.1-12.5,9c-1.5,1.1-2.2,2-0.2,3.3c7.9,4.8,16.1,9.2,24.9,12.3
	C372.4,295.2,373.4,295.2,373.5,293.7z"/>
<path class="st1" d="M180.8,287.9c-0.1-0.8-0.1-1.7-0.3-2.4c-2.6-8.6-2.6-8.6,6-11.4c30.4-10,58-25.4,84.8-42.8
	c23.1-15,45.1-31.7,66.5-49c17.4-14.1,34.4-28.7,50.6-44.2c10.4-9.8,20.8-19.6,31.2-29.4c3.4,3.3,5.8,7.3,8.4,11.2
	c-0.6,0.3-1.3,0.4-1.8,0.8c-13.2,12.6-26.3,25.3-39.9,37.6c-16.7,15.2-33.9,29.9-51.6,43.9c-25.5,20.2-51.8,39.4-80.1,55.6
	c-22.1,12.7-44.7,24.2-69.7,30.2c-1.3,0.3-2.1,0.9-2.4,2.2C182,289.5,181.4,288.7,180.8,287.9z"/>
<path class="st1" d="M289.6,66.9c-1,15.6-2.7,31.1-2.8,46.7c0,15.8-0.5,31.6,0.2,47.3c0.7,14.7,2,29.5,7.5,43.5
	c1.5,3.7,0.5,5.7-2.6,7.7c-5.7,3.7-11.3,7.6-16.9,11.5c-2.2,1.5-2.9,1.5-3.3-1.5c-1.5-12.2-2.4-24.4-3.1-36.7
	c-2-36.9-1.9-73.8-1.8-110.8C274.2,71.4,281.8,68.7,289.6,66.9z"/>
<path class="st1" d="M262.4,76.7c0.1,2,0.4,4,0.4,6c0.1,23-0.4,45.9,0.3,68.9c0.7,23.8,1.1,47.8,4.7,71.4c0.6,4-0.5,6.9-4.3,8.3
	c-3.7,1.3-5.8,5.2-11.5,3.3c-9.7-3.3-9.8-10.6-10-18.1c-0.6-19.1,0.1-38.2,1.6-57.3c1.2-15.5,2.7-31,4.3-46.5
	c1.1-10.5,1.9-21.1,3.9-31.5C255.2,79.3,258.5,77.3,262.4,76.7z"/>
<path class="st1" d="M304,63.3c3,17.3,6,34.6,8.1,52c2.3,19.1,4.6,38.2,4.8,57.4c0.1,6.5-1.1,12.9-1.1,19.4c0,1.7-0.7,2.7-2.1,3.7
	c-4,2.9-8.1,5.8-11.9,8.9c-2,1.6-2.6,1-3.4-1.1c-2.9-8-4.4-16.3-5.6-24.7c-3.3-23.6-2.2-47.4-1.8-71.2c0.2-14.1,1.9-28.1,2.9-42.2
	C297.2,64.5,300.5,63.2,304,63.3z"/>
<path class="st1" d="M408.2,343.4c-0.3-8.6,0.3-17.1-1-25.7c-3.3-20.2-12-37.9-23.7-54.3c-5.6-8-5.9-7.8,1.9-13.7
	c0.1-0.1,0.3-0.2,0.4-0.3c9.4-7.4,9.3-7.3,16.2,2.8c10.9,15.9,19.8,32.7,23.4,51.9c1,5.4,1.7,10.8,1.6,16.3
	C422.7,329.7,417.3,338.1,408.2,343.4z"/>
<path class="st1" d="M246.5,83.8c0.3,7.3-1.2,14.5-1.9,21.7c-1,10.7-2.8,21.4-3.6,32.1c-2.1,25.3-4,50.7-3.2,76.1
	c0.1,4.1-0.2,8.3,1.3,12.5c-8.3-1.7-12.3-7.3-13.2-17.5c-1.6-16.8-1.6-33.6-0.7-50.3c1.1-20.8,2.5-41.7,5.5-62.3
	c0.2-1.5,1-3.5-1.7-3.8C234.7,89.2,240.2,85.6,246.5,83.8z"/>
<path class="st1" d="M363.8,357c-5.8-4.8-13-7.2-19.1-11.4c-14.8-10.1-28.1-21.7-40.5-34.5c-1.8-1.8-1.1-2.7,0.7-3.8
	c4.1-2.5,8.2-5,12.3-7.5c1.7-1.1,3-0.6,4.5,0.5c16.6,12.9,34,24.3,53.6,32.3c2,0.8,2.8,1.9,2.7,4c-0.2,5-0.1,10-0.3,15
	c0,1.3-0.3,2.3,1.3,2.6C374,355.2,368.9,356.1,363.8,357z"/>
<path class="st1" d="M225.9,94.1c-1,13.2-1.7,26.5-3.2,39.7c-1.9,17.4-1.9,34.8-1.9,52.3c0,9.5,0.3,18.9,1.7,28.3
	c-9-2.9-18.4-15.3-18.6-24.2c-0.7-28.5,2.1-56.7,5.9-84.8c0.2-1.5,0.2-3,0.2-4.5C215.7,99.6,220.6,96.4,225.9,94.1z"/>
<path class="st1" d="M156.2,147.9c15,20.6,30.7,40.5,49.2,58.2c12.9,12.3,26.7,23.4,43,31.2c0.7,0.3,1.4,0.8,2.1,1.2
	c-5.2,5.4-8.1,6-13.9,3.5c-17.7-7.5-32.7-19.1-46.8-31.8c-12.3-11.1-24.1-23-34.5-36c-1-1.2-2-2.5-3.1-0.1
	C151.1,165,153.4,156.4,156.2,147.9z"/>
<path class="st1" d="M382.2,353.4c-0.4-5-0.1-9.9,0.2-14.9c0.6-10.4-0.3-20.9-1.9-31.2c-2.2-13.9-5.9-27.2-13.8-39.1
	c-0.6-0.9-1.2-1.8-0.5-2.7c2-2.7,4.7-5,7.7-6c2-0.7,3.4,2.3,4.6,4c12.6,17.2,22.2,35.9,25,57.3c1.2,8.7,0.9,17.6-0.6,26.3
	C396.7,351.5,389.4,352.5,382.2,353.4z"/>
<path class="st1" d="M431.2,310.3c-2.5-10.8-5-21.5-9.5-31.8c-5.4-12.4-12.3-23.9-20.5-34.5c-2.7-3.5-2.8-5.9,0.9-8.5
	c3.4-2.4,6.7-4.9,9.5-7.9c2.9-3.2,5.1-2.2,7.4,0.3c9.9,10.5,18.6,21.6,22.3,35.9c0.3,1.1,0.9,2.1,1.3,3.2c-1.9,13.1-4.9,26-9.1,38.6
	C433,307.1,432.8,309,431.2,310.3z"/>
<path class="st1" d="M153.2,179.9c6.9,5,11.8,12,17.7,18c18.3,18.5,37.6,35.6,61.4,46.9c1.2,0.5,2.9,0.7,3.1,2.2
	c0.2,1.9-1.9,1.9-3,2.8c-6.8,5.3-12.7,3.9-19.8-0.6c-18.6-11.7-35.7-25.3-52.9-38.9c-0.6-0.5-1.4-0.8-2.1-1.3
	C155.2,199.5,153.2,189.8,153.2,179.9z"/>
<path class="st1" d="M205.9,102.1c-1,8.9-1.9,17.8-3.1,26.6c-2.5,20-3.4,40-2.9,60.1c0,1.4,0,2.9,0,5.1c-6.1-4.5-9.7-10.3-14.4-15.1
	c-0.5-0.5-0.5-1.5-0.6-2.3c-0.7-17.1-0.8-34.1,0.8-51.2c0.5-5.3-0.8-10.7,1.3-15.8C192.8,105.9,199.1,103.5,205.9,102.1z"/>
<path class="st0" d="M440.8,144.1c-2.2-0.1-3.1,1.8-4.4,3c-12.5,11.7-24.6,23.9-37.5,35.1c-17.6,15.4-35.3,30.7-53.9,45.1
	c-23,17.8-46.6,34.8-71.6,49.7c-22.8,13.6-46.4,25.2-72.1,32.3c-2.9,0.8-5.8,1.4-8.7,2.1c-0.6-1.1-1.2-2.2-1.9-3.3
	c6.8-2.1,13.6-4,20.3-6.2c23-7.7,44.3-18.9,64.9-31.4c26.2-15.9,50.8-34,74.7-53c18.3-14.6,36.2-29.8,53.2-45.8
	c11.6-10.9,23.3-21.8,35-32.6C440.2,140.5,440.8,142.2,440.8,144.1z"/>
<path class="st0" d="M182.6,290.3c0.3-1.3,1.1-1.8,2.4-2.2c25-6.1,47.6-17.6,69.7-30.2c28.3-16.3,54.6-35.4,80.1-55.6
	c17.7-14,34.8-28.8,51.6-43.9c13.5-12.3,26.7-25,39.9-37.6c0.4-0.4,1.2-0.5,1.8-0.8c0.6,1,1.3,2.1,1.9,3.1
	c-12.6,12.5-25.6,24.6-38.8,36.6c-12.8,11.6-25.8,22.9-39.1,33.9c-21.2,17.6-43.1,34.3-66.1,49.6c-19.4,12.9-39.1,25.1-60.4,34.8
	c-13.5,6.2-27.3,11.3-41.6,15.1C183.5,292.1,183.1,291.2,182.6,290.3z"/>
<path class="st0" d="M200,324.1c5.8,0.3,11.1-1.8,16.5-3.4c23.8-7.1,45.7-18.2,66.9-30.9c34.7-20.8,66.8-45.3,97.7-71.3
	c21.4-18,42.2-36.6,62.1-56.2c1-1,2-2.3,3.7-2.3c0.8,1.6,1.3,3.2,0.9,5.1c-2.1,0-3.1,1.8-4.4,3c-24.4,23.3-49.5,45.7-75.7,66.9
	c-26,21.1-52.9,40.7-81.5,58c-24.5,14.8-50,27.8-78.2,34.3c-1.5,0.3-3.4,0.3-4.2,2.2C201.7,328.3,200.4,326.5,200,324.1z"/>
<path class="st1" d="M314,61.3c7.6,24.2,13.3,48.9,16.7,74.1c1.9,14,1.9,28.1,0.1,42.2c-0.8,6.4-4.9,9.6-10.4,12.5
	c1.6-26-0.9-51.3-4.3-76.7c-2.1-15.3-4.3-30.5-7.1-45.6c-0.3-1.8-0.2-3.6-0.3-5.5C310.5,61.8,312.1,60.9,314,61.3z"/>
<path class="st1" d="M363.4,63.5c3.4,21.1,6.4,42.3,6.4,63.8c0,6-0.6,11.9-1,17.9c-0.3,4.3-2,8-6.5,10.3c-1.1-4.8-0.8-9.8-1.1-14.6
	c-1.6-26-7.2-51.2-13.6-76.3c-0.4-1.4-0.5-2.9-0.8-4.4C352.7,59.6,358,61.5,363.4,63.5z"/>
<path class="st1" d="M159.2,215.9c8.2,6.2,16.3,12.4,24.6,18.6c9.5,7,19.1,13.8,29.3,19.7c1.2,0.7,2.4,1.7,4.3,3.1
	c-6.3,2.8-12,5.3-17.8,7.7c-2,0.8-3.9-0.4-5.7-1.3c-9.8-5-18.3-12-27-18.6C163.5,235.6,160.8,225.9,159.2,215.9z"/>
<path class="st1" d="M444,258.2c-5-13.1-12.6-24.4-22.9-33.9c-1.5-1.4-3-2.3-0.8-4.3c10-9.2,20-18.4,30.1-27.6
	c0.3-0.3,0.9-0.3,1.4-0.4c1.4,13.3-1.3,26.3-3.3,39.4C447.1,240.4,445.5,249.3,444,258.2z"/>
<path class="st1" d="M339.6,360.6c-3.7-3.7-8.6-5.2-12.9-7.9c-13.9-8.8-26.9-18.8-39.4-29.5c-3.1-2.7-2.7-4.2,0.7-6.2
	c10-5.7,10.1-5.9,18.3,2.3c12.5,12.5,26,23.7,40.9,33.1c2.9,1.8,6.6,2.5,8.6,5.6C350.6,359.8,345,359.8,339.6,360.6z"/>
<path class="st1" d="M381.8,73.2c-2.1,2.8,0,5.5,0.5,8c2.3,11.1,3.7,22.3,4.3,33.5c0.4,6.5-0.5,13.3-2,19.7
	c-1.1,4.8-5.7,7.7-9.8,10.1c-2.5,1.4-1.9-1.6-1.7-2.6c1.3-10.6,0.7-21.2,0.1-31.8c-0.9-15.1-3.3-30-5.3-44.9
	C373,66.9,377.8,69.4,381.8,73.2z"/>
<path class="st1" d="M311.8,363c-1.6-3.8-5.7-4.3-8.7-6c-12.7-7.3-24.7-15.7-36.2-24.7c-2.7-2.1-2.4-3.2,0.5-4.5
	c0.2-0.1,0.3-0.1,0.4-0.2c10.6-5.7,10.5-5.7,20.1,1.9c13.1,10.3,25.7,21.1,40.4,29c1,0.5,1.6,1.6,2.4,2.4
	C324.7,362.9,318.2,362.4,311.8,363z"/>
<path class="st1" d="M181.5,112.7c-0.4,11.4-0.5,22.9-1.1,34.3c-0.3,6.5-0.8,12.9,0.2,19.4c0.3,1.7,0.5,3.3-0.3,5.8
	c-8.4-9.5-15.3-19.5-22.4-29.2C161.4,129.5,168.8,119.1,181.5,112.7z"/>
<path class="st1" d="M285.8,363c-9.3-4.7-19.1-8.4-28-13.8c-4.3-2.6-8.1-5.7-12-8.8c-1.8-1.5-2.4-2.9,0.7-3.5
	c0.6-0.1,1.3-0.3,1.9-0.7c7.8-5.3,14.1-3.1,20.8,2.9c10.8,9.6,23.5,16.6,35.8,24C298.5,363,292.1,363,285.8,363z"/>
<path class="st1" d="M401,90c-0.1,8.1-0.3,16.3-0.2,24.4c0.1,7.6-5,11.8-10.2,16.1c-1.6-1.1-0.9-2.7-0.7-4c1.9-16-1-31.6-3.9-47.2
	c-0.1-0.8,0.1-1.6,0.1-2.5c5.7,3.1,10.2,7.6,14.8,12c-0.4,0.4-1.2,0.8-0.1,1.3L401,90z"/>
<path class="st1" d="M218.6,345.5c6-1.8,12-3.6,18.1-5.3c1.3-0.4,2.6-0.2,3.7,0.9c8.4,7.9,18.2,13.8,28.6,18.7c0.9,0.4,1.8,0.9,2,2
	C252.2,360.6,234.2,356.9,218.6,345.5z"/>
<path class="st1" d="M170,254c4.6,1.3,7.8,4.7,11.7,7.2c3.1,2.1,6.4,4,10,6.2c-5.1,3.2-10.9,3-15.7,5.7
	C173.5,266.8,170.7,260.8,170,254z"/>
<path class="st1" d="M417.1,105.7c-3.1,2.9-6.2,5.9-9.3,8.8c-0.6,0.5-1.4,1.2-2,1.1c-1.3-0.2-0.9-1.5-0.9-2.4
	c0-6.8,0.1-13.5,0.2-20.3C410,96.3,413.4,101.2,417.1,105.7z"/>
<path class="st1" d="M290.9,66.2c-0.4,0.2-0.8,0.4-1.2,0.6C290.1,66.6,290.5,66.4,290.9,66.2z"/>
<path class="st1" d="M169.3,252.9c0.2,0.3,0.4,0.7,0.6,1C169.4,253.9,169.2,253.5,169.3,252.9z"/>
<path class="st1" d="M404.6,92.2c-0.3-0.3-0.6-0.7-0.8-1C404.1,91.6,404.3,91.9,404.6,92.2z"/>
<path class="st0" d="M401,90.1c-1.1-0.5-0.3-0.9,0.1-1.3C401.4,89.2,401.4,89.7,401,90.1z"/>
<path class="st1" d="M377.9,321.7c0,0.7,0,1.3,0,2c0,5-0.6,5.4-5.1,3.4c-14.4-6.6-27.9-14.7-40.6-24.2c-1.9-1.4-3.6-3.1-5.6-4.2
	c-3.9-2.2-2.5-3.8,0.3-5.6c3.8-2.4,7.5-4.9,11.1-7.6c1.8-1.3,3.1-1.5,4.9-0.3c9.4,6.1,19.3,11.1,29.9,14.7c1.9,0.7,2.7,1.9,2.9,3.6
	C376.4,309.5,378,315.5,377.9,321.7z"/>
<path class="st1" d="M373.5,293.7c-0.1,1.5-1.1,1.5-2.1,1.1c-8.8-3.1-16.9-7.5-24.9-12.3c-2-1.2-1.4-2.2,0.2-3.3
	c4.2-3,8.4-5.9,12.5-9c2-1.5,3-1.1,4.3,0.9c4.4,6.7,6.9,14.3,9.7,21.7C373.3,293.1,373.4,293.4,373.5,293.7z"/>
</svg>
