<?xml version="1.0" encoding="utf-8"?>
<!-- Generator: Adobe Illustrator 19.1.0, SVG Export Plug-In . SVG Version: 6.00 Build 0)  -->
<svg version="1.0" id="Layer_1" xmlns="http://www.w3.org/2000/svg" xmlns:xlink="http://www.w3.org/1999/xlink" x="0px" y="0px"
	 viewBox="0 0 612 466.2" style="enable-background:new 0 0 612 466.2;" xml:space="preserve">
<style type="text/css">
	.st0{fill:#FDC92B;}
	.st1{fill:#4C463F;}
	.st2{fill:#534E48;}
	.st3{fill:#9C9DA0;}
	.st4{fill:#5A5859;}
	.st5{fill:#ED4A4A;}
	.st6{fill:#FBC435;}
	.st7{fill:#EC6568;}
	.st8{fill:#4DC2EE;}
	.st9{fill:#FCCA2A;}
	.st10{fill:#FBBB4A;}
	.st11{fill:#F9B057;}
	.st12{fill:#FBBF41;}
	.st13{fill:#B6B7B9;}
	.st14{fill:#F8AE65;}
	.st15{fill:#FDFDFD;}
</style>
<path class="st0" d="M123.5,233.7c0.3-0.2,0.7-0.3,1-0.3c0.3,0.1,0.7,0.3,1,0.2c5.8-0.9,11.7,1.8,12.6,5.6c-0.2,0.2-0.3,0.3-0.5,0.5
	c0.2-0.2,0.3-0.3,0.5-0.5c3.3,0.2,6.5-0.1,9.8-2c-2.7-2.4-6.6-7.2-7.6-6c-3.9,4.9-6.5,0.1-9.5-0.1c8.5-9.1,8-13.7-2.7-20.4
	c-5.6-3.5-11.3-6.8-16.9-10.2c-3.6-2.2-5.8-5.3-5-9.9c1.3-1.3,3-2.4,3.6,0.2c0.4,1.9,0.7,2.3,2.3,1.3c2.2-1.3,4.9-1.8,6.7-4
	c-1.6-2.1-4.1-2.6-6.2-3.7c-1.8-0.9-2.6-1.9-1.7-3.9c4.8-5.8,11.1-8.6,18.2-10.3c9.8-2.3,19.8-4.1,29.1-8.1c0.5,2.9-1.4,4.5-3.1,6.2
	c-7.3,7.5-15.5,14-11.3,27c1.2,3.8,2.1,6.5,4.9,9.4c4.2,4.4,10.3,8.4,9.1,15.8c-0.8,4.7,0.5,5.3,4.7,4.2c21-5.1,42.8-6.3,63.9-11.5
	c9.6-2.4,18.5-5.7,27-10.5c2.5-1.4,4.7-3.2,4.4-6.6c4.9-1.2,10.1-1,14.7-3.4c5.8-0.9,10.7-3.6,14.7-7.9c1.9,10.2,0.7,20.9,4.4,30.8
	c-2.2-0.1-4.5-0.4-6.7-0.4c-7,0-11.7,3.9-12.9,10.7c-1,5.7,2.7,11.2,9.1,13.4l0.3,0c0.9,1.1,2.2,0.8,3.3,1c0.1,3.2,0.4,6.3,0.2,9.5
	c-0.3,5.4,1.6,11.2-2.3,16.1c-1.4,0.2-2.2,1.2-3,2.2c-9.2-10.1-21.8-14-34-18.8c-2.7-1.1-6-1.1-7.2-4.5c4.6-1.1,9.1-2.5,13.7-3
	c4.1-0.5,7.8-6.4,12.4-1.2c0.4-0.4,0.9-0.7,1.2-1.2c1.7-2.1,3.6-4.1,4.5-7.1c-3.1,0-5.7,0-8.4,0c-0.8,0-2.6-0.1-2,0.9
	c2.3,4.6-2.2,3.7-3.7,4.3c-15.6,6.2-31.9,6.3-48.3,5.9c-0.2-1.2-0.8-2.1-2.2-2.1c-7.8,0.2-15.5-2.2-23.3-1
	c-3.4-7.7-7.4-10.7-13.7-10.4c-6.1,0.3-10.2,4.3-12.7,12.4c-4.2,0.8-8.4,1.4-12.5,2.3c-3.8,0.9-8.3,1.2-9.7,5.4
	c-1.3,4-2.8,8.1-2.7,12.4c-5.5-1.4-11.1-1.2-16.7-1.1c-11,0.1-19.9-4.3-27.1-12.5c-7.6-8.6-7.1-13.1,2.1-18.9c1.7-0.4,3,0.4,4.4,1.1
	c3.7,2.2,7.8,3.7,11.9,4.1C111.8,236,118,237.7,123.5,233.7z"/>
<path class="st1" d="M89.5,230.3c-9.2,5.9-9.7,10.4-2.1,18.9c7.2,8.2,16.1,12.6,27.1,12.5c5.6,0,11.2-0.3,16.7,1.1
	c7.2,2.9,13,7.8,17.9,13.8c4.5,7.1,6.1,14.9,5.7,23.2c-0.3,6.8-1,13.6-0.7,20.3c0.3,8.1,1.2,16.2,7.3,22.6c2.1,2.2,4.9,4.8,7.8,3.7
	c2.9-1.1,0.8-4.7,1.2-7.1c0.1-0.5-0.2-1.1-0.3-1.6c0.7-14.3,0.6-28.6,0-42.9c0.7-3.8,0.6-7.6,0-11.3c0.1-5,0.4-10,0.4-15
	c0-4.4,1.7-9.4-3.8-12c0.6-1.2,1.3-2.4,1.9-3.5c1.7-0.3,0.7-6.2,4.6-2.3c0.8,1.5,1.6,3.1,2.4,4.6c-3.2,3.6-4,7.7-2.7,12.3
	c-0.8,6.4-0.8,12.8,0,19.3c-0.6,15.4-0.9,30.9,0,46.4c-1,1.4-0.9,3-0.7,4.6c-0.1,0.9-0.1,1.9-0.2,2.8c-0.1,7.3-0.1,7.2,6.9,6.6
	c4.8-0.5,9.7-0.9,14.5-1.3c0,0.6,0,1.3,0,1.9c-2,0.3-4.1,0.4-6.1,0.9c-4.8,1.1-11.8-1.4-14.1,2.7c-2.3,4-0.4,10.3-0.7,15.5
	c-0.2,3.1,1.1,3.7,3.9,3.7c35-0.1,70.1-0.1,105.1,0c3.1,0,3.8-1,3.7-3.9c-0.2-7.3-0.2-14.7,0-22c0.1-3.4-0.8-4.2-4.1-3.3
	c-5.4,1.6-10.9,2.8-16.4,4.1c0-0.6,0-1.3,0-1.9c2.2-0.5,4.4-1,6.5-1.6c17.2-5.3,13.7,0,13.7-18.9c-0.6-4.2,2.3-8.9-1.6-12.8
	c-5-2-10.4-3.4-14.3-8.5c3.7-0.4,5.4,2.6,8.1,3c0.6,0.4,1.2,0.9,1.9,1.2c5.6,2.6,6.1,2.3,6.1-4c0-4.3-0.1-8.6-0.2-12.9
	c0-5.2-0.1-10.3-0.1-15.5c0.7-2.9,0.2-5.4-2-7.4c3.9-4.9,2-10.7,2.3-16.1c0.2-3.1-0.1-6.3-0.2-9.5c0-4-2.2-0.7-3.3-1
	c0,0-0.3,0-0.3,0c0.5-1.3,0.9-2.5,1.4-3.8c1.5-1.7,1.7-4.4,4.1-5.5c1.4,2.2,2.7,4.2,4,6.1c0,1.3,0.8,3.2-2,2.4
	c-1.4-0.4-1.1,0.9-1.1,1.8c0,6.7,0,13.4,0,20.1c1.8,4.2-1.9,8.7,1,12.8c-0.5,1-1.4,1.8-1,3.1c-0.1,6.2-0.2,12.3-0.2,18.5
	c0,15.6,1.2,16.3,15.8,9c3.3-1.3,6.5-2.7,9.9-3.7c3-0.9,5.9-3.2,9.3-1.2c0,0.3,4.5,0.6-0.1,1c-6.5,1-12.5,3.5-18.3,6.4
	c-1.6,0.6-3.3,0.9-4.7,1.8c-3.7,2.2-10,0-11.6,4.3c-1.6,4-0.3,9.2-0.2,13.8c-0.1,1.7,0,3.4-0.2,5c-0.5,4.5,0.6,6.2,5.4,4.1
	c3.6-1.6,7.5-2.3,11.1-3.8c7.5-3,13.4-0.9,18.6,4.8c-0.4,0.4-0.8,0.8-1.3,1.2c-5.6-5.4-11.9-6.4-19.1-3.2c-4.6,2-11,2.2-13.8,5.6
	c-2.9,3.4-0.7,9.7-0.9,14.8c-0.1,4.5-0.3,9.1,0.1,13.6c0.3,3.7-1.1,4.3-4.5,4.3c-15.1-0.2-30.1,0.2-45.2-0.2
	c-4.9-0.1-6.9,1.1-6.1,6.1c0.3,1.6,0.6,3.6-1.3,5.8c-1.3-2.9-1-5.3-0.7-7.5c0.4-3.7-1.2-4.3-4.5-4.3c-16.6,0.2-33.2-0.1-49.7,0.2
	c-3.9,0.1-5.5-0.9-5-5c0.3-2.2,0.1-4.5,0-6.8c-0.1-6.1,1.4-11.8-7.5-14.7c-7.3-2.4-8.9-11-10.2-18.4c-1.5-8.5-0.7-16.9-0.1-25.4
	c0.6-9.6-0.4-18.8-6.9-26.6c-7.3-8.7-16.5-12.8-27.9-12c-12.4,0.8-23-3.1-31.3-12.5c-1.9-2.1-3.6-4.4-4.9-6.9
	c-3.4-6.4-2-10.6,4.4-14.4C87.2,230.1,88.4,230.2,89.5,230.3z"/>
<path class="st2" d="M158.4,162.1c-9.3,4.1-19.3,5.9-29.1,8.1c-7.1,1.6-13.5,4.5-18.2,10.3c-0.4-0.4-0.8-0.8-1.2-1.2
	c4.4-7.2,11.9-9.4,19.3-11.3c7.3-1.9,14.6-3.5,21.8-5.6c10.6-3,17.2-10.3,20.6-20.6c0.6-1.8,1.2-3.6,1.5-5.4
	c2.4-13.9,11.9-20.3,24.7-21.5c23.1-2.1,42.5-12.1,60.4-26.2c1.9-1.5,2.4-3.1,2.4-5.3c-0.1-6.2-0.1-12.4,0-18.6
	c0-1.7-0.9-3.8,2.2-5.7c0,7.5,0.2,14.4-0.1,21.2c-0.1,4.1,0.7,5.1,5,3.6c8.2-3,16.6-2,24.7,1c11.8,4.3,23.6,8.7,35.3,13.3
	c11.6,4.5,23.2,8.6,35.4,11.2c0,1,0,2,0,3c-7.7-2.4-15.5-4.8-23.2-7.4c-17-5.8-33.3-13.6-50.5-18.7c-6.9-2.1-14-3.2-20.9-0.6
	c-2.3,0.9-6.5,0.9-5.4,5.5c0,3,0,5.9,0,8.9c-0.5,12.4-0.5,24.9,0,37.3c0,2.6,0,5.3,0,7.9c0,0,0,0,0.1-0.1c1.6,0,3.3,0,2.5,2.4
	c-1.1,1.3-1.8,2.7-2,4.4c-2.7,4.2-3.2-0.2-4.6-1.2c0.3-2.1-4.3-5.3,1.3-6.3c0.3-0.1,0.5-1.3,0.5-2c-0.2-5.9,0.6-11.9-0.5-17.7
	c0.8-6.8,0.8-13.5,0-20.3c0.7-3,0.8-6.1,0-9.1c0.5-1.8,1.2-3.5-0.5-5.4c-3.1,2.2-6.2,4.3-9.2,6.5c-9.6,6.9-19.4,13.6-31.1,16.3
	c-7.6,1.7-15.4,2.7-23.1,4.3c-14,3-18.6,7.8-21,21.3c-2.2,5.7-4.3,11.5-8,16.4C164.3,157.3,161.3,159.7,158.4,162.1z"/>
<path class="st1" d="M532.3,312.3c-15.6,8.6-32.2,12.4-49.9,9.5c-7.2-1.2-13.4-4.7-19.5-8.5c-4.8-3-9.5-6.1-14.4-8.9
	c-4.9-2.8-10.2-4-15.8-3.1c-7.8,1.3-15.5,2.9-23.2,4.6c-4.4,1-7.8,3.6-10.5,7.2c-1.1,0.2-2.1,0.4-3.2,0.5c2.2-4.4,7.8-5.9,9.4-10.7
	c1-3,2.6-5.3,5-7.3c3.2-2.7,6.3-5.3,9.5-7.9c5.6-4.7,7-10.3,4.1-17.1c-1.5-3.4-3.8-7.1-3.5-10.5c0.4-4.5-1.9-4.4-4.6-4.8
	c-5-0.7-10.3-0.1-15.1-2.4c3.2-0.1,6.4-0.4,9.5-0.2c12.3,0.8,12.3,0.9,14.9-11.2c0.6-4.7,2-9.5-0.6-14c-0.5-2.5-2.7-3.7-4.1-5.5
	c-1.7-2.3-0.1-2.2,1.6-1.9c3.8,4.1,6.9,8.5,6.4,14.5c-0.8,4.9-1.7,9.7-2.5,14.6c-1.8,4-0.4,5.4,3.8,6.2c13,2.3,21.6,10.1,25.4,22.8
	c1.8,5.9,3.5,11.9,5.3,17.8c5.3,17.2,15.4,24.7,33.3,24.5c13.2-0.1,25.6-3.7,37.4-9.6C531.4,311.4,531.9,311.8,532.3,312.3z
	 M462.2,309.8c0.4,0.1,0.8,0.2,1.2,0.4c0-0.4,0-0.9,0-1.3c-5-8.8-6.8-18.7-9.8-28.2c-3.2-10.2-8.4-18.6-19.4-21.7
	c-3.6-1-8.2-4-11-1.3c-3.1,3.2,0.8,7.3,2.1,10.8c3.8,10,2.9,14.4-5,21.5c-2.8,2.5-5.9,4.7-8.7,7.2c-1.8,1.6-3.7,3.2-3.9,6.5
	c6.7-1.4,13.3-2.6,19.9-4c7.8-1.7,15.4-1.1,22.4,2.8C454.1,304.8,458.1,307.4,462.2,309.8z"/>
<path class="st3" d="M422.9,350.1c-9.2-0.2-15.9-5-18-13.2c-2-7.8,1.3-15.7,8.3-19.8c7.3-4.3,16.6-3.2,22.4,2.5
	c5.9,5.7,7.3,14.4,3.3,21.2c-2.4,4-5.3,7.8-10.7,8C425.5,345.4,424.3,348.2,422.9,350.1z M434.3,332.7c0.2-6.1-5.5-11.9-11.6-12.1
	c-6.1-0.2-11.9,5.5-12.1,11.6c-0.2,6.1,5.5,11.9,11.6,12.1C428.3,344.5,434.2,338.9,434.3,332.7z"/>
<path class="st1" d="M556.7,139.1c-3.1,2.2-6.8,3.5-10.5,3.8c-13.6,1.1-24.4,8.1-34.7,16.1c-5.5,4.3-10.8,8.8-16.6,12.7
	c-4.3,2.9-5.3,6.5-4.7,11.1c1.4,10.3,2.2,20.5-0.3,30.8c-2,8.3,1.7,14.6,7.8,19.9c-0.4,0.4-0.8,0.8-1.2,1.2
	c-8.2-5.5-10.7-13.4-8.4-22.6c1.8-7.2,0.9-14.1,0.6-22.1c-3.2,3.5-5.8,6-9,7.6c-3.6,0.9-7.2-0.2-10.8-0.5c-5.3-1.9-10.7-3.7-16-5.6
	c-4-1.8-8-3.6-12-5.5c0.5-1.4,1.6-1.2,2.7-1.2c3,2.1,6.5,2.9,10,4c2.9,1.3,5.7,2.7,8.8,3.1c3,1.6,6.1,2.6,9.5,3
	c7.4,1.2,12.2-0.6,14.7-6.7c2.1-5.3,1.2-11.3,1.4-16.9c-0.1-0.6-0.3-1.2-0.4-1.8c0.1-0.7,0.3-1.5,0.4-2.2c0.6,0.7,1.3,1.3,1.9,2
	c1.1,3.5,2.9,1.9,4.6,0.6c6.9-5.4,13.8-10.9,20.6-16.4c1.5-1,3-2,4.6-3c1.4-0.5,2.7-1,3.2-2.7c5.3-1.5,9.8-5.3,15.5-5.7
	c6.4-0.5,12.6-2.1,18.4-4.7C556.5,137.9,556.6,138.5,556.7,139.1z"/>
<path class="st3" d="M89.5,230.3c-1.2-0.1-2.4-0.1-3.5-0.2c0.8-3-3.5-2.4-3.4-4.9c0-3.1-2.8-3.3-4.7-4.3c-1.4-4.9-2.1-9.8-0.2-14.9
	c2.3-6.1,7.1-9.5,13-9.9c5.7-0.4,10.9,4.2,13.4,10.1c3.4,7.9,0.4,16.3-6.7,21.2c-1,0.7-2.5,1-2.2,2.8c-0.4,0.4-0.8,0.8-1.2,1.2
	C92.6,230.6,91.2,229.8,89.5,230.3z M91.3,223.4c5.1-0.1,10.5-5.5,10.6-10.6c0.1-5.3-5.5-11-10.9-10.9c-5.1,0.1-10.5,5.5-10.6,10.6
	C80.3,217.8,85.9,223.5,91.3,223.4z"/>
<path class="st2" d="M321.2,337.6c0.4-0.4,0.8-0.8,1.3-1.2c4.7,3.9,6.3,9.1,6.9,14.9c0.5,5.3-0.7,10.5-1.5,15.7
	c-1.7,12.2,1,18.4,11.7,24.2c13.2,7.3,27.5,9.9,42.5,8.3c6.1-0.6,11.7-2.8,15.4-8.3c0.5,0.4,1,0.8,1.6,1.2
	c-3.8,6.5-10.3,8.7-17.1,9.4c-15.3,1.5-30-1.2-43.5-8.8c-11.4-6.3-14.7-13.6-12.7-26.6c0.5-3.2,1-6.3,1.4-9.5
	C327.8,349.7,326,343.2,321.2,337.6z"/>
<path class="st1" d="M363.1,112.4c0-1,0-2,0-3c13.9,2.3,28,3.1,42.1,4.1c12,0.8,24.1,1.4,36.1,2.3c9.7,0.7,19.5,1.7,29.2,2.6
	c-1.4,2-4.2,0-5.6,1.8c-3.5,1.4-6.5-1-9.8-1.2c-13.8-0.5-27.6-0.6-41.2-2.2c-6.7-0.7-13.4-0.4-20-1
	C383.5,114.9,373.3,113.6,363.1,112.4z"/>
<path class="st2" d="M479.6,119.5c19.1,5.8,37.4,0.1,55.8-3.9c7-1.5,14.5-2.6,21.6,1c7.3,3.7,9.2,8.9,5.7,16.9
	c-0.5-0.4-1-0.9-1.5-1.3c1.7-6.8,0.2-12.3-5.1-14.6c-4.1-1.7-8.7-1.9-13.2-1.2c-7.6,1.2-15.1,2.7-22.5,4.8
	c-13.6,3.8-27.2,5.2-41,0.6C479.5,121,479.5,120.3,479.6,119.5z"/>
<path class="st4" d="M422.9,350.1c1.4-1.9,2.5-4.7,5.2-1.3c-0.3,1.6,0.8,2.8,1.1,4.3c0.3,1.3,2.5,3.5-1.6,3.3
	c-1.6-0.1-0.8,2.9-0.8,4.4c-0.1,15,0,30.1-0.1,45.1c0,1.7,0.5,3.7-0.9,5.5c-2.3-1.8-1.4-4-1.4-5.8c-0.1-15,0-30.1-0.2-45.1
	c0-1.3,2.4-5.2-2.6-4.1c-1.3,0.3-0.5-1.3-0.2-2C422,352.9,422.5,351.5,422.9,350.1z"/>
<path class="st2" d="M496.4,234.7c0.4-0.4,0.8-0.8,1.2-1.2c6.7,4.2,14.3,6.6,21.3,10c15,7.4,26.2,18.1,30.1,35
	c1.9,8.2,0.6,16-4.5,23c-0.6-0.1-1.3-0.1-1.9-0.2c7.9-13.5,5.7-26.2-3.1-38.3c-7.2-10-17.2-15.9-28.3-20.5
	C506,240.4,500.6,238.7,496.4,234.7z"/>
<path class="st2" d="M396.3,321.9c-0.6,12,4.8,23,6,34.7c1.2,12.2,3,24.4-3.3,35.9c-0.5-0.4-1-0.8-1.6-1.2c2-3.9,2.9-8,3.3-12.4
	c1.1-11.7-0.7-23.1-3.1-34.6c-1.6-7.5-4.1-14.8-3.9-22.5C394.6,321.8,395.4,321.9,396.3,321.9z"/>
<path class="st1" d="M109.9,179.3c0.4,0.4,0.8,0.8,1.2,1.2c-0.9,2-0.1,3,1.7,3.9c2.1,1.1,4.5,1.6,6.2,3.7c-1.8,2.2-4.5,2.7-6.7,4
	c-1.6,0.9-1.9,0.6-2.3-1.3c-0.6-2.6-2.3-1.5-3.6-0.2c-0.6,0-1.3,0-1.9,0c-1.2-2.3-3.3-1.2-5-1.2c-8.4-0.1-16.9,0-25.3-0.1
	c-1.7,0-3.6,0.6-6.2-2.2c6.6,0,11.9,0,17.1,0c3,0,6-0.3,9,0.1C101,188,107.1,187.2,109.9,179.3z"/>
<path class="st1" d="M77.9,220.8c1.9,1.1,4.7,1.2,4.7,4.3c-1.6-0.8-2.9,0.6-4.2,0.6c-1.8-0.1-5,6.3-5.5-1c0-0.2-2.4-0.2-3.7-0.2
	c-12.4,0-24.8,0-37.4,0c0.6-3.1,2.7-2.2,4.1-2.2c10.5-0.1,21.1,0.1,31.6-0.2c1.7-0.1,5.9,3.1,5.7-2.7
	C73.1,218.4,76.2,220.5,77.9,220.8z"/>
<path class="st2" d="M104.3,190.6c0.6,0,1.3,0,1.9,0c-0.9,4.6,1.3,7.6,5,9.9c5.6,3.5,11.3,6.7,16.9,10.2
	c10.6,6.7,11.2,11.3,2.7,20.4c-0.7-0.4-1.4-0.8-2.2-1.2c0.7-0.7,1.3-1.3,2-2c5.4-5.6,5.2-9-1.3-13.6c-4.1-2.9-8.7-5.2-12.9-7.8
	c-3-1.9-6-3.8-8.8-6C104.4,198,102.9,194.7,104.3,190.6z"/>
<path class="st5" d="M128.6,229.9c0.7,0.4,1.4,0.8,2.2,1.2c3.1,0.2,5.7,5,9.5,0.1c0.9-1.2,4.8,3.6,7.6,6c-3.3,1.9-6.5,2.2-9.8,2l0,0
	c-0.9-3.9-6.8-6.5-12.6-5.6c-0.3,0-0.7-0.1-1-0.2c0.6-2.4-1.1-3.2-2.7-4.3c-3.5-2.3-6.9-4.8-9.9-7.9
	C118.1,223,122.4,228.3,128.6,229.9z"/>
<path class="st4" d="M27.4,225.2"/>
<path class="st5" d="M396.3,321.9c-0.9-0.1-1.7-0.1-2.6-0.2c1-2.7,0.1-4.4-2.5-5.8c-2.7-1.4-5.9-2.5-7.6-6.5
	c3.8,0.8,5.8,3.2,8.4,4.4c1.4,0.7,2.9,2.5,4-0.3c1.1-0.2,2.2-0.4,3.2-0.5c1.8,2.6,3.7,5.3,5.9,8.5
	C401.6,321.6,399,321.8,396.3,321.9z"/>
<path class="st1" d="M94,231.3c0.4-0.4,0.8-0.8,1.2-1.2c9,4.3,18.8,3.3,28.3,3.6c-5.5,4-11.7,2.3-17.6,1.8
	C101.8,235.1,97.7,233.6,94,231.3z"/>
<path class="st4" d="M479.6,119.5c0,0.8-0.1,1.5-0.1,2.3c-5,0.4-9.7-1.3-14.6-1.6c1.5-1.8,4.2,0.1,5.7-1.8
	C473.5,118.7,476.5,119.1,479.6,119.5z"/>
<path class="st2" d="M562.7,133.5c-1,2.1-2.6,3.7-4.6,4.8c-0.4-0.5-0.8-1-1.1-1.6c1.4-1.5,2.8-3.1,4.3-4.6
	C561.7,132.6,562.2,133,562.7,133.5z"/>
<path class="st1" d="M535.9,310c-1.2,0.8-2.4,1.5-3.6,2.3c-0.5-0.5-0.9-0.9-1.4-1.4c1.2-0.7,2.4-1.4,3.6-2.1
	C535,309.2,535.4,309.6,535.9,310z"/>
<path class="st1" d="M537.6,308.6c-0.6,0.5-1.2,0.9-1.8,1.4c-0.5-0.4-0.9-0.8-1.4-1.2c0.7-0.5,1.3-1,2-1.5
	C536.9,307.8,537.3,308.2,537.6,308.6z"/>
<path class="st1" d="M540.4,306.5c-0.5,0.4-0.9,0.8-1.4,1.3c-0.4-0.5-0.8-0.9-1.3-1.4c0.4-0.3,0.8-0.7,1.2-1
	C539.4,305.7,539.9,306.1,540.4,306.5z"/>
<path class="st2" d="M556.7,139.1c-0.1-0.6-0.1-1.3-0.2-1.9c0.1-0.2,0.3-0.4,0.5-0.5c0.4,0.5,0.8,1,1.1,1.6
	C557.6,138.6,557.1,138.9,556.7,139.1z"/>
<path class="st1" d="M541.5,305.4c-0.4,0.4-0.8,0.8-1.1,1.1c-0.5-0.4-1-0.8-1.4-1.2c0.4-0.4,0.8-0.8,1.1-1.1
	C540.5,304.6,541,305,541.5,305.4z"/>
<path class="st1" d="M542.6,304.2c-0.4,0.4-0.7,0.8-1.1,1.1c-0.5-0.4-1-0.8-1.5-1.2c0.4-0.4,0.7-0.8,1.1-1.2
	C541.6,303.4,542.1,303.8,542.6,304.2z"/>
<path class="st1" d="M543.5,303.1c-0.3,0.4-0.6,0.8-1,1.2c-0.5-0.4-1-0.8-1.4-1.2c0.3-0.4,0.7-0.8,1-1.2
	C542.6,302.3,543,302.7,543.5,303.1z"/>
<path class="st1" d="M542.6,301.4c0.6,0.1,1.3,0.1,1.9,0.2c-0.3,0.5-0.7,1-1,1.5c-0.5-0.4-0.9-0.8-1.4-1.2
	C542.2,301.6,542.4,301.4,542.6,301.4z"/>
<path class="st1" d="M538.9,307.8c-0.4,0.3-0.9,0.6-1.3,0.9c-0.4-0.4-0.8-0.9-1.2-1.3c0.4-0.3,0.8-0.6,1.2-0.9
	C538.1,306.8,538.5,307.3,538.9,307.8z"/>
<path class="st6" d="M522.5,147.7c-0.5,1.6-1.8,2.1-3.2,2.7c-1.5-2.6-3.1-0.7-4.5,0.1c-1.3,0.7-1.7,1.9-0.1,2.9
	c-6.9,5.5-13.7,11-20.6,16.4c-1.6,1.3-3.5,2.9-4.6-0.6c4.2-3.4,8.2-7.1,12.7-10.2c2.8-1.9,3.5-4.8,5.1-7.3c3.2-4.9-1.1-5-2.9-7
	c-0.6-0.6-1.2-1.7-1.1-2.5c0.3-3.1-2-4.3-4.1-5.5c-4.2-2.5-8.8-4.1-13.7-4.9c-19-3.1-38.3-2.9-57.4-3.2c-21.2-0.4-42.4-0.8-63.7,0.9
	c-16.4,1.3-32.2,4.4-46.9,12c-2.2,1.2-4,2.7-5.4,4.8c-7.4,11.7-13,24.2-15.3,37.8c-2.2,13.1,0.5,25.4,10.6,35
	c12.2,11.6,27.4,16.3,43.8,17.7c2.1,0.2,4.6,1,6.1-1.6c6.1,3.4,11.9,7.2,17.5,11.5c-1.7,0.8-3.4,1.7-5.4,1.4
	c-12.7-2.1-25.7-1.8-38.3-4.7c-1.4-0.3-3-1.4-3.4,1.1c-6.9-5-13-11.2-21.2-15.9c0.5,4.3,4.2,4.5,5.4,6.9c-2.2,2.4-3.6-0.1-5.1-0.9
	c-2.5-1.4-4.6-3.7-7.8-3.5c1.2-6.9-1.9-11.7-7.6-15.3c-3.7-10-2.6-20.6-4.4-30.8c7.5-7.8,9.6-16.8,6.5-27.2c2.9-0.2,3.1-3,4.2-4.7
	c3.5-5.3,4.7-12.5,9.9-16.1c13.8-9.6,29.1-15.4,46.2-15.5c25.3-0.2,50.6,1.1,76,2.1c12.7,0.5,25.5,1.3,38.2,1.6
	c4.7,0.1,9.7,0.4,14.5,1.4c12.6,2.8,24.9,5.9,35.6,13.7C521.3,142.4,522.9,144.3,522.5,147.7z"/>
<path class="st6" d="M158.4,162.1c3-2.4,5.9-4.8,8.9-7.2c-0.1,7.9-2.5,14.8-7.9,20.7c-3.4,3.7-7.2,7.4-4.1,13.2
	c-1.2,1.9-3.6,2.8-3.7,5.9c-0.1,4.9,0.8,9,5,11.7c4.9,3.2,9.6,2,14.1-1.2c2.8,0.3,4.8,2.2,6.9,3.6c3,2,5.9,3.2,9.7,3.4
	c18.8,0.9,33.7-8,48.1-18.3c5.9,1.7,11.9,2.8,18,2.2c1.5,0.1,3,0.2,4.5,0.2c0.3,3.4-1.9,5.2-4.4,6.6c-8.5,4.7-17.4,8.1-27,10.5
	c-21.1,5.2-42.8,6.3-63.9,11.5c-4.1,1-5.5,0.5-4.7-4.2c1.2-7.4-4.9-11.4-9.1-15.8c-2.8-2.9-3.6-5.6-4.9-9.4
	c-4.2-13,3.9-19.6,11.3-27C157,166.6,158.9,165,158.4,162.1z"/>
<path class="st7" d="M257.9,196.3c-1.5-0.1-3-0.2-4.5-0.2c0-1.9-1.7-2.2-2.9-3c-8.5-5.5-13.1-12.9-11.8-23.4c0.3-2.6,1.6-5,1.1-7.7
	c5.3-5.6,12.6-7.8,19.2-11c1.4,0.9,1.9,5.4,4.6,1.2c8.5,0.9,14,5.6,17,13.3c3.3,8.5,1.6,16-4.8,22.5c-1.4,1.4-3.3,2.6-3.2,5
	C268,195.4,262.8,195.1,257.9,196.3z"/>
<path class="st6" d="M284.8,273.5c0,5.2,0.1,10.3,0.1,15.5c-1.7-0.1-2.4-1.3-3.4-2.5c-4.9-5.6-8.9-12.1-15.6-16
	c-23.5-13.8-48.8-21.5-76.2-22.2c-2.3-0.1-5,0.9-6.8-1.5c-0.1-2-0.2-4.1-0.3-6.1c7.8-1.3,15.5,1.1,23.4,1c1.3,0,1.9,0.9,2.2,2.1
	c-5.5,0.6-11.1-0.5-16.5,1.5c15.7,0.7,31.4,1.6,47-0.2c1.2,3.4,4.4,3.4,7.2,4.5c12.1,4.8,24.8,8.7,34,18.8
	C278.8,272.6,281.8,273.1,284.8,273.5z"/>
<path class="st6" d="M170.1,294.6c0.6,14.3,0.7,28.6,0,42.9c-5.1-0.8-10.7-8.6-9.8-14c1.6-9.3,1.6-18.6,1.5-27.9
	c-0.1-8.3-6.6-18-12.6-19c-4.9-6-10.7-10.8-17.9-13.8c-0.1-4.4,1.4-8.5,2.7-12.4c1.4-4.2,6-4.6,9.7-5.4c4.1-0.9,8.3-1.6,12.5-2.3
	c0.4,2.2,0.8,4.5,1.2,6.7c-1.4,0.4-2.8,1-4.3,1.2c-10,1.2-12,5.3-6.5,13.8c0.9,1.4,1.8,2.9,3.1,4c7.9,6.8,14.5,14.6,17.8,24.7
	C168,294.4,169,294.5,170.1,294.6z"/>
<path class="st5" d="M272.6,193c0-2.4,1.8-3.6,3.2-5c6.3-6.5,8.1-14,4.8-22.5c-3-7.7-8.5-12.5-17-13.3c0.2-1.7,0.9-3.2,2-4.4
	c2.5,2,5.4,0.7,8.1,0.8c3.9,0,7.5,1.7,11.3,2.4c3.5,1.7,6.1,4.3,8.8,7c3.1,10.3,0.9,19.4-6.5,27.2C283.3,189.4,278.4,192,272.6,193z
	"/>
<path class="st3" d="M291.8,215.9c5.7,3.5,8.7,8.3,7.6,15.3c-2.4,5-5.6,9-11.7,9.3c0-0.8-0.3-2.2,1.1-1.8c2.8,0.8,1.9-1.1,2-2.4
	c0.5-0.8,0.9-1.6,1.5-2.4c3.5-4.7,2.7-9.9-2.2-13c-3.7-2.4-9.7-0.6-12.1,3.7c-2.4,4.3-0.5,8.6,4.8,11.1c-0.5,1.3-0.9,2.5-1.4,3.8
	c-6.4-2.2-10.2-7.7-9.1-13.4c1.2-6.7,5.9-10.6,12.9-10.7C287.3,215.5,289.5,215.7,291.8,215.9z"/>
<path class="st3" d="M157.5,249.3c-0.4-2.2-0.8-4.5-1.2-6.7c2.5-8.1,6.6-12.1,12.7-12.4c6.3-0.3,10.3,2.7,13.7,10.4
	c0.1,2,0.2,4.1,0.3,6.1c-1.5,3-3.2,5.9-5.6,8.3c-0.6,0.1-1.2,0.1-1.8,0.2c-0.8-1.5-1.6-3.1-2.4-4.6c2.9-0.3,4.2-2,4.5-4.8
	c0.5-4.7-2.6-9.3-7-9.9c-4.7-0.6-9.3,2.5-10,6.9c-0.8,5.2,2,8.8,7.9,10.1c-0.6,1.2-1.3,2.4-1.9,3.5c-0.5,0-1,0-1.5,0
	C161.8,254.8,159.5,252.2,157.5,249.3z"/>
<path class="st5" d="M238.7,245c-15.6,1.8-31.3,0.9-47,0.2c5.3-2.1,11-0.9,16.5-1.5c16.4,0.3,32.8,0.3,48.3-5.9
	c1.5-0.6,5.9,0.2,3.7-4.3c-0.5-1.1,1.2-0.9,2-0.9c2.6-0.1,5.3,0,8.4,0c-1,3-2.9,5-4.5,7.1c-0.3,0.4-0.8,0.8-1.2,1.2
	c-4.6-5.2-8.3,0.8-12.4,1.2C247.8,242.4,243.3,243.9,238.7,245z"/>
<path class="st8" d="M284.8,273.5c-3.1-0.4-6-0.9-5-5.2c0.8-1,1.6-2,3-2.2C285.1,268.1,285.6,270.6,284.8,273.5z"/>
<path class="st3" d="M281.5,239.5c1.1,0.3,3.3-2.9,3.3,1C283.7,240.3,282.4,240.7,281.5,239.5z"/>
<path class="st5" d="M138.1,239.2c-0.2,0.2-0.3,0.3-0.5,0.5C137.8,239.5,137.9,239.4,138.1,239.2
	C138.1,239.2,138.1,239.2,138.1,239.2z"/>
<path class="st9" d="M395.9,313.6c-1.1,2.8-2.6,1-4,0.3c-2.6-1.3-4.5-3.7-8.4-4.4c1.7,4,5,5.1,7.6,6.5c2.6,1.4,3.5,3,2.5,5.8
	c-0.2,7.8,2.3,15.1,3.9,22.5c2.4,11.4,4.1,22.8,3.1,34.6c-0.4,4.4-1.3,8.5-3.3,12.4c-3.6,5.5-9.3,7.7-15.4,8.3
	c-15,1.6-29.3-1.1-42.5-8.3c-10.6-5.9-13.4-12-11.7-24.2c0.7-5.2,1.9-10.4,1.5-15.7c-0.5-5.8-2.2-11-6.9-14.9
	c-5.1-5.7-11.1-7.9-18.6-4.8c-3.6,1.5-7.6,2.2-11.1,3.8c-4.7,2.1-5.9,0.4-5.4-4.1c0.2-1.7,0.1-3.4,0.2-5c11.5-4.2,17-10.8,16.5-19.8
	c5.8-2.9,11.8-5.4,18.3-6.4c5.3-0.5,10.7,1.6,15.9-1c3.9,3.2,7.4,2.3,9.1-2.5c2.1-5.9,2.5-12.3,5.8-17.9c2,0.7,4,1.5,6.5,2.4
	c0-2.2,0-3.9,0-5.7c5.1-0.4,10.2-0.4,15.2-1.2c6.8-1.1,11.7-5.3,11.5-11.9c-0.2-7.6,1.6-10.8,9.3-9.5c1.6,0,3.2,0,4.9,0.1
	c4.8,2.3,10,1.7,15.1,2.4c2.7,0.4,5,0.3,4.6,4.8c-0.3,3.4,2,7.1,3.5,10.5c2.9,6.8,1.5,12.4-4.1,17.1c-3.2,2.6-6.3,5.3-9.5,7.9
	c-2.3,2-4,4.3-5,7.3C403.7,307.7,398.1,309.2,395.9,313.6z M356.3,296.1c0,8.4,5.7,14.3,13.9,14.4c8.1,0.1,14.3-6,14.4-14
	c0.1-8.2-6.5-15.1-14.3-15C362.5,281.6,356.3,288,356.3,296.1z"/>
<path class="st9" d="M287.6,240.5c6.1-0.3,9.3-4.3,11.7-9.3c3.2-0.2,5.3,2.2,7.8,3.5c1.5,0.8,2.9,3.3,5.1,0.9
	c6.9,4.6,13.1,9.9,19.3,15.3c1.6,1.4,2.8,3.7,5.6,3c0,0,0,0,0,0c1.8,5.5,7,8.3,10.1,12.7c2.4,3.4,6.6,5.9,3.7,11
	c-1.3,5.1-3.6,5.1-7.1,1.7c-2.5-2.4-4.9-4.7-6.1-8c-4.6-12.3-15-19.4-24.5-27.4c-0.6-0.5-1.4-0.3-1.8,0.5c0.6,1.7,2.2,2.5,3.5,3.5
	c9,7.4,17.8,15.1,22.1,26.5c1.1,2.9,3.3,5.3,6,6.6c5.7,2.9,4.2,7.1,3.2,11.9c-0.9,4.9-4,5.7-7.9,6c-5.3-2.4-10.5-0.4-15.8,0
	c-3.4-2-6.3,0.3-9.3,1.2c-3.4,1-6.6,2.4-9.9,3.7c-2.4-8.1-5.4-15.9-10.2-22.9c-1.4-2-2.8-4-5.4-4.6c-0.4-1.3,0.5-2.1,1-3.1
	c2.3-0.7,4.6-1.6,6.1-3.6c2.4-3.1,3.2-6.5,0.7-9.8c-2.7-3.5-5.3-0.7-7.8,0.6C287.6,253.8,287.6,247.1,287.6,240.5z"/>
<path class="st10" d="M175.6,255.1c0.6-0.1,1.2-0.1,1.8-0.2c3.4,0.3,6.5,1.5,10,1.3c8.8-0.6,17.6,0.3,26.2,2.2
	c20.5,4.5,39.8,11.3,53.8,28.1c4.4,5.3,7.9,11.3,9.8,18.1c-2.7-0.4-4.4-3.4-8.1-3c3.9,5,9.3,6.4,14.3,8.5c-2.9,1.5-4.8,4.2-7.1,6.4
	c-7.4,6.7-16.4,10.7-25.5,14c-9.4,3.4-19.5,5-29.6,5.9c-2.8,0.3-5,3.1-8,1.9c-3.2-1.2-5.8-0.3-8.3,1.6c-1.1,0-2.2,0-3.4,0
	c-9.5-2.3-19-4.6-28.5-6.8c-0.9-15.5-0.6-30.9,0-46.4c1.2,0.1,2.2,0.5,2.7,1.7c3.2,7.7,4.6,15.8,3.8,24.1c-0.6,5.4-1.8,11,0.4,16.1
	c1.8,4.2,17.5,9.3,21.9,7.6c10.8-4.2,22.2-6.4,33.1-10c6.4-2.1,12.6-5.2,18-9.3c7-5.3,7.4-9.8,2.6-17.2c-1.7-2.5-3-5.3-4.9-7.5
	c-4.3-5-9.1-9.2-15.7-10.8c-2.2-6.2-6.7-10.2-13.1-11.4c-4.4-0.9-8.9-0.4-13.3,0.3c-0.7-1.6-2.1-2.4-3.5-2.5
	c-10.6-1-21.2-2.7-31.9-0.3C171.5,262.8,172.3,258.7,175.6,255.1z"/>
<path class="st11" d="M172.9,267.4c10.6-2.4,21.3-0.7,31.9,0.3c1.4,0.1,2.9,0.9,3.5,2.5c-4.9,1.7-9.5,3.8-12,8.8
	c-5.1-0.2-10.1-0.5-15.1,0.8c-3.1,0.8-3.3,2.1-2.5,4.8c1,3.8,2.8,7.3,3.7,11.2c2.3,8.9,0.7,17.8,0.9,26.7c0.2,6.2,8.5,12.4,14.2,10
	c4.3-1.9,9-2.4,13.2-4.3c8.9-4.1,19.5-4.7,26.8-12.5c6.1-6.5,3.9-15.5-5.1-19c3.2-4.8,3.8-9.9,2.2-15.4c6.6,1.6,11.5,5.8,15.7,10.8
	c1.9,2.3,3.3,5,4.9,7.5c4.9,7.4,4.4,11.9-2.6,17.2c-5.4,4.1-11.6,7.2-18,9.3c-10.9,3.6-22.3,5.9-33.1,10c-4.4,1.7-20.2-3.4-21.9-7.6
	c-2.1-5.1-1-10.6-0.4-16.1c0.9-8.3-0.6-16.4-3.8-24.1c-0.5-1.2-1.5-1.6-2.7-1.7C172.1,280.3,172.1,273.8,172.9,267.4z"/>
<path class="st12" d="M277.2,304.6c-1.8-6.8-5.3-12.7-9.8-18.1c-14-16.8-33.3-23.6-53.8-28.1c-8.7-1.9-17.4-2.8-26.2-2.2
	c-3.5,0.2-6.7-1-10-1.3c2.4-2.4,4.1-5.3,5.6-8.3c1.8,2.5,4.5,1.5,6.8,1.5c27.3,0.8,52.6,8.5,76.2,22.2c6.7,3.9,10.6,10.4,15.6,16
	c1,1.2,1.7,2.4,3.4,2.5c0.1,4.3,0.2,8.6,0.2,12.9c0,6.3-0.5,6.6-6.1,4C278.4,305.5,277.8,305.1,277.2,304.6z"/>
<path class="st0" d="M201.4,339.9c1.1,0,2.2,0,3.4,0c1.3,1.6,3.1,1.1,4.7,1.1c7.3,0,14.6,0.2,21.9-1.1c13.2-2.4,26.7-3.3,39-10
	c4.7-2.6,9.1-6,14.5-7c0,19,3.4,13.7-13.7,18.9c-2.1,0.7-4.3,1.1-6.5,1.6c-17.3,2.9-34.6,3.9-52.1,2.4c-6.3-0.5-12.7-0.1-19.1-0.1
	c-4.8,0.4-9.7,0.8-14.5,1.3c-7,0.7-7,0.7-6.9-6.6c0-0.9,0.1-1.9,0.2-2.8c8.5,3.5,17.8,2.7,26.6,4.4
	C200.4,342.3,201.2,341.4,201.4,339.9z"/>
<path class="st12" d="M284.9,322.9c-5.5,1-9.9,4.4-14.5,7c-12.2,6.7-25.8,7.6-39,10c-7.3,1.3-14.6,1.1-21.9,1.1
	c-1.6,0-3.4,0.5-4.7-1.1c2.5-1.9,5.2-2.8,8.3-1.6c3,1.2,5.2-1.7,8-1.9c10.1-0.9,20.1-2.5,29.6-5.9c9.1-3.3,18.1-7.3,25.5-14
	c2.4-2.1,4.2-4.9,7.1-6.4C287.2,313.9,284.3,318.6,284.9,322.9z"/>
<path class="st0" d="M149.2,276.6c6,1.1,12.5,10.7,12.6,19c0.2,9.3,0.1,18.7-1.5,27.9c-0.9,5.4,4.7,13.3,9.8,14
	c0.1,0.5,0.4,1.1,0.3,1.6c-0.4,2.4,1.6,6.1-1.2,7.1c-2.9,1.1-5.7-1.5-7.8-3.7c-6-6.3-7-14.5-7.3-22.6c-0.3-6.7,0.4-13.5,0.7-20.3
	C155.3,291.5,153.7,283.7,149.2,276.6z"/>
<path class="st12" d="M157.5,249.3c2,2.9,4.3,5.5,7.7,7c-0.8,1.8-2.4,2.1-4.2,2.2c-3.8,0.1-4.4,3-3.4,5.5
	c2.7,7.3,7.2,13.7,12.6,19.3c0.6,3.8,0.6,7.6,0,11.3c-1.1-0.1-2.2-0.2-2.6-1.6c-3.3-10.1-9.9-17.9-17.8-24.7c-1.2-1.1-2.2-2.6-3.1-4
	c-5.5-8.5-3.5-12.6,6.5-13.8C154.6,250.3,156,249.7,157.5,249.3z"/>
<path class="st6" d="M287.6,276.4c2.6,0.6,4,2.6,5.4,4.6c4.8,7,7.8,14.8,10.2,22.9c-14.6,7.3-15.9,6.6-15.8-9
	C287.4,288.7,287.5,282.6,287.6,276.4z"/>
<path class="st11" d="M170.1,283.3c-5.4-5.7-9.9-12-12.6-19.3c-0.9-2.6-0.4-5.4,3.4-5.5c1.8-0.1,3.3-0.4,4.2-2.2c0.5,0,1,0,1.5,0
	c5.6,2.6,3.8,7.7,3.8,12C170.5,273.3,170.3,278.3,170.1,283.3z"/>
<path class="st6" d="M304.1,306.4c0.4,9.1-5.1,15.7-16.5,19.8c0-4.7-1.3-9.8,0.2-13.8c1.6-4.3,7.9-2,11.6-4.3
	C300.8,307.3,302.5,307,304.1,306.4z"/>
<path class="st13" d="M282.6,235.8c-5.3-2.5-7.1-6.9-4.8-11.1c2.4-4.3,8.4-6.1,12.1-3.7c4.8,3.2,5.7,8.3,2.2,13
	c-0.6,0.7-1,1.6-1.5,2.4c-1.3-2-2.6-4-4-6.1C284.3,231.4,284.1,234.1,282.6,235.8z"/>
<path class="st13" d="M168.6,252.8c-5.8-1.2-8.6-4.8-7.9-10.1c0.6-4.3,5.3-7.5,10-6.9c4.3,0.6,7.5,5.1,7,9.9
	c-0.3,2.8-1.7,4.5-4.5,4.8C169.3,246.6,170.3,252.4,168.6,252.8z M171.8,244.4c-0.1-1.2-0.7-2.3-2.1-2.6c-1.7-0.3-2.9,0.5-3.1,2.3
	c-0.2,1.8,0.9,2.8,2.6,2.9C170.6,246.9,171.5,246,171.8,244.4z"/>
<path class="st2" d="M193.5,345.7c6.4,0,12.8-0.4,19.1,0.1c17.5,1.5,34.8,0.5,52.1-2.4c0,0.6,0,1.3,0,1.9c-14.4,3.3-29,3.7-43.7,3.3
	c-9.2-0.3-18.4-0.7-27.6-1C193.5,346.9,193.5,346.3,193.5,345.7z"/>
<path class="st12" d="M201.4,339.9c-0.2,1.6-1.1,2.4-2.6,2.1c-8.8-1.7-18.1-0.9-26.6-4.4c-0.3-1.6-0.3-3.1,0.7-4.6
	C182.4,335.3,191.9,337.6,201.4,339.9z"/>
<path class="st8" d="M287.6,260.5c2.5-1.3,5.1-4.1,7.8-0.6c2.5,3.3,1.8,6.7-0.7,9.8c-1.6,2-3.8,2.9-6.1,3.6
	C285.7,269.3,289.3,264.7,287.6,260.5z"/>
<path class="st2" d="M322.5,299c5.3-0.4,10.5-2.4,15.8,0c0,0,0-0.1,0-0.1c-5.1,2.7-10.6,0.5-15.9,1
	C322.4,299.7,322.4,299.4,322.5,299z"/>
<path class="st0" d="M293.9,157.9c-2.6-2.7-5.3-5.3-8.8-7c1.2-7.5,6.8-12.9,9.9-19.5c6.7-14.5-0.3-32.6-15.3-39.9
	c-4.6-2.2-10.1-3-15,0.7c-0.6-0.3-1.1-0.7-1.7-1c-1.1-4.6,3.1-4.7,5.4-5.5c7-2.5,14-1.4,20.9,0.6c17.3,5.1,33.5,13,50.5,18.7
	c7.7,2.6,15.4,4.9,23.2,7.4c10.2,1.2,20.4,2.5,30.6,3.4c6.6,0.6,13.3,0.3,20,1c13.7,1.5,27.5,1.6,41.2,2.2c3.3,0.1,6.3,2.6,9.8,1.2
	c4.9,0.3,9.7,2,14.6,1.6c13.7,4.6,27.3,3.2,41-0.6c7.4-2.1,14.9-3.6,22.5-4.8c4.5-0.7,9.2-0.6,13.2,1.2c5.2,2.2,6.7,7.7,5.1,14.6
	c-1.4,1.5-2.8,3.1-4.3,4.6c-0.2,0.1-0.4,0.2-0.5,0.5c-5.9,2.6-12,4.2-18.4,4.7c-5.7,0.4-10.2,4.2-15.5,5.7c0.4-3.4-1.3-5.3-4-7.3
	c-10.7-7.8-23.1-11-35.6-13.7c-4.8-1-9.7-1.3-14.5-1.4c-12.8-0.3-25.5-1.1-38.2-1.6c-25.3-0.9-50.6-2.2-76-2.1
	c-17.1,0.1-32.5,5.9-46.2,15.5c-5.1,3.6-6.3,10.8-9.9,16.1C296.9,154.9,296.8,157.7,293.9,157.9z"/>
<path class="st14" d="M260.3,104.7c0.8,6.8,0.8,13.5,0,20.3c-2.4,0.1-3.6,1.7-4.7,3.5c-9.9,15.4-23,28.5-32.5,44.2
	c-1.9,3.2-5,4.6-8.6,2c-8.2-5.8-12-24.9-6.3-33.2c6.9-10.1,17.1-16.7,26.5-24c2.2-1.7,4.4-2.9,4.1-6.1c0.4-0.4,0.8-0.8,1.1-1.1
	c2.4,0.1,4.3-0.5,4.5-3.4C249.3,103.6,254.6,102.4,260.3,104.7z"/>
<path class="st12" d="M235.3,193.9c-14.4,10.3-29.3,19.2-48.1,18.3c-3.8-0.2-6.7-1.4-9.7-3.4c-2.1-1.4-4.1-3.3-6.9-3.6
	c3.9-6.5,3.9-11.3,0-15.4c-3.9-4.1-8.5-4.4-15.4-1c-3.1-5.8,0.7-9.5,4.1-13.2c5.4-5.9,7.8-12.8,7.9-20.7c3.7-4.9,5.9-10.7,8-16.4
	c3.1,0.5,4.8-1.7,6.5-3.6c5-5.4,11.6-8.1,18-10.9c8.7-3.9,18.6-4.9,26.7-10.4c1.6-1.1,3.5-1.1,5.4-1c-0.4,0.8-0.7,1.5-1.1,2.3
	c0,0,0,0,0,0c-8.4,4.4-17,8.6-25.3,13.3c-14.1,7.9-25.1,18.4-26.5,35.7c-0.4,5.3-1.7,11,1.3,16c2.5,4.2,5.2,8.3,8.4,12
	c9,10.3,20.1,14.9,31.7,2c2.3-2.5,4.2-5.9,8.1-6.6C230.8,189.4,233.1,191.7,235.3,193.9z"/>
<path class="st11" d="M238.7,111.5c0.3,3.2-1.9,4.4-4.1,6.1c-9.4,7.3-19.6,13.9-26.5,24c-5.7,8.3-1.9,27.4,6.3,33.2
	c3.6,2.6,6.7,1.1,8.6-2c9.6-15.7,22.6-28.8,32.5-44.2c1.2-1.8,2.3-3.4,4.7-3.5c1.1,5.9,0.3,11.8,0.5,17.7c0,0.7-0.2,2-0.5,2
	c-5.7,1-1,4.2-1.3,6.3c-6.6,3.3-13.9,5.5-19.2,11c-7,4.2-12.4,9.5-12.6,18.4c-5.2-0.4-5.7,4.8-8.6,7.2c-4.3,3.7-9.7,4.4-13.5,0.3
	c-4.7-5.1-9-10.7-11.5-17.1c-5.8-14.7-1.6-27.1,11.6-36.9c7-5.2,14.6-9.7,21.9-14.4c1.8-1.2,3.5-2.3,3.6-4.6c0,0,0,0,0,0
	C234.1,115.3,235.9,112.2,238.7,111.5z"/>
<path class="st12" d="M263.1,91.2c0.6,0.3,1.1,0.7,1.7,1c1.1,1.4,2.7,1.8,4.3,2.3c7.1,2.2,11.9,6.7,15.2,13.6
	c5.1,10.6,1.4,19.4-4.2,28.2c-2.5,3.9-6,7.3-6.3,12.2c-2.7-0.1-5.6,1.2-8.1-0.8c0.8-2.5-0.9-2.4-2.5-2.4c0,0-0.1,0.1-0.1,0.1
	c0-2.6,0-5.3,0-7.9c1.1-0.1,2.4,0,3-1.1c3.1-5.1,6.7-10,8.4-15.7c2.8-9-3.4-19.6-11.5-20.6C263.1,97.1,263.1,94.2,263.1,91.2z"/>
<path class="st6" d="M231.9,112.6c-1.9-0.1-3.8-0.1-5.4,1c-8.1,5.6-18,6.6-26.7,10.4c-6.4,2.8-13,5.5-18,10.9
	c-1.7,1.9-3.4,4.1-6.5,3.6c2.5-13.5,7.1-18.3,21-21.3c7.7-1.6,15.5-2.6,23.1-4.3c11.8-2.7,21.5-9.3,31.1-16.3c3-2.2,6.1-4.3,9.2-6.5
	c1.7,1.9,1,3.6,0.5,5.4c-6.9,3.1-13.8,6-19.3,11.4c-0.4,0.4-0.8,0.8-1.1,1.1C236.8,108.8,234.4,110.7,231.9,112.6z"/>
<path class="st11" d="M263.1,100.1c8.1,1,14.3,11.5,11.5,20.6c-1.8,5.7-5.3,10.6-8.4,15.7c-0.7,1.1-1.9,1-3,1.1
	C262.6,125,262.6,112.6,263.1,100.1z"/>
<path class="st10" d="M241,106.9c5.5-5.4,12.4-8.3,19.3-11.4c0.8,3,0.7,6.1,0,9.1c-5.7-2.3-11-1.1-15.9,2.3
	C243.3,107,242.1,106.9,241,106.9z"/>
<path class="st11" d="M263.1,145.3C263.1,145.3,263.2,145.3,263.1,145.3C263.1,145.3,263.1,145.3,263.1,145.3z"/>
<path class="st9" d="M537.7,306.4c-0.4,0.3-0.8,0.6-1.2,0.9c-0.7,0.5-1.3,1-2,1.5c-1.2,0.7-2.4,1.4-3.6,2.1
	c-11.7,6-24.2,9.5-37.4,9.6c-17.9,0.2-28-7.3-33.3-24.5c-1.8-5.9-3.5-11.9-5.3-17.8c-3.9-12.7-12.4-20.5-25.4-22.8
	c-4.3-0.8-5.7-2.2-3.8-6.2c2.4,0.1,4.9,0.1,7.3,0.3c13.1,0.7,21.5-6.4,28.8-16.3c5-6.8,8.4-14.7,13.5-21.4c3.2-4.3,5-8.8,4.3-14.1
	c3.3-1.6,5.8-4.1,9-7.6c0.3,8,1.2,14.9-0.6,22.1c-2.3,9.2,0.2,17.1,8.4,22.6c4.2,4,9.6,5.7,14.8,7.8c11.1,4.5,21.2,10.5,28.3,20.5
	c8.8,12.2,11,24.8,3.1,38.3c-0.2,0.1-0.4,0.2-0.5,0.5c-0.3,0.4-0.7,0.8-1,1.2c-0.4,0.4-0.7,0.8-1.1,1.2c-0.4,0.4-0.8,0.8-1.1,1.1
	C538.5,305.7,538.1,306,537.7,306.4z M524.3,266.4c-0.2,3.9,1.9,6.7,3,9.7c3.8,11.2,2,17.4-7.4,24.5c-5.9,4.4-12.6,7.4-19.5,10.1
	c-1.7,0.7-4,0.8-5.1,3.1c6.9-0.3,21.2-7.2,28.2-13.3C533.8,291.6,534.3,277.4,524.3,266.4z"/>
<path class="st10" d="M421.9,220c-1.7-0.4-3.3-0.4-1.6,1.9c1.4,1.8,3.6,3.1,4.1,5.5c-1.6,2.2-4.1,2.3-6.4,2.7
	c-12.7,2.2-25.5,2.9-38.4,3.6c-5.8,0.3-11.9-2.2-17.4,1.4c-1-0.5-2-1-2.9-1.6c-11-6.8-22-13.5-35.7-12.8c-0.3-2.4-2.2-3.2-3.8-4.5
	c-8.8-7.3-14.7-15.8-12.2-28.2c1.1-5.5,1.9-11,2.8-16.6c1.2-7.9,2.2-16,8.6-22.7c4.8-5,10.6-6.3,16.1-8.4c7.9-3,16.2-6.1,25-4.3
	c-6.1,4.5-6.2,5-1.8,11.2c-5.1,2.5-11.2,2.8-15.3,7.7c-4.9,5.9-9.3,12.2-15.2,17.2c-4.6,3.8-6.1,8.8-6.4,14.4
	c-0.1,2.2,0.1,4.6-0.5,6.7c-1.3,4.8,0.6,8.4,3.3,11.9c3.6,4.5,8.5,7.2,13.9,9.2c17,6.4,34,1.7,51,0.4c3.9-0.3,7.8-1.3,10.9-4
	c5.4-4.8,12.3-5.9,18.8-7.7c6.4-1.8,13.5-1.9,17.9-8.1c4.1,1.8,8.3,3.7,12.4,5.5c0.1,1.6-0.9,2.7-1.9,3.9
	C440,211.8,431.9,217.4,421.9,220z"/>
<path class="st9" d="M462.2,309.8c-4-2.4-8-4.9-12.1-7.2c-7.1-3.9-14.6-4.5-22.4-2.8c-6.6,1.4-13.1,2.7-19.9,4
	c0.1-3.3,2-4.9,3.9-6.5c2.8-2.5,5.9-4.7,8.7-7.2c8-7.1,8.8-11.5,5-21.5c-1.3-3.5-5.3-7.7-2.1-10.8c2.8-2.8,7.3,0.2,11,1.3
	c11,3.1,16.2,11.6,19.4,21.7c3,9.5,4.8,19.4,9.8,28.2C462.9,309.1,462.5,309.4,462.2,309.8z"/>
<path class="st6" d="M479.6,197.6c0.7,5.4-1.1,9.9-4.3,14.1c-5.1,6.7-8.4,14.6-13.5,21.4c-7.2,9.8-15.7,17-28.8,16.3
	c-2.4-0.1-4.9-0.2-7.3-0.3c0.8-4.9,1.7-9.7,2.5-14.6c3.1,0.5,6.2,0,8.4-1.9c5.7-4.9,12.2-9,15.8-16.1c4.6-0.8,3-5.4,4.8-7.9
	c2.4,0.3,3.5-1.3,4.8-3c2.2-2.9,3.2-6.7,6.8-8.6C472.4,197.3,475.9,198.4,479.6,197.6z"/>
<path class="st12" d="M362.1,235.2c5.5-3.6,11.6-1.1,17.4-1.4c12.9-0.7,25.7-1.4,38.4-3.6c2.4-0.4,4.8-0.6,6.4-2.7
	c2.5,4.6,1.2,9.3,0.6,14c-2.3-0.7-4.7-1.4-7.2-1.1c-12.7,1.6-25.4,2.4-38.1,2.3c-1.5,0-3.1-0.3-4.1,1.2
	C371,240.9,366.6,238.1,362.1,235.2z"/>
<path class="st12" d="M452.4,216.5c-3.5,7-10.1,11.1-15.8,16.1c-2.2,1.9-5.3,2.4-8.4,1.9c0.6-6-2.5-10.4-6.4-14.5
	c10-2.6,18.2-8.2,25.2-15.6c1.1-1.1,2-2.2,1.9-3.9c7,1.6,7.4,2.2,5.5,9C453.8,211.9,453.1,214.2,452.4,216.5z"/>
<path class="st6" d="M375.5,243.8c1.1-1.4,2.7-1.2,4.1-1.2c12.8,0.1,25.5-0.7,38.1-2.3c2.5-0.3,4.8,0.4,7.2,1.1
	c-2.6,12.1-2.6,12-14.9,11.2c-3.2-0.2-6.4,0.1-9.5,0.2c-1.6,0-3.2,0-4.9-0.1c-0.6-1.8-2.1-2-3.6-1.9
	C385.2,251.7,380.2,248.1,375.5,243.8z"/>
<path class="st9" d="M463.3,308.8c0,0.4,0,0.9,0,1.3c-0.4-0.1-0.8-0.2-1.2-0.4C462.5,309.4,462.9,309.1,463.3,308.8z"/>
<path class="st13" d="M434.3,332.7c-0.2,6.2-6,11.8-12.1,11.6c-6.2-0.2-11.8-6-11.6-12.1c0.2-6.2,6-11.8,12.1-11.6
	C428.9,320.8,434.5,326.6,434.3,332.7z"/>
<path class="st14" d="M443.4,184.8c-1.1,0-2.2-0.1-2.7,1.2c-2.9-0.8-4.7,1.7-7.2,2.2c-3.2-3-3.2-7.9-6.9-11.3
	c-0.8,3.5,1.5,5.5,1.8,8c-12.7,1.8-23.9-3.3-35.1-8.1c-8.2-3.5-12.9-9.4-12.2-18.8c7.2-0.2,11.9-3.9,14.5-10.5
	c7.4,0.8,14.5-1.7,21.7-2c16.1-0.7,32.2-1.8,48.4-1.4c5.5,0.1,10.7,1.5,16,2.6c2.2,0.5,3.7,1.7,3.4,4.3c0,0.4,0,0.7,0,1.1
	c-1.9,0.1-2.3,1.4-2.3,3c0.1,2.1-1,3.4-2.9,4.1c-2.9-0.8-4.4-4.6-9.1-4c2.7,2.3,4.7,4.1,6.8,5.8c-6.6,3.9-12.8,8.2-19.7,11.7
	C452.4,175.6,446.7,178.9,443.4,184.8z"/>
<path class="st12" d="M360,136.2c-8.9-1.8-17.1,1.3-25,4.3c-5.6,2.1-11.4,3.4-16.1,8.4c-6.4,6.7-7.4,14.8-8.6,22.7
	c-0.8,5.5-1.7,11.1-2.8,16.6c-2.5,12.4,3.4,20.9,12.2,28.2c1.6,1.3,3.5,2.2,3.8,4.5c-0.2,2.3-0.2,2.5,1.7,2.4
	c12.4-0.3,22.4,5.8,32.4,12c-1.5,2.5-4.1,1.7-6.1,1.6c-16.4-1.4-31.6-6.1-43.8-17.7c-10.1-9.6-12.8-21.9-10.6-35
	c2.3-13.6,7.9-26.1,15.3-37.8c1.3-2.1,3.1-3.7,5.4-4.8c14.7-7.7,30.5-10.7,46.9-12c21.2-1.7,42.5-1.3,63.7-0.9
	c19.2,0.4,38.4,0.1,57.4,3.2c4.9,0.8,9.5,2.4,13.7,4.9c2,1.2,4.4,2.4,4.1,5.5c-0.1,0.8,0.5,1.9,1.1,2.5c1.8,1.9,6.1,2.1,2.9,7
	c-1.6,2.5-2.3,5.4-5.1,7.3c-4.4,3.1-8.5,6.7-12.7,10.2c-0.6-0.7-1.3-1.3-1.9-2c-0.5-0.9-1-1.7-1.5-2.6c5.9-0.5,9.7-5,13.7-8.2
	c2.1-1.7-1.9-5.7-3.2-8.6c-0.1-0.2-0.1-0.4-0.1-0.5c-1.2-7.7-6.8-10.5-13.5-12.1c-10.5-2.5-21.3-1-31.9-2
	c-13.5-1.2-27.1-0.7-40.6-0.1c-6.4,0.3-13.1,0-19.4,2.2C380.7,129.8,370.3,131.3,360,136.2z"/>
<path class="st11" d="M443.4,184.8c3.3-5.9,9-9.3,14.7-12.2c6.8-3.5,13.1-7.8,19.7-11.7c1.7,0.8,3.2,1.9,4.3,3.5
	c-6.6,4.5-13.4,8.8-19.7,13.6c-3.6,2.8-7.3,6-8.9,10.7C449.9,187.7,446.4,186.9,443.4,184.8z"/>
<path class="st6" d="M487.7,171.2c-0.2,5.7,0.7,11.6-1.4,16.9c-2.4,6.2-7.3,7.9-14.7,6.7c1.3-4,2.4-8.2,4-12.1
	C477.9,177.2,481.1,172.4,487.7,171.2z"/>
<path class="st10" d="M453.3,188.8c1.7-4.7,5.3-7.8,8.9-10.7c6.3-4.9,13.1-9.1,19.7-13.6c1.5,0.9,2.9,2,3.1,4
	c-10.2,4.3-17.7,11.2-21.5,21.8c-0.2,0.6-0.9,1.1-1.4,1.6C459,191.5,456.2,190.1,453.3,188.8z"/>
<path class="st12" d="M462.2,191.9c0.5-0.5,1.2-1,1.4-1.6c3.8-10.6,11.3-17.5,21.5-21.8c0.7,0.3,1.5,0.6,2.2,0.9
	c0.1,0.6,0.3,1.2,0.4,1.8c-6.6,1.2-9.9,6-12.1,11.6c-1.6,3.9-2.7,8.1-4,12.1C468.3,194.5,465.1,193.5,462.2,191.9z"/>
<path class="st10" d="M468.8,197.1c-3.5,1.8-4.6,5.7-6.8,8.6c-1.3,1.7-2.4,3.3-4.8,3c1.1-6.9,0.4-8-6.2-10.2
	c-1.1-0.3-2.1-0.8-3.1-1.2c0.4-2.9,2.6-4.3,4.8-5.7C458.1,193.4,463.4,195.2,468.8,197.1z"/>
<path class="st11" d="M452.7,191.5c-2.2,1.4-4.4,2.8-4.8,5.7c-5.7-1.5-10.9-3.8-14.4-8.9c2.5-0.5,4.3-3,7.2-2.2
	C444.7,187.9,448.7,189.7,452.7,191.5z"/>
<path class="st2" d="M487.3,169.4c-0.7-0.3-1.5-0.6-2.2-0.9c-0.2-2-1.5-3.1-3.1-4c-1.1-1.6-2.6-2.7-4.3-3.5c-2-1.7-4-3.5-6.7-5.8
	c4.7-0.6,6.2,3.1,9.1,4c1.7,1.4,3.4,2.9,5.1,4.3c0.4,0.4,0.7,0.7,1.1,1.1c0.5,0.9,1,1.7,1.5,2.6
	C487.6,167.9,487.4,168.7,487.3,169.4z"/>
<path class="st0" d="M514.8,153.4c-1.6-1-1.2-2.2,0.1-2.9c1.4-0.8,2.9-2.7,4.5-0.1C517.9,151.4,516.3,152.4,514.8,153.4z"/>
<path class="st13" d="M91.3,223.4c-5.4,0.1-11-5.5-10.9-10.9c0.1-5.1,5.5-10.5,10.6-10.6c5.4-0.1,11,5.5,10.9,10.9
	C101.8,217.9,96.4,223.3,91.3,223.4z"/>
<path class="st0" d="M328,244.7c0.4-2.5,2-1.5,3.4-1.1c12.6,2.8,25.6,2.6,38.3,4.7c2,0.3,3.7-0.6,5.3-1.4c1.1,0.7,2.2,1.3,3.3,2.1
	c6.3,4.5,7.5,7.6,5.8,14.2c-1.6,6.1-5.9,8.8-11.9,9.2c-4.5,0.3-9,0.5-13.4,0.8c-0.3-0.8-0.6-1.7-0.9-2.5c-4.2,4-4.8-1-6.6-2.7
	c-4.9-4.6-7.8-11.1-14.3-14c0,0,0,0,0,0C334.7,250.2,331.1,247.7,328,244.7z"/>
<path class="st1" d="M358.8,273.1c4.5-0.3,9-0.5,13.4-0.8c6-0.4,10.3-3.1,11.9-9.2c1.7-6.7,0.5-9.7-5.8-14.2
	c-1.1-0.8-2.2-1.4-3.3-2.1c-5.5-4.3-11.3-8.1-17.5-11.5c-10-6.3-20-12.3-32.4-12c-1.8,0-1.9-0.2-1.7-2.4c13.7-0.7,24.7,6,35.7,12.8
	c0.9,0.6,1.9,1.1,2.9,1.6c4.5,2.9,8.9,5.7,13.4,8.6c4.7,4.3,9.7,7.9,16.6,7.1c1.5-0.2,3,0,3.6,1.9c-7.8-1.4-9.6,1.9-9.3,9.5
	c0.2,6.6-4.8,10.9-11.5,11.9c-5,0.8-10.1,0.8-15.2,1.2C358.9,274.8,358.6,274,358.8,273.1z"/>
<path class="st5" d="M328,244.7c3.1,3,6.7,5.5,9.1,9.3c-2.8,0.7-4-1.6-5.6-3c-6.2-5.4-12.4-10.8-19.3-15.3c-1.2-2.4-4.9-2.6-5.4-6.9
	C315.1,233.4,321.1,239.7,328,244.7z"/>
<path class="st8" d="M155.2,188.8c6.9-3.4,11.5-3.1,15.4,1c3.9,4.1,3.9,8.9,0,15.4c-4.5,3.1-9.1,4.4-14.1,1.2
	c-4.2-2.8-5.1-6.9-5-11.7C151.6,191.5,154,190.7,155.2,188.8z"/>
<path class="st5" d="M227.2,180.4c0.2-8.9,5.6-14.2,12.6-18.4c0.5,2.7-0.8,5.1-1.1,7.7c-1.3,10.5,3.3,17.9,11.8,23.4
	c1.2,0.8,2.8,1.1,2.9,3c-6.2,0.6-12.2-0.5-18-2.2c-2.3-2.2-4.5-4.5-6.8-6.7C228.1,184.9,227.7,182.7,227.2,180.4z"/>
<path class="st6" d="M273.8,148.5c0.3-5,3.8-8.4,6.3-12.2c5.7-8.8,9.3-17.5,4.2-28.2c-3.3-7-8.1-11.4-15.2-13.6
	c-1.6-0.5-3.2-0.9-4.3-2.3c4.8-3.7,10.4-2.9,15-0.7c15,7.3,22,25.4,15.3,39.9c-3.1,6.6-8.7,11.9-9.9,19.5
	C281.3,150.2,277.7,148.5,273.8,148.5z"/>
<path class="st3" d="M356.3,296.1c0-8.1,6.2-14.6,14-14.7c7.8-0.1,14.4,6.8,14.3,15c-0.1,8-6.4,14.1-14.4,14
	C362,310.5,356.2,304.5,356.3,296.1z M380.1,296.2c0-6.4-3.2-9.5-9.6-9.5c-6.5,0-9.6,3.1-9.6,9.5c0,6.7,3.1,9.8,9.9,9.8
	C377,305.9,380.1,302.6,380.1,296.2z"/>
<path class="st1" d="M338.3,299C338.3,299,338.2,299.1,338.3,299c3.9-0.2,7-1,7.9-5.9c0.9-4.8,2.5-9-3.2-11.9
	c-2.6-1.4-4.9-3.7-6-6.6c-4.3-11.5-13-19.1-22.1-26.5c-1.3-1-2.9-1.8-3.5-3.5c0.4-0.9,1.2-1.1,1.8-0.5c9.5,7.9,19.9,15,24.5,27.4
	c1.2,3.2,3.6,5.6,6.1,8c3.5,3.3,5.8,3.4,7.1-1.7c0.9,0.1,1.7,0.1,2.2,1.1c-3.2,5.5-3.7,12-5.8,17.9
	C345.6,301.3,342.1,302.2,338.3,299z"/>
<path class="st5" d="M353.1,278.6c-0.4-0.9-1.3-1-2.2-1.1c2.9-5.1-1.3-7.6-3.7-11c-3.2-4.4-8.4-7.2-10.1-12.7
	c6.5,2.9,9.4,9.5,14.3,14c1.8,1.7,2.4,6.7,6.6,2.7c0.3,0.8,0.6,1.7,0.9,2.5c-0.2,0.9,0.1,1.7,0.8,2.3c0,1.7,0,3.5,0,5.7
	C357.1,280.1,355.1,279.4,353.1,278.6z"/>
<path class="st8" d="M234.7,281.3c1.6,5.5,1,10.6-2.2,15.4c-7.8,7.1-21.5,8.1-30.9,2.3c-6.2-3.8-7.8-10.1-5.3-20.1
	c2.5-5,7.1-7.1,12-8.8c4.4-0.8,8.9-1.2,13.3-0.3C228,271.1,232.4,275,234.7,281.3z"/>
<path class="st14" d="M196.3,279c-2.6,10-0.9,16.3,5.3,20.1c9.4,5.8,23.1,4.8,30.9-2.3c8.9,3.5,11.1,12.5,5.1,19
	c-7.3,7.8-17.8,8.4-26.8,12.5c-4.2,1.9-8.9,2.4-13.2,4.3c-5.7,2.5-14.1-3.8-14.2-10c-0.2-8.9,1.3-17.8-0.9-26.7
	c-1-3.9-2.7-7.4-3.7-11.2c-0.7-2.8-0.5-4,2.5-4.8C186.2,278.5,191.2,278.8,196.3,279z"/>
<path class="st15" d="M171.8,244.4c-0.3,1.7-1.2,2.6-2.6,2.5c-1.7-0.1-2.8-1.1-2.6-2.9c0.2-1.7,1.4-2.6,3.1-2.3
	C171.2,242,171.8,243.1,171.8,244.4z"/>
<path class="st10" d="M231.9,112.6c2.4-1.9,4.9-3.7,7.9-4.5c0,0.8,0,1.5,0,2.3c-0.4,0.4-0.8,0.8-1.1,1.1c-2.8,0.8-4.6,3.8-7.9,3.4
	C231.2,114.1,231.6,113.3,231.9,112.6z"/>
<path class="st11" d="M239.9,110.3c0-0.8,0-1.5,0-2.3c0.4-0.4,0.8-0.8,1.1-1.1c1.1,0,2.3,0,3.4,0
	C244.2,109.8,242.3,110.4,239.9,110.3z"/>
<path class="st10" d="M227.2,180.4c0.4,2.3,0.9,4.5,1.3,6.8c-3.9,0.7-5.8,4-8.1,6.6c-11.6,12.9-22.8,8.3-31.7-2
	c-3.2-3.6-5.9-7.8-8.4-12c-3-5-1.7-10.7-1.3-16c1.4-17.3,12.4-27.8,26.5-35.7c8.3-4.7,16.8-8.8,25.3-13.3c-0.1,2.4-1.8,3.5-3.6,4.6
	c-7.4,4.7-14.9,9.2-21.9,14.4c-13.2,9.8-17.4,22.2-11.6,36.9c2.5,6.4,6.9,12,11.5,17.1c3.8,4.1,9.1,3.4,13.5-0.3
	C221.5,185.2,222,180,227.2,180.4z"/>
<path class="st1" d="M524.3,266.4c9.9,10.9,9.4,25.2-0.8,34.1c-7,6.1-21.3,13-28.2,13.3c1.1-2.3,3.4-2.5,5.1-3.1
	c6.8-2.7,13.5-5.7,19.5-10.1c9.5-7.1,11.3-13.3,7.4-24.5C526.3,273.1,524.2,270.4,524.3,266.4z"/>
<path class="st11" d="M381.2,158.1c-0.8,9.4,4,15.3,12.2,18.8c11.2,4.7,22.4,9.9,35.1,8.1c2.2,3.8,4.8,7.2,8.2,10.1
	c-4.4,6.2-11.5,6.3-17.9,8.1c-6.5,1.9-13.5,2.9-18.8,7.7c-3.1,2.7-7,3.7-10.9,4c-17,1.3-34,6-51-0.4c-5.4-2-10.3-4.7-13.9-9.2
	c-2.7-3.4-4.7-7.1-3.3-11.9c0.6-2.1,0.3-4.5,0.5-6.7c0.3-5.6,1.8-10.6,6.4-14.4c5.9-4.9,10.3-11.3,15.2-17.2
	c4.1-4.9,10.2-5.2,15.3-7.7C364.3,154.3,372.2,157.4,381.2,158.1z"/>
<path class="st8" d="M381.2,158.1c-9-0.7-16.9-3.7-23-10.7c-4.3-6.3-4.2-6.7,1.8-11.2c10.3-4.9,20.6-6.3,31.2-0.9
	c1.4,1.9,2.9,3.8,4.3,5.7c0,2.2,0.1,4.4,0.1,6.6C393.1,154.2,388.4,157.9,381.2,158.1z"/>
<path class="st1" d="M436.6,195c-3.4-2.8-6-6.3-8.2-10.1c-0.3-2.5-2.6-4.5-1.8-8c3.6,3.5,3.7,8.4,6.9,11.3c3.4,5.1,8.7,7.4,14.4,8.9
	c1,0.4,2.1,0.9,3.1,1.2c6.6,2.2,7.3,3.3,6.2,10.2c-1.8,2.5-0.2,7.1-4.8,7.9c0.7-2.3,1.4-4.6,2.1-7c2-6.8,1.6-7.5-5.5-9
	C444.9,198.7,440.8,196.9,436.6,195z"/>
<path class="st10" d="M395.6,141c-1.4-1.9-2.9-3.8-4.3-5.7c6.3-2.1,13-1.9,19.4-2.2c13.5-0.6,27.2-1.1,40.6,0.1
	c10.6,0.9,21.4-0.5,31.9,2c6.6,1.6,12.2,4.4,13.5,12.1c0,0.2,0,0.4,0.1,0.5c1.2,3,5.3,6.9,3.2,8.6c-4,3.3-7.8,7.7-13.7,8.2
	c-0.4-0.4-0.7-0.7-1.1-1.1c1.8-3,5.8-3.8,7.5-7c-1.9-2.6-7.6,1.5-7.4-4.4c0-0.4,0-0.7,0-1.1c5.9-2.4,6.2-2.8,4.1-4.6
	c-3.4-2.9-6.7-6-11.4-6.8c-15.7-2.4-31.5-0.9-47.3-1.6C419,137.5,407.2,139.9,395.6,141z"/>
<path class="st11" d="M395.6,141c11.7-1.1,23.4-3.5,35-2.9c15.8,0.7,31.6-0.8,47.3,1.6c4.7,0.7,8,3.9,11.4,6.8
	c2.2,1.9,1.9,2.2-4.1,4.6c0.3-2.6-1.2-3.9-3.4-4.3c-5.3-1.1-10.5-2.4-16-2.6c-16.2-0.4-32.3,0.8-48.4,1.4c-7.2,0.3-14.3,2.8-21.7,2
	C395.6,145.4,395.6,143.2,395.6,141z"/>
<path class="st11" d="M485.2,152.1c-0.2,5.9,5.5,1.8,7.4,4.4c-1.7,3.2-5.7,4-7.5,7c-1.7-1.4-3.4-2.9-5.1-4.3c1.9-0.7,2.9-2,2.9-4.1
	C482.9,153.6,483.3,152.3,485.2,152.1z"/>
<path class="st13" d="M380.1,296.2c0,6.5-3.1,9.7-9.3,9.8c-6.8,0.1-9.9-3.1-9.9-9.8c0-6.4,3.2-9.5,9.6-9.5
	C376.9,286.7,380,289.8,380.1,296.2z M373.1,296c-0.3-1.5-1.2-2.4-2.6-2.3c-1.7,0-2.7,1.1-2.6,2.9c0.1,1.5,1.1,2.4,2.6,2.4
	C372.2,298.9,373.1,297.8,373.1,296z"/>
<path class="st15" d="M373.1,296c0,1.8-0.9,2.8-2.6,2.9c-1.4,0-2.5-0.9-2.6-2.4c-0.1-1.8,0.9-2.8,2.6-2.9
	C371.9,293.6,372.8,294.6,373.1,296z"/>
</svg>
