<?xml version="1.0" encoding="utf-8"?>
<!-- Generator: Adobe Illustrator 19.1.0, SVG Export Plug-In . SVG Version: 6.00 Build 0)  -->
<svg version="1.0" id="Layer_1" xmlns="http://www.w3.org/2000/svg" xmlns:xlink="http://www.w3.org/1999/xlink" x="0px" y="0px"
	 viewBox="0 0 612 624" style="enable-background:new 0 0 612 624;" xml:space="preserve">
<style type="text/css">
	.st0{fill:#211414;}
	.st1{fill:#B3B2B3;}
	.st2{fill:#3E302F;}
	.st3{fill:#4D4C4C;}
	.st4{fill:#595959;}
	.st5{fill:#DF4258;}
	.st6{fill:#B73145;}
	.st7{fill:#E75F61;}
	.st8{fill:#DC5E6A;}
	.st9{fill:#F19AA3;}
	.st10{fill:#6C1917;}
	.st11{fill:#89211F;}
	.st12{fill:#821B3A;}
	.st13{fill:#F7F5F5;}
	.st14{fill:#E3E2E2;}
	.st15{fill:#FEFEFE;}
</style>
<path class="st0" d="M166.2,503.8c-11.6-18.3-15.8-38.5-15.7-60c0.1-36.2-3.6-72.1-7.7-107.9c-0.2-1.7-0.2-3.4-0.4-5.1
	c0.3-2.1,0.7-4.3-0.8-6.2c-0.1-0.7-0.1-1.3-0.2-2c0.5-3.5,0.4-6.9-1.1-10.2c-0.3-2.4-0.6-4.8-0.9-7.1c0.9-0.8,0.8-1.5-0.2-2.1
	c-0.3-2.4-0.6-4.7-0.8-7.1c0.4-2.1,0.5-4.2-0.7-6.1c-0.1-0.7-0.1-1.4-0.2-2c1.2-3.6,0.2-7.4-0.6-10.7c-0.8-3.8,0.4-5.2,3.9-6.1
	c-3.2,0.2-4.7-1.1-5.2-3.8c-0.2-1.3,0.2-2.7-0.8-3.8c-0.1-1-0.3-2-0.4-3.1c0.8-2.2,0.2-4.2-0.8-6.1c-0.1-0.7-0.1-1.3-0.2-2
	c1.1-2.5-0.1-4.8-0.7-7.1c-0.1-0.7-0.2-1.3-0.2-2c1.1-1.1,0.8-2.1-0.3-3c0-0.6-0.1-1.2-0.1-1.8c0.5-3.9,0.2-7.8-1-11.5
	c0-0.5-0.1-1.1-0.1-1.6c0.6-3.2,0.5-6.3-0.7-9.3c0.1-0.4,0.1-0.8,0.2-1.2c1.1-2,1.1-4,0-6c0.1-2,0.1-4.1,0.2-6.1
	c1.1-8.2,2.3-16.5,3.4-24.7c-0.1-0.3,0-0.5,0.1-0.7c1.2-0.9,1.2-2.1,0.8-3.4c0.3-1.2,0.6-2.4,0.9-3.6c1.8-1.8,2-4,1.8-6.3
	c1.4-0.3,3.1,0.5,4.6-0.7c-1.4-0.6-2.6-1.1-3.8-1.6c0.4-0.9,0.7-1.8,1.1-2.8c0.9-0.4,1-1.2,0.8-2c7.7-21.5,21.7-38.9,36.5-55.7
	c8.4-9.5,17.6-18.2,27.2-26.6c15.5-13.5,33-17,52.6-12.9c6.8,1.4,13.7,2.5,20.3,4.4c10.3,3,20.3,2.7,30.5-0.2
	c9.3-2.7,18.8-4.3,28.4-5.3c13-1.4,25.1,0.7,36.1,8.6c21.7,15.4,38.6,35.4,54.3,56.4c0,0.6,0.3,0.9,0.9,0.9c0,0,0.1,0.1,0.1,0.1
	c-0.2,0.2-0.3,0.4-0.3,0.7c-3.9,0.2-7.8,0.5-11.6-0.8c-1.2-3.7-4-6.2-6.5-8.8c-14.1-14.8-29.5-28-46.9-38.7
	c-10.1-6.2-20.6-10.3-33.2-7.1c-9.6,2.4-19.7,3.5-29.6,4.6c-15.9,1.7-31.3-2.4-46.8-5.2c-7.3-1.3-14.2-0.6-20.7,2.7
	c-28,14-51,34-69.3,59.3c-6.3,8.7-11.8,18.1-14.1,28.9c-2,0.6-2.8,1.8-2,3.9c-3.8,12-5.7,24.3-6.4,36.8c-1.2,5.4-1.2,10.9-0.5,16.3
	c1,11.5,1.8,23.1,3,34.6c0.5,5.5,0.1,11,1.8,16.3c-2,2.4,1.1,4.6,0.1,7c0,4.1,1.8,7.8,2.1,11.8c0.5,8.8,1.7,17.5,2.6,26.2
	c2.4,22.2,5.1,44.3,7.3,66.5c2.1,21.9,2.4,43.9,3.3,65.9c0.8,20.4,4.8,39.8,17.3,56.6C174.2,506.9,170.2,506.8,166.2,503.8z"/>
<path class="st1" d="M450,339.2c-2.4,11.4-2.9,23.1-4.1,34.7c-2.7,27.1-4.3,54.2-4.5,81.5c-0.1,17.6-2.9,35-11.6,50.9
	c-15.8,29.2-40.4,46.7-72.3,54.3c-22.3,5.3-44.8,8.5-67.8,7.3c-12.9-0.7-25.4-2.8-38-5.4c-13-2.7-25.6-5.9-37.5-12.1
	c-9.9-5.2-18.1-12.3-26.5-19.5c-1.1-0.9-1.7-2.1-1.6-3.6c1.4,0,2,1.2,2.9,1.9c11.5,9,24.1,15.9,38.2,19.6
	c29.7,7.9,59.8,12.3,90.5,7.8c20.6-3.1,41.4-5.9,60-16.3c32.6-18.2,51.8-45.3,55.1-83.1c1.3-14.4,0.5-28.8,1.3-43.2
	c1.3-23,3.8-45.9,5.7-68.9c0.8-1.3,0.9-2.7,0.5-4.1c0.2-0.7,0.4-1.4,0.6-2C444,339.1,447,339.2,450,339.2z"/>
<path class="st0" d="M439.8,345.2c-1.9,23-4.4,45.9-5.7,68.9c-0.8,14.4,0,28.8-1.3,43.2c-3.3,37.7-22.5,64.9-55.1,83.1
	c-18.6,10.4-39.4,13.2-60,16.3c-30.7,4.6-60.8,0.2-90.5-7.8c-14.1-3.8-26.7-10.7-38.2-19.6c-0.9-0.7-1.5-1.9-2.9-1.9
	c0,0-0.1-0.1-0.1-0.1c0-0.6-0.3-0.9-1-0.9c-5.4-5.6-10.8-11.1-15.1-17.6c3.5-2.2,7.3-0.7,11-0.9c0.4,0.9,0.6,2,1.3,2.7
	c10.3,11.4,21.8,21.2,36.7,26.1c11.9,3.9,24.2,6.5,36.4,8.9c14,2.8,28,4.7,42.3,4.1c16-0.7,31.6-3.8,47.1-7.5
	c12.7-3,25.6-5.8,36.8-13.7c24.9-17.6,39.7-40.9,42-71.6c1.8-23.5,1.1-47.1,3.7-70.5c1.7-15.1,2.8-30.3,4.2-45.5
	c0-0.7,0.1-1.3,0.1-2c3.1,0.7,6.3-2.1,9.4,0c-0.2,0.7-0.4,1.4-0.6,2C439.3,342.3,439.7,343.8,439.8,345.2z"/>
<path class="st0" d="M434.2,136.5c0.2,0.3,0.3,0.6,0.5,0.9c-0.2,0.7,0.1,1.1,0.8,1.3c0.1,0.3,0.2,0.5,0.4,0.7
	c-0.2,1.2,0.4,2,1.4,2.6c0,0.3,0.1,0.5,0.4,0.6c-0.1,2.3,1.4,4.1,2.3,6c8.9,19.3,13.4,39.5,13.4,60.7c-3,2.9-6.5,1.2-9.9,1.2
	c0.6-3.2-0.6-6.4-0.5-9.4c0.4-13.5-2.9-26.3-7-39c-3.8-11.8-10-22.4-16.8-32.6c2.7-0.7,5.8,1,8.4-1.2c1.4,1.4,2,3.4,3.9,4.2
	c0,0,0.1,0.1,0.1,0.1c-0.1,0.6,0.1,0.9,0.7,1c0,0,0.2,0.3,0.2,0.3C432.3,135.1,432.7,136.2,434.2,136.5z"/>
<path class="st2" d="M440.9,339c-3.1-2.1-6.3,0.6-9.4,0c-6.7,0-13.4,0-20.2,0c-2.3-0.1-4.7-0.7-6.1,2c-0.4-0.8-0.7-1.7-1.9-1.3
	c-0.8-0.2-1.6-0.7-2.3-0.7c-22.2,0-44.5,0-66.7,0c-1.3,0-2.8-0.4-3.6,1.1c-0.2,0.1-0.3,0.2-0.2,0.4c-0.9,1.8-2.4,2.8-4.3,3.3
	c-3.2,0.8-5.4-0.8-6.6-3.3c-1.3-2.7-1.2-5.6,1.6-7.7c2.4-1.8,5.6-2.8,7.3-0.3c2.9,4.2,6.9,3.8,10.8,3.8c20,0.1,40,0.2,60,0.2
	c1.8,0,4,0.4,3.9-2.5c1.7,1.8,3.4,4,6.3,2.9c2.6-1,1.1-3.5,1.5-5.4c0.5-2.2,0.5-4.7,1.9-6.6c0.1,0.7,0,1.4,0.2,2
	c0.8,2.8-2.5,6,0.4,8.3c2.5,2,5.9,1,8.9,1.1c0.3,0,0.7,0,1,0c7.4-0.1,7.4-0.1,8.8-7.1c0.2-1.1,0.7-2.2,1.1-3.3
	c-0.1,2.9,0.2,5.8-0.3,8.5c-0.4,2.3,0.4,2.6,2.3,2.7c3.2,0.2,5.8,0,5.2-4.4c-0.2-1.3-0.3-2.7,0.9-3.8c0.2,7.1,0.2,7.1,7.5,7.6
	c0.6,0,1.3-0.1,1.9-0.1c16.5,0,33.1,0,49.6,0c1.1,0,2.1,0.1,3.2,0.1c2,4.2-1.8,2.4-2.9,2.4c-15,0.1-30,0.1-45,0.1
	c-2,0-4,0.1-6.1,0.2C447,339.2,444,339.1,440.9,339z"/>
<path class="st1" d="M451.1,336.3c-0.6,0-1.3,0.2-1.9,0.1c-7.4-0.5-7.4-0.5-7.5-7.6c2.4-21,4.9-42,7.3-63c3,0,6.1-0.1,9.1-0.1
	c-2.1,18.4-4.2,36.7-6.2,55.1C451.3,325.9,450,331.1,451.1,336.3z"/>
<path class="st3" d="M181,508c-3.7,0.2-7.5-1.3-11,0.9c-1.8-1.4-3.9-0.9-5.9-0.9c-29.3,0-58.6,0-87.9,0c-1.4,0-2.7,0-4.1,0
	c-0.8,0-1.3-0.5-1.2-1.2c0.1-0.6,0.6-1.4,1-1.5c1.1-0.2,2.4-0.1,3.5-0.1c28.4,0,56.9,0,85.3-0.1c1.8,0,4.1,1.2,5.4-1.3
	c3.9,3,8,3.1,10.8,0.1c3.5,1,7,1.5,10.6,0.5c1.1,0.6,2.6,1.2,3.2,0.1c2.9-5,7-4,11.3-2.8c0.5,1.4,1,2.8,1.5,4.2
	c-2,7-5.6,9.4-9.3,5.6C190.2,507.4,185.7,508.1,181,508z"/>
<path class="st1" d="M461.2,213.1c0.2,14.4-0.3,28.9-2.2,43.2c-0.3,2,0.1,4,0.1,6c-3.1,0.1-6.1,0.1-9.2,0.2c0-1.5-0.3-3-0.1-4.5
	c1.8-15,3.2-30.1,3.8-45.3C456.1,212.9,458.7,213,461.2,213.1z"/>
<path class="st1" d="M453.4,209.2c0-21.2-4.5-41.5-13.4-60.7c-0.9-1.9-2.4-3.7-2.3-6c1.6-0.1,2.3,1,3,2.2
	c10,17.3,16.8,35.7,19.3,55.5c0.4,3.2,0.7,6.4,1,9.5C458.4,210.4,455.9,210.1,453.4,209.2z"/>
<path class="st4" d="M60.9,278.3"/>
<path class="st4" d="M60.1,267.9"/>
<path class="st4" d="M431.4,132.4c-1.9-0.8-2.5-2.9-3.9-4.2c-0.1-0.3-0.3-0.7-0.4-1c0-0.3,0.1-0.5,0.3-0.7c23.3,0,46.7,0.1,70,0.2
	c1.9,0,3.7,0,5.6,0.1c1.1,0,2,0.3,1.9,1.7c-0.1,1.1-1,1.2-1.9,1.2c-1.2,0-2.4,0-3.6,0c-21.3,0-42.6,0-63.9,0.1
	C433.7,129.5,430.5,128.2,431.4,132.4z"/>
<path class="st4" d="M130.3,215.9c1.3,3,1.3,6.1,0.7,9.3c0.1-5.7-3.1-6.4-8-6.3c-16.2,0.3-32.5,0.1-48.7,0.1c-1.3,0-3.6,0.9-3.5-1.5
	c0.1-2.2,2.3-1.4,3.7-1.4C93.2,216,111.7,215.9,130.3,215.9z"/>
<path class="st3" d="M135.7,267.4c0.5,2.6,2,4,5.2,3.8c-3.5,0.9-4.7,2.3-3.9,6.1c0.7,3.4,1.7,7.1,0.6,10.7c-0.4-2.3-0.9-4.6-1.1-7
	c-0.9-8.2-0.8-8.2-8.9-8.2c-17.8,0-35.5,0-53.3,0c-1.2,0-2.9,0.7-3.3-1.2c-0.2-1,0.5-1.5,1.6-1.3c0.6,0,1.1-0.1,1.7-0.1
	c20.1,0,40.1-0.1,60.2-0.1C136.3,269.9,135.1,268.2,135.7,267.4z"/>
<path class="st3" d="M449.9,262.6c3.1-0.1,6.1-0.1,9.2-0.2c13.9,0,27.8,0.1,41.7,0.2c1.3,0,3.7-0.9,3.8,1.2c0.1,2.7-2.5,1.6-3.9,1.6
	c-14.2,0.2-28.5,0.2-42.7,0.3c-3,0-6.1,0.1-9.1,0.1C448.9,264.6,448.6,263.3,449.9,262.6z"/>
<path class="st4" d="M71.1,162.8c1.2-2.3,3.3-1.1,4.9-1.1c20.8-0.2,41.7-0.3,62.5-0.4c-1.4,2.3-3.6,1.4-5.5,1.4
	C112.4,162.8,91.7,162.8,71.1,162.8z"/>
<path class="st3" d="M71.1,162.8c20.6,0,41.3,0,61.9-0.1c1.9,0,4.2,0.9,5.5-1.4c0,0,0.1,0.2,0.1,0.2c1.2,0.5,2.4,1,3.8,1.6
	c-1.5,1.2-3.1,0.3-4.6,0.7c-1.1,0.1-2.4-0.3-3.4,0.5c-20.4,0.1-40.7,0.1-61.1,0.2C72.1,164.6,70.9,164.6,71.1,162.8z"/>
<path class="st3" d="M453.4,209.2c2.5,0.9,5,1.2,7.6,0.6c1.3,0.1,2.7,0.2,4,0.3c0.4,0,0.8,0,1.2,0c11.7,0,23.3,0.1,35,0.2
	c1.2,0,3.2-0.7,3.4,1.1c0.2,2.5-2.1,1.5-3.4,1.6c-13.4,0.2-26.7,0.2-40.1,0.3c-2.5-0.1-5.1-0.2-7.6-0.4c-3.3,0-6.5-0.8-9.8,0
	c-0.1-0.8-0.1-1.5-0.2-2.3l-0.1-0.1C446.9,210.4,450.4,212.1,453.4,209.2z"/>
<path class="st4" d="M59.9,168.8c0,0.8,0,1.7,0,2.5"/>
<path class="st4" d="M60,223.3"/>
<path class="st4" d="M60.3,217.3"/>
<path class="st4" d="M134.1,177.8c-1.1,8.2-2.3,16.5-3.4,24.7C130.6,194.2,131.5,185.9,134.1,177.8z"/>
<path class="st4" d="M131.2,226.8c1.2,3.8,1.5,7.6,1,11.5C130.9,234.6,130.8,230.7,131.2,226.8z"/>
<path class="st3" d="M140.4,312.5c1.5,3.3,1.7,6.7,1.1,10.2C140.5,319.3,140.2,315.9,140.4,312.5z"/>
<path class="st4" d="M134.4,164.4c1-0.9,2.3-0.4,3.4-0.5c0.2,2.3,0,4.5-1.8,6.3C135.3,168.3,138.9,165.2,134.4,164.4z"/>
<path class="st4" d="M130.5,208.7c1.1,2,1.1,4,0,6C129.8,212.7,129.9,210.7,130.5,208.7z"/>
<path class="st4" d="M132.8,245.2c0.7,2.3,1.9,4.6,0.7,7.1C132.7,250.1,132.3,247.7,132.8,245.2z"/>
<path class="st4" d="M133.7,254.4c1,2,1.6,4,0.8,6.1C133.7,258.5,133.5,256.5,133.7,254.4z"/>
<path class="st3" d="M137.7,290c1.2,1.9,1.2,4,0.7,6.1C137.8,294.2,137.4,292.2,137.7,290z"/>
<path class="st4" d="M135.7,267.4c-0.6,0.8,0.6,2.5-1.3,2.6c1.6-2-0.4-4.3,0.5-6.4C135.9,264.7,135.5,266.1,135.7,267.4z"/>
<path class="st3" d="M141.7,324.7c1.4,1.9,1.1,4.1,0.8,6.2C141.7,328.8,141.3,326.8,141.7,324.7z"/>
<path class="st4" d="M132.2,240.2c1,0.9,1.4,1.9,0.3,3C131.9,242.3,131.8,241.2,132.2,240.2z"/>
<path class="st4" d="M434.2,136.5c-1.5-0.3-1.9-1.4-1.8-2.8C433.7,134.2,433.6,135.5,434.2,136.5z"/>
<path class="st1" d="M437.3,141.9c-1-0.6-1.5-1.4-1.4-2.6C437.5,139.5,437.9,140.4,437.3,141.9z"/>
<path class="st3" d="M139.3,303.3c1,0.6,1.1,1.3,0.2,2.1C139.1,304.7,138.7,304,139.3,303.3z"/>
<path class="st1" d="M503.9,336.5c-1.1,0-2.1-0.1-3.2-0.1C501.8,335.6,502.9,335.4,503.9,336.5z"/>
<path class="st4" d="M135.1,173.7c0.4,1.3,0.3,2.5-0.8,3.4C134.1,175.9,134.1,174.7,135.1,173.7z"/>
<path class="st4" d="M140.5,156.8c0.2,0.9,0,1.6-0.8,2C139.4,157.9,140,157.4,140.5,156.8z"/>
<path class="st4" d="M74.2,270.1c-0.6,0-1.1,0.1-1.7,0.1C73.1,270.2,73.7,270.1,74.2,270.1z"/>
<path class="st4" d="M427.3,126.3c-0.6,0-0.9-0.3-0.9-0.9C427.1,125.3,427.3,125.7,427.3,126.3z"/>
<path class="st1" d="M466.3,210c-0.4,0-0.8,0-1.2,0C465.5,209.5,465.9,209.5,466.3,210z"/>
<path class="st4" d="M432.2,133.4c-0.6-0.1-0.8-0.4-0.7-1C431.7,132.8,431.9,133.1,432.2,133.4z"/>
<path class="st1" d="M185.1,526.5c0.6,0,0.9,0.2,1,0.9C185.4,527.4,185.1,527.1,185.1,526.5z"/>
<path class="st1" d="M435.5,138.6c-0.7-0.1-1-0.5-0.8-1.3C435,137.8,435.2,138.2,435.5,138.6z"/>
<path class="st5" d="M148.5,161.9c2.2-10.8,7.8-20.1,14.1-28.9c18.3-25.3,41.3-45.3,69.3-59.3c6.5-3.3,13.4-4,20.7-2.7
	c15.5,2.8,30.9,6.9,46.8,5.2c9.9-1.1,19.9-2.2,29.6-4.6c12.5-3.2,23.1,0.9,33.2,7.1c17.4,10.7,32.8,23.9,46.9,38.7
	c2.5,2.6,5.3,5.2,6.5,8.8c0,0-0.4-0.1-0.4-0.1c-6.3,0-12.5,0-18.8,0c-1.9,0-3.7-0.3-5.2-1.6c-5.8-5.2-11.7-10.5-17.6-15.7
	c1-2.1,3.4-4.5,0.6-6.5c-2.6-1.9-4.1,0.5-5.3,2.5c-0.9-0.4-1.8-0.8-2.7-1.3c0.7-2.7,3.8-5.4,0.4-8.1c-2.9-2.3-3.9,1.2-5.6,2.3
	c-0.8,0-1.7,0-2.5,0c0-3.1,3.8-7.6-2.9-8.4c-1.1-0.1-1-1.1-0.8-2c0.6-1.9-0.1-3.5-1.1-5.2c-3.9,4.6-3.9,4.6-5.9-0.8
	c-0.3-0.8-0.7-1.6-1.7-1.6c-1,0-1.5,0.8-1.6,1.6c-0.5,2.8-1,5.6-2.2,8.2c-1.3-1.8-3.8-0.8-5.3-2.2c-0.2-1.1-0.4-2.3-0.7-3.4
	c-0.4-1.4-0.3-3.3-2.4-3.2c-2,0.1-1.9,1.9-2.2,3.3c-0.2,1.5-0.6,2.9-0.9,4.4c-1.5,1-3.2,1-4.8,1c-0.8-1.6,1.2-4.8-1.8-4.8
	c-2.9,0-2.4,3-2.4,5.1c0,0.5,0.1,1,0.1,1.5c-4.7,0.4-9.5,0.4-14,1.4c-15.9,3.6-31.4,0.6-46.9-2.2c-0.9-2.4,1.3-6.6-3.2-6.8
	c-2.8-0.1-4.5,2.1-3.8,5.3c-1.5,1-3.4-0.8-4.7,0.7c-0.4-1.4-0.8-2.8-1.4-4.2c-0.7-1.6-1.6-3.2-3.6-1.2c-0.8,0.1-1.6,0.2-2.4,0.3
	c-1.4-1.2-1.7-4.1-4.4-3.1c-2.2,0.8-2.2,3.1-2.3,5.1c-0.1,1.6-0.1,3.3-0.2,4.9c-2.7,2.6-7.6,2.4-8.5,7.2c-0.1-2-0.2-4-0.4-6
	c-0.2-2,0.6-5-2.7-5c-2.9,0.1-2.2,2.8-2.4,4.7c-0.1,1.1,0.5,2.3-0.6,3.4c-0.4-0.2-0.9-0.4-1.1-0.8c-1.2-1.9-2.9-3.9-5.2-3.1
	c-2.6,0.9-3.4,3.6-3.2,6.3c0.2,3.2,0.6,6.3,0.9,9.5c-2.1,1.2-3,4.2-6.1,3.9c-0.3-1.5,0.7-3.7-2-3.9c-2.2-0.1-3.4,1.4-3.8,3.3
	c-0.6,2.5-0.5,5,1.3,7.2c-2.4,0.4-4.3,1.8-6,3.5c-11.6,11.7-21.5,24.5-28.3,39.6C160.7,161.7,154.6,161.8,148.5,161.9z"/>
<path class="st5" d="M187.6,504.5c-3.6,1-7.1,0.5-10.6-0.5c-12.5-16.8-16.5-36.2-17.3-56.6c-0.9-22-1.2-44-3.3-65.9
	c-2.2-22.2-4.9-44.4-7.3-66.5c-1-8.7-2.1-17.5-2.6-26.2c-0.2-4.1-2.1-7.8-2.1-11.8c0.9-1.3,0.5-3.6,2.9-3.6
	c5.2-0.1,10.4-1.3,15.5,0.5c0.8,5.7,1.6,11.4,2.4,17.1c-1.4,8.2,1.1,16.2,2.1,24.1c2.9,21.7,5,43.5,7.3,65.2
	c2.4,23.3,2.5,46.8,3.4,70.3c0.5,13.9,3.7,26.9,11.6,38.5c-0.5,1.6-1.6,2.9-1.2,4.8C189.4,497.3,188.4,500.9,187.6,504.5z"/>
<path class="st5" d="M140.2,202.6c0.7-12.5,2.5-24.9,6.4-36.8c6.6-2.1,13.4-2.1,20.2-0.9c-3.4,6.9-7.2,13.5-10.1,20.7
	c-4.1,10-4.4,20.6-5.6,31.1c-3.4-0.1-8.7,1-9.9-0.7c-1.8-2.6-0.7-7.1-0.8-10.9C140.3,204.3,140.2,203.4,140.2,202.6z"/>
<path class="st5" d="M144.4,269.9c-1.7-5.3-1.2-10.9-1.8-16.3c-1.1-11.5-2-23.1-3-34.6c3.9,0,7.9,0,11.8,0
	c1.1,17.1,5.9,33.5,10.2,50C156,270.8,150.2,269.2,144.4,269.9z"/>
<path class="st2" d="M144.4,269.9c5.7-0.7,11.6,0.9,17.3-1c1.8,1.1,3.6,1.4,5.3-0.2c1.8,1.3,3.9,1,5.9,1c12.3,0,24.6,0,36.9,0
	c2,1,4,1.9,6,0c5.7,0,11.5,0.1,17.2,0c6.9-0.1,13.9,1.1,20.3-3.5c2.8-2,4.5,2,6.3,3.7c2.6,2.7-0.8,4.6-1.6,6.7
	c-0.9,2.2-3.6,1.7-5.2,0.6c-4.5-3.3-9.5-3.6-14.7-3.4c-5.6,0.2-11.2,0.3-16.7,0c-3.5-0.2-5.6,0.9-6.7,4.1c-0.3-1.8,1.1-4.2-1.8-5.1
	c-1.4-0.4-3-1.4-3.3,1.1c-9.9-0.1-19.9-0.1-29.8-0.2c-2.6,0-4.9-3.3-7.5-1.5c-2.7,1.7-1,5.4-2.4,7.8c-0.9-0.7-0.9-1.7-0.9-2.7
	c-0.4-5.6-0.5-5.6-6.1-3.5c-5.1-1.8-10.3-0.6-15.5-0.5c-2.4,0-2,2.4-2.9,3.6C145.5,274.5,142.4,272.2,144.4,269.9z"/>
<path class="st2" d="M151.5,218.9c-3.9,0-7.9,0-11.8,0c-0.7-5.5-0.7-10.9,0.5-16.3c0.1,0.8,0.2,1.7,0.2,2.5
	c0.1,3.7-0.9,8.2,0.8,10.9c1.1,1.7,6.4,0.6,9.9,0.7c3.3-0.8,7.3,2.2,9.8-2c9.2,2.7,18.6,2,27.9,2c17.3,0,34.5-0.1,51.8,0.1
	c4.5,0.1,8.3-0.4,11.1-4.3c1.1-1.5,3-2.7,4.2-1.1c2.2,3,5.7,3,8.5,4.5c-6-0.7-4.8,3.5-4.8,7c-3.1,0-6.2,0-9.2,0
	c0.2-3-1.3-4.2-4.2-4.1c-2,0.1-4,0.1-5.9,0.1c-24.7,0-49.3,0-74-0.1c-1.9,0-3.7-0.1-5.3,1.1C158,217.7,154.6,219.3,151.5,218.9z"/>
<path class="st2" d="M427.1,127.1c0.1,0.3,0.3,0.7,0.4,1c-2.5,2.2-5.6,0.5-8.4,1.2c-7.4,0-14.7,0.1-22.1,0.1
	c-6.5-0.1-13.1-0.1-19.6-0.2c-5.1,0-10.2,0-15.3,0c-9.3,0-18.6,0-27.9,0c-1.4,0-3.7-0.7-4.1,1c-0.9,4.1-3.9,3-6.4,2.9
	c-3.3-0.1-1.6-3.2-2.5-4.6c-1.5-2.1-1.3-3.9,0.8-4.9c2.3-1.2,6.2-1.7,7,0.2c1.6,4.3,4.7,3,7.4,3.1c4.9,0.2,9.8,0.1,14.7,0
	c1.6,0,3.6,0.6,4-1.9c3.6,2.7,12.8,2.9,16.2,0.4c1,0.5,2.1,1.3,3.1,1.3c12.7,0.2,25.3,0.2,38,0.3c1,0,2.1,0.2,2.6-1
	c0,0,0.4,0.1,0.4,0.1C419.3,127.6,423.2,127.2,427.1,127.1z"/>
<path class="st3" d="M166.7,164.8c-6.8-1.2-13.5-1.2-20.2,0.9c-0.8-2,0-3.3,2-3.9c6.1-0.1,12.1-0.2,18.2-0.3
	c1.5,0.5,2.8-0.2,4.2-0.5c0.2,1.1,0.9,2.1,2,1.6c3.2-1.4,6.1,0.7,9.2,0.7C177,164.2,171.7,163,166.7,164.8z"/>
<path class="st2" d="M439.8,345.2c-0.1-1.4-0.5-2.9,0.5-4.1C440.7,342.5,440.6,343.9,439.8,345.2z"/>
<path class="st5" d="M181,508c4.7,0.1,9.2-0.6,13.3,3.6c3.8,3.8,7.3,1.4,9.3-5.6c3.2,1.8,5.6,4.8,9.1,6.1c-1.6,2.4-3.3,4.7-3.9,7.6
	c-0.3,1.5-1.1,3.5,1,4.5c2,0.9,2.9-0.7,4-2.1c1.7-2.3,2.4-5.2,4.9-7c0.8,1.4,2.2,1.2,3.5,1.4c-1.2,2.2-2.4,4.4-3.6,6.6
	c-0.6,1.1-2,2.1-0.7,3.5c1.3,1.3,2.7,1,4.1,0c1.4-1,2.7-2.4,4.1,0c2.3,4.2,4.2,2.6,6.1-0.3c0.9-1.4,2-2.6,3.1-4
	c0.7,0.1,1.4,0.1,2.1,0.2c-0.3,2.2-2.9,5.2,0.2,6.5c3.3,1.4,2.3-3.1,4-4.3c0.1-0.1,0.3-0.2,0.4-0.3c3.2,0.1,6.6-0.5,9.6,0.3
	c16.7,4.5,33.7,5.7,50.9,5.8c0.7,2.2,0.8,5.1,3.9,5c3.2-0.2,3.5-3,4-5.5c0.1-0.5,0.1-1,0.2-1.5c4-0.4,8.5,1.1,11.4-3.2
	c1.5,2.1,0.4,4.6,0.9,6.9c0.2,1.2,0.5,2.4,2.1,2.3c1.5-0.1,1.9-1.2,1.9-2.5c0.1-1.8,0.1-3.7,0.2-5.5c1.6-1.3,3.6-1,5.5-1.1
	c0.1,1.7,0.2,3.4,0.4,5c0.4,3,1.7,5.5,5,6.1c3.3,0.6,5.3-1,6.8-3.9c1.2-2.3,1.3-4.8,1.6-7.4c3.9,3.9,8.3-1.2,12.3,0.8
	c0.1,0.1,1.3-1.5,1.5-2.4c0.6-2.1,1-4.2,1.5-6.4c2.5-1.2,5.7-1.2,7.3-4.1c0.2,1.3,0.5,2.6,0.7,3.9c0.2,1.4,0.4,2.9,2.3,2.8
	c1.4-0.1,1.6-1.5,1.8-2.7c0.3-2.1-0.4-4-0.8-6c2.4-0.8,3.4-3.6,6-4.1c2.2,0.9,2.5,5.4,5.6,3.8c2.5-1.3,4.3-3.8,6.2-6.1
	c0.7-0.9,1.1-2.4-0.1-3.7c-1.3-1.4-2.4-0.5-3.6-0.1c-0.4-2.4,1.2-3.7,2.6-5.2c6.1-6.6,9.9-14.4,12.6-22.8
	c3.7-11.4,3.8-23.2,4.3-35.1c0.8-21.7,1.5-43.5,3.9-65.2c1.1-10.1,2.1-20.1,3-30.2c0.1-1.4,0.6-2.4,2.1-2.4c5.4,0.3,10.8-1.1,16.1,1
	c-1.4,15.2-2.5,30.4-4.2,45.5c-2.6,23.4-1.9,47-3.7,70.5c-2.4,30.7-17.1,54-42,71.6c-11.2,7.9-24,10.7-36.8,13.7
	c-15.4,3.7-31.1,6.8-47.1,7.5c-14.3,0.6-28.3-1.3-42.3-4.1c-12.3-2.4-24.5-5-36.4-8.9c-14.9-4.9-26.4-14.7-36.7-26.1
	C181.6,510,181.4,508.9,181,508z"/>
<path class="st6" d="M237.3,522.3c-0.7-0.1-1.4-0.1-2.1-0.2c1.2-3.4-2.1-5.5-2.5-8.4c-3.1,2.7-7.9-1.6-10.6,2.6
	c-1.2-0.3-2.7-0.1-3.5-1.4c0.9-2.1,4.6-4,2-6.3c-2.6-2.3-4.7,0.9-6.7,2.5c-0.4,0.3-0.8,0.6-1.2,0.9c-3.6-1.2-6-4.2-9.1-6.1
	c-0.5-1.4-1-2.8-1.5-4.2c-1.9-5.5-7.4-8.4-9.9-13.4c-0.5-1-1.7,0.4-2.6,0.6c-7.9-11.6-11.1-24.6-11.6-38.5c-0.9-23.4-1-47-3.4-70.3
	c-2.3-21.7-4.4-43.5-7.3-65.2c-1.1-7.9-3.5-15.9-2.1-24.1c2.6,3.6,1.5,7.9,2.3,11.8c3.9,19.3,5.2,38.9,7.2,58.3
	c2.8,26.9,3.8,53.9,12.2,80c5.1,15.7,12.4,30,23.8,41.8c15.8,16.4,36,23.5,58.2,25.1c10.8,0.8,21.7-0.2,32.5,0.2
	c12.1,0.4,23.9-0.9,35.6-4.1c18.4-5.1,33-15.6,44.2-31c15.2-21.1,20.8-45.4,23.7-70.6c2-17,4.1-33.9,4.6-51c0.1-4-0.2-8.5,1.8-12.3
	c6.7,0,13.4,0,20.2,0c0,0.7-0.1,1.3-0.1,2c-5.3-2.1-10.7-0.7-16.1-1c-1.4-0.1-1.9,1-2.1,2.4c-1,10.1-1.9,20.1-3,30.2
	c-2.4,21.7-3,43.4-3.9,65.2c-0.5,11.9-0.6,23.7-4.3,35.1c-2.7,8.4-6.6,16.2-12.6,22.8c-1.4,1.5-3,2.8-2.6,5.2
	c-2.7,2-7.9,0.8-8.1,6.1c-2.6,0.4-3.7,3.2-6,4.1c-0.8-1.4-1.6-2.9-2.5-4.3c-0.6-0.9-1.6-2.1-2.9-1.4c-1.6,0.8-0.3,2,0.1,3
	c0.5,1.6,1,3.2,1.4,4.8c-1.5,3-4.8,2.9-7.3,4.1c-0.4-1.9-0.9-5.7-1.7-5.3c-3.5,1.6-5.6-1.9-8.4-1.6c-0.7,0.1-1.4,0.9-1.9,1.5
	c-1.4,1.6-8.6,2.9-10.1,1.6c-1.8-1.7-3.8-1.7-5.6-0.9c-2.1,1-2.3,3.2-1.9,5.3c0.4,2.5,1.4,4.9,0.6,7.5c-1.9,0.1-3.9-0.3-5.5,1.1
	c-0.2-0.6-0.5-1.3-0.7-1.9c-1-2.2-1.5-5.9-4.5-4.9c-3.1,1,1,3.6,0.2,5.5c-2.9,4.3-7.4,2.8-11.4,3.2c-1.8-1.6,0.2-6-4.1-5.8
	c-3.2,0.1-2.6,2.9-3.3,4.8c-0.7,0.6-0.7,1.4-0.5,2.3c0,0.3,0,0.6-0.1,0.8c-17.2-0.1-34.2-1.4-50.9-5.8c-3-0.8-6.4-0.3-9.6-0.3
	c0.4-1.3,2.2-2.6,0.5-4c-1.3-1.1-2.4,0.2-3.5,0.9C238.4,521.5,237.8,521.9,237.3,522.3z"/>
<path class="st5" d="M397.1,129.5c7.4,0,14.7-0.1,22.1-0.1c6.8,10.2,13.1,20.8,16.8,32.6c4,12.7,7.4,25.5,7,39
	c-0.1,3.1,1.1,6.2,0.5,9.4c0,0,0.1,0.1,0.1,0.1c-2,0-4-0.3-6,0c-3.4,0.5-5.3-0.6-6-4c-0.2-3-0.3-5.9-0.9-8.9
	c-2-10.3-6.6-19.5-11.4-28.7c-0.2-0.4-0.4-0.7-0.6-1.1l-0.3-0.3c-1.9-8.5-6.7-15.6-10.8-23.1C404.7,139.1,399.2,135.4,397.1,129.5z"
	/>
<path class="st7" d="M403.4,333.8c0,2.9-2.2,2.5-3.9,2.5c-20,0-40-0.1-60-0.2c-4,0-7.9,0.4-10.8-3.8c-1.7-2.4-4.9-1.5-7.3,0.3
	c-2.8,2.1-2.9,5-1.6,7.7c1.2,2.5,3.4,4.1,6.6,3.3c1.9-0.5,3.4-1.5,4.3-3.2c1.1,4,4.6,2.5,6.7,2.3c9.6-0.5,19.1-2.5,28.9-2
	c12.1,0.7,24.4-1.3,35.8,2.7c-1.1,7.3-1.8,14.5,0.1,21.7c-0.9,17.5-3.4,34.7-8,51.6c-3,11.1-3.5,22.8-9.4,33.1
	c-1.6,0.5-2.7,1.6-4.7,2c-4.3,0.8-9.1,1.4-12.5,6.5c-3.9,6-9.4,11.7-18.1,10.8c-2.8-0.3-3.6,1.2-3.1,3.7c-1.2,2.8-3.1,3.1-5.7,2
	c-6.7-2.8-13.5-2.6-20.3-0.3c-1.5,0.5-2.8,0.5-4.4,0.1c-9.2-2-17.9-2.1-24.3,6.9c-1.3-4.5-4.4-6.2-8.7-6.8
	c-5.4-0.7-10.6-2.5-15.9,0.3c-1.4,0.7-2.6-0.5-3.8-0.8c-6.2-1.7-12.5-2.2-18.5,0.2c-3.3,1.3-5.3,1.1-7.5-1.4c-1.8-2-4.3-3-6.9-2.8
	c-4.6,0.4-7.7-2.1-10.5-5.1c-2.2-2.4-4.2-4.8-6.5-7.1c-2.6-2.6-5.7-4.1-9.1-2c-3,1.8-3.5-0.1-4.2-2.1c-5.9-15.5-8.8-31.9-12.7-48
	c-4.9-20.5-5.1-41.7-8.2-62.4c-0.3-2.3-1.4-5,0-7c5.9-8.7,9.3-19.3,18.9-25.4c10.1-6.5,20-13.6,32.3-15.3c13.5-1.9,26.6,1,39.7,4.3
	c9.6,2.4,12.1,5.3,13.2,15.4c-3.6,2.3,0.2,4.7,0,7c-0.2,5.1,1.6,10.2,0.1,15.5c-1.4,5.2,2.4,9.8,2.1,15.1
	c-0.6,10.5-0.2,21.1-0.2,32.5c0.9-1.5,1.4-2.2,1.8-2.9c0.8,10.5,2.3,20.8,5.7,30.8c0.5,1.5,0.9,3.7,3.2,3.2c2.5-0.5,1.7-2.7,1.6-4.2
	c-0.6-6.2-1.5-12.4-2.3-18.6c2.9-3.1,0.1-6.4,0.1-9.6c0.2-24,0-48.1,0-72.1l-0.1-0.1c3.4,0,2-2.5,2.2-4.2c0.8-0.6,1.5-1.4,2.3-1.8
	c12.6-6.3,26.2-8.9,40.1-10.2c6.7-0.6,13.8-1.6,20.2,1c17.2,7.1,33.7,15.3,41.7,33.9C401.9,332,402.7,332.9,403.4,333.8z
	 M346.8,329.2c0,0.3,0,0.7,0,1c15.8,0,31.6,0,47.4,0c0-0.3,0-0.7,0-1C378.4,329.2,362.6,329.2,346.8,329.2z"/>
<path class="st0" d="M384.6,450c5.9-10.2,6.4-22,9.4-33.1c4.6-16.9,7.1-34.1,8-51.6c-0.2-5.5,1.1-10.8,2.1-16.1
	c0.5-2.7-1.3-5.8,1.2-8.2c1.3-2.7,3.8-2.1,6.1-2c-2,3.9-1.7,8.3-1.8,12.3c-0.4,17.1-2.6,34.1-4.6,51c-3,25.1-8.5,49.5-23.7,70.6
	c-11.1,15.4-25.7,25.8-44.2,31c-11.7,3.3-23.5,4.5-35.6,4.1c-10.8-0.4-21.7,0.6-32.5-0.2c-22.2-1.6-42.4-8.7-58.2-25.1
	c-11.4-11.8-18.7-26.1-23.8-41.8c-8.5-26.1-9.4-53.1-12.2-80c-2.1-19.5-3.3-39.1-7.2-58.3c-0.8-3.9,0.3-8.2-2.3-11.8
	c-0.8-5.7-1.6-11.4-2.4-17.1c5.6-2.1,5.6-2.1,6.1,3.5c0.1,1,0.1,2,0.9,2.7c1.9,12.6,4.5,25,5.3,37.7c0.1,1.9,0,4.1,2.1,4.7
	c2.2,0.6,1.6-2.1,2.4-3.1c0.7-0.8,1.4-1.5,2.1-2.2c7.6-7.9,15.8-15,24.9-21c2.2-1.5,3.4-3.3,2.5-6.4c-1.5-5.2-1.3-10.6,0.5-15.8
	c0.3-2.6,1.9-1.6,3.3-1.1c2.9,0.9,1.5,3.3,1.8,5.1c0,0,0,0.1,0,0.1c-0.3,0.3-0.6,0.7-0.9,1c0,2.1-0.1,4.2,0.9,6.2
	c0.2,1.7-0.6,3.6,1,5l0,0.1c0.1,0.7,0.2,1.4,1,1.5c0.9,0.1,1-0.7,1.1-1.4c5.8-1.4,11.6-3.4,17.4-4.1c11.1-1.3,22,1.2,32.9,3.2
	c10.7,1.9,20.8,6.2,32.4,3.2c8-2,16.4-3.3,24.5-5c13.2-2.7,25.8-2.1,38.3,2.3c3.7,1.3,6.2-0.2,6-4.2c-0.5-6.7-0.5-13.5-1.9-20.1
	c0.4-0.9,1.3-1,2.2-1.2c4.9,0.1,2.5,5.2,4.8,7.1c0.1,6.3,0.2,12.5,0.2,18.8c0,2.8,0.7,4.4,3.4,6.4c9.6,6.8,19.5,13.4,26,23.6
	c0.5,0.8,1.2,2.2,2.9,1.6c4.3-17.2,5.2-35,8.8-52.3c1.2-0.2,1.6-1,1.6-2.1c0-1.7,0.5-2.8,2.5-2.9c2.3-0.1,2.8,1.1,2.8,3
	c-3.7,18.9-6.6,38-9.3,57.1c-1.4,2-1.4,4.4-1.9,6.6c-0.4,1.8,1.1,4.3-1.5,5.4c-2.9,1.2-4.6-1-6.3-2.9c-0.6-1-1.5-1.8-1.9-2.9
	c-8-18.6-24.5-26.8-41.7-33.9c-6.4-2.6-13.4-1.6-20.2-1c-13.9,1.3-27.5,3.9-40.1,10.2c-0.9,0.4-1.6,1.2-2.3,1.8
	c-1.6,0.9-2.2,2.4-2.2,4.2c0,0,0.1,0.1,0.1,0.1c-2.5,3-2,6.6-2,10.1c-0.1,12.2,0,24.3,0,36.5c0.1,11.7,0.1,23.5,1.9,35.1
	c0.8,6.2,1.6,12.4,2.3,18.6c0.2,1.5,0.9,3.7-1.6,4.2c-2.3,0.4-2.7-1.7-3.2-3.2c-3.4-10-4.9-20.4-5.7-30.8
	c-0.3-13.4-0.4-26.7-0.8-40.1c-0.3-9.1-0.5-18.3-3-27.1c-1-10.1-3.6-13-13.2-15.4c-13-3.3-26.1-6.2-39.7-4.3
	c-12.3,1.7-22.1,8.8-32.3,15.3c-9.5,6.1-12.9,16.7-18.9,25.4c-1.3,2-0.3,4.7,0,7c3,20.8,3.3,41.9,8.2,62.4
	c3.9,16.1,6.7,32.5,12.7,48c0.7,1.9,1.3,3.8,4.2,2.1c3.4-2,6.6-0.6,9.1,2c2.2,2.3,4.3,4.8,6.5,7.1c2.8,3,5.9,5.5,10.5,5.1
	c2.6-0.2,5.1,0.8,6.9,2.8c2.2,2.5,4.3,2.7,7.5,1.4c6-2.4,12.3-1.9,18.5-0.2c1.3,0.3,2.5,1.6,3.8,0.8c5.3-2.7,10.6-1,15.9-0.3
	c4.3,0.6,7.4,2.3,8.7,6.8c6.4-9,15.2-8.9,24.3-6.9c1.6,0.3,2.9,0.4,4.4-0.1c6.8-2.3,13.6-2.5,20.3,0.3c2.7,1.1,4.6,0.9,5.7-2
	c2.5-1,4.8-2.9,7.5-2.6c4.2,0.4,7.1-1.7,9.7-4.4c1.9-1.9,3.6-4,5.4-6c3.2-3.5,6.6-6.6,11.6-3.4c1.8,1.1,2.4,0.2,2.9-1.2
	C384.2,453.6,385,451.9,384.6,450z M346.1,482.5c-1,1.6-0.6,3.3-0.6,5c-0.1,0.7-0.2,1.3-0.3,2c0,4.1,1.6,4.8,4.8,2.3
	c3.8-2.9,7.2-6.5,11.6-8.8c2.2-1.2,1.9-2.9,0.8-4.7c0-2.3-1.5-2.6-3.4-2.7C353.1,475,349.1,477.7,346.1,482.5z M262.7,483.3
	c-1-3.1-3.9-2.9-6.2-3.3c-11.9-2.3-14-0.4-13.2,11.6c-1,3.7,0.6,5.5,4.3,6.3c4.3,0.9,8.5,1.8,12.9,2.3c2,0.2,3.3,0.2,3.1-2.4
	C263.4,492.9,264.2,488.1,262.7,483.3z M340.6,491.5c0.1-2.2,0.2-4.4,0.4-6.6c0.2-2.3-0.8-4.2-3-4.7c-5.2-1.4-10.5-1.1-15.4,1.3
	c-4,1.9-1.4,6.1-2.1,9.2c-0.2,1,0,2,0.1,3c-0.6,6.8-0.6,6.9,6,6c3.3-0.4,6.5-1.4,9.8-1.9C340.2,497.2,341.6,495.2,340.6,491.5z
	 M287.9,496.7c0.3-3.7,0.3-7.4-0.2-11.1c-0.6-3.9-2.6-5.8-6.8-6c-11.7-0.5-12.1-0.4-11.3,11.5c0.1,1.5,0.5,3,0.7,4.5
	c-0.8,4.2,1,5.7,5.1,5.4c2.7-0.2,5.4,0.1,8,0.6C288.1,502.6,289.1,500.7,287.9,496.7z M313.4,495.7c1.5-3.9,0.9-8,1-12
	c0.1-3.1-1.9-4.2-4.6-4.2c-11.3,0.3-13.7-1.5-14,12.2c0,1.7,0.2,3.3,0.3,5c-1.6,4.5,0.3,5.6,4.5,4.9c2.7-0.5,5.4-0.8,8.1-0.7
	C312.9,501.2,314.2,499.5,313.4,495.7z M226.3,475.6c-1.7,0.1-4-0.6-4.8,2.1c-0.5,1.7-1.5,3.7,0.7,5c4.4,2.5,8,6.2,12,9.3
	c3,2.3,4.4,0.5,4.5-2.3C239,481.4,234.3,475.6,226.3,475.6z M366.9,478.1c4.6-3.8,8.1-8.5,11.4-13.3c1-1.4,2.2-2.9,0.3-4.4
	c-1.9-1.5-3.5-0.4-4.7,1.1c-1.9,2.3-3.5,5.1-5.7,7C364.6,471.5,364.5,474.4,366.9,478.1z M217.6,478.8c-0.4-3.1,2.6-5,0.6-7.4
	c-2.8-3.4-5.6-6.7-8.4-10.1c-1.2-1.4-2.8-2.1-4.4-1.1c-2,1.3-1,2.9,0,4.4C208.7,469.5,212.3,474.1,217.6,478.8z"/>
<path class="st5" d="M413.2,324.7c2.7-19.1,5.6-38.2,9.3-57.1c2.7-2.2,14.1-2.9,17-1c0.2,0.1,0.3,0.6,0.4,0.9
	c-0.4,3.7-0.8,7.4-1.2,11c-1.7,15.7-3.5,31.4-5.2,47.1c-0.4,1.1-0.9,2.2-1.1,3.3c-1.4,7-1.4,7-8.8,7.1c-0.3,0-0.7,0-1,0
	c-3-0.1-6.4,0.9-8.9-1.1c-2.9-2.3,0.4-5.5-0.4-8.3C413.2,326.1,413.2,325.4,413.2,324.7z"/>
<path class="st0" d="M433.5,325.7c1.7-15.7,3.5-31.4,5.2-47.1c0.4-3.7,0.8-7.4,1.2-11c0.9-4.1,4.7-2.4,7.3-3.4
	c-1.8-2.7-5.3-0.1-6.8-2.8c0.1-3.2,0.1-6.4,0.5-9.6c1.4-12.9,3.4-25.8,2.6-38.9l0.3-0.1c3.3-0.7,6.5,0,9.8,0
	c-0.5,15.2-1.9,30.2-3.7,45.3c-0.2,1.5,0,3,0.1,4.5c-1.3,0.8-1.1,2-1,3.2c-2.4,21-4.9,42-7.3,63c-1.2,1-1.1,2.5-0.9,3.8
	c0.6,4.3-2,4.6-5.2,4.4c-1.9-0.1-2.6-0.5-2.3-2.7C433.7,331.4,433.5,328.5,433.5,325.7z"/>
<path class="st8" d="M405.3,341c-2.4,2.4-0.6,5.4-1.2,8.2c-1.1,5.3-2.4,10.6-2.1,16.1c-1.9-7.2-1.2-14.4-0.1-21.7
	c-11.4-4.1-23.7-2-35.8-2.7c-9.8-0.6-19.3,1.4-28.9,2c-2.1,0.1-5.6,1.6-6.7-2.3c-0.1-0.2,0-0.4,0.2-0.4c3.6-0.1,7.1-0.1,10.7-0.2
	c20.7-0.1,41.4-0.2,62-0.2C404.7,339.3,405,340.2,405.3,341z"/>
<path class="st5" d="M403.5,339.7c-20.7,0.1-41.4,0.1-62,0.2c-3.6,0-7.1,0.1-10.7,0.2c0.9-1.5,2.4-1.1,3.6-1.1c22.2,0,44.5,0,66.7,0
	C401.9,339,402.7,339.5,403.5,339.7z"/>
<path class="st9" d="M189.6,488.9c0.9-0.2,2.2-1.6,2.6-0.6c2.5,5.1,8,8,9.9,13.4c-4.3-1.2-8.5-2.2-11.3,2.8
	c-0.6,1.1-2.2,0.4-3.2-0.1c0.8-3.5,1.8-7.1,0.8-10.7C188,491.8,189.1,490.5,189.6,488.9z"/>
<path class="st2" d="M431.7,206.5c0.6,3.4,2.6,4.5,6,4c2-0.3,4,0,6,0c0.1,0.8,0.1,1.5,0.2,2.3c0,0-0.3,0.1-0.3,0.1
	c-10.5-0.3-10.5-0.3-11.7,6c-0.1-0.3-0.2-0.7-0.2-1c-0.1-2.6,0.5-5.3-3.9-5.4c-4.4,0-4.3,2.3-4.4,5.4c-0.2,3-1,5.9-1.5,8.9
	c-0.1-3.4-0.3-6.7-0.2-10.1c0.1-3.1-1.1-4.1-4.2-4.1c-7.6,0.2-15.2,0.2-22.8,0c-3-0.1-5.4,1.3-7.2,2.9c-4.7,4.3-5.4,4.4-8.9-0.8
	c0-2.7,0.1-5.4,0.1-8.1c0.7-0.1,1.3-0.1,2-0.2c2.7,0.1,5.4,0.1,8.1,0.2c0,0,0.1,0,0.1,0c0.1,1.3,0.7,1.9,2,1.9l0.1,0.1
	c0.2,1.4,1.1,1.9,2.5,1.9c6.5,0,13.1,0,19.6,0c1.4,0,2.3-0.5,2.4-2c0.1-0.4,0.2-0.7,0.3-1.1c2.7,1.1,5.6,1.4,8.3,2.8
	C428,212.3,431.1,210.4,431.7,206.5z"/>
<path class="st6" d="M170.9,161.1c-1.4,0.4-2.7,1-4.2,0.5c6.8-15.1,16.7-28,28.3-39.6c1.7-1.7,3.5-3.1,6-3.5
	c5.8,0.7,3.8-3.9,4.5-6.6c3.1,0.3,4-2.7,6.1-3.9c1,1.5,3.5,3,4,1.8c1.8-5.2,6.5-5,10.3-6.5c0.1-0.1,0.2-0.3,0.3-0.4
	c0.8-0.5,0.9-1.2,0.3-2c0-0.7-0.1-1.4-0.1-2c0.9-4.7,5.8-4.6,8.5-7.2c0.4,1.6,0.6,3.3,1.3,4.8c0.9,1.7,2.7,3.3,4.5,1.9
	c3-2.3,5.6-5.3,8.4-8c0.1-0.1,0.1-0.3,0.1-0.5c1.4-1.5,3.3,0.3,4.7-0.7c1.7,1.6,0.4,5.6,3.9,5.6c2.3,0,2.5-2.4,3-4.1
	c15.5,2.7,31,5.8,46.9,2.2c4.6-1,9.3-1,14-1.4c2.6,2.2,3.8,1.2,4-1.8c1.7,0,3.4-0.1,4.8-1c0.1,1.8,0.2,3.7,2.5,4.2
	c1.9,0.4,2.7-0.7,3.1-2.2c0.1-0.7,0.3-1.4,0.4-2.1c0-0.3,0-0.6,0.2-0.9c1.5,1.3,3.9,0.4,5.3,2.2c-0.1,0.5-0.2,1-0.2,1.5
	c0,1.7-1.6,3.8,0.5,5.1c1.9,1.1,3.5,0,4.7-1.6c0.7-0.9,1.5-1,1.8,0.1c0.8,3.6,3.2,0.6,4.8,1.3c0.7,1.8-2.1,4.7,1.3,5.5
	c2.5,0.6,2-2.6,3.4-3.7c0.8,0,1.7,0,2.5,0c-0.4,0.9-1,1.8-1.2,2.8c-0.3,1.7-2.5,3.5-0.3,5c1.5,1.1,3.6,0.6,5.2-0.6
	c0.5-0.4,1-0.9,1.5-1.3c0.9,0.4,1.8,0.8,2.7,1.3c-0.4,5.6-0.1,5.9,4.8,4c5.9,5.2,11.7,10.4,17.6,15.7c1.5,1.3,3.2,1.7,5.2,1.6
	c6.3,0,12.5,0,18.8,0c-0.5,1.2-1.6,1-2.6,1c-12.7-0.1-25.3-0.1-38-0.3c-1,0-2.1-0.9-3.1-1.3c-15.2-13.7-32.5-20.5-53.3-17.1
	c-17.4,2.9-35,3-52.4-0.1c-14.5-2.6-27.7,0.3-40.3,7.5c-10.4,6-18.8,14.7-28.6,21.6C187.4,144.3,177.7,151.1,170.9,161.1z"/>
<path class="st9" d="M226.2,102.7c-0.1,0.1-0.2,0.3-0.3,0.4c-3.8,1.6-8.5,1.4-10.3,6.5c-0.4,1.2-2.9-0.3-4-1.8
	c-0.3-3.2-0.8-6.3-0.9-9.5c-0.1-2.7,0.6-5.4,3.2-6.3c2.3-0.8,4,1.2,5.2,3.1c0.2,0.3,0.7,0.5,1.1,0.8c1-1.1,0.4-2.3,0.6-3.4
	c0.2-1.9-0.5-4.7,2.4-4.7c3.3-0.1,2.5,2.9,2.7,5c0.2,2,0.3,4,0.4,6c0,0.7,0.1,1.4,0.1,2C226.4,101.4,226.3,102.1,226.2,102.7z"/>
<path class="st9" d="M358.4,97.8c-1.3,1.1-0.8,4.3-3.4,3.7c-3.3-0.8-0.6-3.7-1.3-5.5c-1.6-0.6-4,2.4-4.8-1.3c-0.2-1.1-1.1-1-1.8-0.1
	c-1.2,1.6-2.7,2.8-4.7,1.6c-2.2-1.3-0.5-3.3-0.5-5.1c0-0.5,0.1-1,0.2-1.5c1.2-2.6,1.7-5.4,2.2-8.2c0.1-0.8,0.6-1.6,1.6-1.6
	c1,0,1.4,0.8,1.7,1.6c2,5.4,2,5.4,5.9,0.8c1,1.6,1.7,3.2,1.1,5.2c-0.3,0.9-0.3,1.8,0.8,2C362.2,90.2,358.4,94.6,358.4,97.8z"/>
<path class="st9" d="M249.2,89.8c0,0.2,0,0.4-0.1,0.5c-2.8,2.7-5.4,5.6-8.4,8c-1.8,1.4-3.6-0.2-4.5-1.9c-0.7-1.5-0.9-3.2-1.3-4.8
	c0.1-1.7,0.1-3.3,0.2-5c0.1-2,0.1-4.3,2.3-5.1c2.7-1,3,1.9,4.4,3.1c0.5,1.8,0.1,4,2.4,5.4c0-2,0-3.8,0-5.7c2-2,2.9-0.4,3.6,1.2
	C248.4,87,248.7,88.4,249.2,89.8z"/>
<path class="st9" d="M366.2,103.5c-0.5,0.4-1,0.9-1.5,1.3c-1.6,1.2-3.7,1.7-5.2,0.6c-2.1-1.5,0-3.3,0.3-5c0.2-1,0.8-1.8,1.2-2.8
	c1.8-1.1,2.7-4.6,5.7-2.3C370,98.2,366.9,100.9,366.2,103.5z"/>
<path class="st9" d="M260.9,90.6c-0.6,1.7-0.7,4.1-3,4.1c-3.6,0-2.2-4-3.9-5.6c-0.7-3.2,1-5.4,3.8-5.3C262.2,84,260,88.3,260.9,90.6
	z"/>
<path class="st9" d="M205.5,111.8c-0.7,2.7,1.3,7.3-4.5,6.6c-1.8-2.1-1.9-4.7-1.3-7.2c0.4-1.9,1.6-3.5,3.8-3.3
	C206.2,108.1,205.2,110.3,205.5,111.8z"/>
<path class="st9" d="M336.9,87.5c-0.1,0.3-0.2,0.6-0.2,0.9c-0.6,0.6-0.7,1.3-0.4,2.1c-0.5,1.6-1.3,2.6-3.1,2.2
	c-2.3-0.5-2.4-2.4-2.5-4.2c0.3-1.5,0.7-2.9,0.9-4.4c0.2-1.5,0.2-3.3,2.2-3.3c2-0.1,2,1.8,2.4,3.2C336.5,85.2,336.7,86.3,336.9,87.5z
	"/>
<path class="st9" d="M373.6,108.8c-4.9,1.9-5.1,1.6-4.8-4c1.2-2.1,2.7-4.4,5.3-2.5C377,104.3,374.7,106.7,373.6,108.8z"/>
<path class="st9" d="M325.9,89.6c-0.3,3-1.4,4-4,1.8c0-0.5-0.1-1-0.1-1.5c0-2.1-0.5-5.1,2.4-5.1C327,84.8,325.1,88,325.9,89.6z"/>
<path class="st8" d="M244.2,84.4c0,1.8,0,3.6,0,5.7c-2.2-1.3-1.9-3.5-2.4-5.4C242.6,84.6,243.4,84.5,244.2,84.4z"/>
<path class="st0" d="M170.9,161.1c6.8-9.9,16.5-16.7,26-23.5c9.7-6.9,18.1-15.6,28.6-21.6c12.5-7.2,25.8-10.1,40.3-7.5
	c17.4,3.1,34.9,3,52.4,0.1c20.7-3.5,38.1,3.4,53.3,17.1c-3.5,2.5-12.7,2.3-16.2-0.4c-5.8-3.6-11.7-7-18.5-8
	c-7.6-1-15.2,0.6-22.8,1.2c-15.2,1.1-30.5,1.8-45.6-0.2c-13.5-1.7-26.3-2.2-37.9,6c-10.3,7.3-20.3,14.8-30.8,22.5
	c2.8,1.9,4.8,4.4,7.2,7.2c3.1-7.1,8.4-11.4,14.6-14.7c11.7-6.2,21.3-3,26.7,8.9c0.3,0.6,0.6,1.2,1.7,1c0.4-0.6,0.8-1.3,1.2-2
	c6.9-14.3,28.3-17.2,38.5-5.7c2.4,2.7,3.9,1,5.2-0.7c6.8-8.3,22.4-7.4,30-2.8c4.7,2.8,6.7,7.7,10.2,11.6c5.3-15.6,17.1-15,27.8-10.1
	c6.5,3,10.7,8.3,14.7,14.4c0.9-1.7,1.2-3.4,2.1-3.9c5-2.7,2.9-4.7-0.4-6.8c-1.4-0.9-2.8-1.8-4.1-2.9c-4.4-3.6-10-5.7-12.9-11
	c5.1,0,10.2,0,15.3,0c1,1.4,1.6,2.9,3.1,3.9c14.1,9.9,27.8,20.1,37.9,34.4c0,0,0.3,0.3,0.3,0.3c0.2,0.4,0.4,0.7,0.6,1.1
	c4.8,9.1,9.5,18.3,11.4,28.7c0.6,3,0.7,5.9,0.9,8.9c-0.6,3.9-3.7,5.8-7.8,3.8c-2.7-1.3-5.6-1.7-8.3-2.8c-5.1-2.8-11.4-2.7-16.1-6.6
	c-0.5-0.4-1.7-0.3-2.4,0.1c-3.3,1.9-6.8,1.4-10.3,1.3c-1.1-1.2-2.5-1.8-4-1.9c-3.5-1.9-5.9-4.9-7.8-8.4c-1-2-2.6-2.6-4-1.1
	c-2.8,2.9-6.6,3.4-10,4.6c-8.3,3-17.6,0.7-22.6-5.6c-1.7-2.1-2.9-2.1-4.2,0c-1.5,2.2-3.5,3.8-6,4.3c-9,1.9-18,2.7-27.2,2.2
	c-1.5-0.1-2.9-0.3-4.1-1.5c-2.9-2.8-6.1-3.3-9.3-0.3c-0.7,0.7-1.7,1.4-2.6,1.5c-10.2,0.9-20.6,1.1-30-2.7c-5.1-2-7.3-4.6-13.4,0
	c-8,6-18.5,3.5-27.1-1.6c-3.4-2-4.8-1.1-6.4,1.5c-3.7,6.3-9.2,9.9-16.3,8.9c-4.9-0.7-8.8,0.2-13.4,1.7c-4.2,1.3-7.8,4.3-12,4.5
	c-4.7,0.2-5.9,2.2-5.4,6.3c-2.6,4.2-6.6,1.2-9.8,2c1.1-10.5,1.5-21.1,5.6-31.1c2.9-7.2,6.8-13.8,10.1-20.7c5-1.8,10.3-0.7,15.4-1.5
	c-3.1,0.1-5.9-2-9.2-0.7C171.8,163.2,171.1,162.2,170.9,161.1z M203.6,161.8c0.2-2.9-1.9-4.9-2.7-7.5c-1.1-3.4-3.2-3.7-5.7-1.6
	c-2.5,2.2-4.8,4.6-7.2,6.9c-1.5,1.6-3.2,3-3.7,5.2c-5.8,8.7-4,17.6,0,26c3.8,8.1,12,8.7,17.5,1.6c3.4-4.4,6.2-9.2,5-15.3
	c-0.7-4-0.9-8-1.3-12.1C205.8,163.5,206.8,161.6,203.6,161.8z M380.9,159.9c-4.1,11.2-7.1,22.3,1.4,32.9c5.5,6.8,13.2,6.2,17.2-1.5
	c3.1-5.9,4.5-12.3,3.2-19.1c-0.5-6.5-5.2-10.5-9.1-14.7C385.5,148.7,384.4,149.2,380.9,159.9z M210.9,159.8c0,0.6,0,1.3,0,1.9
	c-0.9,0.2-2.4-0.2-2.6,1c-0.2,1.4,1.5,1.4,2.4,2.2c0.4,4.4,0.6,8.8,1.1,13.2c0.7,5.3,3.7,9,8.9,10.7c4.6,1.6,9.3,1.9,14.1,1.3
	c3.9-0.5,7.6-2.3,8.1-6.5c1.4-10.6,2.4-21.2,0.3-31.9c0.3-4.4-1-8.1-5.3-9.9C227,137.4,211,148.1,210.9,159.8z M372.5,157.8
	c0.4-1.9,0.6-3.8-0.7-5.3c-5-5.6-10.3-10.6-18.4-11.4c-8.3-0.8-11.8,1.9-12.7,10.3c-1.5,8-0.8,16.1-0.5,24.2
	c0.5,12.9,5,16.4,17.8,14.4c1.3-0.2,2.7-0.4,4-0.8c4.3-1.1,8.2-3.5,9.2-7.9C372.9,173.6,374.5,165.8,372.5,157.8z M330.6,154.7
	c-2.7-12.5-14.7-18.8-26.4-13.9c-5.3,2.2-10.1,5-9.8,11.9c-1.3,9-0.4,17.9-0.2,26.9c0.2,8,4,11.9,12.1,12.6
	c5.6,0.5,11.2-0.3,16.6-1.4c7.3-1.5,10.2-4.9,10.9-12.4C334.7,170.3,333.6,162.4,330.6,154.7z M252.5,156.8
	c-2.6,7.8-3.8,15.7-2.2,23.9c0.8,4.2,2.6,8,6.9,9.3c6.8,2,13.9,3.1,21,2.2c7.8-1,11.3-4.8,11.7-12.6c0.5-7.9,0.6-15.9-0.2-23.8
	c0.2-0.9,0.2-1.7-0.6-2.4c0.1-0.3,0-0.5-0.2-0.8c0.9-6.9-4-9.3-9.1-11.6c-11.9-5.2-24.4,1.2-26.6,13.6c-0.2,0.2-0.3,0.4-0.2,0.7
	C252.5,155.6,252.4,156.1,252.5,156.8z M176,170.3c-4.4,5.9-7.2,11-9.1,16.5c-1.2,3.7-0.6,7.4,1.7,10.6c2.6,3.6,5.8,2.5,9,1
	c3.2-1.5,2.9-3.6,1.6-6.5C176.4,185.6,175.4,178.8,176,170.3z M407.4,169.7c1.6,8.4-0.2,15.2-2.6,21.9c-1.7,4.8,0,7.7,5.2,8.1
	c5.3,0.4,9.2-6.1,7-12.8C415.1,181,412.1,175.5,407.4,169.7z M163.4,197c0.6,2.7-3.1,5.1-0.5,7.4c1,0.9,3.6,0.2,4-1
	C167.9,200.6,164.8,199.2,163.4,197z M419.8,196.7c-0.9,1.6-1.7,3-2.5,4.4c-0.5,0.8-1.4,1.7-0.1,2.5c1.1,0.7,2.3,1.5,3.7,1
	c1.3-0.4,1-1.5,0.8-2.5C421.2,200.3,421.7,198.2,419.8,196.7z"/>
<path class="st0" d="M151.5,218.9c3.1,0.4,6.5-1.2,9.4,1c1,6.8,1.2,13.7,2.4,20.5c1.6,9.4,3.6,18.7,3.7,28.3
	c-1.7,1.6-3.5,1.4-5.3,0.2C157.5,252.4,152.7,236,151.5,218.9z"/>
<path class="st10" d="M214.7,285.1c-1.1-2-0.9-4.1-0.9-6.2c0.3-0.3,0.6-0.7,0.9-1c0,0,0-0.1,0-0.1c1.1-3.2,3.1-4.3,6.7-4.1
	c5.6,0.4,11.2,0.2,16.7,0c5.3-0.2,10.2,0.1,14.7,3.4c1.6,1.2,4.4,1.7,5.2-0.6c0.8-2,4.2-4,1.6-6.7c-1.7-1.8-3.5-5.7-6.3-3.7
	c-6.4,4.6-13.4,3.4-20.3,3.5c-5.7,0.1-11.5,0-17.2,0c0.1-1.7-0.2-3.5,0.3-5c3.2-8.8,6.3-17.8,10.3-26.3c1.4-3,3.4-6.8,6.9-8.4
	c5.6-2.5,11-5.8,17.1-7.1c3.1,0,6.2,0,9.2,0c0.7,0,1.3,0,2-0.1c0.7,0,1.3,0,2,0c5.4,0.2,10.9,2.5,12.4,7.1c2,6,5.6,11.7,5.1,18.7
	c-0.3,5.3-2.2,10.1-2.9,15.3c-1.4,9.3,4,13.8,12,15.8c6.7,1.7,14.7-5,15.2-12c-0.3-2.7,1-5.6-1-8.1c-1.4-8-1.4-15.9,0.9-24
	c1.8-6.3,5.3-11,11.5-12.1c15.7-2.7,28.4,0,39.7,13.3c1.6,1.9,1.4,4.5,2.9,6.4c4.6,5.7,6.2,12.4,7.2,19.4c-3.7,0.3-7.4,0.9-11.1,1
	c-12.9,0.1-25.8,0-38.7,0.1c-1.6,0-3.6-0.8-4.8,1.3c0.5,0.3,0.8,0.6,1.1,0.6c18.1,0.1,36.3,0.1,54.4,0.1c1.5,6.6,1.5,13.4,1.9,20.1
	c0.3,3.9-2.3,5.4-6,4.2c-12.6-4.4-25.1-5-38.3-2.3c-8.1,1.7-16.6,2.9-24.5,5c-11.7,3-21.7-1.3-32.4-3.2c-10.9-1.9-21.8-4.5-32.9-3.2
	c-5.9,0.7-11.6,2.7-17.4,4.1c-0.7,0-1.4-0.1-2.1-0.1c0,0,0-0.1,0-0.1C215.5,288.4,216.4,286.5,214.7,285.1z"/>
<path class="st11" d="M167,268.7c-0.2-9.6-2.2-18.9-3.7-28.3c-1.1-6.7-1.3-13.7-2.4-20.5c1.6-1.2,3.5-1.1,5.3-1.1
	c24.7,0,49.3,0.1,74,0.1c-0.1,1.2-0.9,1.5-1.9,2c-8.1,4.5-15,10-19,18.8c-3.8,8.4-6.6,17-8.8,25.8c-0.8,0.5-1,1.2-0.8,2.1
	c0,0.7-0.1,1.4-0.1,2c-12.3,0-24.6,0-36.9,0C170.9,269.7,168.8,270,167,268.7z"/>
<path class="st11" d="M209.6,273.9c-1.8,5.2-2,10.6-0.5,15.8c0.9,3.1-0.2,4.9-2.5,6.4c-9.1,6-17.4,13.1-24.9,21
	c-0.7,0.7-1.4,1.5-2.1,2.2c-0.9,1-0.2,3.7-2.4,3.1c-2.1-0.6-2-2.8-2.1-4.7c-0.7-12.7-3.4-25.2-5.3-37.7c1.4-2.4-0.3-6.1,2.4-7.8
	c2.7-1.7,4.9,1.5,7.5,1.5C189.7,273.8,199.7,273.8,209.6,273.9z"/>
<path class="st0" d="M209.7,269.7c0-0.7,0.1-1.4,0.1-2c0.3-0.7,0.5-1.4,0.8-2.1c2.1-8.9,5-17.5,8.8-25.8c4-8.8,10.9-14.3,19-18.8
	c0.9-0.5,1.8-0.8,1.9-2c2,0,4,0,5.9-0.1c2.9-0.1,4.4,1,4.2,4.1c-6.1,1.4-11.5,4.6-17.1,7.1c-3.5,1.6-5.5,5.3-6.9,8.4
	c-4,8.5-7,17.5-10.3,26.3c-0.6,1.5-0.2,3.4-0.3,5C213.8,271.6,211.8,270.7,209.7,269.7z"/>
<path class="st11" d="M160.9,214.7c-0.6-4.1,0.6-6,5.4-6.3c4.2-0.2,7.9-3.2,12-4.5c4.6-1.4,8.5-2.4,13.4-1.7
	c7.1,1,12.6-2.6,16.3-8.9c1.5-2.6,3-3.5,6.4-1.5c8.6,5.1,19.1,7.6,27.1,1.6c6.1-4.6,8.3-2,13.4,0c9.4,3.7,19.8,3.6,30,2.7
	c0.9-0.1,1.9-0.8,2.6-1.5c3.2-3,6.4-2.5,9.3,0.3c1.3,1.2,2.6,1.4,4.1,1.5c9.2,0.5,18.2-0.3,27.2-2.2c2.5-0.5,4.5-2.1,6-4.3
	c1.4-2.1,2.5-2.1,4.2,0c5,6.3,14.4,8.5,22.6,5.6c3.4-1.2,7.2-1.7,10-4.6c1.4-1.5,3-0.8,4,1.1c1.8,3.5,4.3,6.5,7.8,8.4
	c3.2,3.4-1.3,4-2.1,6c-0.7,0.1-1.3,0.1-2,0.2c-0.2-0.4-0.3-0.9-0.5-1.3c-2,1.8-3.4,3.8-3.5,6.5c-0.2,3.1,2,2.9,4,2.9
	c3.5,5.3,4.1,5.1,8.9,0.8c1.8-1.6,4.3-3,7.2-2.9c7.6,0.2,15.2,0.2,22.8,0c3.1-0.1,4.3,0.9,4.2,4.1c-0.1,3.4,0.1,6.7,0.2,10.1
	c-0.5,6-1.2,12-2,18c-0.7,5.6-3,11.1-2.6,16.9c-1.9-0.5-3.6,1.4-5.1,1.1c-11-2.3-22.1-0.7-33.1-0.9c-2.5,0-5-1.4-7.4-2.2
	c-1.7-5.1-3.2-10.2-5.2-15.1c-3.6-9.2-9.1-16.9-18-21.9c-9.5-5.4-19.6-6.5-30.2-5.9c-4.4,0.2-7.8,1.7-10.9,4.6
	c-9.4,8.8-10.4,20.2-9.9,32.1c-0.3,3.7-2.3,6.8-3.4,10.2c-0.8,2.6-2.3,5.3,2,6.1c1,0.2,1.1,1.1,1.3,2c-4.7,3.9-11.8,2.2-12.2-3.2
	c-0.3-4.1-0.2-8.3,0.9-12.5c3.2-12.2-1.3-23-8.3-32.7c-3.1-4.3-8.3-6.1-13.3-7.6c-2.8-1.5-6.3-1.5-8.5-4.5c-1.2-1.6-3.2-0.3-4.2,1.1
	c-2.8,3.9-6.6,4.4-11.1,4.3c-17.3-0.2-34.5-0.1-51.8-0.1C179.5,216.7,170,217.4,160.9,214.7z"/>
<path class="st0" d="M264.4,215.8c5,1.5,10.2,3.3,13.3,7.6c7,9.7,11.5,20.4,8.3,32.7c-1.1,4.2-1.2,8.4-0.9,12.5
	c0.4,5.3,7.5,7,12.2,3.2c2.1-2.4,5.2-3.2,8.1-4.1c-0.5,7-8.5,13.7-15.2,12c-7.9-2-13.4-6.5-12-15.8c0.8-5.1,2.6-10,2.9-15.3
	c0.5-7-3.1-12.7-5.1-18.7c-1.5-4.6-7-6.9-12.4-7.1c-0.7-0.9-1.3-0.9-2,0c-0.7,0-1.3,0-2,0.1C259.6,219.4,258.5,215.1,264.4,215.8z"
	/>
<path class="st12" d="M362.2,129.3c3,5.2,8.6,7.4,12.9,11c1.3,1.1,2.7,2,4.1,2.9c3.2,2.1,5.3,4.1,0.4,6.8c-0.9,0.5-1.2,2.2-2.1,3.9
	c-4-6.1-8.2-11.5-14.7-14.4c-10.7-4.9-22.5-5.4-27.8,10.1c-3.6-3.9-5.6-8.8-10.2-11.6c-7.6-4.6-23.2-5.5-30,2.8
	c-1.4,1.7-2.9,3.4-5.2,0.7c-10.2-11.6-31.6-8.6-38.5,5.7c-0.4,0.7-0.9,1.4-1.2,2c-1.1,0.2-1.4-0.4-1.7-1c-5.4-11.9-15-15.1-26.7-8.9
	c-6.2,3.3-11.5,7.6-14.6,14.7c-2.5-2.8-4.4-5.3-7.2-7.2c10.5-7.7,20.6-15.2,30.8-22.5c11.6-8.2,24.4-7.7,37.9-6
	c15.1,1.9,30.4,1.3,45.6,0.2c7.6-0.6,15.2-2.2,22.8-1.2c6.7,0.9,12.7,4.4,18.5,8c-0.4,2.5-2.4,1.9-4,1.9c-4.9,0.1-9.8,0.2-14.7,0
	c-2.7-0.1-5.8,1.2-7.4-3.1c-0.7-1.9-4.7-1.4-7-0.2c-2.1,1.1-2.3,2.8-0.8,4.9c1,1.4-0.8,4.5,2.5,4.6c2.5,0.1,5.5,1.2,6.4-2.9
	c0.4-1.7,2.6-1,4.1-1C343.6,129.3,352.9,129.3,362.2,129.3z"/>
<path class="st6" d="M418.5,167.6c-10.1-14.3-23.8-24.5-37.9-34.4c-1.5-1.1-2.2-2.5-3.1-3.9c6.5,0.1,13.1,0.1,19.6,0.2
	c2.1,6,7.6,9.6,10.6,15.1C411.8,152,416.6,159.1,418.5,167.6z"/>
<path class="st9" d="M332.4,525.2c0.8-2.6-0.2-5-0.6-7.5c-0.3-2.1-0.1-4.3,1.9-5.3c1.8-0.9,3.9-0.8,5.6,0.9c1.4,1.3,8.6,0,10.1-1.6
	c0.5-0.6,1.2-1.4,1.9-1.5c2.8-0.3,4.8,3.2,8.4,1.6c0.9-0.4,1.4,3.4,1.7,5.3c-0.5,2.1-0.8,4.3-1.5,6.4c-0.3,0.9-1.4,2.4-1.5,2.4
	c-4-2-8.4,3.1-12.3-0.8c-0.3,2.6-0.4,5-1.6,7.4c-1.5,2.9-3.5,4.5-6.8,3.9c-3.3-0.6-4.6-3.1-5-6.1
	C332.6,528.6,332.5,526.9,332.4,525.2z"/>
<path class="st9" d="M222.1,516.4c2.7-4.2,7.5,0.1,10.6-2.6c0.3,3,3.7,5,2.5,8.4c-1,1.3-2.2,2.6-3.1,4c-2,2.9-3.9,4.5-6.1,0.3
	c-1.3-2.4-2.7-1-4.1,0c-1.3,1-2.8,1.4-4.1,0c-1.4-1.4,0-2.4,0.7-3.5C219.7,520.8,220.9,518.6,222.1,516.4z"/>
<path class="st9" d="M212.8,512c0.4-0.3,0.8-0.6,1.2-0.9c2-1.6,4-4.9,6.7-2.5c2.6,2.3-1.1,4.2-2,6.3c-2.4,1.8-3.2,4.7-4.9,7
	c-1,1.4-2,3.1-4,2.1c-2-0.9-1.3-2.9-1-4.5C209.5,516.8,211.2,514.4,212.8,512z"/>
<path class="st9" d="M378.7,506.9c0.3-5.3,5.4-4,8.1-6.1c1.2-0.4,2.3-1.2,3.6,0.1c1.2,1.3,0.8,2.8,0.1,3.7c-1.8,2.2-3.7,4.8-6.2,6.1
	C381.2,512.3,380.9,507.8,378.7,506.9z"/>
<path class="st9" d="M302.4,530.4c0.1-0.3,0.2-0.5,0.1-0.8c0.6-0.6,0.7-1.4,0.5-2.3c0.6-1.9,0-4.7,3.3-4.8c4.3-0.2,2.3,4.2,4.1,5.8
	c-0.1,0.5-0.1,1-0.2,1.5c-0.4,2.5-0.8,5.4-4,5.5C303.2,535.5,303.1,532.6,302.4,530.4z"/>
<path class="st9" d="M321.9,525.1c0.8-2-3.3-4.5-0.2-5.5c3-1,3.6,2.7,4.5,4.9c0.3,0.6,0.5,1.2,0.7,1.9c0,1.8-0.1,3.7-0.2,5.5
	c-0.1,1.3-0.4,2.4-1.9,2.5c-1.6,0.1-1.8-1.1-2.1-2.3C322.3,529.7,323.4,527.2,321.9,525.1z"/>
<path class="st9" d="M368.8,513c-0.5-1.6-0.9-3.2-1.4-4.8c-0.3-1-1.6-2.1-0.1-3c1.3-0.7,2.2,0.5,2.9,1.4c0.9,1.4,1.7,2.9,2.5,4.3
	c0.5,2,1.1,3.9,0.8,6c-0.2,1.2-0.4,2.6-1.8,2.7c-1.8,0.2-2-1.4-2.3-2.8C369.3,515.6,369,514.3,368.8,513z"/>
<path class="st9" d="M237.3,522.3c0.5-0.4,1.1-0.8,1.6-1.2c1.1-0.7,2.2-2,3.5-0.9c1.7,1.4-0.1,2.7-0.5,4c-0.1,0.1-0.3,0.2-0.4,0.3
	c-1.7,1.2-0.7,5.7-4,4.3C234.4,527.5,237,524.6,237.3,522.3z"/>
<path class="st5" d="M303.1,527.3c0.2,0.8,0.1,1.6-0.5,2.3C302.3,528.7,302.4,527.9,303.1,527.3z"/>
<path class="st6" d="M419.4,168.9c-0.2-0.4-0.4-0.7-0.6-1.1C419,168.2,419.2,168.5,419.4,168.9z"/>
<path class="st8" d="M294.9,394c-1.8-11.6-1.8-23.4-1.9-35.1c-0.1-12.2-0.1-24.3,0-36.5c0-3.5-0.5-7.1,2-10.1
	c0.1,24,0.2,48.1,0,72.1C295,387.6,297.8,390.9,294.9,394z"/>
<path class="st8" d="M282.9,315.5c2.6,8.9,2.7,18,3,27.1c0.5,13.4,0.6,26.7,0.8,40.1c-0.4,0.7-0.8,1.4-1.8,2.9
	c0-11.4-0.4-22,0.2-32.5c0.3-5.4-3.5-10-2.1-15.1c1.5-5.3-0.3-10.3-0.1-15.5C283.1,320.2,279.3,317.9,282.9,315.5z"/>
<path class="st8" d="M384.6,450c0.4,1.9-0.4,3.6-1.1,5.4c-0.6,1.4-1.1,2.3-2.9,1.2c-5.1-3.2-8.4-0.1-11.6,3.4c-1.8,2-3.5,4.1-5.4,6
	c-2.7,2.7-5.5,4.8-9.7,4.4c-2.8-0.3-5.1,1.6-7.5,2.6c-0.5-2.5,0.3-4,3.1-3.7c8.7,0.9,14.2-4.8,18.1-10.8c3.3-5.1,8.1-5.7,12.5-6.5
	C382,451.6,383,450.5,384.6,450z"/>
<path class="st8" d="M346.8,329.2c15.8,0,31.6,0,47.4,0c0,0.3,0,0.7,0,1c-15.8,0-31.6,0-47.4,0C346.8,329.9,346.8,329.5,346.8,329.2
	z"/>
<path class="st8" d="M294.9,312.2c0-1.8,0.6-3.3,2.2-4.2C296.9,309.7,298.3,312.3,294.9,312.2z"/>
<path class="st11" d="M415.6,269.6c-3.6,17.4-4.4,35.2-8.8,52.3c-1.7,0.6-2.4-0.8-2.9-1.6c-6.5-10.3-16.5-16.8-26-23.6
	c-2.8-2-3.4-3.5-3.4-6.4c0-6.3-0.1-12.5-0.2-18.8c-0.7-4.9,1.4-6.2,6.2-6.1c10.1,0.4,20.2,0.2,30.3,0
	C413.9,265.5,415.9,266.1,415.6,269.6z"/>
<path class="st3" d="M415.6,269.6c0.3-3.5-1.7-4.1-4.7-4c-10.1,0.1-20.2,0.3-30.3,0c-4.8-0.2-6.9,1.2-6.2,6.1
	c-2.3-1.9,0.1-6.9-4.8-7.1c0-0.5,0-1.1,0-1.6c1.8-0.3,2-1.6,2-3.1c2.5,0.8,4.9,2.1,7.4,2.2c11,0.2,22.1-1.4,33.1,0.9
	c1.6,0.3,3.2-1.6,5.1-1.1c3.2,2.2,5.6,1.4,7.2-2.1c0.3,1.1-0.1,3,1.4,2.8c4.9-0.7,9.9,1,14.6-1c1.5,2.6,5,0.1,6.8,2.8
	c-2.6,0.9-6.4-0.7-7.3,3.4c-0.1-0.3-0.1-0.8-0.4-0.9c-3-1.9-14.3-1.2-17,1c0-1.9-0.5-3.1-2.8-3c-2,0.1-2.5,1.2-2.5,2.9
	C417.2,268.5,416.8,269.3,415.6,269.6z"/>
<path class="st13" d="M296.2,496.7c-0.1-1.7-0.3-3.3-0.3-5c0.3-13.7,2.7-11.9,14-12.2c2.6-0.1,4.7,1.1,4.6,4.2c-0.2,4,0.5,8.1-1,12
	C307.7,496,301.9,496.4,296.2,496.7z"/>
<path class="st13" d="M270.3,495.5c-0.3-1.5-0.7-3-0.7-4.5c-0.7-11.8-0.4-12,11.3-11.5c4.2,0.2,6.2,2,6.8,6
	c0.5,3.7,0.5,7.4,0.2,11.1C282.1,495.4,276.2,496,270.3,495.5z"/>
<path class="st13" d="M320.6,493.7c0-1-0.3-2.1-0.1-3c0.7-3.1-1.9-7.2,2.1-9.2c4.8-2.4,10.1-2.7,15.4-1.3c2.2,0.6,3.1,2.4,3,4.7
	c-0.2,2.2-0.3,4.4-0.4,6.6c-1.9,0.5-3.9,1-5.8,1.4C330.1,493.9,325.5,496.2,320.6,493.7z"/>
<path class="st13" d="M243.4,491.6c-0.8-12,1.3-13.9,13.2-11.6c2.3,0.4,5.2,0.2,6.2,3.3c0,2.3-0.4,4.7-0.1,7c0.5,4.2-1.5,5-5,4.3
	C252.9,493.6,248.1,492.6,243.4,491.6z"/>
<path class="st14" d="M226.3,475.6c8,0,12.7,5.8,12.4,14.1c-0.1,2.8-1.5,4.5-4.5,2.3c-4-3-7.6-6.7-12-9.3c-2.2-1.3-1.2-3.3-0.7-5
	C222.3,475,224.6,475.8,226.3,475.6z"/>
<path class="st14" d="M345.3,489.5c0.1-0.7,0.2-1.3,0.3-2c1.2-1.6,0.6-3.3,0.6-5c3-4.8,7-7.5,12.9-6.9c1.8,0.2,3.4,0.4,3.4,2.7
	C357.8,483.8,351.9,487.3,345.3,489.5z"/>
<path class="st14" d="M366.9,478.1c-2.5-3.7-2.3-6.6,1.2-9.5c2.3-1.9,3.8-4.7,5.7-7c1.3-1.5,2.8-2.6,4.7-1.1
	c1.9,1.5,0.7,2.9-0.3,4.4C375.1,469.6,371.5,474.3,366.9,478.1z"/>
<path class="st14" d="M217.6,478.8c-5.3-4.7-8.9-9.3-12.2-14.2c-1-1.5-2-3.1,0-4.4c1.7-1.1,3.2-0.4,4.4,1.1
	c2.8,3.3,5.6,6.7,8.4,10.1C220.2,473.8,217.2,475.7,217.6,478.8z"/>
<path class="st1" d="M243.4,491.6c4.7,1,9.5,2,14.2,3c3.5,0.7,5.5-0.1,5-4.3c-0.3-2.3,0-4.7,0.1-7c1.5,4.7,0.6,9.6,0.9,14.4
	c0.1,2.6-1.2,2.6-3.1,2.4c-4.3-0.4-8.6-1.4-12.9-2.3C243.9,497.1,242.4,495.3,243.4,491.6z"/>
<path class="st2" d="M369.6,262.9c0,0.5,0,1.1,0,1.6c-0.8,0.2-1.7,0.3-2.2,1.2c-18.1,0-36.3-0.1-54.4-0.1c-0.3,0-0.6-0.3-1.1-0.6
	c1.2-2.2,3.2-1.3,4.8-1.3c12.9-0.1,25.8,0,38.7-0.1c3.7,0,7.4-0.6,11.1-1C367.5,262.6,368.6,262.7,369.6,262.9z"/>
<path class="st1" d="M320.6,493.7c4.9,2.6,9.5,0.2,14.1-0.7c2-0.4,3.9-0.9,5.8-1.4c1,3.7-0.4,5.7-4.2,6.3c-3.3,0.5-6.5,1.5-9.8,1.9
	C320,500.6,320,500.5,320.6,493.7z"/>
<path class="st1" d="M270.3,495.5c5.8,0.5,11.8-0.1,17.6,1.2c1.2,4,0.2,5.9-4.4,4.9c-2.6-0.6-5.4-0.8-8-0.6
	C271.3,501.2,269.5,499.8,270.3,495.5z"/>
<path class="st1" d="M296.2,496.7c5.8-0.4,11.5-0.7,17.3-1.1c0.8,3.9-0.5,5.6-4.6,5.3c-2.7-0.2-5.4,0.2-8.1,0.7
	C296.4,502.4,294.5,501.3,296.2,496.7z"/>
<path class="st1" d="M345.3,489.5c6.7-2.3,12.5-5.7,17.1-11.2c1.1,1.8,1.4,3.5-0.8,4.7c-4.4,2.3-7.7,5.9-11.6,8.8
	C346.9,494.3,345.3,493.6,345.3,489.5z"/>
<path class="st1" d="M346.1,482.5c0,1.7,0.6,3.5-0.6,5C345.5,485.9,345.1,484.1,346.1,482.5z"/>
<path class="st2" d="M214.7,285.1c1.7,1.4,0.8,3.3,1,5C214.1,288.6,215,286.7,214.7,285.1z"/>
<path class="st2" d="M215.7,290.2c0.7,0,1.4,0.1,2.1,0.1c-0.1,0.7-0.3,1.4-1.1,1.4C215.9,291.6,215.8,290.8,215.7,290.2z"/>
<path class="st2" d="M214.7,277.8c-0.3,0.3-0.6,0.7-0.9,1C214.1,278.5,214.4,278.2,214.7,277.8z"/>
<path class="st5" d="M440.4,261.4c-4.7,2-9.7,0.3-14.6,1c-1.5,0.2-1.1-1.7-1.4-2.8c3.7-13.3,7.4-26.7,7.4-40.7
	c1.2-6.3,1.2-6.3,11.7-6c0.8,13.1-1.3,25.9-2.6,38.9C440.6,254.9,440.6,258.1,440.4,261.4z"/>
<path class="st0" d="M431.8,218.9c0.1,14-3.7,27.3-7.4,40.7c-1.6,3.5-4,4.2-7.2,2.1c-0.5-5.8,1.8-11.2,2.6-16.9c0.8-6,1.4-12,2-18
	c0.5-3,1.4-5.9,1.5-8.9c0.2-3.1,0-5.5,4.4-5.4c4.4,0,3.8,2.7,3.9,5.4C431.6,218.3,431.8,218.6,431.8,218.9z"/>
<path class="st11" d="M386.8,202.4c3.5,0.1,7,0.6,10.3-1.3c0.6-0.4,1.9-0.5,2.4-0.1c4.7,4,11,3.9,16.1,6.6c-0.1,0.4-0.2,0.7-0.3,1.1
	c-8.1,1.6-16.3-4.1-24.4,0.1c0,0-0.1-0.1-0.1-0.1c0-1.4-0.6-2-2-1.9c0,0-0.1,0-0.1,0C389,204.8,386.5,204.2,386.8,202.4z"/>
<path class="st10" d="M390.8,208.7c8.1-4.2,16.3,1.6,24.4-0.1c-0.1,1.5-1,2-2.4,2c-6.5,0-13.1,0-19.6,0
	C392,210.6,391,210.2,390.8,208.7z"/>
<path class="st10" d="M378.6,214.8c-2,0-4.1,0.2-4-2.9c0.2-2.8,1.6-4.8,3.5-6.5c0.2,0.4,0.3,0.9,0.5,1.3
	C378.6,209.4,378.6,212.1,378.6,214.8z"/>
<path class="st10" d="M386.8,202.4c-0.3,1.9,2.3,2.4,1.9,4.3c-2.7-0.1-5.4-0.1-8.1-0.2c0.8-2,5.3-2.7,2.1-6
	C384.3,200.6,385.7,201.2,386.8,202.4z"/>
<path class="st10" d="M388.8,206.7c1.4-0.1,2,0.6,2,1.9C389.5,208.7,388.8,208,388.8,206.7z"/>
<path class="st5" d="M226.2,102.7c0.1-0.7,0.2-1.3,0.3-2C227.1,101.5,227,102.2,226.2,102.7z"/>
<path class="st5" d="M336.3,90.5c-0.3-0.8-0.2-1.5,0.4-2.1C336.6,89.1,336.5,89.8,336.3,90.5z"/>
<path class="st13" d="M289.1,152.6c0.2,0.2,0.2,0.5,0.2,0.8c-0.4,0.9-0.2,1.7,0.6,2.4c0.7,7.9,0.6,15.9,0.2,23.8
	c-0.5,7.8-4,11.6-11.7,12.6c-7.2,0.9-14.2-0.3-21-2.2c-4.3-1.2-6.1-5.1-6.9-9.3c-1.6-8.2-0.5-16.1,2.2-23.9c0.6-0.3,0.9-0.7,0.7-1.4
	c0-0.3,0-0.5,0.2-0.7c6.5-4,13.1-7.1,21.3-6.5C280,148.6,284,152.2,289.1,152.6z"/>
<path class="st15" d="M330.6,154.7c2.9,7.6,4.1,15.5,3.3,23.7c-0.7,7.5-3.7,10.9-10.9,12.4c-5.5,1.2-11,1.9-16.6,1.4
	c-8.1-0.7-12-4.6-12.1-12.6c-0.2-9-1.1-17.9,0.2-26.9c1.5-0.3,3-0.4,4.3-1.1c10.3-5,20.2-5.6,29.5,2.5
	C328.8,154.6,329.8,154.6,330.6,154.7z"/>
<path class="st13" d="M372.5,157.8c2,8,0.4,15.9-1.4,23.6c-1,4.4-4.9,6.7-9.2,7.9c-1.3,0.3-2.7,0.5-4,0.8
	c-12.8,2-17.3-1.5-17.8-14.4c-0.3-8.1-1-16.2,0.5-24.2c0.7,0,1.4,0.2,2,0c9.6-4,18.1-1.5,25.8,4.7
	C369.7,157.1,370.9,157.9,372.5,157.8z"/>
<path class="st13" d="M210.9,161.7c0-0.6,0-1.3,0-1.9c9.1-9.3,19.6-13.1,32.3-8.1c2.1,10.6,1.1,21.3-0.3,31.9
	c-0.5,4.2-4.2,6-8.1,6.5c-4.7,0.6-9.5,0.3-14.1-1.3c-5.1-1.7-8.2-5.4-8.9-10.7c-0.6-4.4-0.8-8.8-1.1-13.2c1.3-0.1,2.7-0.3,4-0.2
	c4.4,0.1,8.7-1,12.4,3.4c2.1,2.5,5.8,1.6,7.9-1.2c2.2-2.9,1.7-5.9-0.9-8.2c-2.6-2.3-6-2.2-8.1,0.4c-2,2.6-4.3,2.8-7,2.7
	C216.3,161.7,213.6,161.7,210.9,161.7z"/>
<path class="st13" d="M402.6,172.1c1.3,6.8-0.1,13.2-3.2,19.1c-4,7.7-11.7,8.3-17.2,1.5c-8.5-10.6-5.5-21.7-1.4-32.9
	c5.4-0.7,9.8,0.8,13.8,4.8C397.2,167.2,398.8,170.9,402.6,172.1z"/>
<path class="st13" d="M205.4,165.2c0.4,4,0.6,8.1,1.3,12.1c1.1,6.1-1.6,10.9-5,15.3c-5.5,7.1-13.6,6.5-17.5-1.6
	c-4-8.5-5.7-17.4,0-26C191.3,165,198.4,163.8,205.4,165.2z"/>
<path class="st1" d="M289.1,152.6c-5.1-0.4-9.1-4-14.4-4.4c-8.1-0.7-14.8,2.4-21.3,6.5c2.2-12.4,14.7-18.9,26.6-13.6
	C285.1,143.3,290,145.7,289.1,152.6z"/>
<path class="st1" d="M330.6,154.7c-0.8-0.2-1.8-0.1-2.4-0.6c-9.2-8-19.1-7.5-29.5-2.5c-1.3,0.6-2.9,0.7-4.3,1.1
	c-0.3-6.9,4.5-9.7,9.8-11.9C315.9,135.9,327.9,142.3,330.6,154.7z"/>
<path class="st14" d="M176,170.3c-0.6,8.5,0.4,15.3,3.3,21.7c1.3,3,1.6,5-1.6,6.5c-3.2,1.5-6.5,2.5-9-1c-2.3-3.2-2.9-7-1.7-10.6
	C168.8,181.3,171.6,176.1,176,170.3z"/>
<path class="st1" d="M243.1,151.7c-12.7-5-23.2-1.1-32.3,8.1c0.2-11.7,16.1-22.4,27-18C242.2,143.6,243.5,147.2,243.1,151.7z"/>
<path class="st14" d="M407.4,169.7c4.7,5.9,7.7,11.3,9.6,17.2c2.1,6.7-1.7,13.2-7,12.8c-5.2-0.4-6.9-3.3-5.2-8.1
	C407.2,184.9,409,178,407.4,169.7z"/>
<path class="st1" d="M372.5,157.8c-1.6,0.2-2.8-0.7-4.1-1.7c-7.7-6.2-16.2-8.7-25.8-4.7c-0.6,0.2-1.3,0-2,0
	c0.9-8.4,4.4-11.1,12.7-10.3c8.1,0.7,13.4,5.8,18.4,11.4C373.1,154,373,155.9,372.5,157.8z"/>
<path class="st3" d="M210.9,161.7c2.7,0,5.4-0.1,8.1,0c2.7,0.1,5-0.1,7-2.7c2.1-2.7,5.5-2.7,8.1-0.4c2.6,2.3,3.1,5.3,0.9,8.2
	c-2.2,2.8-5.9,3.8-7.9,1.2c-3.6-4.4-8-3.3-12.4-3.4c-1.3,0-2.7,0.1-4,0.2c-0.8-0.7-2.6-0.7-2.4-2.2
	C208.4,161.5,209.9,162,210.9,161.7z"/>
<path class="st1" d="M402.6,172.1c-3.8-1.2-5.5-4.9-8-7.5c-4-4-8.4-5.5-13.8-4.8c3.6-10.7,4.6-11.1,12.6-2.4
	C397.4,161.7,402.2,165.7,402.6,172.1z"/>
<path class="st1" d="M188,159.7c2.4-2.3,4.7-4.8,7.2-6.9c2.5-2.1,4.6-1.8,5.7,1.6c0.8,2.5,2.9,4.6,2.7,7.5c-4.3,0-8.6-0.1-13-0.1
	C189.3,161.7,187.9,161.7,188,159.7z"/>
<path class="st3" d="M188,159.7c-0.1,2,1.3,2,2.7,2c4.3,0,8.6,0.1,13,0.1c3.1-0.2,2.1,1.7,1.8,3.4c-7-1.3-14.1-0.2-21.2-0.2
	C184.8,162.7,186.5,161.3,188,159.7z"/>
<path class="st1" d="M163.4,197c1.4,2.2,4.5,3.6,3.4,6.4c-0.4,1.1-3,1.9-4,1C160.3,202.1,164.1,199.7,163.4,197z"/>
<path class="st1" d="M419.8,196.7c1.9,1.5,1.4,3.6,1.9,5.4c0.2,1,0.5,2-0.8,2.5c-1.4,0.5-2.6-0.3-3.7-1c-1.3-0.8-0.4-1.7,0.1-2.5
	C418.1,199.7,418.9,198.3,419.8,196.7z"/>
<path class="st1" d="M289.8,155.8c-0.8-0.6-1-1.4-0.6-2.4C290,154,290.1,154.9,289.8,155.8z"/>
<path class="st1" d="M253.2,155.3c0.2,0.7-0.1,1.1-0.7,1.4C252.4,156.1,252.5,155.6,253.2,155.3z"/>
<path class="st0" d="M369.6,262.9c-1.1-0.1-2.1-0.2-3.2-0.3c-1-7-2.6-13.8-7.2-19.4c-1.5-1.8-1.3-4.4-2.9-6.4
	c-11.2-13.2-24-16-39.7-13.3c-6.2,1.1-9.7,5.8-11.5,12.1c-2.3,8-2.3,15.9-0.9,24c-3.9-0.2-6.4-2-7-6.1c-0.5-11.9,0.5-23.3,9.9-32.1
	c3.1-2.9,6.6-4.3,10.9-4.6c10.6-0.6,20.7,0.5,30.2,5.9c9,5.1,14.4,12.7,18,21.9c1.9,5,3.4,10.1,5.2,15.1
	C371.6,261.2,371.5,262.6,369.6,262.9z"/>
<path class="st2" d="M297.4,253.5c0.6,4,3.1,5.8,7,6.1c2,2.5,0.7,5.4,1,8.1c-2.9,0.9-5.9,1.7-8.1,4.1c-0.2-0.8-0.3-1.8-1.3-2
	c-4.4-0.8-2.9-3.4-2-6.1C295,260.3,297,257.1,297.4,253.5z"/>
<path class="st2" d="M261.6,222.7c0.7-0.9,1.3-0.9,2,0C262.9,222.7,262.2,222.7,261.6,222.7z"/>
<path class="st2" d="M210.6,265.6c-0.3,0.7-0.5,1.4-0.8,2.1C209.7,266.8,209.8,266.1,210.6,265.6z"/>
</svg>
