<?xml version="1.0" encoding="utf-8"?>
<!-- Generator: Adobe Illustrator 19.1.0, SVG Export Plug-In . SVG Version: 6.00 Build 0)  -->
<svg version="1.1" id="Layer_1" xmlns="http://www.w3.org/2000/svg" xmlns:xlink="http://www.w3.org/1999/xlink" x="0px" y="0px"
	 viewBox="-102 252.5 406.5 289.5" style="enable-background:new -102 252.5 406.5 289.5;" xml:space="preserve">
<style type="text/css">
	.st0{fill:#844007;}
	.st1{fill:#713704;}
	.st2{fill:#C68640;}
	.st3{fill:#F2B060;}
	.st4{fill:#804818;}
	.st5{fill:#99602D;}
	.st6{fill:#AD733B;}
	.st7{fill:#CE8540;}
	.st8{fill:#FBC170;}
	.st9{fill:#E59B4D;}
	.st10{fill:#241915;}
	.st11{fill:#FEFEFD;}
	.st12{fill:#955411;}
	.st13{fill:#FCDDBE;}
	.st14{fill:#FDD1A2;}
</style>
<path class="st0" d="M-49.9,264.1c2.7,0,4,2,5.5,3.8c0.7,0.8,1.3,1.9,2.1,3.2c0.6-4.3,2.3-7.6,5.3-10.3c0.2,0,0.4,0,0.5,0
	c0,2.9,0,5.8,0,8.7c0,1.6,0.4,1.8,1.8,1c3-1.7,6-3.5,9.9-4c-1.6,2.4-3.4,4.4-3.3,7.5c4.7-3.4,9.2-6.5,15.2-7.8c-1.7,3-3.2,5.6-5,8.7
	c3.4-1.3,5.9-3.5,9.4-4c-0.7,1.9-2.3,3-2.6,4.8c-3.1,0.4-6.2,0.5-8.7,2.9c-4.1-0.8-6.9,1.6-9.8,4.8c0.3-1.2,0.4-1.8,0.6-2.4
	c0.1-0.6,0.9-1.4,0-1.9c-0.6-0.4-1.1,0.4-1.5,0.9c-0.9,0.9-1.7,1.8-2.9,3.1c0.2-2.3,1.7-3.7,2-5.8c-1.8,0.5-3.1,1.3-4.4,2.2
	c-0.5,0.3-0.9,1.1-1.5,0.6c-0.3-0.2-0.2-1-0.3-1.5c-0.1-0.5,0.2-1.1-0.3-1.4c-2,0.6-1.7,2.9-2.8,4.1c-0.9-0.3-0.9-1.6-2-1.4
	c-0.5,1,0.4,2.4-0.6,3c-1.3,0.6-1.8-1-2.7-1.6c-1.7-1.2-3.3-2.5-5.7-1.3c0.7,0.6,1.3,1.1,1.7,1.6c0.6,0.8,1.3,1.8,0.7,2.6
	c-0.7,1-1.5-0.2-2.3-0.4c-1.9-0.4-3.7-1.4-5.8-0.4c1,0.9,2,1.6,2.7,2.4c2.1,2.3,1.8,3.3-1.2,4.2c-0.1-0.3-0.1-0.7-0.4-0.9
	c-4.7-4.2-9.8-7.5-16.6-6.3c-1.4-0.8-1-1.3,0.3-1.7c2.6-0.6,5.3-0.8,8.5-0.6c-2.2-3.1-5.1-4.6-8-6.3c2.5-1.8,4.9-2.3,7.6-1.1
	c2.8,1.3,5.9,1.8,8.9,2.5c0.7,0.1,1.7,0.4,2.1-0.5c0.3-0.7-0.6-1.2-1-1.7c-1.4-1.7-3.1-3.1-5.7-3.9c4.1-0.9,7.4-0.1,10.5,1.8
	c1.4,0.9,1.8,0.6,1.8-1C-47.9,268-47.8,265.7-49.9,264.1L-49.9,264.1z"/>
<path class="st1" d="M278.3,410.1c-1.6,0.2-2.7,1.5-4,2.3c-2.9,1.9-5.7,3.8-9.3,4.6c0.6,1.3,1.8,1.7,2.9,2.8
	c-5.2,0.3-10.1,1.4-15-0.6c-0.4-1.7-1.4-3-2.3-4.4c5.5-7.2,10-10.5,14.3-10.9c0,1-1.3,1.1-1.3,2.1c2.8-0.4,5.5-1.2,8.3-0.4
	c-0.1,0.9-1.2,0.7-1.5,1.8c2.9-0.2,5.5,0.4,8,1.8C278.3,409.4,278.3,409.8,278.3,410.1z"/>
<path class="st2" d="M-7.7,502.4c-0.7,0.5-1.4,1-2.2,1.5c-0.4,0-0.7,0-1.1,0c-0.4-0.7-0.7-1.4-1.1-2.1c0-0.9,0-1.7,0-2.6
	c1.1,0,2.1,0,3.2,0C-8.8,500.3-9.2,501.7-7.7,502.4z"/>
<path class="st0" d="M-80.9,314.8c-1.5,0.9-2.2,2.5-3.8,3.9c0.3-7.8,4.8-13.5,7.7-19.8c1.6,1.4,3.1,2.8,4.7,4.2
	c0.1,1.8-0.4,3.3-1.6,4.8c-2.5,3-4.6,6.3-5.2,10.7c2.6-1,3.6-3.9,6.5-4.3c-1.7,4.1-2.9,8.1-3.4,12.7c1.5-1.5,1.8-3.4,3.8-3.6l0,0
	c-0.1,0.6-0.2,1.2-0.4,1.8c-0.5,2-0.9,3.9-1.4,5.9c-0.6,2-0.2,4-0.4,6.4c1.7-2.2,2.3-4.6,4.8-6.4c-1,5.2-2.1,9.8-1.4,14.8
	c1.1-1.2,1.3-2.8,2.5-3.6c0.3-0.3,0.6-0.7,1.1-0.5c0.6,0.2,0.4,0.7,0.3,1.1c-0.8,3-0.2,6.1-0.3,9.2c-0.1,1.2,0,2.3,1,3.2
	c1.4-2,1.5-4.8,3.8-6.8c0,5-0.2,9.6,1.5,14.5c1.3-3.1,2.5-5.6,4.7-7.7c1.5,6.1,2.2,12.2,4.9,17.8c1.5-2.1,2.9-4.3,5.3-5.2l0,0
	c-0.1,2.3-1,4.6-0.3,7c0.9,0,1.2-0.8,1.7-1.2c1.6-1.3,3.6-1.4,5.3-0.8c1.5,0.5,0.6,2.3,0.7,3.6c0.1,1.2-0.1,2.5,0.1,3.7
	c0.2,2,0.6,4,0.8,5.9c1.4-4.4,4-7.7,6.9-11.5c0.2,2.5,0,4.3-0.2,6.2c-0.2,1.7,0.3,3.4,0.6,5.9c1.4-3.6,2.7-6.4,5.3-8.6
	c0.8,3.4,1.8,6.6,3.3,10.1c0.4-5.1,0.9-6.7,2.9-8.7c2,4.5,1.3,9.3,1.6,14.7c3.8-7.1,4.9-14.2,5.6-21.4c0.6,1.6,0.9,3.2,1.2,4.8
	c0.1,0.7-0.1,1.6,0.8,1.7c0.7,0.1,0.8-0.8,1.1-1.3c2.4-4.6,3.8-9.5,4.4-14.8c0.7,2.1,1.3,4.2,2,6.2c2.8-6.1,1.7-12.1-0.4-18.4
	c3.1,1.2,3.6,4,5.3,6.4c0.8-2.9,0.7-5.3,0.4-7.9c-0.5-4-2.1-7.8-2.9-11.7l0,0c3.3,1,3.6,4.7,6.2,7c0.3-6-0.1-11.7,0.5-17.3
	c1,0,0.8,1.3,1.9,1.3c-0.8-3.5-0.3-7.2-1.8-10.6c-1.2-3-3.1-5.5-5.1-8c-0.4-0.6-1.5-1.3-0.5-1.9c1.5-0.9,0.6-1.5,0.1-2.3
	c-0.9-1.3-2-2.5-2.8-3.8c-1.5-2.6-4.3-4.2-4.9-7.3c1.3-2.1,2.5-4.2,3.8-6.3c4.7,3.2,9.1,6.7,11.8,12.2c-1.9-0.2-3.1-1.5-5-0.9
	c5.4,4.8,9.1,10.7,11.8,17.3c0,0.3,0.1,0.6,0.4,0.6l0,0c0.1,0.8,0.1,1.6,0.2,2.5c-0.1,0.1-0.2,0.2-0.3,0.3c-1-0.7-1.7-2-3.4-1.7
	c0.3,0.8,0.5,1.4,0.8,2.1c-0.1,0.1-0.2,0.2-0.2,0.2c0.1,0.1,0.2,0.2,0.3,0.3l0,0c0.2,0.2,0.3,0.4,0.5,0.6l0,0c0.1,0.4,0.1,0.8,0.6,1
	l0,0c0.2,0.2,0.4,0.4,0.5,0.6l0,0c0,2.4,0.8,4.6,1.5,6.9c-0.2,0.7,0.4,1.1,0.5,1.6c-1,1.9-0.3,3.9,0,5.8c0.1,0.6,0.3,1.3-0.3,1.7
	c-0.7,0.5-1-0.4-1.6-0.6c-1-0.3-1.3-1.7-2.6-1.4c-0.3,0.5-0.1,0.9,0,1.3c1.1,5.4,1.2,10.9,0.3,16.4c-0.2,0-0.4,0-0.5,0.1
	c-0.8-0.4-0.7-1.6-2.2-2c1.3,6.4,3.2,12.5,2.8,18.9c-0.8,0.8-0.3,1.9-0.7,2.7c-1.6,0.1-2.6-1.2-4.2-2c0.6,2.6,1.3,4.7,1.4,6.9
	c0.2,3.1,1.7,6.3,0.2,9.5c-0.5-0.3-0.9-0.7-1.5-0.6c-0.5-0.8-1-1.6-2.3-1.8c0.5,3.6-1.7,6.4-2,9.7c-0.1,0.7-0.2,1.4-0.2,2.1
	c-1.1,1.6-2.1,2.6-3.6,0.2c-0.6-1-1.5-0.7-2,0.3c-1.2,2.4-2,4.8-1.3,7.6c0.6,2.3,0.1,2.7-2.2,2.1c-2.9-0.9-4.9-3-7-5
	c-0.7-0.7-1-2.3-2.3-1.8s-0.9,2.2-1.4,3.2c-0.1,0.3,0.1,0.7,0.2,1c0.1,0.5,0.3,1.1-0.1,1.5c-0.6,0.5-1.2,0-1.7-0.3
	c-2.8-1.8-5.3-3.9-7.1-6.8c-0.3-0.5-0.4-1.6-1.4-1.2c-1.3,0.5-3,0.8-3.5,2.1c-0.8,1.8-1.4,0.9-2.3,0.3c-2.2-1.5-4.1-3.2-6-5.1
	c-1.9-1.9-6-1.9-7.1,0.5c-1.4,3.1-2.3,1.7-3.8,0.4c-0.9-0.7-1.7-1.5-2.4-2.4c-2.5-3.1-4.7-6.4-6.7-9.9c-1.4,1.5-1.6,3.4-3.3,4.3
	c-0.5-1-1.1-2-1.6-3c-0.2-0.3-0.4-0.5-0.5-0.8l0,0c-0.3-4.2-0.8-8.3-2-12.3c-0.2-0.7-0.3-1.8-1.3-1.7c-1.2,0.1-0.8,1.3-0.9,2.2
	c0,0.3,0,0.7,0,1.1c-0.1,1.8-0.9-0.1-1.3,0.2c-0.4-1.8-0.9-3.6-1.3-5.4c-1-4.6,0-9.5-2.2-14.3c-1.7,5.3-1.7,5.3-4.3,3.8v-0.2
	c-0.1-0.3-0.2-0.6-0.4-0.9c-6.2-10.8-2.3-22-1-33.1c-1.9,2.6-2.5,5.7-3.4,8.7c-2.6-7.7-2.6-10,0.1-17.2
	C-81.2,316.1-80.6,315.5-80.9,314.8c0.2,0.1,0.4,0,0.4-0.2c0-0.1-0.1-0.1-0.1-0.2C-80.7,314.5-80.8,314.6-80.9,314.8z"/>
<path class="st3" d="M16.2,319.9c-0.1-0.8-0.1-1.6-0.2-2.5c1.1-0.2,1.8,0.6,2.6,1c7.8,4.3,16.1,6.4,25,6.4
	c25.8-0.2,51.2-2.7,76.5-7.7c13.1-2.6,26.1-2.3,38.4,4c2.5,1.3,4.7,3.1,7,4.8c1.7,1.9,3.3,3.9,5,5.8c0.5,1.1,0.9,2.1,1.4,3.2
	c-4.9-1.8-9.6-4.2-14.6-6c-6.9-2.5-13.7-4.7-21.1-4.6c-3.3,0-6.5,0.1-9.7,0.5c-5.5,0.7-11,1.1-16.4,1.8c-8.1,1.1-16.3,2.3-24.4,3.5
	c-6.8,1-13.7,1.9-20.5,2.8c-6.2,0.9-12.5,1.6-18.8,1.9c-7,0.3-13.7-1.3-20.2-4c-2.1-0.9-4.1-2.6-6.7-2.1c-1.4-1.9-2.3-4.2-4.4-5.6
	l0,0c-0.1-0.3-0.2-0.6-0.5-0.6l0,0c0-0.5-0.3-0.7-0.6-1l0,0c-0.2-0.2-0.3-0.4-0.5-0.6l0,0c0-0.2,0-0.3-0.1-0.5
	c-0.3-0.7-0.5-1.4-0.8-2.1c1.7-0.2,2.4,1,3.4,1.7c0.1,0.2,0.3,0.4,0.4,0.6C16.6,320.5,16.5,320.2,16.2,319.9z"/>
<path class="st4" d="M192.4,376.8c0,0.3,0.1,0.7,0.1,1c-0.8,0.8-0.1,1.2,0.4,1.6c-0.2,3.3,1.2,6.1,2.1,9.2c1.5,5,3.1,9.9,5.6,14.4
	c3.5,6.1,8.5,10.3,15.1,12.6c0,1-0.2,1.2-1.4,1.1c-2.2-0.2-4.4-0.6-6.6-1.2c-1.2-0.3-2.3-0.8-3.4-1.4c-2.9-1.4-5.1-4-8.2-5.1
	c-1-1-1.6-2.3-2.3-3.5c-4-7.1-7.6-14.3-10.4-21.9c-2.5-10.7-4.8-21.5-6.6-32.3c1.3,0.7,2.6,1.4,3.5,2.7c3.6,5.1,6.6,10.4,8.6,16.3
	c0.5,1.5,0.4,3.6,2.5,4.3C191.5,375.4,191.1,376.5,192.4,376.8z"/>
<path class="st5" d="M191.5,374.6c-2.1-0.7-2-2.8-2.5-4.3c-2-5.9-5-11.2-8.6-16.3c-0.9-1.3-2.2-2-3.5-2.7c-0.4-0.5-0.4-1-0.3-1.6
	c0.5-0.3,0.3-0.5,0-0.7c-0.3-0.9-0.7-1.8-0.9-2.7c-1.2-3.8-1.6-7.9-3.7-11.5c-0.5-1.1-0.9-2.1-1.4-3.2c1.1-0.1,2.1-0.1,3.1,0.6
	c4.2,2.9,7.5,6.6,9.7,11.2c1.9,4,3,8.2,4.6,12.3c0.6,1.5,0.4,3.4,2,4.5c0,0.3,0.1,0.7,0.1,1c-0.8,0.8-0.7,1.3,0.4,1.6
	c0,0.7,0.1,1.4,0.1,2.1c-0.8,0.8-0.7,1.3,0.4,1.6c0.4,2.6,0.8,5.3,1.1,7.9C191.8,374.6,191.6,374.6,191.5,374.6z"/>
<path class="st6" d="M196.2,409c3.1,1.1,5.3,3.6,8.2,5.1c1.1,0.5,2.2,1.1,3.4,1.4c2.1,2.4,4.9,3.8,7.9,4.7
	c6.2,1.9,12.5,1.3,18.7,0.2c1.5-0.2,3.3,0.2,4.5-1.3c-0.6-0.7-1.5-0.2-1.9-1c3.3-0.7,6.8-0.6,10-1.8c1.2-0.5,2.4-1,3.6-1.5
	c0.9,1.4,1.9,2.7,2.3,4.4c-9.2,4.5-18.9,6.8-29.1,6.4c-8.6-0.8-15.4-5.5-21.7-10.8c-1.3-1.1-2.4-2.5-4.2-3
	C197.5,410.7,196.1,410.3,196.2,409z"/>
<path class="st6" d="M189.8,360.3c-1.6-1.1-1.4-3-2-4.5c-1.6-4.1-2.7-8.4-4.6-12.3c-2.2-4.6-5.5-8.3-9.7-11.2
	c-0.9-0.6-2-0.7-3.1-0.6c-1.7-1.9-3.3-3.9-5-5.8c7.1-0.4,12.3,3,16.4,8.5c4.7,6.4,6.3,13.9,7.4,21.5
	C189.5,357.4,189.6,358.9,189.8,360.3z"/>
<path class="st7" d="M-3,288.2c-1.3,2.1-2.5,4.2-3.8,6.3c-2.3-0.8-4.2-2.5-6.4-3.6c0.2-1.8-0.1-3.6-1.3-4.9c-1-1.1-0.3-1.6,0.3-2.3
	c2.2-2.7,5.2-3.9,8.4-4.9c0.2,0,0.4,0,0.6,0C-1.5,281.2-2.3,284.8-3,288.2z"/>
<path class="st5" d="M237,418.1c0.4,0.7,1.3,0.3,1.9,1c-1.2,1.5-3,1.1-4.5,1.3c-6.2,1-12.5,1.6-18.7-0.2c-3-0.9-5.8-2.3-7.9-4.7
	c2.1,0.6,4.3,1,6.6,1.2c1.2,0.1,1.4-0.1,1.4-1.1c4.5,1.3,9.2,1.7,13.9,2.2c0.5,0.4,1.1,0.3,1.6,0.2
	C233.2,418.1,235.1,418.1,237,418.1z"/>
<path class="st8" d="M-5.2,278.8c-0.2,0-0.4,0-0.5,0c-3.6-2.1-4.6-2.2-7.2,0.2c-3,2.7-5.6,5.7-7.6,9.3c-3.6-0.7-3.7-0.8-2.2-3.9
	c1-2,2.1-3.9,3.1-5.8c2.4-2.4,5.6-2.5,8.7-2.9C-8.7,276.1-6.2,276.1-5.2,278.8z"/>
<path class="st6" d="M191.5,374.6c0.2,0,0.3,0,0.5,0c0.4,0.7,0.6,1.4,0.5,2.1C191.1,376.5,191.5,375.4,191.5,374.6z"/>
<path class="st6" d="M190.3,363c-1.1-0.3-1.2-0.8-0.4-1.6C190.2,361.9,190.4,362.4,190.3,363z"/>
<path class="st6" d="M190.8,366.7c-1.1-0.3-1.2-0.8-0.4-1.6C190.8,365.6,190.9,366.1,190.8,366.7z"/>
<path class="st6" d="M192.9,379.4c-0.5-0.4-1.3-0.8-0.4-1.6C192.9,378.3,193,378.8,192.9,379.4z"/>
<path class="st6" d="M231.3,418c-0.6,0.1-1.1,0.2-1.6-0.2C230.2,417.6,230.8,417.7,231.3,418z"/>
<path class="st3" d="M16,317.5c-0.4,0-0.4-0.3-0.4-0.6C15.8,316.9,16.1,317.1,16,317.5z"/>
<path class="st9" d="M171.9,333.9c2.1,3.6,2.5,8.6,3.7,12.5c0.3,0.9,0.6,1.8,0.9,2.7c0,0.2,0,0.4,0,0.7c0,0.5,0,1.1,0.3,1.6
	c1.9,10.8,4.2,21.6,6.6,32.3c-1,0.8-0.6,2-0.6,3c0,4.8-0.1,9.5-1.6,14.1c-2,6-4.7,10.7-13,10c-3.2-0.3-6.2-1.3-9.1-2.6
	c-1.4-0.6-2.7-1.7-4.4-1.7c-1.5-1-2.1-2.8-3.7-3.7c-1.4-1.6-2.5-3.5-4.7-4.2c-0.1-1-0.9-1.6-1.6-2.2c-1.7-1.3-3.5-2.5-4.8-4.2
	c-0.4-1.3-1.5-2.2-2.3-3.2c-3-3.5-6.6-6.5-8.5-10.7c-1.5-3.3-2.8-4.7-7-4.4c-6,0.6-11.9,1.4-17.3,4c-13.5,6.4-27.8,9.1-42.6,9.5
	c-1.1,0-2.1,0-3.2,0.2c-3.2,0.6-6.5,0.5-9.7,0.2c-7.9-0.6-15.8-0.5-23.6-2c-0.8-0.2-1.6,0.1-1.9,1.1c-0.7,2.6-1.5,5.2-2.2,7.8
	c-0.9,0.7-0.4,1.8-0.6,2.7c-1.4,0.4-1.5,1.8-2,2.9c-0.7,1.5-1.4,3.1-3.1,3.7c-3.7,1.3-3.6,3.6-3.1,6.4c1.5,8.5,3.5,17,4.4,25.6
	c0.4,3.8,1.2,7.7,0.6,11.6c-0.4,2.6-0.4,5.3-0.9,7.8c-0.9,4.5,0,9.1-1,13.7c-1.3,6.1-5.8,8.2-10,4.7c-1.8-7.9-3.6-15.9-5.3-23.8
	c-1.3-6-3-11.9-3.8-18c2.1-1.2,2.5-3.2,2.7-5.4c0.3-3.5-1.1-7-0.3-11.1c1.1,1.6,1.9,2.7,2.9,4.2c1.2-6.5,2.6-13.1,3.7-19.2
	c2.9,1.2,1.2,2.8,2,4.7c1.9-4.4,1.5-8.2,1.8-13.4c0.6,1.6,1.2,2.8,1.8,4.4c1.7-4.2,1.7-7.2,0.7-10.9c0.2-1.9,0.3-3.9,0.5-5.8
	c1,1.6,0.3,3.9,2.2,5.7c0.3-3.4,0.8-6.4,0.9-9.4c0-1.2,1.2-2.6-0.2-3.8c0.1-1.7,0.3-3.3,0.2-5c-0.2-4-1.8-7.7-3.1-11.4
	c1.6-0.2,1.9,2,3.5,1.9c1.1-4.4,0.8-8.7-0.4-13.4c1.8,0.9,3.2,1.6,4.6,2.3c0.7-5.4-0.5-10.2-3.5-14.6c-0.2-0.6-0.7-1-0.5-1.6
	c1.5,0.1,2.6,1.3,4.3,2.2c-0.6-1.5-1-3.6-1.4-4.6c2.6-0.5,4.6,1.2,6.7,2.1c6.5,2.8,13.1,4.3,20.2,4c6.3-0.3,12.6-1,18.8-1.9
	c6.8-1,13.7-1.9,20.5-2.8c8.1-1.1,16.3-2.4,24.4-3.5c5.5-0.7,11-1.2,16.4-1.8c3.2-0.4,6.5-0.5,9.7-0.5c7.4-0.1,14.3,2.2,21.1,4.6
	C162.3,329.7,166.9,332.1,171.9,333.9z"/>
<path class="st6" d="M140,392.1c1.3,1.7,3.2,2.9,4.8,4.2c0.8,0.6,1.5,1.1,1.6,2.2c0.4,6.5-0.3,13,0.5,19.5c0,1.9,0.1,3.9,0.1,5.8
	c-0.2,1.3,0.1,2.5,0.5,3.7c0,0.2,0,0.4,0,0.5c0.3,1.9,0.9,3.7,2,5.3c0.2,1.2,0.8,2.2,1.6,3.2c0.1,0.7,0.4,1.2,0.9,1.7
	c0.9,1.7,1.9,3.5,2.8,5.2c0.4,1.1,0.7,2.1,1.1,3.2c0,0.9-0.1,1.7-0.1,2.6c-0.5,0.4-0.5,1-0.5,1.6c-1.6,3-3.2,6-4.8,9
	c-0.3,0.4-0.5,0.7-0.8,1.1c-0.6,0.9-1.2,1.7-1.8,2.6c-0.3,0.4-0.6,0.8-0.9,1.1c-1.1,1.4-2.2,2.7-3.3,4.1c-2.1,2.1-4.3,4.3-6.4,6.4
	c-1,0.8-2,1.5-3,2.3c-0.6,0.5-1.2,0.9-1.8,1.4c-2.3,1.4-4.3,3.2-6.3,5c-0.5,0.4-1,0.9-1.5,1.3c-2.7,1.6-5.1,3.7-8.4,4
	c-1.1,0-2.1,0-3.2,0c-0.7,0-1.4-0.1-2.1-0.1c-0.6-0.4-1.4-0.5-2.1-0.4c-1.6-1.3-2.8,0.7-4.2,0.6c-0.7-0.2-1.4-0.4-2.1-0.6
	c-0.4-0.2-0.7-0.4-1.1-0.7c0-0.8,0-1.7,0-2.5c3.8,0.6,7.5,1.1,11.3,0c0.6-0.2,1.2,0,1.8,0c1.2,0,2.2-0.4,3.3-0.8
	c0.9-0.3,1.2-0.9,0.7-1.8c-1.9-3.4-5.9-5-9.9-4.5c-2.3,0.3-4.7,1.8-7.1,0.2h0.2c0.4,0,0.6-0.2,0.6-0.6c0-0.1,0-0.2,0.1-0.3
	c0.4-0.2,0.7-0.3,1.1-0.5c0.3,0,0.7-0.1,1-0.1c2.2,0,4.3,0,6.5,0c1.6,0,3.3,0.3,4.6-1c5.3-2.6,10.1-5.9,12.8-11.5
	c0.6-0.4,0.9-1,1-1.7c1.1-1.2,1.7-2.7,2.3-4.2c0.3-0.7,0.7-1.4,1-2.2c1.2-2-0.5-3.3-1-4.9c-0.2-0.5-0.2-1.2-0.7-1.5
	c-1.5-4.4-3.4-8.5-5.4-12.7c-0.4-1.1-0.7-2.3-1.5-3.2c0-0.2-0.1-0.4-0.1-0.5c-0.1-0.2-0.2-0.4-0.4-0.6c0-0.8-0.4-1.4-0.9-2.1
	c-0.3-0.9-0.6-1.9-1.3-2.6c-1.2-3.6-3.3-6.8-5.1-10.1c-0.3-0.5-0.5-1-0.8-1.5c0-0.8-0.4-1.5-0.8-2.2c-0.2-0.5-0.1-1.2-0.7-1.5
	c-0.1-0.4-0.2-0.7-0.4-1.1c-0.6-2-1.2-4-2.2-5.8c0-0.6-0.1-1.1-0.6-1.6c-0.6-2.6-1.5-5.1-2.6-7.5c0-0.3,0-0.6-0.1-1
	c5.4-6.9,15.2-9.8,23.4-7.2C134.6,389.5,137.1,391.3,140,392.1z M146.1,459.7c1.9-1.1,3.5-2.3,4.5-4.1c1.4-2.5,2.2-5.1,0.6-8
	c-1.4-2.6-2.4-5.4-3.3-8.2c-1-3.2-1.5-6.6-4.2-9.8c0.2,5.5,1.1,10.2,2.4,14.7C147.7,449.5,149.2,454.5,146.1,459.7z"/>
<path class="st2" d="M140,392.1c-3-0.8-5.5-1.6-8.4-2.5c-8.2-2.6-18,0.3-23.4,7.2c-2.2,1.2-3.8,2.1-5.4,3.9
	c-0.7,0.6-1.4,1.2-2.1,1.8c-2.3,1.5-4.5,2.9-6.8,4.4c-4.6,1.6-9.5,2.3-14.2,3.7c-3.9,0.4-7.9,0.7-11.8,1.2c-8.1,1-16.2,1.4-24.4,2
	c-3.2,0-6.3,0-9.5,0c-1.4-1.8-2.7-3.6-4.4-5.2c-4.1-3.8-7.3-8.7-8.8-14c0.7-2.6,2.4-5.4,3.1-8c0.3-0.9,1.1-1,2-0.9
	c7.8,1.5,15.7,1.3,23.6,2c3.2,0.3,6.5,0.4,9.7-0.2c1-0.2,2.1-0.2,3.2-0.2c14.8-0.3,29.1-3.1,42.6-9.5c5.4-2.6,11.3-3.4,17.3-4
	c4.1-0.4,5.5,1.1,7,4.4c1.9,4.2,5.5,7.2,8.5,10.7C138.6,390,139.6,390.8,140,392.1z"/>
<path class="st2" d="M154.9,406.4c1.7-0.1,3,1,4.4,1.7c2.9,1.3,5.9,2.3,9.1,2.6c8.3,0.7,11-4,13-10c1.5-4.6,1.6-9.3,1.6-14.1
	c0-1-0.4-2.1,0.6-3c2.8,7.6,6.4,14.8,10.4,21.9c0.7,1.2,1.3,2.5,2.3,3.5c-0.1,1.3,1.2,1.7,1.6,2.7c0.2,0.5,0.4,1,0.7,1.4
	c3.6,6.2,9.6,9.3,15.9,12c1,1.2,1.9,2.4,2.9,3.6c0.4,2.1,0.8,4.2,1.2,6.3c0,0.7,0,1.4,0.1,2.1c-0.2,3.4,0.2,6.7,0.5,10.1
	c0,2.8,0,5.7,0.1,8.5c0,1.8,0,3.5,0,5.3c0,0.4,0,0.7,0,1.1c0,1.6,0,3.2,0,4.8c0,1.4,0,2.8-0.1,4.2c-0.7,1.8-0.3,3.4,0.9,4.8
	c0.4,2.4-1.9,2.7-3.1,3.9c-1.6,0.8-3.2,1.5-4.8,2.3c-0.7,0.2-1.4,0.4-2,0.6c-1.4-0.2-2.9,1.1-4.2-0.1c-0.2-0.2-0.4-0.3-0.6-0.5v0.1
	c0-2.2-1.4-4.2-1.3-6.4c0,2.2-1.1,4.5,0.9,6.4c-1.3,0.9-2.9,0.4-4.3,0.6c-0.4,0-0.7-0.1-1.1-0.1c-0.8-0.6-1.8-0.3-2.7-0.5
	c-1.9-2-0.7-4.3-0.5-6.4c0.2-0.2,0.4-0.4,0.7-0.6c-0.1-0.1-0.2-0.1-0.3-0.2c-0.1,0.3-0.2,0.6-0.4,0.8c-2.3,1.3-2.7,3.5-2.7,5.9
	c-0.8,0.1-1.2-1-2.1-0.6c-0.3,0-0.5,0-0.8,0c0.2-1.3,0.4-2.5,0.7-3.8c0.4-3.2,3.2-4.3,5.4-5.8c2.5-0.8,5.5-0.6,7.3-3.2
	c1.3-1.6,0.5-3.5,0.6-5.3c0-3,0.3-6-0.5-9c0-0.9-0.1-1.8-0.1-2.6c-0.5-3.1-0.2-6.6-3.1-8.9c-1.1-0.9-2.3-1.8-3.7-2.3
	c-0.4-0.6-1-0.8-1.6-1c-2-1.5-4.1-2.7-6.3-3.8c-0.4-0.5-1-0.9-1.6-1c-0.4-0.5-1-0.8-1.6-1c-1.3-1.1-2.7-2.1-4.2-2.7
	c-0.9-0.9-2-1.6-3.2-2.2c-0.5-0.4-1.1-0.7-1.6-1.1c-0.7-0.5-1.4-1-2.1-1.4c-1.6-1.2-3.1-2.3-4.7-3.5c-0.4-0.6-0.9-1-1.6-1.3
	c-3-3-6.1-6-9.1-9c-0.8-1.2-1.6-2.2-2.7-3.1c-0.5-0.9-1.2-1.6-2-2.2C154.9,406.8,154.9,406.6,154.9,406.4z M213.4,444
	c0.6-1.9-0.1-3-0.3-4.2c-2.6-12.6,0.1-9-10.6-16.2c-2.2-1.5-4.4-2.9-6.7-4.3c-0.6-0.4-1.5-1.1-2.1-0.2c-0.6,0.8,0.3,1.4,0.9,2
	c0.2,0.3,0.5,0.5,0.8,0.7c3.1,2.2,6.2,4.4,9.3,6.5c3.1,2.2,5.6,4.7,6.4,8.6C211.7,439.1,212.6,441.3,213.4,444z"/>
<path class="st2" d="M24.1,463.1c0,0.4,0,0.7,0,1.1c-0.2,1.4-0.2,2.8,0,4.2c0,0.4,0,0.7,0.1,1.1c0.1,2,0.6,4,1.5,5.8
	c-0.1,0.8,0.3,1.4,0.7,2.1c0.4,1.6,0.9,3.1,1.3,4.7c-0.3,0.2-0.6,0.4-0.9,0.6c-0.5-0.2-1.1-0.3-1.6-0.5c-0.4-0.4-0.8-0.8-1.2-1.1
	c-0.2-0.1-0.4-0.3-0.5-0.4c0,0.1-0.1,0.3-0.1,0.4c0,0.7-0.1,1.4-0.1,2.1c-0.9,3.4-1.8,6.7-2.6,10.1c0,0.7-0.1,1.4-0.1,2.1
	c-0.1,1-0.1,2.1-0.2,3.1c-0.1,0.2-0.2,0.4-0.4,0.5c-5.3,1.6-10.6,3.7-16.3,2.7c-0.2,0-0.5-0.2-0.7-0.3c0-0.8,0.1-1.6,0.1-2.4
	c0.7,0,1.5-0.1,2.1,0.1c2.6,0.9,4.2-0.6,5.6-2.4c1.9-2.3,0.7-6-2.2-6c-4.2,0-8.3-1.4-12.6-1.2c0.3-1.5,1.5-1,2.3-1
	c2.6,0,4.4-0.9,5.7-3.3c2-3.7,2.8-7.5,2.1-11.6c4.3,3.6,6.7,1.5,8-4.7c1-4.5,1.1-9.1,2-13.7c0.5-2.6,0.5-5.2,0.9-7.8
	c0.6-3.9-0.2-7.7-0.6-11.6c-0.9-8.6-3-17.1-4.4-25.6c-0.5-2.8,0.4-5.1,4.1-6.4c1.7-0.6,2.4-2.2,3.1-3.7c0.5-1.1,0.6-2.5,2-2.9
	c-0.3,6.4,3.8,11.3,5.9,16.9c0.1,9.2,0,18.4-1.1,27.6c0.1,4.1-0.1,8.2-0.8,12.3C25.2,454.9,23.8,461.8,24.1,463.1z"/>
<path class="st2" d="M101.5,478.3c2.4,1.6,4.8,0.1,7.1-0.2c3.9-0.5,8,1.1,9.9,4.5c0.5,1,0.2,1.5-0.7,1.8c-1.1,0.4-2.1,0.9-3.3,0.8
	c-0.6,0-1.3-0.1-1.8,0c-3.8,1.1-7.5,0.5-11.3,0c-0.2-0.5,0.2-1.2-0.4-1.7c-0.6,1.5-1.3,2.9-0.2,4.4c-0.9,0.3-0.9,0.3-1.8-1.7
	c-0.1-1.2-0.2-2.4-0.4-3.6C99.6,481.3,100.5,479.8,101.5,478.3z"/>
<path class="st5" d="M193.5,481.8c0-2.4,0.3-4.6,2.7-5.9l0,0c-0.2,2.2-1.4,4.4,0.5,6.4c-0.2,0.2-0.3,0.4-0.5,0.5
	c-0.3-0.1-0.6-0.2-1-0.3C194.9,481.7,193.9,482.5,193.5,481.8z"/>
<path class="st10" d="M100.7,488.1c-1.1-1.5-0.4-2.9,0.2-4.4c0.6,0.5,0.2,1.2,0.4,1.7c0,0.8,0,1.7,0,2.5
	C101.2,488,101,488,100.7,488.1z"/>
<path class="st2" d="M102.3,477.7c0,0.4-0.2,0.6-0.6,0.6C101.9,478.1,102.1,477.9,102.3,477.7z"/>
<path class="st11" d="M123.7,432.8c0.1,0.2,0.2,0.4,0.4,0.6C123.9,433.2,123.8,433,123.7,432.8z"/>
<path class="st8" d="M-72.4,303c-1.6-1.4-3.1-2.8-4.7-4.2c-0.7-1.6-1.7-3.1-2.1-4.8c-1-3.8,0.7-7.7,4.1-10c0.7-0.5,1.4-1,2.1-1.5
	c6.8-1.2,11.9,2.1,16.6,6.3c0.2,0.2,0.3,0.6,0.4,0.9c-1.4,0.2-2.9,0.4-4.3,0.6c-2-2.4-4.8-3.2-7.5-4.3c-2.6-0.8-5-1.1-6.7,1.7
	c-1.3,2.1-2.9,4.1-1.3,6.7c1.3,2.1,2.6,4.2,4.9,5.4C-71.6,301-71.3,302.3-72.4,303z"/>
<path class="st1" d="M-74.6,370.3c-0.6-2.4-2-4.6-1.8-7.2c-0.1-1.3-0.2-2.6-0.4-3.8c2.5,1.6,2.5,1.6,4.3-3.8
	c2.2,4.8,1.2,9.7,2.2,14.3c-0.7-0.3-0.8-1.4-1.9-1.3c-0.7,1.1-0.3,2.5-0.6,3.9C-73.5,371.6-74.1,370.9-74.6,370.3z"/>
<path class="st1" d="M-77.1,358.2c0.1,0.3,0.2,0.6,0.4,0.9C-77.1,358.9-77.2,358.6-77.1,358.2z"/>
<path class="st0" d="M-49.8,264c0-0.2-0.1-0.3-0.1-0.5C-49.5,263.7-49.7,263.9-49.8,264C-49.9,264.1-49.8,264-49.8,264z"/>
<path class="st6" d="M-16.2,437.7c-1-5.3-3.2-10.2-4.8-15.3c-1.1-3.6-3.2-6.9-3.7-10.7c0.1,0,0.3-0.1,0.4,0c0.1,0,0.1,0.1,0.1,0.2
	c1.6,5,5.1,8.4,9,11.6c0,0.1,0,0.1,0.1,0.2h0.1c-0.1-0.1-0.2-0.1-0.2-0.2c-0.5-3.1-1-6.3,0.9-9.5c2.6,4.1,4.9,8.1,9.2,10.4
	c1.1,2.4,0.8,5.2,2.1,7.5c0.8,6.1,2.5,12,3.8,18c1.7,8,3.5,15.9,5.3,23.8c0.7,4.1,0,7.9-2.1,11.6c-1.3,2.4-3.2,3.3-5.7,3.3
	c-0.9,0-2.1-0.4-2.3,1c-3.6,0.1-5.3,3-7.4,5.3l0,0c0.1-1.4-0.2-2.4-1.6-3c-1.6-0.7-3.1-1.5-4.7-2.3c4.7,0,7-3,8.4-6.9
	c0.1-0.2,0.2-0.5,0.4-0.7c1.7-2,1.7-3.9-0.2-5.9c-1.4-1.5-2.2-3.4-3.3-5.1c1-0.9,1.9-1.8,2.9-2.6c1.4-1.1,2.3-2.4,1.7-4.3
	c-0.5-1.6-1-3.2-1.5-4.7c-0.9-3.1-1.8-6.2-2.8-9.3c-1-3.3-2-6.5-3-9.8C-15.4,439.4-15.6,438.4-16.2,437.7z M0.3,470.1
	c-1.4-8.9-4.8-17.2-7.9-25.5C-4.7,453-3.9,462.1,0.3,470.1z"/>
<path class="st2" d="M-17.8,489.7c1.6,0.8,3.1,1.6,4.7,2.3c1.4,0.6,1.8,1.6,1.6,3c-1.4,0.2-1.4,1.3-1.7,2.3
	c-0.2,0.1-0.3,0.2-0.5,0.4v-0.1c-0.3,0.2-0.6,0.5-0.8,0.7c-1.2-0.1-2.3,0.3-3.5,0c-2.1-0.6-4.3-0.5-4.6,2.5c0-1,0-1.9-0.1-2.9
	c-0.1-0.7-0.4-0.3-0.6-0.1c-1.2-0.1-2.4-0.1-3.6-0.2C-24.7,494.1-22.4,490.5-17.8,489.7z"/>
<path class="st6" d="M-22.6,500.7c0.3-3,2.5-3,4.6-2.5c1.3,0.3,2.4-0.1,3.5,0c-0.3,1.1-1.8,2.2-0.3,3.5c-2.7-0.4-5.3,1.4-8,0.1
	C-22.7,501.5-22.6,501.1-22.6,500.7z"/>
<path class="st6" d="M-26.9,497.6c1.2,0.1,2.4,0.1,3.6,0.2c-0.3,1.1-0.5,2.3-0.8,3.4c-1.2,1-2.8,0.7-3.5-0.2
	C-28.2,500.2-27.5,498.7-26.9,497.6z"/>
<path class="st6" d="M-13.2,497.2c0.3-1,0.3-2.1,1.7-2.3l0,0c-0.4,1.4-0.7,2.8-0.5,4.2c0,0.9,0,1.7,0,2.6c-0.6,0.2-1,0.7-1.7,0.5
	c0.1-1.6,0.1-3.1,0.2-4.7v0.1C-13.5,497.5-13.4,497.4-13.2,497.2z"/>
<path class="st10" d="M-13.6,497.5c-0.1,1.6-0.1,3.1-0.2,4.7c-0.5,0.1-0.9,0.2-0.9-0.5c-1.5-1.3-0.1-2.3,0.3-3.5
	C-14.2,498-13.9,497.8-13.6,497.5z"/>
<path class="st10" d="M-24.1,501.2c0.3-1.1,0.5-2.3,0.8-3.4c0.2-0.2,0.6-0.6,0.6,0.1c0.1,1,0.1,1.9,0.1,2.9c0,0.4-0.1,0.7-0.1,1.1
	C-23.2,501.7-23.5,501-24.1,501.2z"/>
<path class="st12" d="M-60.3,290.5c1.4-0.2,2.9-0.4,4.3-0.6c3-0.9,3.4-2,1.2-4.2c-0.8-0.8-1.7-1.5-2.7-2.4c2.2-1.1,4,0,5.8,0.4
	c0.8,0.2,1.6,1.4,2.3,0.4c0.6-0.9-0.1-1.9-0.7-2.6c-0.4-0.6-1-1-1.7-1.6c2.4-1.1,4.1,0.2,5.7,1.3c0.9,0.6,1.4,2.3,2.7,1.6
	c1.1-0.5,0.2-2,0.6-3c1.1-0.2,1.1,1.2,2,1.4c1.1-1.3,0.7-3.5,2.8-4.1c0.6,0.4,0.2,1,0.3,1.4c0.1,0.5,0,1.3,0.3,1.5
	c0.7,0.5,1-0.3,1.5-0.6c1.3-0.9,2.6-1.6,4.4-2.2c-0.3,2.1-1.8,3.5-2,5.8c1.2-1.3,2-2.2,2.9-3.1c0.4-0.4,0.8-1.2,1.5-0.9
	c0.9,0.5,0.1,1.2,0,1.9c-0.1,0.6-0.3,1.2-0.6,2.4c3-3.2,5.7-5.6,9.8-4.8c-1,1.9-2.1,3.9-3.1,5.8c-1.5,3.1-1.4,3.3,2.2,3.9
	c2.3,1.3,4.9,1.9,7.4,2.7c2.2,1.1,4,2.8,6.4,3.6c0.6,3.1,3.5,4.7,4.9,7.3c0.8,1.4,1.9,2.5,2.8,3.8c0.5,0.7,1.4,1.4-0.1,2.3
	c-0.9,0.6,0.1,1.3,0.5,1.9c2,2.5,3.8,5,5.1,8c1.4,3.4,1,7.1,1.8,10.6c-1.1,0-0.8-1.2-1.9-1.3c-0.6,5.6-0.2,11.2-0.5,17.3
	c-2.7-2.3-3-6-6.2-7c-0.1-0.2-0.1-0.5-0.2-0.7c-0.1,0-0.1,0.1-0.2,0.1c0.1,0.2,0.3,0.4,0.4,0.6c0.8,3.9,2.4,7.7,2.9,11.7
	c0.3,2.5,0.5,5-0.4,7.9c-1.7-2.3-2.1-5.2-5.3-6.4c2.1,6.3,3.2,12.2,0.4,18.4c-0.7-2.1-1.3-4.2-2-6.2c-0.6,5.3-2.1,10.2-4.4,14.8
	c-0.3,0.5-0.4,1.4-1.1,1.3c-0.9-0.1-0.7-1-0.8-1.7c-0.3-1.6-0.6-3.2-1.2-4.8c-0.7,7.2-1.8,14.3-5.6,21.4c-0.3-5.4,0.4-10.2-1.6-14.7
	c-2,2.1-2.6,3.6-2.9,8.7c-1.6-3.5-2.5-6.6-3.3-10.1c-2.6,2.2-3.9,4.9-5.3,8.6c-0.3-2.5-0.8-4.2-0.6-5.9c0.3-1.8,0.4-3.6,0.2-6.2
	c-2.9,3.8-5.5,7.1-6.9,11.5c-0.3-2-0.6-3.9-0.8-5.9c-0.1-1.2,0.1-2.5-0.1-3.7c-0.1-1.2,0.8-3-0.7-3.6c-1.7-0.6-3.7-0.5-5.3,0.8
	c-0.5,0.4-0.8,1.2-1.7,1.2c-0.7-2.4,0.2-4.7,0.3-7c0-0.1,0.1-0.2,0.1-0.2c0,0.1-0.1,0.1-0.1,0.2c-2.5,0.9-3.8,3.1-5.3,5.2
	c-2.7-5.7-3.4-11.7-4.9-17.8c-2.3,2.1-3.4,4.6-4.7,7.7c-1.6-5-1.5-9.6-1.5-14.5c-2.3,2-2.4,4.7-3.8,6.8c-1-0.9-1-2.1-1-3.2
	c0.2-3.1-0.4-6.2,0.3-9.2c0.1-0.4,0.3-0.9-0.3-1.1c-0.5-0.2-0.8,0.3-1.1,0.5c-1.2,0.9-1.3,2.4-2.5,3.6c-0.7-5,0.4-9.6,1.4-14.8
	c-2.5,1.8-3,4.2-4.8,6.4c0.2-2.4-0.2-4.4,0.4-6.4c0.6-1.9,1-3.9,1.4-5.9c0.1-0.6,0.2-1.2,0.4-1.8c0.1-0.2,0.3-0.4,0.4-0.6
	c-0.1,0-0.1-0.1-0.2-0.1c-0.1,0.2-0.1,0.5-0.2,0.7c-2,0.2-2.3,2.1-3.8,3.6c0.5-4.6,1.7-8.6,3.4-12.7c-2.9,0.5-3.8,3.4-6.5,4.3
	c0.7-4.3,2.7-7.7,5.2-10.7c1.3-1.5,1.8-2.9,1.6-4.8c1.1-0.7,0.8-2.1,1.4-3c0.9-1.8,2.7-2.9,3.3-4.8
	C-65.2,293.6-62.7,292.1-60.3,290.5z M-9.4,323.2c0.1-0.8,0.3-1.5,0.3-2.3c0.2-4.2,1-8.6-1.4-12.5c-0.1-0.3-0.1-0.7-0.3-1
	c-4.8-7.1-10.8-12.9-19.1-15.9c-2.4-0.8-4.8-1.2-7,0.7c-0.7,0.6-1.3,0.3-1.9-0.1c-2.6-1.3-5.2-0.9-7.5,0.7
	c-5.9,4.1-9.5,10-11.8,16.7c-1.2,2-1.5,4.2-1.6,6.4c-0.3,0.3-0.8,0.6-0.9,0.9c-1.2,5-0.5,10-0.7,15.3c1.5-1,1-2.7,2.6-3.2
	c0.7,5.8,2.4,11.3,5.8,16.8c0.1-1.9,0.1-3.1,0.3-4.2c0.2-0.7,0.4-1.7,1.4-1.6c0.8,0.1,0.9,1,1,1.7c0.2,2.2,1.4,3.9,2.6,5.7
	c2.6,3.6,5.6,7.1,5.9,11.8c0.1,0.7,0.2,1.3,1.1,0.7c3.1-1.9,3.6-1.7,5.5,1.5c1.1,1.9,2.3,3.7,3.7,6.1c0.2-1.7,0.2-2.7,0.4-3.7
	c0.2-0.7,0.4-1.7,1.4-1.7c0.9,0,1,0.9,1.3,1.5c0.5,1.2,0.8,2.5,1.4,3.7c0.4,0.8,0.6,2.2,1.9,1.8c1.3-0.4-0.1-1.5,0.1-2.3
	c0.2-0.5,0.1-1.1,0-1.6c-0.5-2.4,1.9-4,1.6-6.3c0.3-0.1,0.7-0.2,1-0.3c0.4,2.2,1.2,4.3,2.7,6.5c0.7-2.8,1.6-5.2,2.9-7.4
	c1.4-2.4,1.9-5.1,1.9-7.8c0-1.3,0.3-2.4,0.9-3.5c1.3-2.4,1.9-4.9,1.7-7.6c-0.2-3,0.4-5.7,1.9-8.3C-8.9,328.2-8.2,325.8-9.4,323.2z"
	/>
<path class="st2" d="M0.7,501.7c-2.4,0.8-4.8,2.3-7.5,0.7c0-0.6,0.1-1.2,0.1-1.8c2.6,0.2,4.8-1.3,7.2-1.6
	C0.6,500,0.7,500.9,0.7,501.7z"/>
<path class="st5" d="M-6.6,500.7c0,0.6-0.1,1.2-0.1,1.8c-0.3,0-0.7,0-1-0.1c-1.5-0.7-1-2.1-1.1-3.2c0-1.6,0.6-2.9,2.1-3.7l0,0
	C-6.7,497.2-6.7,499-6.6,500.7z"/>
<path class="st5" d="M0.7,501.7c0-0.9-0.1-1.7-0.1-2.6c0.5-1.2,0.5-2.7,2.1-3.5c0.1,1.3,0.1,2.4,0.2,3.5c0,0.8-0.1,1.6-0.1,2.4
	C2,501,1.4,501.8,0.7,501.7z"/>
<path class="st9" d="M2.9,499.1c-0.1-1.1-0.1-2.2-0.2-3.5c-1.6,0.8-1.6,2.3-2.1,3.5c-2.5,0.3-4.7,1.8-7.2,1.6c0-1.7-0.1-3.5-0.1-5.2
	c0.1-0.1,0.1-0.2,0.2-0.2c-0.1,0.1-0.2,0.1-0.2,0.2c-1.4,0.8-2.1,2.1-2.1,3.7c-1.1,0-2.1,0-3.2,0c-0.2-1.5,0.1-2.8,0.5-4.2
	c2.1-2.3,3.8-5.2,7.4-5.3c4.2-0.2,8.3,1.2,12.6,1.2c2.8,0,4,3.7,2.2,6c-1.4,1.8-3,3.3-5.6,2.4C4.4,499,3.6,499.1,2.9,499.1z"/>
<path class="st1" d="M-5.1,424.3c-4.3-2.3-6.6-6.3-9.2-10.4c-2,3.2-1.4,6.3-0.9,9.5l0,0c-3.9-3.1-7.4-6.6-9-11.6
	c0-0.1-0.1-0.2-0.1-0.2c-0.1,0-0.3,0-0.4,0c-2.1,0.6-3.3,2.2-4.1,4.3c-2.8-2.1-4.7-4.9-6.8-7.4c-0.8-1-1.2-2.8-3.2-2
	c-2,0.7-3.8,1.6-4,4c0,0.4,0,0.9-0.1,1.8c-5.9-5.3-8.2-12.3-11.1-19.2c-0.8,2-1.5,3.7-2.4,5.7c-2-3.2-3.7-6.1-4.9-9.3
	c1.6-0.9,1.8-2.8,3.3-4.3c2.1,3.5,4.3,6.8,6.7,9.9c0.7,0.9,1.5,1.7,2.4,2.4c1.5,1.3,2.4,2.6,3.8-0.4c1.1-2.4,5.2-2.4,7.1-0.5
	s3.8,3.7,6,5.1c0.9,0.6,1.5,1.4,2.3-0.3c0.6-1.3,2.3-1.6,3.5-2.1c1-0.4,1.1,0.7,1.4,1.2c1.8,2.9,4.3,5,7.1,6.8
	c0.5,0.3,1,0.9,1.7,0.3c0.4-0.4,0.2-1,0.1-1.5c-0.1-0.3-0.3-0.7-0.2-1c0.5-1.1,0-2.8,1.4-3.2c1.3-0.5,1.5,1.2,2.3,1.8
	c2.1,2,4.1,4.1,7,5c2.2,0.7,2.8,0.2,2.2-2.1c-0.7-2.8,0.1-5.2,1.3-7.6c0.5-1,1.4-1.3,2-0.3c1.4,2.4,2.5,1.4,3.6-0.2
	c-0.3,4.8-1.1,9.6-3.2,14.2c-0.3-0.5-0.4-0.8-0.6-1.1c-0.4-0.8-0.7-2.1-1.8-2c-1.4,0-1.3,1.5-1.5,2.4c-1,3.4-1,6.9-0.3,10.4
	C-3.5,423.7-3.5,424.5-5.1,424.3z"/>
<path class="st2" d="M-5.1,424.3c1.6,0.2,1.7-0.6,1.4-1.9c-0.7-3.5-0.7-7,0.3-10.4c0.3-0.9,0.1-2.4,1.5-2.4c1.2,0,1.4,1.2,1.8,2
	c0.2,0.3,0.3,0.6,0.6,1.1c2.1-4.7,2.8-9.4,3.2-14.2c0.1-0.7,0.2-1.4,0.2-2.1c1.5-0.2,1.4,1.7,2.8,2c1-3.2,2.2-7,1.1-10.5
	c0.6-0.1,1.1,0.7,1.6,1c2.2-0.4,1.5-2.7,2.8-3.7c1,3.7,1,7.5-0.7,11.7c-0.6-1.5-1-2.5-1.6-4.2c-0.3,5.2-0.4,9.8-2.2,14.2
	c-0.8-1.9,1-4.6-1.9-5.8c-1.1,6.1-2.2,12.2-3.4,18.7c-1.1-1.5-1.9-2.7-2.9-4.2c-0.8,4.1,0.6,7.6,0.3,11.1c-0.2,2.2-0.6,4.2-2.7,5.4
	C-4.4,429.5-4,426.7-5.1,424.3z"/>
<path class="st1" d="M17.1,331.7c3,4.4,4.2,9.2,3.5,14.6c-1.4-0.7-2.8-1.4-4.6-2.3c1.2,4.7,1.5,9,0.4,13.4c-1.6,0.1-1.9-2.1-3.5-1.9
	l0,0c0-0.2,0-0.4,0-0.6c0.9-5.5,0.8-10.9-0.3-16.4c-0.1-0.4-0.3-0.8,0-1.3c1.2-0.2,1.6,1.2,2.6,1.4c0.5,0.1,0.9,1,1.6,0.6
	c0.5-0.4,0.4-1.2,0.3-1.7C16.7,335.6,16,333.7,17.1,331.7z"/>
<path class="st1" d="M12.8,355.5c1.3,3.7,3,7.4,3.1,11.4c0.1,1.7-0.2,3.3-0.2,5c-1,1.2-1.9,0.4-2.9,0c0.4-6.4-1.4-12.5-2.8-18.9
	c1.6,0.3,1.4,1.6,2.2,2C12.5,355.2,12.7,355.4,12.8,355.5L12.8,355.5z"/>
<path class="st1" d="M12.4,385.2c-1.2,1-0.6,3.4-2.8,3.8c1.5-3.2,0-6.3-0.2-9.5c-0.1-2.2-0.9-4.4-1.4-6.9c1.6,0.8,2.6,2.1,4.2,2
	c0.1,1.6,0.2,3.2,0.7,4.8C12.7,381.4,12.5,383.3,12.4,385.2z"/>
<path class="st1" d="M-67.5,380c-0.9-1.5-1.3-3.1-1.5-4.8c0.4-0.4,1.2,1.6,1.3-0.2c0-0.3,0-0.7,0-1.1c0.1-0.8-0.3-2,0.9-2.2
	c0.9-0.1,1,1,1.3,1.7c1.3,4,1.8,8.2,2,12.3C-65.3,384.2-66.3,382-67.5,380z"/>
<path class="st2" d="M12.9,379.4c-0.5-1.5-0.6-3.2-0.7-4.8c0.4-0.9-0.1-2,0.7-2.7c0.9,0.4,1.9,1.2,2.9,0c1.4,1.2,0.3,2.6,0.2,3.8
	c0,3-0.5,6-0.9,9.4C13.2,383.3,13.9,381,12.9,379.4z"/>
<path class="st1" d="M8.2,388.5c1.1,3.6-0.5,6.6-1.5,9.8c-1.4-0.3-1.3-2.2-2.8-2c0.3-3.3,2.5-6.1,2-9.7
	C7.2,386.9,7.6,387.7,8.2,388.5z"/>
<path class="st1" d="M19.4,328.7c0.4,1,0.8,2,1.4,3.6c-1.7-1-2.8-2.1-4.3-2.2c-0.7-2.3-1.5-4.5-1.5-6.9
	C17.1,324.5,18,326.8,19.4,328.7z"/>
<path class="st1" d="M13.9,321.7c0.4,0.2,0.7,0.5,0.6,1C14.1,322.5,14,322.1,13.9,321.7z"/>
<path class="st1" d="M14.5,322.6c0.4,0,0.5,0.3,0.5,0.6C14.9,323,14.7,322.8,14.5,322.6z"/>
<path class="st9" d="M12.9,355.6c-0.2-0.2-0.3-0.4-0.5-0.5c0.2,0,0.4,0,0.5-0.1C12.9,355.2,12.9,355.4,12.9,355.6z"/>
<path class="st1" d="M13.4,321.1c0.2,0.2,0.3,0.4,0.5,0.6C13.7,321.5,13.6,321.3,13.4,321.1z"/>
<path class="st1" d="M13.3,320.6c0.1,0.1,0.2,0.3,0.1,0.5c-0.1-0.1-0.2-0.2-0.3-0.3C13.2,320.8,13.3,320.7,13.3,320.6z"/>
<path class="st1" d="M-62.9,386.5c-0.2-0.3-0.4-0.5-0.5-0.8C-63.3,386-63.1,386.3-62.9,386.5z"/>
<path class="st11" d="M-80.9,314.8c0.1-0.1,0.2-0.3,0.4-0.4c0,0.1,0.1,0.2,0.1,0.2C-80.5,314.8-80.7,314.9-80.9,314.8
	C-80.9,314.7-80.9,314.8-80.9,314.8z"/>
<path class="st0" d="M16.2,319.9c0.3,0.3,0.4,0.5,0.1,0.9c-0.1-0.2-0.3-0.4-0.4-0.6C16,320.1,16.1,320,16.2,319.9z"/>
<path class="st4" d="M176.6,349.8c0-0.2,0-0.4,0-0.7C176.9,349.3,177.1,349.5,176.6,349.8z"/>
<path class="st6" d="M-13.1,290.9c-2.5-0.8-5.1-1.4-7.4-2.7c1.9-3.6,4.6-6.6,7.6-9.3c2.6-2.3,3.6-2.3,7.2-0.2
	c-3.1,1-6.2,2.2-8.4,4.9c-0.6,0.8-1.3,1.2-0.3,2.3C-13.3,287.3-13,289.1-13.1,290.9z"/>
<path class="st5" d="M27.2,414.3c-2.6-5.6-6.6-11.8-6.3-18.2c0.2-0.9,0.1-0.6,1-1.4c1.5,5.3,3.7,10.2,7.8,14c1.7,1.5,3,3.4,4.4,5.2
	C31.8,413.9,29.5,414.5,27.2,414.3z"/>
<path class="st5" d="M146.1,459.7c3.1-5.3,1.6-10.2,0.1-15.4c-1.3-4.5-2.2-9.3-2.4-14.7c2.6,3.2,3.1,6.7,4.2,9.8
	c0.9,2.8,1.9,5.6,3.3,8.2c1.6,2.9,0.8,5.5-0.6,8C149.6,457.4,148,458.6,146.1,459.7z"/>
<path class="st6" d="M213.4,444c-0.8-2.7-1.7-4.9-2.2-7.2c-0.8-4-3.3-6.5-6.4-8.6c-3.1-2.1-6.2-4.3-9.3-6.5
	c-0.3-0.2-0.6-0.4-0.8-0.7c-0.5-0.6-1.4-1.1-0.9-2c0.6-0.9,1.5-0.2,2.1,0.2c2.2,1.4,4.5,2.8,6.7,4.3c10.6,7.2,8,3.6,10.6,16.2
	C213.3,441,214,442.1,213.4,444z"/>
<path class="st5" d="M205.2,482.3c-0.1,0-0.3,0-0.4,0c-1.9-1.9-0.9-4.2-0.9-6.4C203.7,478.1,205.2,480.1,205.2,482.3z"/>
<path class="st5" d="M196.2,475.8c0.1-0.3,0.2-0.6,0.4-0.8c0.1,0.1,0.2,0.1,0.3,0.2C196.7,475.4,196.4,475.6,196.2,475.8
	L196.2,475.8z"/>
<path class="st5" d="M205.7,482.7c-0.2-0.1-0.4-0.3-0.6-0.4C205.4,482.4,205.5,482.5,205.7,482.7z"/>
<path class="st2" d="M38.3,435.5c0.1-0.1,0.2-0.1,0.3-0.2C38.5,435.4,38.4,435.5,38.3,435.5C38.3,435.6,38.3,435.5,38.3,435.5z"/>
<path class="st7" d="M-60.3,290.5c-2.5,1.6-4.9,3.1-7.4,4.7c-0.1-1.4-1.3-1.3-2.2-1.4c-1.3-0.1-0.7,1.6-1.4,2.1
	c-0.3-0.2-0.6-0.4-0.7-0.6c-2.4-3.3-0.5-7.5,4.2-9.1C-65.1,287.3-62.2,288.1-60.3,290.5z"/>
<path class="st6" d="M-67.8,286.2c-4.7,1.7-6.6,5.8-4.2,9.1c0.1,0.2,0.4,0.3,0.7,0.6c0.7-0.6,0.2-2.2,1.4-2.1c0.8,0,2,0,2.2,1.4
	c-0.6,1.9-2.4,3.1-3.3,4.8c-2.3-1.2-3.6-3.3-4.9-5.4c-1.6-2.6,0-4.7,1.3-6.7C-72.8,285.1-70.3,285.4-67.8,286.2z"/>
<path class="st5" d="M0.3,470.1c-4.1-8.1-5-17.1-7.9-25.5C-4.5,453-1.2,461.2,0.3,470.1z"/>
<path class="st1" d="M-15.2,423.4c0.1,0.1,0.2,0.1,0.2,0.2h-0.1C-15.2,423.5-15.2,423.4-15.2,423.4L-15.2,423.4z"/>
<path class="st10" d="M-13.2,497.2c-0.2,0.1-0.3,0.2-0.5,0.3C-13.5,497.5-13.4,497.4-13.2,497.2z"/>
<path class="st9" d="M-58.2,309.5c2.3-6.7,5.9-12.6,11.8-16.7c2.3-1.6,4.9-2,7.5-0.7c0.7,0.3,1.2,0.6,1.9,0.1c2.2-1.8,4.7-1.5,7-0.7
	c8.3,3,14.3,8.8,19.1,15.9c0.2,0.3,0.2,0.7,0.3,1c-1,1.5-0.3,3.2-0.5,4.9c-0.3,5.2-1.8,10.1-5.2,14.2c-1-0.4-1.3-1.4-1.8-2.2
	c-1.9-2.8-3.7-5.5-6.6-7.3l0,0c-0.2-0.2-0.3-0.3-0.5-0.5c-1.2-2.9-2.5-5.8-4.5-8.3c-1.5-2-3.5-3.3-6.1-2.8c-2.3,0.5-3.4,2.4-3.9,4.6
	c-0.8,4-0.6,8,0.6,12c-1-0.4-1.1,0.5-1.5,1c-2.4,3.4-3.8,7.2-5.1,11.1c-0.5-2-2.2-3-3.5-4.2c-4.4-4-7.1-8.7-8.1-14.7
	C-57.7,313.9-56.8,311.5-58.2,309.5z M-23,316.3c2.5-2,5-4.1,6.8-6.8c-1.7-2.6-4-1.9-6.3-1.1c-0.6,0.1-1.1,0.3-1.1,1
	C-24.8,311.8-24.8,314.1-23,316.3z M-52.3,313.2c0.7,2.4,2.2,4,4.7,3.4c2.1-0.5,3.6,0.2,5.1,1.4c0.8-0.2,1-0.6,0.6-1.3
	c-0.6-1.1-1.1-2.2-1.8-3.2c-2-3.4-6.3-4.1-9.2-1.4C-54,313-52.9,313-52.3,313.2z"/>
<path class="st0" d="M-23.2,359c0.3,2.3-2,3.9-1.6,6.3c0.1,0.5,0.1,1.1,0,1.6c-0.3,0.8,1.1,1.9-0.1,2.3c-1.2,0.4-1.5-1-1.9-1.8
	c-0.6-1.2-0.9-2.5-1.4-3.7c-0.3-0.6-0.4-1.5-1.3-1.5c-1,0-1.2,0.9-1.4,1.7c-0.3,1-0.3,2-0.4,3.7c-1.5-2.4-2.6-4.2-3.7-6.1
	c-1.9-3.2-2.4-3.4-5.5-1.5c-0.9,0.6-1.1-0.1-1.1-0.7c-0.4-4.8-3.4-8.2-5.9-11.8c-1.2-1.7-2.4-3.5-2.6-5.7c-0.1-0.7-0.2-1.6-1-1.7
	c-1-0.1-1.3,0.9-1.4,1.6c-0.2,1.1-0.2,2.3-0.3,4.2c-3.4-5.6-5.1-11-5.8-16.8c-1.5,0.5-1,2.3-2.6,3.2c0.2-5.3-0.5-10.4,0.7-15.3
	c0.1-0.4,0.6-0.6,0.9-0.9c0.1,10.4,5.4,18.4,13.1,25.2c0.2,0.3,0.3,0.7,0.5,1c0.1,0.3,0.2,0.7,0.3,1c0,0.9,0.2,1.6,0.7,2.3
	c0.4,0.7,0.7,1.3,1.1,2c0.5,0.7,1.1,1.3,1.6,2c0.1,2,1.1,3.5,2.9,4.3c1.4,3.3,4.1,5,7.4,5.7C-29.1,360.2-26.1,359.9-23.2,359z"/>
<path class="st7" d="M-46.5,341.3c-7.7-6.8-13-14.8-13.3-25.5c0.2-2.2,0.4-4.4,1.6-6.4c1.3,2.1,0.5,4.4,0.8,6.7
	c0.9,6,3.7,10.7,8.1,14.7c1.3,1.2,3,2.2,3.5,4.2c-0.1,1.2-0.6,2.5-0.3,3.6c0.5,1.3,2.3,0.1,3.2,0.8C-43.9,340.5-46,339.3-46.5,341.3
	z"/>
<path class="st3" d="M-23.2,359c-2.9,0.9-5.9,1.3-8.8,0.7c-3.3-0.7-6-2.4-7.4-5.7c0.2-0.4,0.5-0.7,0.7-1.1
	c7.4,5.7,15.2,4.5,20.4-3.2c0.3-0.4,0.7-0.5,1.1-0.5c0.4,0.2,0.9,0.5,1.3,0.7c0.5,2.4-0.5,4.2-2.1,5.8c-1.3,1.2-2.8,2-4.3,2.9
	C-22.5,358.8-22.9,358.9-23.2,359z"/>
<path class="st7" d="M-16.3,327.5c3.5-4.1,4.9-9,5.4-14.2c0.1-1.6-0.5-3.3,0.5-4.9c2.5,3.9,1.7,8.3,1.4,12.5c0,0.8-0.2,1.6-0.3,2.3
	c-1.4,3.4-2.1,7-4.2,10.1C-14.5,331.4-15.8,329.6-16.3,327.5z"/>
<path class="st0" d="M-13.6,333.3c2.1-3.1,2.8-6.7,4.2-10.1c1.2,2.6,0.5,5-0.7,7.2c-1.5,2.6-2.1,5.3-1.9,8.3
	c0.2,2.7-0.4,5.2-1.7,7.6c-0.6,1.1-0.9,2.2-0.9,3.5c0.1,2.8-0.5,5.4-1.9,7.8c-1.3,2.2-2.1,4.6-2.9,7.4c-1.6-2.2-2.3-4.3-2.7-6.5
	c1.5-0.9,3-1.7,4.3-2.9c1.6-1.6,2.6-3.5,2.1-5.8c-0.2-0.8-0.4-1.6-0.6-2.4c0.6-1,1.6-1.9,1.9-3.1c0.2-0.4,0.3-0.8,0.5-1.2
	c0.6-0.7,0.9-1.5,0.9-2.5c0.2-0.6,0.5-1.1,0.2-1.8c0-0.7,0.3-1.4-0.2-2C-13.3,335.8-13.4,334.6-13.6,333.3z"/>
<path class="st0" d="M-0.4,337.5c-0.1-0.2-0.3-0.4-0.4-0.6c0.1,0,0.1-0.1,0.2-0.1C-0.5,337.1-0.4,337.3-0.4,337.5L-0.4,337.5z"/>
<path class="st0" d="M-72.5,323.2c0.1-0.2,0.1-0.5,0.2-0.7c0.1,0,0.1,0.1,0.2,0.1C-72.2,322.9-72.3,323-72.5,323.2
	C-72.4,323.2-72.5,323.2-72.5,323.2z"/>
<path class="st0" d="M-46.5,367.7c0-0.1,0.1-0.1,0.1-0.2C-46.4,367.6-46.4,367.7-46.5,367.7L-46.5,367.7z"/>
<path class="st5" d="M-6.8,495.4c0.1-0.1,0.2-0.1,0.2-0.2C-6.6,495.3-6.7,495.4-6.8,495.4C-6.7,495.5-6.8,495.4-6.8,495.4z"/>
<path class="st13" d="M-46.5,341.3c0.5-2,2.6-0.8,3.6-1.9c-1-0.8-2.7,0.5-3.2-0.8c-0.4-1,0.1-2.4,0.3-3.6c1.3-3.9,2.8-7.7,5.1-11.1
	c0.4-0.5,0.5-1.4,1.5-1c0.5,4.2,1.4,8.2,3.3,12.1c1.2,1.3,3.1,1,4.6,1.6c2,0.8,4,1.5,4.1,4.1c-0.7,0.6-1.3,1.1-2,1.7
	c-4.1,3-8.2,5.9-13.6,4.2c0.6-0.5,1.2-1,1.8-1.6c0.1-0.1,0.3-0.3,0.3-0.3c-0.2-0.3-0.4-0.1-0.6,0.1c-1.2,0.3-2.4,0.6-3.6,0.9
	c-0.5-0.7-0.7-1.5-0.7-2.3c1.4-0.3,2.8-0.5,3.9-1.6c0.2,0,0.5-0.1,0.7-0.1c-0.1-0.1-0.1-0.2-0.2-0.3c-0.2,0.1-0.3,0.3-0.5,0.4
	c-1.5-0.3-2.8,0.6-4.3,0.5C-46.1,342-46.3,341.6-46.5,341.3z"/>
<path class="st2" d="M-35.9,334.9c-1.8-3.8-2.7-7.9-3.3-12.1c-1.1-4-1.4-8-0.6-12c0.4-2.2,1.5-4.1,3.9-4.6c2.6-0.6,4.6,0.8,6.1,2.8
	c1.9,2.5,3.3,5.4,4.5,8.3c0.2,0.2,0.3,0.3,0.5,0.5l0,0c0,0.7-0.2,1.5,0.5,2.1c0.1,0.3,0.2,0.6,0.6,0.6l0,0c0.1,3.5,2.1,6.5,2.2,10
	c-0.4,0-0.8,0-1.2,0c-1.5-7.1-3.7-13.9-8.4-19.6c-0.9-1.1-2-2.2-3.6-1.7c-1.7,0.5-2.5,1.8-2.8,3.5c-1.2,7.1,0.7,13.9,2.6,20.6
	c0,0.4,0,0.7,0.1,1.1C-35.3,334.5-35.7,334.4-35.9,334.9z"/>
<path class="st8" d="M-24.3,320c-0.7-0.6-0.5-1.4-0.5-2.1c2.9,1.8,4.8,4.5,6.6,7.3c0.5,0.8,0.8,1.8,1.8,2.2c0.6,2.1,1.9,3.9,2.8,5.9
	c0.2,1.2,0.3,2.4,0.5,3.7c-0.5,1.7-1.8,0.4-2.7,0.7c-0.9-1.4-0.3-3-0.9-4.6c-1.6-4.6-4.3-8.6-7-12.6l0,0
	C-23.9,320.4-24.1,320.2-24.3,320z"/>
<path class="st10" d="M-52.3,313.2c-0.6-0.2-1.6-0.3-0.6-1.2c2.9-2.6,7.2-2,9.2,1.4c0.6,1,1.2,2.2,1.8,3.2c0.4,0.7,0.2,1.1-0.6,1.3
	c-1.2-1.7-2-4-4.9-2.4c-1.1,0.6-2.3-0.4-3.3-1.2C-51.3,314-51.4,313.1-52.3,313.2z M-46.3,312.9c-0.1-1.1-0.8-1.9-2-1.8
	c-1.2,0-2,0.7-1.9,2c0,1.1,0.6,1.8,1.8,1.8S-46.4,314.4-46.3,312.9z"/>
<path class="st3" d="M-23.7,309.3c0.1-0.7,0.5-0.9,1.1-1c2.4-0.2,3.3,1.1,3,3.3c-0.5,1.1-1.8,0.4-2.5,1
	C-23.2,311.8-23.7,310.7-23.7,309.3z"/>
<path class="st11" d="M-52.3,313.2c0.9-0.1,1.1,0.8,1.6,1.2c1,0.8,2.2,1.7,3.3,1.2c3-1.6,3.7,0.7,4.9,2.4c-1.5-1.1-3-1.8-5.1-1.4
	C-50.1,317.2-51.6,315.6-52.3,313.2z"/>
<path class="st11" d="M-22,312.6c0.7-0.6,2,0.1,2.5-1c0.4-1.8,1.5-2.5,3.3-2.2c-1.8,2.7-4.3,4.8-6.8,6.8
	C-22.2,315.2-23.2,313.6-22,312.6z"/>
<path class="st10" d="M-16.2,309.4c-1.8-0.3-2.9,0.4-3.3,2.2c0.2-2.2-0.6-3.5-3-3.3C-20.2,307.6-17.9,306.9-16.2,309.4z"/>
<path class="st10" d="M-22,312.6c-1.1,1-0.2,2.5-1,3.6c-1.7-2.2-1.7-4.5-0.6-6.9C-23.7,310.7-23.2,311.8-22,312.6z"/>
<path class="st8" d="M-24.8,317.9c-0.2-0.2-0.3-0.3-0.5-0.5C-25.1,317.6-24.9,317.8-24.8,317.9z"/>
<path class="st10" d="M-35.9,334.9c0.2-0.5,0.7-0.5,1.1-0.6c0.4,0.6,1.2,0.8,1.6,0.4c1.5-1.2,2.4-0.7,3.3,0.8c1,1.7,1.9,1.1,2.6-1.1
	c0.4,1.7,1.3,2.1,2.3,2.2c-0.7,0.9-1.9,1.5-1.3,2.9c-0.5,2.6,1.5,3.3,3.2,4.1c2.3,1.2,5.1,1.4,6.8,3.7c0.2,0.8,0.4,1.6,0.6,2.4
	c-0.4-0.2-0.9-0.5-1.3-0.7c-6.2-6.4-17.4-2.6-21.6,3.7c-0.2,0.4-0.5,0.7-0.7,1.1c-1.8-0.9-2.8-2.3-2.9-4.3c5.5,0.1,9.9-2.5,14-5.8
	c0.9-0.8,1.8-1.8,1.1-3.2c-0.1-2.6-2.1-3.3-4.1-4.1C-32.9,335.9-34.7,336.3-35.9,334.9z"/>
<path class="st8" d="M-27.2,340.7c0.7,1.4-0.2,2.4-1.1,3.2c-4.1,3.3-8.5,5.9-14,5.8c-0.5-0.7-1.1-1.3-1.6-2c0.2-0.5,0.5-0.9,1-1.1
	c5.5,1.6,9.6-1.3,13.6-4.2C-28.5,341.8-27.9,341.2-27.2,340.7z"/>
<path class="st2" d="M-42.9,346.6c-0.5,0.2-0.9,0.6-1,1.1c-0.4-0.7-0.7-1.3-1.1-2c1.2-0.3,2.4-0.6,3.6-0.9c0.1,0.1,0.2,0.2,0.2,0.2
	C-41.7,345.5-42.3,346.1-42.9,346.6z"/>
<path class="st7" d="M-41.7,341.8c-1.1,1-2.5,1.3-3.9,1.6c-0.1-0.3-0.2-0.7-0.3-1C-44.5,342.4-43.2,341.5-41.7,341.8L-41.7,341.8z"
	/>
<path class="st14" d="M-38.7,352.9c4.2-6.3,15.4-10.1,21.6-3.7c-0.4,0-0.9,0.1-1.1,0.5C-23.5,357.4-31.3,358.6-38.7,352.9z"/>
<path class="st8" d="M-16.3,347.5c-1.7-2.2-4.5-2.5-6.8-3.7c-1.7-0.9-3.7-1.6-3.2-4.1c2.8,1,5.6,2,8.7,1c1.5,0,3.1,0,4.6,0
	c0,0.9-0.3,1.7-0.9,2.5c-1.6-0.5-3.3-0.3-5-0.3c-0.2-0.3-0.5-0.5-0.9-0.4c-0.1,0-0.1,0.2-0.2,0.3c0.3,0,0.7,0.1,1,0.1
	c1.3,0.9,2.9,1.2,4.5,1.6C-14.8,345.6-15.7,346.5-16.3,347.5z"/>
<path class="st2" d="M-13.1,340.7c-1.5,0-3.1,0-4.6,0c-0.3-0.8-1.3-0.2-1.7-0.9c1.1-0.1,2.1-0.2,3.1-0.4c1.2,0.4,2.3-0.2,3.5-0.5
	C-12.6,339.6-12.8,340.1-13.1,340.7z"/>
<path class="st14" d="M-12.8,339c-1.1,0.3-2.2,0.9-3.5,0.5c0.2-0.6,0.3-1.2,0.5-1.7c0.9-0.3,2.2,1,2.7-0.7
	C-12.6,337.6-12.8,338.3-12.8,339z"/>
<path class="st7" d="M-18.9,342.8c1.7,0,3.3-0.2,5,0.3c-0.2,0.4-0.3,0.8-0.5,1.2C-16,344.1-17.6,343.8-18.9,342.8L-18.9,342.8z"/>
<path class="st7" d="M-41.7,341.8c0.2-0.1,0.3-0.3,0.5-0.4c0.1,0.1,0.1,0.2,0.2,0.3C-41.3,341.7-41.5,341.7-41.7,341.8L-41.7,341.8z
	"/>
<path class="st2" d="M-41.4,344.8c0.2-0.2,0.3-0.4,0.6-0.1c0,0-0.2,0.2-0.3,0.3C-41.2,344.9-41.3,344.9-41.4,344.8z"/>
<path class="st8" d="M-34.9,333.3c-1.9-6.7-3.8-13.5-2.6-20.6c0.3-1.7,1.1-3,2.8-3.5c1.6-0.5,2.7,0.6,3.6,1.7
	c4.6,5.8,6.9,12.5,8.4,19.6c-3.1,1.8-6.2,2.9-9.8,1.7C-33.5,331.8-34.5,332.1-34.9,333.3z"/>
<path class="st13" d="M-15.8,337.7c-0.2,0.6-0.3,1.2-0.5,1.7c-1,0.1-2,0.2-3.1,0.4c0.4,0.7,1.4,0.1,1.7,0.9c-3,1-5.9,0-8.7-1
	c-0.5-1.4,0.6-2.1,1.3-2.9v-0.1c2.4-1,3.5-3.1,3.8-5.5c-0.1-0.2-0.2-0.4-0.3-0.6c-0.2-3.5-2.1-6.5-2.2-10c2.8,4,5.4,7.9,7,12.6
	C-16.2,334.7-16.7,336.3-15.8,337.7z"/>
<path class="st1" d="M-21.5,330.6c0.1,0.2,0.2,0.4,0.3,0.6c-1.4,0.3-1.4,2.1-2.8,2.6c-1.5,0.5-1.6,1.7-1,3v0.1
	c-1-0.2-1.9-0.6-2.3-2.2c-0.7,2.2-1.6,2.8-2.6,1.1c-0.9-1.5-1.7-2-3.3-0.8c-0.4,0.3-1.2,0.2-1.6-0.4c0-0.4,0-0.7-0.1-1.1
	c0.4-1.1,1.4-1.4,2.4-1.1c3.6,1.3,6.8,0.1,9.8-1.7C-22.3,330.5-21.9,330.5-21.5,330.6z"/>
<path class="st13" d="M-24.3,320c0.2,0.2,0.4,0.4,0.6,0.6C-24.1,320.6-24.2,320.3-24.3,320z"/>
<path class="st3" d="M-46.3,312.9c-0.1,1.5-0.9,2-2.1,2c-1.2,0-1.8-0.7-1.8-1.8c-0.1-1.3,0.7-2,1.9-2
	C-47.1,311-46.4,311.8-46.3,312.9z"/>
<path class="st7" d="M-18.9,342.8c-0.3,0-0.7-0.1-1-0.1c0.1-0.1,0.1-0.3,0.2-0.3C-19.4,342.4-19.1,342.5-18.9,342.8L-18.9,342.8z"/>
<path class="st10" d="M-25,336.7c-0.5-1.3-0.4-2.5,1-3c1.4-0.4,1.4-2.2,2.8-2.6C-21.5,333.6-22.6,335.6-25,336.7z"/>
</svg>
