<?xml version="1.0" encoding="utf-8"?>
<!-- Generator: Adobe Illustrator 19.1.0, SVG Export Plug-In . SVG Version: 6.00 Build 0)  -->
<svg version="1.0" id="Layer_1" xmlns="http://www.w3.org/2000/svg" xmlns:xlink="http://www.w3.org/1999/xlink" x="0px" y="0px"
	 viewBox="0 0 406.5 289.5" style="enable-background:new 0 0 406.5 289.5;" xml:space="preserve">
<style type="text/css">
	.st0{fill:#844007;}
	.st1{fill:#713704;}
	.st2{fill:#FEFEFD;}
	.st3{fill:#C68640;}
	.st4{fill:#F2B060;}
	.st5{fill:#804818;}
	.st6{fill:#99602D;}
	.st7{fill:#AD733B;}
	.st8{fill:#CE8540;}
	.st9{fill:#FBC170;}
	.st10{fill:#E59B4D;}
	.st11{fill:#241915;}
	.st12{fill:#955411;}
	.st13{fill:#FCDDBE;}
	.st14{fill:#FDD1A2;}
</style>
<path class="st0" d="M52.1,11.6c2.7,0,4,2,5.5,3.8c0.7,0.8,1.3,1.9,2.1,3.2c0.6-4.3,2.3-7.6,5.3-10.3c0.2,0,0.4,0,0.5,0
	c0,2.9,0,5.8,0,8.7c0,1.6,0.4,1.8,1.8,1c3-1.7,6-3.5,9.9-4c-1.6,2.4-3.4,4.4-3.3,7.5c4.7-3.4,9.2-6.5,15.2-7.8c-1.7,3-3.2,5.6-5,8.7
	c3.4-1.3,5.9-3.5,9.4-4c-0.7,1.9-2.3,3-2.6,4.8c-3.1,0.4-6.2,0.5-8.7,2.9c-4.1-0.8-6.9,1.6-9.8,4.8c0.3-1.2,0.4-1.8,0.6-2.4
	c0.1-0.6,0.9-1.4,0-1.9c-0.6-0.4-1.1,0.4-1.5,0.9c-0.9,0.9-1.7,1.8-2.9,3.1c0.2-2.3,1.7-3.7,2-5.8c-1.8,0.5-3.1,1.3-4.4,2.2
	c-0.5,0.3-0.9,1.1-1.5,0.6c-0.3-0.2-0.2-1-0.3-1.5c-0.1-0.5,0.2-1.1-0.3-1.4c-2,0.6-1.7,2.9-2.8,4.1c-0.9-0.3-0.9-1.6-2-1.4
	c-0.5,1,0.4,2.4-0.6,3c-1.3,0.6-1.8-1-2.7-1.6c-1.7-1.2-3.3-2.5-5.7-1.3c0.7,0.6,1.3,1.1,1.7,1.6c0.6,0.8,1.3,1.8,0.7,2.6
	c-0.7,1-1.5-0.2-2.3-0.4c-1.9-0.4-3.7-1.4-5.8-0.4c1,0.9,2,1.6,2.7,2.4c2.1,2.3,1.8,3.3-1.2,4.2c-0.1-0.3-0.1-0.7-0.4-0.9
	c-4.7-4.2-9.8-7.5-16.6-6.3c-1.4-0.8-1-1.3,0.3-1.7c2.6-0.6,5.3-0.8,8.5-0.6c-2.2-3.1-5.1-4.6-8-6.3c2.5-1.8,4.9-2.3,7.6-1.1
	c2.8,1.3,5.9,1.8,8.9,2.5c0.7,0.1,1.7,0.4,2.1-0.5c0.3-0.7-0.6-1.2-1-1.7c-1.4-1.7-3.1-3.1-5.7-3.9c4.1-0.9,7.4-0.1,10.5,1.8
	c1.4,0.9,1.8,0.6,1.8-1C54.1,15.5,54.2,13.2,52.1,11.6L52.1,11.6z"/>
<path class="st1" d="M380.3,157.6c-1.6,0.2-2.7,1.5-4,2.3c-2.9,1.9-5.7,3.8-9.3,4.6c0.6,1.3,1.8,1.7,2.9,2.8
	c-5.2,0.3-10.1,1.4-15-0.6c-0.4-1.7-1.4-3-2.3-4.4c5.5-7.2,10-10.5,14.3-10.9c0,1-1.3,1.1-1.3,2.1c2.8-0.4,5.5-1.2,8.3-0.4
	c-0.1,0.9-1.2,0.7-1.5,1.8c2.9-0.2,5.5,0.4,8,1.8C380.3,156.9,380.3,157.3,380.3,157.6z"/>
<path class="st2" d="M121.7,246.6c0.2,1.7-1.1,1.8-2.3,2.2c-2.1,0.7-4.7,0.4-6.2,2.6c-7.1,0-14.1,0-21.2,0c0.7-0.5,1.4-1,2.2-1.5
	c0.3,0,0.7,0,1,0.1c2.7,1.6,5,0,7.5-0.7c0.7,0.1,1.3-0.7,2.1-0.2c0.2,0.1,0.4,0.3,0.7,0.3C111.2,250.3,116.4,248.2,121.7,246.6z"/>
<path class="st3" d="M94.3,249.9c-0.7,0.5-1.4,1-2.2,1.5c-0.4,0-0.7,0-1.1,0c-0.4-0.7-0.7-1.4-1.1-2.1c0-0.9,0-1.7,0-2.6
	c1.1,0,2.1,0,3.2,0C93.2,247.8,92.8,249.2,94.3,249.9z"/>
<path class="st0" d="M21.1,62.3c-1.5,0.9-2.2,2.5-3.8,3.9c0.3-7.8,4.8-13.5,7.7-19.8c1.6,1.4,3.1,2.8,4.7,4.2
	c0.1,1.8-0.4,3.3-1.6,4.8c-2.5,3-4.6,6.3-5.2,10.7c2.6-1,3.6-3.9,6.5-4.3c-1.7,4.1-2.9,8.1-3.4,12.7c1.5-1.5,1.8-3.4,3.8-3.6l0,0
	c-0.1,0.6-0.2,1.2-0.4,1.8c-0.5,2-0.9,3.9-1.4,5.9c-0.6,2-0.2,4-0.4,6.4c1.7-2.2,2.3-4.6,4.8-6.4c-1,5.2-2.1,9.8-1.4,14.8
	c1.1-1.2,1.3-2.8,2.5-3.6c0.3-0.3,0.6-0.7,1.1-0.5c0.6,0.2,0.4,0.7,0.3,1.1c-0.8,3-0.2,6.1-0.3,9.2c-0.1,1.2,0,2.3,1,3.2
	c1.4-2,1.5-4.8,3.8-6.8c0,5-0.2,9.6,1.5,14.5c1.3-3.1,2.5-5.6,4.7-7.7c1.5,6.1,2.2,12.2,4.9,17.8c1.5-2.1,2.9-4.3,5.3-5.2l0,0
	c-0.1,2.3-1,4.6-0.3,7c0.9,0,1.2-0.8,1.7-1.2c1.6-1.3,3.6-1.4,5.3-0.8c1.5,0.5,0.6,2.3,0.7,3.6c0.1,1.2-0.1,2.5,0.1,3.7
	c0.2,2,0.6,4,0.8,5.9c1.4-4.4,4-7.7,6.9-11.5c0.2,2.5,0,4.3-0.2,6.2c-0.2,1.7,0.3,3.4,0.6,5.9c1.4-3.6,2.7-6.4,5.3-8.6
	c0.8,3.4,1.8,6.6,3.3,10.1c0.4-5.1,0.9-6.7,2.9-8.7c2,4.5,1.3,9.3,1.6,14.7c3.8-7.1,4.9-14.2,5.6-21.4c0.6,1.6,0.9,3.2,1.2,4.8
	c0.1,0.7-0.1,1.6,0.8,1.7c0.7,0.1,0.8-0.8,1.1-1.3c2.4-4.6,3.8-9.5,4.4-14.8c0.7,2.1,1.3,4.2,2,6.2c2.8-6.1,1.7-12.1-0.4-18.4
	c3.1,1.2,3.6,4,5.3,6.4c0.8-2.9,0.7-5.3,0.4-7.9c-0.5-4-2.1-7.8-2.9-11.7l0,0c3.3,1,3.6,4.7,6.2,7c0.3-6-0.1-11.7,0.5-17.3
	c1,0,0.8,1.3,1.9,1.3c-0.8-3.5-0.3-7.2-1.8-10.6c-1.2-3-3.1-5.5-5.1-8c-0.4-0.6-1.5-1.3-0.5-1.9c1.5-0.9,0.6-1.5,0.1-2.3
	c-0.9-1.3-2-2.5-2.8-3.8c-1.5-2.6-4.3-4.2-4.9-7.3c1.3-2.1,2.5-4.2,3.8-6.3c4.7,3.2,9.1,6.7,11.8,12.2c-1.9-0.2-3.1-1.5-5-0.9
	c5.4,4.8,9.1,10.7,11.8,17.3c0,0.3,0.1,0.6,0.4,0.6c0,0,0,0,0,0c0.1,0.8,0.1,1.6,0.2,2.5c-0.1,0.1-0.2,0.2-0.3,0.3
	c-1-0.7-1.7-2-3.4-1.7c0.3,0.8,0.5,1.4,0.8,2.1c-0.1,0.1-0.2,0.2-0.2,0.2c0.1,0.1,0.2,0.2,0.3,0.3l0,0c0.2,0.2,0.3,0.4,0.5,0.6
	c0,0,0,0,0,0c0.1,0.4,0.1,0.8,0.6,1c0,0,0,0,0,0c0.2,0.2,0.4,0.4,0.5,0.6c0,0,0,0,0,0c0,2.4,0.8,4.6,1.5,6.9
	c-0.2,0.7,0.4,1.1,0.5,1.6c-1,1.9-0.3,3.9,0,5.8c0.1,0.6,0.3,1.3-0.3,1.7c-0.7,0.5-1-0.4-1.6-0.6c-1-0.3-1.3-1.7-2.6-1.4
	c-0.3,0.5-0.1,0.9,0,1.3c1.1,5.4,1.2,10.9,0.3,16.4c-0.2,0-0.4,0-0.5,0.1c-0.8-0.4-0.7-1.6-2.2-2c1.3,6.4,3.2,12.5,2.8,18.9
	c-0.8,0.8-0.3,1.9-0.7,2.7c-1.6,0.1-2.6-1.2-4.2-2c0.6,2.6,1.3,4.7,1.4,6.9c0.2,3.1,1.7,6.3,0.2,9.5c-0.5-0.3-0.9-0.7-1.5-0.6
	c-0.5-0.8-1-1.6-2.3-1.8c0.5,3.6-1.7,6.4-2,9.7c-0.1,0.7-0.2,1.4-0.2,2.1c-1.1,1.6-2.1,2.6-3.6,0.2c-0.6-1-1.5-0.7-2,0.3
	c-1.2,2.4-2,4.8-1.3,7.6c0.6,2.3,0.1,2.7-2.2,2.1c-2.9-0.9-4.9-3-7-5c-0.7-0.7-1-2.3-2.3-1.8c-1.3,0.5-0.9,2.2-1.4,3.2
	c-0.1,0.3,0.1,0.7,0.2,1c0.1,0.5,0.3,1.1-0.1,1.5c-0.6,0.5-1.2,0-1.7-0.3c-2.8-1.8-5.3-3.9-7.1-6.8c-0.3-0.5-0.4-1.6-1.4-1.2
	c-1.3,0.5-3,0.8-3.5,2.1c-0.8,1.8-1.4,0.9-2.3,0.3c-2.2-1.5-4.1-3.2-6-5.1c-1.9-1.9-6-1.9-7.1,0.5c-1.4,3.1-2.3,1.7-3.8,0.4
	c-0.9-0.7-1.7-1.5-2.4-2.4c-2.5-3.1-4.7-6.4-6.7-9.9c-1.4,1.5-1.6,3.4-3.3,4.3c-0.5-1-1.1-2-1.6-3c-0.2-0.3-0.4-0.5-0.5-0.8
	c0,0,0,0,0,0c-0.3-4.2-0.8-8.3-2-12.3c-0.2-0.7-0.3-1.8-1.3-1.7c-1.2,0.1-0.8,1.3-0.9,2.2c0,0.3,0,0.7,0,1.1
	c-0.1,1.8-0.9-0.1-1.3,0.2c-0.4-1.8-0.9-3.6-1.3-5.4c-1-4.6,0-9.5-2.2-14.3c-1.7,5.3-1.7,5.3-4.3,3.8c0,0,0-0.2,0-0.2
	c-0.1-0.3-0.2-0.6-0.4-0.9c-6.2-10.8-2.3-22-1-33.1c-1.9,2.6-2.5,5.7-3.4,8.7c-2.6-7.7-2.6-10,0.1-17.2C20.8,63.6,21.4,63,21.1,62.3
	c0.2,0.1,0.4,0,0.4-0.2c0-0.1-0.1-0.1-0.1-0.2C21.3,62,21.2,62.1,21.1,62.3z"/>
<path class="st4" d="M118.2,67.4c-0.1-0.8-0.1-1.6-0.2-2.5c1.1-0.2,1.8,0.6,2.6,1c7.8,4.3,16.1,6.4,25,6.4
	c25.8-0.2,51.2-2.7,76.5-7.7c13.1-2.6,26.1-2.3,38.4,4c2.5,1.3,4.7,3.1,7,4.8c1.7,1.9,3.3,3.9,5,5.8c0.5,1.1,0.9,2.1,1.4,3.2
	c-4.9-1.8-9.6-4.2-14.6-6c-6.9-2.5-13.7-4.7-21.1-4.6c-3.3,0-6.5,0.1-9.7,0.5c-5.5,0.7-11,1.1-16.4,1.8c-8.1,1.1-16.3,2.3-24.4,3.5
	c-6.8,1-13.7,1.9-20.5,2.8c-6.2,0.9-12.5,1.6-18.8,1.9c-7,0.3-13.7-1.3-20.2-4c-2.1-0.9-4.1-2.6-6.7-2.1c-1.4-1.9-2.3-4.2-4.4-5.6
	c0,0,0,0,0,0c-0.1-0.3-0.2-0.6-0.5-0.6c0,0,0,0,0,0c0-0.5-0.3-0.7-0.6-1c0,0,0,0,0,0c-0.2-0.2-0.3-0.4-0.5-0.6c0,0,0,0,0,0
	c0-0.2,0-0.3-0.1-0.5c-0.3-0.7-0.5-1.4-0.8-2.1c1.7-0.2,2.4,1,3.4,1.7c0.1,0.2,0.3,0.4,0.4,0.6C118.6,68,118.5,67.7,118.2,67.4z"/>
<path class="st5" d="M294.4,124.3c0,0.3,0.1,0.7,0.1,1c-0.8,0.8-0.1,1.2,0.4,1.6c-0.2,3.3,1.2,6.1,2.1,9.2c1.5,5,3.1,9.9,5.6,14.4
	c3.5,6.1,8.5,10.3,15.1,12.6c0,1-0.2,1.2-1.4,1.1c-2.2-0.2-4.4-0.6-6.6-1.2c-1.2-0.3-2.3-0.8-3.4-1.4c-2.9-1.4-5.1-4-8.2-5.1
	c-1-1-1.6-2.3-2.3-3.5c-4-7.1-7.6-14.3-10.4-21.9c-2.5-10.7-4.8-21.5-6.6-32.3c1.3,0.7,2.6,1.4,3.5,2.7c3.6,5.1,6.6,10.4,8.6,16.3
	c0.5,1.5,0.4,3.6,2.5,4.3C293.5,122.9,293.1,124,294.4,124.3z"/>
<path class="st6" d="M293.5,122.1c-2.1-0.7-2-2.8-2.5-4.3c-2-5.9-5-11.2-8.6-16.3c-0.9-1.3-2.2-2-3.5-2.7c-0.4-0.5-0.4-1-0.3-1.6
	c0.5-0.3,0.3-0.5,0-0.7c-0.3-0.9-0.7-1.8-0.9-2.7c-1.2-3.8-1.6-7.9-3.7-11.5c-0.5-1.1-0.9-2.1-1.4-3.2c1.1-0.1,2.1-0.1,3.1,0.6
	c4.2,2.9,7.5,6.6,9.7,11.2c1.9,4,3,8.2,4.6,12.3c0.6,1.5,0.4,3.4,2,4.5c0,0.3,0.1,0.7,0.1,1c-0.8,0.8-0.7,1.3,0.4,1.6
	c0,0.7,0.1,1.4,0.1,2.1c-0.8,0.8-0.7,1.3,0.4,1.6c0.4,2.6,0.8,5.3,1.1,7.9C293.8,122.1,293.6,122.1,293.5,122.1z"/>
<path class="st7" d="M298.2,156.5c3.1,1.1,5.3,3.6,8.2,5.1c1.1,0.5,2.2,1.1,3.4,1.4c2.1,2.4,4.9,3.8,7.9,4.7
	c6.2,1.9,12.5,1.3,18.7,0.2c1.5-0.2,3.3,0.2,4.5-1.3c-0.6-0.7-1.5-0.2-1.9-1c3.3-0.7,6.8-0.6,10-1.8c1.2-0.5,2.4-1,3.6-1.5
	c0.9,1.4,1.9,2.7,2.3,4.4c-9.2,4.5-18.9,6.8-29.1,6.4c-8.6-0.8-15.4-5.5-21.7-10.8c-1.3-1.1-2.4-2.5-4.2-3
	C299.5,158.2,298.1,157.8,298.2,156.5z"/>
<path class="st7" d="M291.8,107.8c-1.6-1.1-1.4-3-2-4.5c-1.6-4.1-2.7-8.4-4.6-12.3c-2.2-4.6-5.5-8.3-9.7-11.2
	c-0.9-0.6-2-0.7-3.1-0.6c-1.7-1.9-3.3-3.9-5-5.8c7.1-0.4,12.3,3,16.4,8.5c4.7,6.4,6.3,13.9,7.4,21.5
	C291.5,104.9,291.6,106.4,291.8,107.8z"/>
<path class="st8" d="M99,35.7c-1.3,2.1-2.5,4.2-3.8,6.3c-2.3-0.8-4.2-2.5-6.4-3.6c0.2-1.8-0.1-3.6-1.3-4.9c-1-1.1-0.3-1.6,0.3-2.3
	c2.2-2.7,5.2-3.9,8.4-4.9c0.2,0,0.4,0,0.6,0C100.5,28.7,99.7,32.3,99,35.7z"/>
<path class="st6" d="M339,165.6c0.4,0.7,1.3,0.3,1.9,1c-1.2,1.5-3,1.1-4.5,1.3c-6.2,1-12.5,1.6-18.7-0.2c-3-0.9-5.8-2.3-7.9-4.7
	c2.1,0.6,4.3,1,6.6,1.2c1.2,0.1,1.4-0.1,1.4-1.1c4.5,1.3,9.2,1.7,13.9,2.2c0.5,0.4,1.1,0.3,1.6,0.2
	C335.2,165.6,337.1,165.6,339,165.6z"/>
<path class="st9" d="M96.8,26.3c-0.2,0-0.4,0-0.5,0c-3.6-2.1-4.6-2.2-7.2,0.2c-3,2.7-5.6,5.7-7.6,9.3c-3.6-0.7-3.7-0.8-2.2-3.9
	c1-2,2.1-3.9,3.1-5.8c2.4-2.4,5.6-2.5,8.7-2.9C93.3,23.6,95.8,23.6,96.8,26.3z"/>
<path class="st7" d="M293.5,122.1c0.2,0,0.3,0,0.5,0c0.4,0.7,0.6,1.4,0.5,2.1C293.1,124,293.5,122.9,293.5,122.1z"/>
<path class="st7" d="M292.3,110.5c-1.1-0.3-1.2-0.8-0.4-1.6C292.2,109.4,292.4,109.9,292.3,110.5z"/>
<path class="st7" d="M292.8,114.2c-1.1-0.3-1.2-0.8-0.4-1.6C292.8,113.1,292.9,113.6,292.8,114.2z"/>
<path class="st7" d="M294.9,126.9c-0.5-0.4-1.3-0.8-0.4-1.6C294.9,125.8,295,126.3,294.9,126.9z"/>
<path class="st7" d="M333.3,165.5c-0.6,0.1-1.1,0.2-1.6-0.2C332.2,165.1,332.8,165.2,333.3,165.5z"/>
<path class="st4" d="M118,65c-0.4,0-0.4-0.3-0.4-0.6C117.8,64.4,118.1,64.6,118,65z"/>
<path class="st10" d="M273.9,82.4c2.1,3.6,2.5,7.6,3.7,11.5c0.3,0.9,0.6,1.8,0.9,2.7c0,0.2,0,0.4,0,0.7c0,0.5,0,1.1,0.3,1.6
	c1.9,10.8,4.2,21.6,6.6,32.3c-1,0.8-0.6,2-0.6,3c0,4.8-0.1,9.5-1.6,14.1c-2,6-4.7,10.7-13,10c-3.2-0.3-6.2-1.3-9.1-2.6
	c-1.4-0.6-2.7-1.7-4.4-1.7c-1.5-1-2.1-2.8-3.7-3.7c-1.4-1.6-2.5-3.5-4.7-4.2c-0.1-1-0.9-1.6-1.6-2.2c-1.7-1.3-3.5-2.5-4.8-4.2
	c-0.4-1.3-1.5-2.2-2.3-3.2c-3-3.5-6.6-6.5-8.5-10.7c-1.5-3.3-2.8-4.7-7-4.4c-6,0.6-11.9,1.4-17.3,4c-13.5,6.4-27.8,9.1-42.6,9.5
	c-1.1,0-2.1,0-3.2,0.2c-3.2,0.6-6.5,0.5-9.7,0.2c-7.9-0.6-15.8-0.5-23.6-2c-0.8-0.2-1.6,0.1-1.9,1.1c-0.7,2.6-1.5,5.2-2.2,7.8
	c-0.9,0.7-0.4,1.8-0.6,2.7c-1.4,0.4-1.5,1.8-2,2.9c-0.7,1.5-1.4,3.1-3.1,3.7c-3.7,1.3-3.6,3.6-3.1,6.4c1.5,8.5,3.5,17,4.4,25.6
	c0.4,3.8,1.2,7.7,0.6,11.6c-0.4,2.6-0.4,5.3-0.9,7.8c-0.9,4.5,0,9.1-1,13.7c-1.3,6.1-5.8,8.2-10,4.7c-1.8-7.9-3.6-15.9-5.3-23.8
	c-1.3-6-3-11.9-3.8-18c2.1-1.2,2.5-3.2,2.7-5.4c0.3-3.5-1.1-7-0.3-11.1c1.1,1.6,1.9,2.7,2.9,4.2c1.2-6.5,2.3-12.6,3.4-18.7
	c2.9,1.2,1.1,3.9,1.9,5.8c1.9-4.4,1.9-9,2.2-14.2c0.6,1.6,1,2.6,1.6,4.2c1.7-4.2,2-7.8,1-11.5c0.2-1.9,0.3-3.9,0.5-5.8
	c1,1.6,0.3,3.9,2.2,5.7c0.3-3.4,0.8-6.4,0.9-9.4c0-1.2,1.2-2.6-0.2-3.8c0.1-1.7,0.3-3.3,0.2-5c-0.2-4-1.8-7.7-3.1-11.4
	c1.6-0.2,1.9,2,3.5,1.9c1.1-4.4,0.8-8.7-0.4-13.4c1.8,0.9,3.2,1.6,4.6,2.3c0.7-5.4-0.5-10.2-3.5-14.6c-0.2-0.6-0.7-1-0.5-1.6
	c1.5,0.1,2.6,1.3,4.3,2.2c-0.6-1.5-1-2.6-1.4-3.6c2.6-0.5,4.6,1.2,6.7,2.1c6.5,2.8,13.1,4.3,20.2,4c6.3-0.3,12.6-1,18.8-1.9
	c6.8-1,13.7-1.9,20.5-2.8c8.1-1.1,16.3-2.4,24.4-3.5c5.5-0.7,11-1.2,16.4-1.8c3.2-0.4,6.5-0.5,9.7-0.5c7.4-0.1,14.3,2.2,21.1,4.6
	C264.3,78.2,268.9,80.6,273.9,82.4z"/>
<path class="st7" d="M242,139.6c1.3,1.7,3.2,2.9,4.8,4.2c0.8,0.6,1.5,1.1,1.6,2.2c0.4,6.5-0.3,13,0.5,19.5c0,1.9,0.1,3.9,0.1,5.8
	c-0.2,1.3,0.1,2.5,0.5,3.7c0,0.2,0,0.4,0,0.5c0.3,1.9,0.9,3.7,2,5.3c0.2,1.2,0.8,2.2,1.6,3.2c0.1,0.7,0.4,1.2,0.9,1.7
	c0.9,1.7,1.9,3.5,2.8,5.2c0.4,1.1,0.7,2.1,1.1,3.2c0,0.9-0.1,1.7-0.1,2.6c-0.5,0.4-0.5,1-0.5,1.6c-1.6,3-3.2,6-4.8,9
	c-0.3,0.4-0.5,0.7-0.8,1.1c-0.6,0.9-1.2,1.7-1.8,2.6c-0.3,0.4-0.6,0.8-0.9,1.1c-1.1,1.4-2.2,2.7-3.3,4.1c-2.1,2.1-4.3,4.3-6.4,6.4
	c-1,0.8-2,1.5-3,2.3c-0.6,0.5-1.2,0.9-1.8,1.4c-2.3,1.4-4.3,3.2-6.3,5c-0.5,0.4-1,0.9-1.5,1.3c-2.7,1.6-5.1,3.7-8.4,4
	c-1.1,0-2.1,0-3.2,0c-0.7,0-1.4-0.1-2.1-0.1c-0.6-0.4-1.4-0.5-2.1-0.4c-1.6-1.3-2.8,0.7-4.2,0.6c-0.7-0.2-1.4-0.4-2.1-0.6
	c-0.4-0.2-0.7-0.4-1.1-0.7c0-0.8,0-1.7,0-2.5c3.8,0.6,7.5,1.1,11.3,0c0.6-0.2,1.2,0,1.8,0c1.2,0,2.2-0.4,3.3-0.8
	c0.9-0.3,1.2-0.9,0.7-1.8c-1.9-3.4-5.9-5-9.9-4.5c-2.3,0.3-4.7,1.8-7.1,0.2c0,0,0.2,0,0.2,0c0.4,0,0.6-0.2,0.6-0.6
	c0-0.1,0-0.2,0.1-0.3c0.4-0.2,0.7-0.3,1.1-0.5c0.3,0,0.7-0.1,1-0.1c2.2,0,4.3,0,6.5,0c1.6,0,3.3,0.3,4.6-1
	c5.3-2.6,10.1-5.9,12.8-11.5c0.6-0.4,0.9-1,1-1.7c1.1-1.2,1.7-2.7,2.3-4.2c0.3-0.7,0.7-1.4,1-2.2c1.2-2-0.5-3.3-1-4.9
	c-0.2-0.5-0.2-1.2-0.7-1.5c-1.5-4.4-3.4-8.5-5.4-12.7c-0.4-1.1-0.7-2.3-1.5-3.2c0-0.2-0.1-0.4-0.1-0.5c-0.1-0.2-0.2-0.4-0.4-0.6
	c0-0.8-0.4-1.4-0.9-2.1c-0.3-0.9-0.6-1.9-1.3-2.6c-1.2-3.6-3.3-6.8-5.1-10.1c-0.3-0.5-0.5-1-0.8-1.5c0-0.8-0.4-1.5-0.8-2.2
	c-0.2-0.5-0.1-1.2-0.7-1.5c-0.1-0.4-0.2-0.7-0.4-1.1c-0.6-2-1.2-4-2.2-5.8c0-0.6-0.1-1.1-0.6-1.6c-0.6-2.6-1.5-5.1-2.6-7.5
	c0-0.3,0-0.6-0.1-1c5.4-6.9,15.2-9.8,23.4-7.2C236.6,137,239.1,138.8,242,139.6z M248.1,207.2c1.9-1.1,3.5-2.3,4.5-4.1
	c1.4-2.5,2.2-5.1,0.6-8c-1.4-2.6-2.4-5.4-3.3-8.2c-1-3.2-1.5-6.6-4.2-9.8c0.2,5.5,1.1,10.2,2.4,14.7
	C249.7,197,251.2,202,248.1,207.2z"/>
<path class="st3" d="M242,139.6c-3-0.8-5.5-2.6-8.4-3.5c-8.2-2.6-18,0.3-23.4,7.2c-2.2,1.2-3.8,3.1-5.4,4.9
	c-0.7,0.6-1.4,1.2-2.1,1.8c-2.3,1.5-4.5,2.9-6.8,4.4c-4.6,1.6-9.5,2.3-14.2,3.7c-3.9,0.4-7.9,0.7-11.8,1.2c-8.1,1-16.2,1.4-24.4,2
	c-3.2,0-6.3,0-9.5,0c-1.4-1.8-2.7-3.6-4.4-5.2c-4.1-3.8-6.3-8.7-7.8-14c0.7-2.6,1.5-5.2,2.2-7.8c0.3-0.9,1-1.2,1.9-1.1
	c7.8,1.5,15.7,1.3,23.6,2c3.2,0.3,6.5,0.4,9.7-0.2c1-0.2,2.1-0.2,3.2-0.2c14.8-0.3,29.1-3.1,42.6-9.5c5.4-2.6,11.3-3.4,17.3-4
	c4.1-0.4,5.5,1.1,7,4.4c1.9,4.2,5.5,7.2,8.5,10.7C240.6,137.5,241.6,138.3,242,139.6z"/>
<path class="st3" d="M256.9,153.9c1.7-0.1,3,1,4.4,1.7c2.9,1.3,5.9,2.3,9.1,2.6c8.3,0.7,11-4,13-10c1.5-4.6,1.6-9.3,1.6-14.1
	c0-1-0.4-2.1,0.6-3c2.8,7.6,6.4,14.8,10.4,21.9c0.7,1.2,1.3,2.5,2.3,3.5c-0.1,1.3,1.2,1.7,1.6,2.7c0.2,0.5,0.4,1,0.7,1.4
	c3.6,6.2,9.6,9.3,15.9,12c1,1.2,1.9,2.4,2.9,3.6c0.4,2.1,0.8,4.2,1.2,6.3c0,0.7,0,1.4,0.1,2.1c-0.2,3.4,0.2,6.7,0.5,10.1
	c0,2.8,0,5.7,0.1,8.5c0,1.8,0,3.5,0,5.3c0,0.4,0,0.7,0,1.1c0,1.6,0,3.2,0,4.8c0,1.4,0,2.8-0.1,4.2c-0.7,1.8-0.3,3.4,0.9,4.8
	c0.4,2.4-1.9,2.7-3.1,3.9c-1.6,0.8-3.2,1.5-4.8,2.3c-0.7,0.2-1.4,0.4-2,0.6c-1.4-0.2-2.9,1.1-4.2-0.1c-0.2-0.2-0.4-0.3-0.6-0.5
	c0,0,0,0.1,0,0.1c0-2.2-1.4-4.2-1.3-6.4c0,2.2-1.1,4.5,0.9,6.4c-1.3,0.9-2.9,0.4-4.3,0.6c-0.4,0-0.7-0.1-1.1-0.1
	c-0.8-0.6-1.8-0.3-2.7-0.5c-1.9-2-0.7-4.3-0.5-6.4c0.2-0.2,0.4-0.4,0.7-0.6c-0.1-0.1-0.2-0.1-0.3-0.2c-0.1,0.3-0.2,0.6-0.4,0.8
	c-2.3,1.3-2.7,3.5-2.7,5.9c-0.8,0.1-1.2-1-2.1-0.6c-0.3,0-0.5,0-0.8,0c0.2-1.3,0.4-2.5,0.7-3.8c0.4-3.2,3.2-4.3,5.4-5.8
	c2.5-0.8,5.5-0.6,7.3-3.2c1.3-1.6,0.5-3.5,0.6-5.3c0-3,0.3-6-0.5-9c0-0.9-0.1-1.8-0.1-2.6c-0.5-3.1-0.2-6.6-3.1-8.9
	c-1.1-0.9-2.3-1.8-3.7-2.3c-0.4-0.6-1-0.8-1.6-1c-2-1.5-4.1-2.7-6.3-3.8c-0.4-0.5-1-0.9-1.6-1c-0.4-0.5-1-0.8-1.6-1
	c-1.3-1.1-2.7-2.1-4.2-2.7c-0.9-0.9-2-1.6-3.2-2.2c-0.5-0.4-1.1-0.7-1.6-1.1c-0.7-0.5-1.4-1-2.1-1.4c-1.6-1.2-3.1-2.3-4.7-3.5
	c-0.4-0.6-0.9-1-1.6-1.3c-3-3-6.1-6-9.1-9c-0.8-1.2-1.6-2.2-2.7-3.1c-0.5-0.9-1.2-1.6-2-2.2C256.9,154.3,256.9,154.1,256.9,153.9z
	 M315.4,191.5c0.6-1.9-0.1-3-0.3-4.2c-2.6-12.6,0.1-9-10.6-16.2c-2.2-1.5-4.4-2.9-6.7-4.3c-0.6-0.4-1.5-1.1-2.1-0.2
	c-0.6,0.8,0.3,1.4,0.9,2c0.2,0.3,0.5,0.5,0.8,0.7c3.1,2.2,6.2,4.4,9.3,6.5c3.1,2.2,5.6,4.7,6.4,8.6
	C313.7,186.6,314.6,188.8,315.4,191.5z"/>
<path class="st3" d="M126.1,210.6c0,0.4,0,0.7,0,1.1c-0.2,1.4-0.2,2.8,0,4.2c0,0.4,0,0.7,0.1,1.1c0.1,2,0.6,4,1.5,5.8
	c-0.1,0.8,0.3,1.4,0.7,2.1c0.4,1.6,0.9,3.1,1.3,4.7c-0.3,0.2-0.6,0.4-0.9,0.6c-0.5-0.2-1.1-0.3-1.6-0.5c-0.4-0.4-0.8-0.8-1.2-1.1
	c-0.2-0.1-0.4-0.3-0.5-0.4c0,0.1-0.1,0.3-0.1,0.4c0,0.7-0.1,1.4-0.1,2.1c-0.9,3.4-1.8,6.7-2.6,10.1c0,0.7-0.1,1.4-0.1,2.1
	c-0.1,1-0.1,2.1-0.2,3.1c-0.1,0.2-0.2,0.4-0.4,0.5c-5.3,1.6-10.6,3.7-16.3,2.7c-0.2,0-0.5-0.2-0.7-0.3c0-0.8,0.1-1.6,0.1-2.4
	c0.7,0,1.5-0.1,2.1,0.1c2.6,0.9,4.2-0.6,5.6-2.4c1.9-2.3,0.7-6-2.2-6c-4.2,0-8.3-1.4-12.6-1.2c0.3-1.5,1.5-1,2.3-1
	c2.6,0,4.4-0.9,5.7-3.3c2-3.7,2.8-7.5,2.1-11.6c4.3,3.6,8.7,1.5,10-4.7c1-4.5,0.1-9.1,1-13.7c0.5-2.6,0.5-5.2,0.9-7.8
	c0.6-3.9-0.2-7.7-0.6-11.6c-0.9-8.6-3-17.1-4.4-25.6c-0.5-2.8-0.6-5.1,3.1-6.4c1.7-0.6,2.4-2.2,3.1-3.7c0.5-1.1,0.6-2.5,2-2.9
	c-0.3,6.4,3.8,11.3,5.9,16.9c0.1,9.2,0,18.4-1.1,27.6c0.1,4.1-0.1,8.2-0.8,12.3C127.2,202.4,125.8,209.3,126.1,210.6z"/>
<path class="st3" d="M203.5,225.8c2.4,1.6,4.8,0.1,7.1-0.2c3.9-0.5,8,1.1,9.9,4.5c0.5,1,0.2,1.5-0.7,1.8c-1.1,0.4-2.1,0.9-3.3,0.8
	c-0.6,0-1.3-0.1-1.8,0c-3.8,1.1-7.5,0.5-11.3,0c-0.2-0.5,0.2-1.2-0.4-1.7c-0.6,1.5-1.3,2.9-0.2,4.4c-0.9,0.3-0.9,0.3-1.8-1.7
	c-0.1-1.2-0.2-2.4-0.4-3.6C201.6,228.8,202.5,227.3,203.5,225.8z"/>
<path class="st2" d="M316.4,172.6c-6.3-2.7-12.3-5.7-15.9-12c-0.3-0.4-0.4-0.9-0.7-1.4c1.8,0.4,2.9,1.9,4.2,3
	c6.4,5.3,13.1,10,21.7,10.8c-0.1,0.8-0.6,1.3-1.2,1c-2.2-1.1-4.9,0.3-6.9-1.4C317.4,172.4,316.8,172.6,316.4,172.6z"/>
<path class="st2" d="M248.9,165.6c-0.7-6.5-0.1-13-0.5-19.5c2.2,0.7,3.3,2.6,4.7,4.2c-1.9-0.2-2.7,0.6-2.6,2.5c0.1,3.3,0,6.6,0,9.9
	C250.5,163.9,250.5,165.2,248.9,165.6z"/>
<path class="st2" d="M187.4,160.3c-1.9-0.7-3.8-1.5-5.7-2.2c4.7-1.3,9.6-2,14.2-3.7c-0.7,2.4-2.9,2.3-4.7,2.6
	C189.3,157.5,187.7,158,187.4,160.3z"/>
<path class="st2" d="M217.7,223.3c-1.3,1.4-3,1-4.6,1c-2.2,0-4.3,0-6.5,0c0.1-1.7,1.7-1.8,2.7-1.9
	C212.1,222,214.9,222.3,217.7,223.3z"/>
<path class="st2" d="M321,194.7c-0.2-3.4-0.7-6.7-0.5-10.1c1.6-0.2,1.8,1.1,1.9,2c0.2,2.2,0.1,4.4,0.1,6.6
	C322.5,194.2,321.9,194.7,321,194.7z"/>
<path class="st2" d="M161,207.5c2.5-0.2,4.9-0.4,7.4-0.6c0.5,0.1,1.1,0.1,1.6,0.2c0,0.2,0,0.4,0,0.5
	C168.7,209.8,162.3,209.7,161,207.5z"/>
<path class="st2" d="M148.8,208c3-0.4,6-0.7,9-0.5c0,0.2,0,0.4,0,0.5c-0.6,1.8-2.2,1.7-3.5,1.4C152.4,209.1,149.9,211,148.8,208z"/>
<path class="st2" d="M306.2,201.6c0.7,3,0.5,6,0.5,9C304.1,209.1,303.8,202.9,306.2,201.6z"/>
<path class="st2" d="M173.7,206.9c3-0.2,6-0.7,9-0.5c-1.2,3.1-3.9,1.8-6,2C175.5,208.6,173.9,208.9,173.7,206.9z"/>
<path class="st2" d="M211.9,194.2c-0.7-3.6-1.3-7.2-2.6-10.6c1,0,1.4,0.9,1.6,1.5c0.9,2.4,1.7,4.9,2.4,7.4
	C213.6,193.6,212.9,194.1,211.9,194.2z"/>
<path class="st2" d="M307.7,230.2c1.4,1.3,2.8-0.1,4.2,0.1c-0.1,1-0.7,1.9-1.5,1.9c-2.3,0-4.6-1.2-7,0c-0.6,0.3-1-1-1-1.8
	c1.4-0.2,3,0.3,4.3-0.6c0.1,0,0.3,0,0.4,0c0,0,0-0.1,0-0.1C307.4,229.9,307.5,230,307.7,230.2z"/>
<path class="st2" d="M137.1,208.5c0.3-0.1,0.7-0.2,1-0.3c2.3-0.1,4.6-0.1,6.9-0.2c-0.9,2.6-3.1,2-5,2
	C138.9,210.1,137.4,210.5,137.1,208.5z"/>
<path class="st2" d="M261.7,159.7c3,3,6.1,6,9.1,9c-1.1,0.2-1.8-0.3-2.5-1c-1.9-1.8-3.8-3.6-5.7-5.4
	C261.8,161.6,261.6,160.7,261.7,159.7z"/>
<path class="st2" d="M186.9,206.4c2.5-0.4,4.9-0.6,7.4-0.4c0,2-1.6,1.9-2.8,1.9C189.9,207.9,187.9,208.7,186.9,206.4z"/>
<path class="st2" d="M199.1,205.8c2.5-0.2,4.9-0.7,7.4-0.4C204.9,208.1,200.9,208.4,199.1,205.8z"/>
<path class="st2" d="M303,190.1c2.8,2.3,2.5,5.8,3.1,8.9c-0.8,0-2-0.2-1.8-1C304.8,195.1,302.9,192.8,303,190.1z"/>
<path class="st6" d="M295.5,229.3c0-2.4,0.3-4.6,2.7-5.9l0,0c-0.2,2.2-1.4,4.4,0.5,6.4c-0.2,0.2-0.3,0.4-0.5,0.5
	c-0.3-0.1-0.6-0.2-1-0.3C296.9,229.2,295.9,230,295.5,229.3z"/>
<path class="st2" d="M122.4,240.8c0.9-3.4,1.8-6.7,2.6-10.1c1,0.1,1.1,0.9,0.9,1.6c-0.8,2.7-1.6,5.3-2.5,7.9
	C123.4,240.5,122.8,240.6,122.4,240.8z"/>
<path class="st2" d="M211.9,202.1c0-2.1,0-4.2,0-6.4c1.9,0.3,2.1,1.7,2.1,3.3C214,200.6,213.7,201.8,211.9,202.1z"/>
<path class="st2" d="M126.1,210.6c-0.3-1.3,0.2-2,1.6-2c1.4,0,2.8,0,4.2,0c0,1.7-1.2,1.9-2.4,2C128.3,210.7,127.2,210.6,126.1,210.6
	z"/>
<path class="st2" d="M239.3,222.8c2.1-2.1,4.3-4.3,6.4-6.4c0.2,1.3-0.1,2.3-1.4,3.1c-0.9,0.5-1.7,1.5-2.3,2.4
	C241.3,223,240.3,222.8,239.3,222.8z"/>
<path class="st2" d="M306,215.9c-1.8,2.6-4.8,2.3-7.3,3.2C300.3,216.1,303.3,216.4,306,215.9z"/>
<path class="st2" d="M320.5,182.5c-0.4-2.1-0.8-4.2-1.2-6.3c2.9,0.3,1,3.4,2.7,4.7C322.5,181.3,321.6,182.5,320.5,182.5z"/>
<path class="st2" d="M210.3,144.3c1.1,2.4,2,4.9,2.6,7.5C211,150.5,209.6,146.5,210.3,144.3z"/>
<path class="st2" d="M321.9,223.4c-1.2-1.4-1.6-3-0.9-4.8C323.7,219.8,322.8,221.6,321.9,223.4z"/>
<path class="st2" d="M127.5,222.8c-0.9-1.8-1.3-3.8-1.5-5.8C128.1,218.2,128.6,220.2,127.5,222.8z"/>
<path class="st2" d="M321.1,208.5c0-1.8,0-3.5,0-5.3C323.2,204.5,323.2,206.5,321.1,208.5z"/>
<path class="st2" d="M314,229.7c1.6-0.8,3.2-1.5,4.8-2.3C318.4,229.9,316.8,230.6,314,229.7z"/>
<path class="st2" d="M213.5,153.4c1,1.8,1.6,3.8,2.2,5.8C213.9,158.1,212.9,155.4,213.5,153.4z"/>
<path class="st2" d="M321.1,214.3c0-1.6,0-3.2,0-4.8C323.1,211.5,323.1,212.8,321.1,214.3z"/>
<path class="st2" d="M251.6,180.9c-1.1-1.6-1.7-3.4-2-5.3C251.6,176.9,252,178.8,251.6,180.9z"/>
<path class="st2" d="M249.5,175.1c-0.4-1.2-0.7-2.4-0.5-3.7C251.5,172.3,251.6,173.2,249.5,175.1z"/>
<path class="st2" d="M129.5,229.6c-0.4-1.6-0.9-3.1-1.3-4.7C130.6,226.3,131.3,228.6,129.5,229.6z"/>
<path class="st2" d="M200.6,230.2c0.1,1.2,0.2,2.4,0.4,3.6c-1.7,0-1.9-1.5-2.1-2.6C198.7,230.3,199.8,230.3,200.6,230.2z"/>
<path class="st2" d="M195.4,170.8c-1.7-0.9-2.8-2.2-3.1-4.2C194.6,167.1,195,169,195.4,170.8z"/>
<path class="st2" d="M298.2,230.3c0.2-0.2,0.3-0.4,0.5-0.5c0.9,0.1,1.9-0.1,2.7,0.5c-0.1,0.9-0.5,1.5-1.4,1.5
	C298.9,231.9,298.3,231.4,298.2,230.3z"/>
<path class="st2" d="M272.4,170c1.6,1.2,3.1,2.3,4.7,3.5C274.7,173.4,273,172.4,272.4,170z"/>
<path class="st2" d="M126,215.9c-0.2-1.4-0.2-2.8,0-4.2C128,213.2,128,214.2,126,215.9z"/>
<path class="st2" d="M283.9,178.2c1.6,0.7,2.9,1.6,4.2,2.7C285.8,181.5,284.6,180.3,283.9,178.2z"/>
<path class="st2" d="M215,236.7c1.1,0,2.1,0,3.2,0c0.1,1.2-0.5,1.5-1.6,1.5C215.5,238.2,214.9,237.8,215,236.7z"/>
<path class="st2" d="M293.3,224.9c-0.2,1.3-0.4,2.5-0.7,3.8C291,227.3,291.3,225.8,293.3,224.9z"/>
<path class="st11" d="M202.7,235.6c-1.1-1.5-0.4-2.9,0.2-4.4c0.6,0.5,0.2,1.2,0.4,1.7c0,0.8,0,1.7,0,2.5
	C203.2,235.5,203,235.5,202.7,235.6z"/>
<path class="st2" d="M226.2,181.5c0.8,0.9,1.1,2.1,1.5,3.2C225.5,184.4,225.2,183.2,226.2,181.5z"/>
<path class="st2" d="M295.5,229.3c0.3,0.7,1.4,0,1.7,0.8c-2,1.6-2.9,0-3.8-1.4C294.3,228.3,294.8,229.3,295.5,229.3z"/>
<path class="st2" d="M258,194.2c-0.4-1.1-0.7-2.1-1.1-3.2C259,192.1,259.3,192.9,258,194.2z"/>
<path class="st2" d="M200.7,173.5c-1.1-0.5-2.1-1.1-3.2-1.6C199.3,171,200.5,171.3,200.7,173.5z"/>
<path class="st2" d="M257,154.4c0.8,0.6,1.5,1.3,2,2.2C257.8,156.3,255.5,157.1,257,154.4z"/>
<path class="st2" d="M122.1,246.1c0.1-1,0.1-2.1,0.2-3.1C123.9,244.1,124.2,245.1,122.1,246.1z"/>
<path class="st2" d="M223.5,175.7c0.7,0.7,1,1.6,1.3,2.6C223.1,178,222.6,177.2,223.5,175.7z"/>
<path class="st2" d="M210.8,236.1c0.8-0.1,1.5,0,2.1,0.4c-0.1,0.5-0.2,1.1-0.9,1C211.2,237.5,210.9,236.9,210.8,236.1z"/>
<path class="st2" d="M202.8,150.1c0.7-0.6,1.4-1.2,2.1-1.8C204.6,150.3,204.2,150.7,202.8,150.1z"/>
<path class="st2" d="M234.8,203.8c-0.3,0.7-0.7,1.4-1,2.2C232.3,204.4,233.4,204,234.8,203.8z"/>
<path class="st2" d="M254,185.8c-0.4-0.5-0.8-1-0.9-1.7C254.4,184.2,255.6,184.3,254,185.8z"/>
<path class="st2" d="M297.7,186.8c0.7,0.1,1.2,0.4,1.6,1C297.8,189.1,297.8,187.9,297.7,186.8z"/>
<path class="st2" d="M204.4,236.1c0.7,0.2,1.4,0.4,2.1,0.6C205.7,237.8,205.2,237.6,204.4,236.1z"/>
<path class="st2" d="M289.8,181.9c0.7,0.1,1.2,0.5,1.6,1C289.9,184.2,290,182.8,289.8,181.9z"/>
<path class="st2" d="M279.2,175c0.5,0.4,1.1,0.7,1.6,1.1C279.6,176.7,279.5,176.6,279.2,175z"/>
<path class="st2" d="M127.1,229.8c0.5,0.2,1.1,0.3,1.6,0.5c-0.1,0.5-0.2,1-0.9,0.9C126.9,231.1,127.1,230.3,127.1,229.8z"/>
<path class="st2" d="M226.6,232.7c0.5-0.4,1-0.9,1.5-1.3C228.1,232.5,228.3,233.7,226.6,232.7z"/>
<path class="st2" d="M257.4,198.4c0-0.6,0-1.2,0.5-1.6C258.8,197.7,258.6,198.2,257.4,198.4z"/>
<path class="st2" d="M233,197.4c0.5,0.4,0.6,1,0.7,1.5C232.6,198.8,232.1,198.4,233,197.4z"/>
<path class="st2" d="M217.7,164c0.3,0.5,0.5,1,0.8,1.5C217.2,165.5,216.7,165.1,217.7,164z"/>
<path class="st2" d="M211.5,205.2c0.1-0.5,0.2-1,0.3-1.5c0.5,0.1,1.1,0.3,0.9,0.9C212.6,205.3,212,205.3,211.5,205.2z"/>
<path class="st2" d="M216.1,160.3c0.6,0.4,0.5,1,0.7,1.5C215.6,161.7,215.2,161.3,216.1,160.3z"/>
<path class="st2" d="M234.4,226.4c0.6-0.5,1.2-0.9,1.8-1.4C236.3,226.4,235.5,226.6,234.4,226.4z"/>
<path class="st2" d="M251.7,208.5c0.3-0.4,0.5-0.7,0.8-1.1c0.3,0.2,0.6,0.5,0.4,0.8C252.6,208.4,252.1,208.4,251.7,208.5z"/>
<path class="st2" d="M249,212.2c0.3-0.4,0.6-0.8,0.9-1.1C250.5,212.1,250.5,212.1,249,212.2z"/>
<path class="st2" d="M231.5,210.1c-0.1,0.7-0.4,1.3-1,1.7C230.4,211,230.3,210.2,231.5,210.1z"/>
<path class="st2" d="M192,164.6c-0.2-0.4-0.3-0.7-0.5-1.1c0.4,0,0.9-0.1,1,0.4C192.6,164.3,192.3,164.5,192,164.6z"/>
<path class="st2" d="M205.5,224.4c-0.4,0.2-0.7,0.3-1.1,0.5C204.5,224.2,204.7,223.6,205.5,224.4z"/>
<path class="st2" d="M125.2,228.6c0-0.1,0.1-0.3,0.1-0.4c0.2,0.1,0.4,0.3,0.5,0.4C125.6,228.6,125.4,228.6,125.2,228.6z"/>
<path class="st3" d="M204.3,225.2c0,0.4-0.2,0.6-0.6,0.6C203.9,225.6,204.1,225.4,204.3,225.2z"/>
<path class="st2" d="M225.7,180.3c0.1,0.2,0.2,0.4,0.4,0.6C225.9,180.7,225.8,180.5,225.7,180.3z"/>
<path class="st9" d="M29.6,50.5c-1.6-1.4-3.1-2.8-4.7-4.2c-0.7-1.6-1.7-3.1-2.1-4.8c-1-3.8,0.7-7.7,4.1-10c0.7-0.5,1.4-1,2.1-1.5
	c6.8-1.2,11.9,2.1,16.6,6.3c0.2,0.2,0.3,0.6,0.4,0.9c-1.4,0.2-2.9,0.4-4.3,0.6c-2-2.4-4.8-3.2-7.5-4.3c-2.6-0.8-5-1.1-6.7,1.7
	c-1.3,2.1-2.9,4.1-1.3,6.7c1.3,2.1,2.6,4.2,4.9,5.4C30.4,48.5,30.7,49.8,29.6,50.5z"/>
<path class="st1" d="M27.4,117.8c-0.6-2.4-2-4.6-1.8-7.2c-0.1-1.3-0.2-2.6-0.4-3.8c2.5,1.6,2.5,1.6,4.3-3.8
	c2.2,4.8,1.2,9.7,2.2,14.3c-0.7-0.3-0.8-1.4-1.9-1.3c-0.7,1.1-0.3,2.5-0.6,3.9C28.5,119.1,27.9,118.4,27.4,117.8z"/>
<path class="st1" d="M24.9,105.7c0.1,0.3,0.2,0.6,0.4,0.9C24.9,106.4,24.8,106.1,24.9,105.7z"/>
<path class="st0" d="M52.2,11.5c0-0.2-0.1-0.3-0.1-0.5C52.5,11.2,52.3,11.4,52.2,11.5C52.1,11.6,52.2,11.5,52.2,11.5z"/>
<path class="st7" d="M85.8,185.2c-1-5.3-3.2-10.2-4.8-15.3c-1.1-3.6-3.2-6.9-3.7-10.7c0.1,0,0.3-0.1,0.4,0c0.1,0,0.1,0.1,0.1,0.2
	c1.6,5,5.1,8.4,9,11.6c0,0.1,0,0.1,0.1,0.2c0,0,0.1,0,0.1,0c-0.1-0.1-0.2-0.1-0.2-0.2c-0.5-3.1-1-6.3,0.9-9.5
	c2.6,4.1,4.9,8.1,9.2,10.4c1.1,2.4,0.8,5.2,2.1,7.5c0.8,6.1,2.5,12,3.8,18c1.7,8,3.5,15.9,5.3,23.8c0.7,4.1,0,7.9-2.1,11.6
	c-1.3,2.4-3.2,3.3-5.7,3.3c-0.9,0-2.1-0.4-2.3,1c-3.6,0.1-5.3,3-7.4,5.3l0,0c0.1-1.4-0.2-2.4-1.6-3c-1.6-0.7-3.1-1.5-4.7-2.3
	c4.7,0,7-3,8.4-6.9c0.1-0.2,0.2-0.5,0.4-0.7c1.7-2,1.7-3.9-0.2-5.9c-1.4-1.5-2.2-3.4-3.3-5.1c1-0.9,1.9-1.8,2.9-2.6
	c1.4-1.1,2.3-2.4,1.7-4.3c-0.5-1.6-1-3.2-1.5-4.7c-0.9-3.1-1.8-6.2-2.8-9.3c-1-3.3-2-6.5-3-9.8C86.6,186.9,86.4,185.9,85.8,185.2z
	 M102.3,217.6c-1.4-8.9-4.8-17.2-7.9-25.5C97.3,200.5,98.1,209.6,102.3,217.6z"/>
<path class="st3" d="M84.2,237.2c1.6,0.8,3.1,1.6,4.7,2.3c1.4,0.6,1.8,1.6,1.6,3c-1.4,0.2-1.4,1.3-1.7,2.3c-0.2,0.1-0.3,0.2-0.5,0.4
	l0-0.1c-0.3,0.2-0.6,0.5-0.8,0.7c-1.2-0.1-2.3,0.3-3.5,0c-2.1-0.6-4.3-0.5-4.6,2.5c0-1,0-1.9-0.1-2.9c-0.1-0.7-0.4-0.3-0.6-0.1
	c-1.2-0.1-2.4-0.1-3.6-0.2C77.3,241.6,79.6,238,84.2,237.2z"/>
<path class="st7" d="M79.4,248.2c0.3-3,2.5-3,4.6-2.5c1.3,0.3,2.4-0.1,3.5,0c-0.3,1.1-1.8,2.2-0.3,3.5c-2.7-0.4-5.3,1.4-8,0.1
	C79.3,249,79.4,248.6,79.4,248.2z"/>
<path class="st7" d="M75.1,245.1c1.2,0.1,2.4,0.1,3.6,0.2c-0.3,1.1-0.5,2.3-0.8,3.4c-1.2,1-2.8,0.7-3.5-0.2
	C73.8,247.7,74.5,246.2,75.1,245.1z"/>
<path class="st7" d="M88.8,244.7c0.3-1,0.3-2.1,1.7-2.3c0,0,0,0,0,0c-0.4,1.4-0.7,2.8-0.5,4.2c0,0.9,0,1.7,0,2.6
	c-0.6,0.2-1,0.7-1.7,0.5c0.1-1.6,0.1-3.1,0.2-4.7c0,0,0,0.1,0,0.1C88.5,245,88.6,244.9,88.8,244.7z"/>
<path class="st11" d="M88.4,245c-0.1,1.6-0.1,3.1-0.2,4.7c-0.5,0.1-0.9,0.2-0.9-0.5c-1.5-1.3-0.1-2.3,0.3-3.5
	C87.8,245.5,88.1,245.3,88.4,245z"/>
<path class="st11" d="M77.9,248.7c0.3-1.1,0.5-2.3,0.8-3.4c0.2-0.2,0.6-0.6,0.6,0.1c0.1,1,0.1,1.9,0.1,2.9c0,0.4-0.1,0.7-0.1,1.1
	C78.8,249.2,78.5,248.5,77.9,248.7z"/>
<path class="st12" d="M41.7,38c1.4-0.2,2.9-0.4,4.3-0.6c3-0.9,3.4-2,1.2-4.2c-0.8-0.8-1.7-1.5-2.7-2.4c2.2-1.1,4,0,5.8,0.4
	c0.8,0.2,1.6,1.4,2.3,0.4c0.6-0.9-0.1-1.9-0.7-2.6c-0.4-0.6-1-1-1.7-1.6c2.4-1.1,4.1,0.2,5.7,1.3c0.9,0.6,1.4,2.3,2.7,1.6
	c1.1-0.5,0.2-2,0.6-3c1.1-0.2,1.1,1.2,2,1.4c1.1-1.3,0.7-3.5,2.8-4.1c0.6,0.4,0.2,1,0.3,1.4c0.1,0.5,0,1.3,0.3,1.5
	c0.7,0.5,1-0.3,1.5-0.6c1.3-0.9,2.6-1.6,4.4-2.2c-0.3,2.1-1.8,3.5-2,5.8c1.2-1.3,2-2.2,2.9-3.1c0.4-0.4,0.8-1.2,1.5-0.9
	c0.9,0.5,0.1,1.2,0,1.9c-0.1,0.6-0.3,1.2-0.6,2.4c3-3.2,5.7-5.6,9.8-4.8c-1,1.9-2.1,3.9-3.1,5.8c-1.5,3.1-1.4,3.3,2.2,3.9
	c2.3,1.3,4.9,1.9,7.4,2.7c2.2,1.1,4,2.8,6.4,3.6c0.6,3.1,3.5,4.7,4.9,7.3c0.8,1.4,1.9,2.5,2.8,3.8c0.5,0.7,1.4,1.4-0.1,2.3
	c-0.9,0.6,0.1,1.3,0.5,1.9c2,2.5,3.8,5,5.1,8c1.4,3.4,1,7.1,1.8,10.6c-1.1,0-0.8-1.2-1.9-1.3c-0.6,5.6-0.2,11.2-0.5,17.3
	c-2.7-2.3-3-6-6.2-7c-0.1-0.2-0.1-0.5-0.2-0.7c-0.1,0-0.1,0.1-0.2,0.1c0.1,0.2,0.3,0.4,0.4,0.6c0.8,3.9,2.4,7.7,2.9,11.7
	c0.3,2.5,0.5,5-0.4,7.9c-1.7-2.3-2.1-5.2-5.3-6.4c2.1,6.3,3.2,12.2,0.4,18.4c-0.7-2.1-1.3-4.2-2-6.2c-0.6,5.3-2.1,10.2-4.4,14.8
	c-0.3,0.5-0.4,1.4-1.1,1.3c-0.9-0.1-0.7-1-0.8-1.7c-0.3-1.6-0.6-3.2-1.2-4.8c-0.7,7.2-1.8,14.3-5.6,21.4c-0.3-5.4,0.4-10.2-1.6-14.7
	c-2,2.1-2.6,3.6-2.9,8.7c-1.6-3.5-2.5-6.6-3.3-10.1c-2.6,2.2-3.9,4.9-5.3,8.6c-0.3-2.5-0.8-4.2-0.6-5.9c0.3-1.8,0.4-3.6,0.2-6.2
	c-2.9,3.8-5.5,7.1-6.9,11.5c-0.3-2-0.6-3.9-0.8-5.9c-0.1-1.2,0.1-2.5-0.1-3.7c-0.1-1.2,0.8-3-0.7-3.6c-1.7-0.6-3.7-0.5-5.3,0.8
	c-0.5,0.4-0.8,1.2-1.7,1.2c-0.7-2.4,0.2-4.7,0.3-7c0-0.1,0.1-0.2,0.1-0.2c0,0.1-0.1,0.1-0.1,0.2c-2.5,0.9-3.8,3.1-5.3,5.2
	c-2.7-5.7-3.4-11.7-4.9-17.8c-2.3,2.1-3.4,4.6-4.7,7.7c-1.6-5-1.5-9.6-1.5-14.5c-2.3,2-2.4,4.7-3.8,6.8c-1-0.9-1-2.1-1-3.2
	c0.2-3.1-0.4-6.2,0.3-9.2c0.1-0.4,0.3-0.9-0.3-1.1c-0.5-0.2-0.8,0.3-1.1,0.5c-1.2,0.9-1.3,2.4-2.5,3.6c-0.7-5,0.4-9.6,1.4-14.8
	c-2.5,1.8-3,4.2-4.8,6.4c0.2-2.4-0.2-4.4,0.4-6.4c0.6-1.9,1-3.9,1.4-5.9c0.1-0.6,0.2-1.2,0.4-1.8c0.1-0.2,0.3-0.4,0.4-0.6
	c-0.1,0-0.1-0.1-0.2-0.1c-0.1,0.2-0.1,0.5-0.2,0.7c-2,0.2-2.3,2.1-3.8,3.6c0.5-4.6,1.7-8.6,3.4-12.7c-2.9,0.5-3.8,3.4-6.5,4.3
	c0.7-4.3,2.7-7.7,5.2-10.7c1.3-1.5,1.8-2.9,1.6-4.8c1.1-0.7,0.8-2.1,1.4-3c0.9-1.8,2.7-2.9,3.3-4.8C36.8,41.1,39.3,39.6,41.7,38z
	 M92.6,70.7c0.1-0.8,0.3-1.5,0.3-2.3c0.2-4.2,1-8.6-1.4-12.5c-0.1-0.3-0.1-0.7-0.3-1C86.4,47.8,80.4,42,72.1,39
	c-2.4-0.8-4.8-1.2-7,0.7c-0.7,0.6-1.3,0.3-1.9-0.1c-2.6-1.3-5.2-0.9-7.5,0.7c-5.9,4.1-9.5,10-11.8,16.7c-1.2,2-1.5,4.2-1.6,6.4
	c-0.3,0.3-0.8,0.6-0.9,0.9c-1.2,5-0.5,10-0.7,15.3c1.5-1,1-2.7,2.6-3.2c0.7,5.8,2.4,11.3,5.8,16.8c0.1-1.9,0.1-3.1,0.3-4.2
	c0.2-0.7,0.4-1.7,1.4-1.6c0.8,0.1,0.9,1,1,1.7c0.2,2.2,1.4,3.9,2.6,5.7c2.6,3.6,5.6,7.1,5.9,11.8c0.1,0.7,0.2,1.3,1.1,0.7
	c3.1-1.9,3.6-1.7,5.5,1.5c1.1,1.9,2.3,3.7,3.7,6.1c0.2-1.7,0.2-2.7,0.4-3.7c0.2-0.7,0.4-1.7,1.4-1.7c0.9,0,1,0.9,1.3,1.5
	c0.5,1.2,0.8,2.5,1.4,3.7c0.4,0.8,0.6,2.2,1.9,1.8c1.3-0.4-0.1-1.5,0.1-2.3c0.2-0.5,0.1-1.1,0-1.6c-0.5-2.4,1.9-4,1.6-6.3
	c0.3-0.1,0.7-0.2,1-0.3c0.4,2.2,1.2,4.3,2.7,6.5c0.7-2.8,1.6-5.2,2.9-7.4c1.4-2.4,1.9-5.1,1.9-7.8c0-1.3,0.3-2.4,0.9-3.5
	c1.3-2.4,1.9-4.9,1.7-7.6c-0.2-3,0.4-5.7,1.9-8.3C93.1,75.7,93.8,73.3,92.6,70.7z"/>
<path class="st3" d="M102.7,249.2c-2.4,0.8-4.8,2.3-7.5,0.7c0-0.6,0.1-1.2,0.1-1.8c2.6,0.2,4.8-1.3,7.2-1.6
	C102.6,247.5,102.7,248.4,102.7,249.2z"/>
<path class="st6" d="M95.4,248.2c0,0.6-0.1,1.2-0.1,1.8c-0.3,0-0.7,0-1-0.1c-1.5-0.7-1-2.1-1.1-3.2c0-1.6,0.6-2.9,2.1-3.7l0,0
	C95.3,244.7,95.3,246.5,95.4,248.2z"/>
<path class="st6" d="M102.7,249.2c0-0.9-0.1-1.7-0.1-2.6c0.5-1.2,0.5-2.7,2.1-3.5c0.1,1.3,0.1,2.4,0.2,3.5c0,0.8-0.1,1.6-0.1,2.4
	C104,248.5,103.4,249.3,102.7,249.2z"/>
<path class="st10" d="M104.9,246.6c-0.1-1.1-0.1-2.2-0.2-3.5c-1.6,0.8-1.6,2.3-2.1,3.5c-2.5,0.3-4.7,1.8-7.2,1.6
	c0-1.7-0.1-3.5-0.1-5.2c0.1-0.1,0.1-0.2,0.2-0.2c-0.1,0.1-0.2,0.1-0.2,0.2c-1.4,0.8-2.1,2.1-2.1,3.7c-1.1,0-2.1,0-3.2,0
	c-0.2-1.5,0.1-2.8,0.5-4.2c2.1-2.3,3.8-5.2,7.4-5.3c4.2-0.2,8.3,1.2,12.6,1.2c2.8,0,4,3.7,2.2,6c-1.4,1.8-3,3.3-5.6,2.4
	C106.4,246.5,105.6,246.6,104.9,246.6z"/>
<path class="st1" d="M96.9,171.8c-4.3-2.3-6.6-6.3-9.2-10.4c-2,3.2-1.4,6.3-0.9,9.5l0,0c-3.9-3.1-7.4-6.6-9-11.6
	c0-0.1-0.1-0.2-0.1-0.2c-0.1,0-0.3,0-0.4,0c-2.1,0.6-3.3,2.2-4.1,4.3c-2.8-2.1-4.7-4.9-6.8-7.4c-0.8-1-1.2-2.8-3.2-2
	c-2,0.7-3.8,1.6-4,4c0,0.4,0,0.9-0.1,1.8c-5.9-5.3-8.2-12.3-11.1-19.2c-0.8,2-1.5,3.7-2.4,5.7c-2-3.2-3.7-6.1-4.9-9.3
	c1.6-0.9,1.8-2.8,3.3-4.3c2.1,3.5,4.3,6.8,6.7,9.9c0.7,0.9,1.5,1.7,2.4,2.4c1.5,1.3,2.4,2.6,3.8-0.4c1.1-2.4,5.2-2.4,7.1-0.5
	c1.9,1.9,3.8,3.7,6,5.1c0.9,0.6,1.5,1.4,2.3-0.3c0.6-1.3,2.3-1.6,3.5-2.1c1-0.4,1.1,0.7,1.4,1.2c1.8,2.9,4.3,5,7.1,6.8
	c0.5,0.3,1,0.9,1.7,0.3c0.4-0.4,0.2-1,0.1-1.5c-0.1-0.3-0.3-0.7-0.2-1c0.5-1.1,0-2.8,1.4-3.2c1.3-0.5,1.5,1.2,2.3,1.8
	c2.1,2,4.1,4.1,7,5c2.2,0.7,2.8,0.2,2.2-2.1c-0.7-2.8,0.1-5.2,1.3-7.6c0.5-1,1.4-1.3,2-0.3c1.4,2.4,2.5,1.4,3.6-0.2
	c-0.3,4.8-1.1,9.6-3.2,14.2c-0.3-0.5-0.4-0.8-0.6-1.1c-0.4-0.8-0.7-2.1-1.8-2c-1.4,0-1.3,1.5-1.5,2.4c-1,3.4-1,6.9-0.3,10.4
	C98.5,171.2,98.5,172,96.9,171.8z"/>
<path class="st3" d="M96.9,171.8c1.6,0.2,1.7-0.6,1.4-1.9c-0.7-3.5-0.7-7,0.3-10.4c0.3-0.9,0.1-2.4,1.5-2.4c1.2,0,1.4,1.2,1.8,2
	c0.2,0.3,0.3,0.6,0.6,1.1c2.1-4.7,2.8-9.4,3.2-14.2c0.1-0.7,0.2-1.4,0.2-2.1c1.5-0.2,1.4,1.7,2.8,2c1-3.2,2.6-6.3,1.5-9.8
	c0.6-0.1,1,0.3,1.5,0.6c2.2-0.4,1.5-2.8,2.8-3.8c1,3.7,0.7,7.3-1,11.5c-0.6-1.5-1-2.5-1.6-4.2c-0.3,5.2-0.4,9.8-2.2,14.2
	c-0.8-1.9,1-4.6-1.9-5.8c-1.1,6.1-2.2,12.2-3.4,18.7c-1.1-1.5-1.9-2.7-2.9-4.2c-0.8,4.1,0.6,7.6,0.3,11.1c-0.2,2.2-0.6,4.2-2.7,5.4
	C97.6,177,98,174.2,96.9,171.8z"/>
<path class="st1" d="M119.1,79.2c3,4.4,4.2,9.2,3.5,14.6c-1.4-0.7-2.8-1.4-4.6-2.3c1.2,4.7,1.5,9,0.4,13.4c-1.6,0.1-1.9-2.1-3.5-1.9
	l0,0c0-0.2,0-0.4,0-0.6c0.9-5.5,0.8-10.9-0.3-16.4c-0.1-0.4-0.3-0.8,0-1.3c1.2-0.2,1.6,1.2,2.6,1.4c0.5,0.1,0.9,1,1.6,0.6
	c0.5-0.4,0.4-1.2,0.3-1.7C118.7,83.1,118,81.2,119.1,79.2z"/>
<path class="st1" d="M114.8,103c1.3,3.7,3,7.4,3.1,11.4c0.1,1.7-0.2,3.3-0.2,5c-1,1.2-1.9,0.4-2.9,0c0.4-6.4-1.4-12.5-2.8-18.9
	c1.6,0.3,1.4,1.6,2.2,2C114.5,102.7,114.7,102.9,114.8,103L114.8,103z"/>
<path class="st2" d="M27.4,117.8c0.5,0.7,1.1,1.3,1.8,2.2c0.3-1.4,0-2.8,0.6-3.9c1.1-0.1,1.2,1,1.9,1.3c0.4,1.8,0.9,3.6,1.3,5.4
	c0.2,1.7,0.6,3.3,1.5,4.8c-0.2,0.2-0.4,0.4-0.6,0.6c-0.7-0.2-1.4-0.4-1.6-1.2c-1-2.5-3.2-3.6-5.3-4.8
	C26.9,120.6,26.9,119.2,27.4,117.8z"/>
<path class="st1" d="M114.4,132.7c-1.2,1-0.6,3.4-2.8,3.8c1.5-3.2,0-6.3-0.2-9.5c-0.1-2.2-0.9-4.4-1.4-6.9c1.6,0.8,2.6,2.1,4.2,2
	c0.1,1.6,0.2,3.2,0.7,4.8C114.7,128.9,114.5,130.8,114.4,132.7z"/>
<path class="st1" d="M34.5,127.5c-0.9-1.5-1.3-3.1-1.5-4.8c0.4-0.4,1.2,1.6,1.3-0.2c0-0.3,0-0.7,0-1.1c0.1-0.8-0.3-2,0.9-2.2
	c0.9-0.1,1,1,1.3,1.7c1.3,4,1.8,8.2,2,12.3C36.7,131.7,35.7,129.5,34.5,127.5z"/>
<path class="st3" d="M114.9,126.9c-0.5-1.5-0.6-3.2-0.7-4.8c0.4-0.9-0.1-2,0.7-2.7c0.9,0.4,1.9,1.2,2.9,0c1.4,1.2,0.3,2.6,0.2,3.8
	c0,3-0.5,6-0.9,9.4C115.2,130.8,115.9,128.5,114.9,126.9z"/>
<path class="st1" d="M110.2,136c1.1,3.6-0.5,6.6-1.5,9.8c-1.4-0.3-1.3-2.2-2.8-2c0.3-3.3,2.5-6.1,2-9.7
	C109.2,134.4,109.6,135.2,110.2,136z"/>
<path class="st1" d="M121.4,76.2c0.4,1,0.8,2,1.4,3.6c-1.7-1-2.8-2.1-4.3-2.2c-0.7-2.3-1.5-4.5-1.5-6.9
	C119.1,72,120,74.3,121.4,76.2z"/>
<path class="st1" d="M115.9,69.2c0.4,0.2,0.7,0.5,0.6,1C116.1,70,116,69.6,115.9,69.2z"/>
<path class="st1" d="M116.5,70.1c0.4,0,0.5,0.3,0.5,0.6C116.9,70.5,116.7,70.3,116.5,70.1z"/>
<path class="st10" d="M114.9,103.1c-0.2-0.2-0.3-0.4-0.5-0.5c0.2,0,0.4,0,0.5-0.1C114.9,102.7,114.9,102.9,114.9,103.1z"/>
<path class="st1" d="M115.4,68.6c0.2,0.2,0.3,0.4,0.5,0.6C115.7,69,115.6,68.8,115.4,68.6z"/>
<path class="st1" d="M115.3,68.1c0.1,0.1,0.2,0.3,0.1,0.5c-0.1-0.1-0.2-0.2-0.3-0.3C115.2,68.3,115.3,68.2,115.3,68.1z"/>
<path class="st1" d="M39.1,134c-0.2-0.3-0.4-0.5-0.5-0.8C38.7,133.5,38.9,133.8,39.1,134z"/>
<path class="st2" d="M21.1,62.3c0.1-0.1,0.2-0.3,0.4-0.4c0,0.1,0.1,0.2,0.1,0.2C21.5,62.3,21.3,62.4,21.1,62.3
	C21.1,62.2,21.1,62.3,21.1,62.3z"/>
<path class="st0" d="M118.2,67.4c0.3,0.3,0.4,0.5,0.1,0.9c-0.1-0.2-0.3-0.4-0.4-0.6C118,67.6,118.1,67.5,118.2,67.4z"/>
<path class="st5" d="M278.6,97.3c0-0.2,0-0.4,0-0.7C278.9,96.8,279.1,97,278.6,97.3z"/>
<path class="st7" d="M88.9,38.4c-2.5-0.8-5.1-1.4-7.4-2.7c1.9-3.6,4.6-6.6,7.6-9.3c2.6-2.3,3.6-2.3,7.2-0.2c-3.1,1-6.2,2.2-8.4,4.9
	c-0.6,0.8-1.3,1.2-0.3,2.3C88.7,34.8,89,36.6,88.9,38.4z"/>
<path class="st6" d="M129.2,161.8c-2.1-5.6-6.2-10.5-5.9-16.9c0.2-0.9-0.3-1.9,0.6-2.7c1.5,5.3,3.7,10.2,7.8,14
	c1.7,1.5,3,3.4,4.4,5.2C133.8,161.4,131.5,162,129.2,161.8z"/>
<path class="st6" d="M248.1,207.2c3.1-5.3,1.6-10.2,0.1-15.4c-1.3-4.5-2.2-9.3-2.4-14.7c2.6,3.2,3.1,6.7,4.2,9.8
	c0.9,2.8,1.9,5.6,3.3,8.2c1.6,2.9,0.8,5.5-0.6,8C251.6,204.9,250,206.1,248.1,207.2z"/>
<path class="st7" d="M315.4,191.5c-0.8-2.7-1.7-4.9-2.2-7.2c-0.8-4-3.3-6.5-6.4-8.6c-3.1-2.1-6.2-4.3-9.3-6.5
	c-0.3-0.2-0.6-0.4-0.8-0.7c-0.5-0.6-1.4-1.1-0.9-2c0.6-0.9,1.5-0.2,2.1,0.2c2.2,1.4,4.5,2.8,6.7,4.3c10.6,7.2,8,3.6,10.6,16.2
	C315.3,188.5,316,189.6,315.4,191.5z"/>
<path class="st6" d="M307.2,229.8c-0.1,0-0.3,0-0.4,0c-1.9-1.9-0.9-4.2-0.9-6.4C305.7,225.6,307.2,227.6,307.2,229.8z"/>
<path class="st6" d="M298.2,223.3c0.1-0.3,0.2-0.6,0.4-0.8c0.1,0.1,0.2,0.1,0.3,0.2C298.7,222.9,298.4,223.1,298.2,223.3
	C298.2,223.3,298.2,223.3,298.2,223.3z"/>
<path class="st6" d="M307.7,230.2c-0.2-0.1-0.4-0.3-0.6-0.4C307.4,229.9,307.5,230,307.7,230.2z"/>
<path class="st3" d="M140.3,183c0.1-0.1,0.2-0.1,0.3-0.2C140.5,182.9,140.4,183,140.3,183C140.3,183.1,140.3,183,140.3,183z"/>
<path class="st8" d="M41.7,38c-2.5,1.6-4.9,3.1-7.4,4.7c-0.1-1.4-1.3-1.3-2.2-1.4c-1.3-0.1-0.7,1.6-1.4,2.1
	c-0.3-0.2-0.6-0.4-0.7-0.6c-2.4-3.3-0.5-7.5,4.2-9.1C36.9,34.8,39.8,35.6,41.7,38z"/>
<path class="st7" d="M34.2,33.7c-4.7,1.7-6.6,5.8-4.2,9.1c0.1,0.2,0.4,0.3,0.7,0.6c0.7-0.6,0.2-2.2,1.4-2.1c0.8,0,2,0,2.2,1.4
	c-0.6,1.9-2.4,3.1-3.3,4.8c-2.3-1.2-3.6-3.3-4.9-5.4c-1.6-2.6,0-4.7,1.3-6.7C29.2,32.6,31.7,32.9,34.2,33.7z"/>
<path class="st6" d="M102.3,217.6c-4.1-8.1-5-17.1-7.9-25.5C97.5,200.5,100.8,208.7,102.3,217.6z"/>
<path class="st1" d="M86.8,170.9c0.1,0.1,0.2,0.1,0.2,0.2c0,0-0.1,0-0.1,0C86.8,171,86.8,170.9,86.8,170.9
	C86.8,170.9,86.8,170.9,86.8,170.9z"/>
<path class="st11" d="M88.8,244.7c-0.2,0.1-0.3,0.2-0.5,0.3C88.5,245,88.6,244.9,88.8,244.7z"/>
<path class="st10" d="M43.8,57c2.3-6.7,5.9-12.6,11.8-16.7c2.3-1.6,4.9-2,7.5-0.7c0.7,0.3,1.2,0.6,1.9,0.1c2.2-1.8,4.7-1.5,7-0.7
	c8.3,3,14.3,8.8,19.1,15.9c0.2,0.3,0.2,0.7,0.3,1c-1,1.5-0.3,3.2-0.5,4.9C90.6,66,89.1,70.9,85.7,75c-1-0.4-1.3-1.4-1.8-2.2
	c-1.9-2.8-3.7-5.5-6.6-7.3l0,0c-0.2-0.2-0.3-0.3-0.5-0.5c-1.2-2.9-2.5-5.8-4.5-8.3c-1.5-2-3.5-3.3-6.1-2.8c-2.3,0.5-3.4,2.4-3.9,4.6
	c-0.8,4-0.6,8,0.6,12c-1-0.4-1.1,0.5-1.5,1c-2.4,3.4-3.8,7.2-5.1,11.1c-0.5-2-2.2-3-3.5-4.2c-4.4-4-7.1-8.7-8.1-14.7
	C44.3,61.4,45.2,59,43.8,57z M79,63.8c2.5-2,5-4.1,6.8-6.8c-1.7-2.6-4-1.9-6.3-1.1c-0.6,0.1-1.1,0.3-1.1,1
	C77.2,59.3,77.2,61.6,79,63.8z M49.7,60.7c0.7,2.4,2.2,4,4.7,3.4c2.1-0.5,3.6,0.2,5.1,1.4c0.8-0.2,1-0.6,0.6-1.3
	c-0.6-1.1-1.1-2.2-1.8-3.2c-2-3.4-6.3-4.1-9.2-1.4C48,60.5,49.1,60.5,49.7,60.7z"/>
<path class="st0" d="M78.8,106.5c0.3,2.3-2,3.9-1.6,6.3c0.1,0.5,0.1,1.1,0,1.6c-0.3,0.8,1.1,1.9-0.1,2.3c-1.2,0.4-1.5-1-1.9-1.8
	c-0.6-1.2-0.9-2.5-1.4-3.7c-0.3-0.6-0.4-1.5-1.3-1.5c-1,0-1.2,0.9-1.4,1.7c-0.3,1-0.3,2-0.4,3.7c-1.5-2.4-2.6-4.2-3.7-6.1
	c-1.9-3.2-2.4-3.4-5.5-1.5c-0.9,0.6-1.1-0.1-1.1-0.7c-0.4-4.8-3.4-8.2-5.9-11.8c-1.2-1.7-2.4-3.5-2.6-5.7c-0.1-0.7-0.2-1.6-1-1.7
	c-1-0.1-1.3,0.9-1.4,1.6c-0.2,1.1-0.2,2.3-0.3,4.2c-3.4-5.6-5.1-11-5.8-16.8c-1.5,0.5-1,2.3-2.6,3.2c0.2-5.3-0.5-10.4,0.7-15.3
	c0.1-0.4,0.6-0.6,0.9-0.9C42.5,74,47.8,82,55.5,88.8c0.2,0.3,0.3,0.7,0.5,1c0.1,0.3,0.2,0.7,0.3,1c0,0.9,0.2,1.6,0.7,2.3
	c0.4,0.7,0.7,1.3,1.1,2c0.5,0.7,1.1,1.3,1.6,2c0.1,2,1.1,3.5,2.9,4.3c1.4,3.3,4.1,5,7.4,5.7C72.9,107.7,75.9,107.4,78.8,106.5z"/>
<path class="st8" d="M55.5,88.8C47.8,82,42.5,74,42.2,63.3c0.2-2.2,0.4-4.4,1.6-6.4c1.3,2.1,0.5,4.4,0.8,6.7
	c0.9,6,3.7,10.7,8.1,14.7c1.3,1.2,3,2.2,3.5,4.2c-0.1,1.2-0.6,2.5-0.3,3.6c0.5,1.3,2.3,0.1,3.2,0.8C58.1,88,56,86.8,55.5,88.8z"/>
<path class="st4" d="M78.8,106.5c-2.9,0.9-5.9,1.3-8.8,0.7c-3.3-0.7-6-2.4-7.4-5.7c0.2-0.4,0.5-0.7,0.7-1.1
	c7.4,5.7,15.2,4.5,20.4-3.2c0.3-0.4,0.7-0.5,1.1-0.5c0.4,0.2,0.9,0.5,1.3,0.7c0.5,2.4-0.5,4.2-2.1,5.8c-1.3,1.2-2.8,2-4.3,2.9
	C79.5,106.3,79.1,106.4,78.8,106.5z"/>
<path class="st8" d="M85.7,75c3.5-4.1,4.9-9,5.4-14.2c0.1-1.6-0.5-3.3,0.5-4.9c2.5,3.9,1.7,8.3,1.4,12.5c0,0.8-0.2,1.6-0.3,2.3
	c-1.4,3.4-2.1,7-4.2,10.1C87.5,78.9,86.2,77.1,85.7,75z"/>
<path class="st0" d="M88.4,80.8c2.1-3.1,2.8-6.7,4.2-10.1c1.2,2.6,0.5,5-0.7,7.2c-1.5,2.6-2.1,5.3-1.9,8.3c0.2,2.7-0.4,5.2-1.7,7.6
	c-0.6,1.1-0.9,2.2-0.9,3.5c0.1,2.8-0.5,5.4-1.9,7.8c-1.3,2.2-2.1,4.6-2.9,7.4c-1.6-2.2-2.3-4.3-2.7-6.5c1.5-0.9,3-1.7,4.3-2.9
	c1.6-1.6,2.6-3.5,2.1-5.8c-0.2-0.8-0.4-1.6-0.6-2.4c0.6-1,1.6-1.9,1.9-3.1c0.2-0.4,0.3-0.8,0.5-1.2c0.6-0.7,0.9-1.5,0.9-2.5
	c0.2-0.6,0.5-1.1,0.2-1.8c0-0.7,0.3-1.4-0.2-2C88.7,83.3,88.6,82.1,88.4,80.8z"/>
<path class="st0" d="M101.6,85c-0.1-0.2-0.3-0.4-0.4-0.6c0.1,0,0.1-0.1,0.2-0.1C101.5,84.6,101.6,84.8,101.6,85
	C101.6,85,101.6,85,101.6,85z"/>
<path class="st0" d="M29.5,70.7c0.1-0.2,0.1-0.5,0.2-0.7c0.1,0,0.1,0.1,0.2,0.1C29.8,70.4,29.7,70.5,29.5,70.7
	C29.6,70.7,29.5,70.7,29.5,70.7z"/>
<path class="st0" d="M55.5,115.2c0-0.1,0.1-0.1,0.1-0.2C55.6,115.1,55.6,115.2,55.5,115.2C55.5,115.2,55.5,115.2,55.5,115.2z"/>
<path class="st6" d="M95.2,242.9c0.1-0.1,0.2-0.1,0.2-0.2C95.4,242.8,95.3,242.9,95.2,242.9C95.3,243,95.2,242.9,95.2,242.9z"/>
<path class="st13" d="M55.5,88.8c0.5-2,2.6-0.8,3.6-1.9c-1-0.8-2.7,0.5-3.2-0.8c-0.4-1,0.1-2.4,0.3-3.6c1.3-3.9,2.8-7.7,5.1-11.1
	c0.4-0.5,0.5-1.4,1.5-1c0.5,4.2,1.4,8.2,3.3,12.1c1.2,1.3,3.1,1,4.6,1.6c2,0.8,4,1.5,4.1,4.1c-0.7,0.6-1.3,1.1-2,1.7
	c-4.1,3-8.2,5.9-13.6,4.2c0.6-0.5,1.2-1,1.8-1.6c0.1-0.1,0.3-0.3,0.3-0.3c-0.2-0.3-0.4-0.1-0.6,0.1c-1.2,0.3-2.4,0.6-3.6,0.9
	c-0.5-0.7-0.7-1.5-0.7-2.3c1.4-0.3,2.8-0.5,3.9-1.6c0.2,0,0.5-0.1,0.7-0.1c-0.1-0.1-0.1-0.2-0.2-0.3c-0.2,0.1-0.3,0.3-0.5,0.4
	c-1.5-0.3-2.8,0.6-4.3,0.5C55.9,89.5,55.7,89.1,55.5,88.8z"/>
<path class="st3" d="M66.1,82.4c-1.8-3.8-2.7-7.9-3.3-12.1c-1.1-4-1.4-8-0.6-12c0.4-2.2,1.5-4.1,3.9-4.6c2.6-0.6,4.6,0.8,6.1,2.8
	c1.9,2.5,3.3,5.4,4.5,8.3c0.2,0.2,0.3,0.3,0.5,0.5c0,0,0,0,0,0c0,0.7-0.2,1.5,0.5,2.1c0.1,0.3,0.2,0.6,0.6,0.6c0,0,0,0,0,0
	c0.1,3.5,2.1,6.5,2.2,10c-0.4,0-0.8,0-1.2,0c-1.5-7.1-3.7-13.9-8.4-19.6c-0.9-1.1-2-2.2-3.6-1.7c-1.7,0.5-2.5,1.8-2.8,3.5
	c-1.2,7.1,0.7,13.9,2.6,20.6c0,0.4,0,0.7,0.1,1.1C66.7,82,66.3,81.9,66.1,82.4z"/>
<path class="st9" d="M77.7,67.5c-0.7-0.6-0.5-1.4-0.5-2.1c2.9,1.8,4.8,4.5,6.6,7.3c0.5,0.8,0.8,1.8,1.8,2.2c0.6,2.1,1.9,3.9,2.8,5.9
	c0.2,1.2,0.3,2.4,0.5,3.7c-0.5,1.7-1.8,0.4-2.7,0.7c-0.9-1.4-0.3-3-0.9-4.6c-1.6-4.6-4.3-8.6-7-12.6c0,0,0,0,0,0
	C78.1,67.9,77.9,67.7,77.7,67.5z"/>
<path class="st11" d="M49.7,60.7c-0.6-0.2-1.6-0.3-0.6-1.2c2.9-2.6,7.2-2,9.2,1.4c0.6,1,1.2,2.2,1.8,3.2c0.4,0.7,0.2,1.1-0.6,1.3
	c-1.2-1.7-2-4-4.9-2.4c-1.1,0.6-2.3-0.4-3.3-1.2C50.7,61.5,50.6,60.6,49.7,60.7z M55.7,60.4c-0.1-1.1-0.8-1.9-2-1.8
	c-1.2,0-2,0.7-1.9,2c0,1.1,0.6,1.8,1.8,1.8C54.8,62.4,55.6,61.9,55.7,60.4z"/>
<path class="st4" d="M78.3,56.8c0.1-0.7,0.5-0.9,1.1-1c2.4-0.2,3.3,1.1,3,3.3c-0.5,1.1-1.8,0.4-2.5,1C78.8,59.3,78.3,58.2,78.3,56.8
	z"/>
<path class="st2" d="M49.7,60.7c0.9-0.1,1.1,0.8,1.6,1.2c1,0.8,2.2,1.7,3.3,1.2c3-1.6,3.7,0.7,4.9,2.4c-1.5-1.1-3-1.8-5.1-1.4
	C51.9,64.7,50.4,63.1,49.7,60.7z"/>
<path class="st2" d="M80,60.1c0.7-0.6,2,0.1,2.5-1c0.4-1.8,1.5-2.5,3.3-2.2c-1.8,2.7-4.3,4.8-6.8,6.8C79.8,62.7,78.8,61.1,80,60.1z"
	/>
<path class="st11" d="M85.8,56.9c-1.8-0.3-2.9,0.4-3.3,2.2c0.2-2.2-0.6-3.5-3-3.3C81.8,55.1,84.1,54.4,85.8,56.9z"/>
<path class="st11" d="M80,60.1c-1.1,1-0.2,2.5-1,3.6c-1.7-2.2-1.7-4.5-0.6-6.9C78.3,58.2,78.8,59.3,80,60.1z"/>
<path class="st9" d="M77.2,65.4c-0.2-0.2-0.3-0.3-0.5-0.5C76.9,65.1,77.1,65.3,77.2,65.4z"/>
<path class="st11" d="M66.1,82.4c0.2-0.5,0.7-0.5,1.1-0.6c0.4,0.6,1.2,0.8,1.6,0.4c1.5-1.2,2.4-0.7,3.3,0.8c1,1.7,1.9,1.1,2.6-1.1
	c0.4,1.7,1.3,2.1,2.3,2.2c-0.7,0.9-1.9,1.5-1.3,2.9c-0.5,2.6,1.5,3.3,3.2,4.1c2.3,1.2,5.1,1.4,6.8,3.7c0.2,0.8,0.4,1.6,0.6,2.4
	c-0.4-0.2-0.9-0.5-1.3-0.7c-6.2-6.4-17.4-2.6-21.6,3.7c-0.2,0.4-0.5,0.7-0.7,1.1c-1.8-0.9-2.8-2.3-2.9-4.3c5.5,0.1,9.9-2.5,14-5.8
	c0.9-0.8,1.8-1.8,1.1-3.2c-0.1-2.6-2.1-3.3-4.1-4.1C69.1,83.4,67.3,83.8,66.1,82.4z"/>
<path class="st9" d="M74.8,88.2c0.7,1.4-0.2,2.4-1.1,3.2c-4.1,3.3-8.5,5.9-14,5.8c-0.5-0.7-1.1-1.3-1.6-2c0.2-0.5,0.5-0.9,1-1.1
	c5.5,1.6,9.6-1.3,13.6-4.2C73.5,89.3,74.1,88.7,74.8,88.2z"/>
<path class="st3" d="M59.1,94.1c-0.5,0.2-0.9,0.6-1,1.1c-0.4-0.7-0.7-1.3-1.1-2c1.2-0.3,2.4-0.6,3.6-0.9c0.1,0.1,0.2,0.2,0.2,0.2
	C60.3,93,59.7,93.6,59.1,94.1z"/>
<path class="st8" d="M60.3,89.3c-1.1,1-2.5,1.3-3.9,1.6c-0.1-0.3-0.2-0.7-0.3-1C57.5,89.9,58.8,89,60.3,89.3L60.3,89.3z"/>
<path class="st14" d="M63.3,100.4c4.2-6.3,15.4-10.1,21.6-3.7c-0.4,0-0.9,0.1-1.1,0.5C78.5,104.9,70.7,106.1,63.3,100.4z"/>
<path class="st9" d="M85.7,95c-1.7-2.2-4.5-2.5-6.8-3.7c-1.7-0.9-3.7-1.6-3.2-4.1c2.8,1,5.6,2,8.7,1c1.5,0,3.1,0,4.6,0
	c0,0.9-0.3,1.7-0.9,2.5c-1.6-0.5-3.3-0.3-5-0.3c-0.2-0.3-0.5-0.5-0.9-0.4c-0.1,0-0.1,0.2-0.2,0.3c0.3,0,0.7,0.1,1,0.1
	c1.3,0.9,2.9,1.2,4.5,1.6C87.2,93.1,86.3,94,85.7,95z"/>
<path class="st3" d="M88.9,88.2c-1.5,0-3.1,0-4.6,0C84,87.4,83,88,82.6,87.3c1.1-0.1,2.1-0.2,3.1-0.4c1.2,0.4,2.3-0.2,3.5-0.5
	C89.4,87.1,89.2,87.6,88.9,88.2z"/>
<path class="st14" d="M89.2,86.5c-1.1,0.3-2.2,0.9-3.5,0.5c0.2-0.6,0.3-1.2,0.5-1.7c0.9-0.3,2.2,1,2.7-0.7
	C89.4,85.1,89.2,85.8,89.2,86.5z"/>
<path class="st8" d="M83.1,90.3c1.7,0,3.3-0.2,5,0.3c-0.2,0.4-0.3,0.8-0.5,1.2C86,91.6,84.4,91.3,83.1,90.3L83.1,90.3z"/>
<path class="st8" d="M60.3,89.3c0.2-0.1,0.3-0.3,0.5-0.4c0.1,0.1,0.1,0.2,0.2,0.3C60.7,89.2,60.5,89.2,60.3,89.3
	C60.3,89.3,60.3,89.3,60.3,89.3z"/>
<path class="st3" d="M60.6,92.3c0.2-0.2,0.3-0.4,0.6-0.1c0,0-0.2,0.2-0.3,0.3C60.8,92.4,60.7,92.4,60.6,92.3z"/>
<path class="st9" d="M67.1,80.8c-1.9-6.7-3.8-13.5-2.6-20.6c0.3-1.7,1.1-3,2.8-3.5c1.6-0.5,2.7,0.6,3.6,1.7
	c4.6,5.8,6.9,12.5,8.4,19.6c-3.1,1.8-6.2,2.9-9.8,1.7C68.5,79.3,67.5,79.6,67.1,80.8z"/>
<path class="st13" d="M86.2,85.2c-0.2,0.6-0.3,1.2-0.5,1.7c-1,0.1-2,0.2-3.1,0.4c0.4,0.7,1.4,0.1,1.7,0.9c-3,1-5.9,0-8.7-1
	c-0.5-1.4,0.6-2.1,1.3-2.9c0,0,0-0.1,0-0.1c2.4-1,3.5-3.1,3.8-5.5c-0.1-0.2-0.2-0.4-0.3-0.6c-0.2-3.5-2.1-6.5-2.2-10
	c2.8,4,5.4,7.9,7,12.6C85.8,82.2,85.3,83.8,86.2,85.2z"/>
<path class="st1" d="M80.5,78.1c0.1,0.2,0.2,0.4,0.3,0.6c-1.4,0.3-1.4,2.1-2.8,2.6c-1.5,0.5-1.6,1.7-1,3c0,0,0,0.1,0,0.1
	c-1-0.2-1.9-0.6-2.3-2.2c-0.7,2.2-1.6,2.8-2.6,1.1c-0.9-1.5-1.7-2-3.3-0.8c-0.4,0.3-1.2,0.2-1.6-0.4c0-0.4,0-0.7-0.1-1.1
	c0.4-1.1,1.4-1.4,2.4-1.1c3.6,1.3,6.8,0.1,9.8-1.7C79.7,78,80.1,78,80.5,78.1z"/>
<path class="st13" d="M77.7,67.5c0.2,0.2,0.4,0.4,0.6,0.6C77.9,68.1,77.8,67.8,77.7,67.5z"/>
<path class="st4" d="M55.7,60.4c-0.1,1.5-0.9,2-2.1,2c-1.2,0-1.8-0.7-1.8-1.8c-0.1-1.3,0.7-2,1.9-2C54.9,58.5,55.6,59.3,55.7,60.4z"
	/>
<path class="st8" d="M83.1,90.3c-0.3,0-0.7-0.1-1-0.1c0.1-0.1,0.1-0.3,0.2-0.3C82.6,89.9,82.9,90,83.1,90.3
	C83.1,90.3,83.1,90.3,83.1,90.3z"/>
<path class="st11" d="M77,84.2c-0.5-1.3-0.4-2.5,1-3c1.4-0.4,1.4-2.2,2.8-2.6C80.5,81.1,79.4,83.1,77,84.2z"/>
</svg>
