<?xml version="1.0" encoding="utf-8"?>
<!-- Generator: Adobe Illustrator 19.1.0, SVG Export Plug-In . SVG Version: 6.00 Build 0)  -->
<svg version="1.0" id="Layer_1" xmlns="http://www.w3.org/2000/svg" xmlns:xlink="http://www.w3.org/1999/xlink" x="0px" y="0px"
	 viewBox="-55 147 500 500" style="enable-background:new -55 147 500 500;" xml:space="preserve">
<style type="text/css">
	.st0{fill:#D2EBF1;}
	.st1{fill:#C5C5C4;}
	.st2{fill:#231504;}
	.st3{fill:#BF6EAB;}
	.st4{fill:#CA83B7;}
	.st5{fill:#2C2429;}
	.st6{fill:#F4CCE0;}
	.st7{fill:#F7CAD1;}
	.st8{fill:#56B246;}
	.st9{fill:#E4BCCF;}
	.st10{fill:#4E89C6;}
	.st11{fill:#405AA7;}
	.st12{fill:#DC3624;}
	.st13{fill:#E46125;}
	.st14{fill:#DBD429;}
</style>
<path class="st0" d="M-40.6,396.9c-0.7-6.8-1.9-13.6-1-20.4c1.7-11.8,2.4-23.8,7.4-35.1c2.4-5.4,3.8-11.2,6.2-16.7
	c3.8-8.8,9-16.7,13.8-24.8c6.2-10.6,14.6-19.6,22.9-28.4S27,255.4,37.5,249c5-3,10-5.9,15.3-8.5c12.8-6.4,24.7-14.1,36.3-22.4
	c9.6-6.8,19.8-12.9,30-18.8c10.9-6.3,22.7-9.7,34.5-13.1c5.5-1.6,11.8-1.8,17.6-2.7c5.9-0.9,11.8-0.8,17.6-1.1
	c12.8-0.6,25.7,0.3,38,4c6.9,2.1,13.6,4.8,20.1,7.7c13,5.9,25,13.7,37.6,20.3c11.2,5.8,22.5,11.5,34.7,15.2
	c11.5,3.4,22,9.2,32.2,15.4c6.3,3.8,13,7.4,17.9,12.8c5.2,5.7,10.8,11.1,15.9,17c9,10.5,15.7,22.2,22,34.3c3.2,6.2,4.9,13,6.9,19.7
	c1.6,5.4,1.9,11,4.2,16.3c1.7,3.9,1.8,8.6,1.6,13c0,0.9-0.5,1.9,0.2,2.6c1.9,2.1,1.6,4.8,1.2,7.1c-1,6.1-0.3,12.2-0.1,18.3
	c0.2,8.2-0.7,16.6-2,24.7c-0.5,3.1,0.4,5.7,0.4,8.6c-0.1,6.8,0.3,13.5-1.3,20.2c-0.7,2.8,1.4,6.8,0.1,8.9c-3,4.9-1,10.1-1.7,15
	c-1.2,8.4-1.6,16.9-3.6,25.2c-4,16.6-10.2,32.2-20.1,46.4c-12.2,17.5-28.6,29.5-47.1,39.3c-8.5,4.5-16.7,9.8-25.5,13.8
	c-10.1,4.6-20.7,7.9-31,12.1c-6.5,2.7-13.5,3.5-20.2,5.6c-9.3,2.9-19,4.2-28.5,6.2c-10.3,2.1-20.8,3.1-31.2,3.6
	c-7.9,0.4-15.8,0.8-23.7,1.2c-5.5,0.3-11-1.1-16.5-0.9c-8,0.3-15.9-1.7-23.8-1.6c-4,0-7.4-1.7-11.2-2.3c-12.1-1.9-23.9-5.2-35.3-9.7
	c-5.9-2.3-11.5-5.5-16.9-8.7c-11.3-6.7-20.8-15.3-29.8-24.9c-7.8-8.4-14.6-17.4-21.8-26.3C19,528.2,7.9,513.7-2.8,498.8
	c-7.3-9.8-13.4-20.8-18.5-32c-6.2-13.7-11.2-28-14.1-42.8C-37.1,414.9-40,406.1-40.6,396.9z M83.3,227.4l-0.1,0.1
	c-0.3-0.1-0.5-0.1-0.7,0.1c-4.2,2.8-8.5,5.6-12.7,8.5c-2.2-0.1-4.3,0-4.8,2.7l0,0c-0.3,0.2-0.7,0.4-1,0.7
	c-7.5,3.6-15.2,6.8-22.1,11.3c-0.3,0.2-0.7,0.5-1,0.7c-0.6,0.4-1.3,0.7-1.9,1.1c-0.3,0.2-0.6,0.4-0.9,0.7c-0.7,0.5-1.7,0.2-2.1,1.2
	c-0.2,0.2-0.5,0.5-0.7,0.7c-0.6,0.4-1.2,0.8-1.9,1.2c-1.4-0.1-2.7,0.1-2.7,2c-0.4,0.3-0.7,0.5-1.1,0.8c-0.3,0.2-0.6,0.5-0.9,0.7
	c-8.5,5.3-14.8,13-21.8,19.9c-2-0.2-2.3,1-2.3,2.5c-0.9,1-1.7,2-2.6,3c-1.9-0.1-2.1,1.1-2.1,2.6c-0.6,0.7-1.1,1.3-1.7,2
	c-2.5,0.1-3,1.7-2.8,3.8c-0.2,0.3-0.5,0.6-0.7,0.9c-2.1-0.1-2.2,1.2-2,2.8l0,0c-2,0-2,1.3-1.9,2.8l0,0c-2,0-2,1.4-1.9,2.8
	c0,0.3-0.1,0.6-0.4,0.8c-0.2,0.3-0.4,0.6-0.6,0.9c-0.2,0.4-0.5,0.7-0.7,1.1c-2.5,0.1-2,2-2.1,3.6c-0.7,1.3-1.4,2.5-2.1,3.8
	c-0.2,0.3-0.4,0.7-0.6,1c-0.1,0.3-0.2,0.6-0.3,0.8c-0.2,0.3-0.4,0.6-0.6,0.9c-0.2,0.3-0.3,0.6-0.5,1c-0.2,0.3-0.3,0.6-0.5,0.8v0.1
	c-4.6,1.9-4.6,6.7-6.2,10.4c-0.6,1.4-3.7,3.2-0.9,5.4c-0.2,0.6-0.4,1.2-0.5,1.8c-0.2,0.4-0.4,0.7-0.6,1.1c-0.1,0.5-0.3,1.1-0.4,1.6
	c-0.9,0-2.1,0-2.4,1c-1.8,6.3-3.9,12.5-4.7,19c-0.1,0.9,0.2,1.8,1.1,2.3c-0.1,0.6-0.2,1.2-0.3,1.8c-1.9,0.2-3,1.2-2.4,3.1
	c0.7,2.3-0.1,4.4-0.6,6.3c-2,7.6-0.2,15.3,0.1,22.8c0.4,12.1,3.8,23.9,7.2,35.7c3.5,12.3,7,24.5,12.5,36.1
	c8.6,18.2,19,35.1,31.7,50.7c9.2,11.3,18,22.9,26.7,34.6c2.8,3.7,5.4,8.1,8.6,11c8.6,7.7,15.8,17,25.9,23.2
	c7.4,4.6,14.3,10.1,22.4,13.2c10,3.8,20,7.4,30.6,9.6c12.4,2.6,25,2.7,37.4,4.7c7.1,1.1,14.1-0.3,21.1-0.1c3.8,0.1,7.6,1.7,11.4,0.7
	c8.1-1.9,16.4-2,24.5-2.3c12.4-0.5,24.3-3.9,36.5-5.7c7.9-1.2,15.7-3.8,23.4-6.3c11.9-3.7,23.3-8.4,34.7-13.3
	c6.6-2.8,12.7-6.6,19.1-9.8c12.7-6.2,24.7-13.3,35.4-22.3c21.3-17.8,32.6-41.5,38.3-68.3c3.6-17,4.4-34.4,5.3-51.6
	c0.7-14.3,1.1-28.5,1.9-42.8c0.7-13.6,0.6-27.3-1.5-41c-2.7-17.3-8.3-33.6-16.3-49.1c-4.7-9.1-10.7-17.5-17.4-25.5
	c-15-18-33.7-30.7-55-39.8c-9.2-3.9-18.9-6.6-28-10.7c-13.9-6.3-27-14.3-40.3-21.8c-15.9-8.9-32.8-15.4-51.1-17.3
	c-3.7-0.4-7.8-1.3-11.5,0.8c-0.2,0.2-0.4,0.1-0.7,0c-0.5,0-0.9,0-1.4,0c-3,0-6,0-9,0c-4.5-1.2-9.2-1.6-13.6-0.5
	c-2.2,0.5-5.5-1.3-6.9,2.1c-0.6,0.1-1.2,0.1-1.8,0.2c-3.3-1.9-6-0.8-8.4,1.6c-0.6,0.1-1.2,0.2-1.8,0.3c-2.5-1.7-4.2-0.8-5.6,1.5
	c-0.5,0.1-1,0.2-1.5,0.3c-0.4,0.2-0.9,0.4-1.3,0.5c-10.5,3-20.7,6.7-29.7,13.1c-0.3,0.2-0.5,0.4-0.8,0.6c-0.3,0.1-0.6,0.3-0.8,0.4
	c-0.3,0.2-0.7,0.5-1,0.7c-6.3,3.9-12.9,7.2-18.4,12.3c-1.5-0.1-2.8,0-2.8,2c-0.4,0.3-0.7,0.5-1.1,0.8c-0.3,0.2-0.6,0.5-0.9,0.7
	c-1,0.7-2,1.4-3,2c-0.2,0.2-0.4,0.3-0.7,0.5c-0.3,0.2-0.6,0.4-0.9,0.5C84,226.9,83.6,227.1,83.3,227.4z"/>
<path class="st1" d="M196.3,187c3.7-2.2,7.8-1.2,11.5-0.8c18.3,2,35.2,8.4,51.1,17.3c13.3,7.5,26.4,15.5,40.3,21.8
	c9.1,4.1,18.8,6.8,28,10.7c21.3,9.1,40,21.8,55,39.8c6.7,8,12.7,16.3,17.4,25.5c8,15.4,13.6,31.7,16.3,49.1
	c2.1,13.6,2.2,27.3,1.5,41c-0.7,14.3-1.2,28.6-1.9,42.8c-0.9,17.3-1.7,34.6-5.3,51.6c-5.7,26.8-17,50.5-38.3,68.3
	c-10.7,9-22.8,16.1-35.4,22.3c-6.4,3.1-12.5,7-19.1,9.8c-11.4,4.9-22.8,9.6-34.7,13.3c-7.8,2.4-15.6,5.1-23.4,6.3
	c-12.2,1.8-24,5.2-36.5,5.7c-8.1,0.3-16.4,0.4-24.5,2.3c-3.9,0.9-7.6-0.6-11.4-0.7c-7-0.2-14,1.2-21.1,0.1c-12.4-2-25-2.1-37.4-4.7
	c-10.6-2.2-20.7-5.9-30.6-9.6c-8-3.1-15-8.6-22.4-13.2c-10.1-6.2-17.2-15.5-25.9-23.2c-3.2-2.9-5.8-7.3-8.6-11
	c-8.7-11.7-17.5-23.3-26.7-34.6c-12.7-15.6-23.1-32.5-31.7-50.7c-5.5-11.6-9-23.8-12.5-36.1c-3.3-11.7-6.7-23.6-7.2-35.7
	c-0.3-7.5-2.1-15.2-0.1-22.8c0.5-1.9,1.3-4,0.6-6.3c-0.6-1.9,0.6-2.9,2.4-3.1c-0.3,3.4-0.5,6.7-0.8,10.1
	c-1.3,17.5,2.4,34.3,6.4,51.1c7.4,31,21,59,40.4,84.3c8.2,10.7,16.6,21.3,24.7,32.1c10.2,13.6,21.2,26.4,34.8,36.9
	c9.9,7.6,20.5,13.7,32.1,18.1c19.2,7.3,39.2,10.3,59.6,11.4c28.9,1.6,57.6,0,86-5.5c36-6.9,69-21.1,100.3-39.8
	c19.6-11.7,35.3-26.6,44.9-47.6c9.3-20.6,12.8-42.4,14.1-64.6c1.1-18,1.1-36.1,2.4-54.1c1.3-17.8,1.5-35.4-2.3-52.9
	c-11.5-52.6-42.1-88.9-93.1-107c-13.1-4.7-25.8-9.9-37.9-16.9c-14.4-8.4-28.6-17-44.2-22.9C221.3,190,208.8,188.2,196.3,187z"/>
<path class="st2" d="M196.3,187c12.6,1.2,25,3,36.9,7.5c15.7,5.9,29.9,14.5,44.2,22.9c12,7,24.7,12.3,37.9,16.9
	c51,18.1,81.6,54.4,93.1,107c3.8,17.5,3.6,35.1,2.3,52.9c-1.3,18-1.3,36-2.4,54.1c-1.3,22.2-4.8,44.1-14.1,64.6
	c-9.6,21-25.3,36-44.9,47.6C318,579.2,285,593.3,249,600.2c-28.4,5.5-57.1,7.1-86,5.5c-20.4-1.1-40.4-4.1-59.6-11.4
	c-11.6-4.4-22.2-10.5-32.1-18.1c-13.6-10.4-24.6-23.3-34.8-36.9c-8.1-10.7-16.5-21.3-24.8-32c-19.4-25.2-33-53.3-40.4-84.3
	c-4-16.8-7.7-33.7-6.4-51.1c0.3-3.4,0.5-6.7,0.8-10.1c0.1-0.6,0.2-1.2,0.3-1.8c2-7.4,4-14.9,5.9-22.3c0.1-0.5,0.3-1.1,0.4-1.6
	c0.2-0.4,0.4-0.7,0.6-1.1c0.2-0.6,0.4-1.2,0.5-1.8c2.4-5.3,4.7-10.6,7.1-15.8v-0.1c0.2-0.3,0.3-0.6,0.5-0.8c0.2-0.3,0.3-0.6,0.5-1
	c0.2-0.3,0.4-0.6,0.6-0.9c0.1-0.3,0.2-0.6,0.3-0.8c0.5-0.2,0.8-0.4,0.6-1c0.7-1.3,1.4-2.5,2.1-3.8c1.2-0.9,1.8-2.1,2.1-3.6
	c0.2-0.4,0.5-0.7,0.7-1.1c0.2-0.3,0.4-0.6,0.6-0.9c0.2-0.2,0.4-0.5,0.4-0.8c1.1-0.6,1.6-1.7,1.9-2.8l0,0c1-0.6,1.7-1.5,1.9-2.8l0,0
	c1.1-0.6,1.7-1.6,2-2.8c0.2-0.3,0.5-0.6,0.7-0.9c1.3-1,2.3-2.2,2.8-3.8c0.6-0.7,1.1-1.3,1.7-2c1.1-0.6,1.7-1.5,2.1-2.6
	c0.9-1,1.7-2,2.6-3c1-0.6,1.9-1.4,2.3-2.5c7.1-6.8,13.3-14.6,21.8-19.9c0.3-0.2,0.6-0.5,0.9-0.7c0.4-0.3,0.7-0.5,1.1-0.8
	c1.2-0.3,2-1,2.7-2c0.6-0.4,1.2-0.8,1.9-1.2c0.5,0,0.8-0.1,0.7-0.7c0.4-1,1.4-0.7,2.1-1.2c0.3-0.2,0.6-0.4,0.9-0.7
	c0.6-0.4,1.3-0.7,1.9-1.1c0.3-0.2,0.7-0.5,1-0.7c7-4.6,14.6-7.8,22.1-11.3c0.3-0.2,0.7-0.4,1-0.7l0,0c1.8-0.5,3.5-1.2,4.8-2.7
	c4.2-2.8,8.5-5.6,12.7-8.5c0.3,0.4,0.6,0.5,0.7-0.1l0.1-0.1c0.4-0.2,0.7-0.5,1.1-0.7c0.3-0.2,0.6-0.4,0.9-0.5
	c0.2-0.2,0.4-0.3,0.7-0.5c1-0.7,2-1.4,3-2c0.3-0.2,0.6-0.5,0.9-0.7c0.4-0.3,0.7-0.5,1.1-0.8c1.1-0.3,2.1-0.9,2.8-2
	c5.5-5.1,12.1-8.4,18.4-12.3c0.3-0.2,0.7-0.5,1-0.7c0.3-0.1,0.6-0.3,0.8-0.4c0.3-0.2,0.5-0.4,0.8-0.6c9-6.4,19.2-10.1,29.7-13.1
	c0.6,0.1,1,0,1.3-0.5c0.5-0.1,1-0.2,1.5-0.3c2,0,3.9-0.6,5.6-1.5c0.6-0.1,1.2-0.2,1.8-0.3c2.8-0.3,5.7-0.5,8.4-1.6
	c0.6-0.1,1.2-0.1,1.8-0.2c6.8-0.5,13.6-1.1,20.5-1.6c3,0,6,0,9,0c0.5,0.7,0.9,0.7,1.4,0C195.8,187.1,196,187.1,196.3,187z
	 M-24.4,339.4c-0.2,0.3-0.3,0.7-0.5,1c-3.9,10.9-6.3,22-6.7,33.6c-0.4,10.9,0.7,21.7,2.8,32.4c5.5,27.4,14,53.7,29.2,77.4
	c16,24.9,35,47.6,53.6,70.5c11.6,14.3,26,25.2,42.7,33c18.7,8.7,38.6,12.5,58.9,14c33.9,2.5,67.7,0.6,101-6.9
	c33.1-7.5,63.5-21.4,92.6-38.7c26.5-15.8,42.2-38.8,49.4-68.2c4.5-18.3,5.7-37.1,6.4-55.8c0.5-13.2,0.7-26.5,1.6-39.7
	c1-13.7,1.4-27.4-0.6-41c-5-32.9-18.1-61.7-43.4-84.2c-10.1-9-21-16.6-33-22.8c-10.4-5.4-21.9-7.9-32.6-12.5
	c-15.7-6.7-29.8-16.4-44.9-24.3c-17-9-34.6-15.9-54.2-15.9c-6.7-1.4-13.5-0.3-20.2-0.1c-25.4,1-48.3,9.2-69.2,23.3
	c-13,8.8-25.4,18.3-39.1,26.1c-9.6,5.5-19.9,9.5-29.2,15.5c-23.7,15.6-42,36.1-55.4,61c-3.8,7-7.4,14.2-9.2,22.1
	C-24.3,339.3-24.4,339.4-24.4,339.4z"/>
<path class="st1" d="M-28.1,337.7c-2,7.4-4,14.9-5.9,22.3c-0.9-0.5-1.2-1.4-1.1-2.3c0.8-6.5,2.9-12.7,4.7-19
	C-30.1,337.7-29,337.7-28.1,337.7z"/>
<path class="st1" d="M185.3,187c-6.8,0.5-13.6,1.1-20.5,1.6c1.4-3.4,4.6-1.6,6.9-2.1C176.1,185.4,180.8,185.8,185.3,187z"/>
<path class="st1" d="M-19.5,317.3c-2.4,5.3-4.7,10.6-7.1,15.8c-2.9-2.2,0.2-4,0.9-5.4C-24.1,324.1-24.1,319.2-19.5,317.3z"/>
<path class="st1" d="M163,188.8c-2.7,1.1-5.6,1.3-8.4,1.6C157.1,188,159.7,186.9,163,188.8z"/>
<path class="st1" d="M152.8,190.7c-1.8,0.9-3.6,1.4-5.6,1.5C148.6,189.9,150.4,189,152.8,190.7z"/>
<path class="st1" d="M69.7,236c-1.3,1.5-3,2.2-4.8,2.7C65.4,236,67.5,235.9,69.7,236z"/>
<path class="st1" d="M-1.7,289.6c-0.6,1.5-1.5,2.8-2.8,3.8C-4.7,291.3-4.2,289.7-1.7,289.6z"/>
<path class="st1" d="M-12.8,305.4c-0.3,1.4-0.9,2.6-2.1,3.6C-14.7,307.4-15.3,305.5-12.8,305.4z"/>
<path class="st1" d="M-5.3,294.3c-0.3,1.2-0.9,2.1-2,2.8C-7.5,295.6-7.3,294.3-5.3,294.3z"/>
<path class="st1" d="M33.3,256.2c-0.7,1-1.5,1.7-2.7,2C30.6,256.3,31.9,256.2,33.3,256.2z"/>
<path class="st1" d="M6.9,279.6c-0.4,1.2-1.2,1.9-2.3,2.5C4.6,280.6,4.9,279.3,6.9,279.6z"/>
<path class="st1" d="M-9.1,299.8c-0.3,1.2-0.8,2.2-1.9,2.8C-11.1,301.2-11.1,299.9-9.1,299.8z"/>
<path class="st1" d="M-7.3,297.1c-0.2,1.2-0.9,2.1-1.9,2.8C-9.3,298.4-9.3,297.1-7.3,297.1z"/>
<path class="st1" d="M2.1,285c-0.4,1.1-1,2-2.1,2.6C-0.1,286.2,0.2,285,2.1,285z"/>
<path class="st1" d="M93.6,220.2c-0.6,1.1-1.6,1.6-2.8,2C90.8,220.2,92.2,220.1,93.6,220.2z"/>
<path class="st1" d="M83.2,227.5c-0.2,0.6-0.4,0.5-0.7,0.1C82.7,227.4,82.9,227.4,83.2,227.5z"/>
<path class="st1" d="M-19,316.4c-0.2,0.3-0.3,0.6-0.5,0.8C-19.3,317-19.1,316.7-19,316.4z"/>
<path class="st1" d="M84.3,226.7c-0.4,0.2-0.7,0.5-1.1,0.7C83.6,227.1,84,226.9,84.3,226.7z"/>
<path class="st1" d="M85.9,225.6c-0.2,0.2-0.4,0.3-0.7,0.5C85.4,226,85.7,225.8,85.9,225.6z"/>
<path class="st1" d="M-16.9,312.7c0.2,0.6-0.1,0.9-0.6,1C-17.3,313.4-17.1,313.1-16.9,312.7z"/>
<path class="st1" d="M-27.1,334.9c-0.2,0.4-0.4,0.7-0.6,1.1C-27.5,335.7-27.3,335.3-27.1,334.9z"/>
<path class="st1" d="M-11.4,303.5c-0.2,0.3-0.4,0.6-0.6,0.9C-11.8,304-11.6,303.8-11.4,303.5z"/>
<path class="st1" d="M-17.9,314.6c-0.2,0.3-0.4,0.6-0.6,0.9C-18.3,315.2-18.1,314.9-17.9,314.6z"/>
<path class="st1" d="M64.9,238.7c-0.3,0.2-0.7,0.4-1,0.7C64.2,239.2,64.6,239,64.9,238.7z"/>
<path class="st1" d="M89.8,222.9c-0.3,0.2-0.6,0.5-0.9,0.7C89.2,223.4,89.5,223.1,89.8,222.9z"/>
<path class="st1" d="M113.1,207.2c-0.3,0.2-0.7,0.5-1,0.7C112.4,207.7,112.7,207.5,113.1,207.2z"/>
<path class="st1" d="M114.7,206.2c-0.3,0.2-0.5,0.4-0.8,0.6C114.2,206.6,114.4,206.4,114.7,206.2z"/>
<path class="st1" d="M145.7,192.5c-0.3,0.5-0.7,0.7-1.3,0.5C144.9,192.9,145.3,192.7,145.7,192.5z"/>
<path class="st1" d="M41.8,250.7c-0.3,0.2-0.7,0.5-1,0.7C41.1,251.2,41.4,251,41.8,250.7z"/>
<path class="st1" d="M29.6,259c-0.3,0.2-0.6,0.5-0.9,0.7C29,259.5,29.3,259.2,29.6,259z"/>
<path class="st1" d="M35.9,254.4c0.1,0.5-0.2,0.7-0.7,0.7C35.4,254.8,35.6,254.6,35.9,254.4z"/>
<path class="st1" d="M38.9,252.5c-0.3,0.2-0.6,0.4-0.9,0.7C38.3,253,38.6,252.8,38.9,252.5z"/>
<path class="st1" d="M195.6,186.9c-0.5,0.7-0.9,0.7-1.4,0C194.7,186.9,195.2,186.9,195.6,186.9z"/>
<path class="st3" d="M198.1,191.3c19.6,0,37.2,6.9,54.2,15.9c15,7.9,29.2,17.6,44.9,24.3c10.7,4.6,22.2,7.1,32.6,12.5
	c12,6.2,23,13.8,33,22.8c25.2,22.5,38.4,51.3,43.4,84.2c2.1,13.6,1.6,27.3,0.6,41c-0.9,13.2-1.2,26.5-1.6,39.7
	c-0.7,18.8-1.9,37.5-6.4,55.8c-7.2,29.4-22.9,52.4-49.4,68.2c-29.1,17.3-59.5,31.2-92.6,38.7c-33.3,7.6-67,9.4-101,6.9
	c-20.3-1.5-40.2-5.3-58.9-14c-16.7-7.8-31.1-18.7-42.7-33c-18.6-22.9-37.6-45.6-53.6-70.5c-15.2-23.7-23.7-50-29.2-77.4
	c-2.1-10.7-3.2-21.5-2.8-32.4c0.4-11.6,2.8-22.8,6.7-33.6c0.2-0.3,0.3-0.7,0.5-1l0.1-0.2c2.3,0.5,2.4-1.4,3-2.7
	c1.2-2.8,2.2-5.7,3.6-8.5c9.8-20.8,23.4-38.7,40.4-54.2c11.2-10.3,23.6-18.6,37-25.5c14-7.3,28.1-14.8,41.1-24.1
	c25.2-18.2,52.5-30.4,84.2-31.2C189.3,192.9,194.1,193.7,198.1,191.3z M79,564.5c-1.1,0.7-1,1.2,0,2c11.1,9.2,23.5,16.1,37.2,20.4
	c26.8,8.5,54.4,11.7,82.5,9.9c4.3-0.3,8.8,0.6,12.7-0.3c6.8-1.6,13.6-2.2,20.4-3c20.6-2.6,40.6-7.9,60.1-14.8
	c20.4-7.2,39.9-16.6,58-28.9c22.3-15.1,34.7-36.6,42.9-61.2c3-8.9,4.2-18.2,5.3-27.5c1-8.5,1.6-17.1,1.8-25.7
	c0.1-5.9,0-11.8,0.8-17.7c0.8-6.4,1.1-13,0.7-19.2c-0.3-5.5,1.2-10.7,1-16.1c-0.1-3.9-0.7-8.1,0-12.2c0.2-1.2-1.3-0.9-2.2-1
	c-1.4-18-4.5-35.6-11.5-52.3c-14.4-34-38.1-59.1-73.5-70.5c-21.8-7-42.2-15.9-60.7-29.2c-21.1-15.1-44.3-21.8-70.4-19.5
	c-23.3,2-44.9,8.2-64.7,20.9c-15,9.6-29.5,20-45.9,27.4c-23.9,10.8-44.7,26-61.7,46c-27,31.7-42.6,66.9-34.3,109.9
	c5.2,27.1,13.6,52.8,29.2,75.8c11.4,16.8,25,32,36.7,48.6c5.9,8.4,11.7,16.7,19.1,24C67.8,555.3,73.5,559.7,79,564.5z"/>
<path class="st4" d="M198.1,191.3c-4,2.4-8.8,1.6-12.9,1.7c-31.7,0.8-59,13-84.2,31.1c-13,9.3-27.1,16.9-41.3,24.2
	c-13.4,6.9-25.8,15.3-37,25.5c-17,15.5-30.5,33.5-40.4,54.2c-1.3,2.8-2.3,5.7-3.6,8.5c-0.6,1.3-0.7,3.2-3,2.7
	c1.8-7.9,5.4-15.1,9.2-22.1c13.5-24.8,31.7-45.4,55.4-61c9.3-6.1,19.6-10.1,29.2-15.5c13.6-7.8,26.1-17.3,39.1-26.1
	c21-14.1,43.9-22.3,69.2-23.3C184.6,191,191.4,189.9,198.1,191.3z"/>
<path class="st4" d="M-24.4,339.4c-0.2,0.3-0.3,0.7-0.5,1C-24.7,340.1-24.5,339.8-24.4,339.4z"/>
<path class="st5" d="M79,564.5c-5.4-4.8-11.1-9.2-16.3-14.3c-7.4-7.2-13.2-15.6-19.1-24c-11.7-16.6-25.3-31.8-36.7-48.6
	c-15.6-23.1-24-48.7-29.2-75.8c-8.3-42.9,7.3-78.2,34.3-109.9c17-20,37.8-35.2,61.7-46c16.4-7.4,30.9-17.8,45.9-27.4
	c19.7-12.7,41.4-18.9,64.7-20.9c26.1-2.2,49.3,4.4,70.4,19.5c18.5,13.3,38.9,22.1,60.7,29.2c35.4,11.4,59.1,36.5,73.5,70.5
	c7.1,16.7,10.2,34.3,11.5,52.3c-0.1,6,0.3,12.1-0.4,18c-1.5,12.5-2.6,25-3.3,37.5c-1,17.8-2,35.5-5.6,53.1
	c-6.3,30.8-22.1,55.3-47.9,73.1c-30,20.7-64.1,30.9-99.4,37.8c-15.3,3-30.7,4.5-46.2,5.2s-31.1,0.4-46.5-1.9
	c-9.5-1.4-19.2-3.3-28.4-6.5c-8.1-2.9-16.3-5.5-24.1-9.5C91.7,572.6,85.2,568.8,79,564.5z M250,585.1c5.7-0.6,11.2-2.1,16.7-3.6
	c35-9.9,69.1-21.4,94.7-49.5c6-6.5,11.3-13.3,15.5-21c11.7-21,15-44.1,16.6-67.6c1.1-16.8,1-33.8,3.5-50.5
	c1.3-8.7,0.1-17.2,0.7-25.7c0.6-9.6-1.5-19.3-4-28.8c-12.7-47.5-41.1-80.1-89.5-93.4c-12.4-3.4-24-8.7-34.9-15.6
	c-11.1-6.9-21.7-14.4-33.3-20.4c-9.4-4.8-19.1-8.3-29.5-9c-30-1.9-58.7,3-84.4,19.7c-19,12.3-38.3,23.9-58.7,34
	c-21.1,10.4-38.8,25.5-53.4,44.1c-22.6,27.9-36.4,58.6-31.4,95.7c4.7,35.4,16.9,67.6,39.1,95.9C28,502.5,38.8,515.2,48,529.1
	c17.7,26.5,42.3,43.4,72.3,53.1c29.2,9.4,59.3,11.1,89.6,8.9C223.4,590.1,236.9,588.6,250,585.1z"/>
<path class="st4" d="M79,564.5c6.2,4.3,12.7,8.1,19.5,11.6c7.7,4,15.9,6.6,24.1,9.5c9.2,3.2,18.8,5.1,28.4,6.5
	c15.4,2.3,31,2.6,46.5,1.9s31-2.3,46.2-5.2c35.3-6.9,69.4-17.1,99.4-37.8c25.8-17.8,41.6-42.3,47.9-73.1c3.6-17.6,4.5-35.3,5.6-53.1
	c0.7-12.5,1.8-25,3.3-37.5c0.7-5.9,0.3-12,0.4-18c0.9,0,2.4-0.2,2.2,1c-0.7,4.1-0.1,8.3,0,12.2c0.2,5.4-1.4,10.6-1,16.1
	c0.4,6.2,0.1,12.9-0.7,19.2c-0.8,5.9-0.7,11.8-0.8,17.7c-0.2,8.6-0.8,17.2-1.8,25.7c-1.1,9.3-2.3,18.6-5.3,27.5
	c-8.2,24.6-20.6,46.1-42.9,61.2c-18.1,12.3-37.6,21.6-58,28.9c-19.5,6.9-39.5,12.2-60.1,14.8c-6.8,0.9-13.6,1.4-20.4,3
	c-3.9,0.9-8.4,0-12.7,0.3c-28.1,1.8-55.7-1.3-82.5-9.9c-13.7-4.3-26.1-11.2-37.2-20.4C77.9,565.7,77.9,565.2,79,564.5z"/>
<path class="st6" d="M10.1,297.9c14.6-18.6,32.3-33.7,53.4-44.1c20.3-10.1,39.7-21.7,58.7-34c25.7-16.7,54.4-21.6,84.4-19.7
	c10.3,0.7,20.1,4.2,29.5,9c11.7,5.9,22.2,13.5,33.2,20.4c10.9,6.9,22.4,12.1,34.9,15.6c48.4,13.3,76.8,45.9,89.5,93.4
	c2.5,9.5,4.6,19.2,4,28.8c-0.5,8.5,0.6,17-0.7,25.7c-2.5,16.6-2.3,33.6-3.5,50.5c-1.6,23.5-4.9,46.6-16.6,67.6
	c-4.3,7.6-9.6,14.4-15.5,21c-25.6,28.1-59.7,39.6-94.7,49.5c-5.5,1.5-11,3.1-16.7,3.6c-0.5-2.9-2.7-4.7-4.3-6.9c-2-2.7-4.9-5.1-5-9
	c0.6-0.1,1.3-0.2,1.9-0.4c0,1.2,0.4,2.1,1.8,2.1c1.8,0,1.8-1.3,1.8-2.6c1.6-0.9,3.2-1.7,4.8-2.6c6.8-4.1,11-9.9,10.8-18
	c-0.2-8.1-4.4-13.9-11.4-17.7c-11.8-6.4-25.1-2.5-33.5,9.6c-4.1-0.7-5-4.5-7-7.2c-2.8-3.6-6.4-6.6-8.7-10.4
	c-2.2-3.6-4.8-5.3-8.7-5.7c0.2-0.6,0.2-1.3,0.5-1.8c4.6-8.3,12.5-14.5,15.7-23.7c0-0.1,0.2-0.2,0.3-0.3c0.9-0.9,1.8-1.9,3.2-1.1
	c1.5,0.9,2,2.5,1.5,4c-0.4,1.1-1.3,2.1-2,3c-2.8,3.6-5.9,7.1-8.5,10.9c-1.2,1.7-2.5,4.1-0.2,5.8c2.2,1.7,4.3,0.3,6.1-1.5
	c2.9-3,5-6.6,7.2-10.1c2.8-4.5,5.9-9,11-12.9c-0.7,4-3.2,5.5-4.2,7.9c-0.8,1.9-1.2,3.6,0.5,5c1.8,1.6,3.4,0.7,4.8-0.8
	c0.7-0.8,1.7-1.5,2.1-2.4c2.6-5.6,6.8-9.3,12.4-11.9c2.8-1.3,6.1-2.9,5.4-6.6c-0.7-3.8-4.4-2.9-7.2-3.3c-0.2,0-0.4-0.2-0.7-0.5
	c2.2-0.9,4.4-1.6,6.4-2.6c3-1.4,5.7-3.5,4.2-7.1c-1.4-3.3-4.6-2.9-7.6-2.2c-4.6,1.1-8,4.5-12.3,6.2c-0.3-0.3-0.6-0.5-0.9-0.8
	c0.4-0.5,0.7-1,1.1-1.5c1.3-1.8,2.4-3.9,0.9-5.9c-1.7-2.2-4.1-1.6-6.3-0.6c-1,0.4-1.9,1-2.9,1.5c-7.6,4.2-12.5,11.2-18,17.6
	c-1,1.2-1.7,2.9-4.1,2.7c0.3-2.2,1.9-3.3,2.8-4.8c0.9-1.4,2-3,0.6-4.6c-1.7-1.9-3.3-0.6-4.9,0.3c-1.9,1.1-3.2,2.7-4.2,4.6
	c-1.6,3.2-3.3,6.3-6.7,8.2c-1.6,0.9-2.7,2.5-3.2,4.3c-3.7-1.7-5.7-5.7-9.8-6.8c-0.3-0.1-0.7-0.7-0.8-1.1c-0.9-3.7-3.7-6.1-6.1-8.8
	c-1.7-1.9-7.4-4.4-0.9-7.7c0.3-0.2,0.1-1.4,0.2-2.2c2.4-1.2,5.2-2.1,7.3-3.6c10.4-7,19.8-15.1,26-26.3c0.7-1.2,1.1-2.4,2.9-2.5
	c3.6-0.1,5.7-2.5,7.6-5.3c5-7.2,5.3-15.6,6.4-23.8c0.3-2.3,0.3-6.3,3.5-6.1c3,0.2,2.8,4,2.8,6.5c-0.1,4-0.8,8-0.8,11.9
	c0,2.7,1.2,5.3,4.2,5.9c2.8,0.5,4.6-1.2,5.8-3.6c1.6-3.2,2.7-6.5,2.9-10.1c0.5-6.8,0.5-13.5-1.8-20c-0.5-1.4-0.3-2.9,1.2-3.6
	c1.4-0.7,2.2,0.7,3,1.6c1.9,2.3,2.3,5,2.3,7.8c0,3.2-0.4,6.5,0.7,9.6c1.1,3.1,3,5,6.4,4.8c3.3-0.2,4.1-2.9,4.7-5.5
	c0.3-1.2,0.3-2.4,0.3-3.7c0.1-4.6-0.4-9.2-1.7-13.7c-0.4-1.2-1.1-2.9,0.5-3.7c2.1-1,2.3,1.5,3.3,2.3c0.9,0.7,1,2.5,1.4,3.8
	c2.2,6.7,2.7,13.5,2.7,20.5c0,3.6,2.2,6,5.9,5.7c3.3-0.3,5.4-2.4,5.2-6.2c-0.4-9.7-1.6-19.2-5.5-28.3c-1.9-4.5-3.9-8.9-4.4-13.9
	c0.8-0.6,0.8-1.2,0-1.8c0-0.6,0-1.2,0-1.9c1.2-1.9,1.2-3.7,0-5.5c-0.1-0.6-0.1-1.1-0.2-1.7c0.1-1.1,0.3-2.1-0.7-3
	c-1.1-3.2-1.9-6.7-5.8-7.8c-1.1-0.8-2-0.7-2.7,0.4c-0.7,0.9-1.3,1.8-2,2.8c-2.2,1.6,1.1,5.4-2.5,6.5c-3.5-8.3-6.4-17-11.7-24.5
	c-2.9-4.1-6.8-5-9.9-2.7c-3.3,2.5-3.4,5.9,0,10.1c3,3.7,5.9,7.5,7.8,11.9c2.5,5.7,4.2,11.6,3.6,18c-3.9-4.7-5.5-10.3-6.7-16.1
	c-1-4.8-4.8-7.6-8.9-6.9c-4,0.8-7,5.3-6.4,9.9c0.5,3.5,2.3,6.3,4.2,9.1c2,3,3.7,6.1,3.7,9.8c0,2,0.3,4.2-2.4,4.9
	c-2.5,0.6-3.5-1.2-4.3-3.2c-1.1-2.7-2.1-5.4-3.3-8.1c-4.3-9.7-10-18.4-18.6-24.9c-3.1-2.4-6.4-3.1-9.9-1.5c-1.8,0.8-2.9,0.2-4.2-0.7
	c-13.4-9.2-28.1-13.7-44.4-12.9c-4.5,0.2-5.3-1.3-3.1-5.3c-2.5-0.1-4.7-0.4-6.8-2.5c-1.8-1.8-3.5,3-6.2,1.7c-0.5,0.1-1,0.3-1.6,0.4
	c-1.5,0.2-1.3-2.1-2.8-1.8c-1.9,0.3-0.6,1.7-0.9,2.6c-1.5,0.4-2.9,0.9-4.4,1.2c-0.9,0.1-2.5,0.6-2.1-1.2c0.2-1.1,0.8-3,2.8-1.4
	c3,0.7,1.6-1.6,1.9-2.8c2.3-1.6,4.6-3.2,7.1,0.5c0.6-3.7,2.3-5.5,5.6-5.4c0.7,0,1.5-0.5,1.1-0.9c-2.6-3.3,2.2-5.1,1.6-8.6
	c-3.2,1.6-5.8,1.6-7.4-2.1c-0.4-0.9-1.3-0.2-1.7,0.5c-0.8,0.1-1.5,0.4-1.5,1.4c-1,0.2-1.9,0.5-2.9,0.7c0-0.7,0-1.3,0-2
	c0.3-4.1,3.9-3.5,8.1-4.5c-4.6-1.5-5.7-3.8-4.8-7.1c0.2-0.6-0.9-0.5-1.5-0.6c-1,0.1-1.7,0.4-2,1.4c-1.1-0.7-3,0.9-3.6-1.3
	c1.5-1.2,3.7-2,2.9-4.6c0.5-0.1,1.1-0.2,1.6-0.3c1.1,0.2,2.2,0.3,3-0.7c1.2-0.2,1.5,3.4,3.2,0.7c0-0.4,0.1-0.8,0.1-1.1v-0.2
	c0.4-0.1,0.8-0.3,1.3-0.4c2.4-1,4.8-2.4,7.4-0.6c0.5-4.3,1.6-7.8,4.2-11.4c-3.8,0.7-6.8,0.3-9-2.5c-0.5-0.7-1.3-0.6-1.7,0.4
	c-1.7,4.1-4.3,4.5-8.3,1.2c1.6,4.8-1.6,5.5-4.4,6.4c-0.8,0-1.6,0-2.4,0c-2.6-1.1-3.1-0.8-2.4,0.3c1.7,2.7-0.5,2.6-1.8,3.3
	c-2.6,1.3-5.2,2.1-7.2-1.8c-0.2,4.4-0.5,4.7-4.2,5.3c-1.4,0.2-3,1.1-3.9-1.2c-0.3-0.8-1.4-0.9-1.7,0c-2.2,5.5-5.4,3.4-8.8,1.1
	c0,4.5-3.2,6.2-9.1,4.8c1.9,2.5,0.2,3.5-1.3,5.2c-1.9,2.3-3.8,0.8-6.1,0.6c2.4,4.6-0.1,6.5-3.3,8c-0.9,0.4-2.2,0-1.5,1.9
	c1.3,3.4,0,6.7-0.4,10.2c3.1,0.7,6.8,0,9.5,4.5c-0.1-4.6,1.7-6.7,4.4-8.2c0.5-0.3,1.3-0.2,1.2-1c-1-5.9,5-6.9,7.7-9.9
	c1.3-1.4,4.2-3.8,7.8-3.5c-1.4,2.1-2.9,2.8-4.3,3.7c-1.4,0.9-2.7,2-4.1,3c-2.2,1.7-2.6,4.2-2.8,6.6c-0.2,2.5,2.7,1.5,3.6,2.5
	c1.5,1.9,1.9,1.2,3.8,0.2c1.8-1,4.1-3.4,7-1.6c0.7,0.5,1.3-0.2,1.2-1.2c-0.2-2.8,2.4-3,4.1-4c0.9-0.6,1.8,0.4,2.1,1.3
	c0.9,2.3-0.7,2.9-2.5,3.3c-0.2,0-0.2,0.8-0.2,1.2c-0.4,2.8-2.2,4-4.9,3.7c-0.7-0.1-1.4-0.8-1.8,0.2c-1.1,3.1-3.1,4.5-6.5,3.5
	c-0.6-0.2-0.9,0.4-1,1.1c-0.7,3.5-3,4.9-7.3,4.1c2.7,3.3,1.4,6.6,1.8,9.6c5.6-0.8,11.1-1,14.9-5.9c0.9-1.2,2.8-1.6,4,0
	c1.2,1.6,0.7,3.4-0.7,4.6c-3.7,3.3-9.3,4.6-10.9,10.2c-0.4,1.5-1.6,1.6-2.9,0.8c-0.3-0.2-1.2,0-1.6,0.4c-0.6,0.5-0.1,1.1,0.4,1.5
	c3.2,2.6,1.6,3.9-1.3,5c-0.9,0.3-1.5,1.1-1.1,2.2c0.2,0.6,0.7,0.7,1.5,0.6c4.9-0.6,3.4,1.9,1.9,4.1c-2.6,3.8-5.4,7.6-7.2,11.9
	c-1.9,0-2.9-1.5-4-2.7c-5.1-5.6-10.2-11.3-15.3-17c-1.4-1.6-2.7-3-5-1.4c-2-6.6-6.5-10.7-12.7-13.2c0.4-5-3.3-7.9-5.6-11.5
	c-1.8-2.8-2.7-2.9-4.7,0.7c0.4-4.4-0.5-7-2.4-9.7c-1.6-2.3-3.6-4.3-5.5-6C13.9,304.6,13.4,300.3,10.1,297.9z M241.2,242.7
	c-10.8-9.2-23.7-14-37.3-17.1c-4.6-1-9.1-1.3-13.7,0c-6,1.8-9.5,6.4-9.8,13c-0.2,5.7,1.8,8.5,8.4,11.1c2.9,1.1,5.8,2.1,8.8,2.8
	c9.6,2.4,18.6,6.2,26.9,11.8c3.2,2.1,6.5,4,10.2,5.3c4.7,1.6,9,1.3,12.7-2.6c3.8-4.1,4.7-8.6,2.4-13.6c-1.1-2.4-2.3-4.7-4.4-6.3
	c-0.9-1.1-1.3-3.1-3.4-1.5l-0.1-0.1c0.7-0.6,0.7-1.2-0.1-1.8C241.6,243.4,241.4,243.1,241.2,242.7z M365.8,464.6
	c0.1-13.2-4.9-19.3-14-19.7c-6.8-0.2-10.4,4.1-12.9,9.4c-3.2,6.8-5.8,13.8-8.8,20.7c-3.9,8.8-10.7,15.7-15.8,23.7
	c-2.9,4.5-6,9.2-3.3,14.9c3.8,7.9,13.3,11.1,21.2,7.2c3.5-1.7,6.5-4.1,9.1-7c9.6-10.3,16.6-22.1,21.4-35.2
	C364.6,473.5,365.7,468,365.8,464.6z M287.9,303.8c0,10.5,5.3,20.5,13.7,25.7c10.9,6.8,23.1,3.1,28.3-8.7c5.9-13.4-1-31.6-14.3-37.6
	c-3.5-1.6-7.3-2.5-11.2-1.7C294.5,283.4,287.9,292.2,287.9,303.8z M289.5,419.2c-1.8,0.2-2.7,1.2-2.5,3.1c0.1,1.3,0.7,2.4,2.3,2.2
	c1.8-0.2,3.4-1.1,3.2-3.1C292.4,419.8,291.1,419.1,289.5,419.2z M357.9,328.5c1.2-0.4,2.4-1.1,2.3-2.8c-0.1-1.6-1.3-2.5-2.8-2.4
	c-1.4,0.1-2.3,1.1-2.3,2.5C355,327.3,356,328.3,357.9,328.5z M336.9,352.3c-9.4-1.5-15.9-1-19.3,1.1
	C324.2,354,330.4,351.8,336.9,352.3z M185.4,290.2c0.1-2-1-2.9-2.5-2.9c-1.3,0-2.3,0.7-2.5,2.2c-0.1,1.6,0.6,2.7,2.2,2.8
	C184.3,292.5,185.2,291.6,185.4,290.2z M252.1,290.3c-1.7,0-2.8,0.8-2.8,2.4c-0.1,1.5,0.8,2.5,2.5,2.6c1.6,0.1,2.6-0.8,2.7-2.4
	C254.5,291.4,253.6,290.5,252.1,290.3z M363.1,417.5c-0.3-1.1-1-2.2-2.7-2s-2.3,1.3-2.2,2.8c0.1,1.5,1.1,2.2,2.4,2.2
	C362.1,420.5,363.1,419.6,363.1,417.5z M63.2,274.2c-0.1-2-1.2-2.7-2.7-2.6c-1.3,0.1-2.3,1-2.3,2.4c0,1.7,0.9,2.6,2.5,2.6
	C62.5,276.7,63.1,275.6,63.2,274.2z M137.7,230.3c-1.4,0.2-2.4,1.2-2.3,2.7c0.1,1.6,1.2,2.4,2.7,2.3c1.6-0.1,2.6-1.2,2.4-2.7
	C140.4,231.2,139.4,230.3,137.7,230.3z M299,551c1.5,0,2.6-0.8,2.7-2.3s-0.8-2.6-2.4-2.7s-2.6,0.9-2.8,2.3
	C296.4,549.9,297.3,550.8,299,551z M285.1,488.7c1.6-0.3,2.3-1.3,2.1-2.9c-0.2-1.5-1.2-2.1-2.6-2s-2.3,1-2.2,2.4
	C282.4,487.9,283.4,488.7,285.1,488.7z M318.4,371.6c0,1.4,0.8,2.4,2.5,2.4c1.4,0,2.3-0.8,2.4-2.2c0.1-1.7-0.8-2.6-2.4-2.7
	C319.5,369.1,318.6,369.9,318.4,371.6z"/>
<path class="st7" d="M167.6,464.8c-0.1,0.8,0.2,2-0.2,2.2c-6.5,3.3-0.8,5.8,0.9,7.7c2.4,2.8,5.2,5.1,6.1,8.8c0.1,0.4,0.5,1,0.8,1.1
	c4.1,1.1,6.1,5.1,9.8,6.8c-0.3,1.2-0.7,2.4-0.8,3.6c-0.2,1.9,0,3.8,1.9,4.8c2.1,1.1,3.9,0.1,5.4-1.4c1.2-1.2,2-2.7,3-4.1
	c1.1-1.4,2-3,4.5-3c-0.1,2.8-1.7,4.8-3.1,6.7c-2.9,4-6.1,7.7-9.1,11.6c-2.4,3.2-4.1,6.8-4.7,10.9c-0.4,2.7,0.5,5.2,3.2,5.9
	c2.5,0.6,3.7-1.6,4.6-3.7c0.9-2.1,1.7-4.2,2.5-6.4c3.9,0.4,6.6,2.1,8.7,5.7c2.3,3.8,6,6.8,8.7,10.4c2.1,2.7,2.9,6.5,7,7.2
	c-0.2,0.9-0.2,1.8-0.5,2.7c-2.6,10.2,1.7,19.4,11.3,24.1c4.1,2,8.5,2.5,13,2.8c0,3.9,2.9,6.2,5,9c1.6,2.2,3.7,4,4.3,6.9
	c-13.1,3.5-26.6,5-40.1,6c-30.3,2.2-60.4,0.6-89.6-8.9c-30-9.7-54.6-26.6-72.3-53.1c-9.3-13.8-20.1-26.6-30.3-39.7
	c-22.2-28.3-34.3-60.5-39.1-95.9c-5-37.1,8.8-67.8,31.4-95.7c3.3,2.4,3.8,6.8,6.9,9.5c1.9,1.7,3.9,3.7,5.5,6
	c1.9,2.7,2.9,5.3,2.4,9.7c2.1-3.7,3-3.5,4.7-0.7c2.3,3.7,6,6.5,5.6,11.5c-16.6-2.2-30.7,6.4-34.7,21.1c-3.1,11.7,4.4,22.5,16.1,23.6
	c17.2,1.6,34.2-14.4,31.3-31.5c2.2-1.6,3.6-0.1,5,1.4c5.1,5.7,10.1,11.4,15.3,17c1.1,1.2,2.1,2.7,4,2.7c0,0.1,0.1,0.2,0.1,0.3
	c0,0.2-0.1,0.4-0.2,0.6c-0.2,0.4-0.4,0.8-0.6,1.2c-0.2,0.7-0.3,1.5-0.6,2.2c-11.6,33.2-0.2,68.2,28.8,86.6
	C121.2,473,144,474.1,167.6,464.8z M100,484c0.3,0.3,0.6,1.2,1.2,0.3C100.8,484.3,100.4,484.1,100,484c-0.4-0.7-1.1-0.9-1.8-0.9
	c-0.1-0.1-0.3-0.1-0.4-0.2c0.1,0.1,0.2,0.1,0.4,0.2C98.6,483.8,99.3,484,100,484z M8.5,428.3c-0.6,0.5-1.1,0.9-1.7,1.4
	c-2.7,2.1-3.2,4.9-1.8,7.8c1.3,2.7,3.8,3.6,6.6,3c2.9-0.7,4.5-2.7,4.6-5.6c0.1-3.4-1.9-5.4-5.1-6.2c-0.9-0.2-1.8-0.2-2.7-0.2
	c1.4-2,2.8-4,4.3-6.2c0.6,6.5,2.2,7.6,9.5,7.2c-1,0.9-2.1,1.7-2.8,2.8c-1.8,2.8-1.7,5.6,0.8,7.9c2.3,2.1,5.1,2.2,7.6,0.4
	c3.3-2.5,3-5.7,1-9c7.3-0.6,10-2.7,9.3-7.4c-0.5-3.3-3.9-5.5-7.2-4.8c-4.2,0.9-5.3,4.4-3.4,11.2c-1.9-0.9-3.7-0.9-5.4-1
	c0-0.3-0.1-0.7,0.1-0.8c3-2.8,3.9-6,0.8-9.2c-3-3.1-6.3-2.6-9.1,0.7c-1.2,1.4-1.9,1-2.7-0.4c-0.6-1.2-1.3-2.2-2-3.3
	c0.9,0.2,1.7,0.4,2.6,0.6c3.1,0.7,5.4-0.6,6.8-3.3c1.5-2.9,0.6-5.4-1.8-7.3c-2.3-1.8-4.9-1.8-7.2,0c-2.5,1.9-3,4.5-1.7,7.4
	c0.4,0.9,0.9,1.8,1.4,2.7c-1.1-0.1-2.1-0.3-3.2-0.3c-3.6-0.1-5.9,1.7-6.3,5.3c-0.4,3.5,2,6.2,5.6,6.6C6.5,428.4,7.5,427.4,8.5,428.3
	z M124.5,567.1c8.3,0.1,13.7-4.2,16-11.6c1.6-5.5-0.3-9.5-6.7-13.7c-2.2-1.4-4.4-2.8-6.8-3.9c-10.5-5.2-19.8-11.7-27.9-20.2
	c-3.1-3.2-6.5-6.2-10.5-8.2c-4.7-2.4-8.9-1.6-12.9,1.5s-5.8,7.2-4.9,12.2c0.9,5.1,3.2,9.6,6.4,13.7c10.8,13.7,24.6,23.1,40.9,28.9
	C120.4,566.6,123.1,566.8,124.5,567.1z M32.4,412.7c0-3.3-2.9-6.4-6.2-6.1c-3.5,0.3-5.8,2.3-5.7,6c0,3.5,1.8,5.8,5.6,5.9
	C29.5,418.7,32.3,416.1,32.4,412.7z M125.2,496.4c-1.6,0.2-2.6,1.2-2.6,2.7c0.1,1.5,1,2.6,2.6,2.5s2.5-1.1,2.5-2.6
	C127.8,497.3,126.6,496.6,125.2,496.4z M54.1,377.1c1.4-0.2,2.5-1,2.4-2.7c-0.1-1.7-1.1-2.5-2.7-2.4c-1.5,0.1-2.3,1.1-2.3,2.4
	C51.4,376.1,52.3,377,54.1,377.1z M172.9,563c0.2,1.6,1.2,2.5,2.7,2.3s2.4-1.2,2.3-2.8c-0.2-1.6-1.2-2.5-2.7-2.4
	C173.6,560.3,172.9,561.4,172.9,563z M48,481.3c-1.5,0.2-2.5,1-2.6,2.6s1,2.6,2.5,2.7c1.6,0.1,2.6-1,2.7-2.5
	C50.6,482.5,49.6,481.7,48,481.3z M106.4,486.3c5.8,2.3,11.7,1.2,17.6,1.1C118.2,485.7,112.2,487.4,106.4,486.3z M104.1,485.5
	c0-0.1,0-0.3-0.1-0.3c-0.1-0.1-0.3-0.1-0.4-0.1c0,0.2,0.1,0.4,0.1,0.5C103.8,485.6,103.9,485.6,104.1,485.5z"/>
<path class="st5" d="M72,369.2c0.1-0.2,0.2-0.4,0.2-0.6c0-0.1,0-0.2-0.1-0.3c1.9-4.3,4.6-8.1,7.2-11.9c1.6-2.3,3-4.7-1.9-4.1
	c-0.7,0.1-1.2,0-1.5-0.6c-0.4-1.1,0.2-1.9,1.1-2.2c2.9-1.1,4.5-2.4,1.3-5c-0.5-0.4-0.9-1-0.4-1.5c0.4-0.3,1.3-0.6,1.6-0.4
	c1.3,0.8,2.5,0.7,2.9-0.8c1.6-5.7,7.2-6.9,10.9-10.2c1.3-1.2,1.9-3,0.7-4.6c-1.2-1.6-3.1-1.2-4,0c-3.8,4.8-9.3,5.1-14.9,5.9
	c-0.4-2.9,0.9-6.3-1.8-9.6c4.3,0.8,6.6-0.6,7.3-4.1c0.1-0.7,0.4-1.3,1-1.1c3.3,0.9,5.3-0.4,6.5-3.5c0.4-1.1,1.1-0.3,1.8-0.2
	c2.7,0.3,4.5-0.9,4.9-3.7c0.1-0.4,0.1-1.1,0.2-1.2c1.8-0.5,3.3-1,2.5-3.3c-0.3-0.9-1.2-1.9-2.1-1.3c-1.6,1-4.2,1.2-4.1,4
	c0.1,1.1-0.5,1.7-1.2,1.2c-2.9-1.9-5.2,0.6-7,1.6c-1.9,1-2.3,1.7-3.8-0.2c-0.8-1.1-3.8,0-3.6-2.5c0.2-2.4,0.6-5,2.8-6.6
	c1.3-1,2.7-2.1,4.1-3c1.4-0.9,2.9-1.6,4.3-3.7c-3.6-0.2-6.6,2.1-7.8,3.5c-2.8,3-8.7,3.9-7.7,9.9c0.1,0.8-0.7,0.8-1.2,1
	c-2.7,1.5-4.6,3.6-4.4,8.2c-2.7-4.5-6.4-3.7-9.5-4.5c0.5-3.4,1.7-6.8,0.4-10.2c-0.7-1.8,0.5-1.4,1.5-1.9c3.2-1.5,5.7-3.4,3.3-8
	c2.3,0.2,4.2,1.7,6.1-0.6c1.4-1.7,3.1-2.6,1.3-5.2c5.9,1.4,9.1-0.4,9.1-4.8c3.3,2.3,6.6,4.4,8.8-1.1c0.4-0.9,1.4-0.8,1.7,0
	c0.8,2.2,2.5,1.4,3.9,1.2c3.7-0.6,3.9-0.9,4.2-5.3c2,3.9,4.5,3.1,7.2,1.8c1.3-0.7,3.5-0.7,1.8-3.3c-0.7-1.1-0.2-1.5,2.4-0.3
	c0.8,2.6,1.6,0.6,2.4,0c2.8-0.9,5.9-1.6,4.4-6.4c4,3.3,6.6,2.9,8.3-1.2c0.4-1,1.2-1.1,1.7-0.4c2.2,2.8,5.2,3.2,9,2.5
	c-2.6,3.6-3.8,7.1-4.2,11.4c-2.6-1.9-5-0.4-7.4,0.6c-0.4,0.1-0.8,0.3-1.3,0.4v0.2c0,0.4-0.1,0.8-0.1,1.1c-1.7,2.6-2-1-3.2-0.7
	c-1.1-0.2-2.1,0-3,0.7c-0.5,0.1-1.1,0.2-1.6,0.3c-1.7,0.2-0.1,3.7-1.9,2.6c-5-3.2-6.7,3.8-10.8,2.9c-0.5-0.1-1.5,1-1.9,1.8
	c-0.4,0.7,0.5,1.9,0.8,1.5c2.1-2.5,4.9-0.5,7.3-1.4c1.8-0.7,1-4,3.7-2.9c0.6,2.2,2.5,0.6,3.6,1.3c1.3,0.4,1.4-0.8,2-1.4
	c0.6,0,1.7,0,1.5,0.6c-0.9,3.3,0.2,5.5,4.8,7.1c-4.3,1-7.8,0.3-8.1,4.5c-1.3-0.5-2.6-1.8-4,0c-0.8,1,0,1.9,0.4,2.4
	c1.3,1.6,2.5,0.2,3.7-0.4c1-0.2,1.9-0.5,2.9-0.7c0.9-0.1,1.6-0.3,1.5-1.4c0.4-0.7,1.3-1.4,1.7-0.5c1.6,3.6,4.2,3.7,7.4,2.1
	c0.7,3.4-4.2,5.2-1.6,8.6c0.4,0.5-0.4,1-1.1,0.9c-3.3-0.1-5,1.7-5.6,5.4c-2.5-3.6-4.8-2.1-7.1-0.5c-1.8,0.2,0.4,3-1.9,2.8
	c-2-1.6-2.5,0.4-2.8,1.4c-0.4,1.8,1.2,1.3,2.1,1.2c1.5-0.2,2.9-0.8,4.4-1.2c1.2-0.5,0.3-1.8,0.9-2.6c1.5-0.3,1.4,2,2.8,1.8
	c0.5-0.1,1-0.3,1.6-0.4c2.7,1.3,4.4-3.5,6.2-1.7c2.1,2.1,4.3,2.4,6.8,2.5c-2.2,4-1.3,5.5,3.1,5.3c16.3-0.8,31,3.7,44.4,12.9
	c1.3,0.9,2.4,1.5,4.2,0.7c3.5-1.5,6.8-0.8,9.9,1.5c8.6,6.5,14.2,15.2,18.6,24.9c1.2,2.7,2.2,5.4,3.3,8.1c0.8,2,1.7,3.8,4.3,3.2
	c2.6-0.6,2.4-2.8,2.4-4.9c-0.1-3.7-1.7-6.8-3.7-9.8c-1.9-2.8-3.8-5.6-4.2-9.1c-0.6-4.6,2.3-9.1,6.4-9.9c4-0.8,7.9,2.1,8.9,6.9
	c1.2,5.8,2.9,11.4,6.7,16.1c0.6-6.4-1.1-12.3-3.6-18c-2-4.4-4.8-8.2-7.8-11.9c-3.4-4.2-3.3-7.6,0-10.1c3-2.3,6.9-1.4,9.9,2.7
	c5.3,7.5,8.2,16.1,11.7,24.5c0.6,2.9,1.2,5.7,1.7,8.6c0.2,1,0.3,2,1.4,2c1.3,0.1,1.9-1.1,1.9-2.2c0-1.4-0.2-2.9-0.8-4.1
	c-1.8-3.5-1.9-7.1-1.7-10.8c0.7-0.9,1.3-1.8,2-2.8c0.9-0.1,1.8-0.3,2.7-0.4c3.9,1.2,4.7,4.6,5.8,7.8c-0.1,1.1,0,2.1,0.7,3
	c0.1,0.6,0.1,1.1,0.2,1.7c0,1.8,0,3.7,0,5.5c0,0.6,0,1.2,0,1.9c0,0.6,0,1.2,0,1.8c0.5,4.9,2.5,9.4,4.4,13.9c3.9,9.1,5,18.6,5.5,28.3
	c0.2,3.8-1.8,5.9-5.2,6.2c-3.7,0.3-5.9-2.1-5.9-5.7c0-7-0.5-13.8-2.7-20.5c-0.4-1.3-0.5-3.1-1.4-3.8c-1-0.8-1.2-3.4-3.3-2.3
	c-1.6,0.8-0.9,2.5-0.5,3.7c1.3,4.5,1.8,9,1.7,13.7c0,1.2,0,2.5-0.3,3.7c-0.6,2.6-1.4,5.2-4.7,5.5c-3.4,0.2-5.4-1.6-6.4-4.8
	c-1.1-3.2-0.7-6.4-0.7-9.6c0-2.9-0.4-5.6-2.3-7.8c-0.7-0.9-1.5-2.3-3-1.6c-1.5,0.7-1.7,2.3-1.2,3.6c2.3,6.5,2.4,13.2,1.8,20
	c-0.3,3.6-1.3,6.9-2.9,10.1c-1.2,2.4-3,4.1-5.8,3.6c-3-0.6-4.2-3.1-4.2-5.9c0-4,0.7-8,0.8-11.9c0-2.5,0.2-6.3-2.8-6.5
	c-3.1-0.2-3.1,3.8-3.5,6.1c-1.2,8.2-1.5,16.6-6.4,23.8c-1.9,2.8-4,5.2-7.6,5.3c-1.8,0.1-2.3,1.3-2.9,2.5
	c-6.2,11.2-15.6,19.3-26,26.3c-2.1,1.5-4.9,2.4-7.3,3.6c-23.6,9.3-46.4,8.2-68-5.5c-29-18.4-40.5-53.5-28.8-86.6
	c0.3-0.7,0.4-1.5,0.6-2.2C71.6,370,71.8,369.6,72,369.2z M200.8,429.4c8.2-13.9,9.3-29,6.6-44.5c-6.8-39.6-47.8-65.5-86.6-54.8
	c-36.6,10-58.8,45.4-51,82.3c4.5,21.2,16.3,37.5,35.9,47.6c23.8,12.6,47.4,11.3,70.1-2.4C186.9,450.9,195.7,441.7,200.8,429.4z
	 M250,389.6c-0.4-2-0.8-3.9-1.1-5.9c-0.3-1.9,0-3.8,2.1-4.6c2-0.7,3.6,0.4,4.8,1.8c1.4,1.5,2,3.5,2.5,5.4c1.8,6.4,3.2,12.8,2.7,19.6
	c-0.2,2.7,0,5.7,3.6,5.8c3.7,0,3.1-3.2,3.1-5.5c-0.1-10-1.7-19.6-6.2-28.6c-2.6-5.4-3.9-11-3.5-17c0.3-4-0.5-8-1.9-11.8
	c-0.6-1.6-1.7-3.2-3.8-2.7c-1.9,0.5-1.5,2.3-1.7,3.8c-0.4,3.7,1.9,6.7,2.5,10.2c0.5,2.9,0,5.2-2.8,5.9c-3,0.8-3.8-1.6-4.3-4.1
	c-1.1-5.1-2.2-10.2-4.6-15c-2.7-5.5-4.5-11.4-8.2-16.4c-1.9-2.5-4.1-4.9-7.2-2.6c-2.8,2.1-1.7,4.8,0.3,7.1c0.9,1,1.8,2.1,2.7,3.2
	c5.6,7.2,8.7,15.5,9.7,24.5c0.2,2.1,0.8,5.3-1.8,6c-2.9,0.8-4.2-2.6-5-4.5c-1.8-4.3-3.7-8.7-4.4-13.5c-0.5-3.3-2.6-6.4-6.5-5.6
	c-3.6,0.7-5,3.7-4.7,7.4c0.3,3.2,2.1,5.7,3.8,8.2c2.7,4,4.6,8.3,4,13.4c-0.3,2.5-1.5,4-3.9,4.5c-2.5,0.5-4.6,0-5.8-2.5
	c-0.5-1.1-1.2-2.2-1.6-3.3c-3.9-11.8-10.4-21.8-19.8-29.9c-2.7-2.3-5.4-3.7-9.1-1.6c27.1,25.1,33.3,54.6,19.9,88.6
	c2.3-0.1,3.5-1.3,4.5-2.7c3.8-4.9,5.6-10.6,6.2-16.7c0.4-3.8,0.6-7.7,1.8-11.4c0.8-2.3,1.8-5.1,4.8-4.7c2.9,0.4,4.1,3,4.5,5.8
	c0.2,0.9,0.1,1.8,0.1,2.8c0,3.5,0.1,7.1-0.8,10.6c-0.5,2.1,0,4.6,2.4,5.4c2.4,0.7,3.4-1.5,4.3-3.3c1.4-2.8,2.2-5.7,2.3-8.9
	c0.2-6.1,0.6-12.2-1.7-18.2c-0.9-2.3-0.7-5.1,2.1-6.4c2.9-1.3,4.5,0.8,6,2.8c2.9,3.9,1.8,8.3,1.9,12.5c0.1,3.1,0.2,6.1,3.5,7.7
	c3.9,1.9,4.3-1.5,4.6-3.5C251.2,397.8,251.5,393.6,250,389.6z M110.3,323.9c-2.6,0.1-4.5,0.3-5.3-1.7c-0.7-1.6,0.5-3,1.5-4.1
	c0.8-1,2-1.8,3.1-2.7c3-2.3,6.6-3.1,10-4.5c2-0.8,4.4-1.8,3.5-4.6c-0.9-2.6-3-3.1-5.6-2.2c-1.4,0.5-2.9,0.8-4.4,1.3
	c-2.2,0.7-4.9,1.9-6.2-0.6c-1.5-2.8,0.7-4.9,3-6.5c0.9-0.6,1.9-0.9,2.9-1.4c1.4-0.7,3.8-0.8,2.9-3.2c-0.8-2-2.7-2.2-4.7-1.6
	c-3.1,1-6.1,2-9.2,2.8c-1.9,0.5-4.2,0.8-5.2-1.6c-0.8-2,0.3-3.4,2-4.6c5.5-3.9,11.6-6.3,18.1-7.5c3.6-0.7,7.3-1.2,10.5-3.3
	c1.4-0.9,3.3-2.1,2.1-4.5c-1.1-2.1-2.7-2.5-5-1.7c-3,1.1-6,2.2-8.8,3.9c-8.3,5.1-17.4,8.4-26.9,10.1c-6.8,1.2-13.1,3.3-18.4,7.6
	c-4.1,3.3-7.7,7.1-9.9,12c-1.1,2.4-1.8,5.2,0.9,6.5c2.1,1,4.8,0.2,6.1-2.5c0.3-0.7,1-1.2,1.3-1.9c2.9-6.3,8.1-10.3,14.1-13.2
	c2.1-1,4.7-2.3,6.1,0.3c1.3,2.4-1.1,3.8-2.8,5c-1.9,1.4-4.1,2.1-5.7,3.9c-1.1,1.3-2.3,2.9-1.6,4.4c0.8,1.8,3.1,1.3,4.6,0.9
	c3.6-0.9,6.7-3.1,9.7-5.2c2-1.4,4-1.8,5.9-0.1c1.9,1.7,1.6,3.7,0.6,5.9c-2.1,4.3-5.9,6.6-9.9,8.5c-4.2,2-8.1,4.4-11.1,8
	c-0.7,0.9-1.8,1.9-0.7,3.3c0.9,1.2,2.1,0.9,3.4,0.6c3-0.7,5.2-2.5,7.6-4.3c2.2-1.6,4.6-2.9,7-0.4c2.4,2.6,1.7,5.5-0.5,7.8
	c-1.8,1.9-4.1,3.2-6.1,4.9c-3.3,3-6.5,6.1-7.3,10.9c-0.1,0.8,0,2.1,0.5,2.6c0.9,0.8,1.6-0.3,2.2-1c11.2-12.6,25.2-20.3,41.7-23.6
	c1.3-0.3,2.9,0,2.8-2.1c-0.1-2-1.3-3.1-3.1-3.4c-1.7-0.3-3.3,0-5,0.4C116.9,322.5,113.1,323.3,110.3,323.9z"/>
<path class="st5" d="M192.4,516.4c-0.8,2.1-1.6,4.3-2.5,6.4c-0.9,2-2,4.3-4.6,3.7c-2.8-0.7-3.6-3.2-3.2-5.9c0.6-4,2.3-7.6,4.7-10.9
	c2.9-4,6.1-7.7,9.1-11.6c1.4-1.9,3-3.8,3.1-6.7c-2.5-0.1-3.5,1.5-4.5,3c-1,1.4-1.9,2.8-3,4.1c-1.4,1.5-3.3,2.5-5.4,1.4
	c-1.9-1-2.1-2.9-1.9-4.8c0.1-1.2,0.5-2.4,0.8-3.6c0.6-1.8,1.7-3.4,3.2-4.3c3.3-1.9,5-5,6.7-8.2c1-1.9,2.3-3.5,4.2-4.6
	c1.6-1,3.3-2.2,4.9-0.3c1.5,1.6,0.3,3.2-0.6,4.6c-0.9,1.5-2.5,2.6-2.8,4.8c2.5,0.2,3.1-1.5,4.1-2.7c5.4-6.4,10.3-13.4,18-17.6
	c0.9-0.5,1.9-1,2.9-1.5c2.2-1,4.6-1.6,6.3,0.6c1.5,2,0.4,4.1-0.9,5.9c-0.4,0.5-0.7,1-1.1,1.5c-0.3,0.4-0.6,0.8-0.9,1.2
	c0.7,0.3,1.3,0.4,1.8-0.4c4.3-1.7,7.7-5.1,12.3-6.2c3-0.7,6.3-1.1,7.6,2.2c1.5,3.6-1.2,5.7-4.2,7.1c-2,1-4.2,1.7-6.4,2.6
	c0.4,0.3,0.5,0.5,0.7,0.5c2.8,0.3,6.5-0.6,7.2,3.3c0.7,3.7-2.6,5.3-5.4,6.6c-5.5,2.6-9.8,6.3-12.4,11.9c-0.4,0.9-1.4,1.6-2.1,2.4
	c-1.4,1.6-2.9,2.4-4.8,0.8c-1.7-1.4-1.4-3.1-0.5-5c1.1-2.4,3.5-3.9,4.2-7.9c-5.2,4-8.2,8.4-11,12.9c-2.2,3.5-4.3,7.1-7.2,10.1
	c-1.8,1.8-3.8,3.2-6.1,1.5c-2.2-1.7-0.9-4.2,0.2-5.8c2.6-3.8,5.7-7.3,8.5-10.9c0.8-1,1.7-1.9,2-3c0.5-1.5,0-3.1-1.5-4
	c-1.3-0.8-2.3,0.3-3.2,1.1c-0.1,0.1-0.3,0.2-0.3,0.3c-3.2,9.2-11.1,15.4-15.7,23.7C192.6,515.1,192.6,515.8,192.4,516.4z
	 M184.1,520.5c0.1,1.6-0.3,3.2,1.2,3.6c1.8,0.5,2.4-0.9,2.7-2.3c2.5-12.5,14.3-19.5,18.2-31.2c0.2-0.5,0.7-1,1.2-1.4
	c1.6-1.5,3.3-3.1,5.6-1.5c2.3,1.5,3,3.9,2.4,6.5c-0.3,1.1-1.2,2.1-2,3.1c-2.8,3.5-5.8,6.8-8.4,10.4c-0.7,1-2.4,2.8-0.7,4
	c1.2,0.9,2.4-0.7,3.4-1.7c2.4-2.4,4.2-5.3,5.9-8.2c2.8-4.8,6-9.4,10.2-13c1-0.8,2.2-2.6,3.9-1.1c1.7,1.5,1.4,3.3,0.3,5
	c-0.8,1.3-2.1,2.4-2.7,3.7c-0.5,1.1-2.4,2.4-0.8,3.5c1.9,1.3,2.6-0.9,3.4-1.9c0.9-1.1,1.3-2.4,2-3.6c3.1-5.1,8-7.9,13.1-10.5
	c1.4-0.7,3.6-1.7,2.4-3.7c-0.8-1.4-2.9-1.7-4.6-0.8c-1.8,0.9-3.5,1.9-5.3,2.9c-1.6,0.9-3.5,2.3-4.8,0c-1.2-2.1,0.7-3.3,2.1-4.4
	c3.2-2.4,7.1-3.6,10.7-5.3c2.2-1,6.1-1.8,4.7-5c-1.5-3.2-5-1.4-7.4-0.2c-6.5,3.1-12.6,7-17.7,12.3c-1.9,1.9-4.3,5.9-7,3.1
	c-2.1-2.2,1.6-4.9,3.6-6.9c3-2.9,6.1-5.6,9.1-8.5c0.9-0.9,2.1-2.3,0.9-3.7c-1.1-1.3-2.5-0.4-3.8,0.2c-1,0.5-1.9,0.9-2.9,1.5
	c-7,3.9-11.6,10.4-16.7,16.4c-1.8,2.1-3.8,5.3-6.7,3.3c-3-2.2,0.3-4.5,1.6-6.5c0.6-0.9,1.7-1.9,0.7-2.8c-1.2-1.2-2.2,0.4-3.1,1
	c-0.9,0.7-1.7,1.8-2.2,2.9c-2.1,4.2-4.8,7.8-8.5,10.7c-1.3,1-2.2,2.4-2.7,4.2c-0.4,1.7-0.4,3.1,1.1,4.1c1.6,1.1,2.6-0.4,3.4-1.4
	c1.5-1.7,2.8-3.7,4.3-5.4c1.2-1.4,2.8-2.7,4.8-1.5c2.3,1.4,1,3.4,0.3,4.9c-2.1,4.8-5.8,8.7-9.1,12.7
	C187.6,511.5,184.9,515.7,184.1,520.5z"/>
<path class="st2" d="M241.9,245.7c2.1-1.6,2.5,0.4,3.4,1.5c-0.3,0.8-0.6,1.6-0.9,2.5c1.3,2.7-0.6,5.9,0.7,8.3c1.5,3,0.4,4.6-1.8,6.2
	c-2.3,1.7-4.6,1.5-6.7-0.4c-1-0.9-1.7-1.9-3.3-2c-5.2-0.3-8.3-5.8-13.8-5.8c-0.6,0-1.3-1.2-1.8-2c-0.4-0.7-0.9-1.6-1.7-1.3
	c-6.1,2.4-10.2-5.2-16.3-3.2c-0.8,0.3-2.2-1-3.1-1.8c-1.4-1.2-2.6-2-4.8-1.8c-4.9,0.5-7.2-3.2-6.5-8.1c0.9-5.4,5.2-6.5,9.1-8.2
	c2.8-1.3,5.5-1.1,7.7,0.9c1.5,1.3,2.4,2.2,4.6,1c2.9-1.6,5.8-0.4,7.6,2.2c1.1,1.6,1.9,2.5,3.9,1.5c1-0.5,2.7-0.6,3.6,0
	c3.7,2.4,6.7,6.1,11.6,6.4c0.5,0,1.2,1.1,1.3,1.8c0.4,4.3,3.2,5.1,6.8,5c0.4,0.4,0.6,0.2,0.8-0.2
	C242.4,247.2,242.2,246.4,241.9,245.7z M190.3,234.4c-1.9,1.1-2,2.8-2.3,4.4c-0.3,2-0.1,3.8,2.3,4.4c2.3,0.6,3.4-0.7,4.2-2.6
	c0.5-1.3,1-2.6,1.5-3.9c0.3-0.8,0.6-2,1.9-1.5c0.8,0.3,0.9,1.2,0.6,2c-0.3,1.2-0.6,2.4-1.1,3.5c-1.6,3-0.1,4.4,2.5,5.6
	c3.7,1.6,5.4-0.4,6.8-3.4c0.5-1.1,0.8-3.2,2.7-2.2c1.4,0.7,0.3,2.2-0.1,3.3c-1.1,3.7,0.3,6.1,3.8,6.3c3.1,0.2,3.4-2.5,4.6-4.4
	c0.6-1,0.6-3,2.2-2.4c1.7,0.6,0.7,2.4,0.4,3.6c-0.1,0.6-0.4,1.2-0.8,1.7c-1.7,2.4,0.2,3.7,1.7,5c1.7,1.4,3.3,0.3,4.5-0.9
	c1-1.1,1.7-2.5,2.6-3.8c0.5-0.7,1.2-1.2,1.9-0.8c0.7,0.4,0.7,1.3,0.4,2.1c-0.4,0.8-0.7,1.7-1.3,2.4c-1.1,1.5-1.7,2.8,0.3,4.2
	c1.7,1.1,3.1,2.7,5.3,1c1-0.8,1.8-2.8,3.3-1.8c1.9,1.2-0.2,2.3-0.5,3.4c-0.5,1.9,1,2.4,2.4,2.7c0.9,0.2,2.4-0.8,2.1-1.1
	c-2.4-2.7,0.3-4.9,0.4-7.3c0-1.7-0.6-3.2-2.3-3.6c-1.4-0.4-3.1-0.4-3.9,1.4c-0.7,1.5-0.4,4.6-2.7,3.9c-2.4-0.7,0-3.2-0.2-4.8
	c0-0.6,0-1.2,0-1.8c-0.1-2.4,0.3-5.6-2.7-6.1c-3-0.6-3.3,2.5-4,4.6c-0.4,1.2-0.7,3.2-2.5,2.5c-1.7-0.6-0.4-2.1-0.1-3.2
	c0.6-2.2,1.2-4.5,0.1-6.7c-1-2-2.6-3.1-4.8-2.8c-1.9,0.3-2.8,1.5-2.8,3.6c0,1.2-0.4,2.4-0.8,3.6c-0.4,1.3-0.3,3.7-2.5,3.1
	c-1.9-0.5-0.6-2.4-0.4-3.6c0.5-2.7,1.4-5.4-0.3-8.1c-1-1.6-2.4-3.1-4.5-2.3c-1.6,0.6-3.5,1.3-3,3.9c0.3,1.4-0.4,3-0.8,4.5
	c-0.2,0.7-0.7,1.4-1.7,1.2c-1-0.2-0.8-1.2-0.8-1.9c0-1.8,0.2-3.7,0.2-5.5c0-2.8-1.9-4.4-4.4-4.3c-2.3,0.1-4.5,1.1-4.9,4
	c-0.2,1.3,0.5,3.2-1.6,3.7C189.8,237.8,191.2,236.1,190.3,234.4z"/>
<path class="st5" d="M365.8,464.6c-0.1,3.4-1.2,8.9-3.1,14.1c-4.8,13.1-11.9,25-21.4,35.2c-2.6,2.8-5.6,5.3-9.1,7
	c-7.9,3.9-17.4,0.7-21.2-7.2c-2.7-5.7,0.4-10.4,3.3-14.9c5.1-8,11.9-14.9,15.8-23.7c3-6.9,5.6-13.9,8.8-20.7c2.5-5.4,6-9.7,12.9-9.4
	C360.9,445.3,365.8,451.4,365.8,464.6z M323.7,520.2c6.9,0.3,11.1-2.9,14.8-6.6c10.9-11.2,18.8-24.3,23.2-39.3
	c1.6-5.6,2.8-11.3,1.5-17.3c-1.3-5.9-3.9-9-9.3-10c-5-1-9,0.9-11.9,5.9c-1.6,2.6-2.9,5.4-3.9,8.3c-3.9,10.9-8.8,21.2-15.9,30.4
	c-2.7,3.5-5.4,7.1-7.7,10.9C309.2,511.2,314.6,520.2,323.7,520.2z"/>
<path class="st8" d="M241.8,248.2c-3.6,0.1-6.4-0.7-6.8-5c-0.1-0.7-0.8-1.8-1.3-1.8c-4.9-0.3-7.9-3.9-11.6-6.4
	c-0.9-0.6-2.6-0.5-3.6,0c-2.1,1-2.8,0.1-3.9-1.5c-1.8-2.6-4.7-3.8-7.6-2.2c-2.2,1.2-3.2,0.3-4.6-1c-2.3-2-4.9-2.2-7.7-0.9
	c-3.9,1.8-8.2,2.8-9.1,8.2c-0.8,4.9,1.6,8.6,6.5,8.1c2.2-0.2,3.4,0.5,4.8,1.8c0.9,0.8,2.3,2,3.1,1.8c6.1-2,10.2,5.6,16.3,3.2
	c0.8-0.3,1.3,0.6,1.7,1.3c0.5,0.8,1.2,2,1.8,2c5.5,0.1,8.6,5.5,13.8,5.8c1.7,0.1,2.4,1.1,3.3,2c2.1,1.9,4.4,2.2,6.7,0.4
	c2.1-1.6,3.3-3.2,1.8-6.2c-1.3-2.5,0.7-5.6-0.7-8.3c4.9,4.7,5.8,9.6,2.7,14.3c-3.2,4.8-7.4,5.8-13.8,2.9c-2.8-1.3-5.6-2.7-8.1-4.4
	c-8.4-5.6-17.5-9.5-27.3-11.9c-3.5-0.9-7.1-2.1-10.4-3.6c-4.8-2.2-6.1-5.5-4.8-10.6c1.8-7.1,8.4-10.9,17.2-9.4
	c13.6,2.3,26.3,7.1,37.6,15.3c1,0.8,2.1,2.8,3.7,0.5c0.2,0.3,0.4,0.7,0.6,1c-0.4,0-1.1-0.1-0.9,0.5c0.1,0.5,0.6,0.9,1,1.3l0.1,0.1
	c0.2,0.8,0.4,1.6,0.7,2.4C242.3,248.1,242.1,248.2,241.8,248.2z"/>
<path class="st5" d="M241.2,242.7c-1.6,2.2-2.7,0.2-3.7-0.5c-11.3-8.2-24-13-37.6-15.3c-8.8-1.5-15.4,2.3-17.2,9.4
	c-1.3,5.1,0,8.4,4.8,10.6c3.3,1.5,6.9,2.7,10.4,3.6c9.8,2.5,18.9,6.3,27.3,11.9c2.5,1.7,5.3,3.1,8.1,4.4c6.4,2.9,10.6,1.9,13.8-2.9
	c3.1-4.7,2.2-9.6-2.7-14.3c0.3-0.8,0.6-1.6,0.9-2.5c2.1,1.7,3.4,4,4.4,6.3c2.3,5,1.3,9.5-2.4,13.6c-3.6,3.9-8,4.2-12.7,2.6
	c-3.7-1.3-7-3.1-10.2-5.3c-8.3-5.5-17.2-9.4-26.9-11.8c-3-0.8-5.9-1.7-8.8-2.8c-6.6-2.5-8.6-5.3-8.4-11.1c0.3-6.6,3.8-11.3,9.8-13
	c4.6-1.4,9.1-1,13.7,0C217.6,228.7,230.4,233.6,241.2,242.7z"/>
<path class="st5" d="M287.9,303.8c0-11.6,6.6-20.4,16.5-22.3c4-0.7,7.7,0.1,11.2,1.7c13.3,6,20.2,24.2,14.3,37.6
	c-5.2,11.8-17.4,15.5-28.3,8.7C293.3,324.3,287.9,314.3,287.9,303.8z M329.1,304.3c-0.1-0.3-0.2-0.5-0.4-0.8c0-3.7-2.3-6.6-4-9.6
	c-3.8-6.8-12.9-11.4-19.8-10.2c-7,1.2-12.6,6.5-14.2,14c-2.3,10.6,0.5,19.7,8.5,27.1c6.5,5.9,14.3,7.4,20.7,4.2
	c6.8-3.5,10.6-11.6,9.6-20.8C329.4,306.9,329.3,305.6,329.1,304.3z"/>
<path class="st5" d="M47.9,347.1c2.9,17.1-14,33.1-31.3,31.5C5,377.6-2.6,366.7,0.5,355c4-14.7,18.1-23.4,34.7-21.1
	C41.4,336.4,46,340.5,47.9,347.1z M5.5,370.3c1.9,3.1,4.9,4.6,8.2,5.4c12.4,3.2,26.7-4.9,31.1-17.6c1.5-4.2,2.2-8.6-0.3-12.8
	c-1.9-5.5-6.2-8.3-11.6-9.3c-13.5-2.5-28.2,7.5-30.7,21C1.4,361.7,1.9,366.4,5.5,370.3z"/>
<path class="st5" d="M240.8,569.3c-4.5-0.3-8.9-0.7-13-2.8c-9.6-4.7-13.9-13.9-11.3-24.1c0.2-0.9,0.3-1.8,0.5-2.7
	c8.4-12.2,21.7-16,33.5-9.6c7,3.8,11.3,9.6,11.4,17.7c0.2,8.1-4,14-10.8,18c-1.6,0.9-3.2,1.8-4.8,2.6c-1.3-0.4-2.5-0.1-3.7,0.5
	C242,569,241.4,569.2,240.8,569.3z M238.7,566.5c12.5-0.1,21.9-9.2,20.8-20.2c-0.9-8.7-8.3-15.8-17.6-16.8
	c-10.7-1.2-20.4,4.3-23.3,13.3C214.6,554.9,224.6,566.6,238.7,566.5z"/>
<path class="st9" d="M110.1,288.8c-2.7-1.2-1.9,2.2-3.7,2.9c-2.4,0.9-5.2-1.1-7.3,1.4c-0.3,0.4-1.3-0.8-0.8-1.5
	c0.4-0.7,1.4-1.9,1.9-1.8c4.1,0.9,5.9-6.1,10.8-2.9c1.8,1.1,0.2-2.4,1.9-2.6C113.8,286.8,111.7,287.6,110.1,288.8z"/>
<path class="st9" d="M248.9,347c-0.2,3.7,0,7.4,1.7,10.8c0.6,1.2,0.7,2.7,0.8,4.1c0,1.1-0.5,2.2-1.9,2.2c-1.1,0-1.2-1-1.4-2
	c-0.5-2.9-1.1-5.7-1.7-8.6C250,352.4,246.7,348.6,248.9,347z"/>
<path class="st5" d="M289.5,419.2c1.6-0.1,2.9,0.6,3,2.2c0.1,2.1-1.4,2.9-3.2,3.1c-1.5,0.2-2.1-0.9-2.3-2.2
	C286.8,420.4,287.7,419.4,289.5,419.2z"/>
<path class="st5" d="M357.9,328.5c-1.9-0.2-2.9-1.1-2.8-2.7c0-1.3,0.9-2.4,2.3-2.5c1.6-0.1,2.7,0.8,2.8,2.4
	C360.3,327.4,359,328,357.9,328.5z"/>
<path class="st9" d="M336.9,352.3c-6.5-0.5-12.7,1.7-19.3,1.1C321,351.3,327.5,350.9,336.9,352.3z"/>
<path class="st5" d="M185.4,290.2c-0.2,1.4-1,2.3-2.7,2.2s-2.4-1.2-2.2-2.8c0.1-1.5,1.2-2.3,2.5-2.2
	C184.4,287.3,185.5,288.2,185.4,290.2z"/>
<path class="st5" d="M252.1,290.3c1.5,0.2,2.4,1.1,2.3,2.6s-1.1,2.4-2.7,2.4c-1.6-0.1-2.5-1.1-2.5-2.6
	C249.3,291.2,250.4,290.4,252.1,290.3z"/>
<path class="st5" d="M363.1,417.5c0,2.1-0.9,3-2.5,3c-1.3,0-2.4-0.7-2.4-2.2c-0.1-1.6,0.6-2.7,2.2-2.8
	C362.1,415.4,362.8,416.5,363.1,417.5z"/>
<path class="st5" d="M63.2,274.2c-0.1,1.4-0.8,2.5-2.5,2.4c-1.6,0-2.5-1-2.5-2.6c0-1.5,1-2.4,2.3-2.4
	C62,271.5,63.2,272.2,63.2,274.2z"/>
<path class="st5" d="M137.7,230.3c1.7,0,2.8,0.9,2.9,2.4c0.1,1.5-0.9,2.6-2.4,2.7c-1.6,0.1-2.7-0.8-2.7-2.3
	C135.3,231.5,136.2,230.6,137.7,230.3z"/>
<path class="st5" d="M299,551c-1.7-0.2-2.6-1.1-2.5-2.7c0.1-1.5,1.1-2.5,2.8-2.3c1.6,0.1,2.5,1.1,2.4,2.7
	C301.6,550.2,300.5,551,299,551z"/>
<path class="st2" d="M285.1,488.7c-1.7,0-2.7-0.8-2.8-2.5c0-1.4,0.8-2.3,2.2-2.4c1.4-0.1,2.4,0.5,2.6,2
	C287.4,487.4,286.7,488.5,285.1,488.7z"/>
<path class="st2" d="M318.4,371.6c0.2-1.7,1.1-2.5,2.4-2.5c1.6,0,2.5,1,2.4,2.7c-0.1,1.5-1,2.2-2.4,2.2
	C319.2,374,318.4,373,318.4,371.6z"/>
<path class="st9" d="M114,302.8c-1.2,0.6-2.4,2-3.7,0.4c-0.4-0.5-1.2-1.4-0.4-2.4c1.4-1.8,2.7-0.5,4,0
	C113.9,301.4,114,302.1,114,302.8z"/>
<path class="st7" d="M242.6,568.9c1.2-0.6,2.4-0.8,3.7-0.5c-0.1,1.3,0,2.6-1.8,2.6C243.1,571,242.7,570.1,242.6,568.9z"/>
<path class="st9" d="M260.3,361.8c0-1.8,0-3.7,0-5.5C261.6,358.1,261.5,360,260.3,361.8z"/>
<path class="st9" d="M110.2,319.3c2.3,0.2,0.1-2.6,1.9-2.8C111.7,317.7,113.2,320,110.2,319.3z"/>
<path class="st9" d="M114.8,318.2c-0.6,0.8,0.3,2-0.9,2.6C114.2,319.9,112.9,318.5,114.8,318.2z"/>
<path class="st9" d="M260.1,354.6c-0.7-0.9-0.8-1.9-0.7-3C260.4,352.4,260.3,353.5,260.1,354.6z"/>
<path class="st9" d="M115.7,288.7c-0.6,0.6-0.7,1.8-2,1.4C114.1,289.1,114.8,288.7,115.7,288.7z"/>
<path class="st9" d="M110.5,275.8c-0.8,0.6-1.6,2.6-2.4,0C108.9,275.8,109.7,275.8,110.5,275.8z"/>
<path class="st9" d="M114.6,283.9c0.9-0.7,1.9-0.8,3-0.7C116.8,284.2,115.7,284.1,114.6,283.9z"/>
<path class="st9" d="M253.7,343.8c-0.9,0.1-1.8,0.3-2.7,0.4C251.7,343.1,252.6,343,253.7,343.8z"/>
<path class="st9" d="M260.4,365.5c0-0.6,0-1.2,0-1.8C261.2,364.3,261.2,364.9,260.4,365.5z"/>
<path class="st9" d="M118.4,300.7c0.1,1.1-0.7,1.3-1.5,1.4C116.9,301.1,117.5,300.8,118.4,300.7z"/>
<path class="st2" d="M241.9,245.6c-0.3-0.4-0.9-0.8-1-1.3c-0.1-0.6,0.5-0.5,0.9-0.5C242.5,244.4,242.5,245,241.9,245.6z"/>
<path class="st9" d="M120.8,284c0-0.4,0.1-0.8,0.1-1.1C120.9,283.2,120.8,283.6,120.8,284z"/>
<path class="st9" d="M121,282.7c0.4-0.1,0.8-0.3,1.3-0.4C121.8,282.4,121.4,282.6,121,282.7z"/>
<path class="st9" d="M119.2,319.5c-0.5,0.1-1,0.3-1.6,0.4C118.1,319.8,118.7,319.7,119.2,319.5z"/>
<path class="st5" d="M124.5,567.1c-1.4-0.3-4.1-0.5-6.5-1.4c-16.4-5.8-30.2-15.2-40.9-28.9c-3.2-4-5.5-8.6-6.4-13.7
	c-0.9-5,0.9-9.1,4.9-12.2s8.3-3.9,12.9-1.5c4,2,7.4,5,10.5,8.2c8.1,8.5,17.5,15,27.9,20.2c2.3,1.2,4.6,2.5,6.8,3.9
	c6.5,4.2,8.4,8.2,6.7,13.7C138.3,562.9,132.8,567.2,124.5,567.1z M82.4,539.7L82.4,539.7c7.9,9.7,18.4,16,29.4,21.6
	c5,2.5,10.3,4,16,3.4c5.3-0.5,8.7-3.9,10.6-10.1c1.6-5-1.6-7.7-4.8-10.3c-1.9-1.5-4.1-2.7-6.3-3.8c-12-5.9-22.7-13.5-31.8-23.3
	c-2.2-2.4-4.9-4.1-7.8-5.7c-3.8-2.2-7.4-1.4-10.7,1.1c-3.5,2.6-5.2,6.1-4.3,10.4C74.1,529.5,77.4,535.1,82.4,539.7z"/>
<path class="st5" d="M22.2,429.5c1.8,0,3.6,0.1,5.4,1c-2-6.9-0.8-10.3,3.4-11.2c3.3-0.7,6.6,1.5,7.2,4.8c0.7,4.6-1.9,6.8-9.3,7.4
	c1.9,3.3,2.3,6.5-1,9c-2.5,1.9-5.2,1.8-7.6-0.4c-2.5-2.3-2.6-5.1-0.8-7.9c0.7-1.1,1.9-1.9,2.8-2.8C22.3,429.4,22.2,429.5,22.2,429.5
	z M27.9,435.1c-0.2-1.9-1.4-3.1-3.5-3.2c-2.3-0.1-3.9,1.2-3.9,3.5s1.3,3.8,3.7,3.8C26.5,439.2,27.7,437.8,27.9,435.1z M32.2,421.4
	c-2.1,0.4-3.6,1.5-3.5,3.9c0,2.1,1.2,3.1,3.2,3.1c2.3,0,4-1,3.9-3.5C35.8,422.9,34.4,421.7,32.2,421.4z"/>
<path class="st5" d="M22.3,429.4c-7.3,0.4-8.9-0.8-9.5-7.2c-1.5,2.2-2.9,4.2-4.3,6.2l0.1-0.1c-1-0.9-2,0-3.1-0.1
	c-3.6-0.5-6-3.2-5.6-6.6c0.4-3.7,2.7-5.4,6.3-5.3c1.1,0,2.1,0.2,3.2,0.3l-0.1-0.1c0.7,1.1,1.4,2.2,2,3.3c0.7,1.4,1.4,1.9,2.7,0.4
	c2.8-3.2,6-3.7,9.1-0.7c3.1,3.1,2.2,6.3-0.8,9.2c-0.1,0.1,0,0.5-0.1,0.8C22.2,429.5,22.3,429.4,22.3,429.4z M18.6,420
	c-2.1,0.2-3.7,1.4-3.6,3.8c0.1,2.3,1.6,3.7,3.9,3.6c2.1-0.1,3.4-1.4,3.4-3.5C22.4,421.3,21.1,420.1,18.6,420z M5.9,418.3
	c-2.3,0.2-3.8,1.4-3.9,3.7c-0.1,2.3,1.3,3.7,3.7,3.7c2.1,0,3.5-1.2,3.7-3.4C9.6,420,8.2,418.7,5.9,418.3z"/>
<path class="st5" d="M9.4,416.5c-0.5-0.9-1-1.8-1.4-2.7c-1.3-2.9-0.7-5.4,1.7-7.4c2.3-1.8,4.9-1.8,7.2,0c2.4,1.9,3.3,4.4,1.8,7.3
	c-1.4,2.7-3.7,4-6.8,3.3c-0.9-0.2-1.7-0.4-2.6-0.6C9.3,416.4,9.4,416.5,9.4,416.5z M13.2,407.4c-2.2,0.4-3.7,1.6-3.7,3.9
	c0,2.1,1.5,3.2,3.6,3.2c2.2,0.1,3.4-0.8,3.5-3.1C16.8,408.9,15.5,407.8,13.2,407.4z"/>
<path class="st5" d="M32.4,412.7c0,3.4-2.8,5.9-6.4,5.8c-3.8-0.1-5.6-2.4-5.6-5.9c0-3.7,2.3-5.7,5.7-6
	C29.4,406.4,32.4,409.4,32.4,412.7z M29.9,412.8c0-2.3-1-3.6-3.2-3.9c-2.4-0.2-4,1.1-4.2,3.3c-0.2,2.3,1.2,3.9,3.5,4.1
	C28.3,416.5,29.6,415,29.9,412.8z"/>
<path class="st5" d="M8.4,428.4c0.9,0.1,1.8,0,2.7,0.2c3.2,0.8,5.2,2.8,5.1,6.2c-0.1,2.9-1.7,5-4.6,5.6c-2.8,0.7-5.3-0.3-6.6-3
	c-1.4-2.9-0.9-5.7,1.8-7.8c0.6-0.5,1.1-0.9,1.7-1.4C8.5,428.3,8.4,428.4,8.4,428.4z M9.9,438.3c2.2-0.4,4-1.2,3.8-3.8
	c-0.1-2.1-1.1-3.4-3.4-3.4c-2.4,0-3.7,1.2-3.7,3.6C6.6,437,8.1,437.9,9.9,438.3z"/>
<path class="st5" d="M125.2,496.4c1.4,0.3,2.5,1,2.5,2.6s-0.9,2.6-2.5,2.6c-1.6,0.1-2.6-1.1-2.6-2.5
	C122.6,497.6,123.6,496.6,125.2,496.4z"/>
<path class="st5" d="M54.1,377.1c-1.8-0.2-2.7-1.1-2.7-2.7c0.1-1.3,0.9-2.3,2.3-2.4c1.6-0.1,2.7,0.8,2.7,2.4
	C56.6,376.1,55.5,376.9,54.1,377.1z"/>
<path class="st5" d="M172.9,563c0-1.6,0.7-2.7,2.3-2.8c1.6-0.1,2.6,0.8,2.7,2.4c0.2,1.6-0.8,2.7-2.3,2.8
	C174.1,565.5,173.1,564.6,172.9,563z"/>
<path class="st5" d="M48,481.3c1.6,0.3,2.6,1.2,2.5,2.8c-0.1,1.5-1.1,2.6-2.7,2.5c-1.5-0.1-2.6-1.1-2.5-2.7
	C45.5,482.3,46.6,481.6,48,481.3z"/>
<path class="st1" d="M106.4,486.3c5.8,1.1,11.8-0.6,17.6,1.1C118.1,487.5,112.1,488.6,106.4,486.3z"/>
<path class="st1" d="M100,484c-0.7-0.1-1.4-0.2-1.9-0.9l0,0C98.9,483.1,99.6,483.3,100,484L100,484z"/>
<path class="st1" d="M100,484c0.4,0.1,0.8,0.2,1.2,0.3C100.6,485.2,100.4,484.4,100,484L100,484z"/>
<path class="st1" d="M104.1,485.5c-0.1,0-0.2,0.1-0.4,0.1c0-0.2-0.1-0.4-0.1-0.5c0.1,0,0.3,0,0.4,0.1
	C104,485.3,104,485.4,104.1,485.5z"/>
<path class="st6" d="M72,369.2c-0.2,0.4-0.4,0.8-0.6,1.2C71.6,370,71.8,369.6,72,369.2z"/>
<path class="st1" d="M98.2,483.1c-0.1-0.1-0.2-0.1-0.4-0.2C97.9,483,98,483,98.2,483.1L98.2,483.1z"/>
<path class="st10" d="M246.1,405.4c-3.3-1.6-3.4-4.6-3.5-7.7c-0.2-4.2,1-8.7-1.9-12.5c-1.6-2.1-3.1-4.1-6-2.8s-3,4.1-2.1,6.4
	c2.2,6,1.8,12.1,1.7,18.2c-0.1,3.1-0.9,6.1-2.3,8.9c-0.9,1.8-1.8,4-4.3,3.3c-2.4-0.7-2.9-3.2-2.4-5.4c0.8-3.5,0.7-7,0.8-10.6
	c0-0.9,0.1-1.9-0.1-2.8c-0.5-2.7-1.6-5.4-4.5-5.8c-3-0.4-4,2.4-4.8,4.7c-1.3,3.7-1.4,7.5-1.8,11.4c-0.7,6.1-2.5,11.7-6.2,16.7
	c-1.1,1.4-2.2,2.6-4.5,2.7c13.3-34,7.2-63.5-19.9-88.6c3.7-2.1,6.5-0.7,9.1,1.6c9.4,8.1,15.9,18.1,19.8,29.9
	c0.4,1.2,1.1,2.2,1.6,3.3c1.2,2.6,3.3,3.1,5.8,2.5c2.4-0.5,3.6-2,3.9-4.5c0.6-5.1-1.3-9.3-4-13.4c-1.7-2.5-3.5-5-3.8-8.2
	c-0.3-3.7,1.1-6.7,4.7-7.4c3.9-0.8,6,2.3,6.5,5.6c0.8,4.8,2.6,9.2,4.4,13.5c0.8,1.9,2.1,5.3,5,4.5c2.7-0.7,2.1-3.9,1.8-6
	c-1-9-4.1-17.3-9.7-24.5c-0.9-1.1-1.8-2.1-2.7-3.2c-2-2.3-3.2-5-0.3-7.1c3.1-2.3,5.3,0,7.2,2.6c3.7,5,5.5,10.9,8.2,16.4
	c2.4,4.7,3.5,9.9,4.6,15c0.5,2.4,1.3,4.9,4.3,4.1c2.8-0.7,3.3-3.1,2.8-5.9c-0.6-3.5-2.9-6.5-2.5-10.2c0.2-1.5-0.2-3.3,1.7-3.8
	c2.1-0.6,3.2,1.1,3.8,2.7c1.4,3.8,2.2,7.7,1.9,11.8c-0.4,6,0.8,11.6,3.5,17c4.4,9,6.1,18.7,6.2,28.6c0,2.4,0.6,5.6-3.1,5.5
	c-3.6,0-3.8-3.1-3.6-5.8c0.4-6.7-1-13.2-2.7-19.6c-0.5-1.9-1.1-3.8-2.5-5.4c-1.3-1.4-2.8-2.5-4.8-1.8c-2.2,0.8-2.4,2.7-2.1,4.6
	c0.3,2,0.7,3.9,1.1,5.9C251.2,395.5,249,400.6,246.1,405.4z"/>
<path class="st11" d="M110.3,323.9c2.8-0.6,6.6-1.4,10.3-2.3c1.7-0.4,3.4-0.7,5-0.4c1.8,0.3,3,1.4,3.1,3.4c0.1,2.2-1.5,1.9-2.8,2.1
	c-16.5,3.3-30.5,11-41.7,23.6c-0.6,0.7-1.3,1.8-2.2,1c-0.5-0.4-0.6-1.7-0.5-2.6c0.7-4.7,4-7.8,7.3-10.9c1.9-1.8,4.3-3,6.1-4.9
	c2.1-2.3,2.9-5.2,0.5-7.8c-2.3-2.5-4.7-1.2-7,0.4c-2.4,1.7-4.6,3.6-7.6,4.3c-1.3,0.3-2.4,0.6-3.4-0.6c-1.1-1.3,0-2.4,0.7-3.3
	c3-3.7,6.9-6.1,11.1-8c4.1-1.9,7.8-4.2,9.9-8.5c1.1-2.2,1.3-4.1-0.6-5.9c-1.9-1.8-3.9-1.3-5.9,0.1c-3,2.1-6,4.3-9.7,5.2
	c-1.5,0.4-3.8,0.9-4.6-0.9c-0.7-1.5,0.5-3.1,1.6-4.4c1.6-1.8,3.8-2.5,5.7-3.9c1.7-1.3,4.2-2.6,2.8-5c-1.5-2.6-4-1.3-6.1-0.3
	c-6.1,2.9-11.2,6.9-14.1,13.2c-0.3,0.7-1,1.2-1.3,1.9c-1.3,2.7-4,3.5-6.1,2.5c-2.7-1.3-2-4.1-0.9-6.5c2.2-4.9,5.8-8.7,9.9-12
	c5.4-4.4,11.7-6.4,18.4-7.6c9.6-1.7,18.6-4.9,26.9-10.1c2.8-1.7,5.8-2.8,8.8-3.9c2.3-0.9,3.9-0.5,5,1.7c1.2,2.3-0.7,3.6-2.1,4.5
	c-3.1,2-6.8,2.6-10.5,3.3c-6.6,1.3-12.6,3.6-18.1,7.5c-1.7,1.2-2.8,2.6-2,4.6c1,2.4,3.3,2.1,5.2,1.6c3.1-0.7,6.1-1.8,9.2-2.8
	c2-0.6,3.9-0.4,4.7,1.6c0.9,2.4-1.5,2.5-2.9,3.2c-1,0.5-2,0.8-2.9,1.4c-2.3,1.6-4.5,3.6-3,6.5c1.3,2.5,4,1.3,6.2,0.6
	c1.5-0.5,3-0.7,4.4-1.3c2.6-1,4.8-0.4,5.6,2.2c0.9,2.8-1.5,3.7-3.5,4.6c-3.4,1.4-7,2.3-10,4.5c-1.1,0.8-2.3,1.6-3.1,2.7
	c-0.9,1.2-2.1,2.5-1.5,4.1C105.8,324.2,107.7,324,110.3,323.9z"/>
<path class="st4" d="M105.7,460c-19.6-10.1-31.4-26.4-35.9-47.6c-7.8-36.9,14.5-72.3,51-82.3c38.8-10.7,79.8,15.2,86.6,54.8
	c2.7,15.5,1.6,30.5-6.6,44.5c-1.6,0-2.2,1.1-2.9,2.3c-0.6,1-1.3,1.2-1.6-0.2c0.4-1.1,0.5-2.4,1.1-3.4c6.2-12.1,8.1-24.8,6.5-38.3
	c-4-33.6-32.2-58.5-66.1-58.7c-41-0.2-74.3,39-64,83.1c4.6,19.7,16.4,34,33.6,44.1C106.8,458.8,106.3,459.4,105.7,460z"/>
<path class="st3" d="M196.3,431.5c0.3,1.5,1,1.2,1.6,0.2c0.7-1.2,1.3-2.3,2.9-2.3c-5.1,12.3-13.9,21.5-25,28.1
	c-22.8,13.7-46.3,15-70.1,2.4c0.6-0.6,1.2-1.1,1.7-1.7c0.8,0.3,1.7,0.6,2.5,1c19.8,9.1,39.5,8.7,58.9-1.2
	C180.7,452.1,189.3,442.5,196.3,431.5z"/>
<path class="st11" d="M246.1,405.4c2.9-4.9,5.1-9.9,4-15.8c1.5,4,1.1,8.2,0.6,12.3C250.4,403.9,249.9,407.4,246.1,405.4z"/>
<path class="st8" d="M184.1,520.5c0.8-4.8,3.5-9,6.7-13c3.3-4,6.9-7.9,9.1-12.7c0.7-1.5,2-3.6-0.3-4.9c-2-1.2-3.6,0.2-4.8,1.5
	c-1.5,1.7-2.8,3.7-4.3,5.4c-0.8,0.9-1.8,2.5-3.4,1.4c-1.5-1-1.5-2.4-1.1-4.1c0.4-1.8,1.4-3.2,2.7-4.2c3.7-2.9,6.5-6.5,8.5-10.7
	c0.5-1.1,1.3-2.2,2.2-2.9c0.8-0.6,1.9-2.2,3.1-1c0.9,0.9-0.2,1.9-0.7,2.8c-1.3,2-4.6,4.3-1.6,6.5c2.9,2.1,4.9-1.2,6.7-3.3
	c5.1-5.9,9.6-12.4,16.7-16.4c0.9-0.5,1.9-1,2.9-1.5c1.2-0.6,2.7-1.5,3.8-0.2c1.1,1.3,0,2.7-0.9,3.7c-2.9,2.9-6.1,5.6-9.1,8.5
	c-2,1.9-5.6,4.6-3.6,6.9c2.6,2.8,5.1-1.1,7-3.1c5.1-5.3,11.2-9.2,17.7-12.3c2.4-1.1,5.9-3,7.4,0.2c1.4,3.2-2.5,4-4.7,5
	c-3.6,1.7-7.4,2.9-10.7,5.3c-1.5,1.1-3.3,2.3-2.1,4.4c1.3,2.3,3.2,0.9,4.8,0c1.7-1,3.5-2,5.3-2.9c1.7-0.8,3.8-0.6,4.6,0.8
	c1.1,2-1.1,3-2.4,3.7c-5.1,2.6-10,5.4-13.1,10.5c-0.7,1.2-1.2,2.5-2,3.6c-0.8,1-1.5,3.3-3.4,1.9c-1.6-1.2,0.3-2.5,0.8-3.5
	c0.7-1.4,1.9-2.4,2.7-3.7c1.1-1.7,1.4-3.5-0.3-5c-1.7-1.4-3,0.3-3.9,1.1c-4.2,3.7-7.4,8.2-10.2,13c-1.7,2.9-3.5,5.8-5.9,8.2
	c-1,1-2.2,2.6-3.4,1.7c-1.7-1.2,0-3,0.7-4c2.6-3.6,5.6-7,8.4-10.4c0.8-1,1.7-1.9,2-3.1c0.6-2.6-0.1-5-2.4-6.5
	c-2.3-1.6-4,0.1-5.6,1.5c-0.5,0.4-1,0.9-1.2,1.4c-3.9,11.7-15.8,18.7-18.2,31.2c-0.3,1.4-0.9,2.9-2.7,2.3
	C183.9,523.6,184.2,522.1,184.1,520.5z"/>
<path class="st6" d="M230.8,470.4c-0.4,0.8-1.1,0.8-1.8,0.4c0.3-0.4,0.6-0.8,0.9-1.2C230.2,469.9,230.5,470.1,230.8,470.4z"/>
<path class="st12" d="M190.3,234.4c0.9,1.8-0.5,3.4,0.8,4.9c2.2-0.5,1.5-2.4,1.6-3.7c0.4-2.9,2.6-3.9,4.9-4c2.5-0.1,4.4,1.5,4.4,4.3
	c0,1.8-0.2,3.7-0.2,5.5c0,0.7-0.2,1.7,0.8,1.9c0.9,0.2,1.5-0.5,1.7-1.2c0.4-1.5,1.1-3.1,0.8-4.5c-0.5-2.7,1.4-3.3,3-3.9
	c2.1-0.8,3.5,0.7,4.5,2.3c1.7,2.6,0.8,5.3,0.3,8.1c-0.2,1.2-1.6,3,0.4,3.6c2.1,0.6,2-1.7,2.5-3.1c0.4-1.2,0.8-2.4,0.8-3.6
	c0-2.1,0.9-3.3,2.8-3.6c2.2-0.3,3.8,0.8,4.8,2.8c1.1,2.3,0.5,4.5-0.1,6.7c-0.3,1.1-1.5,2.6,0.1,3.2c1.8,0.7,2.2-1.3,2.5-2.5
	c0.7-2.2,0.9-5.2,4-4.6c3,0.6,2.6,3.7,2.7,6.1c0,0.6-0.1,1.2,0,1.8c0.1,1.7-2.3,4.1,0.2,4.8c2.3,0.7,2-2.4,2.7-3.9
	c0.8-1.8,2.5-1.7,3.9-1.4c1.7,0.4,2.3,2,2.3,3.6c-0.1,2.4-2.8,4.6-0.4,7.3c0.3,0.3-1.2,1.3-2.1,1.1c-1.3-0.3-2.8-0.8-2.4-2.7
	c0.3-1.2,2.4-2.3,0.5-3.4c-1.5-0.9-2.3,1-3.3,1.8c-2.2,1.7-3.6,0.1-5.3-1c-2-1.3-1.4-2.7-0.3-4.2c0.5-0.7,0.9-1.6,1.3-2.4
	c0.3-0.7,0.3-1.7-0.4-2.1c-0.7-0.4-1.5,0.1-1.9,0.8c-0.9,1.3-1.5,2.7-2.6,3.8c-1.2,1.2-2.8,2.3-4.5,0.9c-1.5-1.2-3.3-2.6-1.7-5
	c0.3-0.5,0.6-1.1,0.8-1.7c0.3-1.3,1.3-3-0.4-3.6c-1.6-0.6-1.6,1.4-2.2,2.4c-1.1,1.9-1.5,4.6-4.6,4.4c-3.5-0.2-4.9-2.6-3.8-6.3
	c0.3-1.1,1.5-2.6,0.1-3.3c-1.9-1-2.2,1.1-2.7,2.2c-1.4,3-3,5-6.8,3.4c-2.6-1.2-4.1-2.5-2.5-5.6c0.6-1.1,0.8-2.3,1.1-3.5
	c0.2-0.8,0.1-1.7-0.6-2c-1.2-0.5-1.5,0.6-1.9,1.5c-0.5,1.3-1,2.6-1.5,3.9c-0.7,1.9-1.9,3.2-4.2,2.6s-2.6-2.4-2.3-4.4
	C188.3,237.2,188.4,235.4,190.3,234.4z"/>
<path class="st5" d="M241.8,248.2c0.3-0.1,0.5-0.1,0.8-0.2C242.4,248.4,242.2,248.6,241.8,248.2z"/>
<path class="st8" d="M323.7,520.2c-9-0.1-14.4-9.1-9.3-17.7c2.3-3.8,5-7.4,7.7-10.9c7.1-9.2,12-19.6,15.9-30.4
	c1-2.9,2.4-5.7,3.9-8.3c3-5,7-6.8,11.9-5.9c5.4,1,8,4.1,9.3,10c1.3,6,0.2,11.7-1.5,17.3c-4.4,15-12.3,28.1-23.2,39.3
	C334.8,517.4,330.6,520.6,323.7,520.2z M333.6,480c1.7,2.4-0.3,2.8-1.8,3.6c-1,0.6-2.1,1.5-2.6,2.6c-1.6,3.5-2.8,7.2-7.1,8.8
	c-1.3,0.5-1.9,2.4-1.9,4c0.1,2.1-0.9,3.2-2.6,4.3c-4.8,3.3-5,7.8-0.9,12c4.7,4.8,8,4.1,14.3,1c5.7-2.8,6.7-9.5,12.4-11.9
	c0.9-0.4,1.7-2.1,1.6-3.1c-0.2-3.2,2.5-4.7,3.4-7c2.2-5.5,5-10.5,8.6-15.2c1.1-1.5,0.7-3.9,0.3-5.9c-0.2-1-1.1-1.8,0.1-2.9
	c2.6-2.3,4.4-5.2,3.9-8.9c-0.5-3.5-2.8-6.2-4-9.4c-1.1-3-4.6-2.9-7.6-1.5c-3.7,1.7-2,6.7-4.5,8.2c-3.2,2-5.2,4-5.5,7.7
	c0,0.6-0.3,1.3-0.1,1.8c0.6,2.1,0,3.4-2.1,4.4C334.4,474.1,334.1,477.1,333.6,480z"/>
<path class="st0" d="M299.3,324.8c-8-7.4-10.7-16.6-8.5-27.1c1.6-7.5,7.2-12.8,14.2-14c6.9-1.1,15.9,3.4,19.8,10.2
	c1.7,3,4,5.8,4,9.6c0.1,0.3,0.2,0.5,0.4,0.8c0.1,1.3,0.3,2.6,0.4,3.8c-3.1,1.4-2.8,4.6-3.6,7.1c-2.4,7.7-8.9,11.8-17,11
	C305.6,325.9,302.7,323.8,299.3,324.8z"/>
<path class="st1" d="M299.3,324.8c3.4-1,6.3,1.1,9.6,1.4c8.1,0.8,14.6-3.3,17-11c0.8-2.5,0.5-5.7,3.6-7.1c1,9.2-2.8,17.4-9.6,20.8
	C313.5,332.2,305.8,330.7,299.3,324.8z"/>
<path class="st1" d="M329.1,304.3c-0.1-0.3-0.2-0.5-0.4-0.8C328.9,303.8,329,304,329.1,304.3z"/>
<path class="st0" d="M5.5,370.3c-3.6-3.8-4.1-8.5-3.2-13.3c2.5-13.5,17.1-23.5,30.7-21c5.4,1,9.7,3.8,11.6,9.3
	c-1.8,2.9-3,5.8-3.9,9.1c-3.3,12.1-14.4,18.4-26.7,16.1C11.2,370,8.3,368.2,5.5,370.3z"/>
<path class="st1" d="M5.5,370.3c2.8-2.1,5.7-0.3,8.4,0.2c12.3,2.3,23.4-4.1,26.7-16.1c0.9-3.3,2.2-6.3,3.9-9.1
	c2.4,4.2,1.7,8.6,0.3,12.8c-4.4,12.8-18.7,20.8-31.1,17.6C10.3,374.8,7.4,373.4,5.5,370.3z"/>
<path class="st0" d="M238.7,566.5c-14.1,0.1-24.1-11.6-20.1-23.7c3-9,12.6-14.5,23.3-13.3c9.3,1,16.7,8.1,17.6,16.8
	C260.6,557.2,251.2,566.4,238.7,566.5z"/>
<path class="st8" d="M82.4,539.7c-5-4.6-8.3-10.2-9.7-16.8c-0.9-4.3,0.8-7.9,4.3-10.4c3.3-2.5,6.9-3.2,10.7-1.1
	c2.8,1.6,5.6,3.4,7.8,5.7c9.1,9.8,19.8,17.5,31.8,23.3c2.2,1.1,4.4,2.3,6.3,3.8c3.2,2.6,6.4,5.3,4.8,10.3
	c-1.9,6.2-5.3,9.5-10.6,10.1c-5.7,0.6-11-0.9-16-3.4C100.8,555.7,90.3,549.4,82.4,539.7c2.5,0.2,4.4,2.7,7.3,1.9
	c0.9-0.3,0.9,1,1.2,1.6c1.2,3.1,3.5,5.1,6.8,5.5c1.2,0.2,1.8,0.5,2.3,1.7c1.5,4.1,4.3,5.1,8.8,5.5c2.9,0.2,4.9,5.8,9.4,4.9
	c2.1-0.4,3.5-0.2,5.1,1.4c3,3,6.1,1.1,8.5-1.2c2.6-2.5,4.3-5.7,1.9-9c-1.1-1.5-2.4-2.9-3.1-4.8c-1.4-3.8-5.8-1.9-7.7-3.6
	c-2.1-2.1-2.6-6-6.6-5.9c-2.8,0.1-4.6-0.4-6.5-3.3c-2-3.1-5.9-5.7-8.8-7.3c-3.8-2.1-6-4.3-7.6-8c-0.8-2-2.8-3.3-5.2-3.2
	c-1.1,0.1-1.7-0.3-2.4-0.9c-3.2-3.1-6.2-1.6-8.9,0.8c-1.9,1.6-3.3,4-2.6,6.1c1.2,3.8,2.6,8.1,5.4,10.5
	C82.5,534.8,82.5,536.9,82.4,539.7z"/>
<path class="st13" d="M27.9,435.1c-0.2,2.6-1.5,4.1-3.7,4.1c-2.3,0-3.7-1.5-3.7-3.8s1.6-3.6,3.9-3.5C26.6,432,27.7,433.3,27.9,435.1
	z"/>
<path class="st12" d="M32.2,421.4c2.2,0.3,3.6,1.5,3.6,3.6c0,2.4-1.6,3.5-3.9,3.5c-2,0-3.1-1-3.2-3.1
	C28.7,422.9,30.1,421.8,32.2,421.4z"/>
<path class="st13" d="M18.6,420c2.6,0.1,3.8,1.4,3.8,3.8c-0.1,2.2-1.3,3.5-3.4,3.5c-2.4,0.1-3.8-1.3-3.9-3.6
	C14.9,421.4,16.4,420.2,18.6,420z"/>
<path class="st13" d="M5.9,418.3c2.3,0.4,3.7,1.7,3.5,4.1c-0.2,2.1-1.5,3.3-3.7,3.4c-2.4,0-3.8-1.4-3.7-3.7
	C2,419.7,3.6,418.5,5.9,418.3z"/>
<path class="st12" d="M13.2,407.4c2.3,0.4,3.6,1.5,3.5,4c-0.1,2.3-1.3,3.2-3.5,3.1c-2.1-0.1-3.6-1.1-3.6-3.2
	C9.5,409,11.1,407.8,13.2,407.4z"/>
<path class="st13" d="M29.9,412.8c-0.3,2.2-1.6,3.7-3.9,3.5s-3.8-1.8-3.5-4.1c0.2-2.2,1.8-3.5,4.2-3.3
	C28.9,409.2,29.9,410.5,29.9,412.8z"/>
<path class="st12" d="M9.9,438.3c-1.8-0.4-3.3-1.3-3.3-3.6c0-2.4,1.4-3.6,3.7-3.6c2.3,0,3.3,1.3,3.4,3.4
	C13.9,437.1,12.2,437.9,9.9,438.3z"/>
<path class="st2" d="M196.3,431.5c-7,11-15.6,20.5-27.4,26.6c-19.4,9.8-39.1,10.3-58.9,1.2c-0.8-0.4-1.7-0.7-2.5-1
	c-17.3-10.1-29-24.4-33.6-44.1c-10.3-44.1,23-83.3,64-83.1c33.9,0.2,62.1,25.1,66.1,58.7c1.6,13.5-0.3,26.2-6.5,38.3
	C196.8,429.1,196.7,430.4,196.3,431.5z M110.2,387.8c0.1,0.1,0.1,0.2,0.2,0.4c0.1-0.1,0.2-0.3,0.3-0.4
	C110.5,387.7,110.4,387.7,110.2,387.8c-0.1-0.4-0.2-0.7-0.4-1c-0.1,0.1-0.2,0.2-0.3,0.3C109.7,387.3,109.9,387.5,110.2,387.8z
	 M107.9,390.1c-0.3-0.3-0.6-0.7-0.8-1c-1.4-2.3-3.7-3-6.2-3.2c-1.3-0.1-2.6,0-2.6,1.7s1.4,1.2,2.4,1.1c2-0.2,3.9,0.4,5.7,1
	c0.3,0.3,0.7,0.5,1,0.8c0.3,0.7,0.9,1.5,1.4,0.9C109.5,390.8,108.5,390.4,107.9,390.1z M129.7,455.3c1.2-1.9,2-4.6,3.7-5.6
	c5.3-3,7.8-7.5,8.9-13.2c0.2-0.9,1.7-1.6,0.9-2.8c-0.2-0.4-1.1-0.5-1.6-0.4c-1.2,0.4-1.4,1.5-1.6,2.6c-1.7,9.1-1.7,9.2-10.7,10.7
	c-3.1,0.5-4.2,1.3-1.5,3.7C129.3,451.8,129.6,453.4,129.7,455.3c-0.7-0.1-0.8,0.1-0.4,0.7C129.4,455.8,129.5,455.6,129.7,455.3z
	 M181.2,440.5c1.7-0.5,2.6-2.4,4.4-1.6c1.1,0.5,2.5,1.3,3-0.5c0.6-1.9-1-2.9-2.4-3.3c-2.4-0.6-4.3-1.8-5.2-4.1
	c-0.9-2.3,0.1-4.2,1.7-5.9c0.9-1,2.4-1.5,3.3-0.4c3,4.3,6.9-0.9,10.1,1.1c0.1,0,0.6-0.6,0.9-0.9c4.4-5.8,3.7-11.3-1.9-16.2
	c-2.5-2.2-4.2-4.5-0.6-7.6c2.2-1.8,0.3-3.6-1.2-4.9c-2-1.7-4-3.3-4.6-6.1c-0.6-2.7-1.3-5.5,1.6-7c3-1.6,4.2,1.3,5.7,3.2
	c0.7,0.9,1,3.1,2.9,2c1.1-0.6,2.7-1.3,2.3-3.1c-0.4-1.5,0.3-3.4-2.4-3.8c-3.4-0.5-5.5-4.2-9.6-3.6c-1.7,0.2-2.1-2.4-1.3-4.5
	c2.1-5.3,1.5-6.4-4.2-7.9c-2.5-0.7-4.6-1.7-2.7-4.8c1.7-2.8-2.2-6.6,1.6-9.1c0,0-0.4-0.8-0.6-1.1c-1.3-1.4-2.6-2.6-4.8-1.5
	c-2.2,1.1-2.4,2.6-1.4,4.5c1.5,3.2,2.2,6.7-0.4,9.5c-2,2.1-2.1,4.2-1.9,6.7c0.2,4.4-1.7,8.1-5.1,10.9c-1.4,1.1-3.3,2.2-5.1,0.7
	c-1.8-1.4-1.2-3.3-0.5-5.1c0.3-0.7,0.6-1.4,1.1-2c2.3-3.1,2.1-5.7-1.6-7.4c-2.7-1.3-2.2-3-0.5-4.7c1-1,2.3-1.5,3.4-2.4
	c1.7-1.3,1.4-3.1,0.3-4.5c-1.1-1.5-2.6-0.6-3.6,0.3c-1.1,0.9-1.9,2-2.8,3c-0.9,1-1.9,1.7-3.2,1.2c-1.6-0.6-1.8-2-1.6-3.5
	c0.3-2.7,1.6-4.9,3.5-6.9c1.7-1.8,3.9-4.4,2.2-6.5c-3-3.7-4.5-9.7-11.2-9.1c-1,0.1-2.1-0.3-3.2-0.4c-3.8-0.5-7.4,2.4-7.4,6.2
	c0,2.9-1,5.4-3.9,6.1c-2.9,0.7-4-1.8-4.8-4c-1.2-3-3.6-2.7-5.8-1.9c-2.5,0.8-3.7,2.9-2.8,5.5c0.6,1.7,1.7,3.2,2.6,4.9
	c2.6,5,3.7,10.2,1.5,15.6c-0.8,1.9-2.2,3.7-4.5,3.2c-2.1-0.4-3.4-2.1-3.5-4.3c-0.1-1.7,0.2-3.4,0.3-5.1c0.1-2.2,0.4-4.3-3.1-2.6
	c-1.3,0.7-3.2,0.8-4.2-0.7c-1-1.6-0.5-3.2,0.5-4.7c2.3-3.7,2-7.3-1-8.6c-3.7-1.6-6.3,0.3-8.5,3.5c7.3-0.5,7.2-0.5,5.8,5.9
	c-0.2,1,0.1,2.1,0.1,3.2c0.1,1.5-0.1,2.9-1.6,3.6c-1.4,0.7-2.7,0.2-3.8-0.9c-2-2-4.2-2.3-6.7-0.9c-0.9,0.5-2,1.2-3,0.6
	c-1.8-1.1-3-1.1-4.2,0.8c-0.8,1.3,0.2,1.9,0.7,2.8c1.2,1.9,2.5,1.1,4,0.5c7.3-2.8,11.6,0.1,12.1,7.9c0.1,1.5-0.3,3.4,2.2,3.1
	c4.7-0.4,7.9,1.9,10.6,5.4c0.5,0.6,1,1.3,1.8,0.6c0.7-0.7,0.3-1.4-0.2-2c-0.3-0.4-0.6-0.7-0.9-1.1c-1-1.1-2.6-2.3-1.2-3.9
	c1.5-1.8,3-0.4,4.5,0.3c2.1,1,4.4,1.7,6.7,2.5c0.2-2.2-0.2-4.2,0.6-5.5c3.8-6,1.6-11.5-0.9-17.1c-0.8-1.8-2.6-4.3,0.1-5.7
	c2.6-1.4,3.9,1.5,5.5,3.1c0.4,0.4,0.5,1.1,0.8,1.6c0.7,1.1,0.7,3.1,2.4,2.8c1.3-0.3,2.3-1.8,2.1-3.3c-0.4-3.2,1.9-3.3,3.9-4.5
	c3.4-1.9-2.6-3.9-0.5-6.2c0.3-0.3,0.5-0.8,0.8-1.1c1.6-1.8,3.7-2.3,5.9-1.7c2.3,0.6,4.2,1.8,4.7,4.5c0.8,4.5-1.1,8.1-3.4,11.6
	c-1.7,2.5-3.7,4.9-5.3,7.6c-1.1,1.7-1.5,5.3-0.1,5.4c3.5,0.1,6.2,1.4,9.3,2.7c2.8,1.1,6.2,2.6,4.4,5.2c-3,4.3-0.3,6.1,1.9,9.2
	c3.3,4.7,7,1.2,10.5,1.4c3,0.2,3.3-2.9,3.9-5c0.8-2.8,1.2-5.8,2.9-8.2c1.1-1.6,2.6-2.7,4.7-2.3c2,0.5,2.6,2.2,2.8,3.9
	c0.4,5.1,0.9,10.3-3.1,14.4c-2,2.1-2,2.8,1,3.8c5.2,1.7,7.1,6.1,4.9,11c-1.1,2.6-0.4,3.8,1.7,5.3c2.9,2,5.7,4.4,6.5,8.1
	c0.5,2.1,2,4.8-1,6.1c-2.5,1.1-4.4-0.6-5.8-2.7c-1.4-2.2-3.1-3.7-5.6-4.6c-4.2-1.5-5.7-4.3-4.5-8.7c0.4-1.4,0.4-3.1,0.2-4.6
	c-0.7-3.8-3.8-5.4-7.2-3.4c-1.5,0.9-3.2,0-5.4,1.4c2.7,0.4,4.3,1.6,6.4,0.2c1.5-1,3-0.5,4.1,0.9c1.2,1.6,1.7,3.4,0.3,5.1
	c-1.1,1.3-2.5,2.3-3.6,3.6c-2.5,2.9-2.1,4.8,1.3,6.3c1,0.4,2.1,0.6,3.1,0.9c2.3,0.7,4.4,1.8,3.4,4.5c-1,2.6-3.2,4.1-6.3,3.1
	c-1.3-0.4-2.5-1.2-3.9-1.5c-5.7-1.2-9.7,2.4-9.4,8.4c4.5-7.8,10.8-7.9,15.6,0.2C178.8,433.8,179.8,437.1,181.2,440.5z M134.4,378.1
	c2.2,6.5,2.5,11.6-0.8,16.2c-0.9,1.2-1.5,3.6-3.8,2.4c-1.8-1-2.3-2.9-1.9-4.8c0.2-1,0.6-2.1,1.1-3c1.3-2.1,0.6-4.7-1-5.2
	c-2.8-0.8-5.2-4.1-8.5-2.5c-3.8,1.9-3.7,4,0,6.1c6.6,4,7.1,7,2.2,12.6c-1.3,1.4-1.6,2.9-1,4.6s-0.5,2.7-1.7,3.3
	c-1.4,0.7-2.3-0.3-3.1-1.3c-2.4-3-3.1-6-0.1-9.1c1.6-1.7,1.6-3.5-0.3-4.7c-1.9-1.2-4.3-0.8-5.1,1.3c-1.3,3.4-2.1,7.1-1.5,10.8
	c0.1,0.7,0.5,1.4,0.7,2.1c4.1-1.5,5.1,6.2,9.8,3.3c0.7-0.4,1.6,0.8,1.8,1.7c0.6,2.6,1,5.2-2.8,5.4c-2.4,0.2-2.5,2.1-2.7,3.6
	c-0.3,1.8,1.2,2.9,2.5,3.5c2,0.9,1.8-1.6,2.7-2.2c3.2-2.2,4.3-5.2,4-8.9c-0.1-2.1,1.1-3.8,2.4-5.4c0.8-0.9,1.7-2,3.1-1.5
	c1.6,0.5,2,1.9,1.8,3.3c-0.2,2.1-1.6,4.6-0.8,6.2c1.8,4,1.2,6.8-2.1,9.6c-1.4,1.2-1.3,3.5,0.1,4.9c1.2,1.1,4,1.2,4.2,0.5
	c0.7-3.2,6-4.6,3.3-9c-0.6-1-0.3-2.5,1-3.2c1.5-0.8,2.7,0.1,3.6,1.1c0.7,0.8,1.2,1.8,1.7,2.7c0.6,1.1,1,2.5,2.6,2.1
	c1.5-0.4,2-1.8,2.2-3.2c0.2-2.1-0.1-4.3,0.8-6.4c0.6-1.4,1.5-2.3,3.1-2.3c1.7,0,2.4,1.2,2.6,2.7c0.3,1.8,0.4,3.6,0.7,5.5
	c0.2,1.2,0.6,2.9,2.3,1.4c2.3-2.1,4.7-4.5,4.7-7.6s-3.3-3.6-5.8-4.3c-0.9-0.2-1.8-0.3-2.7-0.6c-2.2-0.9-4.1-2.2-4.7-4.7
	c-0.3-1.3-0.6-2.8,0.7-3.9c1.4-1.1,2.3,0.2,3.3,0.7c1.9,0.9,3.7,3,5.8,1.5c1.8-1.3,2.9-3.5,5.6-2.7c0.8-2.7-0.5-5.1-1.2-7.6
	c-0.9-2.9-2.7-5.1-4.2-7.6c-1.6-2.6-3.5-1.4-5-0.4c-2.6,1.7,0.2,2.3,0.9,3.3s1.7,1.8,2.3,2.9c1.5,2.8,2.1,6.1-0.9,7.9
	c-3.4,2-3.8-1.7-5-3.6c-0.9-1.4-3.5-3.2-3.6-1.8c-0.3,3.8-4.9,6.1-2.9,10.5c1.3,2.8,2.2,5.8,0.9,9c-0.6,1.6-1.4,3.4-3.5,3
	c-2-0.4-2.5-2.1-2.4-3.9c0.1-2,0.6-4.1-0.9-5.8c-3.2-3.6-5.4-7.2-1-11.5c0.4-0.3,0-1.5-0.1-2.2c-0.5-3.4,0.5-5.8,4.4-6.1
	c2.9-0.3,3.5-2.3,3-4.7c-0.3-1.5-1-2.9-0.9-4.5c0.1-0.7,0.2-1.6-0.9-1.8c-1.2-0.2-1.5,0.6-1.8,1.5
	C140.6,380.7,138.4,381,134.4,378.1z M142.5,445.4c-4.2,4-9.3,6.6-11.1,12.2c-0.4,1.3-2.2,1.8-3.6,1.2c-1.2-0.6-1.7-1.7-1.4-3.1
	c0.3-1.2,0.5-2.1-0.4-3.4c-3.9-5.6-2.9-7.5,4-8.1c4-0.3,7.3-1.7,7.8-6.3c0.1-1.3,0.8-3.4-0.5-3.7c-2-0.5-2,1.6-2.4,3.1
	c-1.2,4.6-2.6,5.1-6.2,2.4c-1.3-1-1.9-1.3-2.9,0.2c-1.3,2.1-3.4,2.1-5.4,1.5c-2.4-0.7-1.9-2.8-1.8-4.6c0.1-1.2-0.3-2.2-1.5-2.6
	c-1.1-0.3-1.6,0.6-2.2,1.3c-1.2,1.4-2.3,2.9-3.6,4.2c-3,2.7-6.4,4.3-10.6,2.9c-2-0.7-3-2-2.9-4.2c0.1-2,1-3.3,3-3.3
	c3,0,5.3-0.9,5.7-4.1c0.5-3.4,0.5-6.7-3.5-8.6c-2.8-1.3-3.4-3.3-0.1-4.9c2.8-1.3,3.7-4.1,4.3-6.5c1.3-4.5-3.5-4.4-5.8-6.2
	c-1.3-1-2.7-1-3.7,0.4c-1.2,1.8,1,1.8,1.6,2.5c1.6,1.6,2.8,3.3,1.6,5.7c-1.2,2.5-3.3,2.4-5.5,2c-0.8-0.1-1.5-0.5-2.2-0.6
	c-3.2-0.3-4.7,1.9-6,4.3s-0.9,5,0.7,7c1.9,2.4,3.5-0.4,5.2-0.9c0.6-0.2,1.1-0.5,1.7-0.6c3-0.8,5.8-0.8,6.6,2.9
	c0.7,3.4-1.3,5.3-4.5,5.6c-2.7,0.3-5,1.1-5.4,4c-0.4,3.3-0.9,6.8,2.8,9c1.2,0.7,1.8,1.3,3,0c2.5-2.7,4.8-1.9,7,0.7
	c2.2,2.7,4.1,2.4,5.5-0.8c0.3-0.7,0.6-1.4,1-2.1c1.4-1.9,2.9-3.2,5.5-2.1c2.4,1.1,3,2.9,2.3,5.3c-0.3,0.9-0.5,1.8-0.8,2.6
	c-0.7,2.2-0.9,3.8,2.4,3.7c2.8-0.1,4.2,1.9,3.6,4.6c-0.4,1.8-1.7,3.7,1.5,3.8c2.3,0.1,5.5,2.9,6.6-1.9c0.7-2.9,3-4.7,5.6-5.7
	C144.1,452,144.2,452.1,142.5,445.4z M89.8,441c-0.4-5.1,0.1-8.3,4.1-9.7c2-0.7,6.3,0.1,4.9-3.4c-1.2-3-4.2-0.1-6.2,0.9
	c-2.5,1.2-4.7,1.7-6.5-1c-2.4-3.7-2.7-7.4-0.2-11.2c2.2-3.3,5-5.3,9.3-4.1c1.2,0.3,2.9,1.2,3.6-0.7c0.5-1.5-1-2-2-2.7
	c-3.1-2-3.2-4-0.4-6.4c2.4-2,4.7-1.9,7.1,0c0.8,0.7,2,1.4,2.8,0.1c0.4-0.6,0.4-1.9,0-2.6c-1.6-2.8-7.7-3.7-10.2-1.5
	c-1.4,1.2-2.4,2.8-3.7,4.1c-3.1,3.3-6.6,2.6-8-1.8c-1.3-4.3,0.2-7.5,3.8-10c1-0.7,2.2-1.7,1.4-3c-0.7-1.2-2.3-0.8-3.4-0.5
	c-3.5,0.8-6.1,6.2-5.3,10.7c0.5,3,2.3,5.3,3.7,7.8c1.1,1.9,1.1,3.9-0.4,5.6c-1.5,1.6-3.3,1.4-5,0.1c-0.9-0.7-1.7-1.3-2.8-0.3
	c-0.8,0.7-0.9,1.5-0.7,2.5C78.2,423.7,82.3,432.5,89.8,441z M82.1,367.6c-1.2,0.9-1.5,1.5-0.9,3.1c1.7,4.4,5.6,2.8,8.7,3.7
	c2.7,0.7,4.8,2.2,4.2,5c-0.6,2.9-3.3,2.2-5.4,1.7c-2.2-0.5-4.6-1.3-6.1,0.5c-4,4.4-10.3,7.6-8.6,15.2c0.3,1.3-0.1,2.8,0.1,4.1
	c0.3,3.7-1.2,8.7,5.6,8.2c0.8-0.1,1.7,1.7,2.7,0.5c0.9-1.1,0.2-2.4-0.6-3.4c-1.9-2.3-2.9-5.1-3.4-8c-1.2-7,4.3-14.1,10.4-13.4
	c1.8,0.2,3.3,1,4,2.7c0.6,1.6-0.1,3-1.2,4.2c-1.1,1.1-2.3,2-3.4,3.1c-2,2.1-2.2,4.9-0.3,6.7c2.5,2.4,3.1-1.3,4.2-2.4
	c4.2-4.6,7.3-5.6,11.6-3.5c1.2,0.6,2.5,3.1,3.9,0.5c1.2-2.3-0.7-3.3-2.3-4.2c-1.4-0.8-3-0.9-4.5-0.6c-3,0.5-5.1-0.6-4.9-3.7
	c0.2-3,2-4.9,5.3-4.3c2.5,0.4,4.8,1.2,7.7,1.9c-1.1-3.3-2.7-4.9-6.1-4.8c-4.9,0.1-6.6-1.6-7-6.5c-0.4-4.8-1.5-5.5-5.4-2.6
	c-3.3,2.3-5.3,1.7-6.8-1.8C83,368.9,82.5,368.3,82.1,367.6z M161.8,434.1c1.4,1.1,2.3,1.9,3.2,2.6c3.7,2.8,3.7,4.7-0.4,7
	c-1.6,0.9-1.7,1.9-1.7,3.3c0,1.7,0.1,3.4-0.5,5c-0.5,1.2-0.9,2.4-2.3,2.6c-1.6,0.2-2.5-1-3.2-2.2c-1.4-2.7-1.4-5.7-1.1-8.6
	c0.3-2.9-0.3-5.6-2.7-7.5c-2-1.6-5.1-2.8-6.8-1.4c-1.7,1.3-3.6,3.9-2.6,6.9c5.5-1.7,8,0.3,8.3,6.3c0.1,2.4-0.8,4.5-1.9,6.6
	c-0.4,0.8-1.8,2.1,0,2.6c4.2,1,8.1,4.7,12.8,1.2c1-0.7,2.2-1.1,3.3-1.6c2.2-1,4-1.9,2.5-5c-1.1-2.3,0.9-4.3,2.2-6.2
	c2.5-3.6,1.7-8-1.9-10C167,434.7,164.8,434.1,161.8,434.1z M155.3,372.4c-1.3,0.2-12.4-3-13-3.7c-1.1-1.2-1.6-2.5-1.7-4.2
	c-0.1-3.1,1.3-5.6,3.1-8c2.1-2.7,4.2-5.3,5.7-8.4c0.9-1.8,1.5-3.7,0.9-5.8c-0.6-2.4-2.5-3.2-4.6-2.6c-2.9,0.7-0.6,2.2-0.3,3.4
	c0.5,2.3,0.2,4.3-2.1,5.5c-1.4,0.7-2.3,1.6-2.8,3.3c-1.3,3.9-3.9,6.2-9,4c0.9,2.5,1,4.6,1.1,6.7c0.1,2.8-1.5,4.9-2.5,7.3
	c-0.5,1.2-1.3,3,0.5,3.5c1.6,0.5,3-0.4,2.8-2.6c0-0.5,0-0.9,0.1-1.4c0.4-1.5,0.6-3.2,2.7-3.2c1.8,0,2.4,1.5,2.5,2.8
	c0.1,3.2,2.1,4.1,4.8,4.6c1.9,0.4,4,0.8,5.7,1.8C152.7,377.9,154.4,376.6,155.3,372.4z M193.3,420.7c0.3-5.7-2.5-8.5-5.9-10.8
	c-2.6-1.8-4.2-3.9-3.1-7.4c1.7-5.4,0.9-7.1-4.3-9c-4.4-1.7-4.9-3.1-1.6-6.5c2.8-2.9,3.6-6.4,3.7-10.1c0-1.6,0.3-4-1.5-4.4
	c-2-0.4-2.3,2-2.8,3.5c-0.6,1.7-1.1,3.5-1.5,5.3c-0.9,4.2-3.3,6.5-7.8,6.3c-1.6-0.1-3.5,0-4,1.7c-0.6,2,0.8,3.9,1.8,5.4
	c0.9,1.2,2.9,1.6,4.5,0.2c2.5-2.2,4.8-1.2,7.1,0.5c3.8,2.8,4.2,6.6,3.2,10.8c-0.4,1.8-0.9,4,0.6,4.7
	C186.2,412.9,189.5,416.3,193.3,420.7z M176.1,345.7c-5.8-4.4-11.6-7.7-18.9-9.1c9.9,6.6,3.6,12.5-1.4,19.5c4.8-2.1,8.2-7.3,11.9-2
	c3.3,4.7-0.1,7.8-4.5,10.2c7.9,4.3,4,9.6,1.8,14.9c4.3-2.2,5.8-5.7,5.6-10.1c-0.1-2.1-0.6-4.4,1.3-6c2.6-2.3,2.8-4.8,1.5-7.9
	C171.7,351.4,171.3,347.9,176.1,345.7z M122.5,439.4c2.4-4.1,5.6-5.4,9.1-0.8c1.8-3.8,0.8-5.4-2.7-6.2c-8.3-1.9-14-7.3-18.4-14.4
	c-0.6-1-0.6-2.7-2.5-3.1c-0.3,1.1-0.2,2.4-0.7,2.8c-2.8,2-1.4,3.1,0.4,5.1c4.3,4.9,1.7,13.5-4.3,15c-1.1,0.3-2.9-0.4-2.5,1.6
	c0.3,1.5,1.9,1.3,3.1,1.2c4.4-0.2,6.8-3.3,9-6.4c1.3-1.8,2.8-3.2,5-2.5c2.2,0.6,3.5,2.4,3.5,4.9C121.4,437.3,121,438.3,122.5,439.4z
	 M137.6,333.5c-9.1-0.5-17.5,1.6-25.6,5.1c-1.9,0.8-2.3,1.2-0.6,2.9c4,4.1,4,6.2,0.9,11.4c-0.3,0.5-0.5,1.1,0.2,1.6
	c6.2-2.5,7.7-1.4,7.1,5.3c-0.1,0.8-0.2,1.5-0.3,2.3c-0.2,1.5-0.6,3.7,1.1,4c2.2,0.4,2.1-2.1,2.6-3.6c0.3-1,0.2-2.1,0.2-3.2
	c0-4.4-2.6-7.8-4.4-11.5c-2.2-4.7-1.3-7.8,2.9-10.1c4.1-2.2,7.3-1.2,9.8,3.1c0.5,0.9,0.8,2.4,2.1,2c1.2-0.4,1.9-1.8,1.4-3
	C133.8,336.9,135.3,335.2,137.6,333.5z M112.2,385.5c3.8-4.1,3.6-5.6-0.4-8.5c-1.4-1-3-1.6-4.7-1.4c-4.3,0.5-5.6-1.4-5.5-5.6
	c0.2-5.7-3.3-7.9-8.8-5.9c-2.6,1-4.9,2.1-6.6-1.3c-0.6-1.3-1.4-0.8-2,0.1c-2,2.8,1.4,3.9,2,5.9c0.6,2.1,1.9,0.4,2.8-0.1
	c6.1-3.5,8.8-2,9.2,5.2c0.1,2.1,0.9,4.2,2.9,4C107.1,377,109.6,380.9,112.2,385.5z M186,441.4c-5.7,3-6.8,2.5-8.4-2.6
	c-0.6-1.8-1.2-3.5-1.9-5.2c-1.2-2.6-3.1-4.6-5.7-5.7c-2.3-1-4.1-0.2-4.8,2c-0.9,2.4,1.4,2.1,2.8,2.5c4.4,1.3,6.4,4.4,6.6,8.9
	c0.2,3-1.1,5.3-3,7.5c-0.9,1.1-1.4,2.4-0.3,3.7c1.5,1.8,2.5,0.1,3.4-0.5C178.6,449.2,182.4,446.4,186,441.4z M153.3,461.5
	c-0.5-1.1-1.4-1.3-2.3-1.5c-4.9-1-5.2-1.7-3-6.4c0.7-1.5,1.5-3.1,1.6-4.7c0-2,0.1-5.1-2.5-5.1c-2.3,0-1.7,2.9-1.5,4.6
	c0.5,4.7-1.3,7.4-6.1,7.9c-2.1,0.3-3.8,1.5-4.8,3.2c-1.3,2.1-1.8,4.1,1.9,4.1C142.2,463.6,147.8,463.2,153.3,461.5z M146.6,376.8
	c-1.2,1.9,0.5,3,0.7,4.5c0.3,1.8,1.1,4.4-0.5,5.2c-4.7,2.3-5.8,5.8-7.4,10.6c-1.2,3.9-1.1,5.1,2.2,7.6c-0.9-4.8,2.8-7.5,3.3-11.5
	c0.4-3,4.8-3.2,7.1-0.7c1.1,1.3,2,2.8,3.2,4.4c0.9-2.9-0.1-4.7-1.7-6.4c-4.3-4.4-4.2-5.3,1-9C152.4,379.3,149.6,378,146.6,376.8z
	 M201.6,389.6c-6.4,5.6-7-2.9-10.6-4.1c-1,4.2,1,6.6,3.9,8.8c3,2.3,4.1,5.8,1.6,8.4c-2.4,2.4-1.1,3.2,0.4,4.5c1.3,1.2,2.6,2.4,4.4,4
	C202.4,403.8,203.4,397,201.6,389.6z M116.4,446.4c0.1-0.9-0.2-1.5-1-1.9c-0.9-0.4-1.5,0.1-1.9,0.8c-0.6,0.9-1,1.9-1.5,2.8
	c-2.5,4.2-5.1,4.4-9.6,0.3c-1.1-1.1-2-1.9-3.4-0.5c-1.1,1.1-0.5,1.9,0.5,2.6c5.8,4.3,12.1,7.8,19.1,10c2.2,0.7,2.3-1.1,2.6-2.3
	c0.5-1.4-0.6-1.7-1.8-1.9c-4.8-0.9-5.4-2.2-4-6.8C115.7,448.4,116.1,447.4,116.4,446.4z M199.7,379.6c-3-10.3-7.6-18.2-13.9-25.2
	c-0.4-0.4-1-0.7-1.7-0.3c-0.8,0.5-1.1,1.2-0.6,1.9c1.5,2.2,0.6,4.3-0.4,6.3c8.5,2.1,9.7,4.4,7,13.4
	C194.5,373.1,196,377.3,199.7,379.6z M148.3,432.3c13.1,1.2,8.6,12.2,11.1,20.4c1.7-4.8-1-10.1,5-11.6c0.9-0.2,0.6-1.5-0.1-1.9
	c-5.7-3.3-6.8-8.2-4.7-15.2C155.5,427.5,152,429.7,148.3,432.3z M161.5,421.5c5.3-2.3,9.6-2.5,13.8-0.4c1.1,0.5,2.3,0.4,2.7-0.8
	c0.4-1.4-1.1-1.1-1.8-1.4s-1.5-0.4-2.2-0.7c-5.5-2-6.6-6.1-3.1-10.7c1.2-1.6,3.5-2.4,3.8-5.1c-2-0.2-3.4,1.6-5.1,0.7
	c-2.3-1.2-2.6,0.3-2.6,2C166.9,410.8,164.9,415.7,161.5,421.5z M139.8,421.8c0.1,3.2,0.1,5.8-2.6,7.7c-1.8,1.2-0.3,2,1.1,2
	c5.5-0.1,10.5-1.9,15-5c0.5-0.3,1.2-1.2,1.1-1.3c-2.3-2.8-0.8-6.7-2.9-10.4c-1.4,4.8,0.4,10.2-5.1,12.2
	C142.3,428.4,142.4,423.7,139.8,421.8z M131,393.9c2.5-3.9,4-7.4,2-12c-1.6-3.6,0.3-5.7,4.2-5c0.9,0.2,2.1,1.5,2.3-0.4
	c0.1-1.4-1.3-1.5-2.4-1.4c-3.8,0.2-7.6,0.8-11.1,2.4c-1,0.4-2.4,0.6-2.3,1.8c0.1,1.5,1.6,1,2.6,1.1c4.9,0.9,6.9,4.8,5,9.5
	C130.7,391.1,130,392.2,131,393.9z M103.8,349.9c-6-2.8-10.1-0.7-12.6,5.3c4.3-2,8.4-2.7,12.5,1.5
	C103.7,353.5,103.2,351.3,103.8,349.9z M75.6,385.5c3.7-6.2,8.5-9.2,15.9-6.6c-3.6-4.1-10.1,0-12.2-6.3C77,376.8,76,381,75.6,385.5z
	 M126.1,429.3c-0.5-3.3,1-5.2,2.9-6.9c0.7-0.6,1.9-1.5,1.3-2.2c-2.8-3.2-0.6-6.7-0.7-11.4c-1.7,2.8-2.9,4.7-2.7,6.9
	c0.3,3.2-0.6,5.3-3.3,7.4C120.7,425.3,121.4,427.1,126.1,429.3z M118.8,405.8c-0.9-4,0-6.3,2.3-8.3c2.4-2.1,2.1-4.7-0.4-6.6
	c-1.4-1.1-3.3-1.7-4.8-2.8c-1.1-0.8-2-1.6-2.8,0.2c-0.9,1.9,0.8,1.4,1.7,1.7c4.8,1.9,5.6,4.6,2.5,8.8
	C115.8,401.1,115.5,403.1,118.8,405.8z M184.7,427.3c-1.4,0.5-1.7,1.6-1.3,2.7c1.1,3.3,5.4,2.5,7.2,5.3c0.3,0.4,2-2.6,3.1-4
	c0.6-0.8,1.4-1.8,0.3-2.8c-1-1-2-0.5-2.7,0.4c-1.7,2.5-3.3,1.4-4.9-0.1C185.8,428.3,185.2,427.8,184.7,427.3z M151.9,404.9
	c2.9,4.3,8.8,2.5,11.6,6.7c1.3-2.1,1.6-4.1,1.2-6.1c-0.2-1.1-1.1-2.8-2.4-1.4C159.1,407.8,155.7,406.2,151.9,404.9z M113.4,418.6
	c0.9-2.5,2.6-3.4,4.7-3.7c0.6-0.1,1.3-0.2,1.2-1.1c-0.1-0.8-0.6-1.2-1.2-1c-2.8,0.9-4.2-0.8-5.6-2.8c-0.5-0.7-1.3-1.5-2.3-1.1
	c-1.3,0.6-0.2,1.5,0,2.3C110.6,413.8,111.6,416,113.4,418.6z"/>
<path class="st2" d="M333.6,480c0.4-3,0.8-5.9,3.9-7.3c2.1-0.9,2.7-2.2,2.1-4.4c-0.2-0.5,0.1-1.2,0.1-1.8c0.3-3.7,2.4-5.7,5.5-7.7
	c2.4-1.6,0.7-6.5,4.5-8.2c3-1.4,6.5-1.5,7.6,1.5c1.2,3.2,3.6,5.9,4,9.4c0.5,3.7-1.3,6.5-3.9,8.9c-1.2,1.1-0.3,1.9-0.1,2.9
	c0.5,2,0.9,4.4-0.3,5.9c-3.6,4.7-6.4,9.7-8.6,15.2c-0.9,2.3-3.7,3.8-3.4,7c0.1,1-0.8,2.8-1.6,3.1c-5.6,2.4-6.7,9.1-12.4,11.9
	c-6.3,3.1-9.6,3.8-14.3-1c-4.1-4.2-3.9-8.6,0.9-12c1.7-1.2,2.7-2.2,2.6-4.3c-0.1-1.6,0.6-3.5,1.9-4c4.2-1.6,5.5-5.2,7.1-8.8
	c0.5-1,1.5-2,2.6-2.6C333.3,482.8,335.3,482.4,333.6,480z M331.4,509.4c-1.9,1.4-3,0.3-4.3-0.6c-1.6-1.2-3.2-2.5-5-3.3
	c-3-1.5-6.1,0.8-5.7,4c0.5,4.6,6.5,7.9,11,6c-0.2-0.4-0.4-0.8-0.7-1.1c-1.5-1.8-6.1-2.4-4.5-5c1.1-1.7,4.5,1.5,6.3,3
	c2.2,1.9,3.3,0.6,4.6-0.6c1.8-1.5,2.3-3.2,0.7-5.2c-1.6-2-4-2.9-6.1-4.1c-0.8-0.4-1.9-0.9-1.4-2c0.5-1.3,1.8-1.1,2.7-0.5
	c2.1,1.2,4.6,2,6.1,4c1.4,1.8,2.7,1.4,4.3,0.3c3.4-2.5,3.8-5.5,1.1-8.6c-1.3-1.6-3.1-2.5-4.9-3.4c-1.2-0.6-3.1-1-2.2-2.8
	c0.9-1.7,2.5-0.3,3.7,0.2c2,0.8,3.9,1.9,5.3,3.6s2.5,1.1,3.7-0.3c3.1-3.5,2.5-8.5-1.4-11.2c-1-0.7-2.2-1.2-3.2-1.8
	c-0.9-0.5-2.2-1-1.4-2.4c0.7-1.2,1.9-0.6,2.9-0.2c2.2,1,4.6,2,6,4.1c1.3,1.9,2.2,1.3,3.4-0.1c3.7-4.3,3.1-7.8-2-10.9
	c-1.3-0.8-4.1-1-2.9-3.2c1.1-1.9,3,0.2,4.4,0.6c1.1,0.3,1.9,1.9,3.3,0.8c1.9-1.7,3.3-3.7,3.2-6.4c0-2.5-1.7-3.4-3.6-4.3
	c-1.3-0.6-3.5-0.4-3.4-2.4c0.1-2.1,2.8-0.4,3.8-1.9c-2.8-2.2-4.8-1.3-6.2,1.5c-1.4,2.8-0.2,4.3,2.6,4.9c1,0.2,2,0.8,3,1.2
	c1,0.4,2.3,0.9,1.6,2.3c-0.6,1.2-1.8,0.8-2.9,0.4c-1.4-0.5-2.9-1.1-4.3-1.7c-3.2-1.2-5.4-0.3-6.5,3c-1,3-0.9,5.4,3,6.3
	c1.5,0.3,2.8,1.3,4.2,2c1,0.5,2.8,0.9,2.1,2.4c-0.8,1.8-2.4,0.7-3.6,0.2c-1.6-0.6-3-1.8-4.6-2.1c-3.6-0.8-6,0.8-7.2,4.2
	c-1.2,3.3,1.2,3.7,3.6,4.4c1.6,0.4,3.1,1.4,4.5,2.4c1,0.8,3.3,1.6,2,3.4c-1.1,1.4-2.5,0-3.6-0.8c-1.6-1.2-3.3-2.3-5.4-2.6
	c-3.8-0.6-6,1.5-7.6,4.7c-1.7,3.5,1.6,3.6,3.2,4.8c1,0.7,2.1,1.3,3,2.1c1,0.9,3.5,1.4,2.1,3.3c-1.1,1.6-2.4-0.2-3.5-0.8
	c-2-1.1-3.9-2.5-6-3.5c-3-1.4-5.1,0.1-6.4,2.8c-1.2,2.5-0.3,4.2,2.4,5.4C327.5,505.1,329.8,506.9,331.4,509.4z"/>
<path class="st2" d="M82.4,539.7c0.1-2.7,0.1-4.9-2.6-7.2c-2.8-2.4-4.1-6.8-5.4-10.5c-0.7-2.1,0.8-4.5,2.6-6.1
	c2.8-2.3,5.7-3.9,8.9-0.8c0.7,0.7,1.3,1,2.4,0.9c2.4-0.2,4.4,1.2,5.2,3.2c1.6,3.8,3.7,5.9,7.6,8c2.9,1.6,6.8,4.2,8.8,7.3
	c1.9,2.8,3.6,3.3,6.5,3.3c4.1-0.1,4.5,3.9,6.6,5.9c1.8,1.7,6.2-0.2,7.7,3.6c0.7,1.8,2,3.2,3.1,4.8c2.4,3.3,0.7,6.5-1.9,9
	c-2.5,2.3-5.5,4.2-8.5,1.2c-1.7-1.6-3-1.9-5.1-1.4c-4.5,0.9-6.5-4.7-9.4-4.9c-4.5-0.4-7.3-1.4-8.8-5.5c-0.4-1.3-1.1-1.6-2.3-1.7
	c-3.4-0.4-5.6-2.4-6.8-5.5c-0.3-0.7-0.3-1.9-1.2-1.6C86.8,542.4,84.9,539.8,82.4,539.7C82.4,539.6,82.4,539.7,82.4,539.7z
	 M131.6,553.9c-1.4,0.8-1.4,3.4-3.2,2.8c-2-0.7-0.4-2.6-0.3-4c0-0.6,0.3-1.2,0.5-1.8c0.6-2.8-1.2-3.9-3.5-4.5
	c-2.5-0.7-2.6,1.2-3.1,2.9c-0.4,1.5-0.9,2.9-1.6,4.3c-0.5,1-0.9,2.7-2.5,2c-1.1-0.5-0.6-1.9-0.3-2.9c0.9-2.6,2-5.2,1.9-8
	c-0.2-2.7-1.6-4.2-4.2-4.6c-2.5-0.3-3.5,1.1-4,3.3c-0.3,1.2-0.7,2.4-1.4,3.4c-0.6,0.9-0.9,2.7-2.6,1.8c-1.4-0.8-0.2-1.9,0.2-2.8
	c1.4-2.8,2.3-5.7,1.2-8.9c-0.6-1.6-1.6-2.6-3.3-2.9c-1.7-0.2-1.8,1.4-2.4,2.3c-0.8,1.3-1.7,2.6-2.7,3.7c-0.9,1.1-1.8,3.2-3.5,1.9
	c-1.3-1.1,0.5-2.4,1.3-3.4c1.5-1.8,2.9-3.6,3.2-6c0.3-2.4-0.7-3.8-2.9-4.6c-2.3-0.9-2.8,0.7-3.8,2.2c-1,1.6-2.3,2.9-3.5,4.3
	c-0.5,0.6-1.3,1.1-2,0.5c-0.8-0.6-0.3-1.4,0.2-2c1-1.4,2.2-2.6,3-4.1c2.5-4.7-0.2-9.8-5.3-10c-1.4,0-1.8-0.9-2.6-1.6
	c-1.9-1.8-3.8-1-5.3,0.4c-1.4,1.2-2.6,2.9-1.7,4.9c1.4,2.8,3.1,0.4,4.6-0.1c0.7-0.2,1.5-0.7,2,0.1c0.6,1-0.2,1.7-0.9,2.3
	c-1.6,1.4-5.7,2.3-2.5,5.2c2.3,2,3.6-1.7,5.4-2.7c1.3-0.8,2.2-3.7,3.9-1.8c1.4,1.6-1.1,2.7-2.1,3.9c-0.6,0.7-1.3,1.3-2.1,1.8
	c-1.9,1.3-1.9,3-1.2,4.9c1.5,3.8,5.1,3.5,8.8-0.4c1.4-1.5,2.7-5.4,4.6-3.7c1.9,1.7-1.4,4.2-3.1,5.7c-3,2.6-2.7,4.8,0.1,7.1
	c3,2.4,5.5,1.2,7.4-1.6c1-1.5,1.6-3.3,4-4c0.5,3.3-1.4,5.4-3.3,7.3c-2.2,2.1-0.9,3.6,0.4,5.1c1.5,1.7,3.4,2.3,5.3,0.6
	c1.1-1,1.9-2.4,2.7-3.7c0.8-1.1,1.3-3.2,2.9-2.3c1.5,0.8,0.1,2.5-0.4,3.7c-0.3,0.6-0.5,1.1-0.9,1.6c-3,3.2-0.9,4.8,1.9,6.1
	c3.5,1.6,5.4-0.4,7.2-3c1-1.5,1.5-5,3.5-3.8c2.5,1.4-0.6,3.5-1.2,5.4c-0.4,1.2-2.1,2-0.4,3.5c1.5,1.3,2.9,1.4,4.6,0.4
	C131,558.6,131.9,556.5,131.6,553.9z"/>
<path class="st13" d="M181.2,440.5c-1.4-3.3-2.3-6.7-4-9.5c-4.8-8-11.1-8-15.6-0.2c-0.2-6,3.8-9.6,9.4-8.4c1.3,0.3,2.6,1.1,3.9,1.5
	c3.1,1,5.3-0.5,6.3-3.1c1-2.7-1.1-3.8-3.4-4.5c-1-0.3-2.1-0.5-3.1-0.9c-3.5-1.5-3.9-3.5-1.3-6.3c1.1-1.3,2.5-2.3,3.6-3.6
	c1.4-1.7,0.9-3.5-0.3-5.1c-1-1.4-2.5-2-4.1-0.9c-2,1.4-3.7,0.2-6.4-0.2c2.2-1.4,3.9-0.5,5.4-1.4c3.4-2,6.5-0.4,7.2,3.4
	c0.3,1.5,0.2,3.1-0.2,4.6c-1.2,4.4,0.3,7.2,4.5,8.7c2.4,0.9,4.2,2.5,5.6,4.6c1.3,2.1,3.3,3.7,5.8,2.7c3-1.3,1.5-4,1-6.1
	c-0.8-3.7-3.7-6-6.5-8.1c-2.1-1.5-2.8-2.8-1.7-5.3c2.1-4.8,0.2-9.3-4.9-11c-3.1-1-3-1.8-1-3.8c4-4.1,3.5-9.3,3.1-14.4
	c-0.1-1.7-0.8-3.4-2.8-3.9c-2.1-0.5-3.6,0.7-4.7,2.3c-1.7,2.5-2.1,5.4-2.9,8.2c-0.6,2.1-0.9,5.2-3.9,5c-3.4-0.2-7.2,3.3-10.5-1.4
	c-2.1-3.1-4.9-4.9-1.9-9.2c1.8-2.6-1.6-4.1-4.4-5.2c-3.1-1.2-5.8-2.5-9.3-2.7c-1.3,0-0.9-3.6,0.1-5.4c1.6-2.6,3.6-5,5.3-7.6
	c2.4-3.5,4.2-7.1,3.4-11.6c-0.5-2.8-2.4-3.9-4.7-4.5c-2.2-0.6-4.3-0.1-5.9,1.7c-0.3,0.3-0.5,0.8-0.8,1.1c-2.1,2.3,3.9,4.3,0.5,6.2
	c-2,1.1-4.3,1.3-3.9,4.5c0.2,1.4-0.8,3-2.1,3.3c-1.8,0.4-1.7-1.7-2.4-2.8c-0.3-0.5-0.4-1.2-0.8-1.6c-1.5-1.6-2.8-4.5-5.5-3.1
	c-2.7,1.4-0.9,3.9-0.1,5.7c2.5,5.6,4.7,11.1,0.9,17.1c-0.8,1.3-0.4,3.3-0.6,5.5c-2.3-0.8-4.6-1.5-6.7-2.5c-1.6-0.7-3.1-2.1-4.5-0.3
	c-1.4,1.6,0.2,2.8,1.2,3.9c0.3,0.3,0.6,0.7,0.9,1.1c0.4,0.6,0.9,1.4,0.2,2c-0.8,0.7-1.3,0-1.8-0.6c-2.7-3.5-5.9-5.8-10.6-5.4
	c-2.5,0.2-2.1-1.7-2.2-3.1c-0.5-7.9-4.8-10.7-12.1-7.9c-1.5,0.6-2.8,1.3-4-0.5c-0.5-0.9-1.5-1.5-0.7-2.8c1.2-1.9,2.4-1.9,4.2-0.8
	c1,0.6,2.1-0.1,3-0.6c2.5-1.4,4.7-1.1,6.7,0.9c1.1,1.1,2.3,1.6,3.8,0.9c1.5-0.7,1.7-2.1,1.6-3.6c0-1.1-0.3-2.2-0.1-3.2
	c1.5-6.4,1.5-6.4-5.8-5.9c2.3-3.2,4.8-5.1,8.5-3.5c3,1.3,3.4,4.9,1,8.6c-1,1.6-1.4,3.2-0.5,4.7c1,1.6,2.8,1.4,4.2,0.7
	c3.4-1.7,3.2,0.4,3.1,2.6c-0.1,1.7-0.3,3.4-0.3,5.1c0.1,2.2,1.4,3.9,3.5,4.3c2.4,0.5,3.8-1.3,4.5-3.2c2.2-5.4,1-10.6-1.5-15.6
	c-0.8-1.6-2-3.2-2.6-4.9c-0.9-2.6,0.3-4.7,2.8-5.5c2.2-0.7,4.6-1.1,5.8,1.9c0.8,2.2,1.9,4.7,4.8,4c2.9-0.7,3.9-3.2,3.9-6.1
	c0.1-3.8,3.7-6.8,7.4-6.2c1.1,0.2,2.2,0.5,3.2,0.4c6.6-0.6,8.1,5.4,11.2,9.1c1.7,2.1-0.6,4.7-2.2,6.5c-1.9,2-3.2,4.1-3.5,6.9
	c-0.1,1.4,0,2.9,1.6,3.5c1.4,0.5,2.4-0.2,3.2-1.2c0.9-1,1.8-2.2,2.8-3c1.1-0.9,2.5-1.8,3.6-0.3c1,1.4,1.4,3.2-0.3,4.5
	c-1.1,0.9-2.4,1.4-3.4,2.4c-1.7,1.7-2.2,3.4,0.5,4.7c3.7,1.8,3.9,4.3,1.6,7.4c-0.5,0.6-0.8,1.3-1.1,2c-0.7,1.8-1.3,3.7,0.5,5.1
	c1.8,1.4,3.7,0.4,5.1-0.7c3.4-2.8,5.3-6.4,5.1-10.9c-0.1-2.5,0-4.6,1.9-6.7c2.6-2.8,1.9-6.3,0.4-9.5c-0.9-2-0.7-3.4,1.4-4.5
	c2.2-1.1,3.5,0,4.8,1.5c0.3,0.3,0.7,1.1,0.6,1.1c-3.7,2.5,0.2,6.3-1.6,9.1c-1.9,3.1,0.2,4.1,2.7,4.8c5.7,1.5,6.3,2.5,4.2,7.9
	c-0.8,2.1-0.4,4.8,1.3,4.5c4.2-0.6,6.3,3.1,9.6,3.6c2.6,0.4,2,2.3,2.4,3.8c0.4,1.8-1.2,2.5-2.3,3.1c-1.9,1.1-2.2-1.1-2.9-2
	c-1.5-1.9-2.7-4.7-5.7-3.2c-2.9,1.5-2.2,4.3-1.6,7c0.6,2.8,2.6,4.4,4.6,6.1c1.5,1.3,3.4,3.1,1.2,4.9c-3.6,3-2,5.4,0.6,7.6
	c5.6,4.9,6.3,10.4,1.9,16.2c-0.3,0.4-0.8,1-0.9,0.9c-3.2-2-7.1,3.2-10.1-1.1c-0.8-1.2-2.3-0.6-3.3,0.4c-1.6,1.6-2.6,3.5-1.7,5.9
	c0.9,2.3,2.8,3.5,5.2,4.1c1.4,0.4,3,1.4,2.4,3.3c-0.5,1.8-1.9,0.9-3,0.5C183.8,438.1,182.9,440,181.2,440.5z M106.8,365
	c-0.5,3.1-0.9,6.7,2.9,6.6c4.4,0,3.5-4.8,4.3-7.6c0.7-2.7-1.8-3-3.9-3.2C106.7,360.6,106.1,362.5,106.8,365z"/>
<path class="st8" d="M134.4,378.1c4,3,6.1,2.6,7.3-0.7c0.3-1,0.6-1.8,1.8-1.5c1.1,0.2,0.9,1.1,0.9,1.8c-0.1,1.6,0.6,3,0.9,4.5
	c0.5,2.4-0.1,4.4-3,4.7c-3.9,0.4-4.8,2.7-4.4,6.1c0.1,0.8,0.5,1.9,0.1,2.2c-4.4,4.3-2.2,7.9,1,11.5c1.5,1.7,0.9,3.8,0.9,5.8
	c-0.1,1.8,0.4,3.5,2.4,3.9c2.1,0.4,2.9-1.4,3.5-3c1.2-3.1,0.3-6.2-0.9-9c-2-4.4,2.6-6.7,2.9-10.5c0.1-1.4,2.6,0.4,3.6,1.8
	c1.2,1.9,1.6,5.7,5,3.6c3-1.8,2.4-5.1,0.9-7.9c-0.6-1.1-1.5-1.9-2.3-2.9c-0.7-1-3.5-1.6-0.9-3.3c1.5-1,3.5-2.3,5,0.4
	c1.5,2.5,3.4,4.8,4.2,7.6c0.8,2.5,2,4.9,1.2,7.6c-2.7-0.8-3.8,1.4-5.6,2.7c-2.1,1.5-3.9-0.6-5.8-1.5c-1-0.5-1.9-1.8-3.3-0.7
	c-1.3,1.1-1.1,2.5-0.7,3.9c0.6,2.4,2.5,3.8,4.7,4.7c0.8,0.3,1.8,0.4,2.7,0.6c2.5,0.7,5.8,1.2,5.8,4.3c0,3.1-2.4,5.6-4.7,7.6
	c-1.6,1.5-2.1-0.1-2.3-1.4c-0.3-1.8-0.4-3.6-0.7-5.5c-0.2-1.5-0.9-2.7-2.6-2.7c-1.6,0-2.5,0.9-3.1,2.3c-0.9,2.1-0.6,4.2-0.8,6.4
	c-0.1,1.4-0.6,2.8-2.2,3.2c-1.6,0.4-2-1-2.6-2.1c-0.5-0.9-1-1.9-1.7-2.7c-0.9-1-2.1-2-3.6-1.1c-1.3,0.7-1.7,2.2-1,3.2
	c2.7,4.4-2.6,5.9-3.3,9c-0.2,0.8-3,0.7-4.2-0.5c-1.5-1.4-1.6-3.7-0.1-4.9c3.3-2.8,3.9-5.6,2.1-9.6c-0.7-1.6,0.6-4.1,0.8-6.2
	c0.2-1.4-0.2-2.9-1.8-3.3c-1.4-0.4-2.4,0.6-3.1,1.5c-1.3,1.6-2.5,3.3-2.4,5.4c0.2,3.8-0.9,6.7-4,8.9c-1,0.7-0.8,3.2-2.7,2.2
	c-1.3-0.6-2.8-1.7-2.5-3.5c0.3-1.5,0.3-3.4,2.7-3.6c3.7-0.3,3.3-2.9,2.8-5.4c-0.2-0.9-1.2-2.1-1.8-1.7c-4.7,2.9-5.7-4.8-9.8-3.3
	c-0.2-0.7-0.6-1.4-0.7-2.1c-0.6-3.7,0.2-7.4,1.5-10.8c0.8-2.1,3.2-2.5,5.1-1.3c1.9,1.2,1.9,3,0.3,4.7c-3,3.1-2.2,6.1,0.1,9.1
	c0.8,1,1.7,2,3.1,1.3c1.3-0.7,2.3-1.7,1.7-3.3c-0.6-1.8-0.3-3.2,1-4.6c4.9-5.6,4.3-8.7-2.2-12.6c-3.6-2.2-3.8-4.3,0-6.1
	c3.2-1.6,5.6,1.7,8.5,2.5c1.7,0.5,2.3,3.1,1,5.2c-0.5,0.9-0.9,2-1.1,3c-0.4,2,0.1,3.9,1.9,4.8c2.3,1.2,2.9-1.1,3.8-2.4
	C136.9,389.6,136.7,384.5,134.4,378.1z"/>
<path class="st13" d="M142.5,445.4c1.7,6.7,1.6,6.6-4.8,9.2c-2.6,1.1-5,2.8-5.6,5.7c-1.1,4.8-4.3,2-6.6,1.9c-3.2-0.1-1.9-2-1.5-3.8
	c0.6-2.8-0.8-4.7-3.6-4.6c-3.3,0.1-3.2-1.4-2.4-3.7c0.3-0.9,0.6-1.8,0.8-2.6c0.7-2.4,0.1-4.2-2.3-5.3c-2.5-1.2-4.1,0.2-5.5,2.1
	c-0.4,0.6-0.7,1.4-1,2.1c-1.4,3.2-3.3,3.5-5.5,0.8c-2.1-2.6-4.4-3.4-7-0.7c-1.2,1.3-1.9,0.7-3,0c-3.7-2.2-3.2-5.7-2.8-9
	c0.4-3,2.7-3.7,5.4-4c3.3-0.4,5.2-2.3,4.5-5.6c-0.8-3.7-3.6-3.7-6.6-2.9c-0.6,0.2-1.1,0.5-1.7,0.6c-1.7,0.5-3.3,3.3-5.2,0.9
	c-1.6-2-1.9-4.6-0.7-7s2.8-4.5,6-4.3c0.8,0.1,1.5,0.4,2.2,0.6c2.2,0.4,4.3,0.5,5.5-2c1.2-2.4,0-4.1-1.6-5.7
	c-0.7-0.7-2.9-0.7-1.6-2.5c0.9-1.4,2.4-1.4,3.7-0.4c2.3,1.8,7.1,1.7,5.8,6.2c-0.7,2.3-1.6,5.1-4.3,6.5c-3.3,1.6-2.7,3.6,0.1,4.9
	c4,1.9,4,5.2,3.5,8.6c-0.4,3.2-2.7,4.1-5.7,4.1c-2.1,0-2.9,1.4-3,3.3c-0.1,2.1,0.9,3.5,2.9,4.2c4.2,1.4,7.6-0.2,10.6-2.9
	c1.3-1.2,2.4-2.8,3.6-4.2c0.6-0.7,1.1-1.7,2.2-1.3c1.2,0.4,1.6,1.4,1.5,2.6c-0.1,1.8-0.7,4,1.8,4.6c1.9,0.6,4.1,0.6,5.4-1.5
	c0.9-1.5,1.6-1.2,2.9-0.2c3.7,2.7,5,2.2,6.2-2.4c0.4-1.5,0.4-3.6,2.4-3.1c1.4,0.4,0.7,2.5,0.5,3.7c-0.5,4.6-3.8,5.9-7.8,6.3
	c-6.9,0.6-7.9,2.5-4,8.1c0.9,1.3,0.6,2.2,0.4,3.4c-0.3,1.4,0.1,2.5,1.4,3.1c1.4,0.7,3.2,0.2,3.6-1.2
	C133.2,452,138.3,449.3,142.5,445.4z"/>
<path class="st12" d="M89.8,441c-7.5-8.5-11.6-17.3-14-26.9c-0.3-1-0.2-1.8,0.7-2.5c1.1-0.9,1.9-0.4,2.8,0.3c1.6,1.3,3.4,1.5,5-0.1
	c1.6-1.7,1.5-3.6,0.4-5.6c-1.4-2.5-3.2-4.9-3.7-7.8c-0.8-4.5,1.8-9.9,5.3-10.7c1.2-0.3,2.7-0.7,3.4,0.5c0.8,1.3-0.4,2.3-1.4,3
	c-3.6,2.5-5.1,5.7-3.8,10c1.3,4.3,4.9,5.1,8,1.8c1.3-1.3,2.3-2.9,3.7-4.1c2.6-2.2,8.6-1.3,10.2,1.5c0.4,0.7,0.4,1.9,0,2.6
	c-0.8,1.3-1.9,0.5-2.8-0.1c-2.4-1.9-4.7-2-7.1,0c-2.8,2.4-2.7,4.3,0.4,6.4c1,0.7,2.6,1.2,2,2.7c-0.7,1.8-2.4,1-3.6,0.7
	c-4.3-1.2-7.1,0.7-9.3,4.1c-2.5,3.8-2.2,7.6,0.2,11.2c1.8,2.7,4,2.2,6.5,1c2-1,5-3.8,6.2-0.9c1.4,3.5-2.9,2.7-4.9,3.4
	C89.9,432.7,89.3,436,89.8,441z"/>
<path class="st13" d="M82.1,367.6c0.4,0.7,0.9,1.3,1.2,1.9c1.5,3.5,3.6,4.1,6.8,1.8c4-2.8,5.1-2.2,5.4,2.6c0.4,4.9,2,6.6,7,6.5
	c3.3-0.1,5,1.5,6.1,4.8c-2.8-0.7-5.2-1.5-7.7-1.9c-3.3-0.6-5.1,1.3-5.3,4.3c-0.2,3.1,1.9,4.2,4.9,3.7c1.5-0.3,3.1-0.2,4.5,0.6
	c1.6,0.9,3.5,2,2.3,4.2c-1.4,2.7-2.7,0.1-3.9-0.5c-4.3-2.1-7.4-1.1-11.6,3.5c-1.1,1.2-1.7,4.8-4.2,2.4c-1.8-1.7-1.6-4.6,0.3-6.7
	c1-1.1,2.3-2,3.4-3.1c1.1-1.2,1.8-2.6,1.2-4.2c-0.7-1.7-2.2-2.5-4-2.7c-6.1-0.7-11.6,6.3-10.4,13.4c0.5,2.9,1.5,5.6,3.4,8
	c0.8,0.9,1.5,2.2,0.6,3.4c-1,1.3-1.9-0.5-2.7-0.5c-6.7,0.5-5.2-4.5-5.6-8.2c-0.1-1.4,0.2-2.8-0.1-4.1c-1.7-7.7,4.6-10.9,8.6-15.2
	c1.6-1.7,4-0.9,6.1-0.5c2,0.5,4.8,1.1,5.4-1.7c0.6-2.9-1.6-4.3-4.2-5c-3-0.8-7,0.8-8.7-3.7C80.6,369.1,80.9,368.5,82.1,367.6z"/>
<path class="st13" d="M161.8,434.1c3,0,5.2,0.6,7.2,1.7c3.5,2,4.3,6.3,1.9,10c-1.3,1.9-3.3,3.9-2.2,6.2c1.6,3.2-0.2,4.1-2.5,5
	c-1.1,0.5-2.4,0.8-3.3,1.6c-4.6,3.5-8.6-0.1-12.8-1.2c-1.8-0.5-0.4-1.8,0-2.6c1-2.1,2-4.1,1.9-6.6c-0.2-6-2.7-8-8.3-6.3
	c-1-3,0.9-5.6,2.6-6.9c1.7-1.4,4.8-0.2,6.8,1.4c2.4,1.9,2.9,4.5,2.7,7.5c-0.3,2.9-0.3,5.9,1.1,8.6c0.7,1.2,1.5,2.4,3.2,2.2
	c1.4-0.2,1.8-1.4,2.3-2.6c0.6-1.7,0.5-3.3,0.5-5c0-1.4,0.2-2.4,1.7-3.3c4.1-2.4,4.2-4.2,0.4-7C164.1,436,163.2,435.2,161.8,434.1z"
	/>
<path class="st12" d="M155.3,372.4c-0.9,4.2-2.6,5.6-6.3,3.3c-1.6-1-3.7-1.4-5.7-1.8c-2.7-0.5-4.6-1.4-4.8-4.6
	c-0.1-1.4-0.7-2.8-2.5-2.8c-2.1,0-2.2,1.8-2.7,3.2c-0.1,0.4-0.1,0.9-0.1,1.4c0.2,2.1-1.2,3-2.8,2.6c-1.8-0.5-1-2.3-0.5-3.5
	c1-2.4,2.6-4.5,2.5-7.3c-0.1-2.1-0.2-4.2-1.1-6.7c5.1,2.2,7.6-0.1,9-4c0.6-1.7,1.4-2.5,2.8-3.3c2.3-1.2,2.6-3.2,2.1-5.5
	c-0.3-1.2-2.6-2.7,0.3-3.4c2.2-0.5,4,0.2,4.6,2.6c0.6,2.1,0,3.9-0.9,5.8c-1.5,3.1-3.6,5.7-5.7,8.4c-1.8,2.3-3.2,4.8-3.1,8
	c0.1,1.6,0.6,3,1.7,4.2C142.9,369.4,154,372.6,155.3,372.4z"/>
<path class="st12" d="M193.3,420.7c-3.7-4.3-7.1-7.7-11.6-9.8c-1.5-0.7-1-2.9-0.6-4.7c1-4.1,0.6-7.9-3.2-10.8
	c-2.3-1.7-4.6-2.7-7.1-0.5c-1.6,1.4-3.6,1-4.5-0.2c-1.1-1.5-2.4-3.4-1.8-5.4c0.5-1.7,2.4-1.7,4-1.7c4.5,0.2,6.8-2.2,7.8-6.3
	c0.4-1.8,0.9-3.6,1.5-5.3c0.5-1.5,0.8-3.9,2.8-3.5c1.8,0.4,1.5,2.8,1.5,4.4c-0.1,3.7-0.9,7.2-3.7,10.1c-3.3,3.4-2.8,4.9,1.6,6.5
	c5.2,2,6.1,3.6,4.3,9c-1.1,3.5,0.4,5.5,3.1,7.4C190.8,412.2,193.5,415,193.3,420.7z"/>
<path class="st12" d="M176.1,345.7c-4.8,2.2-4.4,5.7-2.8,9.4c1.3,3,1.2,5.6-1.5,7.9c-1.9,1.7-1.5,3.9-1.3,6
	c0.3,4.4-1.3,7.9-5.6,10.1c2.3-5.3,6.1-10.6-1.8-14.9c4.4-2.4,7.8-5.5,4.5-10.2c-3.7-5.3-7.1-0.1-11.9,2c5-6.9,11.3-12.9,1.4-19.5
	C164.5,338,170.3,341.3,176.1,345.7z"/>
<path class="st12" d="M122.5,439.4c-1.5-1.1-1.1-2.1-1.1-3c0-2.5-1.3-4.2-3.5-4.9c-2.2-0.6-3.7,0.7-5,2.5c-2.2,3.2-4.6,6.2-9,6.4
	c-1.2,0.1-2.8,0.3-3.1-1.2c-0.4-2,1.5-1.3,2.5-1.6c6-1.5,8.6-10.1,4.3-15c-1.7-1.9-3.2-3-0.4-5.1c0.6-0.4,0.5-1.7,0.7-2.8
	c1.8,0.5,1.8,2.1,2.5,3.1c4.3,7.1,10.1,12.5,18.4,14.4c3.5,0.8,4.5,2.4,2.7,6.2C128.1,434,124.9,435.3,122.5,439.4z"/>
<path class="st12" d="M137.6,333.5c-2.3,1.7-3.8,3.4-2.6,6.3c0.5,1.3-0.1,2.7-1.4,3c-1.3,0.4-1.6-1.1-2.1-2
	c-2.5-4.3-5.8-5.4-9.8-3.1c-4.2,2.3-5.2,5.4-2.9,10.1c1.8,3.7,4.3,7.1,4.4,11.5c0,1.1,0.1,2.2-0.2,3.2c-0.5,1.5-0.3,4-2.6,3.6
	c-1.7-0.3-1.3-2.4-1.1-4c0.1-0.8,0.2-1.5,0.3-2.3c0.6-6.6-0.9-7.7-7.1-5.3c-0.7-0.5-0.5-1.1-0.2-1.6c3.1-5.2,3.2-7.3-0.9-11.4
	c-1.7-1.8-1.3-2.1,0.6-2.9C120.1,335.1,128.5,333,137.6,333.5z"/>
<path class="st12" d="M112.2,385.5c-2.6-4.7-5.1-8.5-11.1-7.6c-2,0.3-2.8-1.8-2.9-4c-0.4-7.2-3.1-8.7-9.2-5.2
	c-1,0.5-2.2,2.2-2.8,0.1c-0.6-2-4-3.1-2-5.9c0.7-0.9,1.4-1.4,2-0.1c1.7,3.4,4.1,2.3,6.6,1.3c5.4-2.1,9,0.2,8.8,5.9
	c-0.2,4.3,1.2,6.1,5.5,5.6c1.8-0.2,3.3,0.4,4.7,1.4C115.8,379.9,116,381.4,112.2,385.5z"/>
<path class="st12" d="M186,441.4c-3.7,5-7.4,7.9-11.3,10.6c-0.9,0.7-2,2.4-3.4,0.5c-1.1-1.4-0.7-2.7,0.3-3.7c1.9-2.2,3.1-4.5,3-7.5
	c-0.2-4.5-2.2-7.6-6.6-8.9c-1.3-0.4-3.6-0.1-2.8-2.5c0.8-2.2,2.6-3,4.8-2c2.6,1.2,4.6,3.1,5.7,5.7c0.7,1.7,1.3,3.4,1.9,5.2
	C179.2,443.9,180.3,444.4,186,441.4z"/>
<path class="st12" d="M153.3,461.5c-5.5,1.7-11.1,2.1-16.8,2.1c-3.8,0-3.2-1.9-1.9-4.1c1.1-1.8,2.7-3,4.8-3.2
	c4.8-0.6,6.6-3.3,6.1-7.9c-0.2-1.7-0.8-4.6,1.5-4.6c2.7,0,2.6,3.1,2.5,5.1c0,1.6-0.9,3.2-1.6,4.7c-2.2,4.7-1.9,5.4,3,6.4
	C151.9,460.2,152.8,460.4,153.3,461.5z"/>
<path class="st14" d="M146.6,376.8c3,1.1,5.8,2.4,8.1,4.9c-5.2,3.6-5.3,4.6-1,9c1.6,1.6,2.6,3.4,1.7,6.4c-1.2-1.7-2.1-3.2-3.2-4.4
	c-2.3-2.5-6.7-2.3-7.1,0.7c-0.6,4-4.2,6.7-3.3,11.5c-3.3-2.5-3.4-3.7-2.2-7.6c1.5-4.8,2.6-8.4,7.4-10.6c1.6-0.7,0.7-3.3,0.5-5.2
	C147.2,379.9,145.5,378.7,146.6,376.8z"/>
<path class="st12" d="M201.6,389.6c1.7,7.4,0.7,14.2-0.3,21.7c-1.8-1.7-3.1-2.9-4.4-4c-1.5-1.4-2.8-2.1-0.4-4.5
	c2.5-2.6,1.4-6.1-1.6-8.4c-2.9-2.2-4.9-4.6-3.9-8.8C194.7,386.7,195.2,395.1,201.6,389.6z"/>
<path class="st12" d="M116.4,446.4c-0.3,1-0.7,2-1,3.1c-1.5,4.7-0.8,5.9,4,6.8c1.2,0.2,2.3,0.5,1.8,1.9c-0.4,1.1-0.5,2.9-2.6,2.3
	c-7-2.1-13.3-5.6-19.1-10c-0.9-0.7-1.6-1.5-0.5-2.6c1.4-1.4,2.3-0.5,3.4,0.5c4.4,4.1,7.1,4,9.6-0.3c0.5-0.9,1-1.9,1.5-2.8
	c0.4-0.7,1-1.2,1.9-0.8C116.3,444.9,116.6,445.5,116.4,446.4z"/>
<path class="st12" d="M199.7,379.6c-3.7-2.3-5.2-6.6-9.6-3.8c2.7-9,1.5-11.3-7-13.4c1-2,1.9-4.1,0.4-6.3c-0.5-0.7-0.2-1.4,0.6-1.9
	c0.7-0.4,1.3-0.2,1.7,0.3C192.1,361.5,196.7,369.4,199.7,379.6z"/>
<path class="st12" d="M148.3,432.3c3.6-2.6,7.2-4.8,11.3-8.3c-2.1,7-1,12,4.7,15.2c0.7,0.4,1,1.7,0.1,1.9c-6,1.5-3.3,6.7-5,11.6
	C157,444.5,161.4,433.5,148.3,432.3z"/>
<path class="st12" d="M161.5,421.5c3.4-5.8,5.4-10.8,5.5-16.3c0-1.7,0.3-3.3,2.6-2c1.7,0.9,3.1-1,5.1-0.7c-0.3,2.7-2.7,3.5-3.8,5.1
	c-3.5,4.6-2.5,8.7,3.1,10.7c0.7,0.3,1.5,0.4,2.2,0.7c0.7,0.3,2.2,0,1.8,1.4c-0.4,1.3-1.6,1.4-2.7,0.8
	C171.1,419.1,166.8,419.2,161.5,421.5z"/>
<path class="st14" d="M139.8,421.8c2.6,2,2.5,6.6,6.6,5.2c5.5-1.9,3.7-7.3,5.1-12.2c2.1,3.7,0.6,7.6,2.9,10.4c0.1,0.1-0.6,1-1.1,1.3
	c-4.5,3.1-9.5,4.9-15,5c-1.4,0-2.8-0.8-1.1-2C139.9,427.6,139.9,425,139.8,421.8z"/>
<path class="st12" d="M129.6,455.3c0-1.9-0.3-3.5-1.9-4.9c-2.7-2.4-1.6-3.2,1.5-3.7c8.9-1.5,8.9-1.6,10.7-10.7
	c0.2-1.1,0.4-2.2,1.6-2.6c0.5-0.1,1.4,0,1.6,0.4c0.8,1.2-0.7,1.9-0.9,2.8c-1.1,5.7-3.6,10.2-8.9,13.2
	C131.7,450.8,130.9,453.4,129.6,455.3L129.6,455.3z"/>
<path class="st14" d="M131,393.9c-1-1.7-0.3-2.8,0.3-4.1c2-4.7-0.1-8.6-5-9.5c-1-0.2-2.5,0.3-2.6-1.1c-0.1-1.3,1.3-1.4,2.3-1.8
	c3.5-1.6,7.3-2.2,11.1-2.4c1.1-0.1,2.5,0,2.4,1.4c-0.2,2-1.4,0.6-2.3,0.4c-3.8-0.7-5.8,1.4-4.2,5C135.1,386.5,133.5,390,131,393.9z"
	/>
<path class="st12" d="M103.8,349.9c-0.7,1.4-0.2,3.5-0.1,6.7c-4.1-4.2-8.2-3.5-12.5-1.5C93.8,349.2,97.8,347.1,103.8,349.9z"/>
<path class="st12" d="M75.6,385.5c0.4-4.6,1.4-8.7,3.7-13c2.1,6.4,8.6,2.2,12.2,6.3C84.1,376.4,79.3,379.3,75.6,385.5z"/>
<path class="st14" d="M126.1,429.3c-4.7-2.2-5.4-4-2.5-6.2c2.7-2,3.6-4.1,3.3-7.4c-0.2-2.1,0.9-4,2.7-6.9c0.1,4.6-2.1,8.1,0.7,11.4
	c0.6,0.7-0.6,1.6-1.3,2.2C127.2,424.1,125.6,426,126.1,429.3z"/>
<path class="st14" d="M118.8,405.8c-3.3-2.7-3.1-4.7-1.4-7.1c3-4.2,2.2-6.9-2.5-8.8c-0.9-0.3-2.5,0.2-1.7-1.7c0.8-1.8,1.6-1,2.8-0.2
	c1.5,1.1,3.3,1.6,4.8,2.8c2.5,2,2.8,4.6,0.4,6.6C118.8,399.5,118,401.8,118.8,405.8z"/>
<path class="st12" d="M184.7,427.3c0.6,0.5,1.1,1,1.7,1.5c1.6,1.5,3.2,2.5,4.9,0.1c0.7-1,1.7-1.4,2.7-0.4c1.1,1,0.3,2-0.3,2.8
	c-1.1,1.4-2.9,4.4-3.1,4c-1.8-2.9-6.1-2.1-7.2-5.3C183,428.9,183.3,427.8,184.7,427.3z"/>
<path class="st14" d="M151.9,404.9c3.7,1.3,7.2,2.8,10.5-0.8c1.3-1.4,2.2,0.3,2.4,1.4c0.3,2,0,4-1.2,6.1
	C160.8,407.4,154.8,409.2,151.9,404.9z"/>
<path class="st14" d="M113.4,418.6c-1.8-2.7-2.8-4.9-3.4-7.3c-0.2-0.8-1.3-1.7,0-2.3c1-0.5,1.8,0.3,2.3,1.1c1.4,1.9,2.9,3.6,5.6,2.8
	c0.6-0.2,1.2,0.2,1.2,1c0.1,0.9-0.6,1-1.2,1.1C116,415.3,114.3,416.1,113.4,418.6z"/>
<path class="st12" d="M106.4,389.7c-1.9-0.6-3.7-1.2-5.7-1c-1,0.1-2.4,0.5-2.4-1.1c0-1.6,1.4-1.8,2.6-1.7c2.5,0.2,4.7,0.9,6.2,3.2
	C106.8,389.3,106.6,389.5,106.4,389.7z"/>
<path class="st12" d="M107.9,390.1c0.5,0.3,1.6,0.7,0.9,1.4c-0.5,0.5-1.1-0.3-1.4-0.9C107.6,390.4,107.8,390.3,107.9,390.1z"/>
<path class="st12" d="M129.7,455.3c-0.1,0.2-0.3,0.4-0.4,0.7C128.8,455.5,129,455.3,129.7,455.3
	C129.6,455.3,129.7,455.3,129.7,455.3z"/>
<path class="st13" d="M110.2,387.8c-0.2-0.2-0.5-0.5-0.7-0.7c0.1-0.1,0.2-0.2,0.3-0.3C109.9,387.1,110.1,387.4,110.2,387.8
	L110.2,387.8z"/>
<path class="st13" d="M110.3,387.7c0.1,0,0.3,0,0.4,0c-0.1,0.1-0.2,0.3-0.3,0.4C110.3,388,110.3,387.9,110.3,387.7
	C110.2,387.8,110.3,387.7,110.3,387.7z"/>
<path class="st12" d="M107.1,389.1c0.3,0.3,0.6,0.7,0.9,1c-0.2,0.1-0.4,0.3-0.5,0.4c-0.3-0.3-0.7-0.5-1-0.8
	C106.6,389.5,106.8,389.3,107.1,389.1z"/>
<path class="st12" d="M331.4,509.4c-1.6-2.5-3.9-4.3-6.5-5.5c-2.7-1.2-3.5-2.9-2.4-5.4c1.3-2.7,3.4-4.1,6.4-2.8c2.1,1,3.9,2.4,6,3.5
	c1.1,0.6,2.4,2.4,3.5,0.8c1.3-1.9-1.1-2.4-2.1-3.3c-0.9-0.8-2.1-1.4-3-2.1c-1.6-1.2-4.9-1.4-3.2-4.8c1.5-3.2,3.8-5.3,7.6-4.7
	c2,0.3,3.7,1.4,5.4,2.6c1.1,0.8,2.5,2.3,3.6,0.8c1.3-1.8-0.9-2.6-2-3.4c-1.3-1-2.9-1.9-4.5-2.4c-2.4-0.7-4.8-1-3.6-4.4
	c1.2-3.4,3.6-5,7.2-4.2c1.6,0.4,3,1.5,4.6,2.1c1.2,0.5,2.8,1.5,3.6-0.2c0.7-1.6-1.1-1.9-2.1-2.4c-1.4-0.7-2.7-1.6-4.2-2
	c-3.8-0.9-4-3.3-3-6.3c1.1-3.3,3.3-4.2,6.5-3c1.4,0.5,2.9,1.1,4.3,1.7c1,0.4,2.2,0.8,2.9-0.4c0.7-1.4-0.6-1.8-1.6-2.3
	c-1-0.4-1.9-1-3-1.2c-2.8-0.6-4.1-2.1-2.6-4.9c1.4-2.8,3.4-3.7,6.2-1.5c-1,1.5-3.7-0.2-3.8,1.9c-0.1,2,2.1,1.8,3.4,2.4
	c1.9,0.9,3.6,1.8,3.6,4.3c0,2.7-1.3,4.7-3.2,6.4c-1.3,1.2-2.2-0.4-3.3-0.8c-1.5-0.5-3.3-2.6-4.4-0.6c-1.2,2.2,1.6,2.5,2.9,3.2
	c5.1,3.1,5.8,6.6,2,10.9c-1.3,1.4-2.1,2.1-3.4,0.1c-1.5-2.1-3.8-3.1-6-4.1c-1-0.5-2.1-1.1-2.9,0.2c-0.8,1.4,0.5,1.9,1.4,2.4
	c1,0.6,2.2,1.1,3.2,1.8c3.9,2.6,4.5,7.7,1.4,11.2c-1.2,1.4-2.3,2-3.7,0.3c-1.4-1.7-3.3-2.8-5.3-3.6c-1.2-0.5-2.7-1.9-3.7-0.2
	c-1,1.8,1,2.2,2.2,2.8c1.8,0.9,3.6,1.8,4.9,3.4c2.7,3.2,2.3,6.2-1.1,8.6c-1.6,1.2-2.9,1.5-4.3-0.3c-1.6-2-4-2.8-6.1-4
	c-1-0.5-2.2-0.8-2.7,0.5c-0.4,1.1,0.6,1.6,1.4,2c2.1,1.2,4.5,2,6.1,4.1c1.6,2,1,3.7-0.7,5.2c-1.4,1.2-2.5,2.5-4.6,0.6
	c-1.8-1.6-5.2-4.8-6.3-3c-1.7,2.6,3,3.1,4.5,5c0.3,0.3,0.5,0.8,0.7,1.1c-4.5,1.9-10.5-1.4-11-6c-0.4-3.2,2.7-5.5,5.7-4
	c1.8,0.9,3.4,2.2,5,3.3C328.4,509.8,329.5,510.9,331.4,509.4z"/>
<path class="st12" d="M131.6,553.9c0.3,2.7-0.5,4.7-2.8,6.1c-1.7,1-3.1,0.9-4.6-0.4c-1.7-1.5,0-2.4,0.4-3.5c0.6-1.8,3.7-4,1.2-5.4
	c-2.1-1.2-2.5,2.4-3.5,3.8c-1.9,2.6-3.8,4.6-7.2,3c-2.8-1.3-4.9-2.9-1.9-6.1c0.4-0.4,0.7-1,0.9-1.6c0.5-1.2,2-2.8,0.4-3.7
	c-1.5-0.9-2.1,1.2-2.9,2.3c-0.9,1.3-1.6,2.7-2.7,3.7c-1.8,1.6-3.8,1.1-5.3-0.6c-1.3-1.5-2.5-3-0.4-5.1c1.9-1.8,3.7-4,3.3-7.3
	c-2.4,0.7-3,2.6-4,4c-1.9,2.8-4.4,4-7.4,1.6c-2.8-2.2-3.1-4.4-0.1-7.1c1.6-1.4,4.9-4,3.1-5.7c-1.9-1.7-3.2,2.2-4.6,3.7
	c-3.7,3.9-7.3,4.2-8.8,0.4c-0.8-1.9-0.7-3.6,1.2-4.9c0.8-0.5,1.5-1.1,2.1-1.8c1-1.2,3.5-2.3,2.1-3.9c-1.7-1.9-2.6,1.1-3.9,1.8
	c-1.8,1.1-3.1,4.8-5.4,2.7c-3.2-2.9,0.8-3.8,2.5-5.2c0.7-0.6,1.5-1.3,0.9-2.3c-0.5-0.8-1.3-0.4-2-0.1c-1.5,0.5-3.2,2.9-4.6,0.1
	c-1-1.9,0.3-3.6,1.7-4.9c1.6-1.4,3.4-2.1,5.3-0.4c0.7,0.7,1.2,1.6,2.6,1.6c5.1,0.1,7.9,5.3,5.3,10c-0.8,1.5-2,2.7-3,4.1
	c-0.4,0.6-1,1.4-0.2,2c0.7,0.6,1.5,0.1,2-0.5c1.2-1.4,2.5-2.7,3.5-4.3c0.9-1.5,1.5-3.1,3.8-2.2c2.2,0.8,3.1,2.3,2.9,4.6
	c-0.3,2.4-1.7,4.2-3.2,6c-0.8,1-2.5,2.3-1.3,3.4c1.7,1.4,2.6-0.8,3.5-1.9c1-1.2,1.8-2.5,2.7-3.7c0.6-1,0.7-2.6,2.4-2.3
	c1.7,0.2,2.7,1.3,3.3,2.9c1.1,3.1,0.2,6-1.2,8.9c-0.4,0.9-1.5,2.1-0.2,2.8c1.7,0.9,2-0.9,2.6-1.8c0.6-1,1.1-2.2,1.4-3.4
	c0.5-2.2,1.5-3.7,4-3.3c2.7,0.3,4.1,1.8,4.2,4.6c0.2,2.9-1,5.4-1.9,8c-0.4,1-0.8,2.4,0.3,2.9c1.6,0.7,2-1,2.5-2
	c0.6-1.4,1.2-2.8,1.6-4.3c0.4-1.7,0.5-3.5,3.1-2.9c2.3,0.6,4,1.7,3.5,4.5c-0.1,0.6-0.4,1.2-0.5,1.8c-0.1,1.4-1.7,3.3,0.3,4
	C130.1,557.3,130.2,554.7,131.6,553.9z"/>
<path class="st2" d="M106.8,365c-0.6-2.5-0.1-4.3,3.3-4.1c2.1,0.2,4.6,0.5,3.9,3.2c-0.8,2.8,0.1,7.5-4.3,7.6
	C105.9,371.6,106.3,368,106.8,365z"/>
</svg>
