<?xml version="1.0" encoding="utf-8"?>
<!-- Generator: Adobe Illustrator 19.1.0, SVG Export Plug-In . SVG Version: 6.00 Build 0)  -->
<svg version="1.0" id="Layer_1" xmlns="http://www.w3.org/2000/svg" xmlns:xlink="http://www.w3.org/1999/xlink" x="0px" y="0px"
	 viewBox="0 0 612 792" style="enable-background:new 0 0 612 792;" xml:space="preserve">
<style type="text/css">
	.st0{fill:#060404;}
	.st1{fill:#C38A76;}
	.st2{fill:#ECB19A;}
	.st3{fill:#C18A77;}
	.st4{fill:#E9B09A;}
</style>
<path class="st0" d="M428.3,624.5c-17.4,0-30.1-1.1-42.6-2.7c-8.2-1-15.9,0-23.9,2.7c-14.5,4.8-29.6,7.9-44.3,12.1
	c-16.3,4.7-31.6,12.2-48.3,15.9c-11.5,2.6-23,5.5-34.8,6.4c-15.8,1.1-31.2-2-46.4-6C129.8,637.3,94,599,76.8,542.2
	c-4.1-13.6-4.3-27.5,0.9-41.2c2.5-6.6,2.4-13.6,2-20.7c-1.5-26.1,4.5-50.4,19.8-71.8c22-30.6,51.9-50.4,88.1-59.9
	c20.5-5.3,41.4-2.1,62.1,0.1c17.5,1.9,33.6,8.1,47.9,18.5c8.8,6.4,16.4,14.1,22.6,23.1c2.6,3.7,5.3,7.3,9.3,9.6
	c2.2,1.3,3.9,1.5,5-1.5c8.3-22.3,22.3-41.2,37-59.5c6.8-8.5,8.3-18.4,9.2-28.5c0.7-8.1,0.3-16.3,0.6-24.5c0.1-2.1-0.6-2.9-2.8-3.1
	c-10.9-0.8-21.2-3.8-30.9-8.7c-1.3-0.7-2.6-0.5-3.9-0.4c-7.6,0.8-14.6-0.7-20.8-5.2c-1.7-1.3-2.6-1.2-4,0.4
	c-5.7,7.1-14,8.6-22.3,9.5c-2.4,0.2-4.6-0.8-6.6-1.9c-4.9-2.8-9.8-5.7-14.6-8.6c-2.7-1.6-3.8-4-3.6-7.2c0.5-6,0.9-12,1.5-17.9
	c0.3-2.7,0-4.4-3.4-5.3c-7.1-2-13.5-14.8-10.4-22c6-14.1,8.9-28.9,12-43.7c2.1-10,7.3-18.9,9-29c1-5.6,9.5-9.2,16.6-8
	c22.9,4.1,45.9,8.3,68.8,12.5c19,3.5,38.2,6.2,56.9,10.7c16.9,4.1,33.5,9.7,50,15.3c10.8,3.7,16,12.8,18.1,23.4
	c5.1,25.5,10.4,50.9,14.3,76.6c7.2,47.3,20,93.3,32.1,139.5c4.5,17.3,2.6,34.7,0.3,52.1c-4.3,31.5-15,61.4-23.9,91.7
	c-2.7,9.3-5.3,18.6-5.9,28.3c-0.5,8.1-5.2,13.4-11.5,18.3C474.7,619.8,450.2,625.7,428.3,624.5z M282.4,254.1
	c0.1,8.7,0.7,9.5,8.6,11.9c5.6,2.3,10.2,0.6,14.8-4.1c-9.4-1.9-16-7.1-22.3-14.4C283.1,250.2,282.7,252.2,282.4,254.1z M313.4,152.4
	c0.1,0.5,0.2,0.9,0.3,1.4c-1.6,2.4-2.8,0.3-4-0.5c-3.4-2.4-6.9-4.5-11.2-5c-5.3-0.7-6.6,0.4-8,5.5c-1,3.6,0.8,7.5-1.5,10.9
	c-0.3-1.6-0.4-3.7-2.5-3.6c-1.7,0.1-1.7,2.3-2,3.6c-0.6,2.4-1,4.8-1.4,7.3c-3.6,15.4-4.6,31.4-9.8,46.5c-1.1,3.3-0.3,6.6,4,7.7
	c2.2,0.5,4.4,1.3,6.6,2c2.1,1.2,4.3,2.4,6.9,3.9c2.8-16.2,8.6-30.9,15.5-45.2c0.8-1.5,1.1-2.9-0.2-4.6c-1.3-1.7-3.7-3.9-1.1-6
	c2.4-2,4.6,0.3,6.6,1.7c0.8,0.6,1.5,1.3,2.2,1.9c1,1.7,0.7,3.4,0.4,5.2c-2.8,17.1-7.6,33.7-13.3,50c-2.7,7.7-1.8,9.8,6,12.4
	c1.5,0.5,3.3,0.2,4.9,0.3c4.2,1.6,6.1,0.3,7.1-4.3c3.1-14.3,7.6-28.2,14-41.5c0.8-1.7,1.4-3.3,1.2-5.2c-0.2-1.9-0.8-4.4,1.3-5.4
	c2.5-1.2,3.7,1.6,5.4,2.7c0.8,3.2,0.3,6.3-0.3,9.4c-2.4,14.1-6.3,27.8-10.7,41.4c-3.1,9.6-2.8,10.3,6.7,13.7c1.7,0.6,3.4,1.4,5.3,1
	c2.8,0.8,3.5-1,3.9-3.1c0.5-2.6,1-5.2,1.7-7.8c3-12.2,6.3-24.4,9.1-36.7c0.7-3,1.1-5.8,4.8-5.8c3.6,0,4.6,2.7,4.7,5.8
	c-4.4,16.6-6.2,33.8-10.4,50.5c-0.5,1.9,0.5,2.8,2,3.4c7.7,3.6,15.6,6.4,24.4,5.3c4.8,0.2,9.2-1.3,13.5-3.1c1.7-0.7,3-1.6,3.5-3.7
	c1.1-4.9,2.5-9.7,4.1-14.4c1-3.1,0-4.7-2.9-5.7c-2,3.7-2.3,8.1-5.5,11.1c-1.9,1.8-4.3,2.9-6.8,1.7c-2.6-1.3-0.7-3.4-0.4-5.3
	c0.1-1,0.2-2,0.3-3c0.7-11.8,4.8-22.3,11-32.3c1.2-2,2.3-3,4.7-1.8c2.4,1.1,1.9,2.4,1.2,4.4c-1.5,4.4-2.7,8.8,2.5,12
	c1.6,1,2.6,3.1,4.1,4.4c2.9,2.5,5.2,6.6,8.8,7.1c10,1.3,14.4,1.6,18.7-9.1c1-2.6,2.3-4.8,5-5.9c3.3-1.3,5.8,0.4,4.8,3.7
	c-2.5,8.3-3.6,17.3-8.8,24.7c-2.3,2.1-7.3,0.6-7.4,5.8c-0.1,8.7-0.4,17.4-0.5,26.1c-0.3,0.2-0.1,1.2-0.9,0.7
	c-0.1-0.1-0.1-0.3-0.1-0.5c-1.8-8.3-3.8-16.5-5.3-24.8c-0.6-3.4-2.1-5-5.4-5c-8-2.6-8.1-2.6-8.6,5.5c0,0.3,0,0.6,0,1
	c-2.2,6.7-4.6,13.3-12.3,15.6c-3,0.9-2.6,3.4-2.3,5.8c1.7,13,1.1,26-1.2,38.8c-1.6,9.1-2.6,18.1-9.2,25.8
	c-13.9,16.4-26.1,34.1-36.2,53.1c-12.7,23.9-11.4,49.5-8,75.2c1.9,14.3,4.5,28.6,10,42.1c0.8,2.1,0.3,4.3-1.3,5.4
	c-2,1.5-3.4-0.6-4.4-2c-1.6-2.1-3.1-4.4-4.3-6.7c-16.5-32.8-22-67.1-14.5-103.2c0.5-2.2,0.5-3.7-2.1-4.6
	c-6.5-2.4-11.7-6.8-16.7-11.5c-7.5-7.1-15.5-13.6-25-17.8l0,0c-0.2-0.6-0.6-0.8-1.2-0.7c-8.3-4.9-17.1-7.9-26.6-9.4
	c-18-2.8-36.2-1.7-54.3-2.6c-25.2-1.2-47.5,6.7-67.1,22.5c-14.2,11.5-26.3,24.5-32.4,42.2c-5.9,12.3-8.2,25.5-8.7,39
	c-0.3,9.7,1,19.6-2,29.1c-4.9,15.9-1.6,31.2,3.4,46.4c5.5,18.2,16.1,33.2,30.4,45.3c30,25.3,65.1,38.9,104.1,42.1
	c21.2,1.8,41.7-1.6,61.1-10.7c6.7-1.5,12.8-4.7,20.5-7.2c-11.3-3-21.2-5.6-31.2-8.3c-4.4-2.3-10.1-1.8-14-5.9
	c3.6-2.4,7.2-1.5,10.8-1.3c18.6,1,37.2,2.6,55.8,2.8c3.6,0,7.2-0.3,9.8-2.9c4.1-4.1,8.9-4.7,14.3-3.7c18.2,3.2,36.4,6.4,54.8,8
	c7.7,0.6,15.5,2.2,23.2-0.3c5.7-1,11.2-2.8,16.5-5.2c12.9-2.5,25.3-6,36.5-13.4c4.9-3.2,7.1-7.2,7-12.6c0-7.1,0.6-14.1,2.5-21
	c-0.1-16.7,0.5-33.3-0.7-50c0.5-12.4-3.4-24.6-1.2-37.1c1.2,1.8,2.1,3.5,2.6,5.4c1.6,5.9,3.1,11.8,4.6,17.6
	c0.7,5.4,2.1,10.7,4.5,16.4c6.1-15.5,8.6-30.8,10.2-46.3c0.1-1.1,0.8-2.9-1.5-2.8c0.5-0.2,1.1-0.4,1.6-0.6c1.1-4.2,0.8-8.5,0.1-12.7
	c-0.1-0.7-0.2-1.4-0.4-2.2c-0.3-2.3-0.2-4.8-1.3-7c-0.4-18.1-0.1-36.3-5.1-54c-2.9-10.1-5.9-20.2-7.8-30.5
	c-5.8-31.4-11-63-16.5-94.4c-1.1-6.5-2.4-13.1-3.9-20.9c-1.4,4.2-2.4,6.9-3.6,10.6c-1.7-17-3.2-32.9-4.8-48.8
	c-0.1-6.5-4.9-8.9-9.9-11c-35.2-14.7-72.3-22-109.6-28.7c-7.6-2.3-15.3-3.7-23.1-5.1c-7.4-1.6-14.8-3.7-22.6-3.8
	C311.5,148.6,311.9,150.9,313.4,152.4z"/>
<path class="st1" d="M284.2,380.9c9.5,4.3,17.5,10.7,25,17.8c5,4.7,10.2,9.1,16.7,11.5c2.6,0.9,2.5,2.4,2.1,4.6
	c-7.6,36.1-2,70.4,14.5,103.2c1.2,2.4,2.7,4.6,4.3,6.7c1,1.4,2.5,3.4,4.4,2c1.6-1.2,2.1-3.4,1.3-5.4c-5.5-13.5-8.1-27.8-10-42.1
	c-3.5-25.7-4.7-51.3,8-75.2c10.1-19,22.3-36.8,36.2-53.1c6.6-7.7,7.6-16.7,9.2-25.8c2.3-12.8,2.9-25.8,1.2-38.8
	c-0.3-2.4-0.7-4.9,2.3-5.8c7.8-2.4,10.1-9,12.3-15.6c2.1,1.2,2.1,3.6,2.9,5.5c2.5,5.9,4.1,12.3,8,19.2c0.3-3.3,0-5-0.2-6.8
	c-0.9-8.1-2.5-16.2-2.2-24.5c3.3,0,4.8,1.6,5.4,5c1.5,8.3,3.5,16.5,5.3,24.8c0,0.2,0,0.4,0.1,0.5c0.8,0.5,0.6-0.5,0.9-0.7
	c0.3,0.4,0.7,0.8,0.7,1.3c1.7,16.6,3.4,33.2,5.1,49.9c0.3,3.1-0.4,4.1-3.9,3.2c-7.8-2.1-15.8-2-23.7-0.5c-3.4,0.6-4.5-0.4-4.4-3.8
	c0.2-6.6,0.1-13.1,0.1-19.7c-1.3,4.8-1.3,9.6-2.2,14.3c-4.5,22.8-11.6,44.6-24.2,64.4c-11.3,17.7-17.9,36.7-15.6,58
	c0.6,5.1,0.7,10.4,2.9,16.7c5.6-18.9,11.7-36.3,23.7-50.8c-8.7,37.6-10.1,75.4-5.7,113.7c-3.6-5.5-7.2-11-10.8-16.5
	c-0.1-0.4-0.3-0.9-0.4-1.3c-0.1,0.1-0.4,0.2-0.4,0.3c0.2,0.4,0.5,0.7,0.7,1.1c1.4,9.4,5.4,17.7,10.3,25.7c2.6,4.3,5.7,8.3,8.9,12.8
	c-6.6-0.7-12.5-0.5-18.1-3.4c-5.8-3-10.8-6.7-14.9-11.6c-3-3.6-5.3-5.5-7.9,0.4c-0.8,1.7-2.7,2.9-4.1,4.4c-3.3,3.6-6.6,4.1-10.8,0.9
	c-9.2-6.8-20-9.3-31-9c-12.4,0.4-24.1,4.4-34.2,12.1c-3.7,2.8-7,6.6-11.1,8.3c-22.7,9.7-46.5,15.4-71.2,17.4c-1.5,0.1-3.9-1-4.3,1.2
	c-0.3,1.7,2,2.4,3.4,3.2c13.8,8,29,12.3,44.2,16.6c6.2,1.8,12.5,2.5,19,1.7c-2.5-4-7.2-5.4-9.8-9.8c8.3,1.4,15.9,2.5,23.6,3.3
	c15.2,1.6,30.4,2.5,45.7,0.5c5.7-0.8,11.5-1.6,16.9-4c1.6-0.7,3.5-1.4,3.5-3.7c0-2.2-1.2-3.7-3.2-4.6c-3.1-1.4-6.1-2.9-9.2-4.3
	c0.6-1.4,1.8-0.9,2.7-1c8.7-0.7,16.9,1.5,24.7,5c10.8,4.8,22,7,33.8,7.1c13.5,0,26.3-3.4,38.7-8.3c9.1-3.6,17.7-4.9,26.3,1.8
	c4.3,3.4,9.8,4.9,15.3,5.8c8,1.2,16,1.4,24.2-2.8c-4.9-2.5-9.1-4.4-13.1-6.7c-12.2-6.8-22.3-15.5-27-29.3c-1.4-4.2-1.4-7.5,2.3-10.7
	c3.7-3.1,7-6.7,10.3-10.2c13.1-13.5,24.4-28,25.9-47.9c1-13.2,3-26.5,2.1-39.7c-0.5-8.3-0.4-16.6-0.6-24.9c0-1-0.6-2.4,1.4-2.7
	c2.9,12.2,5.8,24.3,9,37.6c1.1-4.1,3-6.9,2.3-10.2c-0.6-3.3-1.5-6.5-2.1-9.7c-0.5-2.8-2.3-5.6-1.1-9.6c2,3.5,3.4,6.1,5,8.8
	c3.9-6.4-0.5-11.5-2.4-17.1c2.2,0.1,2.4,2.6,3.9,2c1.7-0.8,1-2.7,0.9-4c-0.9-12.2-1.2-24.5-4.3-36.5c-2.1-8-4.6-15.9-5.6-24.2
	c-2-16.8-6.2-33.2-10.3-49.6c-1.9-7.7-5.4-15-5.8-23.1c-0.4-10.1-1.3-20.2-3.4-30.1c-1.4-6.6-3.3-13.4-3.1-20c0.2-8,1-15.8-2.6-23.2
	c-0.7-1.4-0.1-2.3,0.9-3c2.1-1.6,3.9-3.7,6.8-3.9c1.6,15.9,3.1,31.8,4.8,48.8c1.3-3.7,2.2-6.4,3.6-10.6c1.5,7.9,2.8,14.4,3.9,20.9
	c5.5,31.5,10.7,63,16.5,94.4c1.9,10.3,4.9,20.4,7.8,30.5c5.1,17.7,4.7,35.9,5.1,54c-1.1,2.6-0.6,4.9,1.3,7c0.1,0.7,0.2,1.4,0.4,2.2
	c-1.3,4.2-1.2,8.5-0.1,12.7c-0.5,0.2-1.1,0.4-1.6,0.6c-1.7,9.5-5.8,18.1-9.2,27c-0.8,2.1-1,5-4,5.6c-1.5-5.9-3-11.8-4.6-17.6
	c-0.5-1.9-1.4-3.7-2.6-5.4c-2.2,12.5,1.7,24.7,1.2,37.1c-0.3,0.7-0.9,1.5-0.9,2.2c-0.1,15,0,30,0,45.1c0,1.2,0.1,2.3,1.6,2.7
	c-1.9,6.9-2.5,13.9-2.5,21c0,5.4-2.1,9.4-7,12.6c-11.2,7.4-23.6,10.9-36.5,13.4c-9.7-0.9-19-4.7-29.7-5c4,5,10.1,5.7,13.2,10.2
	c-7.7,2.4-15.5,0.9-23.2,0.3c-18.4-1.5-36.6-4.8-54.8-8c-5.4-1-10.1-0.3-14.3,3.7c-2.6,2.6-6.2,3-9.8,2.9
	c-18.7-0.2-37.2-1.8-55.8-2.8c-3.6-0.2-7.2-1-10.8,1.3c3.9,4.1,9.5,3.7,14,5.9c-1.6,1.2,0,1.9,0.4,2.8c2.3,5.2,7.4,8,10.3,12.7
	c-19.4,9-39.9,12.4-61.1,10.7c-39-3.2-74.1-16.8-104.1-42.1c-14.3-12.1-24.9-27.1-30.4-45.3c1.5-0.5,2.5,0.4,3.6,1.1
	c21.5,12.2,44.7,16.3,69,13.4c4.1-0.5,8.6-0.5,13-3.2c-15.5-2.9-29.8-7.1-43.6-12.9c-11.6-4.9-23-10.2-32.6-18.7l0,0
	c2.5,0.1,4.7,1.2,7,2.3c6.1,3.1,12.7,4.7,19.3,6.3c-11.7-7.8-22.2-16.7-31.9-26.7c-2.5-2.6-4-6.2-7.4-7.9c2.9-9.6,1.6-19.4,2-29.1
	c0.5-13.5,2.8-26.6,8.7-39c2,0.8,1.6,2.9,1.9,4.3c1.7,7.5,4,14.8,7.8,21.5c6.7,11.6,19.9,24.1,37.1,15.4c0.9-0.4,1.9-0.9,2.8-0.9
	c6.5,0,8.5-4.2,9.7-9.7c1.2-5.4,2.8-10.7,5.9-15.5c-1.1,6.1-0.9,12.3-0.9,18.4c0,1.5-0.6,3.3,2.4,3c5.1-0.5,10.3-0.6,15.4-0.4
	c2.9,0.1,4.2-1,4.9-3.6c0.9-3.3,2.1-6.4,3.2-9.7c0.9,3.2,1.1,6.2,0.5,9c-0.9,3.7-0.2,5.5,3.8,6.4c4.5,1,9.1,2.3,13.1,4.6
	c3.6,2.1,4.9,0.7,5.7-2.9c0.9-3.8,2-7.7,4.4-11c-1.5,5.2,0.4,10.7-1.2,15.8c-0.5,1.5,0.4,2.6,1.7,3.2c8,3.9,15.7,8.7,25.3,8.2
	c8.1-0.5,16.3,0.2,24.4-0.9c3.1-0.4,4.8-1.3,5.9-4.1c5-12.5,10.3-24.9,15.1-37.4c3.4-8.8,5.4-18.1,9.3-26.7
	c1.5-3.4,1.6-7.1,0.6-10.8c-2.3-8.3-6.1-15.7-12.5-21.7C287.1,385.6,284.1,384.3,284.2,380.9z M139.9,505.3
	c-0.1-0.5-0.3-0.9-0.9-0.4c-0.9-0.4-1.8-0.9-2.6-1.3c-7.1-3.7-13.2-9.2-20.6-12.2c-2.2-0.9-5.6-3-7.3-0.3c-1.4,2.2,2.4,3.4,3.4,5.4
	c0.2,0.4,0.6,0.8,0.9,1.2c38.8,41.6,85.4,58.8,141.6,44.2c19.8-5.1,37.2-16.2,54.6-26.7c2-1.2,4-2.3,6-3.6c0.7-0.4,1.2-1.2,0.9-2.1
	c-0.4-0.9-1.2-1.1-2.1-1c-3.3,0.6-6.6,1.2-9.8,2c-15.7,4.2-31.2,9.6-47.1,13.3c-4.8-1.5-9.8-0.5-14.6-0.5c-25.2,0.4-49.7-3.7-74-9.9
	c-9.6-2.5-18.9-5.9-28.5-8.3L139.9,505.3z M199.2,564.2c-16.8,4.8-34,5.2-52.6,4.7C159.3,576.7,187,574,199.2,564.2z M202.3,563.3
	c-0.1,0-0.3-0.2-0.4-0.1c-0.5,0.1-0.5,0.3-0.1,0.5c0.1,0,0.3,0,0.4-0.1C202.3,563.6,202.3,563.5,202.3,563.3z M420.2,594.3
	c-0.1,0-0.3,0.1-0.4,0.1c0,0.1,0.1,0.3,0.1,0.4c0.1,0,0.3-0.1,0.4-0.1C420.3,594.5,420.3,594.4,420.2,594.3z"/>
<path class="st2" d="M474.5,195.9c-2.9,0.2-4.7,2.3-6.8,3.9c-1,0.7-1.6,1.6-0.9,3c3.6,7.4,2.8,15.2,2.6,23.2
	c-0.2,6.7,1.7,13.4,3.1,20c2.1,9.9,2.9,20,3.4,30.1c0.3,8.1,3.9,15.4,5.8,23.1c4.1,16.4,8.3,32.7,10.3,49.6c1,8.3,3.5,16.2,5.6,24.2
	c3.1,12,3.4,24.3,4.3,36.5c0.1,1.4,0.8,3.3-0.9,4c-1.5,0.6-1.7-1.9-3.9-2c1.9,5.6,6.3,10.7,2.4,17.1c-1.5-2.7-3-5.3-5-8.8
	c-1.2,4.1,0.5,6.8,1.1,9.6c0.6,3.3,1.5,6.5,2.1,9.7c0.6,3.3-1.2,6.1-2.3,10.2c-3.2-13.3-6.1-25.4-9-37.6c-2,0.2-1.4,1.7-1.4,2.7
	c0.2,8.3,0.1,16.6,0.6,24.9c0.8,13.2-1.1,26.5-2.1,39.7c-1.5,20-12.8,34.4-25.9,47.9c-3.4,3.5-6.6,7.1-10.3,10.2
	c-3.7,3.1-3.8,6.5-2.3,10.7c4.7,13.8,14.8,22.5,27,29.3c4,2.3,8.3,4.2,13.1,6.7c-8.2,4.2-16.2,4-24.2,2.8c-5.5-0.8-11-2.4-15.3-5.8
	c-8.6-6.8-17.2-5.4-26.3-1.8c-12.4,4.9-25.2,8.3-38.7,8.3c-11.8,0-23-2.2-33.8-7.1c-7.8-3.5-16-5.7-24.7-5c-0.9,0.1-2.1-0.4-2.7,1
	c3.1,1.5,6.1,2.9,9.2,4.3c2,0.9,3.2,2.4,3.2,4.6c0,2.3-1.9,3-3.5,3.7c-5.4,2.4-11.2,3.3-16.9,4c-15.2,2-30.4,1.1-45.7-0.5
	c-7.7-0.8-15.4-1.9-23.6-3.3c2.7,4.4,7.4,5.8,9.8,9.8c-6.5,0.8-12.8,0-19-1.7c-15.2-4.3-30.4-8.6-44.2-16.6
	c-1.4-0.8-3.7-1.6-3.4-3.2c0.4-2.2,2.8-1,4.3-1.2c24.7-2,48.5-7.6,71.2-17.4c4.1-1.8,7.4-5.5,11.1-8.3c10.1-7.7,21.8-11.7,34.2-12.1
	c11-0.3,21.9,2.3,31,9c4.3,3.1,7.5,2.6,10.8-0.9c1.4-1.5,3.3-2.7,4.1-4.4c2.6-5.8,4.9-4,7.9-0.4c4.1,4.9,9.1,8.6,14.9,11.6
	c5.6,2.9,11.5,2.7,18.1,3.4c-3.2-4.6-6.3-8.5-8.9-12.8c-4.8-8-8.8-16.4-10.3-25.7l0,0c3.6,5.5,7.2,11,10.8,16.5
	c-4.3-38.3-2.9-76.2,5.7-113.7c-12,14.5-18.1,31.9-23.7,50.8c-2.2-6.3-2.3-11.5-2.9-16.7c-2.3-21.3,4.4-40.3,15.6-58
	c12.6-19.8,19.6-41.6,24.2-64.4c0.9-4.7,0.9-9.5,2.2-14.3c0,6.6,0.1,13.1-0.1,19.7c-0.1,3.4,1,4.4,4.4,3.8
	c7.9-1.4,15.9-1.6,23.7,0.5c3.5,0.9,4.2-0.1,3.9-3.2c-1.7-16.6-3.4-33.2-5.1-49.9c0-0.4-0.5-0.8-0.7-1.3c0.2-8.7,0.5-17.4,0.5-26.1
	c0.1-5.2,5-3.7,7.4-5.8c0,0,0,0,0,0c-0.2,9.9,1.9,19.5,2.3,30c2.1-1.7,2.1-3.4,2.7-4.9c4.7-11,4.2-22.7,4-34.3
	c1.1-2,1.1-4.2,0.9-6.3c-0.3-4.4,0.6-8.3,3.1-12.2c3.2-5,5.8-10.5,8.6-15.8c-2.2-1-5.9,6-5.8-1.6c0-1.5,0.9-3.7-0.9-4.6
	c-2.6-1.3-1.5,3-3.9,2.8c-0.8-1.7-1.8-3.5-2.9-5.8c-1,5.8,1.6,11.7-4.2,16.3c0-3.7,0-6.7,0-9.7c-1.2,2.2-1.8,4.4-2,6.6
	c-0.5,6.7-2.8,12.1-9.2,15.2c-3.9,1.9-7.8,2.1-11.3-0.3c-3.3-2.3-0.7-5.4-0.1-8.2c0.2-1.1,0.4-2.3,0.6-3.4c0.1-0.1,0.2-0.3,0.2-0.4
	c-0.1,0.1-0.2,0.3-0.2,0.4c-2.1,0.7-2.9,3.6-6.4,3.7c2.7-5.3,5.1-10,7.8-15.4c-4.8,1.4-7.5,5.1-12.4,5.7c2.2-3.7,4.1-6.8,5.9-9.9
	c0.1,0,0.2-0.1,0.3-0.2c0.1,0,0-0.2,0.1-0.2c-0.1,0.1-0.3,0.3-0.4,0.4c-3.3,0.9-5.6,0.7-7.1-3.3c-1-2.6-3.9-4.4-6.6-5.9
	c-3.7-2-11.8-0.5-15.2,1.9c-5.5,3.9-3.9,8.4-2.1,13.2c1.3,3.3,3.3,6.7-1.4,9.3c-0.8,0.4-1.2,2-1.5,3.1c-2.6,10.8-5.3,21.5-7.8,32.3
	c-0.9,3.8-0.6,7.5,2.4,10.7c1.7,1.8,3,4,4.4,6c-8.8,1.1-16.6-1.7-24.4-5.3c-1.5-0.7-2.4-1.5-2-3.4c4.2-16.7,6-33.9,10.4-50.5
	c2.1-3.6,2.3-8.7,8-9.5c1.3-0.2,0.8-2.3,0.8-3.5c0.7-2.5,1.5-5.1,2.2-7.6c1.3-4.6,3.7-6.4,8.7-5c5.1,1.4,10.4,1.9,15.6,2.7
	c-5.3-5.3-11.8-7.3-18.5-9c1.4-1.7,3.4-1,5.1-1.1c11.4-0.4,22.9,1.4,34.3,0c-0.1-0.9-0.9-0.8-1.5-0.9c-8.2-1.6-16.6-0.8-24.8-1.1
	c-4.8-0.2-9.6-0.6-14.3-1.2c-1.5-0.2-3.5-0.9-3.5-3c0.1-2.3,2.1-1.7,3.4-1.7c6.3,0.2,12.6-0.7,18.9,0.8c1.8,0.4,4.1,0.8,6.8-1.2
	c-16.8-2.4-32.4-6.5-48.6-5.6c-2.1,0.1-4.5,0.5-5.9-1.7c-1.1-1.7-2.5-2.5-4.6-2.3c-1.3,0.1-3-0.1-2.8-1.9c0.2-1.6,1.9-0.8,2.9-1.1
	c2.2-0.6,5.1,1.5,6.6-1.7c37.3,6.6,74.4,14,109.6,28.7C469.7,187,474.4,189.4,474.5,195.9z M493.5,417.6c0,0.3,0,0.5-0.1,0.8
	c0.1-0.1,0.2-0.2,0.3-0.4C493.7,417.9,493.6,417.8,493.5,417.6z"/>
<path class="st2" d="M284.2,380.9c-0.1,3.4,2.9,4.7,4.9,6.5c6.4,6,10.2,13.4,12.5,21.7c1,3.6,0.9,7.3-0.6,10.8
	c-3.9,8.6-5.9,17.9-9.3,26.7c-4.8,12.6-10.1,24.9-15.1,37.4c-1.1,2.8-2.8,3.7-5.9,4.1c-8.1,1.1-16.3,0.5-24.4,0.9
	c-9.6,0.5-17.2-4.2-25.3-8.2c-1.3-0.6-2.2-1.7-1.7-3.2c1.6-5.2-0.3-10.6,1.2-15.8c-2.4,3.3-3.6,7.1-4.4,11c-0.8,3.6-2.1,5-5.7,2.9
	c-4.1-2.3-8.6-3.7-13.1-4.6c-4-0.9-4.7-2.7-3.8-6.4c0.7-2.8,0.5-5.8-0.5-9c-1.1,3.2-2.3,6.4-3.2,9.7c-0.7,2.6-2,3.7-4.9,3.6
	c-5.1-0.2-10.3-0.1-15.4,0.4c-3,0.3-2.4-1.5-2.4-3c0-6.1-0.3-12.3,0.9-18.4c-3,4.8-4.6,10.1-5.9,15.5c-1.2,5.4-3.3,9.6-9.7,9.7
	c-1,0-2,0.4-2.8,0.9c-17.1,8.7-30.3-3.7-37.1-15.4c-3.9-6.7-6.1-14-7.8-21.5c-0.3-1.5,0.1-3.5-1.9-4.3c6.1-17.7,18.1-30.7,32.4-42.2
	c19.6-15.8,41.9-23.7,67.1-22.5c18.1,0.8,36.3-0.2,54.3,2.6c9.5,1.4,18.3,4.5,26.6,9.4C283.4,380.4,283.8,380.6,284.2,380.9
	L284.2,380.9z"/>
<path class="st3" d="M417,204c-1.9,3.1-3.7,6.2-5.9,9.9c4.8-0.6,7.5-4.2,12.4-5.7c-2.7,5.4-5.1,10.1-7.8,15.4
	c3.5-0.1,4.3-2.9,6.4-3.7l0,0c-0.2,1.1-0.4,2.3-0.6,3.4c-0.6,2.8-3.2,5.9,0.1,8.2c3.5,2.4,7.4,2.2,11.3,0.3
	c6.5-3.1,8.7-8.5,9.2-15.2c0.2-2.2,0.8-4.5,2-6.6c0,3,0,6,0,9.7c5.9-4.6,3.3-10.5,4.2-16.3c1.1,2.3,2,4.1,2.9,5.8
	c2.4,0.2,1.4-4,3.9-2.8c1.8,0.9,0.9,3,0.9,4.6c-0.2,7.7,3.6,0.7,5.8,1.6c-2.9,5.3-5.4,10.8-8.6,15.8c-2.5,3.9-3.4,7.8-3.1,12.2
	c0.1,2.1,0.2,4.3-0.9,6.3c-1.4,0.1-2.8-0.3-2.5,2.3c0.8,7.6,0.6,7.6-6.5,6.8c0,0,0,0,0,0c5.2-7.4,6.3-16.3,8.8-24.7
	c1-3.3-1.4-5-4.8-3.7c-2.7,1-4,3.3-5,5.9c-4.3,10.7-8.7,10.4-18.7,9.1c-3.6-0.5-5.9-4.6-8.8-7.1c-1.5-1.3-2.4-3.4-4.1-4.4
	c-5.2-3.2-4-7.6-2.5-12c0.7-2,1.2-3.3-1.2-4.4c-2.5-1.2-3.5-0.2-4.7,1.8c-6.2,9.9-10.3,20.5-11,32.3c-0.1,1-0.2,2-0.3,3
	c-0.3,1.8-2.2,4,0.4,5.3c2.5,1.2,4.9,0.2,6.8-1.7c3.2-3,3.5-7.5,5.5-11.1c2.9,1,3.9,2.6,2.9,5.7c-1.6,4.7-2.9,9.5-4.1,14.4
	c-0.5,2.1-1.8,3-3.5,3.7c-4.3,1.8-8.7,3.3-13.5,3.1c-1.5-2-2.7-4.2-4.4-6c-3-3.2-3.2-6.9-2.4-10.7c2.5-10.8,5.1-21.5,7.8-32.3
	c0.3-1.1,0.6-2.6,1.5-3.1c4.7-2.5,2.7-6,1.4-9.3c-1.8-4.8-3.4-9.3,2.1-13.2c3.4-2.4,11.5-3.9,15.2-1.9c2.7,1.4,5.6,3.2,6.6,5.9
	C411.4,204.8,413.7,204.9,417,204L417,204z"/>
<path class="st2" d="M105,527c9.5,8.5,21,13.8,32.6,18.7c13.8,5.8,28,10.1,43.6,12.9c-4.5,2.7-8.9,2.7-13,3.2
	c-24.4,2.9-47.5-1.2-69-13.4c-1.2-0.7-2.2-1.6-3.6-1.1c-5-15.2-8.3-30.5-3.4-46.4c3.4,1.8,4.8,5.3,7.4,7.9
	c9.7,10,20.2,18.9,31.9,26.7c-6.6-1.6-13.2-3.2-19.3-6.3C109.7,528.2,107.6,527.1,105,527c0-0.1-0.1-0.3-0.1-0.4
	c-0.1-0.1-0.2,0-0.3-0.1C104.7,526.7,104.8,526.9,105,527z"/>
<path class="st4" d="M284,228.2c-2.2-0.7-4.4-1.4-6.6-2c-4.3-1-5.1-4.4-4-7.7c5.2-15.1,6.2-31.1,9.8-46.5c5.8,2.4,5.8,2.4,5.9-4.4
	c0-1,0.1-2,0.1-2.9c2.2-3.4,0.5-7.3,1.5-10.9c1.4-5.1,2.7-6.2,8-5.5c4.2,0.6,7.7,2.7,11.2,5c1.2,0.8,2.3,2.8,4,0.5
	c1.1,0.7,2.2,1.4,3.3,2.1c-2.6,1.7-2.4,5.2-4.6,7.2c-3.6-5.6-8.3-6.1-11.6-1.2c-3.4,5-2.8,10.7-2.7,16.4c0,0.4,0.5,1,0.8,1
	c3.8,0.6,2.1,3.2,1.5,4.9c-1.9,6-3.9,12-5,18.2c-0.8,4.4-1.4,8.9-4.5,12.4C287.4,218.6,285.6,223.4,284,228.2z"/>
<path class="st4" d="M312,247.9c-1.6-0.1-3.4,0.2-4.9-0.3c-7.7-2.6-8.6-4.6-6-12.4c5.6-16.4,10.5-32.9,13.3-50
	c0.3-1.9,0.5-3.6-0.4-5.2c0.4-2.2,0.7-4.4,1.1-6.5c1.3-1.2,1.5-2.8,1.9-4.5c1.3-5.3,3.6-6.8,9-6.1c4.2,0.6,8,2.1,11.8,3.8
	c1.7,0.7,3.3,1.8,5.1,0.2c1.4,0.1,2.2,0.8,2.2,2.2c-0.7,1.3-1.5,2.6-2.2,3.8c-7-3.6-8.4-2.8-13.5,2.8c-3.7,4-2.6,8.7-3.8,13
	c-0.8,2.7-3.5,5.5,1.7,6.7c0.8,0.2,0.6,1.4,0.4,2.2c-2.1,10.6-3.9,21.5-10,30.6C313.5,234.4,312.7,241,312,247.9z"/>
<path class="st4" d="M341.9,259.5c-1.9,0.4-3.6-0.4-5.3-1c-9.5-3.4-9.8-4.1-6.7-13.7c4.4-13.6,8.3-27.3,10.7-41.4
	c0.5-3.1,1.1-6.2,0.3-9.4c0.7-2.2,1.5-4.3,2.2-6.5c1.4,0.4,1.9,2.4,3.9,1.9c-0.6-2.4,0.8-4.6,0.6-6.9c-0.6-8.3,2.2-10.5,10.1-7.8
	c4.9,1.7,9.9,3,15.2,3c1.5,1,3.5,0.9,4.6,2.6c0,0-0.1,0-0.1,0c-0.5-0.4-0.9-0.2-1.3,0.3c-1.4,0.6-1,2.3-1.9,3.2
	c-9.2-3.2-19.4,2.7-18.1,12.8c0.3,2.4,0.4,5-1,7.3c-5.2,9.1-6.8,19.2-8.1,29.4c-0.5,4.2,0.1,8.8-2.1,12.6
	C342.4,250.4,341.7,254.8,341.9,259.5z"/>
<path class="st3" d="M377.4,180.5c-1.1-1.7-3.1-1.6-4.6-2.6c-0.6-3.6-3.7-5.1-6.3-6.5c-6.7-3.7-13.8-6.4-21.5-2.2
	c0-1.4-0.8-2.1-2.2-2.2c-6.1-9.7-14.8-13.1-25.9-11.1c-1.1-0.7-2.2-1.4-3.3-2.1c-0.1-0.5-0.2-0.9-0.3-1.4c2-0.1,4-0.2,5.9-0.5
	c4.2-0.5,8.5,1.1,12.7-0.8c7.8,1.4,15.5,2.8,23.1,5.1c-1.5,3.2-4.4,1.1-6.6,1.7c-1,0.3-2.7-0.5-2.9,1.1c-0.2,1.8,1.5,2,2.8,1.9
	c2.1-0.1,3.4,0.6,4.6,2.3c1.4,2.1,3.8,1.8,5.9,1.7c16.2-0.8,31.7,3.2,48.6,5.6c-2.7,2-5,1.6-6.8,1.2c-6.3-1.5-12.6-0.5-18.9-0.8
	c-1.3-0.1-3.4-0.6-3.4,1.7c0,2.1,1.9,2.8,3.5,3c4.8,0.6,9.6,1,14.3,1.2c8.3,0.3,16.6-0.5,24.8,1.1c0.6,0.1,1.4,0,1.5,0.9
	c-11.4,1.4-22.9-0.4-34.3,0c-1.7,0.1-3.7-0.6-5.1,1.1C381.1,180.2,379.3,180.3,377.4,180.5z"/>
<path class="st3" d="M343.1,187.7c-0.7,2.2-1.5,4.3-2.2,6.5c-1.7-1.1-2.9-3.9-5.4-2.7c-2.2,1.1-1.5,3.5-1.3,5.4
	c0.2,1.9-0.4,3.6-1.2,5.2c-6.4,13.2-10.9,27.1-14,41.5c-1,4.6-2.8,5.9-7.1,4.3c0.7-6.9,1.6-13.5,5.7-19.7c6.1-9.1,7.9-20,10-30.6
	c0.2-0.8,0.4-2-0.4-2.2c-5.2-1.2-2.5-4-1.7-6.7c1.2-4.3,0.1-9,3.8-13c5.1-5.6,6.5-6.4,13.5-2.8C343,177.9,341.8,182.8,343.1,187.7z"
	/>
<path class="st3" d="M341.9,259.5c-0.3-4.7,0.5-9.1,2.9-13.4c2.2-3.8,1.5-8.4,2.1-12.6c1.3-10.2,2.9-20.3,8.1-29.4
	c1.3-2.3,1.3-4.9,1-7.3c-1.3-10.1,8.9-16,18.1-12.8c-0.3,3.1-0.7,6.2-0.9,9.4c-0.1,2-1,4.4,1.8,5.6c0,1.3,0.5,3.4-0.8,3.5
	c-5.6,0.8-5.9,5.9-8,9.5c-0.1-3.1-1.2-5.8-4.7-5.8c-3.7,0-4.1,2.8-4.8,5.8c-2.9,12.3-6.1,24.5-9.1,36.7c-0.6,2.6-1.1,5.2-1.7,7.8
	C345.4,258.6,344.7,260.3,341.9,259.5z"/>
<path class="st3" d="M315,173.4c-0.4,2.2-0.7,4.4-1.1,6.5c-0.7-0.7-1.4-1.4-2.2-1.9c-2-1.4-4.2-3.7-6.6-1.7c-2.6,2.1-0.2,4.3,1.1,6
	c1.3,1.7,0.9,3,0.2,4.6c-6.9,14.3-12.7,29-15.5,45.2c-2.6-1.5-4.7-2.7-6.9-3.9c1.7-4.8,3.4-9.6,6.9-13.6c3.1-3.5,3.7-8,4.5-12.4
	c1.1-6.2,3.1-12.2,5-18.2c0.6-1.8,2.3-4.3-1.5-4.9c-0.3-0.1-0.8-0.7-0.8-1c-0.1-5.6-0.6-11.4,2.7-16.4c3.3-4.9,7.9-4.3,11.6,1.2
	C310.6,167.2,312.8,170.3,315,173.4z"/>
<path class="st4" d="M502.9,489c3-0.6,3.2-3.6,4-5.6c3.4-8.9,7.5-17.6,9.2-27c2.3-0.1,1.6,1.7,1.5,2.7c-1.6,15.5-4.2,30.8-10.2,46.3
	C505,499.7,503.6,494.5,502.9,489z"/>
<path class="st4" d="M291,624.1c-2.9-4.6-8.1-7.5-10.3-12.7c-0.4-0.9-1.9-1.6-0.4-2.8c9.9,2.6,19.9,5.3,31.2,8.3
	C303.9,619.4,297.7,622.6,291,624.1z"/>
<path class="st4" d="M420.3,258.4c-0.3,8.3,1.3,16.3,2.2,24.5c0.2,1.8,0.5,3.5,0.2,6.8c-3.9-6.9-5.5-13.3-8-19.2
	c-0.8-1.9-0.8-4.3-2.9-5.5c0-0.3,0-0.6,0-1C412.2,255.8,412.3,255.8,420.3,258.4z"/>
<path class="st3" d="M282.4,254.1c0.3-1.9,0.6-3.8,1.1-6.6c6.2,7.3,12.9,12.5,22.3,14.4c-4.6,4.7-9.2,6.4-14.8,4.1
	C292.5,258.8,286.8,257,282.4,254.1z"/>
<path class="st4" d="M435.1,605.3c-3.1-4.6-9.1-5.2-13.2-10.2c10.7,0.3,20,4.1,29.7,5C446.3,602.5,440.8,604.3,435.1,605.3z"/>
<path class="st4" d="M331.9,151.1c-4.1,1.9-8.4,0.3-12.7,0.8c-2,0.2-3.9,0.3-5.9,0.5c-1.5-1.5-1.9-3.8-4-5.1
	C317.1,147.5,324.5,149.6,331.9,151.1z"/>
<path class="st4" d="M282.4,254.1c4.3,2.9,10.1,4.8,8.6,11.9C283.1,263.6,282.5,262.8,282.4,254.1z"/>
<path class="st3" d="M289.1,164.7c0,1-0.1,2-0.1,2.9c-0.1,6.8-0.1,6.8-5.9,4.4c0.5-2.4,0.8-4.9,1.4-7.3c0.4-1.4,0.3-3.5,2-3.6
	C288.7,161,288.8,163.1,289.1,164.7z"/>
<path class="st3" d="M497.6,553c-1.4-0.4-1.6-1.5-1.6-2.7c0-15,0-30,0-45.1c0-0.7,0.6-1.5,0.9-2.2
	C498.1,519.7,497.4,536.3,497.6,553z"/>
<path class="st3" d="M517.7,455.7c-1.1-4.2-1.2-8.5,0.1-12.7C518.5,447.3,518.8,451.5,517.7,455.7z"/>
<path class="st3" d="M517.4,440.9c-1.9-2.1-2.3-4.4-1.3-7C517.2,436.1,517.1,438.6,517.4,440.9z"/>
<path class="st1" d="M284.1,380.9c-0.4-0.2-0.8-0.5-1.2-0.7C283.6,380,284,380.2,284.1,380.9z"/>
<path class="st0" d="M256.9,523.7c15.9-3.7,31.3-9,47.1-13.3c3.2-0.9,6.5-1.4,9.8-2c0.9-0.2,1.7,0.1,2.1,1c0.4,0.9-0.2,1.7-0.9,2.1
	c-2,1.3-4,2.4-6,3.6c-17.4,10.5-34.7,21.5-54.6,26.7c-56.2,14.6-102.7-2.6-141.6-44.2c-0.3-0.4-0.7-0.7-0.9-1.2
	c-1-2-4.8-3.3-3.4-5.4c1.7-2.7,5.1-0.6,7.3,0.3c7.4,3,13.5,8.5,20.6,12.2c0.9,0.5,1.8,0.9,2.6,1.3c0.2,0.3,0.5,0.4,0.9,0.4
	c0,0-0.1-0.2-0.1-0.2c4.7,3.8,10.2,6,15.6,8.4C188.2,528,221.8,533,256.9,523.7z"/>
<path class="st4" d="M256.9,523.7c-35.1,9.3-68.7,4.2-101.4-10.2c-5.4-2.4-10.9-4.7-15.6-8.4c9.6,2.4,18.9,5.9,28.5,8.3
	c24.3,6.2,48.8,10.3,74,9.9C247.1,523.2,252.1,522.3,256.9,523.7z"/>
<path class="st4" d="M199.2,564.2c-12.1,9.7-39.9,12.5-52.6,4.7C165.2,569.4,182.4,569.1,199.2,564.2z"/>
<path class="st2" d="M374,518c-0.2-0.4-0.5-0.7-0.7-1.1c0,0,0.2-0.2,0.4-0.3C373.8,517.1,373.9,517.5,374,518
	C374,518,374,518,374,518z"/>
<path class="st4" d="M202.3,563.3c0,0.1,0,0.3,0,0.3c-0.1,0.1-0.3,0.1-0.4,0.1c-0.4-0.2-0.4-0.4,0.1-0.5
	C202,563.2,202.2,563.3,202.3,563.3z"/>
<path class="st4" d="M420.2,594.3c0,0.1,0.1,0.2,0.1,0.4c-0.1,0-0.3,0.1-0.4,0.1c0,0-0.1-0.2-0.1-0.4
	C419.9,594.3,420.1,594.3,420.2,594.3z"/>
<path class="st4" d="M139.9,505.3c-0.4,0-0.7-0.1-0.9-0.4C139.6,504.3,139.8,504.8,139.9,505.3z"/>
<path class="st1" d="M440,256.1c7.1,0.8,7.3,0.8,6.5-6.8c-0.3-2.6,1.1-2.2,2.5-2.3c0.1,11.6,0.7,23.2-4,34.3
	c-0.6,1.4-0.6,3.2-2.7,4.9C441.9,275.6,439.8,266,440,256.1z"/>
<path class="st0" d="M375,198.9c-2.8-1.1-1.9-3.6-1.8-5.6c0.1-3.1,0.6-6.2,0.9-9.4c0.9-0.9,0.5-2.6,1.9-3.2c0.4-0.1,0.9-0.2,1.3-0.3
	c0,0,0.1,0,0.1,0c1.8-0.1,3.7-0.3,5.5-0.4c6.7,1.6,13.3,3.7,18.5,9c-5.2-0.9-10.5-1.3-15.6-2.7c-5.1-1.4-7.5,0.4-8.7,5
	C376.5,193.9,375.7,196.4,375,198.9z"/>
<path class="st1" d="M493.5,417.6c0.1,0.1,0.2,0.3,0.2,0.4c0,0.1-0.2,0.2-0.3,0.4C493.5,418.1,493.5,417.9,493.5,417.6z"/>
<path class="st3" d="M422,220c0.1-0.1,0.2-0.3,0.2-0.4C422.2,219.7,422.1,219.9,422,220C422,220,422,220,422,220z"/>
<path class="st3" d="M417,204c0.1-0.1,0.3-0.3,0.4-0.4c0,0.1,0,0.2-0.1,0.2C417.2,203.9,417.1,203.9,417,204
	C417,204,417,204,417,204z"/>
<path class="st1" d="M105,527c-0.1-0.2-0.3-0.3-0.4-0.5c0.1,0,0.2,0,0.3,0.1C104.9,526.7,105,526.9,105,527C105,527,105,527,105,527
	z"/>
<path class="st0" d="M315,173.4c-2.3-3.1-4.4-6.2-2.6-10.4c2.1-2,2-5.5,4.6-7.2c11.1-2.1,19.8,1.4,25.9,11.1
	c-1.8,1.6-3.4,0.5-5.1-0.2c-3.8-1.7-7.7-3.2-11.8-3.8c-5.4-0.7-7.7,0.8-9,6.1C316.6,170.6,316.4,172.3,315,173.4z"/>
<path class="st0" d="M343.1,187.7c-1.3-4.9-0.1-9.8-0.2-14.7c0.7-1.3,1.5-2.6,2.2-3.8c7.7-4.1,14.8-1.5,21.5,2.2
	c2.5,1.4,5.6,3,6.3,6.5c-5.3,0-10.3-1.3-15.2-3c-7.9-2.7-10.6-0.5-10.1,7.8c0.2,2.3-1.2,4.5-0.6,6.9
	C345,190.1,344.5,188.1,343.1,187.7z"/>
<path class="st3" d="M377.3,180.5c-0.4,0.1-0.9,0.2-1.3,0.3C376.3,180.3,376.7,180.1,377.3,180.5z"/>
</svg>
