<?xml version="1.0" encoding="utf-8"?>
<!-- Generator: Adobe Illustrator 19.1.0, SVG Export Plug-In . SVG Version: 6.00 Build 0)  -->
<svg version="1.0" id="Layer_1" xmlns="http://www.w3.org/2000/svg" xmlns:xlink="http://www.w3.org/1999/xlink" x="0px" y="0px"
	 viewBox="0 0 500 500" style="enable-background:new 0 0 500 500;" xml:space="preserve">
<style type="text/css">
	.st0{fill:#D16654;}
</style>
<path class="st0" d="M258.9,22.9c3,1.1,6,2,8.9,3.3c4.6,2.1,7.3,5.8,8.2,10.8c0.8,4.1,1.5,8.3,2.2,12.5c3.4,0.2,4.2,0.9,2.3,4.1
	c-2.4,4.1-3.2,8.7-5.7,12.9c-2.8,4.6-6.3,10.4-4.5,16.7c0.5,1.8,2.5,3.6,4.3,4.6c8.7,4.7,18.1,7.5,27.9,9.3c5.4,1,9.1,4,12.3,8.3
	c6.3,8.2,8.4,17.2,6.6,27.4c-1.5,8.4,0.1,16.8,1.5,25.2c0.3,1.7,1,3.5,0.7,5.2c-1.3,7.9,2.5,13.9,6.6,19.9c5.6,8.3,8,17.6,8.9,27.4
	c1.2,12.5,6.4,23.4,13.1,33.7c0.7,1.1,2,1.8,3.1,2.5c7.5,4.2,12.3,11.2,19.2,17c-6,2.9-9.1-0.9-13.3-3.6c2.1,6.7,4,12.7,5.9,18.7
	c0.5,1.5,1.1,3.1,1.2,4.7c0,1.1-0.8,2.3-1.2,3.4c-0.9-0.6-2.3-1-2.8-1.9c-1.7-3.2-3.1-6.5-4.6-9.8c-0.2-0.5-0.5-1-0.8-1.6
	c-0.4,0.1-0.8,0.1-1.1,0.2c0.4,2.2,0.8,4.5,1.3,6.7c0.6,2.8,1.4,5.5,1.8,8.3c0.1,0.8-0.6,1.7-1,2.6c-0.8-0.6-2.1-1-2.5-1.7
	c-1.7-3.9-3.1-7.8-4.6-11.8c-0.4-1-0.6-2-0.9-3c-0.5,0.1-0.9,0.2-1.4,0.3c0.4,2.1,0.7,4.3,1.2,6.4c0.6,2.4,1.6,4.7,2,7.2
	c0.2,1.2-0.6,2.5-0.9,3.8c-1.1-0.8-2.7-1.4-3.1-2.5c-1.7-3.7-2.9-7.7-4.4-11.5c-0.4-1.1-0.9-2.2-1.9-4.3c-0.9,5.2,3.3,9,0,14.3
	c-0.6-1.2-1-1.8-1.2-2.5c-3-8.6-5.9-17.1-8.9-25.7c-0.1-0.2-0.2-0.5-0.1-0.7c2.2-11.7-4.7-20-10.5-28.8c-4.6-6.9-9.4-13.8-13.5-21
	c-4.7-8.3-5-17.8-6-27.1c-0.8-7.5-3-14.9-5.2-22.2c-3.6,5.5-3.8,11.5-4.5,17.3c-2,17.5,2.2,34.1,7,50.7c3.5,12.2,4.1,24.5,2.5,37
	c-1.3,10.4-2.3,20.8-4.5,31c-1.9,9-4.9,17.7-7.8,26.4c-1.9,5.6-3.2,11.2-2.7,17.2c0.3,3.7-0.5,7.5,0,11.2c0.8,7.4,1.7,14.8,3.3,22.1
	c2.1,9.3,1.1,18.3-1.2,27.3c-3,11.5-6.4,23-9.9,34.3c-3.8,12.4,1.3,22.5,12.5,28c2.4,1.2,4.7,2.8,6.7,4.7c1,1,1.8,3.6,1.2,4.4
	c-2,2.7-2.6,5.9-7,7.4c-9.3,3.1-14.5-2.2-20.5-6.9c-3.1-2.4-6.4-4.7-10-6.1c-4.9-1.9-6.5-3.7-4.9-8.5c1.5-4.6,2.7-8.8,1.4-13.8
	c-0.6-2.2,1.2-5,1.5-7.6c0.7-5.2,1.7-10.4,1.4-15.6c-0.5-8.5-2.2-16.9-3-25.4c-0.4-3.8-0.3-7.7,0.2-11.5c1.5-10.4,1-20.6-1-30.9
	c-0.9-4.8-0.9-9.9-0.9-14.9c0-11.9,0.3-23.7,0.2-35.6c-0.1-4.6-1.2-9.3-1.8-13.9c-0.4,0-0.8,0-1.2,0c-0.5,1.8-1.4,3.6-1.5,5.5
	c-0.4,5.8-0.8,11.6-0.8,17.4c-0.1,12,0.3,24,0,36c-0.2,5.8-2,11.5-2.3,17.3c-0.3,5.8-0.2,11.7,0.5,17.5c1.1,8.8-0.8,17.3-1.9,25.9
	c-0.8,6-0.6,12.2-0.4,18.2c0.3,7.5,1.1,15,1.8,22.5c0.3,2.6,0.8,5.2,1.7,7.6c2,5.4,0.8,8.4-4.9,9.7c-4.6,1.1-7.4,4.3-10.5,7.3
	c-1.8,1.7-4.2,2.8-6.4,4.1c-1.5,0.9-3.1,1.5-4.7,2.3c-2.4,1.2-4.9,2.2-7.2-0.3c-0.2-0.3-0.6-0.5-0.9-0.6c-3.6-0.9-7.5-4.8-7.9-8.3
	c-0.1-0.9,0.8-2.3,1.6-3c2.8-2.1,5.8-3.9,8.7-5.8c10-6.5,14-14.6,10.9-25.1c-2.3-7.9-4.9-15.7-7.1-23.6c-2.8-10.3-6.2-20.6-5.3-31.5
	c0.5-6.4,2.1-12.7,3.2-19.1c0.5-3.1,1.1-6.1,1.1-9.2c0-7.8,0.3-15.7-0.7-23.3c-0.8-6.1-3.9-11.8-5.4-17.8
	c-2.7-10.8-5.2-21.7-7.2-32.7c-1.4-7.6-1.9-15.3-2.4-23.1c-0.7-11.8,1.4-23.2,4.5-34.6c2.8-10.3,5.3-20.8,6-31.4
	c0.7-10,0-20.4-3.9-30c-0.4-0.1-0.7-0.1-1.1-0.2c-1.7,6.8-4.3,13.4-4.8,20.3c-0.9,13.5-2.8,26.4-10.6,37.9
	c-5.5,8-11.1,15.9-16.1,24.2c-1.8,2.9-3.2,6.8-2.9,10c1.1,13-6.3,23.3-9.4,35.3c-3.6-2-2.2-4.4-1.8-6.5c0.4-2.1,1.1-4.2,1.4-6.4
	c-4.4,5.2-4.1,13-10.1,18.6c-2.3-7.6,3.7-13,2.1-20.1c-1.3,3.4-2.4,6.1-3.4,8.9c-0.9,2.3-1.7,4.7-2.8,6.9c-0.5,0.9-1.8,1.3-2.8,1.9
	c-0.4-1.1-1.2-2.3-1-3.4c0.5-2.5,1.5-5,2.2-7.5c0.6-2.2,1-4.5,1.5-6.8c-0.3-0.1-0.7-0.3-1-0.4c-0.6,1.2-1.4,2.3-1.9,3.5
	c-1.2,2.7-2.3,5.5-3.7,8.1c-0.5,0.9-1.8,1.3-2.8,1.9c-0.4-0.9-1.3-1.9-1.2-2.8c0.2-2.1,0.7-4.1,1.3-6.1c1.8-5.8,3.7-11.5,5.8-18
	c-4.2,2.7-7.2,6.5-12.4,4.3c0.4-1,0.5-2,1.1-2.5c5.8-5.2,11.8-10.2,17.5-15.5c2.4-2.2,4.5-4.9,6-7.8c5.8-10.3,9.2-21.3,10.2-33.2
	c0.6-8.3,3.9-15.9,8.6-22.8c3.9-5.8,6.6-11.6,6.4-18.9c-0.1-5.5,1.5-11.1,1.9-16.6c0.3-5.3,0.7-10.7-0.2-15.9
	c-2.1-13.1,2.7-23.4,12.5-31.1c3.7-2.9,9.6-3.1,14.4-4.8c7-2.4,14-4.9,20.9-7.7c3.7-1.5,5-8,2.7-11.7c-1-1.7-1.9-3.5-2.8-5.2
	c-1.1-2-2.4-3.8-3.2-5.9c-1.9-4.7-3.7-9.5-5.7-14.7c1.9,0,2.9,0,3.6,0c0.3-4.1,0.3-7.9,1-11.6c1.8-9.7,7.1-12.7,16.1-14.6
	c0.8-0.2,1.5-0.5,2.3-0.7C253.9,22.9,256.4,22.9,258.9,22.9z"/>
</svg>
