<?xml version="1.0" encoding="utf-8"?>
<!-- Generator: Adobe Illustrator 19.1.0, SVG Export Plug-In . SVG Version: 6.00 Build 0)  -->
<svg version="1.0" id="Layer_1" xmlns="http://www.w3.org/2000/svg" xmlns:xlink="http://www.w3.org/1999/xlink" x="0px" y="0px"
	 viewBox="0 0 612 609.6" style="enable-background:new 0 0 612 609.6;" xml:space="preserve">
<style type="text/css">
	.st0{fill:#FBF9F7;}
	.st1{fill:#893F49;}
	.st2{fill:#FC5D46;}
	.st3{fill:#CC4A38;}
	.st4{fill:#FB5C46;}
	.st5{fill:#8B3D47;}
	.st6{fill:#FCFAF9;}
	.st7{fill:#FCFAF8;}
	.st8{fill:#8B3E47;}
</style>
<g>
	<path class="st0" d="M571.2,238.7c0.1,0,0.3,0,0.4,0c0,3.3,0,6.6,0,9.9l-0.2,0l-0.2,0C571.2,245.3,571.2,242,571.2,238.7z"/>
	<path class="st1" d="M571.2,238.7c0,3.3,0,6.6,0,9.9c-1,8.9-2.9,17.5-7.8,25.2c-0.8,1.2-0.1,2.1,0.2,3.1c5.7,17.2,5.6,34.2-1.4,51
		c-1.3,3.1-3,6.1-5.1,8.8c-5,6.5-11.2,10.8-20.1,10.5c1,3.7,2.2,7.2,2.7,10.9c4.4,33.4-22.7,61.5-56.2,58c-1.2-0.1-1.8-0.2-2.1,1.3
		c-4.9,23-20.6,34.4-42.5,38.4c-13.5,2.5-26.4-0.3-38.4-7.3c-1.1-0.7-2.2-1.2-3.6-1.2c-5.4,0-10.6-1-15.6-2.8
		c-1.3-0.4-2.1-0.4-3.1,0.7c-7,7.6-15,13.7-25.4,16.1c-2,0.4-2.3,1.5-2.2,3.3c0.5,23.3-1.3,46.4-7,69c-2.6,10.2-6,20.2-11.8,29.1
		c-1.5,2.2-3.1,4.3-5,6.2c-8.2,8.1-18.6,8.2-26.8,0c-5.6-5.6-9.1-12.6-12-19.9c-5.8-14.8-8.6-30.3-10.3-46
		c-2.3-20.7-2.3-41.4-0.1-62.1c0.8-7.6,1.9-15.1,3.5-22.5c0.8-3.6,0.1-7.1,0.6-10.7c2.8-21.4,17.9-38.4,39.5-44.1
		c12.5-3.3,24.9-2.5,36.9,2.4c1.3,0.5,2.2,0.9,3.6-0.4c16.8-15.8,41.4-19.4,62-9c2,1,2.5,0.8,3.1-1.4c4.2-15.1,13.3-25.4,29-29.3
		c2.5-0.6,4-3,6.3-3.8c4.7-1.7,5.5-4.8,5.4-9.6c-0.3-15,4.2-28.6,14.6-39.7c1.4-1.5,0.2-2-0.5-2.8c-6.7-7.9-10.6-16.9-10.3-27.4
		c0.3-11.9,5.6-20.8,15.9-26.8c0.6-0.4,1.2-0.7,2-1.2c-7.4-5.3-13.4-11.7-17.8-19.5c-4.6-8.1-7.1-16.9-7-26.3c0-1.8-0.4-2.3-2.2-2.3
		c-3.9,0.2-7.7-0.4-11.4-1.5c-1.3-0.4-2-0.5-2.3,1.1c-5.2,29.8-42.6,45.1-70.6,27.8c-0.7-0.4-1.6-2.3-2.5,0.1
		c-5.8,15.4-17.3,25-32.2,30.7c-15.4,5.9-30.9,6.4-46.4-0.1c-4.3-1.8-8.1-4.2-11.6-7.3c-0.8-0.7-1.3-1.4-2.4-0.3
		c-9.4,9-20.9,12.6-33.6,12.5c-20.4-0.2-37.4-7.8-50.4-23.9c-3.2-4-5.6-8.4-7.1-13.2c-0.4-1.3-1-1.8-2.5-1.6
		c-15.4,1.9-29.7-1.6-42.8-9.8c-1.4-0.8-1.9-0.7-2.5,0.8c-3.7,9.4-9.9,16.8-18.3,22.4c-1.3,0.9-1.5,1.3-0.2,2.5
		c18.5,18.2,21.2,43.6,7.1,65.7c-0.8,1.2-0.9,1.7,0.6,2.4c13.5,6.4,20.5,17.2,21,32.2c0,1,0,1.8,1.4,2.3
		c11.2,3.5,17.2,11.9,19.6,22.8c2.6,11.7,0.4,22.6-7.6,31.9c-3,3.5-6.7,6-11.2,7.2c-1.6,0.5-2.3,1.3-3,2.7
		c-6.3,13.7-16.1,23.5-31.2,26.5c-17.7,3.6-31.6-3.4-42.1-17.5c-6.8-9.2-9.8-19.8-9.6-31.2c0-1.8-0.4-2.9-2-4
		c-12.7-9.4-18-22.5-18-37.9c0-9.7,2.6-18.7,8.1-26.7c1-1.5,0.7-2.2-0.5-3.4C37,259.3,38,225.6,60,206.3c1.8-1.6,1.3-2.1-0.2-3.3
		c-12.1-9.3-18.9-21.4-18.7-36.8c0.2-15.6,7.7-27.6,20.1-36.7c1-0.7,2.3-1.2,3.1-2.4c-4.8-4.2-9-8.9-12.4-14.3
		c-15.3-24.4-6.2-52,20.6-62.4c5.5-2.1,11.2-3.4,17.1-3.8c1.7-0.1,2.7-0.7,3.7-2.1c9-13.5,21.6-20.3,37.8-19.9
		c23.5,0.5,42.7,21.7,41,45.1c-0.1,1.5-0.2,3.1-0.3,4.9c14.7-4.7,28.5-3.4,41.2,4.9c12.8,8.4,19.6,20.5,21.2,35.8
		c10.2-5.5,20.8-6.8,31.7-2.9c10.9,3.9,18.2,11.5,22.7,22.5c7.9-8.6,17.4-13.9,28.9-15.2c11.5-1.3,21.9,1.7,31.7,8.3
		c1.2-8.9,4.1-16.8,9.7-23.5c11.9-14.5,27.3-20.1,45.8-17c2,0.3,2.6,0.3,2.7-2c1.5-22.2,16-39.2,37.3-43.6
		c14.5-2.9,27.6,0.6,39.1,10.1c1.5,1.2,2.6,1.7,4.6,1.2c22.1-5.5,44.1,7.3,50.4,29.3c0.4,1.6,1,2.6,2.7,3.4
		c20.2,9.3,27.1,34.5,14.5,52.8c-1.2,1.8-1.2,2.7,0.1,4.4c7.4,9.5,10,20.7,9.7,32.5c-0.2,10-3,19.5-7.2,28.6c-0.4,0.8-0.9,1.4,0,2.4
		c8.4,8.8,11.5,19.8,12.6,31.5C571.1,238.3,571.1,238.5,571.2,238.7z M100.4,266.3c2,1.9,3.9,3.8,5.9,5.7c2.6,2.5,2.6,2.8,0.2,5.6
		c-5.2,4.5-9,10.1-11.3,16.5c-2.6,7.1-1.5,13.8,3.4,19.8c4.9,6,11.4,9.8,18.4,13c5.6,2.6,4.5,1.6,4.5,7.2c0,0.7-0.2,1.4-0.3,2.2
		c-0.8,10,0.4,19.2,9.2,25.7c6.2,4.1,13.2,4.5,20.4,4.4c5.7,0,10.3-2.4,13.7-6.7c6.1-7.8,7.3-17,5.3-26.1
		c-2.2-10.2-8.1-17.5-20.2-19.4c-1.4-0.2-1.7-0.7-1.5-2c0.8-4.7,0.3-9.2-1.1-13.7c-3.7-11.3-11.7-17.5-22.9-20.2
		c-0.8-0.2-2.1,0.5-2.3-0.8c-0.2-0.9,1-1.5,1.6-2.1c7.5-7.3,11-16.6,12.4-26.6c0.8-5.9,0-11.9-1.9-17.8
		c-3.2-10.4-9.4-18.4-18.3-24.6c-0.5-0.4-1.7,0-1.6-1.1c0.1-0.9,1-1,1.6-1.3c10.6-5.1,18.7-12.6,23.3-23.6c0.9-2.2,1-4.4-1.4-6.3
		c-4.2-3.3-7.4-7.5-9.9-12.2c-2.5-4.6-4.4-9.5-4.8-14.8c-0.2-3.4-0.1-3.4-3.4-2.8c-0.5,0.1-1.1,0-1.6,0c-2.7,0-5.5,0.1-8.2,0.1
		c-11.4-1-22.8-2.8-32.2-9.2c-6.8-4.6-11.4-3.6-16.4,1.6c-0.5,0.5-1.1,0.9-1.6,1.5c-10.6,11.4-15.5,24.3-10.4,39.9
		c2.8,8.5,7.9,15.2,15.1,20.5c2.7,2,5.7,3.5,8.7,5.4c-2.9,2.3-6,3.8-8.5,6.1c-7.2,6.6-12.4,14.5-14.4,24.3
		c-1.5,7.5-1.4,14.9,0.6,22.3c2.6,9.3,8.1,16.9,15.5,23c1.5,1.2,1.5,1.8,0.3,3.1c-5.1,5.4-8.1,12-9.4,19.2c-1.3,6.9-1.1,14,0.9,20.9
		c2.3,7.9,6,14.9,12.7,19.6c4.2,2.9,7.4,5.5,5.6,11.1c-0.1,0.2,0,0.4,0,0.5c0.5,10.2,3.4,19.6,9.8,27.7c3.6,4.5,7.6,8.6,13.3,10.5
		c5.2,3.8,11.4,4.6,17.4,4c6-0.6,12-2.2,17.1-6.2c5.6-4.5,10.6-9.4,13.8-15.9c0.8-1.7,0.3-1.7-1.1-1.9c-3.6-0.5-7.2-1-10.7-1.9
		c-3.9-1-7-3.4-10.4-5.2c-2-2.4-4.2-4.5-5.6-7.4c-3.7-7.4-5-15.2-3.7-23.3c0.2-1.5,0-2.2-1.4-2.8c-5.3-2.3-10.2-5.1-14.7-8.8
		c-10-8.3-13.8-19.1-9.3-31.5c2-5.7,5.5-10.4,9.3-15c0.8-0.9,1.4-1.6,0.1-2.7c-3.8-3.2-6.9-7-9.8-11c-4.4-5.8-7.3-12.4-7.8-19.8
		c-0.8-11.4,4.3-20.7,11.9-28.6c3.3-3.4,3.5-2.2,0.2-6.1c-5.8-7-8.4-15.2-8.8-24.1c-0.4-8.5,2.2-16.4,5.9-23.9
		c1.8-3.7,3.8-7.2,6.5-10.4c1.1-1.3,2.6-1.6,3.9-0.4c1.2,1.1,1.8,2.5,0.3,4c-1.8,1.8-2.8,4-4.1,6.1c-4.4,7.4-7.1,15.4-7,24.1
		c0,4.8,1.4,9.5,3.3,14c2.4,4.3,5.3,8.1,8.9,11.5c1.7,1.6,1.1,4.4-0.9,5.5c-0.6,0.3-1.5,0.2-1.6,1.2c-1.4,1.3-2.9,2.5-4.1,4
		c-5.6,6.5-9.8,13.9-8.8,22.7C88.4,252.3,93.3,260,100.4,266.3z M382.2,408.8c0.4-2,1.7-2.4,3.4-2.2c1.8,0.3,2.2,1.7,2.1,3.3
		c-0.1,1.3-0.1,2.5-0.4,3.8c-0.9,4.1-1.6,8.1-2.3,12.2c-1,3.2-1.7,6.6-3.1,9.7c-1.1,2.5-0.6,3.4,2.1,4c5.1,1.3,10.3,2.9,15.7,2.3
		c1.3-0.1,2.3,0.6,3.2,1.3c5.4,4.4,12.1,6.6,18.7,7.2c9.5,1,19.2,0.9,28.4-3.1c8.6-3.7,15.7-9.1,20.8-17c3.5-5.5,5.8-11.5,5.2-18.2
		c-0.1-1.8,0.5-2.6,2.6-2.3c2.1,0.3,4,1.1,6.1,1.3c6.7,0.5,13.3-0.2,19.6-2.5c13.5-4.8,22.8-14.1,27.8-27.6
		c2.1-5.7,2.6-11.5,2.4-17.6c-0.2-5-1.2-9.7-2.9-14.4c-1.3-3.4,1.3-7.5,4.9-7.3c8.3,0.6,13.5-4,17.6-10.3c2-3.2,3.6-6.6,4.8-10.2
		c1.5-4.4,2.5-8.8,2.9-13.4c0.3-4.7,0.4-9.4,0-14c-0.4-5.6-1.4-11.1-3.9-16.2c-0.9-1.8-1.2-3.4,0.2-5.5c3.8-5.4,6.1-11.6,6.8-18
		c0.5-4.4,1.3-8.9,0.9-13.6c-0.7-7.4-1.8-14.6-5.2-21.3c-2.1-4.2-4.5-8.5-9-10.9c-1.4-0.7-1-2-0.3-3.1c1.1-1.4,2-3,2.8-4.6
		c2-3.6,2.7-7.6,4-11.5c1.7-5.1,2.4-10.6,2.3-15.8c-0.1-3.9-0.8-7.9-1.8-11.8c-1.8-7.3-5.2-13.6-10.5-18.8c-1.2-1.2-1.1-1.7-0.1-2.8
		c1.8-1.8,3.3-3.9,4.6-6.1c4.4-7.6,4.6-15.5,2.7-23.8c-1.6-6.7-5.7-11.6-10.8-15.9c-1-0.8-2.4-2.1-3.5-1.6c-1.3,0.6-0.7,2.5-0.7,3.8
		c-0.6,3.3-0.6,6.7-1.7,10c-3.4,10-9.4,18-18.4,23.7c-5,3.1-10.4,4.7-16.1,5.8c-1.1,0.2-1.6,0.6-2,1.7c-1.3,3.8-2.9,7.5-5.2,10.8
		c-6.1,8.9-14.4,14.8-24.9,17.5c-1.1,0.3-1.7,0.9-1.7,2.1c-0.1,4.8-0.1,9.5,1.4,14.1c4.2,12.9,11.9,23.1,23.6,30.1
		c3.2,1.9,6.7,3.1,10.3,5.2c-5.1,0.5-9.7,1.1-14,3c-13.6,6.2-17.5,21.1-12.9,34.1c2.1,5.9,5.5,11.1,10.2,15.3c2.7,2.4,2.6,2.6,0,4.9
		c-0.8,0.7-1.5,1.3-2.2,2c-6.2,6.4-10,13.9-12.1,22.6c-1.7,7.2-2.1,14.4-1,21.7c0.2,1.4-0.3,2.2-1.6,2.8c-2,0.9-4,1.9-5.9,2.9
		c-3.7,2-6.9,4.5-11.3,5.9c-13.6,4.2-21,14.1-23.2,28c-0.4,2.5-0.7,5-1.1,7.8c-4.3-3.7-8.8-6.4-13.7-8.3c-10.5-4.1-21.3-4.3-32-1.3
		c-8.3,2.4-15.6,6.9-21.4,13.5c-1.3,1.5-2.3,1.8-4.2,0.8c-5.2-2.7-10.8-4.2-16.7-4.9c-9.5-1.3-18.8-0.2-27.3,3.9
		c-15.7,7.4-26.1,19.2-27.9,37.3c-0.3,2.6,0.4,5.2-0.1,7.6c-1.2,6.3-2.2,12.6-3.2,18.9c-1.7,10.9-2.3,21.8-2.4,32.8
		c0,13.6,0.3,27.2,2.4,40.8c1.2,7.8,2.6,15.4,4.3,23.1c1.6,7,4.2,13.7,7,20.3c1.3,2.3,2.4,4.6,3.9,6.8c2.8,4.3,5.9,8.3,11.2,9.9
		c1.9,0.6,3.7,0.7,5.6,0.1c4.3-1.4,7.5-4.2,10.1-7.8c5.4-7.3,8.3-15.6,10.9-24.1c2.5-8,4-16.3,5.4-24.6c1.1-6.4,1.7-13,2.2-19.5
		c0.6-9.9,0.2-19.8,0.2-29.7c0-0.7,0.1-1.8-0.8-1.8c-1.9,0.1-3.5-1.1-5.2-1.1c-3.3,0-6.2-1.3-9.3-1.8c-0.3-0.2-0.6-0.4-0.9-0.5
		c-3.6-1.2-7.3-2.5-10.6-4.5c-1.1-0.7-2.4-1.8-1.2-3.3c1-1.3,1.8-2.5,4-1.4c3.5,1.7,7.2,2.9,10.9,4.3c1.1,1,2.5,0.3,3.7,0.6
		c6.2,1.8,12.6,2.7,18.9,0.8c11.1-3.3,18.4-10.7,22.5-21.5c1.7-4.4,2.9-9,3.8-13.7C381.1,416.1,381.8,412.4,382.2,408.8z M50.9,83.5
		c-0.9,0.8-1,1.9-1,3c0,2.9,0.3,5.7,0.9,8.6c0.8,4.2,2.1,8.1,3.9,11.7c4.6,8.7,11.6,15.6,19.8,21c10.4,6.8,22.2,10,34.5,11.2
		c5.5,0.5,10.9-0.8,16.2-1.9c2-0.4,2.8-0.2,2.8,2.1c0,3.9-0.3,7.7,0.9,11.7c3.7,12.7,12.2,21.3,23.2,27.6c6.5,3.7,13.7,6,21.2,7.2
		c6.5,1,13,0.7,19.2-0.8c2.9-0.7,3.3,0.5,3.6,2.3c1.2,7.8,5.4,14.1,10.6,19.6c4.4,4.8,9.8,8.4,15.6,11.3c5.6,2.8,11.6,4.6,17.8,5.6
		c4.8,0.7,9.6,0.7,14.4,0.2c9.4-0.9,17.7-4,24.4-10.7c1.6-1.6,3.2-3.4,4.9-5.2c7.2,9.7,17.5,14,28.7,15.6c8.4,1.2,16.9,0.1,25-2.5
		c5.4-1.7,10.4-4,15.1-7.2c7.3-4.9,12.9-11,16.4-19.1c1.4-3.2,2.1-6.5,2.7-9.9c0.3-1.8,1.2-2.2,2.5-0.7c1,1.3,2.6,2,3.8,3.1
		c4.7,4.2,10.5,6.5,16.5,7.7c6.7,1.3,13.4,1.3,20.2-0.8c8.2-2.4,15.1-6.3,20.7-13c5.5-6.6,7.8-14.1,8.3-22.4
		c0.1-2.2,0.7-2.2,2.4-1.3c3.1,1.7,6.5,3.1,10,3.4c10.1,0.8,19.6-0.7,27.9-7.4c6.5-5.2,10.6-11.5,12.8-19.3c0.4-1.3,0.3-3.7,2-3.8
		c2.5-0.2,4.8-0.9,7.2-1.2c5-0.5,9.2-3,13.3-5.7c4.5-3,7.8-7.2,10.6-11.8c2.2-3.6,3.5-7.5,4.2-11.6c0.7-4.1,0.3-8.2,0-12.2
		c-0.1-0.8-0.1-1.6-0.3-2.4c-2.4-8.9-7.1-16.1-14.7-21.4c-9.6-6.5-20-8.3-31-5c-2.8,0.8-4.4,0.5-6.5-1.4c-7.4-7-16.3-10.5-26.4-11.1
		c-5.1-0.3-10,0.6-14.8,2.3c-9.4,3.4-16.7,9.3-21.9,18c-5.2,8.7-6.1,18-5.1,27.8c0.1,1.5,0,1.7-1.3,1.1c-7.2-3.3-14.6-4-22.4-3
		c-9.7,1.2-17.8,5.6-24.2,12.6c-8.6,9.3-11.8,20.6-10.5,33.1c0.1,0.7,0.6,1.5-0.4,1.9c-0.9,0.3-1.3-0.5-1.7-1
		c-9.2-10.7-20.8-15.7-35-14c-11.5,1.4-20.4,7.1-27.2,16.5c-2.2,3.1-3.5,6.7-5.3,10.3c0.8-15.4-5-27.1-18.9-33.3
		c-14.8-6.6-27.7-2.3-38.6,9.8c3.1-18.6-1.9-34.1-17.8-44.3c-15.9-10.3-32.1-8.7-47.4,1.9c-0.5-0.6-0.3-1-0.1-1.4
		c3.3-6,4.4-12.4,4.2-19.2c-0.3-9-3.8-16.7-9.7-23.2c-5.5-6-12.5-9.6-20.6-11.4c-6-1.3-11.7-0.8-17.3,0.8
		c-10.1,3-17.8,9.3-22.7,18.9c-0.6,1.2-1.2,1.6-2.5,1.6c-2.6-0.1-5.1,0.1-7.7,0.5c-11.4,1.9-21.6,6.1-28.9,15.5
		C53.7,72.6,50.8,77.5,50.9,83.5z"/>
	<path class="st2" d="M50.9,83.5c0-6,2.9-10.9,6.4-15.4c7.4-9.4,17.5-13.5,28.9-15.5c2.6-0.4,5.1-0.6,7.7-0.5c1.3,0,1.9-0.4,2.5-1.6
		c4.8-9.5,12.5-15.9,22.7-18.9c5.6-1.7,11.3-2.1,17.3-0.8c8.2,1.8,15.1,5.3,20.6,11.4c5.9,6.5,9.4,14.2,9.7,23.2
		c0.2,6.8-0.9,13.2-4.2,19.2c-0.2,0.4-0.4,0.8,0.1,1.4c15.4-10.7,31.5-12.2,47.4-1.9c15.8,10.2,20.9,25.7,17.8,44.3
		c10.9-12.1,23.8-16.4,38.6-9.8c13.9,6.2,19.7,17.9,18.9,33.3c1.9-3.6,3.1-7.2,5.3-10.3c6.8-9.4,15.7-15.1,27.2-16.5
		c14.2-1.7,25.8,3.2,35,14c0.5,0.5,0.8,1.3,1.7,1c1-0.4,0.5-1.2,0.4-1.9c-1.3-12.6,1.9-23.8,10.5-33.1c6.4-7,14.5-11.4,24.2-12.6
		c7.8-1,15.3-0.3,22.4,3c1.3,0.6,1.5,0.4,1.3-1.1c-1-9.7,0-19.1,5.1-27.8c5.2-8.7,12.4-14.7,21.9-18c4.8-1.7,9.7-2.5,14.8-2.3
		c10.1,0.5,19,4.1,26.4,11.1c2.1,2,3.7,2.3,6.5,1.4c11-3.3,21.5-1.5,31,5c7.7,5.2,12.4,12.5,14.7,21.4c0.2,0.8,0.2,1.6,0.3,2.4
		c-0.8,1.3-1.7,2.6-2.5,3.9c-6.7,10.8-16.3,17.1-28.9,18.5c-2.1,0.2-2.7,0.9-3.2,2.7c-3,10.5-9.5,18.5-19,23.8
		c-9.3,5.2-19.3,6.1-29.7,3.2c-1.4-0.4-3.1-1.6-4.1-1.1c-1.6,0.6-0.5,2.7-0.8,4.2c-2,9.8-6.9,17.8-14.8,23.9
		c-8.5,6.6-18.3,9.7-28.9,9.4c-9.7-0.3-18.8-3.4-26.6-9.5c-1-0.8-1.4-1-1.8,0.5c-0.6,2.4-1.4,4.7-2.5,6.9
		c-4.8,10.1-12.6,17.3-22.3,22.6c-10.2,5.5-21,7.6-32.5,7.2c-12-0.5-22.6-4.1-31.2-12.6c-1.4-1.4-2.2-1.1-3.3,0.2
		c-2.5,2.9-5.4,5.2-8.7,7c-11.5,6.3-23.7,7.6-36.3,5c-10.2-2.1-19.5-6.3-27.7-13.1c-7.5-6.3-13.1-13.7-15.7-23.2
		c-0.5-1.8-1.2-2.1-2.9-1.7c-4.8,1.3-9.7,1.3-14.5,0.8c-12.6-1.5-24.3-5.6-34.3-13.9c-10-8.4-16.9-18.4-16.8-32.1
		c0-1.8-0.6-2.5-2.4-2.3c-2.7,0.4-5.4,0.9-8.1,1.1c-9.5,0.4-18.8-1.2-27.6-4.5c-12.4-4.6-22.8-12.1-30.9-22.7
		C54.1,89.3,53.3,85.9,50.9,83.5z M136.9,110.5c0,0.9,0,1.8,0,2.8c0,1-0.1,2,0,3c0.4,3,1.7,3.9,4.7,3.5c4.4-0.7,8.9-1.1,13.4-0.9
		c6.2,0.3,12.4,0.8,18.4,2.6c9.4,2.8,17.5,7.4,24.1,14.9c5,5.7,8.1,12.3,10.6,19.3c0.9,2.5,2.4,3.2,4.6,2.1c5.9-2.9,12-4.7,18.5-5.7
		c12.8-2.1,24.3,0.8,34.4,8.8c6.2,4.9,10.9,11,14.6,18c1.6,3.1,3,3.5,5.7,1.3c4.9-3.9,10.1-7.5,15.5-10.7c8.7-5.1,18.1-8.5,28.1-9.3
		c9.3-0.7,17.9,2,25.2,8.1c3.7,3.1,4.8,3.1,7.3-1.2c6.5-11,14.6-20.6,25.4-27.5c6.9-4.4,14.6-6.8,22.8-6.6
		c6.2,0.1,12.1,1.6,17.7,4.3c2,1,3.1,0.3,3.9-1.4c0.4-0.8,0.7-1.7,0.8-2.6c0.8-5.5,2.7-10.6,5.5-15.4c4.8-8.2,11.7-13.6,21.3-15.3
		c3.8-0.7,7.5-1.3,11.4-0.5c1.8,0.4,3.4-0.4,3.6-2.4c0.2-1.9-1-2.8-3-3.1c-3.8-0.5-7.6-0.5-11.5,0.1c-11.8,1.9-20.9,7.9-26.7,18.4
		c-2.2,3.9-4.1,7.9-5.1,12.3c-0.7,3.2-1,3.3-4.2,2.3c-1.8-0.6-3.6-1.2-5.5-1.5c-12.5-2-24.1,0.4-34.8,7.4
		c-10.2,6.7-18.1,15.6-24.7,25.7c-0.8,1.2-1.3,2.1-3,0.9c-11-7.7-23.2-9.3-36.1-6.1c-12.7,3.1-23.9,9.2-34.2,17.1
		c-1.2,0.9-1.7,1.2-2.6-0.3c-3.5-5.9-7.7-11.3-13.1-15.7c-8.4-7-18-10.7-28.8-11.4c-9.2-0.6-18,1.6-26.5,4.8
		c-1.9,0.7-2.6,0.4-3.2-1.4c-1.9-5.5-4.9-10.5-8.6-14.9c-11.5-13.7-26.7-19.4-44.1-20.6c-4.6-0.3-9.1-0.1-13.7,0.1
		c-2,0.1-2.4-0.6-2.5-2.5c-0.4-8.1-1.6-16-5-23.4c-4-8.8-9.9-15.9-18.5-20.6c-2.5-1.4-4.4-1.2-5.2,0.8c-0.9,2.3,0.6,3.3,2.4,4.1
		c3.4,1.7,6.4,3.9,8.9,6.7C133.2,88,136.6,98.7,136.9,110.5z M434.3,75.4c5.5-0.1,10.7-1.6,15.7-3.6c5-2,9.8-4.5,13.2-9
		c2.9-3.8,1.7-7.3-2.9-8.6c-3.3-1-6.6-1.1-10-0.7c-5.2,0.7-10.2,1.9-15,4.1c-4.9,2.3-9.8,4.7-12.6,9.7c-1.6,2.8-0.7,5.4,2.3,6.8
		C427.9,75.6,431.1,75.5,434.3,75.4z M148.9,59.3c2.9-0.3,5.5-0.1,6.9-2.7c1.4-2.5-0.3-4.6-1.5-6.6c-0.5-0.8-1.2-1.6-1.9-2.3
		c-4.4-4.7-9.9-7.7-15.9-9.9c-3.5-1.3-7-2.1-10.8-1.6c-4.4,0.6-5.9,3.5-3.8,7.5c0.3,0.6,0.6,1.2,1,1.7
		C129.8,53.6,138.7,58,148.9,59.3z M268.2,141.2c3.1-0.2,5.8-0.5,7.1-3.1c1.5-2.8,0.2-5.4-1.5-7.6c-2.7-3.7-6.4-6.2-10.6-8
		c-3-1.3-6-2.3-9.3-2.1c-2.6,0.1-5.1,0.6-6.5,3.2c-1.3,2.5-0.2,4.7,1.2,6.6C253.5,137.1,260.5,140.3,268.2,141.2z M195,84
		c-8-0.1-10.9,3.4-8.4,8.5c3.1,6.5,14.6,12.8,21.8,12c6.2-0.7,8.2-4.7,4.6-9.9C208.2,88,201.4,84.8,195,84z"/>
	<path class="st2" d="M295.3,552.4c-2.8-6.6-5.4-13.3-7-20.3c-1.7-7.6-3.1-15.3-4.3-23.1c-2.1-13.5-2.4-27.2-2.4-40.8
		c0-10.9,0.6-21.9,2.4-32.8c1-6.3,2.1-12.6,3.2-18.9c0.5-2.4-0.2-5,0.1-7.6c1.8-18.1,12.2-29.8,27.9-37.3c8.5-4,17.8-5.1,27.3-3.9
		c5.9,0.8,11.4,2.2,16.7,4.9c1.9,1,2.9,0.7,4.2-0.8c5.8-6.7,13-11.2,21.4-13.5c10.7-3,21.5-2.8,32,1.3c4.9,1.9,9.4,4.6,13.7,8.3
		c0.4-2.8,0.7-5.3,1.1-7.8c2.2-13.9,9.6-23.8,23.2-28c4.3-1.3,7.5-3.9,11.3-5.9c1.9-1,3.9-2,5.9-2.9c1.3-0.6,1.8-1.4,1.6-2.8
		c-1.1-7.3-0.7-14.5,1-21.7c2-8.6,5.9-16.2,12.1-22.6c0.7-0.7,1.5-1.4,2.2-2c2.6-2.3,2.7-2.4,0-4.9c-4.7-4.3-8.2-9.4-10.2-15.3
		c-4.6-13-0.6-27.9,12.9-34.1c4.3-1.9,8.8-2.5,14-3c-3.6-2.1-7.1-3.3-10.3-5.2c-11.7-7.1-19.4-17.2-23.6-30.1
		c-1.5-4.6-1.5-9.3-1.4-14.1c0-1.2,0.6-1.8,1.7-2.1c10.5-2.6,18.8-8.6,24.9-17.5c2.3-3.3,3.9-7,5.2-10.8c0.4-1.2,0.9-1.5,2-1.7
		c5.7-1.1,11.1-2.7,16.1-5.8c9-5.6,15-13.6,18.4-23.7c1.1-3.3,1-6.6,1.7-10c0.7,0.6,0.5,1.5,0.5,2.3c0.1,7.9-2.3,14.9-7.2,21
		c-1,1.2-1.2,2,0,3.2c5,5.6,8.3,12.1,9.8,19.5c1.4,7,2,14,0.6,20.9c-1.6,7.5-3.2,15-7.3,21.7c-0.7,1.1-0.6,1.7,0.4,2.8
		c3.4,3.2,6.2,7,8.1,11.3c4,9.5,5.5,19.2,4.7,29.6c-0.7,9.1-3.1,17.4-7.8,25.1c-0.5,0.9-0.6,1.6-0.2,2.5c6.2,16.5,6.3,33,0.1,49.5
		c-1.8,4.9-4.5,9.3-8.1,12.9c-4,4-8.8,6.4-14.7,6.1c-3-0.1-4.1,1.6-3,4.4c0.5,1.2,1,2.4,1.2,3.6c0.6,3.5,2.4,6.9,1.1,10.6
		c-1.1-1.7-2.2-3.3-3.3-5c-6.5-10.6-8.8-21.9-5.3-34c2.6-9,7.6-16.5,14.2-23c1.8-1.8,1.9-3.4,0.2-5.2c-2.1-2.2-3.6-4.8-5-7.5
		c-3.6-7.2-4.7-14.4-1.8-22.2c2-5.4,5.1-10,9.1-14.1c1.3-1.4,2.3-2.9,0.9-4.6c-6.6-8.1-10-17.4-11-27.8c-1-9.3,0.4-18.2,2.9-27
		c2-6.9,4.9-13.4,8.2-19.7c0.8-1.6,0.8-3.1-0.8-4c-1.8-1.1-3.2-0.3-4.1,1.4c-1.1,2.1-2.2,4.2-3.2,6.4c-6.4,14-10.6,28.4-8.9,44
		c1,9.2,3.6,17.9,9,25.6c1.5,2.1,1.5,3.4-0.2,5.4c-5.5,6.6-9.1,14.2-9.2,22.9c-0.1,8.3,2.9,15.7,7.6,22.4c0.8,1.2,0.7,1.8-0.2,2.7
		c-3.3,3.4-6,7.3-8.4,11.4c-4.2,7.3-6.8,15.3-6.7,23.7c0.1,8.8,2.3,17.2,6.9,24.8c0.9,1.4,0.6,1.9-1.1,2c-7.5,0.6-14.8,2-22,4.3
		c-15.2,4.8-27.4,13.5-36.4,26.8c-2.9,4.3-5.2,9-6.6,14.1c-0.4,1.6,0,3,1.7,3.5c1.6,0.5,2.9,0,3.4-1.8c0.3-1.1,0.7-2.3,1.2-3.4
		c5.9-14.1,16.1-24.1,29.8-30.6c10.9-5.2,22.5-7.4,34.5-7.5c1.9,0,3.5-0.2,4.2-2.2c0.8,0.7,0.6,1.7,0.6,2.6
		c0.1,13.4-5.6,24.5-15.1,33.5c-9.4,8.9-21.1,13.2-34.2,12.9c-2.3,0-4.5-0.3-6.8-0.5c-1.6-0.1-2.5,0.3-2.3,2.1
		c0.3,2.6-0.6,4.9-1.4,7.2c-7.2,20.5-25.6,29.9-44.1,31.4c-9.5,0.8-18.6-1.5-27.3-5.4c-1.2-0.6-2.6-1-2.6-2.8
		c0.8-4.1,1.5-8.2,2.3-12.2c0.3-1.3,0.3-2.5,0.4-3.8c0.1-1.6-0.3-3-2.1-3.3c-1.7-0.3-3.1,0.2-3.4,2.2c-0.9,3.5-3.3,6-5.8,8.4
		c-0.9,0.9-2.1,1.2-3,2.3c-7.5,9.6-15.6,18.6-25,26.3c-5,4.1-10.1,7.5-16.8,7.6c-3.6-1.4-7.4-2.6-10.9-4.3c-2.2-1.1-3.1,0.1-4,1.4
		c-1.2,1.6,0.1,2.7,1.2,3.3c3.3,2,6.9,3.3,10.6,4.5c0.3,0.1,0.6,0.3,0.9,0.5c-0.2,4.2-0.2,8.4-0.5,12.6c-0.4,6.5-1,12.9-2,19.3
		c-1.4,9.9-3.3,19.8-6.4,29.3c-2.7,8.3-5.6,16.6-11.1,23.6C305.9,548.3,301.7,552.2,295.3,552.4z M305.2,493.3
		c0.3-5.4-0.4-10.8-1.2-16.1c-0.6-4.2-1.5-8.5-3.6-12.3c-2.3-4.1-5-4.1-7.7-0.2c-0.3,0.4-0.5,1-0.8,1.4c-3,6.2-3.9,12.9-4.6,19.6
		c-1.2,11.1-0.7,22.1,1.6,33c0.6,2.7,1.6,5.3,3.1,7.6c2,3,4.4,3.1,6.6,0.2c1-1.3,1.7-2.8,2.3-4.4C304.3,512.9,305,503.1,305.2,493.3
		z M389.1,381.6c1.5-0.1,3.1-0.1,4.8-0.4c4.9-0.9,9.6-2.3,13-6.3c2.8-3.3,2.2-6.7-1.4-9.1c-2-1.3-4.2-2.1-6.6-2.5
		c-7.9-1.2-15.4-0.1-21.7,5.2c-4.2,3.6-3.6,7.9,1.2,10.7C381.6,381.2,385.3,381.4,389.1,381.6z M321.8,394.4
		c2.6,0.2,5.1-0.4,7.6-1.1c5.2-1.5,10.1-3.8,13.3-8.5c3-4.4,1.2-8.7-3.9-10.1c-3.8-1-7.7-0.9-11.4,0.1c-5.9,1.5-11.4,3.9-15,9.2
		c-2.6,3.8-1.1,7.9,3.3,9.4C317.6,394,319.6,394.6,321.8,394.4z"/>
	<path class="st2" d="M93.9,197.9c-1.9-4.5-3.3-9.2-3.3-14c-0.1-8.7,2.6-16.7,7-24.1c1.3-2.1,2.3-4.4,4.1-6.1c1.5-1.5,0.9-2.9-0.3-4
		c-1.3-1.1-2.8-0.9-3.9,0.4c-2.7,3.1-4.7,6.7-6.5,10.4c-3.7,7.5-6.3,15.4-5.9,23.9c0.4,8.9,3,17.1,8.8,24.1c3.2,3.9,3,2.7-0.2,6.1
		c-7.7,7.9-12.7,17.2-11.9,28.6c0.5,7.3,3.4,13.9,7.8,19.8c3,3.9,6,7.8,9.8,11c1.3,1,0.7,1.7-0.1,2.7c-3.8,4.5-7.3,9.3-9.3,15
		c-4.5,12.4-0.7,23.2,9.3,31.5c4.4,3.7,9.4,6.5,14.7,8.8c1.3,0.6,1.6,1.3,1.4,2.8c-1.3,8.2,0,16,3.7,23.3c1.4,2.8,3.6,5,5.6,7.4
		c-3,0.7-4.3,2.7-5.4,5.4c-2.2,5.5-5.8,10-10,14.2c-3.2,3.2-7.1,5.1-10.6,7.5c-5.7-1.9-9.8-6-13.3-10.5c-6.4-8.1-9.3-17.5-9.8-27.7
		c0-0.2-0.1-0.4,0-0.5c1.8-5.6-1.3-8.1-5.6-11.1c-6.7-4.6-10.4-11.7-12.7-19.6c-2-6.9-2.2-14-0.9-20.9c1.3-7.2,4.3-13.8,9.4-19.2
		c1.3-1.3,1.2-1.9-0.3-3.1c-7.5-6.1-13-13.6-15.5-23c-2-7.3-2.1-14.7-0.6-22.3c2-9.8,7.1-17.6,14.4-24.3c2.5-2.3,5.6-3.7,8.5-6.1
		c-3.1-1.9-6-3.4-8.7-5.4c-7.2-5.3-12.3-12-15.1-20.5c-5.1-15.6-0.3-28.4,10.4-39.9c0.5-0.5,1.1-0.9,1.6-1.5c5-5.2,9.6-6.1,16.4-1.6
		c9.5,6.4,20.9,8.2,32.2,9.2c-0.1,1,0.4,1.8,0.8,2.6c3.3,7.3,3.9,15,2.7,22.8c-1.4,9.5-6.2,17.2-12.9,23.8
		C98.1,195.4,96.6,197.6,93.9,197.9z M68.7,146.5c-0.1-3.2,0.3-5.7-2.1-6.9c-2.4-1.2-4.3,0.4-5.9,1.8c-6.3,5.4-9.7,12.4-10.7,20.7
		c-0.2,2,0.1,4.2,2.1,5.3c2,1.1,3.9,0.1,5.5-1.2C64.2,160.8,67.6,153.7,68.7,146.5z M71.1,224.3c0-3.6-0.8-5.6-2.2-6.2
		c-2.2-0.9-3.9,0.2-5.6,1.4c-2.8,2.2-5.1,5-6.8,8.1c-2.4,4.5-4.7,9.2-4,14.5c0.5,4.2,3.1,5.3,6.6,2.9
		C66.6,239.9,69.8,232.1,71.1,224.3z"/>
	<path class="st3" d="M50.9,83.5c2.4,2.4,3.3,5.8,5.3,8.5c8.1,10.7,18.5,18.1,30.9,22.7c8.9,3.3,18.1,4.9,27.6,4.5
		c2.7-0.1,5.4-0.7,8.1-1.1c1.8-0.2,2.4,0.5,2.4,2.3c0,13.6,6.8,23.7,16.8,32.1c10,8.3,21.6,12.4,34.3,13.9c4.8,0.6,9.7,0.5,14.5-0.8
		c1.6-0.4,2.4-0.1,2.9,1.7c2.5,9.5,8.2,16.9,15.7,23.2c8.1,6.8,17.4,11,27.7,13.1c12.7,2.6,24.9,1.3,36.3-5c3.3-1.8,6.2-4.2,8.7-7
		c1.1-1.3,1.9-1.5,3.3-0.2c8.7,8.5,19.3,12.1,31.2,12.6c11.5,0.5,22.4-1.7,32.5-7.2c9.7-5.3,17.6-12.4,22.3-22.6
		c1-2.2,1.8-4.6,2.5-6.9c0.4-1.5,0.8-1.3,1.8-0.5c7.8,6.1,16.9,9.2,26.6,9.5c10.6,0.3,20.3-2.8,28.9-9.4c8-6.1,12.8-14.1,14.8-23.9
		c0.3-1.4-0.8-3.6,0.8-4.2c1.1-0.4,2.7,0.7,4.1,1.1c10.3,2.9,20.3,2,29.7-3.2c9.5-5.3,15.9-13.3,19-23.8c0.5-1.8,1.2-2.5,3.2-2.7
		c12.6-1.5,22.2-7.8,28.9-18.5c0.8-1.3,1.6-2.6,2.5-3.9c0.3,4.1,0.7,8.2,0,12.2c-0.7,4.1-1.9,8-4.2,11.6c-2.8,4.6-6.1,8.8-10.6,11.8
		c-4.1,2.7-8.2,5.2-13.3,5.7c-2.4,0.3-4.8,1-7.2,1.2c-1.6,0.1-1.6,2.5-2,3.8c-2.2,7.9-6.3,14.2-12.8,19.3
		c-8.4,6.7-17.8,8.2-27.9,7.4c-3.4-0.3-6.9-1.7-10-3.4c-1.6-0.9-2.2-0.9-2.4,1.3c-0.5,8.3-2.8,15.8-8.3,22.4
		c-5.6,6.7-12.5,10.6-20.7,13c-6.7,2-13.5,2.1-20.2,0.8c-6-1.2-11.8-3.5-16.5-7.7c-1.2-1.1-2.8-1.7-3.8-3.1
		c-1.2-1.6-2.1-1.1-2.5,0.7c-0.7,3.4-1.3,6.7-2.7,9.9c-3.5,8.1-9.2,14.3-16.4,19.1c-4.7,3.1-9.8,5.5-15.1,7.2
		c-8.2,2.6-16.6,3.7-25,2.5c-11.3-1.6-21.5-5.9-28.7-15.6c-1.8,1.9-3.3,3.6-4.9,5.2c-6.7,6.7-15,9.8-24.4,10.7
		c-4.9,0.5-9.7,0.5-14.4-0.2c-6.2-0.9-12.2-2.8-17.8-5.6c-5.8-2.9-11.2-6.5-15.6-11.3c-5.1-5.6-9.4-11.8-10.6-19.6
		c-0.3-1.8-0.7-3-3.6-2.3c-6.3,1.5-12.7,1.8-19.2,0.8c-7.5-1.2-14.7-3.5-21.2-7.2c-11-6.3-19.5-14.9-23.2-27.6
		c-1.2-3.9-0.8-7.8-0.9-11.7c0-2.3-0.8-2.5-2.8-2.1c-5.3,1.1-10.7,2.4-16.2,1.9c-12.3-1.2-24.1-4.4-34.5-11.2
		c-8.2-5.4-15.2-12.2-19.8-21c-1.9-3.6-3.2-7.5-3.9-11.7c-0.5-2.9-0.9-5.7-0.9-8.6C49.8,85.4,49.9,84.3,50.9,83.5z"/>
	<path class="st3" d="M385,425.8c-0.1,1.8,1.3,2.2,2.6,2.8c8.7,3.9,17.8,6.2,27.3,5.4c18.5-1.5,36.9-10.9,44.1-31.4
		c0.8-2.3,1.7-4.6,1.4-7.2c-0.2-1.8,0.7-2.2,2.3-2.1c2.3,0.2,4.5,0.5,6.8,0.5c13.1,0.3,24.8-4,34.2-12.9c9.4-9,15.1-20,15.1-33.5
		c0-0.9,0.3-1.9-0.6-2.6c0-0.5,0.1-1.1,0.1-1.6c1.4-3.7-0.4-7.1-1.1-10.6c-0.2-1.2-0.8-2.4-1.2-3.6c-1.1-2.8,0-4.5,3-4.4
		c5.9,0.3,10.8-2,14.7-6.1c3.6-3.7,6.3-8.1,8.1-12.9c6.2-16.5,6.1-33-0.1-49.5c-0.4-1-0.3-1.6,0.2-2.5c4.6-7.7,7-16,7.8-25.1
		c0.8-10.4-0.7-20.1-4.7-29.6c-1.8-4.3-4.7-8.1-8.1-11.3c-1.1-1-1.1-1.7-0.4-2.8c4.1-6.7,5.8-14.2,7.3-21.7
		c1.4-6.9,0.9-13.9-0.6-20.9c-1.5-7.4-4.8-13.9-9.8-19.5c-1.1-1.3-1-2,0-3.2c5-6.1,7.3-13.2,7.2-21c0-0.8,0.2-1.7-0.5-2.3
		c0-1.4-0.6-3.2,0.7-3.8c1.1-0.5,2.5,0.8,3.5,1.6c5,4.3,9.2,9.1,10.8,15.9c1.9,8.3,1.7,16.3-2.7,23.8c-1.3,2.2-2.8,4.3-4.6,6.1
		c-1,1.1-1.1,1.6,0.1,2.8c5.3,5.3,8.7,11.5,10.5,18.8c1,3.9,1.7,8,1.8,11.8c0.1,5.3-0.6,10.7-2.3,15.8c-1.3,3.8-2,7.9-4,11.5
		c-0.9,1.6-1.7,3.2-2.8,4.6c-0.8,1-1.1,2.3,0.3,3.1c4.5,2.4,6.9,6.6,9,10.9c3.4,6.6,4.5,13.9,5.2,21.3c0.4,4.6-0.4,9.1-0.9,13.6
		c-0.7,6.4-3.1,12.7-6.8,18c-1.5,2.1-1.1,3.8-0.2,5.5c2.5,5.1,3.5,10.6,3.9,16.2c0.4,4.6,0.3,9.4,0,14c-0.3,4.6-1.4,9-2.9,13.4
		c-1.2,3.6-2.8,7-4.8,10.2c-4.1,6.4-9.3,10.9-17.6,10.3c-3.6-0.3-6.2,3.8-4.9,7.3c1.7,4.6,2.7,9.3,2.9,14.4c0.2,6.1-0.3,12-2.4,17.6
		c-5,13.5-14.3,22.8-27.8,27.6c-6.3,2.2-12.9,3-19.6,2.5c-2.1-0.2-4-1-6.1-1.3c-2.1-0.3-2.7,0.5-2.6,2.3c0.5,6.7-1.7,12.7-5.2,18.2
		c-5.1,7.9-12.2,13.3-20.8,17c-9.2,4-18.9,4.1-28.4,3.1c-6.6-0.7-13.2-2.8-18.7-7.2c-0.9-0.7-1.9-1.5-3.2-1.3
		c-5.4,0.6-10.5-1-15.7-2.3c-2.7-0.7-3.2-1.6-2.1-4C383.3,432.4,384,429.1,385,425.8z"/>
	<path class="st3" d="M93.9,197.9c2.7-0.3,4.2-2.5,5.9-4.1c6.7-6.6,11.5-14.4,12.9-23.8c1.1-7.8,0.6-15.5-2.7-22.8
		c-0.4-0.8-0.8-1.6-0.8-2.6c2.7,0,5.5-0.1,8.2-0.1c0.5,0,1.1,0.1,1.6,0c3.3-0.6,3.1-0.6,3.4,2.8c0.4,5.3,2.3,10.2,4.8,14.8
		c2.5,4.7,5.8,8.9,9.9,12.2c2.4,1.9,2.4,4.1,1.4,6.3c-4.6,10.9-12.7,18.5-23.3,23.6c-0.6,0.3-1.6,0.4-1.6,1.3
		c-0.1,1.1,1.1,0.7,1.6,1.1c8.8,6.2,15,14.2,18.3,24.6c1.8,5.9,2.7,11.9,1.9,17.8c-1.4,10-4.9,19.3-12.4,26.6
		c-0.6,0.6-1.8,1.1-1.6,2.1c0.2,1.3,1.5,0.6,2.3,0.8c11.2,2.6,19.2,8.9,22.9,20.2c1.5,4.5,2,9,1.1,13.7c-0.2,1.3,0.1,1.8,1.5,2
		c12.1,1.8,17.9,9.2,20.2,19.4c2,9.1,0.7,18.4-5.3,26.1c-3.4,4.3-8,6.7-13.7,6.7c-7.1,0.1-14.1-0.4-20.4-4.4c3-0.4,4.4-2.8,5.9-4.9
		c6.5-8.5,7.8-18.3,5.3-28.3c-2.6-10.2-8.3-18.3-19.7-20.3c-1-0.2-1.4-0.7-1.3-1.7c0.8-5.5-0.3-10.7-2.6-15.6
		c-2.5-5.6-5.9-10.4-11.4-13.5c2.4-2.8,2.4-3.1-0.2-5.6c-1.9-1.9-3.9-3.8-5.9-5.7c1.1-2,2.4-3.8,3.4-5.9c3.2-7.2,4.1-14.6,3.9-22.4
		c-0.2-7.5-2.4-14.3-5.8-20.8c-0.3-0.6-0.7-1.1-1.4-1.2c0.1-1,1-0.9,1.6-1.2c2-1.1,2.6-3.9,0.9-5.5C99.2,206,96.3,202.2,93.9,197.9z
		"/>
	<path class="st3" d="M295.3,552.4c6.4-0.2,10.6-4.1,14.2-8.7c5.5-7,8.4-15.3,11.1-23.6c3.1-9.6,5-19.4,6.4-29.3
		c0.9-6.4,1.5-12.8,2-19.3c0.3-4.2,0.3-8.4,0.5-12.6c3.1,0.5,6.1,1.7,9.3,1.8c1.7,0,3.3,1.2,5.2,1.1c1,0,0.8,1.1,0.8,1.8
		c0,9.9,0.4,19.8-0.2,29.7c-0.4,6.5-1,13.1-2.2,19.5c-1.5,8.3-2.9,16.6-5.4,24.6c-2.6,8.5-5.5,16.9-10.9,24.1
		c-2.7,3.6-5.8,6.4-10.1,7.8c-1.9,0.6-3.7,0.5-5.6-0.1c-5.2-1.6-8.4-5.6-11.2-9.9C297.8,557,296.6,554.6,295.3,552.4z"/>
	<path class="st2" d="M106.4,277.7c5.5,3.1,8.9,8,11.4,13.5c2.2,5,3.4,10.1,2.6,15.6c-0.1,1,0.3,1.6,1.3,1.7
		c11.5,2,17.2,10,19.7,20.3c2.5,10,1.2,19.8-5.3,28.3c-1.5,2-2.9,4.5-5.9,4.9c-8.8-6.5-10-15.8-9.2-25.7c0.1-0.7,0.3-1.4,0.3-2.2
		c0-5.5,1.1-4.6-4.5-7.2c-6.9-3.2-13.4-7-18.4-13c-4.9-6-6-12.6-3.4-19.8C97.5,287.7,101.2,282.2,106.4,277.7z"/>
	<path class="st3" d="M98.8,392.3c3.6-2.5,7.5-4.4,10.6-7.5c4.2-4.2,7.9-8.7,10-14.2c1.1-2.7,2.4-4.8,5.4-5.4
		c3.4,1.8,6.5,4.2,10.4,5.2c3.5,0.9,7.1,1.4,10.7,1.9c1.4,0.2,2,0.1,1.1,1.9c-3.2,6.6-8.2,11.4-13.8,15.9
		c-5.1,4.1-11.1,5.6-17.1,6.2C110.2,397,104,396.1,98.8,392.3z"/>
	<path class="st4" d="M100.4,216.1c0.7,0,1.1,0.6,1.4,1.2c3.4,6.5,5.6,13.3,5.8,20.8c0.2,7.8-0.7,15.2-3.9,22.4
		c-0.9,2.1-2.2,3.9-3.4,5.9c-7.1-6.3-12-14.1-13-23.6c-0.9-8.9,3.2-16.2,8.8-22.7C97.5,218.6,99,217.4,100.4,216.1z"/>
	<path class="st3" d="M331.6,453.4c6.7-0.1,11.8-3.6,16.8-7.6c9.5-7.7,17.6-16.7,25-26.3c0.8-1.1,2.1-1.4,3-2.3
		c2.5-2.4,4.9-4.9,5.8-8.4c-0.4,3.7-1.1,7.3-1.7,10.9c-0.8,4.7-2.1,9.2-3.8,13.7c-4.1,10.8-11.4,18.2-22.5,21.5
		c-6.3,1.9-12.7,1-18.9-0.8C334.1,453.7,332.7,454.4,331.6,453.4z"/>
	<path class="st5" d="M136.9,110.5c-0.2-11.8-3.7-22.4-11.5-31.4c-2.5-2.8-5.5-5.1-8.9-6.7c-1.8-0.9-3.3-1.9-2.4-4.1
		c0.8-2,2.6-2.2,5.2-0.8c8.6,4.6,14.5,11.8,18.5,20.6c3.4,7.4,4.6,15.4,5,23.4c0.1,1.9,0.6,2.5,2.5,2.5c4.6-0.2,9.1-0.4,13.7-0.1
		c17.4,1.2,32.6,6.9,44.1,20.6c3.7,4.4,6.7,9.4,8.6,14.9c0.6,1.8,1.4,2.1,3.2,1.4c8.5-3.2,17.3-5.4,26.5-4.8
		c10.8,0.7,20.4,4.4,28.8,11.4c5.3,4.4,9.5,9.8,13.1,15.7c0.9,1.5,1.4,1.3,2.6,0.3c10.3-7.9,21.5-14,34.2-17.1
		c12.9-3.1,25-1.6,36.1,6.1c1.7,1.2,2.2,0.3,3-0.9c6.7-10.1,14.5-19,24.7-25.7c10.7-6.9,22.3-9.4,34.8-7.4c1.9,0.3,3.7,1,5.5,1.5
		c3.2,1,3.5,1,4.2-2.3c1-4.4,2.9-8.4,5.1-12.3c5.9-10.6,14.9-16.5,26.7-18.4c3.8-0.6,7.6-0.7,11.5-0.1c2,0.3,3.2,1.2,3,3.1
		c-0.2,2-1.8,2.8-3.6,2.4c-3.9-0.8-7.6-0.1-11.4,0.5c-9.6,1.7-16.5,7.1-21.3,15.3c-2.8,4.7-4.7,9.9-5.5,15.4
		c-0.1,0.9-0.4,1.8-0.8,2.6c-0.8,1.8-1.9,2.4-3.9,1.4c-5.6-2.7-11.5-4.2-17.7-4.3c-8.3-0.2-15.9,2.2-22.8,6.6
		c-10.9,6.9-19,16.5-25.4,27.5c-2.5,4.2-3.6,4.3-7.3,1.2c-7.3-6.1-15.9-8.8-25.2-8.1c-10,0.7-19.4,4.2-28.1,9.3
		c-5.5,3.2-10.6,6.8-15.5,10.7c-2.7,2.2-4.1,1.8-5.7-1.3c-3.6-7-8.4-13.1-14.6-18c-10.2-8-21.6-10.9-34.4-8.8
		c-6.5,1-12.6,2.8-18.5,5.7c-2.2,1.1-3.7,0.4-4.6-2.1c-2.5-7-5.6-13.6-10.6-19.3c-6.6-7.4-14.8-12-24.1-14.9
		c-6-1.8-12.2-2.4-18.4-2.6c-4.5-0.2-9,0.2-13.4,0.9c-3,0.5-4.3-0.4-4.7-3.5c-0.1-1,0-2,0-3C136.9,112.3,136.9,111.4,136.9,110.5z"
		/>
	<path class="st6" d="M434.3,75.4c-3.2,0-6.4,0.2-9.4-1.3c-2.9-1.4-3.9-4-2.3-6.8c2.8-5,7.7-7.4,12.6-9.7c4.8-2.2,9.8-3.4,15-4.1
		c3.4-0.5,6.7-0.3,10,0.7c4.6,1.3,5.8,4.8,2.9,8.6c-3.4,4.4-8.2,6.9-13.2,9C444.9,73.8,439.8,75.3,434.3,75.4z"/>
	<path class="st7" d="M148.9,59.3c-10.2-1.3-19.1-5.7-26-14c-0.4-0.5-0.7-1.1-1-1.7c-2-4-0.6-6.9,3.8-7.5c3.7-0.5,7.3,0.3,10.8,1.6
		c6,2.2,11.4,5.2,15.9,9.9c0.7,0.7,1.4,1.5,1.9,2.3c1.2,2,2.8,4,1.5,6.6C154.5,59.2,151.8,59.1,148.9,59.3z"/>
	<path class="st7" d="M268.2,141.2c-7.7-1-14.7-4.1-19.6-10.9c-1.4-1.9-2.5-4.2-1.2-6.6c1.4-2.6,3.9-3.1,6.5-3.2
		c3.3-0.1,6.3,0.9,9.3,2.1c4.2,1.8,7.8,4.3,10.6,8c1.7,2.3,3,4.9,1.5,7.6C273.9,140.7,271.2,141,268.2,141.2z"/>
	<path class="st7" d="M195,84c6.4,0.8,13.2,3.9,17.9,10.6c3.6,5.2,1.7,9.2-4.6,9.9c-7.2,0.8-18.6-5.6-21.8-12
		C184.1,87.5,187,83.9,195,84z"/>
	<path class="st8" d="M518.3,343.2c0,0.5-0.1,1.1-0.1,1.6c-0.7,2-2.3,2.2-4.2,2.2c-12,0.1-23.6,2.4-34.5,7.5
		c-13.7,6.5-23.9,16.5-29.8,30.6c-0.5,1.1-0.8,2.2-1.2,3.4c-0.5,1.8-1.7,2.3-3.4,1.8c-1.7-0.6-2.1-2-1.7-3.5
		c1.3-5.1,3.6-9.8,6.6-14.1c8.9-13.3,21.2-22,36.4-26.8c7.2-2.3,14.5-3.7,22-4.3c1.6-0.1,1.9-0.6,1.1-2c-4.6-7.6-6.8-16-6.9-24.8
		c-0.1-8.4,2.4-16.4,6.7-23.7c2.4-4.1,5.1-8,8.4-11.4c0.9-0.9,1-1.5,0.2-2.7c-4.7-6.7-7.8-14.1-7.6-22.4c0.1-8.7,3.7-16.3,9.2-22.9
		c1.7-2,1.7-3.2,0.2-5.4c-5.4-7.6-8-16.3-9-25.6c-1.7-15.6,2.5-30,8.9-44c1-2.2,2-4.3,3.2-6.4c0.9-1.7,2.3-2.4,4.1-1.4
		c1.6,1,1.6,2.5,0.8,4c-3.3,6.3-6.2,12.8-8.2,19.7c-2.5,8.8-3.9,17.7-2.9,27c1.1,10.4,4.4,19.6,11,27.8c1.4,1.7,0.4,3.2-0.9,4.6
		c-4,4.1-7.1,8.7-9.1,14.1c-2.9,7.8-1.8,15.1,1.8,22.2c1.4,2.7,2.9,5.3,5,7.5c1.7,1.8,1.6,3.4-0.2,5.2c-6.6,6.5-11.6,14-14.2,23
		c-3.5,12.1-1.2,23.4,5.3,34C516,339.9,517.2,341.6,518.3,343.2z"/>
	<path class="st6" d="M305.2,493.3c-0.2,9.8-0.9,19.6-4.4,28.9c-0.6,1.5-1.3,3-2.3,4.4c-2.1,2.9-4.6,2.8-6.6-0.2
		c-1.5-2.3-2.5-4.9-3.1-7.6c-2.3-10.9-2.9-21.9-1.6-33c0.8-6.7,1.7-13.4,4.6-19.6c0.2-0.5,0.5-1,0.8-1.4c2.6-3.9,5.3-3.8,7.7,0.2
		c2.2,3.8,3,8.1,3.6,12.3C304.7,482.5,305.4,487.9,305.2,493.3z"/>
	<path class="st6" d="M389.1,381.6c-3.8-0.2-7.5-0.4-10.7-2.4c-4.7-2.8-5.4-7.2-1.2-10.7c6.3-5.3,13.8-6.4,21.7-5.2
		c2.4,0.3,4.6,1.1,6.6,2.5c3.6,2.4,4.1,5.8,1.4,9.1c-3.4,4-8.1,5.4-13,6.3C392.2,381.5,390.6,381.5,389.1,381.6z"/>
	<path class="st6" d="M321.8,394.4c-2.2,0.2-4.2-0.4-6.2-1c-4.4-1.5-5.8-5.5-3.3-9.4c3.6-5.4,9.1-7.8,15-9.2
		c3.8-0.9,7.6-1.1,11.4-0.1c5.1,1.3,6.9,5.7,3.9,10.1c-3.2,4.7-8.1,7-13.3,8.5C326.9,393.9,324.4,394.6,321.8,394.4z"/>
	<path class="st0" d="M68.7,146.5c-1.1,7.2-4.5,14.3-11.1,19.6c-1.6,1.3-3.5,2.4-5.5,1.2c-2-1.1-2.3-3.3-2.1-5.3
		c0.9-8.2,4.4-15.2,10.7-20.7c1.6-1.4,3.5-3,5.9-1.8C69,140.9,68.6,143.3,68.7,146.5z"/>
	<path class="st7" d="M71.1,224.3c-1.3,7.9-4.5,15.6-12.1,20.8c-3.5,2.4-6.1,1.3-6.6-2.9c-0.6-5.3,1.6-10,4-14.5
		c1.7-3.1,3.9-5.9,6.8-8.1c1.6-1.2,3.4-2.3,5.6-1.4C70.3,218.7,71.1,220.7,71.1,224.3z"/>
</g>
</svg>
