<?xml version="1.0" encoding="utf-8"?>
<!-- Generator: Adobe Illustrator 19.1.0, SVG Export Plug-In . SVG Version: 6.00 Build 0)  -->
<svg version="1.0" id="Layer_1" xmlns="http://www.w3.org/2000/svg" xmlns:xlink="http://www.w3.org/1999/xlink" x="0px" y="0px"
	 viewBox="0 0 598.5 174" style="enable-background:new 0 0 598.5 174;" xml:space="preserve">
<style type="text/css">
	.st0{fill:#212222;}
	.st1{fill:#DB6E6E;}
	.st2{fill:#BC6464;}
	.st3{fill:#E4E3E3;}
	.st4{fill:#91D4D3;}
	.st5{fill:#B8E2E6;}
	.st6{fill:#62C5BD;}
	.st7{fill:#D5E381;}
	.st8{fill:#F1EE83;}
	.st9{fill:#BB8E63;}
	.st10{fill:#38282A;}
	.st11{fill:#F6F6F5;}
	.st12{fill:none;}
	.st13{font-family:'ComicSansMS';}
	.st14{font-size:14px;}
	.st15{font-size:47px;}
</style>
<path class="st0" d="M255.1,88.3c-5.4-2.2-10.1-4.6-12.8-9.7c-0.2-0.4-0.7-0.8-0.7-1.3c-0.8-4.1-0.6-8.4-3.3-12.2
	c-1.2-1.6-0.4-4.8,2.4-5.7c2.2-0.7,4.6-0.6,6,1.6c1.6,2.4,1.1,4.7-0.8,6.8c-3.3,3.5-3.7,5.6-1.5,9.8c1.9,3.7,5.2,6,8.8,7.6
	c2.1,0.9,3.9,0.5,5.2-2c3-6,4.6-12.6,6.9-18.9c3.8-10.7,10.2-18.3,21.4-21.4c5.6-1.5,10.8-0.1,16,2c4.5,1.8,6.8,5.7,10,8.9
	c7.4,7.5,5.1,15.9,3.4,24.4c-1.7,8.5-3.6,17-6.3,25.2c-0.6,1.8-0.7,3.5,0.8,4.9c2.1,1.9,3.1,4.5,4.5,6.8c1.3,2.1,1.7,4.5,4.9,5.2
	c2.4,0.5,2.1,3.7,1.4,5.5c-0.9,2.2-3.4,3.1-5.6,2.6c-1.8-0.4-3.3-1.9-2.6-4.1c1.7-5.4-0.4-9.7-3.5-13.9c-1.1-1.5-1.8-1.5-3.1,0
	c-6.1,7.5-12.8,14.4-20.3,20.6c-3.9,3.3-6.8,7.5-10.8,10.8c-1.2,1,0.2,3.5,0.7,5.2c1.8,5.6,1.8,5.6,7.6,4.5c1.7-0.3,4.5-1.2,5,0.8
	c0.4,1.7-2.3,2.4-4.1,2.9c-6.5,1.9-7.5,1.5-9.9-5.2c-0.7-2-1.4-3.9-2.2-5.9c-1.9,0.7-3.8,1.5-5.7,2.2c-5.3,2-10.9,2.3-16.5,2.6
	c-2.9,0.2-4.1,1-4.9,3.7c-2.1,7.3-2.3,7.3-9.9,6.3c-1.5-0.2-3.3-0.6-3.4-2.3c0-2.1,2-1.8,3.4-1.8c0.9,0,1.8,0,2.6,0.2
	c3.7,0.8,6-1.3,5.8-5.1c-0.1-1.8-1.4-1.4-2.3-1.7c-5.8-2-11.3-4.9-15.1-9.6c-6.3-7.7-5.6-16.2-1-24.7c2.3-4.2,5.6-7.7,8.3-11.6
	c1.7-2.4,5.7-4,9.1-5.3C248,95.6,251.9,92.7,255.1,88.3z M248.5,136.1c5.9,2.7,18.9,0.7,23.2-4.1c7.4-8.4,15.2-16.4,24.2-23.1
	c3.1-2.3,4.6-5,5.5-8.8c1.4-5.9,0.7-12.2,3.6-17.8c2.2-4.2,4-8.5,4.4-13.3c0.5-5.8,1.2-11.7-2.1-17c-3.7-6-16.3-8.6-24.8-4.5
	c-8.2,4-12.1,11.3-14.9,19.4c-2.2,6.3-4,12.7-7.1,18.7c-4.1,7.9-11,12.6-19,15.9c-2.4,1-4.5,2.5-5.6,4.7c-0.9,1.9-2.1,3.3-3.6,4.7
	c-4.4,4.1-6.6,9.1-6.2,15.2c0.1,2-0.5,4.3,2.4,5.2c2.5,0.8,4-0.4,5.5-1.9c1.6-1.5,3.2-3.1,4.8-4.6c0.7-0.6,1.6-0.9,2.4-0.2
	c1,1-0.1,1.5-0.7,2c-2.3,2.2-4.7,4.3-7.1,6.6c1.8,1.8,3.3,1.8,5.2,0.1c1.9-1.7,4-3.3,6.1-4.9c0.9-0.7,2-1.5,2.8-0.2
	c0.8,1.3-0.6,1.6-1.4,2.1c-2.4,1.6-4.8,3.2-6.6,5.9c3.8,0.4,6.1-1.7,8.7-3.2c1.1-0.6,2.3-3,3.6-1.1c1,1.5-1.2,2.3-2.3,3.2
	C249.2,135.4,249,135.6,248.5,136.1z M311.4,58.3c0,1.3,0,2,0,2.7c0.4,7.2-0.4,14-4,20.5c-2.1,3.9-2.5,8.4-3.1,12.9
	c-0.8,6.3-1.9,12.3-8,16.7c-7.5,5.3-14.5,11.5-20.1,19.2c-1.9,2.7-4.5,5.2-8,6.4c-9.2,3.1-18.5,2.3-27.9,1.6
	c-5-0.4-8.4-4.1-13.1-5.2c1.9,5.7,12.7,13.1,18.9,13.2c4.6,0.1,9.2-0.1,13.7-1c5.1-1,9.9-2.5,14.3-5.9c4.2-3.3,7.4-7.6,11.4-11
	c6.5-5.4,12.4-11.6,18-17.9c1.1-1.3,4.4-3.4,0.2-5.3c-0.5-0.2-1-0.9-0.4-1.5c0.4-0.5,0.9-0.9,1.6-0.6c2,1,2.1-0.3,2.6-1.7
	c3.1-9.9,5.3-20,6.8-30.3C314.9,66.7,316.3,62.3,311.4,58.3z M245.7,64.1c-0.5-1.2-1-2.7-2.6-2.8c-1.6-0.1-3,0.7-3,2.5
	c0,1.3,0.2,2.7,2.1,2.9C244.2,67,245,65.5,245.7,64.1z M319.9,124.5c-0.2-1.2-0.4-2.5-1.9-2.8c-1.3-0.2-2.5,0-2.8,1.5
	c-0.3,1.5,0.2,2.8,1.9,3C318.4,126.5,319.3,125.7,319.9,124.5z"/>
<path class="st0" d="M520.9,129.2c-2.2-0.6-4.3-1.1-6.6-0.9c-2.3,0.2-3.1-1-3-3.2c0.4-13.7,0.6-27.4,1.1-41.1
	c0.1-1.7-0.2-2.8-1.3-3.9c-2.4-2.4-4.6-4.9-6.8-7.4c-1.7-1.9-3.4-3.5-6.3-3c-1.9,0.3-3.2-0.9-3.2-2.8c0.1-2.5-0.4-5.6,3.2-6.2
	c2.2-0.4,5.3-0.1,5,2.3c-0.9,7.8,6.2,9.9,9.7,15.9c0.5-4.9,1.3-8.8,1.1-12.6c-0.4-6.1,2.8-10.5,7-13.7c4.9-3.8,6.8-8.3,6.5-14.1
	c-0.1-1.8,0.7-2.3,2.4-2.4c8.8-1,17.2,1.4,25.8,2.2c1.5,0.2,2.9,1.3,2.5,3.1c-1.7,7.6,2.5,13.2,6.7,18.5c2,2.5,2.7,4.8,2.4,7.7
	c-0.2,2.1,0,4.2,0,6.6c2.9-0.9,4.1-3.5,6.1-5c0.9-0.6-0.6-1.4-0.8-2.1c-0.8-2.7,0.2-4.8,2.8-5.6c2.2-0.7,5.1-0.6,5.5,2.1
	c0.3,2.1,1.1,5.3-2.4,6.5c-9.3,3.2-11.5,6.4-11.6,16.9c-0.1,7.9-0.1,15.7,0,23.6c0.1,4.5-1.2,7.9-5.5,10.2c-3.4,1.9-5.9,5.2-8.8,7.7
	c-1.6,1.4-2.9,1.8-4.8,1.8c2.5,7.3,2.5,7.3,8.6,2.9c6.9-5,6.9-5,8.6,3.6c0.4,1.7,1.1,4-0.8,4.4c-1.2,0.3-3-1.7-3.7-3.5
	c-0.4-1.1-0.3-2.4-0.5-4.1c-2.8,1.7-5.7,3.1-8.2,5c-2.5,2-3.5,0.9-4.3-1.4c-0.1-0.2-0.1-0.5-0.2-0.7c-2.6-7.1-2.6-7.2-10.5-7.1
	c-3.4,0.1-6.7-0.4-10-0.9c-1.8-0.2-3.1,0.3-4.3,2.1c-2.5,3.7-4,7.7-5,11.9c-0.1,0.5,0.1,1.2-0.2,1.4c-2.4,2-4.7,0.5-6.9-0.5
	c-2.1-1-4.1-2.6-3.5-5c0.4-1.7,2.2-0.8,3.5-0.3c1.8,0.6,3.3,3.4,5.1,2.2c1.3-0.9,1.5-3.5,2-5.4C518,133,519.9,131.4,520.9,129.2z
	 M515.1,92.1c0,4.2,0.1,8.5,0,12.7c0,1.7,0.4,2.3,2.2,2.4c9.7,0.8,19.5,1.4,29.3,1.7c1.8,0,2.6-0.6,2.2-2.4c-1-5-1-10.1-1.1-15.2
	c-0.1-7.6-0.3-15.2-0.3-22.8c0-2.4-0.7-3.4-3.4-3.6c-8.5-0.5-17.1-1.3-25.6-2c-1.3-0.1-1.7,0.3-1.7,1.6
	C516.6,73.8,514.9,82.9,515.1,92.1z M563.9,81.7c-1.8,1.4-3,2.3-4.2,3.1c-1.3,1-3.1,1.5-3.9,0c-0.9-1.7,1.3-1.8,2.2-2.2
	c4.5-2.1,7.3-5,6.2-10.4c-0.3-1.3-0.1-2.8,0-4.1c0.2-2.1-0.6-2.9-2.7-2.9c-3.6,0-7.1,1.2-10.8,0.8c-1.5-0.2-1.5,1-1.4,2
	c0.2,3,0.5,5.9,0.5,8.9c0.1,10.2-0.2,20.4,1.1,30.7c3.3-1.3,6.7-2.5,9.9-4c1.5-0.7,3.2-1.6,3.1-3.8C563.8,94,563.9,88.2,563.9,81.7z
	 M537.4,46.6c-2,0-4,0.2-6,0c-3.4-0.5-2.3,2.9-3.8,4.1c-0.7,0.5-1.3,1.1-2,1.6c-2.2,1.5-3.9,3.4-5.6,5.4c-0.7,0.8-2,1.6-1.6,2.7
	c0.3,1.1,1.8,1.1,2.9,1.2c8,0.7,16,1.3,24,2.1c2.4,0.2,3.1-1.2,3.7-2.8c1.2-3.3,2.5-6.5,4.5-9.3c1.4-2,0.8-2.5-1.3-3.1
	C547.3,47.1,542.3,47.1,537.4,46.6z M549.2,120.2c0-1.4-0.1-2.8,0-4.1c0.3-3.2-0.7-4.7-4.2-4.9c-8.7-0.3-17.3-0.9-26-1.8
	c-4-0.4-4.8,0.8-4.6,4.5c0.1,2.7-0.2,5.5-0.4,8.2c-0.2,2.7,0.9,3.4,3.4,3.5c8.3,0.2,16.5,1.3,24.9,1.3
	C549.1,126.9,549.1,127.2,549.2,120.2z M563.8,105c-3.9,1.6-7.4,3-10.9,4.4c-1.5,0.6-2.5,1.4-2.4,3.2c0.1,3.7,0.1,7.4,0.1,11.2
	c0,1.4,0.8,2.1,1.7,1.3c3.7-3,7.2-6.3,10.7-9.5c0.5-0.4,0.8-1.3,0.8-2C563.9,110.8,563.8,108,563.8,105z M536.7,38.8
	c-1.6,0-2.1,0-2.6,0c-3.3-0.3-4.8,1.4-4.5,4.5c0.3,3.2,2.9,1,4.4,1.5c0.9,0.3,2,0.2,3,0.2c5.3,0,10.6,0.7,15.9,1.5
	c0.9,0.2,2.6,0.5,2.3-1.3c-0.2-1.3,1.1-3.5-1.2-3.9C547.9,40.2,541.7,40.2,536.7,38.8z M555.9,52.1c-3.1,2.6-3.8,6.4-5.4,9.9
	c-0.8,1.8-0.3,2.2,1.3,2.1c2.9-0.1,5.7-0.5,8.6-0.5c2.6,0,2.8-0.9,1.5-2.8C559.9,58,557.9,55.1,555.9,52.1z M577.2,63.6
	c-1.5,0.1-3,0.1-3,1.8c0,1.7,1.1,2.6,2.8,2.8c1.7,0.2,2.2-1,2.1-2.3C579,64.6,578.6,63.4,577.2,63.6z M501.3,66
	c-0.3-2.2-0.8-3.5-2.3-3.3c-1.5,0.1-2.4,1.3-2.3,2.9c0,1.2,0.6,2.2,2,2.1C500.1,67.5,501.3,67,501.3,66z"/>
<path class="st0" d="M142.4,162.5c0.9-4.9,1.5-9.8,3-14.5c0.4-1.1,0.1-1.8-1.4-1.9c-1.8-0.1-3.4-1.1-5.3-1.5
	c-4.1-0.8-4.3-4.3-4.3-7.7c0-11.6,0.4-23.2,1.4-34.9c-5.3,2.2-8.8,7.5-8.7,13c0,2,0.4,4.1-2.6,4.2c-2.1,0.1-4.2-0.1-4.6-2.7
	c-0.4-2.4,0.1-4.6,3.1-4.9c1.3-0.1,1.6-0.9,2.1-1.8c2.8-4.7,6.4-8.5,10.6-11.9c0.7-0.5,1.4-1.2,1.7-1.9c0.9-2.6,2.6-4.3,5.1-5.5
	c1.7-0.8,3.1-2.7,0.9-4.4c-7.5-5.9-5.8-13.9-5-21.5c0.4-3.8,1.6-7.5,2.8-11.2c1.2-3.9,4.7-5.8,8.2-6.9c3.6-1.2,4.9-3.1,4.3-6.8
	c-0.5-3.2,1-4.6,4.5-4.7c4.1,0,8.2-0.5,12.3,0.1c4.4,0.6,5.7,1.9,4.8,6.4c-0.8,4,1.9,5.5,4.4,6.9c5.3,3,7.6,7.4,7.6,13.4
	c0,5.8,0.6,11.7-0.5,17.4c-0.5,2.8-1.5,5.2-4,6.8c-2.8,1.8-2.3,3.8-0.2,5.8c5.1,5,8.6,11.2,11.7,17.5c0.7,1.4,1.6,1.1,2.5,1.5
	c3.2,1.4,2.9,4.4,2.6,7c-0.2,2.3-2.1,2.9-4.2,2.7c-2.6-0.2-4.3-3.3-3.4-6.2c1-3.2-0.9-9.3-3.6-10.8c-1.7-0.9-1.5,0.6-1.5,1.5
	c0.3,8.5-1.3,16.8-2.3,25.1c-0.5,4.2-0.8,8.5-2.6,12.6c-1.4,3-3.4,3.9-6.3,4.1c-4.2,0.3-4.5,0.8-3.3,4.8c0.1,0.4,0.2,0.7,0.3,1.1
	c0.7,2.5,0.6,5.7,2.2,7.3c1.7,1.6,4.3-1.5,6.9-1.2c0.9,0.1,2-0.7,2.6,0.6c0.4,1.1-0.5,1.6-1.2,2.1c-1.5,1.1-2.7,2.5-4.6,3
	c-3.3,0.9-5.5-0.3-6.3-3.6c-0.9-3.7-1.9-7.5-2.7-11.2c-0.3-1.6-0.9-2-2.5-2c-5.8,0-11.7,0.2-17.5-0.9c-1.6-0.3-1.6,0.6-2,1.8
	c-1.5,4.5-2.1,9.2-2.7,13.8c-0.3,2.5-1.2,3.6-3.9,2.9c-1.4-0.4-2.9-0.4-4.4-0.5c-1.3-0.1-2.8-0.4-2.8-1.8c0-1.2,1.5-1.5,2.6-1.6
	C138.4,161.4,140.3,161.6,142.4,162.5z M165.3,144.7c2,0,4,0.2,6,0c6-0.8,8.7-0.8,9.6-8.2c1.2-9.7,2.5-19.4,3.4-29.1
	c0.5-5.5-0.1-10.8-4.8-14.9c-2.5-2.1-2.3-5.3,0.5-7.4c3.3-2.5,4.3-5.8,4.5-9.7c0.3-4.4,0.4-8.7-0.1-13.1c-0.2-1.6,0.2-3.1-0.3-4.7
	c-1.5-4.8-5.2-7-9.4-8.5c-1.8-0.6-2.6-0.9-2.2-2.9c0.3-1.4-0.1-3.1,0.3-4.4c0.8-2.2-0.1-3-2-3.4c-3.9-0.9-7.9-0.7-11.8-0.3
	c-2,0.2-2.5,1.2-2.2,2.9c0.8,4.5-1.1,6.6-5.4,8c-3,1-6.6,2.2-7.7,5.9c-1.1,3.9-2.2,7.9-2.5,12c-0.5,6.3-1.8,12.9,4.4,17.8
	c2.8,2.2,2.6,6.1-0.6,7.6c-4.8,2.3-5.5,6.5-6.2,10.7c-1.5,10.2-1.3,20.6-1.7,30.9c-0.3,6.8,0.9,7.9,7.6,9.5
	C151.5,144.9,158.4,144.2,165.3,144.7z M197,113.2c-1.9,1.3-4.3,1.5-3.1,4.2c0.4,1,1.1,2,2.2,1.4C198.5,117.5,197.3,115.4,197,113.2
	z M123.8,114c-0.9,0.1-1.8,0.1-1.7,1.4c0.1,1,0.4,2,1.7,1.9c0.9-0.1,1.5-0.6,1.5-1.7C125.2,114.6,125,113.9,123.8,114z"/>
<path class="st0" d="M444.4,66.8c2-2,4.3-3.3,6.7-4.1c5.2-1.7,10.3,0.5,12.8,5.6c0.7,1.4,0.9,2,2.8,1.2c4.8-1.9,9.5,0.4,12.1,5.3
	c2.1,4,0.9,8.1-3.7,11c-5.8,3.6-9.2,8.4-9.8,15.3c-0.2,1.9-0.3,2.9,2.1,2.4c1-0.2,1.9-0.4,2.9-0.6c2.7-0.6,4.9,0,5.3,3.3
	c0.2,1.8,1,3.1,2.8,4c2.8,1.5,2.3,4.2,1.1,6.5c-1.3,2.4-4.9,3-6.9,1.5c-1.8-1.4-2-4.7-0.5-6.8c0.7-0.9,2.6-1.3,1.7-2.9
	c-0.7-1.2,0.2-4.4-2.7-3.4c-2.2,0.8-6.4-0.9-6,4c0.3,4.1-0.2,8.1-2.1,12c-2,3.9-4.6,7-8.7,8.7c-0.9,0.4-2.6,0.7-2.2,2
	c0.4,1.5,1.4,2.9,2.5,4.1c0.7,0.8,1.3-0.3,1.7-0.7c1.5-1.7,2.9-3.4,4.3-5.1c1.5-1.8,2.8-1.7,4,0.4c1.2,2.4,0.6,4.9,0.5,7.3
	c-0.1,1.2-1.5,0.9-2.2-0.1c-0.8-1.1-1.5-2.3-2.4-3.6c-1.4,1.3-2.8,2.4-3.7,4.1c-1.2,2.4-2.4,2-3.6-0.1c-0.6-1.1-1.3-2.1-2.2-3
	c-1-1-0.7-3.5-2.6-3.1c-2.2,0.5-4.8,0.4-6.1,3.2c-2,4-4.1,7.8-4.4,12.4c-0.3,3.5-1.2,3.8-4.1,1.9c-1.7-1.2-3.5-2.4-5.1-3.7
	c-0.9-0.7-1.7-1.6-0.8-2.9c0.7-1,1.5-1.2,2.8-0.8c2,0.6,3.2,2.3,5.1,2.9c1.5-3.4,1.9-7.1,4.3-10.7c-4-0.3-7.5-0.6-10.9-1.4
	c-7.3-1.7-12.4-6.1-16.7-11.7c-1.4-1.9-2.3-1.8-4-0.6c-2.1,1.5-4.4,2.7-6.7,3.9c-2,1.1-3,0.4-2.9-1.9c0.1-2,0.1-4,0.1-6
	c0.1-2.8,0.4-5.3-3-6.9c-2.6-1.2-2.6-4.1-1.3-6.5c1.1-1.9,6.2-2.4,7.7-1c2,1.7,2.2,5.5-0.1,7.2c-2.7,2-1.4,4.6-1.5,6.8
	c-0.2,6.3-0.1,6.2,5.3,3.4c2.6-1.4,3.8-2.7,2.8-6c-2.5-8.2-1.4-16.5,0.3-24.7c0.8-3.9-0.1-7.3-1.1-10.9c-0.5-1.9-1.5-3.7-2-5.6
	c-1.2-4.4,0-7.4,3.3-9.2c4-2.1,9.5-1.5,11.9,1.7c2.1,2.8,3.2,3.1,5.2-0.3C430.2,58.6,440.2,59.6,444.4,66.8z M425.2,73.5
	c-0.5-0.2-1-0.4-1.5-0.6c-1.5-1.8-3.2-3.5-4.5-5.4c-2.2-3.2-5.4-2.6-8-1.8c-2.8,0.8-3,3.7-2.3,6.3c0.4,1.7,1.1,3.3,1.7,4.9
	c1.8,4.4,2.5,8.9,1.1,13.4c-1.7,5.5-1.8,11-1.6,16.6c0.2,5.8,2.3,10.8,6.3,15.1c8.4,9.2,18.7,10.9,30.2,7.6
	c7.3-2.1,13.7-5.2,15.1-13.9c0.4-2.7,0.3-5.5,0.3-8.2c0-10.4,2.5-19.4,12.3-25.2c3.6-2.1,3.4-5.5,0.3-8.4c-3-2.7-5.3-2.9-8.6-0.5
	c-2.9,2-3.9,1.7-4.5-1.6c-1.2-6.3-5.9-8.5-11.5-5.3c-1.6,0.9-3,2.1-4.2,3.4c-0.8,0.9-1.4,2.2-2.7,1.8c-1.2-0.3-1.2-1.6-1.5-2.7
	c-0.5-2.3-1.4-4.5-4.3-4.7c-0.5,0-1,0-1.5,0c-0.3-0.8-1-0.5-1.5-0.4c-0.4-0.3-0.6,0-0.8,0.3c-3.8-1.4-4.2,2.1-5.9,3.9
	c-1.2,0.9-1.1,2.4-1.6,3.6C425.2,72.2,425.1,72.8,425.2,73.5z M401.4,105.9c-0.2-1.1-0.2-2.7-2-2.3c-1.4,0.3-3.4,0.3-3.3,2.6
	c0.1,1.7,0.8,2.6,2.8,2.6C400.7,108.7,401.2,107.6,401.4,105.9z M475.4,112c-1.6,0.1-2.4,1.3-2.5,2.7c-0.1,1.3,1,1.8,2.3,1.8
	c1.7,0,2.5-0.9,2.7-2.4C478.2,112,476.2,112.7,475.4,112z"/>
<path class="st0" d="M89.4,103.6c0.4,6.5,0.8,12.6-1.2,18.7c-1.2,3.6-2.8,6.7-6.1,8.6c-1.9,1.1-2.3,2.3-0.9,4.2
	c1.8,2.5,3.2,5.2,4.8,7.9c2-0.9,4.1-1.9,6.4-1.5c1.6,0.2,2.8,0.8,3,2.7c0.2,1.9-0.9,2.6-2.4,3.1c-4.5,1.5-7.1,0.3-9.2-3.8
	c-1.6-3.1-4-5.7-5.3-8.9c-0.4-1.1-1.1-1.1-2.1-0.8c-2.3,0.6-4.6,0.9-6.8,1.7c-3.3,1.2-6.5,1.3-10.1,0c-0.1,4.9-2.3,9.1-1.9,13.9
	c0.2,2.1-1.1,4.5-4.1,5c-3.5,0.6-7.1,1.7-10.2-1.2c-1.2-1.1-0.4-2.1,0.5-2.8c2.7-1.9,5.7-3.3,9-2.4c2.3,0.7,2.5-0.1,2.6-2
	c0.1-1.7,0.6-3.4,1-5.1c1.3-5.5,0.8-5-3.7-8.1c-5.9-4-10.1-9.9-11.2-17.2c-0.5-3.1-1.5-2.7-3.4-1.6c-3.1,1.8-5.1,4.4-5.8,8.1
	c-0.4,2-1.5,3.9-4.3,3.9c-2.3,0-4-0.8-4.8-2.8c-0.8-2-0.3-3.8,1.4-5.4c1.1-1,2.5-1.2,3.5-0.7c2.7,1.3,4.1-0.4,5.5-2.1
	c0.5-0.6,1-1.4,1.6-1.6c5.9-1.9,5.7-6.5,6.2-11.6c0.8-8.5,4.7-16.4,7.6-24.4c1.4-3.9,2.1-8,6.3-10.5c7-4.3,13.1-3.8,17.8,1.2
	c8.1,8.4,12.9,18.7,15.3,30c0.5,2.2,1.1,3.2,3.3,3.6c4.5,0.9,8,4.3,12.5,5.4c1.6,0.4,2.5,2.5,1.9,4.3c-0.6,1.9-2.3,2.5-4.2,2.4
	c-1.8-0.1-3.6-1-3.4-2.7c0.5-6-4.5-5.9-7.9-7.6C90.4,103.5,90,103.6,89.4,103.6z M44.2,107c0,2.6-0.1,4.3,0,6.1
	c0.3,7.9,6.6,16.7,13.2,18.8c6.9,2.3,13.6,0.7,20-1.5c2.9-1,6-2.9,7.3-6.5c3.9-11.1,2.2-22.1-1.2-32.8c-2-6.3-5.6-12-9.3-17.6
	c-3.3-5-7.7-6.9-13.3-6c-4.8,0.8-7.3,4.2-8.8,8.6c-1,3.2-2.1,6.3-3.1,9.5C46.6,92.8,43.4,99.9,44.2,107z M54.9,151.5
	c-3.9-2.3-6.5-1.9-8.9,1.2C49.1,153.4,52,153,54.9,151.5z M27.6,119.1c-1.4,0-2.3,0.8-2.3,2.2c-0.1,1.4,0.8,2.4,2.2,2.6
	c1.9,0.3,2.8-1.3,2.9-2.7C30.4,119.8,28.9,119.4,27.6,119.1z M101.9,111.7c0.8-0.2,1.9-0.3,2.1-1.2c0.1-0.6-0.4-1.4-1.3-1.5
	c-0.9-0.1-1.8,0.2-2,1.2C100.6,110.9,101,111.6,101.9,111.7z M87.7,145.4c2,0.2,3.8,0.6,5.2-0.9c0.1-0.1-0.2-0.8-0.5-0.9
	C90.6,143,89.1,143.5,87.7,145.4z"/>
<path class="st1" d="M248.5,136.1c0.5-0.4,0.7-0.6,0.9-0.8c1.1-0.8,3.4-1.7,2.3-3.2c-1.2-1.8-2.5,0.5-3.6,1.1
	c-2.6,1.5-5,3.6-8.7,3.2c1.8-2.7,4.2-4.3,6.6-5.9c0.8-0.5,2.2-0.8,1.4-2.1c-0.8-1.4-2-0.5-2.8,0.2c-2.1,1.6-4.2,3.2-6.1,4.9
	c-1.8,1.6-3.4,1.7-5.2-0.1c2.5-2.3,4.8-4.4,7.1-6.6c0.6-0.6,1.7-1.1,0.7-2c-0.7-0.7-1.7-0.4-2.4,0.2c-1.6,1.5-3.2,3.1-4.8,4.6
	c-1.5,1.5-3,2.7-5.5,1.9c-2.9-0.9-2.2-3.2-2.4-5.2c-0.4-6.1,1.8-11.1,6.2-15.2c1.4-1.4,2.6-2.8,3.6-4.7c1.1-2.2,3.2-3.7,5.6-4.7
	c8-3.3,14.9-8,19-15.9c3.1-6,4.9-12.4,7.1-18.7c2.8-8.1,6.8-15.4,14.9-19.4c8.5-4.2,21.1-1.6,24.8,4.5c3.3,5.3,2.6,11.2,2.1,17
	c-0.4,4.7-2.2,9.1-4.4,13.3c-2.9,5.6-2.2,11.9-3.6,17.8c-0.9,3.8-2.4,6.5-5.5,8.8c-9,6.7-16.7,14.7-24.2,23.1
	C267.4,136.8,254.4,138.8,248.5,136.1z M276.4,111.6c1.7,0.3,4,0.3,6.4-0.2c0.9-0.2,1.7-0.8,1.5-1.8c-0.2-1.3-1.3-0.9-2.1-0.8
	c-6.2,0.4-12.3,0.4-18.4-0.9c-1.1-0.3-2.5-0.6-2.8,0.8c-0.2,1.1,1.1,1.3,2.1,1.6C267.2,111.3,271.5,111.3,276.4,111.6z M283.8,89
	c-0.1,1.3,0.1,2.7,1.5,3c1.4,0.3,1.8-1.1,2.1-2.1c0.3-0.9,0.6-1.9,0.7-2.8c0.3-1.5,2.3-3.6-0.5-4.3c-2.7-0.7-3,2.1-3.7,3.8
	C283.5,87.2,283.8,88.2,283.8,89z M273.3,85.4c0.4-1.2,0.4-2.8-0.9-3.1c-1.6-0.3-2,1.5-2.3,2.8c-0.2,0.9-0.4,1.9-0.3,2.9
	c0,1.3-0.5,3.2,1.3,3.4c2.1,0.2,1.9-1.8,1.9-3.2C273,87.3,273.9,86.4,273.3,85.4z"/>
<path class="st2" d="M311.4,58.3c4.9,3.9,3.6,8.4,2.9,12.8c-1.5,10.3-3.7,20.4-6.8,30.3c-0.5,1.5-0.6,2.7-2.6,1.7
	c-0.7-0.3-1.2,0.1-1.6,0.6c-0.5,0.7-0.1,1.3,0.4,1.5c4.1,1.9,0.9,4-0.2,5.3c-5.6,6.3-11.5,12.5-18,17.9c-4.1,3.4-7.2,7.7-11.4,11
	c-4.3,3.4-9.2,4.9-14.3,5.9c-4.5,0.9-9.1,1.1-13.7,1c-6.2-0.2-17.1-7.6-18.9-13.2c4.7,1.1,8.2,4.8,13.1,5.2
	c9.4,0.7,18.7,1.6,27.9-1.6c3.5-1.2,6-3.8,8-6.4c5.5-7.7,12.6-13.8,20.1-19.2c6.1-4.4,7.3-10.4,8-16.7c0.5-4.5,0.9-9,3.1-12.9
	c3.6-6.5,4.4-13.4,4-20.5C311.3,60.3,311.4,59.6,311.4,58.3z"/>
<path class="st3" d="M245.7,64.1c-0.8,1.4-1.5,2.9-3.5,2.7c-1.8-0.2-2.1-1.6-2.1-2.9c0-1.9,1.4-2.6,3-2.5
	C244.7,61.4,245.2,62.9,245.7,64.1z"/>
<path class="st3" d="M319.9,124.5c-0.6,1.2-1.5,2-2.9,1.8c-1.7-0.2-2.1-1.6-1.9-3c0.3-1.6,1.5-1.8,2.8-1.5
	C319.5,122,319.6,123.3,319.9,124.5z"/>
<path class="st4" d="M515.1,92.1c-0.3-9.2,1.5-18.3,1.7-27.5c0-1.3,0.4-1.7,1.7-1.6c8.5,0.7,17,1.5,25.6,2c2.7,0.1,3.4,1.2,3.4,3.6
	c0,7.6,0.2,15.2,0.3,22.8c0,5.1,0.1,10.1,1.1,15.2c0.3,1.8-0.4,2.4-2.2,2.4c-9.8-0.2-19.5-0.9-29.3-1.7c-1.9-0.1-2.3-0.7-2.2-2.4
	C515.2,100.6,515.1,96.4,515.1,92.1z M530.4,101.3c4.2,0.1,6.4-2,8.4-7.4c1.1-2.8,0.4-3.8-2.6-3.9c-3.9-0.2-7.8,1.2-11.6-0.6
	c-1-0.5-1.7,0.6-1.9,1.7C521.5,95.7,525.7,101.2,530.4,101.3z M528.1,77.1c0-0.6,0-1.2,0-1.9c0-1.2-0.2-2.3-1.6-2.6
	c-1.9-0.4-1.6,1.4-2.2,2.4c-0.3,0.5-0.4,1.2-0.3,1.8c0.3,2.1-1.4,5.8,1.6,6C528.1,83,528.1,79.4,528.1,77.1z M533.2,80.8
	c0,1-0.3,2.2,1.1,2.4c1.3,0.3,1.8-0.8,2-1.8c0.5-2.3,0.9-4.6,1.3-6.9c0.1-1-0.5-1.6-1.4-1.9c-1.2-0.4-1.5,0.3-1.7,1.3
	C534.1,76.2,533.7,78.5,533.2,80.8z"/>
<path class="st4" d="M563.9,81.7c0,6.5,0,12.4,0,18.2c0,2.2-1.7,3.1-3.1,3.8c-3.2,1.5-6.6,2.7-9.9,4c-1.2-10.3-1-20.5-1.1-30.7
	c0-3-0.3-5.9-0.5-8.9c-0.1-1-0.1-2.2,1.4-2c3.6,0.4,7.2-0.8,10.8-0.8c2.2,0,2.9,0.8,2.7,2.9c-0.1,1.4-0.2,2.8,0,4.1
	c1,5.4-1.7,8.4-6.2,10.4c-0.9,0.4-3.1,0.5-2.2,2.2c0.8,1.4,2.6,0.9,3.9,0C560.8,83.9,562,83,563.9,81.7z"/>
<path class="st5" d="M537.4,46.6c4.9,0.5,9.9,0.5,14.7,1.8c2.1,0.6,2.8,1.2,1.3,3.1c-2,2.8-3.4,6-4.5,9.3c-0.6,1.6-1.3,3.1-3.7,2.8
	c-8-0.8-16-1.4-24-2.1c-1.1-0.1-2.6-0.1-2.9-1.2c-0.3-1.1,0.9-1.9,1.6-2.7c1.7-2,3.4-3.9,5.6-5.4c0.7-0.5,1.4-1.1,2-1.6
	c1.5-1.1,0.4-4.6,3.8-4.1C533.4,46.8,535.4,46.6,537.4,46.6z"/>
<path class="st6" d="M549.2,120.2c0,7,0,6.7-7,6.7c-8.3,0-16.6-1.1-24.9-1.3c-2.5-0.1-3.6-0.8-3.4-3.5c0.2-2.7,0.5-5.5,0.4-8.2
	c-0.2-3.7,0.6-4.9,4.6-4.5c8.6,0.9,17.3,1.4,26,1.8c3.6,0.1,4.6,1.7,4.2,4.9C549,117.4,549.2,118.8,549.2,120.2z M523,119.9
	c1.4,1.1-0.8,3.8,1.4,3.7c2.2-0.1,0.8-2.6,0.9-4.1c0-0.4,0.1-0.8,0-1.1c-0.3-1.5,1-3.7-1-4.2c-1.8-0.5-1.3,2.4-2.7,3
	c-0.2,0.1-0.5,0.1-0.7,0.2c-0.2-0.6-0.5-1.1-0.7-1.7c-0.4-1.1-1-2.3-2.3-2c-1.3,0.3-1.1,1.7-1.1,2.8c0,1.7,0,3.5,0,5.2
	c0,0.9,0.3,1.4,1.3,1.3c0.9-0.1,0.9-0.7,0.8-1.3c0-0.8-1.1-1.5-0.1-2.5C519.9,121,521.5,121.3,523,119.9z M544,119.1
	c0.4-0.3,0.8-0.6,1.1-0.9c0.7-0.7,2.5-1.2,1.6-2.5c-0.8-1.3-1.9,0.1-2.8,0.6c-1.8,1.1-2.6,0.7-2.1-1.5c0.3-1-0.3-1.4-1-1.5
	c-0.9-0.2-0.8,0.6-0.9,1.2c-0.2,2.6-0.5,5.1-0.7,7.7c-0.1,1,0.1,1.9,1.1,2c0.8,0.1,1.1-0.9,1.2-1.6c0.1-0.5-0.3-1.2,1.1-2.1
	c0.7,1,1.5,2.1,2.3,3.2c0.5,0.6,1.1,1,1.9,0.3c0.8-0.7,0.4-1.2-0.2-1.9C545.8,121.2,545,120.3,544,119.1z M534.5,123.7
	c0.4,0,0.7,0,0.9,0.1c1.2,0.1,2.9,0.7,3-1c0.2-2.1-1.8-1.2-2.8-1.1c-3.2,0.2-2.5-1.4-2-3.4c0.3-1.3,2.2-3.5,0.3-4
	c-2.1-0.6-2.1,2.1-2.5,3.7c-0.1,0.6-0.4,1.2-0.4,1.8C530.6,122.6,530.7,125,534.5,123.7z M528.6,113.2c-1.3,3.8-1,6.9-1.2,9.9
	c0,0.2,0.4,0.6,0.7,0.7c0.6,0.1,1.1-0.3,1.1-0.7C528.6,120.1,530.4,117.1,528.6,113.2z"/>
<path class="st6" d="M563.8,105c0,3,0.1,5.8,0,8.6c0,0.7-0.3,1.6-0.8,2c-3.5,3.2-7,6.5-10.7,9.5c-1,0.8-1.8,0.1-1.7-1.3
	c0.1-3.7,0.1-7.4-0.1-11.2c-0.1-1.9,0.9-2.6,2.4-3.2C556.5,108,560,106.5,563.8,105z"/>
<path class="st5" d="M536.7,38.8c5,1.3,11.2,1.3,17.3,2.4c2.4,0.4,1,2.6,1.2,3.9c0.3,1.8-1.4,1.5-2.3,1.3
	c-5.3-0.9-10.5-1.5-15.9-1.5c-1,0-2.1,0.1-3-0.2c-1.5-0.5-4.1,1.7-4.4-1.5c-0.3-3.1,1.2-4.8,4.5-4.5
	C534.6,38.9,535.2,38.8,536.7,38.8z"/>
<path class="st5" d="M555.9,52.1c2,3,3.9,5.9,5.9,8.7c1.3,1.9,1.1,2.8-1.5,2.8c-2.9,0-5.7,0.3-8.6,0.5c-1.6,0.1-2.2-0.3-1.3-2.1
	C552.1,58.6,552.9,54.7,555.9,52.1z"/>
<path class="st3" d="M577.2,63.6c1.4-0.2,1.9,1,1.9,2.3c0,1.4-0.5,2.5-2.1,2.3c-1.6-0.2-2.8-1.1-2.8-2.8
	C574.2,63.7,575.6,63.7,577.2,63.6z"/>
<path class="st3" d="M501.3,66c0,0.9-1.2,1.4-2.6,1.6c-1.4,0.2-2-0.8-2-2.1c0-1.6,0.8-2.7,2.3-2.9C500.5,62.6,501,63.9,501.3,66z"/>
<path class="st7" d="M165.3,144.7c-6.8-0.5-13.7,0.2-20.5-1.4c-6.7-1.6-7.9-2.7-7.6-9.5c0.4-10.3,0.1-20.7,1.7-30.9
	c0.6-4.2,1.3-8.4,6.2-10.7c3.2-1.5,3.4-5.4,0.6-7.6c-6.2-4.9-4.9-11.5-4.4-17.8c0.3-4,1.4-8.1,2.5-12c1.1-3.6,4.7-4.9,7.7-5.9
	c4.3-1.4,6.2-3.5,5.4-8c-0.3-1.7,0.2-2.7,2.2-2.9c4-0.4,7.9-0.6,11.8,0.3c1.9,0.4,2.8,1.3,2,3.4c-0.5,1.3,0,3-0.3,4.4
	c-0.4,2,0.4,2.3,2.2,2.9c4.2,1.5,8,3.7,9.4,8.5c0.5,1.6,0.1,3.2,0.3,4.7c0.5,4.3,0.4,8.7,0.1,13.1c-0.2,3.9-1.3,7.2-4.5,9.7
	c-2.7,2.1-2.9,5.3-0.5,7.4c4.8,4.1,5.3,9.4,4.8,14.9c-0.8,9.7-2.1,19.4-3.4,29.1c-0.9,7.4-3.7,7.4-9.6,8.2
	C169.3,144.9,167.3,144.7,165.3,144.7z M163.8,82.6c4.6,0.4,7-1.4,9.3-3.3c1-0.8,2.2-2.3,1-3.3c-1.4-1.2-2,0.9-2.7,1.7
	c-3.3,3.5-12.2,3.7-15.2,0.2c-0.7-0.8-1.1-2.4-2.4-1.2c-1,1,0,2.1,0.8,2.8C157.6,82.3,161.4,82.3,163.8,82.6z M174.6,64.3
	c0-0.9,0-1.7-0.5-2.5c-0.6-1,1.1-3.3-1.1-3.2c-1.6,0.1-2,2.2-2.2,3.8c-0.1,0.7,0,1.5,0.2,2.2c0.3,1.2,0.2,3.1,2.1,2.9
	C174.8,67.4,174.6,65.7,174.6,64.3z M152.3,64.2c0,1.7-0.4,3.5,1.2,3.9c2,0.5,1.9-1.8,2-2.8c0.3-1.8,1.6-3.8,0.1-5.7
	c-0.4-0.5-0.9-0.7-1.6-0.3C152,60.5,153,62.8,152.3,64.2z"/>
<path class="st3" d="M197,113.2c0.3,2.3,1.6,4.3-0.9,5.6c-1.1,0.6-1.8-0.4-2.2-1.4C192.7,114.6,195.1,114.4,197,113.2z"/>
<path class="st3" d="M123.8,114c1.2-0.1,1.4,0.5,1.5,1.6c0.1,1.1-0.5,1.7-1.5,1.7c-1.3,0.1-1.6-0.9-1.7-1.9
	C122,114.2,122.9,114.1,123.8,114z"/>
<path class="st8" d="M427.6,68.4c1.6-1.8,2.1-5.4,5.9-3.9c0.3-0.1,0.5-0.2,0.8-0.3c0.6-0.1,1.2-0.4,1.5,0.4
	c-0.1,0.2-0.1,0.4-0.1,0.7c-0.7,0.8-1.6,1.6-0.7,2.9c1.1-0.8,0.6-1.9,0.8-2.7c0.5-0.3,0.9-0.5,1.4-0.8c3,0.1,3.8,2.4,4.3,4.7
	c0.3,1.2,0.3,2.4,1.5,2.7c1.3,0.3,1.9-0.9,2.7-1.8c1.2-1.3,2.6-2.5,4.2-3.4c5.6-3.2,10.3-1,11.5,5.3c0.6,3.2,1.6,3.6,4.5,1.6
	c3.3-2.3,5.6-2.2,8.6,0.5c3.1,2.8,3.3,6.2-0.3,8.4c-9.7,5.8-12.3,14.8-12.3,25.2c0,2.7,0.1,5.4-0.3,8.2c-1.3,8.7-7.8,11.8-15.1,13.9
	c-11.5,3.3-21.8,1.6-30.2-7.6c-3.9-4.3-6.1-9.3-6.3-15.1c-0.2-5.6-0.1-11.2,1.6-16.6c1.4-4.5,0.7-9-1.1-13.4
	c-0.7-1.6-1.3-3.2-1.7-4.9c-0.7-2.6-0.5-5.5,2.3-6.3c2.6-0.8,5.8-1.4,8,1.8c1.3,1.9,3,3.6,4.5,5.4c0,1.2-1.6,3,0.6,3.2
	c1.4,0.2,0.8-1.7,0.9-2.7c-0.1-0.7,0-1.2,0.7-1.5c1.7-2.2,3.9,1.6,5.6-0.5C431.3,69.1,429,69.3,427.6,68.4z M461.3,83.3
	c1.8-0.6,3.7-6.1,2.5-7.1c-0.4-0.3-1.2-0.3-1.7-0.2c-0.7,0.2-0.9,1-0.6,1.5C462.5,79.5,461.7,81.3,461.3,83.3
	c-0.6,0.3-0.8,0.8-0.6,1.4c0,0.1,0.2,0.1,0.3,0.2C461,84.4,461.2,83.8,461.3,83.3z M446.5,117.8c0.5-2.6-1.3-2.9-3.8-2.1
	c-2,0.6-4,1.3-6,1.9c-1.7,0.5-4.6,0.2-4.9,1.9c-0.3,2.1,2.5,3,4,4.4c2.3,2.1,4.7,2,7.2,0.8C445.6,123.4,446.4,121.1,446.5,117.8z
	 M442.9,94.3c3.3-1.3,7-2,10.8-2.8c0.8-0.2,0.8-0.8,0.8-1.5c0-0.6-0.5-0.9-1-0.8c-3.8,1-7.6,2-11.4,3.1c-0.4,0.1-1.2,0.6-0.7,1.4
	C441.6,94.2,442,94.5,442.9,94.3z M420.4,92.2c-0.9,0.2-2.3-0.5-2.6,0.8c-0.3,1.6,1.1,1.5,2.3,1.6c2.4,0.3,4.9,0.7,7.3,1.2
	c1,0.2,1.8,0,2.2-0.9c0.5-1.4-0.8-1.1-1.5-1.4C425.6,92.6,423,92.8,420.4,92.2z M447.5,102c1.8,0.6,2-1,2.1-2.1
	c0.1-1.4-0.9-2.4-2.3-2.3c-1.5,0.1-2.7,0.8-2.5,2.6C445,101.5,445.8,102.3,447.5,102z M422.7,103.9c1.3-0.2,2.2-0.6,2-2.1
	c-0.2-1.4-1.3-1.8-2.3-2c-1.5-0.2-1.7,1-1.8,2.2C420.5,103.5,421.6,103.7,422.7,103.9z M438,77.4c2-0.7,4.2,1.7,4.8-1.5
	c0.5-2.6-2.1-1.6-3-2.7c-0.8,2,1.6,1.5,1.6,2.7C440.7,77.2,439.2,75.3,438,77.4z M464.2,85.4c-0.5-0.3-0.7-0.5-1-0.6
	c-0.5,0-1,0.3-0.7,0.9c0.1,0.2,0.6,0.4,0.9,0.3C463.6,86.1,463.8,85.7,464.2,85.4z M437.5,66.3c-0.1,0-0.2-0.1-0.3-0.1
	c-0.3,0.1-0.4,0.3,0,0.4c0.1,0,0.2,0,0.3-0.1C437.5,66.5,437.5,66.3,437.5,66.3z"/>
<path class="st3" d="M401.4,105.9c-0.1,1.7-0.6,2.8-2.6,2.8c-2,0.1-2.7-0.9-2.8-2.6c-0.1-2.3,1.9-2.3,3.3-2.6
	C401.1,103.2,401.1,104.8,401.4,105.9z"/>
<path class="st3" d="M475.4,112c0.8,0.7,2.8,0,2.5,2.1c-0.2,1.5-1,2.5-2.7,2.4c-1.3,0-2.4-0.5-2.3-1.8
	C472.9,113.2,473.7,112.1,475.4,112z"/>
<path class="st8" d="M427.6,68.4c1.4,0.9,3.7,0.7,4,3.1c-1.7,2.1-3.9-1.7-5.6,0.5C426.4,70.8,426.4,69.3,427.6,68.4z"/>
<path class="st8" d="M425.2,73.5c-0.1,1,0.5,2.9-0.9,2.7c-2.2-0.3-0.6-2.1-0.6-3.2C424.2,73.1,424.7,73.3,425.2,73.5z"/>
<path class="st8" d="M437.3,64.5c-0.5,0.3-0.9,0.5-1.4,0.8c0,0-0.2-0.2-0.2-0.2c0-0.2,0-0.5,0.1-0.7
	C436.3,64.5,436.8,64.5,437.3,64.5z"/>
<path class="st3" d="M434.2,64.1c-0.3,0.1-0.5,0.2-0.8,0.3C433.6,64.2,433.8,63.8,434.2,64.1z"/>
<path class="st9" d="M44.2,107c-0.8-7.1,2.4-14.2,4.8-21.4c1.1-3.2,2.1-6.3,3.1-9.5c1.4-4.4,4-7.8,8.8-8.6c5.6-0.9,10,0.9,13.3,6
	c3.7,5.6,7.3,11.3,9.3,17.6c3.4,10.7,5,21.7,1.2,32.8c-1.2,3.5-4.3,5.4-7.3,6.5c-6.4,2.3-13.1,3.8-20,1.5
	c-6.6-2.2-12.9-10.9-13.2-18.8C44.2,111.3,44.2,109.6,44.2,107z M63.7,122.9c5.5,0,8.6-1.7,10.3-5.8c0.6-1.5,1.4-3.8,0-4.3
	c-2-0.7-0.9,2.1-1.9,3c-0.2,0.1-0.1,0.5-0.2,0.7c-1.6,2.3-3.5,4.5-6.5,4.2c-2.4-0.2-5-0.7-5.3-4c-0.1-1.1-1-1.5-2-1
	c-0.9,0.4-1.1,1.2-0.6,2.2C58.9,121.2,61.4,122.7,63.7,122.9z M56.6,96.5c-1.7-0.7,0.3-3.5-1.9-3.7c-2-0.2-2.7,1.9-2.7,3.7
	c0,1.8,0.3,4.3,2.2,4.4C56.3,101,55.6,98.2,56.6,96.5z M74.3,95.8c-1.3-1.2,0.6-4.3-2-4.9c-1.6-0.4-2.1,1.7-2,3.4
	c0.2,2,0.1,4.4,2.7,4.7C74.6,99.1,74.1,97.3,74.3,95.8z"/>
<path class="st3" d="M54.9,151.5c-3,1.5-5.8,1.9-8.9,1.2C48.5,149.6,51,149.2,54.9,151.5z"/>
<path class="st3" d="M27.6,119.1c1.3,0.4,2.8,0.7,2.7,2.1c-0.1,1.4-1,2.9-2.9,2.7c-1.4-0.2-2.2-1.2-2.2-2.6
	C25.4,119.9,26.2,119,27.6,119.1z"/>
<path class="st3" d="M101.9,111.7c-0.9-0.1-1.3-0.8-1.2-1.5c0.2-1,1-1.3,2-1.2c0.9,0.1,1.4,1,1.3,1.5
	C103.8,111.4,102.7,111.5,101.9,111.7z"/>
<path class="st3" d="M87.7,145.4c1.4-1.8,2.9-2.4,4.7-1.7c0.2,0.1,0.5,0.8,0.5,0.9C91.5,146,89.7,145.6,87.7,145.4z"/>
<path class="st10" d="M276.4,111.6c-4.9-0.2-9.1-0.3-13.3-1.4c-1-0.3-2.3-0.5-2.1-1.6c0.3-1.4,1.7-1.1,2.8-0.8
	c6.1,1.4,12.2,1.4,18.4,0.9c0.8-0.1,1.9-0.5,2.1,0.8c0.1,1-0.6,1.6-1.5,1.8C280.4,111.8,278,111.9,276.4,111.6z"/>
<path class="st0" d="M283.8,89c0-0.8-0.3-1.8,0.1-2.5c0.7-1.7,1-4.5,3.7-3.8c2.8,0.7,0.8,2.8,0.5,4.3c-0.2,1-0.5,1.9-0.7,2.8
	c-0.3,1.1-0.7,2.5-2.1,2.1C283.9,91.8,283.6,90.3,283.8,89z"/>
<path class="st0" d="M273.3,85.4c0.6,1-0.2,1.9-0.3,2.9c0,1.4,0.2,3.4-1.9,3.2c-1.8-0.2-1.3-2.1-1.3-3.4c0-1,0.1-2,0.3-2.9
	c0.3-1.3,0.7-3.1,2.3-2.8C273.7,82.6,273.7,84.2,273.3,85.4z"/>
<path class="st0" d="M530.4,101.3c-4.7-0.1-8.9-5.6-7.8-10.2c0.3-1.1,0.9-2.2,1.9-1.7c3.8,1.8,7.8,0.4,11.6,0.6
	c3,0.1,3.7,1.1,2.6,3.9C536.8,99.2,534.6,101.3,530.4,101.3z M536.7,92.2c-4.1,0.2-7.8,0.4-12,0.6c1,2.9,2,5.7,5.3,6.1
	C534.3,99.3,535.6,96.1,536.7,92.2z"/>
<path class="st0" d="M528.1,77.1c0,2.3,0,5.9-2.4,5.7c-3.1-0.2-1.3-3.8-1.6-6c-0.1-0.6,0-1.3,0.3-1.8c0.5-0.9,0.2-2.7,2.2-2.4
	c1.4,0.3,1.6,1.4,1.6,2.6C528.1,75.9,528.1,76.5,528.1,77.1z"/>
<path class="st0" d="M533.2,80.8c0.4-2.3,0.8-4.6,1.3-6.9c0.2-0.9,0.5-1.7,1.7-1.3c0.9,0.3,1.5,1,1.4,1.9c-0.4,2.3-0.8,4.6-1.3,6.9
	c-0.2,1-0.7,2-2,1.8C533,82.9,533.3,81.7,533.2,80.8z"/>
<path class="st0" d="M523,119.9c-1.5,1.3-3.1,1-4.3-0.8c-1,1.1,0.1,1.7,0.1,2.5c0,0.6,0,1.2-0.8,1.3c-1,0.1-1.3-0.4-1.3-1.3
	c0-1.7,0-3.5,0-5.2c0-1.1-0.2-2.5,1.1-2.8c1.3-0.3,1.9,0.9,2.3,2c0.2,0.6,0.5,1.1,0.7,1.7c0.2-0.1,0.5-0.1,0.7-0.2
	c1.4-0.6,0.9-3.5,2.7-3c2,0.5,0.7,2.8,1,4.2c0.1,0.4,0,0.7,0,1.1c-0.1,1.5,1.3,3.9-0.9,4.1C522.2,123.7,524.4,121,523,119.9z"/>
<path class="st0" d="M544,119.1c1,1.2,1.8,2.1,2.6,3c0.6,0.6,0.9,1.1,0.2,1.9c-0.8,0.7-1.4,0.3-1.9-0.3c-0.8-1.1-1.6-2.2-2.3-3.2
	c-1.3,0.9-1,1.6-1.1,2.1c-0.1,0.7-0.4,1.7-1.2,1.6c-1-0.1-1.2-1.1-1.1-2c0.3-2.6,0.5-5.1,0.7-7.7c0.1-0.6,0-1.4,0.9-1.2
	c0.7,0.1,1.3,0.5,1,1.5c-0.6,2.2,0.2,2.5,2.1,1.5c0.9-0.5,1.9-1.9,2.8-0.6c0.9,1.3-0.9,1.7-1.6,2.5
	C544.8,118.6,544.3,118.8,544,119.1z"/>
<path class="st0" d="M534.5,123.7c-3.8,1.2-4-1.1-3.5-4c0.1-0.6,0.3-1.2,0.4-1.8c0.4-1.6,0.4-4.3,2.5-3.7c1.8,0.5,0,2.7-0.3,4
	c-0.5,2-1.1,3.7,2,3.4c1-0.1,2.9-1,2.8,1.1c-0.1,1.7-1.9,1.1-3,1C535.2,123.8,534.9,123.7,534.5,123.7z"/>
<path class="st0" d="M528.6,113.2c1.8,3.9,0,6.9,0.5,9.8c0.1,0.4-0.5,0.9-1.1,0.7c-0.3-0.1-0.7-0.5-0.7-0.7
	C527.6,120.1,527.2,117,528.6,113.2z"/>
<path class="st0" d="M163.8,82.6c-2.4-0.3-6.2-0.4-9.2-3.1c-0.8-0.8-1.8-1.9-0.8-2.8c1.3-1.2,1.7,0.4,2.4,1.2
	c2.9,3.5,11.9,3.2,15.2-0.2c0.8-0.8,1.3-2.8,2.7-1.7c1.2,1,0,2.5-1,3.3C170.7,81.2,168.3,83,163.8,82.6z"/>
<path class="st0" d="M174.6,64.3c0,1.4,0.2,3-1.5,3.2c-1.9,0.2-1.8-1.6-2.1-2.9c-0.2-0.7-0.3-1.5-0.2-2.2c0.2-1.6,0.6-3.7,2.2-3.8
	c2.2-0.1,0.5,2.2,1.1,3.2C174.6,62.6,174.6,63.5,174.6,64.3z"/>
<path class="st0" d="M152.3,64.2c0.7-1.4-0.3-3.6,1.8-4.9c0.7-0.4,1.2-0.2,1.6,0.3c1.5,1.9,0.2,3.9-0.1,5.7c-0.2,1,0,3.3-2,2.8
	C151.9,67.7,152.3,65.9,152.3,64.2z"/>
<path class="st0" d="M446.5,117.8c-0.1,3.4-0.9,5.7-3.5,6.8c-2.5,1.1-4.9,1.3-7.2-0.8c-1.5-1.4-4.3-2.2-4-4.4
	c0.3-1.6,3.1-1.4,4.9-1.9c2-0.6,4-1.3,6-1.9C445.3,114.9,447.1,115.1,446.5,117.8z M435.8,120.4c3.6,3.1,7.4,3,8.2-0.3
	c0.3-1.1,0.7-2.6-1.6-1.9C440.1,118.9,437.9,119.3,435.8,120.4z"/>
<path class="st0" d="M442.9,94.3c-0.9,0.2-1.3-0.1-1.5-0.6c-0.5-0.8,0.2-1.3,0.7-1.4c3.8-1.1,7.6-2.1,11.4-3.1c0.5-0.1,1,0.2,1,0.8
	c0,0.6,0,1.3-0.8,1.5C449.9,92.4,446.2,93.1,442.9,94.3z"/>
<path class="st10" d="M420.4,92.2c2.5,0.6,5.2,0.4,7.7,1.4c0.7,0.3,2-0.1,1.5,1.4c-0.3,0.9-1.1,1.1-2.2,0.9
	c-2.4-0.5-4.9-0.9-7.3-1.2c-1.1-0.2-2.6,0-2.3-1.6C418.1,91.6,419.5,92.4,420.4,92.2z"/>
<path class="st0" d="M447.5,102c-1.7,0.3-2.5-0.4-2.7-1.9c-0.2-1.8,1-2.5,2.5-2.6c1.4-0.1,2.4,0.9,2.3,2.3
	C449.5,101,449.3,102.5,447.5,102z"/>
<path class="st0" d="M422.7,103.9c-1.1-0.2-2.2-0.3-2.1-1.9c0.1-1.2,0.3-2.4,1.8-2.2c1,0.1,2.1,0.5,2.3,2
	C424.8,103.3,423.9,103.7,422.7,103.9z"/>
<path class="st8" d="M461.2,83.2c0.5-1.9,1.3-3.8,0.2-5.7c-0.3-0.5-0.1-1.3,0.6-1.5c0.5-0.1,1.3-0.1,1.7,0.2
	C465,77.2,463.1,82.7,461.2,83.2L461.2,83.2z"/>
<path class="st8" d="M438,77.4c1.2-2.1,2.7-0.2,3.4-1.6c0-1.2-2.4-0.6-1.6-2.7c0.9,1.1,3.5,0,3,2.7C442.2,79.1,440,76.7,438,77.4z"
	/>
<path class="st8" d="M464.2,85.4c-0.4,0.3-0.6,0.7-0.9,0.7c-0.3,0-0.8-0.1-0.9-0.3c-0.2-0.6,0.2-0.9,0.7-0.9
	C463.4,84.9,463.7,85.2,464.2,85.4z"/>
<path class="st8" d="M435.8,65.3c-0.2,0.9,0.3,1.9-0.8,2.7c-0.9-1.3,0-2.1,0.7-2.9C435.7,65.2,435.8,65.3,435.8,65.3z"/>
<path class="st8" d="M461.3,83.3c-0.1,0.5-0.2,1.1-0.4,1.6c-0.1-0.1-0.3-0.1-0.3-0.2C460.4,84.1,460.7,83.6,461.3,83.3
	C461.2,83.2,461.3,83.3,461.3,83.3z"/>
<path class="st3" d="M437.5,66.3c0,0.1,0,0.2,0,0.3c-0.1,0.1-0.2,0.1-0.3,0.1c-0.3-0.2-0.3-0.3,0-0.4
	C437.2,66.1,437.4,66.2,437.5,66.3z"/>
<path class="st0" d="M63.7,122.9c-2.2-0.1-4.8-1.7-6.3-5c-0.5-1-0.3-1.7,0.6-2.2c1-0.5,1.9-0.1,2,1c0.3,3.3,2.9,3.8,5.3,4
	c3.1,0.2,4.9-1.9,6.5-4.2c0.1-0.2,0.1-0.5,0.2-0.7c1-0.9-0.1-3.7,1.9-3c1.4,0.5,0.6,2.8,0,4.3C72.3,121.1,69.2,122.9,63.7,122.9z"/>
<path class="st0" d="M56.6,96.5c-1,1.7-0.3,4.5-2.4,4.4c-1.9-0.1-2.2-2.6-2.2-4.4c0-1.7,0.7-3.8,2.7-3.7
	C56.9,93,54.9,95.8,56.6,96.5z"/>
<path class="st0" d="M74.3,95.8c-0.3,1.5,0.3,3.3-1.3,3.1c-2.5-0.3-2.5-2.7-2.7-4.7c-0.1-1.6,0.4-3.7,2-3.4
	C75,91.6,73,94.7,74.3,95.8z"/>
<path class="st11" d="M536.7,92.2c-1.1,3.9-2.4,7.1-6.6,6.7c-3.3-0.3-4.3-3.2-5.3-6.1C528.9,92.6,532.7,92.4,536.7,92.2z"/>
<path class="st3" d="M435.8,120.4c2.1-1.1,4.3-1.6,6.5-2.2c2.3-0.7,1.9,0.8,1.6,1.9C443.1,123.4,439.4,123.6,435.8,120.4z"/>
<rect x="149.7" y="12.2" class="st12" width="38.8" height="17.3"/>
<text transform="matrix(1 0 0 1 149.6589 23.0798)" class="st13 st14">Fats</text>
<rect x="272.6" y="20.9" class="st12" width="59.1" height="17.3"/>
<text transform="matrix(1 0 0 1 272.6355 31.7465)" class="st13 st14">Proteins</text>
<rect x="413.2" y="35.4" class="st12" width="59.1" height="17.3"/>
<text transform="matrix(1 0 0 1 413.1825 46.2459)" class="st13 st14">Vitamins</text>
<rect x="351.8" y="75.7" class="st12" width="26" height="42.4"/>
<text transform="matrix(1 0 0 1 351.796 112.2394)" class="st13 st15">+</text>
<rect x="517.7" y="12.2" class="st12" width="59.1" height="17.3"/>
<text transform="matrix(1 0 0 1 517.6542 23.0798)" class="st13 st14">Minerals</text>
<rect x="21.8" y="38" class="st12" width="98.1" height="17.3"/>
<text transform="matrix(1 0 0 1 21.7518 48.8558)" class="st13 st14">Carbohydrates</text>
</svg>
