<?xml version="1.0" encoding="utf-8"?>
<!-- Generator: Adobe Illustrator 19.1.0, SVG Export Plug-In . SVG Version: 6.00 Build 0)  -->
<svg version="1.0" xmlns="http://www.w3.org/2000/svg" xmlns:xlink="http://www.w3.org/1999/xlink" x="0px" y="0px"
	 viewBox="0 0 612 792" style="enable-background:new 0 0 612 792;" xml:space="preserve">
<style type="text/css">
	.st0{fill:#F3A590;}
	.st1{fill:#EA9683;}
	.st2{fill:#F4A286;}
	.st3{fill:#F3A895;}
	.st4{fill:#9D762D;}
	.st5{fill:#8F6B2B;}
	.st6{fill:#F18C6D;}
	.st7{fill:#ED8464;}
	.st8{fill:#AA812D;}
</style>
<g id="Layer_2">
	<path class="st0" d="M271.4,207c0-0.4,0-0.7,0.1-1.1c0.4-4.4,3.2-35.3-3.9-50.9c-6.2-13.6,5.8-47.4,10.6-59.8
		c1.3-3.3,1.7-6.8,1.3-10.3c-0.8-7.4-2.9-19.7-7.2-22.7c-1.8-1.3-2.3-3.4-2.2-5.8c0.6-7.4,6.9-13,14.3-13.3
		c9.7-0.4,23.1,1.2,24.4-0.7c1.9-2.9,3.8,35.1,0.5,42.3c-3.3,7,19.8,46.3,0.8,83.4c-1.2,2.3-1.9,4.7-2.3,7.3
		c-3.5,27.8-22.3,188.2,5.3,222.4c21.1,26.2,16.8,48.6,12.2,59.8c-2.8,6.7-2,14.5,2.3,20.4c3.1,4.2,6,4,5.2-13.8
		c-1.4-35.6,76.9-95.2,127.9-44.2s41.4,146.2,27.9,185.1s-34.1,110.6-144.7,102.9c0,0-42.8-1-89-39.9s-56.3-49.5-102.9-57.2
		c-33.1-5.5-8.6-30.5,8.4-44.6c7.3-6,17.6-6.6,25.6-1.6c29.4,18.7,100.6,62.9,116,62.7c1.3,0,2.5,0.1,3.7,0.4
		c9.8,2.2,47.6,7.6,31.4-47.7c-0.3-0.9-0.6-1.8-1-2.7c-5.5-12.3-47.7-106.8-50.9-112.2c-3.3-5.6-20.2-30.8-10-76
		c0.6-2.6,0.7-5.3,0.3-7.9c-2.9-19.9-15-106.8-6.1-142.2c0.4-1.5,0.5-2.9,0.6-4.4C270.4,227.9,271.3,210.4,271.4,207z"/>
	<path class="st1" d="M491.7,605c-13.5,39-34.1,110.6-144.7,102.9c0,0-42.8-1-89-39.9s-56.3-49.5-102.9-57.2
		c-23.1-3.8-18.1-17.1-7.3-29.6c37.2,7.7,49.3,19.6,91.4,55.1c46.2,39,89,39.9,89,39.9c110.6,7.7,131.3-64,144.7-102.9
		c10.5-30.3,18.6-94.8-2.4-146C513.9,479.7,504.5,567.9,491.7,605z"/>
</g>
<g id="Layer_1">
	<path class="st2" d="M278.5,416.4c-2.2,0-4.4,0-6.7,0.1c0,2.4,0.1,4.8,0.1,7.2c2.2,0,4.4,0.1,6.5,0.1
		C278.5,421.3,278.5,418.9,278.5,416.4z"/>
	<path class="st2" d="M275.6,392.7c3.1,0.2,4.9-0.9,4.9-4.4c0-3.3-1.4-4.8-4.6-4.6C275.7,386.7,275.7,389.7,275.6,392.7z"/>
	<path class="st2" d="M272.7,409.1c5.1-3.3,6-8.5,2.3-12.7C274.3,400.7,273.5,404.9,272.7,409.1z"/>
	<path class="st0" d="M278.5,423.8c-2.2,0-4.4-0.1-6.5-0.1c0.2,1.3,0.3,2.5,0.5,3.8c2.1,0,4.1-0.1,6.2-0.1
		C278.5,426.2,278.5,425,278.5,423.8z"/>
	<path class="st3" d="M279.5,84.7c-0.1-0.5-0.2-1-0.3-1.5C279,83.8,279.1,84.3,279.5,84.7z"/>
	<path class="st4" d="M278.5,423.8c0,1.2,0.1,2.4,0.1,3.6c0.7,3.6,1.5,7.2,2.2,10.8c0.6,1.3,1.3,2.6,1.9,3.9c1.7,0,3.4,0,5.1-0.1
		c-0.2-2.4,0.6-5.5-0.6-7.1c-5.3-6.8-2.2-14.5-3-21.7c-0.2-2.2,0.7-4.2,2.9-5.2c1.8-0.8,3.9-0.5,4.9,1.2c5.6,9.1,12,18,14,28.8
		c0.6,3.2,1.5,7.2-2.5,9.8c-4.1,2.7-6.7,0-9.7-1.8c-1.8-1-3.9-1.5-5.9-2.2c0.8,4.9,4.7,8.1,7,12.1c3.8,6.7,8.8,8.9,15.7,4.5
		c0.4-0.5,0.8-1,1.2-1.4c0.3-0.7,0.7-1.4,1-2.1c5.8-20.6,1.7-39.4-9.8-57c-1-1.5-2.3-2.8-4.3-3c-5.4,2-9.3,8.4-16.4,5.1
		c-2.8,4.5-2.8,9.7-3.8,14.6C278.5,418.9,278.5,421.3,278.5,423.8z"/>
	<path class="st4" d="M304.1,161.4c0.2-1.8,0.3-3.5,0.5-5.3c-0.6-0.7-1.8-1.3-1.7-1.9c1.1-16.3-1.9-32-7.6-47.2
		c-0.9-2.3-1-5.1-4.2-4.9c-2.2,0.2-4.5,2.3-4.3,4.1c1,10.6-7.1,19.3-6.1,29.8c7.8-1.4,5.1-8.5,7.1-13c0.9-2-0.1-5.3,3.7-4.8
		c2.9,0.4,3.7,2.8,3.7,5.4c0.1,9,0,18.1,0.1,27.1c0,4-0.3,7.8-3.7,10.6c-3.2,7.4-9.7,2.2-14.5,3.7c0.7,4.8,1.4,9.7,2.1,14.5
		c6.4,1.1,12.4,0.5,17.7-3.6c0.1-0.5,0.2-1,0.2-1.5c0.1-0.9,0.3-1.7,0.4-2.6c0.5,0.2,1,0.5,1.4,0.7
		C300.6,168.9,302.3,165.2,304.1,161.4z"/>
	<path class="st5" d="M296.8,176c-5.3,4.1-11.3,4.7-17.7,3.6c-1.6,7.3,0.1,14.5,1.1,21.7c1.3,2,2.6,3.9,3.9,5.9
		c6.3,0.1,9.3-3.3,9.4-9.4c0.1-5.1,1-10,3.4-14.5C296.9,180.8,296.9,178.4,296.8,176z"/>
	<path class="st5" d="M310.5,460.3c-6.9,4.4-11.9,2.2-15.7-4.5c-2.3-4-6.2-7.2-7-12.1c0-0.6,0-1.2,0-1.8c-1.7,0-3.4,0-5.1,0.1
		c-0.2,0.5-0.3,1-0.3,1.5c5.5,9.1,7.4,20.7,18,26.4c4.3-0.5,7.4-2.8,9.9-6.2C310.4,462.6,310.5,461.4,310.5,460.3z"/>
	<path class="st6" d="M296.9,183.2c-2.4,4.6-3.3,9.5-3.4,14.5c-0.1,6.1-3.1,9.4-9.4,9.4c1.9,6.2,7.2,2.4,10.8,3.5
		C297.3,201.7,297.1,192.5,296.9,183.2z"/>
	<path class="st5" d="M282.3,401.8c7,3.3,11-3.1,16.4-5.1c-1.3-1.3-2.5-2.5-3.8-3.8c-3,0-5.9,0.1-8.9,0.1
		C284.3,395.8,282.2,398.4,282.3,401.8z"/>
	<path class="st5" d="M298.9,172.7c-0.5-0.2-1-0.5-1.4-0.7c-0.1,0.9-0.3,1.7-0.4,2.6C297.6,173.9,298.3,173.3,298.9,172.7z"/>
	<path class="st7" d="M293.3,221.5c-1.3,0.6-1.3,1.3,0,1.9C293.3,222.8,293.3,222.2,293.3,221.5z"/>
	<path class="st5" d="M312.7,456.8c-0.3,0.7-0.7,1.4-1,2.1C312.1,458.2,312.4,457.5,312.7,456.8z"/>
	<path class="st3" d="M340.9,471.1c1.9-3.4,1.7-7.2,2.2-10.9C337.5,462.9,337.9,466.8,340.9,471.1z"/>
	<path class="st5" d="M280.5,136c-1-10.5,7.1-19.2,6.1-29.8c-0.2-1.8,2.1-3.9,4.3-4.1c3.2-0.2,3.3,2.5,4.2,4.9
		c5.8,15.2,8.7,30.9,7.6,47.2c0,0.6,1.1,1.3,1.7,1.9c6.7-18.5,2.4-36.7-1.9-54.8c-1.4-4.8-2.8-9.6-4.1-14.3c-3.5-1-7-3.3-10.4,0.2
		c-10.7,22.2-16.8,45.2-12.4,70c0.4,2.3-0.3,4.1-1.2,6c0.3,0.4,0.5,0.9,0.6,1.4c0.6,0.2,1.2,0.3,1.8,0.5c4.7-1.5,11.2,3.7,14.5-3.7
		c-8.5,1.2-12.3-1.9-11.1-10.9C281,145.8,280.5,140.9,280.5,136z"/>
	<path class="st0" d="M282.4,443.5c0-0.5,0.1-1,0.3-1.5c-0.6-1.3-1.3-2.6-1.9-3.9c-3.7,2.5-1.9,5.4,0.1,7.4
		C281.9,446.6,282.1,444.4,282.4,443.5z"/>
	<path class="st8" d="M287.8,441.9c0,0.6,0,1.2,0,1.8c2,0.7,4.1,1.1,5.9,2.2c3.1,1.8,5.7,4.6,9.7,1.8c4-2.6,3-6.6,2.5-9.8
		c-2-10.8-8.3-19.7-14-28.8c-1-1.6-3-2-4.9-1.2c-2.2,1-3.1,3-2.9,5.2c0.8,7.2-2.4,14.9,3,21.7C288.4,436.5,287.6,439.6,287.8,441.9z
		"/>
	<path class="st8" d="M280.5,136c0,4.9,0.5,9.8-0.2,14.5c-1.2,9,2.6,12.1,11.1,10.9c3.4-2.8,3.7-6.6,3.7-10.6
		c-0.1-9,0-18.1-0.1-27.1c0-2.6-0.8-5-3.7-5.4c-3.8-0.5-2.8,2.7-3.7,4.8C285.6,127.5,288.3,134.7,280.5,136z"/>
</g>
</svg>
