<?xml version="1.0" encoding="utf-8"?>
<!-- Generator: Adobe Illustrator 19.1.0, SVG Export Plug-In . SVG Version: 6.00 Build 0)  -->
<svg version="1.1" id="Layer_1" xmlns="http://www.w3.org/2000/svg" xmlns:xlink="http://www.w3.org/1999/xlink" x="0px" y="0px"
	 viewBox="-55 147 500 500" style="enable-background:new -55 147 500 500;" xml:space="preserve">
<style type="text/css">
	.st0{fill:#443526;stroke:#000000;stroke-miterlimit:10;}
	.st1{fill:#3E3724;stroke:#000000;stroke-miterlimit:10;}
	.st2{fill:#493525;stroke:#000000;stroke-miterlimit:10;}
	.st3{fill:#F29A44;stroke:#000000;stroke-miterlimit:10;}
	.st4{fill:#DA4E43;stroke:#000000;stroke-miterlimit:10;}
	.st5{fill:#C2D367;stroke:#000000;stroke-miterlimit:10;}
	.st6{fill:#F19944;stroke:#000000;stroke-miterlimit:10;}
	.st7{fill:#A478B1;stroke:#000000;stroke-miterlimit:10;}
	.st8{fill:#5BBBB0;stroke:#000000;stroke-miterlimit:10;}
	.st9{fill:#56937A;stroke:#000000;stroke-miterlimit:10;}
	.st10{fill:#FFFFFF;stroke:#000000;stroke-miterlimit:10;}
	.st11{fill:#5AB86C;stroke:#000000;stroke-miterlimit:10;}
</style>
<path class="st0" d="M280.4,403c-5.2,1.1-10.3-0.5-15.4,0.2c-5.2,0.7-10.3,0.6-16.5-1.3c-1,1.6-1.9,2.4-3.4,1.7
	c-0.2-0.1-0.5-0.6-0.4-0.7c0.8-1.4,2-1,3.7-1c-0.2-0.1-0.4-0.1-0.7-0.2c10.7-4,18.5-10.2,26.5-16.3c15.1-11.7,19.9-27.2,18.1-45.5
	c-1.3-13.3-7.1-20.4-17.6-21.6c-9.3-1-17.9,1-25.6,6.4c-1,0.7-1.8,2.2-3.4,1.4c-0.6-7.1-4.1-10.8-11.2-12.3c-2.4-0.5-4.7-0.5-7.1,0
	c-5,0.9-10.1,1.4-15.2,1.8c-3,0.3-3.7-0.5-3.7-3.4c0.1-46.9,0.1-93.9,0-140.8c0-0.1,0-0.2,0-0.3c-0.7,0-1.3,0-2,0
	c-0.1,23.1,0,46.2,0,69.3h-0.1c0,23.6,0,47.2-0.1,70.9c0,1.7,1.7,4.9-2.6,4.4c-3.1-0.3-5.5,0-5.5-4.8c0.2-46.6,0.1-93.2,0.1-139.8
	c-0.7,0-1.4,0-2.1,0c0.1,0.6,0.2,1.3,0.1,2c-0.1,45.4-0.1,90.8-0.1,136.2c0,1.8-0.1,3.5-0.2,5.5c-9.9-2.1-19.2-4.9-28.9-5.4
	c-10.4-0.5-20.4,0.5-28.1,8.6c0.4,0.4,0.7,0.7,1.1,1.1c10.3-9.1,22.5-8.3,34.8-6.7c10.7,1.4,21,5.6,32,5.3
	c7.2-0.2,14.2-0.8,21.2-2.2c3.4-0.7,6.5,0,9.4,1.2c5.8,2.5,7.7,7.4,4.5,12.9c-5.7,9.6-13.1,17.4-24,21c-6.8,2.2-13.6,4.5-20.5,5.9
	c-7.7,1.5-13.7,5.6-19.3,10.7c-7,6.5-13.7,13.3-21.7,18.4c-6.8,4.2-13.9,7.9-22.4,6.8c-0.4,0.4-0.8,0.7-1.2,1.1
	c2.8,2.7,6.1,1.4,9.1,0.6c7.4-2,14.4-5.1,20.3-10.2c6.1-5.2,12-10.6,18-15.9c4.2-3.7,8.3-7.5,14.1-8.6c0.9-0.2,1.8-1,2.7,0.1
	c2.3,2.8,0.7,14.2-2.6,15.4c-9.5,3.6-16.6,11.1-25.7,15.4c-4.6,2.2-7.7,6.1-8.6,11.4c-0.5,3.3-0.1,6.3,3.4,7.7
	c3.5,1.4,6-0.6,7.7-3.3c2.7-4.3,5-8.9,7.5-13.3c1-1.8,1.9-3.8,4.4-4.7c-3.7,15.9-1.4,30.3,7.9,43.4c2.1,2.9,3.2,6.4,3.8,9.9
	c0.5,2.9,0.1,5.3-4.1,3.6c-4.5-1.8-8.9-2.3-12.6,1.9c-0.9,1-1.8,0.6-2.6-0.1c0,0.8-0.1,1.5-0.1,2.3c1.3,1.2,2.6,0.9,3.6-0.2
	c3.8-4.5,8.1-3.4,12.4-1.3c1.9,0.9,3.1,1.4,4.3-1c1-2,3.4-1.5,5.1-0.8c3.2,1.3,5.9,1.3,8.2-1.7c0.8-1.1,2.2-1.4,3.7-1.4
	c2.4,0.1,3.4-1.1,2.7-3.5c-1-0.2-2.2,3.3-3.2-0.2c-1.9-7.2-6-13.6-9.7-21.4c4,3.2,7.6-0.3,10.9,1.8c1.5-1.9-0.7-3.6,0.3-6.2
	c-1.8,1.6-2.8,2.9-4.1,3.4c-3,1.3-5.4,0.6-6.3-2.8c-1.3-5.7,0.4-8,6.2-9.4c1-0.2,1.8-1.4,2.6-2.2c2.6-2.6,6-2.2,7.4,0.2
	c1.7,2.9,2.8,1.6,4.5,0.9c0.8-0.3,1.7-0.6,2.4-0.4c4.7,1.1,8.9,3.4,14.3,1.7c2.3-0.7,5.9,0.3,8.8,0.6c3.8,0.4,8,0.7,11.4,0.3
	c5.3-0.7,10.4,0.8,15.6-0.3c1.4-0.3,3.1-1.1,4.1,0.6c0.8,1.3,0,2.6-0.8,3.7c-1.9,2.9-3.9,4.6-8,4.9c-2.6,0.2-7.2-0.9-8.8,3.3
	c0.1,0.5,0.2,1.1,0.3,1.6c3.4-1.3,6.7-2.7,10.4-2.9c3.9-0.2,8.8-5.3,9.2-9.1C283.6,405.1,282.6,402.5,280.4,403z M170.7,403.5
	c-1.3,2.6-3.1,5.6-6.5,4c-3.6-1.6-2.1-5-1.3-7.6c1-2.9,3-5.4,5.7-7c3.8-2.2,7.6-4.2,11.5-6.3C176.6,392.1,173.6,397.7,170.7,403.5z
	 M202.4,377.5c0.1-5.4,0.5-10.8,0.5-16.2c0-3.2,1.4-4.6,4.6-5.3c10.5-2.3,20.6-5.7,28.4-14c-5.6,11.7-10.3,23.6-17.6,34.3
	c-3.3,4.9-8.5,5-13.7,4.9C201.9,381.1,202.4,379.2,202.4,377.5z M199.6,370.4c0.2-4-0.8-8.2,1-12.2c0.2,4.7,1.9,9.4-0.2,14.1v7.7
	c-1.7-1.1-2.9-1.9-4.1-2.7C197.3,375.1,199.9,373.4,199.6,370.4z M196.2,377.5c-0.6,0.3-1.1,1-2.2,0.2
	C194.9,377.6,195.5,377.5,196.2,377.5z M206.8,402.3c-3.3-0.2-4.7,3.5-5.3,6.6c-0.3,1.5,0,3,0,4.9c-4-4.7-5.4-10.1-3-13.3
	c4.1-5.3,9.7-3,16-2.5C211.4,399.7,210.6,402.5,206.8,402.3z M233.1,400.9c-4.3-0.3-8.3-1.6-12.3-2.9c-5.6-1.9-11.3-3.7-17.4-2.6
	s-9,5.4-7.6,11.5c1.3,5.9,4.8,10.8,7.4,16.2c2.1,4.3,4.3,8.5,6.1,12.8c1.7,4,0.1,7.5-3.6,8.7c-2.7,0.9-8.3-2.2-9-5.1
	c-0.9-4.1-2.6-7.7-5-11.1c-6.8-9.7-8.7-20.5-7.7-32c0.8-9.3,5.1-13.3,14.5-13.6c2-0.1,4.1,0,6.1,0.2c8.1,0.7,14.3-2.2,18-9.6
	c4.5-8.8,9-17.5,13.6-26.2c2.3-4.3,4.7-8.6,7.2-12.9c7.3-12.2,18.7-15.6,32-14c8.6,1,13.1,7,14.6,18.2c0.4,2.9,0.4,5.8,0.6,8.6
	c1,18.9-9.9,31-23.8,41.3C256.7,396,246.2,401.9,233.1,400.9z"/>
<path class="st1" d="M175.8,447c0,0.8-0.1,1.5-0.1,2.3c-4-6.8-11.8-1.9-17.2-5.2c-0.8-0.5-3.1-0.4-4.6-1.7c-1-0.9-2.3-1.4-3.6-1.8
	c-9-2.6-16.8,3.3-17.1,12.8c-0.1,2.2,1,4.9-0.6,6.4c-5.3,5-4,12.6-7.6,18.3c-1.8,2.8,0.5,7.6-3.8,10.2c-1.1,0.7-0.9,2.8-0.8,4.4
	c0.2,3.1,0.9,6,2,8.9c0.8,2.1,1.3,4.4-0.9,6c-3.8,2.7-2.9,5.6-0.6,8.7c0.8,1.1,2.6,2.3,1.8,3.4c-3.5,5.1-0.1,9,1.8,13.3
	c1.2,2.9,1.5,5.7,0.9,8.9c-2,10,0.7,14.6,10.5,17.5c6.4,1.9,10,5.9,11.8,12.1c0.7,2.3,0.8,5.2,3.3,6.9c0.8-1.4,0.3-2.3-0.2-3.2
	c-3.5-6.4-2.7-11.7,2.1-17.6c4.6-5.8,5.9-13.5,3.2-20.8c-2.4-6.3-6.5-11.9-7.7-18.7c-0.4-2-3.8-2-3.2-5.1c0.8-3.5-1.5-7.4,1.4-10.8
	c0.6-0.7,0.7-1.9,0.2-2.9c-2.4-4.6,0.1-9,1.1-13.1c0.7-2.6,2.3-5.3,1.4-7.7c-1.6-4.1,1.3-6.2,2.7-9c2.1-4.1,6.3-2.5,9.5-3.6
	c0.7-0.2,1.4-0.3,1.6,0.5c2.2,7,7.8,5.1,12.6,4.6c1.7-0.2,2.9-0.5,3.4,1.5c-2.9,0.8-6.3,0.4-7.8,4.1c-3.3,8.4,1.4,14.5,10.3,13.1
	c2-0.3,3.9-1,5.8-1.7c8.7-3.3,17.3-6.9,26-10c5.4-1.9,10.8-4,16.7-3.6c4.8,0.3,6.9,2.5,6.8,8.1c-3.1-7.6-8.6-6.7-13.9-5.3
	c-14.3,3.6-27.4,10.6-41.5,15c-5.5,1.7-8.7,11.6-6.3,17.2c2,4.8,7.4,6.4,14.1,4.2c1.9-0.6,3.8-1.5,5.5-2.5c3.2-1.9,6.2-4.3,9.6-5.8
	c12.9-5.7,25.9-9.7,38.5,1.1c0.9,0.8,2,1.3,3,1.9c3.5,2.1,5.9,0.6,7.5-2.5s1.5-6.1-0.5-9.1c-0.8-1.2-3.2-1.8-1.8-4
	c4.3,2.4,6.4,6.3,5.1,10.9c-2.4,8.8-8.3,13.5-18.4,12c3.9,7.7,2.1,13.5-3.7,18.3c-1.9-2.6,1.3-3.4,2.1-4.9c1.9-3.8,2.1-7.4,0.3-11.2
	c-1.7-3.4-5-2.5-7.6-2.6c-5.8-0.2-11.4,0.8-16.8,3.4c-6.9,3.3-13.9,6.4-21.4,7.9c-4.4,0.8-9,1.4-12-3.7c5.7,3.6,11.5,2.2,17.1,0.2
	c4.8-1.7,9.6-3.5,14.1-5.7c7.1-3.4,14.4-4.7,22.2-4c3.7,0.4,7.5,0.2,11.2,0.2c1.8,0,3.5-0.2,5.2-2c-3.7-1.2-6.7-3.1-9.4-5.5
	c-4.5-4.1-9.5-4.4-15.2-3.1c-6,1.5-11.4,4.3-16.7,7.4c-6.9,4.1-14.9,3.9-22.2,6.2c-1.9,0.6-4-0.1-6-0.8c-4.4-1.7-10.5,1.8-12,6.8
	c-1.2,4,1.8,8.5,6.7,9.7c5.7,1.4,11.5,1.2,17.2,0.2c9.4-1.6,18.3-5,27.3-7.9c1.2-0.4,2.6-1.5,3.6,0.1c0.9,1.4-0.1,2.7-1,3.7
	c-3,3.4-6.8,5.8-11.2,6.7c-13.8,2.9-27.6,6-41.8,3.3c-2.7-0.5-5.9-1.8-8-0.8c-3.2,1.5,0.3,5.1-0.7,7.7c-1.5,4,1.2,4.1,4,4.1
	c10.7,0.1,21.5,0.4,32.1-1.2c12.8-1.9,25.4-4.5,35.5-13.6c0.8-0.7,1.8-2.5,3.3-0.8c-7.7,9.1-19,11.9-30.5,15.4
	c2.6,1.6,4.3,0.9,5.9,1.2c1.4,0.2,3-0.4,4.1,0.9c-1,0.1-1.9,0.2-2.9,0.2c-2.4,0.2-4.9-0.8-7.2,0.7c-1,0.1-2.1,0.1-3.1,0.2
	c-0.2-2.1-1.8-1.9-3.2-1.9c-1.7,0-3.4-0.1-5.1-0.1c-5.7,0.5-11.5-0.9-17.2,0.9c-3.8,0-7.5,0-11.3,0c-2.2-0.8-4.6-2.3-6.1,1.1
	c-0.5,3.3-1.9,6.3-4.2,8.5c-3.8,3.8-3.4,7.7-1.6,12.1c1,2.5,4,6.3-0.3,7.7c-3.9,1.3-4.4-3.3-5.2-6.1c-1.8-6.9-5.3-11.5-12.9-13.3
	c-8.8-2.1-12.2-8.5-10.3-18.1c0.8-4.4,0.1-8-1.9-11.7c-1.8-3.3-3.3-6.8-1.1-10.6c1.1-1.8-0.5-2.4-1.2-3.4c-2.4-3.6-3.5-7.1,0.6-10.3
	c1.9-1.5,1.6-3.1,0.8-5c-1.3-3.2-2.1-6.5-2.1-9.9c0-2.2,0.3-4.6,2.3-5.9c1.9-1.2,2-3,2-4.9c0.1-4-0.5-8.2,3.9-10.8
	c1.4-0.8,0.7-2.8,0.7-4.3c-0.1-2.9-0.3-5.9,2.9-7.6c2-1.1,1-3.1,1.1-4.6c0.5-13.1,12.6-19.9,23.8-13.2c3,1.8,7.1,0.6,9.7,3.4
	c0.5,0,1,0,1.4,0v-0.2c0.5,0,1,0,1.5,0c1.7,0,3.3,0,5,0.1C174.4,444.1,175.2,445.4,175.8,447z M177.9,534.9c-3-0.5-6.1-0.8-8.7-2.5
	c-6.4-4.1-5.8-11.7,1-17.5c1.3-1.1,4.7-1.4,3.4-4.2c-3.2-7.1-0.5-12.8,3.8-18.6c-5.4-1.2-9.1-4-8.9-9.5c0.2-5.3,1.7-10.6-5.8-11.9
	c-0.1,0-0.2-0.3-0.3-0.4c-3.1-3.3-7-2.9-9.2,0.9c-3.3,5.9-1.8,12.9-4.5,19c-2.1,5,1.5,10.9-1.9,15.9c-0.6,0.8,0.3,1.7,0.2,2.3
	c-1,5,3.6,8,4.1,12.4c0.6,4.3,3,7.9,5,11.6c0.7,1.2,1.2,2.2,2.9,2.4c8.9,1,17.8,2.7,26.9,1.7c11.1-2.3,23.3-0.9,32.3-9.7
	C205,530.3,192.1,535.8,177.9,534.9z M198.7,510.9c4.6-0.7,8.2-3.3,11.9-5.8C205.8,505.3,202.5,508.6,198.7,510.9z"/>
<path class="st2" d="M197.1,550c1.5-0.1,3-0.2,3.2,1.9c-9.4,2-13.1,13-6.7,21.1c3.1,3.9,3.6,7.5,1.6,11.7c-1.9,3.9-1.1,7.2,1.8,10.2
	c1.8,1.9,3.5,4,5,5.8c5.2-5.4,6.7-11.4,3.3-18.4c-0.8-1.6-0.6-3.5,0.6-4.8c3.2-3.5,2.3-7.1,1-10.9c-0.6-1.6-1.8-3.2-1-5.2
	c4.1,1.3,6.6,5.3,10.9,5.7c17.1,1.8,32.2-3,45.7-13.4c2.3-1.8,3.9-4.3,5.3-6.8c2-3.9,3.2-8.3,7.7-10.3c0.7-0.3,1.3-1.7,1.2-2.6
	c-0.2-3.2,0.8-5.9,2.8-8.4c1.1-1.4,1.5-3.4,1.1-5.4c-1.3-7.8,4.2-14.9,2.7-22.8c-0.1-0.6,0.6-1.2,0.8-1.9c1.3-6.5-0.6-13.2,0.6-19.7
	c0-0.2-0.3-0.6-0.6-0.8c-5.7-5.4-4.4-11.3-1.8-17.8c1.7-4.2,1.7-8.8-2.1-12.3c-2.8-2.5-3.5-5.4-3.3-9.1c0.4-8.5-4.1-13-12.5-13.3
	c-4.5-0.2-8.8,0.6-13.1,1.7c0-0.6,0-1.2,0-1.9c0.1-0.3,0.1-0.6-0.1-0.8c1.1-0.1,2.4,0.2,3.2-1c3-0.9,5.6-3,8.9-2.6
	c0.1,0.5,0.2,1.1,0.3,1.6c1.9,1.6,4.6,0.9,6.7,2l-0.1,0.4v-0.4c6.4,2.9,9.3,7.6,8.8,15c-0.2,2.5,0.1,4.6,2.1,6.4
	c5,4.5,5.4,10.1,2.9,15.9c-2.3,5.4-3.3,10.4,1.6,14.9c0.5,0.4,1.1,1.2,1,1.7c-1,6.9,1.1,13.8-0.6,20.7c-0.2,0.6-0.9,1.3-0.8,1.8
	c1.4,7.7-3.5,14.6-2.8,22.3c0.2,1.8,0.1,4-0.8,5.4c-1.9,2.9-3.3,5.8-3.1,9.4c0.1,0.9-0.6,2.3-1.3,2.6c-5.2,2.7-6.1,8.3-9.1,12.5
	c-1.5,2.1-3,4.2-5,5.7c-13.8,10.5-29.3,15.3-46.7,13.6c-2.5-0.3-4.5-2-7.4-3.2c1.5,5,1.5,9.1-1.5,13c-1.4,1.8,0,4.2,0.7,6.3
	c1.5,4.4,1.9,8.7-1.8,12.3c-1.2,1.2-1.3,2.6-1.1,4.2c0.3,2.4-1.8,2.6-3.3,3.1c-1.8,0.6-1.6-1.1-2-2.1c-0.9-3.1-3.4-5.1-5.4-7.3
	c-2.9-3.3-3.6-6.8-1.8-10.8c1.9-4,1.5-7.3-1.6-11.1C185.5,565.9,188.6,554.4,197.1,550z"/>
<path class="st2" d="M139,318.1c0.4,0.4,0.7,0.7,1.1,1.1c-10,13.3-14.7,28.3-10.6,44.5c2.5,9.6,4.4,19.1,4.6,29
	c-0.4,0.4-0.8,0.7-1.2,1.1c-2.6-3.8-1.1-8.2-1.3-12.2c-0.5-8.2-4.9-15.5-5.3-23.6C125.7,343.1,128.6,329.4,139,318.1z"/>
<path class="st2" d="M174.8,550.7c5.6-1.8,11.5-0.4,17.2-0.9C186.3,550.8,180.6,551.1,174.8,550.7z"/>
<path class="st2" d="M157.4,551.8c1.5-3.4,3.9-1.9,6.1-1.1C161.6,551.6,159.1,549.5,157.4,551.8z"/>
<path class="st0" d="M172.6,443.8c-1.7,0-3.3,0-5-0.1C169.3,443,170.9,442.8,172.6,443.8z"/>
<path class="st0" d="M166.1,443.9c-0.5,0-1,0-1.4,0c0.5-0.1,1-0.1,1.5-0.2C166.2,443.7,166.1,443.9,166.1,443.9z"/>
<polygon class="st3" points="166.1,443.9 166.2,443.7 166.1,443.7 "/>
<polygon class="st3" points="270.3,421.3 270.3,421.7 270.4,421.3 "/>
<path class="st3" d="M251.4,424c4.3-1.1,8.6-1.9,13.1-1.7c8.4,0.3,12.9,4.8,12.5,13.3c-0.2,3.7,0.5,6.6,3.3,9.1
	c3.8,3.4,3.8,8.1,2.1,12.3c-2.6,6.4-4,12.3,1.8,17.8c0.2,0.2,0.6,0.6,0.6,0.8c-1.2,6.5,0.7,13.2-0.6,19.7c-0.1,0.7-0.9,1.3-0.8,1.9
	c1.5,7.9-4,14.9-2.7,22.8c0.3,2-0.1,4-1.1,5.4c-2,2.6-3,5.2-2.8,8.4c0.1,0.9-0.6,2.3-1.2,2.6c-4.5,2.1-5.7,6.5-7.7,10.3
	c-1.3,2.6-2.9,5-5.3,6.8C249,564,233.8,568.8,216.8,567c-4.3-0.4-6.8-4.5-10.9-5.7c-0.8,2,0.4,3.6,1,5.2c1.4,3.8,2.3,7.5-1,10.9
	c-1.2,1.3-1.4,3.3-0.6,4.8c3.4,7,1.9,13-3.3,18.4c-1.5-1.8-3.2-3.9-5-5.8c-2.9-3.1-3.6-6.3-1.8-10.2c2-4.2,1.5-7.8-1.6-11.7
	c-6.4-8-2.6-19.1,6.7-21.1c1-0.1,2.1-0.1,3.1-0.2c2.4,0.2,4.9,0.5,7.2-0.7c1-0.1,1.9-0.2,2.9-0.2c2.7,0.1,5.8-0.6,8.1,0.4
	c9.2,4,14.5-4.4,21.8-6.3c0.7-0.2,1.3-1.6,1.5-2.5c1.2-5.2,5.5-9.3,5.3-15.1c0-1.9,1.4-3.8,4-3.9c1.1,0,2-0.2,1.6-1.7
	c-0.9-3.9,1.8-6.4,3.9-8.9c2.8-3.3,3.7-6.9,2.7-10.9s-1.1-8.1-1-12.1c2.1-4.2,3.2-7.8-0.2-12.4c-2.3-3.2-2.6-8.1,0.4-12
	c1.3-1.7,1-2.2-0.9-3.2c-4.1-2.1-5.1-6.2-3.6-10c1.5-3.7,4.6-6.3,9.3-4.5c0.9,0.3,1.9,1,2.6-0.3c-3.9-2.6-8.4-3.3-9.8-1
	c-2.3,3.8-5.4,1.7-8.2,2.3c-2.8,0.6-3,6-7.1,6.4c-0.3,0-0.7,0.2-1,0.1c-4.9-2.3-8.5,1-12.5,2.7c-1.2,0.5-2.8,1.3-3.9,1
	c-2.6-0.8-3.8,0.3-5.4,2.2c-3.8,4.6-9.4,4.5-12.4,0.3c-0.8,6.3-2.4,7.8-9.2,8.1c-3,0.1-6.4-0.8-8.8,1.6c-3.7,3.9-7.7,3.3-11.9,1.5
	l0,0c-0.5-2.1-1.7-1.7-3.4-1.5c-4.8,0.5-10.4,2.4-12.6-4.6c-0.3-0.8-0.9-0.8-1.6-0.5c-3.2,1.1-7.4-0.6-9.5,3.6
	c-1.4,2.8-4.3,4.9-2.7,9c0.9,2.4-0.7,5.1-1.4,7.7c-1.1,4.2-3.5,8.6-1.1,13.1c0.5,1.1,0.4,2.2-0.2,2.9c-2.9,3.4-0.6,7.3-1.4,10.8
	c-0.7,3.1,2.8,3.1,3.2,5.1c1.3,6.8,5.3,12.4,7.7,18.7c2.8,7.3,1.5,15-3.2,20.8c-4.7,6-5.5,11.3-2.1,17.6c0.5,0.9,1,1.8,0.2,3.2
	c-2.5-1.7-2.6-4.5-3.3-6.9c-1.8-6.2-5.4-10.2-11.8-12.1c-9.7-2.9-12.5-7.5-10.5-17.5c0.6-3.2,0.4-6-0.9-8.9
	c-1.9-4.2-5.2-8.2-1.8-13.3c0.8-1.1-1-2.4-1.8-3.4c-2.3-3.1-3.2-6,0.6-8.7c2.2-1.6,1.7-3.9,0.9-6c-1.1-2.9-1.8-5.8-2-8.9
	c-0.1-1.6-0.3-3.7,0.8-4.4c4.3-2.5,2-7.4,3.8-10.2c3.6-5.8,2.3-13.4,7.6-18.3c1.7-1.6,0.6-4.2,0.6-6.4c0.4-9.5,8.1-15.4,17.1-12.8
	c1.3,0.4,2.6,0.9,3.6,1.8c1.5,1.3,3.8,1.2,4.6,1.7c5.4,3.3,13.1-1.6,17.2,5.2c1.3,1.2,2.6,0.9,3.6-0.2c3.8-4.5,8.1-3.4,12.4-1.3
	c1.9,0.9,3.1,1.4,4.3-1c1-2,3.4-1.5,5.1-0.8c3.2,1.3,5.9,1.3,8.2-1.7c0.8-1.1,2.2-1.4,3.7-1.4c2.4,0.1,3.4-1.1,2.7-3.5v0.2
	c2.8,1.2,4.5-2.6,7.1-1.5c3.1,1.3,5-0.3,7.2-2.1c2.9-2.4,6.3-4.2,10.2-2.1c2.5,1.3,3.4-0.1,4.1-2C245.7,428.2,248.2,425.9,251.4,424
	z"/>
<path class="st4" d="M134.1,392.6c-0.2-9.9-2.1-19.3-4.6-29c-4.2-16.2,0.5-31.2,10.6-44.5c10.3-9.1,22.5-8.3,34.8-6.7
	c10.7,1.4,21,5.6,32,5.3c7.2-0.2,14.2-0.8,21.2-2.2c3.4-0.7,6.5,0,9.4,1.2c5.8,2.5,7.7,7.4,4.5,12.9c-5.7,9.6-13.1,17.4-24,21
	c-6.8,2.2-13.6,4.5-20.5,5.9c-7.7,1.5-13.7,5.6-19.3,10.7c-7,6.5-13.7,13.3-21.7,18.4C149.7,390,142.6,393.7,134.1,392.6z"/>
<path class="st5" d="M290.6,347.3c1,18.9-9.9,31-23.8,41.3c-10,7.4-20.5,13.3-33.6,12.3c-4.3-0.3-8.3-1.6-12.3-2.9
	c-5.6-1.9-11.3-3.7-17.4-2.6c-6.1,1.1-9,5.4-7.6,11.5c1.3,5.9,4.8,10.8,7.4,16.2c2.1,4.3,4.3,8.5,6.1,12.8c1.7,4,0.1,7.5-3.6,8.7
	c-2.7,0.9-8.3-2.2-9-5.1c-0.9-4.1-2.6-7.7-5-11.1c-6.8-9.7-8.7-20.5-7.7-32c0.8-9.3,5.1-13.3,14.5-13.6c2-0.1,4.1,0,6.1,0.2
	c8.1,0.7,14.3-2.2,18-9.6c4.5-8.8,9-17.5,13.6-26.2c2.3-4.3,4.7-8.6,7.2-12.9c7.3-12.2,18.7-15.6,32-14c8.6,1,13.1,7,14.6,18.2
	C290.4,341.5,290.4,344.4,290.6,347.3z"/>
<path class="st6" d="M206.4,240.3L206.4,240.3c0.1-23.1,0-46.2,0.1-69.3c-2.7,0-5.5,0.1-8.2,0c0.1,46.6,0.2,93.2-0.1,139.8
	c0,4.8,2.4,4.5,5.5,4.8c4.3,0.4,2.6-2.8,2.6-4.4C206.5,287.6,206.4,264,206.4,240.3z"/>
<path class="st7" d="M263.4,417.7c-3.4-0.5-6,1.6-8.9,2.6c-3.7-0.7-7-3.3-11.3-0.4c-1.9,1.3-5.7,1.2-8.2-0.6
	c-1.6-1.2-2.1-1.1-3.4,0.5c-3.5,4.1-6.1,3.6-8.4-1.8c-1.8,5.3-5.6,2-8.5,2.4l0,0c0.1-0.4,0.7-0.6,0.1-1.2s-0.8,0.1-1.2,0.1l0.1,0.1
	c1.5-1.9-0.7-3.6,0.3-6.2c-1.8,1.6-2.8,2.9-4.1,3.4c-3,1.3-5.4,0.6-6.3-2.8c-1.3-5.7,0.4-8,6.2-9.4c1-0.2,1.8-1.4,2.6-2.2
	c2.6-2.6,6-2.2,7.4,0.2c1.7,2.9,2.8,1.6,4.5,0.9c0.8-0.3,1.7-0.6,2.4-0.4c4.7,1.1,8.9,3.4,14.3,1.7c2.3-0.7,5.9,0.3,8.8,0.6
	c3.8,0.4,8,0.7,11.4,0.3c5.3-0.7,10.4,0.8,15.6-0.3c1.4-0.3,3.1-1.1,4.1,0.6c0.8,1.3,0,2.6-0.8,3.7c-1.9,2.9-3.9,4.6-8,4.9
	C269.6,414.7,265.1,413.5,263.4,417.7z"/>
<path class="st8" d="M180,386.6c-3.4,5.5-6.5,11.1-9.3,16.9c-1.3,2.6-3.1,5.6-6.5,4c-3.6-1.6-2.1-5-1.3-7.6c1-2.9,3-5.4,5.7-7
	C172.3,390.7,176.2,388.7,180,386.6z"/>
<path class="st9" d="M199.6,370.4c0.2-4-0.8-8.2,1-12.2c0.2,4.7,1.9,9.4-0.2,14.1C200.1,371.7,199.9,371.1,199.6,370.4z"/>
<path class="st8" d="M199.6,370.4c0.3,0.6,0.5,1.3,0.8,1.9c0,2.5,0,4.9,0,7.7c-1.7-1.1-2.9-1.9-4.1-2.7v0.1
	C197.3,375.1,199.9,373.4,199.6,370.4z"/>
<path class="st10" d="M248.5,401.8c-1,1.6-1.9,2.5-3.5,1.7c-0.2-0.1-0.5-0.6-0.4-0.7C245.4,401.3,246.8,401.9,248.5,401.8z"/>
<path class="st8" d="M196.3,377.4c-0.6,0.3-1.2,1.1-2.4,0.2C194.9,377.6,195.6,377.5,196.3,377.4L196.3,377.4z"/>
<path class="st11" d="M250.9,492.3c-1.4,2.2,1,2.9,1.8,4c2,3,2.1,6.1,0.5,9.1c-1.6,3.1-4,4.6-7.5,2.5c-1-0.6-2.1-1.1-3-1.9
	c-12.5-10.8-25.5-6.8-38.5-1.1c-3.4,1.5-6.3,3.9-9.6,5.8c-1.7,1-3.6,1.9-5.5,2.5c-6.7,2.2-12,0.6-14.1-4.2
	c-2.4-5.5,0.8-15.4,6.3-17.2c14.1-4.4,27.2-11.4,41.5-15c5.3-1.3,10.8-2.2,13.9,5.3c0.1-5.6-2-7.8-6.8-8.1
	c-5.9-0.4-11.4,1.7-16.7,3.6c-8.7,3.1-17.4,6.7-26,10c-1.9,0.7-3.8,1.4-5.8,1.7c-8.9,1.4-13.6-4.7-10.3-13.1
	c1.4-3.7,4.9-3.3,7.8-4.1l0,0c2.8,6.7,6.1,8.5,12.1,6.5c2.4-0.8,4.7-1.8,7-2.9c10.7-5,21.8-8.2,33.6-9.5c7.8-0.9,13.8,3.1,14.9,9.8
	c1.2,7.3-1.7,10.7-11,12.6c-11.8,2.4-23.6,4.5-35.4,7c-5,1-9.9,2.3-14.4,4.9c-3.7,2.2-3.9,4.5-0.1,7.3c-2-4.7,0.9-5.9,4.1-7.1
	c9.7-3.6,20.1-4.6,30-7.3c6.6-1.8,12.4-0.4,18.1,2.4c2.7,1.3,5.2,3.1,7.9,4.7c0.7,0.8,1.6,2.7,2.4,1.8c1.2-1.3-0.5-2.2-1.6-2.8
	c-3.1-4.1-8.3-5.1-12.5-7.7c6-3.7,11.4-3,16.6,0.6L250.9,492.3z"/>
<path class="st11" d="M234,533.3c-1.5-1.7-2.5,0.1-3.3,0.8c-10.1,9.1-22.8,11.7-35.5,13.6c-10.6,1.6-21.4,1.3-32.1,1.2
	c-2.8,0-5.5-0.1-4-4.1c1-2.6-2.5-6.2,0.7-7.7c2.1-1,5.3,0.3,8,0.8c14.2,2.7,28-0.4,41.8-3.3c4.4-0.9,8.2-3.3,11.2-6.7
	c0.9-1,1.9-2.3,1-3.7c-1-1.6-2.4-0.5-3.6-0.1c-9,2.9-17.9,6.3-27.3,7.9c-5.7,1-11.5,1.3-17.2-0.2c-4.8-1.2-7.9-5.7-6.7-9.7
	c1.5-5.1,7.5-8.6,12-6.8c2,0.8,4.1,1.4,6,0.8c7.3-2.3,15.3-2.1,22.2-6.2c5.2-3.1,10.6-5.9,16.7-7.4c5.7-1.4,10.7-1,15.2,3.1
	c2.6,2.4,5.6,4.3,9.4,5.5c-1.7,1.9-3.4,2.1-5.2,2c-3.7,0-7.5,0.1-11.2-0.2c-7.8-0.8-15.1,0.6-22.2,4c-4.6,2.2-9.3,4-14.1,5.7
	c-5.6,2-11.3,3.4-17.1-0.2c3,5.1,7.6,4.5,12,3.7c7.5-1.4,14.6-4.6,21.4-7.9c5.4-2.6,11-3.6,16.8-3.4c2.7,0.1,6-0.9,7.6,2.6
	c1.8,3.8,1.6,7.4-0.3,11.2c-0.8,1.5-3.9,2.3-2.1,4.9C233.8,533.4,234,533.3,234,533.3z"/>
<path class="st2" d="M209.4,549.9c5.1-2.1,10.3-1.1,15.4-0.3c4.1,0.7,7.8,0.5,10.5-3.1c0.2-0.3,0.5-0.7,0.7-0.7
	c6.9-0.5,6.4-7.9,10.3-11.1c1.1-0.9,0.2-2.2,0.5-3.3c0.7-3.7,3-6.6,4.7-9.8c3.6-7,11.8-12.4,8.4-22.3c-1.3-3.7-1.4-8,0.5-11.9
	c0.1,0.9,0.2,1.8,1,2.3c-0.1,4.1,0,8.1,1,12.1s0.1,7.6-2.7,10.9c-2.1,2.5-4.8,5-3.9,8.9c0.4,1.5-0.5,1.7-1.6,1.7c-2.5,0.1-4,2-4,3.9
	c0.1,5.8-4.1,9.9-5.3,15.1c-0.2,0.9-0.8,2.3-1.5,2.5c-7.3,1.9-12.6,10.3-21.8,6.3c-2.3-1-5.4-0.3-8.1-0.4
	C212.4,549.4,210.8,550.1,209.4,549.9z"/>
<path class="st2" d="M210.7,551c-2.3,1.1-4.8,0.9-7.2,0.7C205.8,550.2,208.3,551.2,210.7,551z"/>
<path class="st0" d="M215.6,439.5c0.8-2.5,3.4-3.8,5.1-3.4c4.9,1.2,7.8-1.7,11.2-4c0.3-0.2,0.6-0.3,0.9-0.5c3.1-2.2,7.3,1.3,9.5-1.1
	c2.3-2.4,3.8-5.6,6.7-7.4c0.7-0.4,1.5-0.7,2.3-1c0,0.6,0,1.2,0,1.9c-3.2,1.8-5.7,4.2-7.1,7.7c-0.7,1.9-1.6,3.3-4.1,2
	c-3.9-2.1-7.3-0.3-10.2,2.1c-2.2,1.8-4.2,3.4-7.2,2.1C220.1,436.9,218.4,440.7,215.6,439.5z"/>
<path class="st0" d="M251.2,421.3c-3.4-2.2-7.2-0.3-10.2,0.5c-3.9,1-7.8,0-12,1.8c-3.2,1.4-10.5,1.8-14.4-3.2c3-0.4,6.8,2.9,8.5-2.4
	c2.4,5.4,5,5.9,8.4,1.8c1.3-1.6,1.9-1.6,3.4-0.5c2.5,1.8,6.3,1.9,8.2,0.6c4.3-2.9,7.6-0.2,11.3,0.4
	C253.6,421.5,252.4,421.2,251.2,421.3z"/>
<path class="st1" d="M261.5,489.6c-0.9-0.5-0.9-1.4-1-2.3c1.6-3,1.9-5.8-0.8-8.5c-0.7-0.6-0.8-1.8-1.1-2.8c-1.2-4,1.2-8.5,0.3-11.7
	c-0.9-3.5-4.6-6.5-4.2-10.9c0.1-1.5-0.5-2.1-1.8-2.6c-1.8-0.7-2,0.6-2.5,1.6c-1.5,2.7-4,4.5-7,4.5c-9.8,0-18.1,3.9-26.6,9.1
	c5.1,0.5,9.5-1,13.9-1.5c9.7-1.2,17.1,4,18.2,12.8c0.5,3.9-0.7,7.2-3.5,9.9c1.7,2.1,5.3,2,5.2,5.4c-5.2-3.6-10.6-4.3-16.6-0.6
	c4.2,2.6,9.4,3.5,12.5,7.7c-0.3,0.4-0.5,0.7-0.8,1.1c-2.6-1.6-5.1-3.3-7.9-4.7c-5.7-2.8-11.5-4.2-18.1-2.4c-10,2.7-20.3,3.7-30,7.3
	c-3.2,1.2-6,2.4-4.1,7.1c-3.7-2.9-3.6-5.1,0.1-7.3c4.4-2.6,9.4-3.9,14.4-4.9c11.8-2.5,23.6-4.6,35.4-7c9.3-1.9,12.2-5.3,11-12.6
	c-1.1-6.7-7-10.7-14.9-9.8c-11.7,1.3-22.9,4.4-33.6,9.5c-2.3,1.1-4.6,2.1-7,2.9c-6.1,2-9.3,0.2-12.1-6.5c4.3,1.9,8.2,2.4,11.9-1.5
	c2.4-2.5,5.8-1.5,8.8-1.6c6.8-0.3,8.4-1.7,9.2-8.1c3,4.2,8.6,4.2,12.4-0.3c1.6-1.9,2.8-3,5.4-2.2c1.1,0.3,2.6-0.5,3.9-1
	c4-1.7,7.6-5.1,12.5-2.7c0.3,0.1,0.7,0,1-0.1c4.1-0.4,4.3-5.8,7.1-6.4c2.8-0.6,5.9,1.5,8.2-2.3c1.4-2.3,6-1.6,9.8,1
	c-0.7,1.2-1.7,0.6-2.6,0.3c-4.7-1.8-7.8,0.8-9.3,4.5c-1.5,3.9-0.5,7.9,3.6,10c1.9,1,2.2,1.5,0.9,3.2c-2.9,3.9-2.7,8.8-0.4,12
	C264.7,481.8,263.6,485.5,261.5,489.6z M201.8,471.9c-7.4-3-11.9,2.6-18.5,5.3C191.2,478.2,196.2,474.2,201.8,471.9z"/>
<path class="st0" d="M214.5,420.3c-0.8,0.1-1.1-0.2-1-1c0.4-0.1,0.6-0.7,1.2-0.1C215.2,419.7,214.6,420,214.5,420.3z"/>
<path class="st1" d="M246.5,499.6c1.1,0.7,2.9,1.5,1.6,2.8c-0.9,0.9-1.7-1-2.4-1.8C246,500.4,246.2,500,246.5,499.6z"/>
</svg>
