<?xml version="1.0" encoding="utf-8"?>
<!-- Generator: Adobe Illustrator 19.1.0, SVG Export Plug-In . SVG Version: 6.00 Build 0)  -->
<svg version="1.0" xmlns="http://www.w3.org/2000/svg" xmlns:xlink="http://www.w3.org/1999/xlink" x="0px" y="0px"
	 viewBox="0 0 1574 886" style="enable-background:new 0 0 1574 886;" xml:space="preserve">
<style type="text/css">
	.st0{fill:#D0E9E6;}
	.st1{fill:#624E37;}
	.st2{fill:#795A45;}
	.st3{fill:#669A44;}
	.st4{fill:#EB5340;}
	.st5{fill:#DC4731;}
	.st6{fill:#607D38;}
	.st7{fill:#68984C;}
	.st8{fill:#CEE6DF;}
	.st9{fill:#E1F1EC;}
	.st10{fill:#A17E5E;}
	.st11{fill:#F37661;}
	.st12{fill:#FDE329;}
	.st13{fill:#FEE324;}
	.st14{fill:#FDD71D;}
	.st15{fill:#F7F5D5;}
	.st16{font-family:'ComicSansMS';}
	.st17{font-size:55px;}
	.st18{fill:none;stroke:#000000;stroke-width:5;stroke-miterlimit:10;}
	.st19{fill:none;stroke:#FFFFFF;stroke-width:7;stroke-miterlimit:10;}
	.st20{opacity:0.8;fill:#ECF6F5;}
	.st21{font-size:40px;}
	.st22{fill:#FFFFFF;}
	.st23{font-family:'ComicSansMS-Bold';}
	.st24{font-size:52px;}
	.st25{fill:#A5D2CB;}
	.st26{font-size:49px;}
</style>
<g id="Layer_2">
	<rect class="st0" width="1574" height="886"/>
	<rect y="588" class="st1" width="1574" height="298"/>
</g>
<g id="Layer_1">
	<path class="st2" d="M1326.4,667.3c-3-2.6-10-0.9-8.8-6.2c1.3-5.8,7.8-2.7,12-3.2c2.7-0.3,6.6,0.1,6.1,3.6
		C1335,666.3,1330.1,666.2,1326.4,667.3z"/>
	<path class="st2" d="M1377.4,809.4c-1.4-0.1-6.7,0.1-6.5-4.2c0.1-4.7,5.8-4.6,9.5-4.6c3.4,0,8.9,0.3,8.8,4.2
		C1389,809.3,1383.8,809.8,1377.4,809.4z"/>
	<path class="st2" d="M1288.9,752.3c-3.8-0.4-8.7-0.1-8.9-4.7c-0.2-4,4.5-4.4,7.9-4.5c3.7-0.1,8.7-0.2,9.1,4.2
		C1297.4,752,1292.3,751.7,1288.9,752.3z"/>
	<path class="st2" d="M1336.7,700.4c-3.8-0.3-8.5-0.5-8.5-4.3c0-5.2,5.2-4.8,9-4.9c3.3-0.1,7.9-0.6,7.9,3.8
		C1345.3,700.5,1339.5,698.8,1336.7,700.4z"/>
	<path class="st2" d="M1419.8,850.4c-3.5-0.5-8.4-0.3-8.3-5c0.1-3.9,4.7-4.5,8-4.2c3.5,0.4,8.8,0.3,8.9,4.4
		C1428.6,850.2,1423.5,850,1419.8,850.4z"/>
	<path class="st2" d="M1418.9,689.4c-3.3-0.8-9,1.3-8.7-3.9c0.3-5.5,6.2-3.4,9.8-3.6c3.1-0.2,8.3-1.1,8.2,3.3
		C1428.1,691,1422.3,688.5,1418.9,689.4z"/>
	<path class="st2" d="M1381,640.9c3.4,0.8,8.9-0.8,8,4c-0.8,4.6-6.4,3.6-10.3,3.6c-3.1-0.1-8.3,0.8-7.5-4
		C1372,639,1377.8,642.1,1381,640.9z"/>
	<path class="st2" d="M1367.9,767.1c-3.8-0.3-9.5,0.3-9.4-3.8c0.1-5.7,6.1-3.3,9.6-3.6c3.1-0.2,8.1-1.2,8.2,3.4
		C1376.3,768.5,1370.9,766.4,1367.9,767.1z"/>
	<path class="st2" d="M1327.2,826.3c-3.7-0.3-9.4,0.4-9.3-3.6c0.1-4.7,5.9-3.8,9.6-3.8c3.1,0,8-1,8,3.5
		C1335.5,827.7,1330.2,825.7,1327.2,826.3z"/>
	<path class="st2" d="M541.7,646.9c-3-2.6-10-0.9-8.8-6.2c1.3-5.8,7.8-2.7,12-3.2c2.7-0.3,6.6,0.1,6.1,3.6
		C550.3,646,545.4,645.8,541.7,646.9z"/>
	<path class="st2" d="M592.7,789.1c-1.4-0.1-6.7,0.1-6.5-4.2c0.1-4.7,5.8-4.6,9.5-4.6c3.4,0,8.9,0.3,8.8,4.2
		C604.3,788.9,599.1,789.5,592.7,789.1z"/>
	<path class="st2" d="M504.2,731.9c-3.8-0.4-8.7-0.1-8.9-4.7c-0.2-4,4.5-4.4,7.9-4.5c3.7-0.1,8.7-0.2,9.1,4.2
		C512.7,731.6,507.6,731.3,504.2,731.9z"/>
	<path class="st2" d="M552,680c-3.8-0.3-8.5-0.5-8.5-4.3c0-5.2,5.2-4.8,9-4.9c3.3-0.1,7.9-0.6,7.9,3.8
		C560.6,680.1,554.8,678.4,552,680z"/>
	<path class="st2" d="M635.1,830.1c-3.5-0.5-8.4-0.3-8.3-5c0.1-3.9,4.7-4.5,8-4.2c3.5,0.4,8.8,0.3,8.9,4.4
		C643.9,829.9,638.8,829.6,635.1,830.1z"/>
	<path class="st2" d="M634.2,669c-3.3-0.8-9,1.3-8.7-3.9c0.3-5.5,6.2-3.4,9.8-3.6c3.1-0.2,8.3-1.1,8.2,3.3
		C643.4,670.7,637.6,668.2,634.2,669z"/>
	<path class="st2" d="M596.3,620.5c3.4,0.8,8.9-0.8,8,4c-0.8,4.6-6.4,3.6-10.3,3.6c-3.1-0.1-8.3,0.8-7.5-4
		C587.3,618.6,593.1,621.7,596.3,620.5z"/>
	<path class="st2" d="M583.2,746.7c-3.8-0.3-9.5,0.3-9.4-3.8c0.1-5.7,6.1-3.3,9.6-3.6c3.1-0.2,8.1-1.2,8.2,3.4
		C591.6,748.2,586.2,746,583.2,746.7z"/>
	<path class="st2" d="M542.5,806c-3.7-0.3-9.4,0.4-9.3-3.6c0.1-4.7,5.9-3.8,9.6-3.8c3.1,0,8-1,8,3.5
		C550.8,807.4,545.5,805.3,542.5,806z"/>
	<path class="st2" d="M239.7,656.9c-3-2.6-10-0.9-8.8-6.2c1.3-5.8,7.8-2.7,12-3.2c2.7-0.3,6.6,0.1,6.1,3.6
		C248.3,656,243.4,655.8,239.7,656.9z"/>
	<path class="st2" d="M290.7,799.1c-1.4-0.1-6.7,0.1-6.5-4.2c0.1-4.7,5.8-4.6,9.5-4.6c3.4,0,8.9,0.3,8.8,4.2
		C302.3,798.9,297.1,799.5,290.7,799.1z"/>
	<path class="st2" d="M202.2,741.9c-3.8-0.4-8.7-0.1-8.9-4.7c-0.2-4,4.5-4.4,7.9-4.5c3.7-0.1,8.7-0.2,9.1,4.2
		C210.7,741.6,205.6,741.3,202.2,741.9z"/>
	<path class="st2" d="M250,690c-3.8-0.3-8.5-0.5-8.5-4.3c0-5.2,5.2-4.8,9-4.9c3.3-0.1,7.9-0.6,7.9,3.8
		C258.6,690.1,252.8,688.4,250,690z"/>
	<path class="st2" d="M333.1,840.1c-3.5-0.5-8.4-0.3-8.3-5c0.1-3.9,4.7-4.5,8-4.2c3.5,0.4,8.8,0.3,8.9,4.4
		C341.9,839.9,336.8,839.6,333.1,840.1z"/>
	<path class="st2" d="M332.2,679c-3.3-0.8-9,1.3-8.7-3.9c0.3-5.5,6.2-3.4,9.8-3.6c3.1-0.2,8.3-1.1,8.2,3.3
		C341.4,680.7,335.6,678.2,332.2,679z"/>
	<path class="st2" d="M294.3,630.5c3.4,0.8,8.9-0.8,8,4c-0.8,4.6-6.4,3.6-10.3,3.6c-3.1-0.1-8.3,0.8-7.5-4
		C285.3,628.6,291.1,631.7,294.3,630.5z"/>
	<path class="st2" d="M281.2,756.7c-3.8-0.3-9.5,0.3-9.4-3.8c0.1-5.7,6.1-3.3,9.6-3.6c3.1-0.2,8.1-1.2,8.2,3.4
		C289.6,758.2,284.2,756,281.2,756.7z"/>
	<path class="st2" d="M240.5,816c-3.7-0.3-9.4,0.4-9.3-3.6c0.1-4.7,5.9-3.8,9.6-3.8c3.1,0,8-1,8,3.5
		C248.8,817.4,243.5,815.3,240.5,816z"/>
	<path class="st2" d="M693.7,656.9c-3-2.6-10-0.9-8.8-6.2c1.3-5.8,7.8-2.7,12-3.2c2.7-0.3,6.6,0.1,6.1,3.6
		C702.3,656,697.4,655.8,693.7,656.9z"/>
	<path class="st2" d="M744.7,799.1c-1.4-0.1-6.7,0.1-6.5-4.2c0.1-4.7,5.8-4.6,9.5-4.6c3.4,0,8.9,0.3,8.8,4.2
		C756.3,798.9,751.1,799.5,744.7,799.1z"/>
	<path class="st2" d="M656.2,741.9c-3.8-0.4-8.7-0.1-8.9-4.7c-0.2-4,4.5-4.4,7.9-4.5c3.7-0.1,8.7-0.2,9.1,4.2
		C664.7,741.6,659.6,741.3,656.2,741.9z"/>
	<path class="st2" d="M704,690c-3.8-0.3-8.5-0.5-8.5-4.3c0-5.2,5.2-4.8,9-4.9c3.3-0.1,7.9-0.6,7.9,3.8
		C712.6,690.1,706.8,688.4,704,690z"/>
	<path class="st2" d="M787.1,840.1c-3.5-0.5-8.4-0.3-8.3-5c0.1-3.9,4.7-4.5,8-4.2c3.5,0.4,8.8,0.3,8.9,4.4
		C795.9,839.9,790.8,839.6,787.1,840.1z"/>
	<path class="st2" d="M786.2,679c-3.3-0.8-9,1.3-8.7-3.9c0.3-5.5,6.2-3.4,9.8-3.6c3.1-0.2,8.3-1.1,8.2,3.3
		C795.4,680.7,789.6,678.2,786.2,679z"/>
	<path class="st2" d="M748.3,630.5c3.4,0.8,8.9-0.8,8,4c-0.8,4.6-6.4,3.6-10.3,3.6c-3.1-0.1-8.3,0.8-7.5-4
		C739.3,628.6,745.1,631.7,748.3,630.5z"/>
	<path class="st2" d="M735.2,756.7c-3.8-0.3-9.5,0.3-9.4-3.8c0.1-5.7,6.1-3.3,9.6-3.6c3.1-0.2,8.1-1.2,8.2,3.4
		C743.6,758.2,738.2,756,735.2,756.7z"/>
	<path class="st2" d="M694.5,816c-3.7-0.3-9.4,0.4-9.3-3.6c0.1-4.7,5.9-3.8,9.6-3.8c3.1,0,8-1,8,3.5
		C702.8,817.4,697.5,815.3,694.5,816z"/>
	<path class="st2" d="M401.7,656.9c-3-2.6-10-0.9-8.8-6.2c1.3-5.8,7.8-2.7,12-3.2c2.7-0.3,6.6,0.1,6.1,3.6
		C410.3,656,405.4,655.8,401.7,656.9z"/>
	<path class="st2" d="M452.7,799.1c-1.4-0.1-6.7,0.1-6.5-4.2c0.1-4.7,5.8-4.6,9.5-4.6c3.4,0,8.9,0.3,8.8,4.2
		C464.3,798.9,459.1,799.5,452.7,799.1z"/>
	<path class="st2" d="M364.2,741.9c-3.8-0.4-8.7-0.1-8.9-4.7c-0.2-4,4.5-4.4,7.9-4.5c3.7-0.1,8.7-0.2,9.1,4.2
		C372.7,741.6,367.6,741.3,364.2,741.9z"/>
	<path class="st2" d="M412,690c-3.8-0.3-8.5-0.5-8.5-4.3c0-5.2,5.2-4.8,9-4.9c3.3-0.1,7.9-0.6,7.9,3.8
		C420.6,690.1,414.8,688.4,412,690z"/>
	<path class="st2" d="M495.1,840.1c-3.5-0.5-8.4-0.3-8.3-5c0.1-3.9,4.7-4.5,8-4.2c3.5,0.4,8.8,0.3,8.9,4.4
		C503.9,839.9,498.8,839.6,495.1,840.1z"/>
	<path class="st2" d="M494.2,679c-3.3-0.8-9,1.3-8.7-3.9c0.3-5.5,6.2-3.4,9.8-3.6c3.1-0.2,8.3-1.1,8.2,3.3
		C503.4,680.7,497.6,678.2,494.2,679z"/>
	<path class="st2" d="M1031.1,794.4c-1.4-0.1-6.7,0.1-6.5-4.2c0.1-4.7,5.8-4.6,9.5-4.6c3.4,0,8.9,0.3,8.8,4.2
		C1042.7,794.2,1037.5,794.7,1031.1,794.4z"/>
	<path class="st2" d="M942.6,737.2c-3.8-0.4-8.7-0.1-8.9-4.7c-0.2-4,4.5-4.4,7.9-4.5c3.7-0.1,8.7-0.2,9.1,4.2
		C951.1,736.9,946,736.6,942.6,737.2z"/>
	<path class="st2" d="M1073.5,835.3c-3.5-0.5-8.4-0.3-8.3-5c0.1-3.9,4.7-4.5,8-4.2c3.5,0.4,8.8,0.3,8.9,4.4
		C1082.3,835.1,1077.2,834.9,1073.5,835.3z"/>
	<path class="st2" d="M980.9,811.3c-3.7-0.3-9.4,0.4-9.3-3.6c0.1-4.7,5.9-3.8,9.6-3.8c3.1,0,8-1,8,3.5
		C989.3,812.6,983.9,810.6,980.9,811.3z"/>
	<path class="st2" d="M1091.6,771.7c-3.8-0.4-8.7-0.1-8.9-4.7c-0.2-4,4.5-4.4,7.9-4.5c3.7-0.1,8.7-0.2,9.1,4.2
		C1100.1,771.4,1095,771.1,1091.6,771.7z"/>
	<path class="st2" d="M933.5,845.3c-3.5-0.5-8.4-0.3-8.3-5c0.1-3.9,4.7-4.5,8-4.2c3.5,0.4,8.8,0.3,8.9,4.4
		C942.3,845.1,937.2,844.9,933.5,845.3z"/>
	<path class="st2" d="M456.3,630.5c3.4,0.8,8.9-0.8,8,4c-0.8,4.6-6.4,3.6-10.3,3.6c-3.1-0.1-8.3,0.8-7.5-4
		C447.3,628.6,453.1,631.7,456.3,630.5z"/>
	<path class="st2" d="M443.2,756.7c-3.8-0.3-9.5,0.3-9.4-3.8c0.1-5.7,6.1-3.3,9.6-3.6c3.1-0.2,8.1-1.2,8.2,3.4
		C451.6,758.2,446.2,756,443.2,756.7z"/>
	<path class="st2" d="M402.5,816c-3.7-0.3-9.4,0.4-9.3-3.6c0.1-4.7,5.9-3.8,9.6-3.8c3.1,0,8-1,8,3.5
		C410.8,817.4,405.5,815.3,402.5,816z"/>
	<path class="st2" d="M89.2,656.3c-3-2.6-10-0.9-8.8-6.2c1.3-5.8,7.8-2.7,12-3.2c2.7-0.3,6.6,0.1,6.1,3.6
		C97.8,655.4,92.9,655.2,89.2,656.3z"/>
	<path class="st2" d="M140.2,798.5c-1.4-0.1-6.7,0.1-6.5-4.2c0.1-4.7,5.8-4.6,9.5-4.6c3.4,0,8.9,0.3,8.8,4.2
		C151.8,798.3,146.6,798.9,140.2,798.5z"/>
	<path class="st2" d="M51.7,741.3c-3.8-0.4-8.7-0.1-8.9-4.7c-0.2-4,4.5-4.4,7.9-4.5c3.7-0.1,8.7-0.2,9.1,4.2
		C60.2,741,55.1,740.7,51.7,741.3z"/>
	<path class="st2" d="M99.5,689.4c-3.8-0.3-8.5-0.5-8.5-4.3c0-5.2,5.2-4.8,9-4.9c3.3-0.1,7.9-0.6,7.9,3.8
		C108.1,689.5,102.2,687.8,99.5,689.4z"/>
	<path class="st2" d="M182.6,839.4c-3.5-0.5-8.4-0.3-8.3-5c0.1-3.9,4.7-4.5,8-4.2c3.5,0.4,8.8,0.3,8.9,4.4
		C191.4,839.3,186.3,839,182.6,839.4z"/>
	<path class="st2" d="M181.6,678.4c-3.3-0.8-9,1.3-8.7-3.9c0.3-5.5,6.2-3.4,9.8-3.6c3.1-0.2,8.3-1.1,8.2,3.3
		C190.9,680,185.1,677.6,181.6,678.4z"/>
	<path class="st2" d="M143.7,629.9c3.4,0.8,8.9-0.8,8,4c-0.8,4.6-6.4,3.6-10.3,3.6c-3.1-0.1-8.3,0.8-7.5-4
		C134.8,628,140.6,631.1,143.7,629.9z"/>
	<path class="st2" d="M130.7,756.1c-3.8-0.3-9.5,0.3-9.4-3.8c0.1-5.7,6.1-3.3,9.6-3.6c3.1-0.2,8.1-1.2,8.2,3.4
		C139.1,757.6,133.7,755.4,130.7,756.1z"/>
	<path class="st2" d="M90,815.4c-3.7-0.3-9.4,0.4-9.3-3.6c0.1-4.7,5.9-3.8,9.6-3.8c3.1,0,8-1,8,3.5C98.3,816.8,93,814.7,90,815.4z"
		/>
	<path class="st2" d="M968.7,642.3c-3-2.6-10-0.9-8.8-6.2c1.3-5.8,7.8-2.7,12-3.2c2.7-0.3,6.6,0.1,6.1,3.6
		C977.3,641.4,972.4,641.2,968.7,642.3z"/>
	<path class="st2" d="M989.2,686.3c-3-2.6-10-0.9-8.8-6.2c1.3-5.8,7.8-2.7,12-3.2c2.7-0.3,6.6,0.1,6.1,3.6
		C997.8,685.4,992.9,685.2,989.2,686.3z"/>
	<path class="st2" d="M1040.2,737.8c-3-2.6-10-0.9-8.8-6.2c1.3-5.8,7.8-2.7,12-3.2c2.7-0.3,6.6,0.1,6.1,3.6
		C1048.8,736.9,1043.9,736.7,1040.2,737.8z"/>
	<path class="st2" d="M1042.7,623.8c-3-2.6-10-0.9-8.8-6.2c1.3-5.8,7.8-2.7,12-3.2c2.7-0.3,6.6,0.1,6.1,3.6
		C1051.3,622.9,1046.4,622.7,1042.7,623.8z"/>
	<path class="st2" d="M1182.2,802.5c-1.4-0.1-6.7,0.1-6.5-4.2c0.1-4.7,5.8-4.6,9.5-4.6c3.4,0,8.9,0.3,8.8,4.2
		C1193.8,802.3,1188.6,802.9,1182.2,802.5z"/>
	<path class="st2" d="M1141.5,693.4c-3.8-0.3-8.5-0.5-8.5-4.3c0-5.2,5.2-4.8,9-4.9c3.3-0.1,7.9-0.6,7.9,3.8
		C1150.1,693.5,1144.2,691.8,1141.5,693.4z"/>
	<path class="st2" d="M1224.6,843.4c-3.5-0.5-8.4-0.3-8.3-5c0.1-3.9,4.7-4.5,8-4.2c3.5,0.4,8.8,0.3,8.9,4.4
		C1233.4,843.3,1228.3,843,1224.6,843.4z"/>
	<path class="st2" d="M1231.7,727.4c3.4,0.8,8.9-0.8,8,4c-0.8,4.6-6.4,3.6-10.3,3.6c-3.1-0.1-8.3,0.8-7.5-4
		C1222.8,725.5,1228.6,728.6,1231.7,727.4z"/>
	<path class="st2" d="M1253.7,651.4c3.4,0.8,8.9-0.8,8,4c-0.8,4.6-6.4,3.6-10.3,3.6c-3.1-0.1-8.3,0.8-7.5-4
		C1244.8,649.5,1250.6,652.6,1253.7,651.4z"/>
	<path class="st2" d="M1302.7,612.9c3.4,0.8,8.9-0.8,8,4c-0.8,4.6-6.4,3.6-10.3,3.6c-3.1-0.1-8.3,0.8-7.5-4
		C1293.8,611,1299.6,614.1,1302.7,612.9z"/>
	<path class="st2" d="M1132,819.4c-3.7-0.3-9.4,0.4-9.3-3.6c0.1-4.7,5.9-3.8,9.6-3.8c3.1,0,8-1,8,3.5
		C1140.3,820.8,1135,818.7,1132,819.4z"/>
	<path class="st2" d="M829.7,656.9c-3-2.6-10-0.9-8.8-6.2c1.3-5.8,7.8-2.7,12-3.2c2.7-0.3,6.6,0.1,6.1,3.6
		C838.3,656,833.4,655.8,829.7,656.9z"/>
	<path class="st2" d="M880.7,799.1c-1.4-0.1-6.7,0.1-6.5-4.2c0.1-4.7,5.8-4.6,9.5-4.6c3.4,0,8.9,0.3,8.8,4.2
		C892.3,798.9,887.1,799.5,880.7,799.1z"/>
	<path class="st2" d="M792.2,741.9c-3.8-0.4-8.7-0.1-8.9-4.7c-0.2-4,4.5-4.4,7.9-4.5c3.7-0.1,8.7-0.2,9.1,4.2
		C800.7,741.6,795.6,741.3,792.2,741.9z"/>
	<path class="st2" d="M840,690c-3.8-0.3-8.5-0.5-8.5-4.3c0-5.2,5.2-4.8,9-4.9c3.3-0.1,7.9-0.6,7.9,3.8
		C848.6,690.1,842.8,688.4,840,690z"/>
	<path class="st2" d="M923.1,840.1c-3.5-0.5-8.4-0.3-8.3-5c0.1-3.9,4.7-4.5,8-4.2c3.5,0.4,8.8,0.3,8.9,4.4
		C931.9,839.9,926.8,839.6,923.1,840.1z"/>
	<path class="st2" d="M884.3,630.5c3.4,0.8,8.9-0.8,8,4c-0.8,4.6-6.4,3.6-10.3,3.6c-3.1-0.1-8.3,0.8-7.5-4
		C875.3,628.6,881.1,631.7,884.3,630.5z"/>
	<path class="st2" d="M871.2,756.7c-3.8-0.3-9.5,0.3-9.4-3.8c0.1-5.7,6.1-3.3,9.6-3.6c3.1-0.2,8.1-1.2,8.2,3.4
		C879.6,758.2,874.2,756,871.2,756.7z"/>
	<path class="st2" d="M830.5,816c-3.7-0.3-9.4,0.4-9.3-3.6c0.1-4.7,5.9-3.8,9.6-3.8c3.1,0,8-1,8,3.5
		C838.8,817.4,833.5,815.3,830.5,816z"/>
	<g>
		<path class="st3" d="M1106.7,590c0.2-0.5,0.1-1.1-0.1-1.6c0-1.2,0-2.4,0-3.6c0.2-18.8,0.5-37.6,0.6-56.4c0-1.8-0.1-4.2-1.1-5.2
			c-7.7-7.2-12.8-17.3-23.1-21.8c0.6-2,4-1.9,3.6-5.2c-11.8,0.5-18.3-6.5-22.3-16.7c-2.3-2.4-4.7-4.7-6.7-7.3
			c-3.9-5.1-7.5-5-11.4-0.1c-1.2-0.1-2.4-0.1-3.6-0.2c1-3.5,6-4.7,5.4-9c-0.6-3.8-16.6-16.5-20.9-17c-0.6-1-1.1-1.9-1.7-2.9
			c0.9-7.3-5.3-11-9.7-12.1c-7.6-2-16.6-5.2-23,4.2c-3.6,5.4-9.9,5.9-15.9,5c-3.6-0.6-7.3-1.6-10.5-3.3c-5.6-2.9-15.2-4.3-15-10.1
			c0.2-4.7,9.8-7.1,15.7-9.6c13.3-5.8,20-4,29.3,6.7c1.9,2.2,3.5,2.2,14.1-0.2c-7.1-7.4-13.7-14.4-20.5-21.3
			c-1.2-1.2-2.5-2.1-4.8-1.6c-19.7,4.2-30.1-1.1-36.8-19.4c-3.1-8.3-4.6-17.2-6.9-25.8c-1.1-4-0.3-5.9,4.4-4.8
			c11.4,2.6,22.9,4.8,33.2,10.5c13.3,7.2,17.8,18.6,12.9,32.2c-0.8,2.1-1.8,3.7,0.3,5.7c7.7,7.3,15.4,14.7,24.1,23
			c1.8-7.8,2.5-12.3-4.3-16.9c-8.3-5.6-6.5-15.4-3.9-23.7c1.9-6.1,5.6-11.6,8.5-17.3c3.3,4.2,7.3,7.4,12.3,9.2
			c-0.9,2.2,0.2,4.2,1,6.2c4.3,10.9,5.4,21.1-6.5,28.2c-2,1.2-1.8,3-1.9,4.8c-0.5,8.8,0.2,16.7,8.3,22.9
			c7.7,5.9,14.2,13.5,21.3,20.3c1.6,1.5,3,4.4,5.8,1.6c2.6,1.7,0.7,5.7,3.6,7.3c15,14.5,30,29,46.8,45.2c1-64.8,2-127,3-189.1
			c-0.2-4.7-5.8-5.6-6.7-9.7c-0.4-0.4-0.7-0.8-0.7-1.4c0.2-1.8,0.7-3.4,2.4-4.4c1.9,0.7,5,6.2,5-1.2c0.1-23.4,0.1-46.8,0.3-70.1
			c0-3.6-2.3-5.5-4-7.9c0.1-2,0.2-4,0.3-6.1c2.8,1.5,3.8,0.5,3.7-2.5c0-6.2,0.1-12.3,0.1-18.5c0-2.2-0.4-3.7-2.4-5.4
			c-11.7-9.7-13.7-18.5-7.6-32.3c2.7-6.1,6.5-11.8,9.8-17.7c2.1-3.8,4.2-5.3,7-0.5c4.8,8.2,10.2,16.1,12.3,25.6
			c2.1,9.9,0.9,18.7-8.5,24c-5.2,3-3.5,7.3-3.6,11.3c-0.2,5.5,0.2,11.1,0.4,16.6c0.7,1.3,1.4,2.6,2.1,4c-0.7,2-2.1,3.9-2.1,5.9
			c-0.1,30.6-0.1,61.3-0.1,93.9c8.2-7.3,14.9-13.2,21.6-19.1c1.6-0.4,2.3-1.5,2.4-3c0.3-0.5,0.7-0.7,1.2-0.7
			c4.8-1.3,4.4-5.1,4.5-8.8c0,0,0.1-0.2,0.1-0.2c2.5,1.8,7,1,7.3,5.6c0,0,0,0,0,0c-2.4,0.1-3.7,1.3-3.8,3.7c0,0,0.1-0.1,0.1-0.1
			c-2.5,0.1-3.7,1.4-3.8,3.9c-3,3.4-5.7,7-9,10.1c-1.9,1.8-2.8,3.1-1.2,5.3c-0.8,0.8-1.6,1.6-2.4,2.4c-8.9,1.3-12.2,9-17,15
			c1.2,20.5-3.9,41.3,3.6,61.4c0,0,0,0,0,0c-5.9,5-4.8,10.7-1.5,16.5c4.2,0.2,8.4,0.4,12.7,0.6c-2.1,6.7-10,0.2-12.7,5.6
			c0,0.5-0.1,1-0.5,1.4c-3.6,13.7-1,27.6-1.4,41.4c-5.5,15.1-8.3,30,3.2,43.8c0.1,3.7,0.1,7.4,0.2,11.1c0.1,22.2,0.2,44.5,0.3,66.7
			c-0.3,0.6-0.3,1.2,0,1.7c-0.2,0.5-0.2,1.1,0,1.6C1116.8,590,1111.7,590,1106.7,590z"/>
		<path class="st4" d="M1029,373.1c-5-1.8-9-5-12.3-9.2c-11.2-23.4-7.9-34.4,15.1-51.3c7.5,0,14.9,0,22.4,0
			c5.7,4.7,12.9,7.6,16.4,14.7c2.3,1.1,2.5,3.3,2.8,5.4c1.7,12.7,1.9,25.1-7.4,35.4c-2.1,0.5-3.8,1.7-4.8,3.6
			c-2.8,1.3-5.5,2.7-8.3,4C1044.9,375,1036.5,377.6,1029,373.1z M1034.1,340.3c5.1-0.5,7.9-3.2,7.9-8.3c0-5.1-2.8-8.4-8-8.1
			c-4.9,0.3-9.1,2.6-8.6,8.7C1025.9,337.8,1029,340.2,1034.1,340.3z"/>
		<path class="st4" d="M1077,508.6c18.9,12.1,24.2,23.4,19.3,40.4c-4,13.6-15.7,22.6-29.7,22.8c-15.4,0.2-27.5-9-32.3-24.6
			c-3.6-11.5,2-26.7,12.6-34c2.5-1.7,5.3-3.1,7.9-4.6C1062.3,508.6,1069.6,508.6,1077,508.6z M1056.7,519.9
			c-5.5-0.3-8.3,3.1-8.6,7.7c-0.3,5.6,4.5,8.1,9.1,8.5c4.8,0.3,8.4-3.5,8.4-8C1065.6,523.1,1062.5,519.4,1056.7,519.9z"/>
		<path class="st4" d="M1121.5,508.9c-11.5-13.8-8.7-28.7-3.2-43.8c0.8-0.2,1.5-0.4,2.3-0.6c4.2-3.3,8.1-7.3,13.7-8.4
			c7.1-3.5,14.3-4.9,21.4,0.1c6.5,1.4,11.4,4.9,14.2,10.9c0.4,2.1,1.5,3.7,3.5,4.6l0.1,0.4c1.3,3.1,2.5,6.2,3.8,9.3
			c0,4.8,0,9.6,0.1,14.3c-4.8,5.4-7,12.8-13.4,17c-10.4,6.9-21.6,6.6-33,3.5C1127.9,513.8,1124.7,511.3,1121.5,508.9z M1145.6,474.5
			c-1.3-4.4-2.8-8.6-8.3-8.2c-4.7,0.3-9.7,1.5-9.6,7.6c0.1,4.9,2.2,9.1,8.2,9C1141.3,482.7,1143.9,479.2,1145.6,474.5z"/>
		<path class="st5" d="M1177.3,481.4c-1.3-3.1-2.5-6.2-3.8-9.3c8.6-0.1,17.3-0.2,25.9-0.3c7,4.8,13.9,9.7,16.1,18.6
			c4.2,15.2-1.4,27.9-15.2,34.3c-13.6,6.4-26.7,2.1-36.4-12c6.3-4.2,8.6-11.6,13.4-17c5.4,0.5,11.2,1.1,10.9-6.8
			C1188,482.1,1183.3,480.5,1177.3,481.4z"/>
		<path class="st3" d="M1043.7,253.3c-6.9-4.9-8.6-12.4-9.3-20.1c-1-10.4,2.3-28,7-39c12.7,10.1,27.2,18.1,33.5,34.3
			c4.9,12.4,2.2,20.6-9.1,28.4c-5.4,0-10.9,0-16.3,0.1c-0.6-0.2-1.2-0.3-1.7-0.5C1047.3,254.2,1045.9,253.3,1043.7,253.3z"/>
		<path class="st3" d="M990,490.4c-2.3,0-4.7,0-7,0c-9.4,0-18.8,0-28.2-0.1c-2.9,0-6.3,0.7-7.2-3.6c3.7-10.8,10-20.1,17.3-28.6
			c7.8-9.1,24.7-15.5,34.5-4.8c2,3.6,4,7.1,6,10.7l-0.1,0.1c0.3,0.7,0.7,1.4,1,2.1c1.8,5.5-3,9.5-3.2,14.5
			C998.8,483.9,994.4,487.2,990,490.4z"/>
		<path class="st5" d="M990,490.4c4.4-3.3,8.7-6.5,13.1-9.8c4.3,0.2,8.7,0.5,13,0.7c6.3,1.4,11.2,4.9,15.4,9.6
			c1.9,2.1,0,6.7,4.5,7.1c-0.3,1.2-0.9,2.4-0.8,3.5c1.1,11.3-3.3,20.1-13.2,25.1c-9.2,4.7-18.9,3.3-26.8-3.1c-8.6-7-8.9-16.9-6.7-27
			C988.9,494.5,989.5,492.5,990,490.4z M1010.6,496.8c0-3.9-1.5-6.1-5.3-6.5c-4-0.4-6.6,1.5-7.2,5.4c-0.7,4.3,2.5,6.3,5.9,6.8
			C1008.1,503.1,1009.8,500.1,1010.6,496.8z"/>
		<path class="st4" d="M1247.3,451c11.5,5.9,14.9,15.7,12.9,27.8c-1.4,8.5-7.3,14.4-14.8,16.8c-9.7,3.1-19.4,1.8-26.8-6.8
			c-10.6-12.3-7.5-27.5,8.1-37.8C1233.5,446.9,1240.4,448.3,1247.3,451z M1236.1,463.1c0.2-2.8-1.8-4.4-5.5-4.3
			c-3.6,0-7.2,0.6-7,5.1c0.2,3.7,2.9,5.9,6.7,6C1234.1,470,1235.8,467.8,1236.1,463.1z"/>
		<path class="st4" d="M1165.3,332.9c2-0.6,4.1-1.3,6.1-1.9c10.7,3.1,19.2,9.1,24.5,19.1c0,2.3,0.1,4.6,0.1,6.9
			c-0.1,1.9-0.2,3.8-0.2,5.7c-4.6,8.6-10.5,15.6-20.3,18.5l0.1-0.1c-7.9,1.6-14.3-2.3-20.9-5.6c0.4-3.5-4.3-3.7-4.4-6.9
			c-4.9-5.5-2.2-12.2-2.9-18.3C1150.1,341,1157,336.3,1165.3,332.9z M1160.2,349.5c-4-0.2-6.4,2-6.3,5.9c0.1,3.4,2.1,5.5,5.9,5.3
			c4-0.2,6.1-2.1,6.2-6.2C1166.2,350.4,1163.8,349.4,1160.2,349.5z"/>
		<path class="st3" d="M1012.4,268.3c1.3,0.1,2.6,0.1,3.9,0.2c5.1,7.4,9.8-0.1,14.7-0.4c2.6,1.1,4.2,4.1,7.4,4.1
			c-0.8,3.8-3.6,3.6-6.3,2.8c-2.9-0.9-5.7-2.2-8.5,0.3c-0.6,0.2-1.2,0.3-1.8,0.3c-2.2,0-3.6,1-3.8,3.3c-0.2,0.5-0.5,0.7-1,0.7
			c-0.9-0.8-1.8-1.6-2.8-2.4c0.2-0.7,0.3-1.3,0.5-2c-7-6.6-14.9-3.2-22.7-2c-4.8,14.3-16.4,15.3-26.7,12.9
			c-10.6-2.5-20.2-8-29.2-15.6c9-6.4,17.7-11.9,27.9-14.6c10.2-2.7,19.7-2.1,26,8c3.9,6.2,10.2,2.5,15.1,4.3
			C1007.4,270.5,1009.9,270.4,1012.4,268.3z"/>
		<path class="st3" d="M1175.4,381.1c2.6,1.2,4.6,3.6,8.3,1.9c9.5-4.3,16.8,0.4,22.6,7.3c7.1,8.5,9.3,19.2,11.6,29.8
			c1,4.4-1,5-5.1,4.2c-8.2-1.7-16.1-3.9-23.5-7.8c-12.1-6.3-15.7-13.4-12.2-26.8c0.9-3.6-2.7-5.5-1.6-8.7
			C1175.5,381,1175.4,381.1,1175.4,381.1z"/>
		<path class="st3" d="M1084.5,201.7c-12.1,4.8-22.7,1.3-29.2-10.3c-2.7-4.8-4.6-10-6.4-15.2c-1.7-4.8-2.7-9.8-4.4-16.1
			c13.6,3.5,26.1,5.9,36.2,14.5c6.6,5.6,9.5,12.6,7,21.3C1084.3,196.5,1084.7,199.3,1084.5,201.7z"/>
		<path class="st3" d="M1149.7,273.6c-15.1,0-19-14.6-16.3-26.9c1.7-7.7,9.1-20.5,15.7-28.4c5.3,8.3,11.6,15.8,13.3,25.7
			c0,6.8-0.1,13.6-0.1,20.4c0,0,0,0.1,0,0.1c-3.7,3-7.4,5.9-11.1,8.9c0,0-0.4,0.2-0.4,0.2C1150.5,273.5,1150.1,273.5,1149.7,273.6z"
			/>
		<path class="st3" d="M1212,303.7c1.9-0.1,3.7-0.1,5.6-0.2c3.1,2.2,6.2,2.4,9.2-0.3c0,0,0,0,0,0c3.7-0.9,8,2.2,11.2-1.8
			c5-9.4,15.1-12.7,26.7-8.2c7.7,3,15,6.7,22.6,12.6c-10.4,7.8-20.7,14.8-33.6,14.9c-6.6,0.1-13.5-2-15.7-10.1
			c-1.1-6.2-6-2.8-9.2-3.7C1223.3,305.3,1216.5,310.5,1212,303.7z"/>
		<path class="st3" d="M1002.8,260.8c-14.5-7-15.4-21.7-19.7-34.5c-0.9-2.7,1.1-3.2,3.1-2.7c12.7,2.7,25.1,5.8,33.8,16.7
			c5.1,6.4,2.8,13.3,2,20.2C1015.6,260.6,1009.2,260.7,1002.8,260.8z"/>
		<path class="st6" d="M1036,498c-4.5-0.4-2.5-5-4.5-7.1c-4.2-4.7-9.1-8.2-15.4-9.6c4.1-4-0.3-9.8,2.8-14.2
			c12.5,11,12.5,11,23.6,4.6c1.2,0.1,2.4,0.1,3.6,0.2c-1.1,1.5-2.5,2.8-3.2,4.4c-1.5,3.9-6.1,7.3-2,12.2c4.1,5,9,8.7,15.7,6.7
			c7.9-2.4,6.3-9.9,7.5-15.9c4,10.2,10.5,17.2,22.3,16.7c0.4,3.4-3,3.2-3.6,5.2c-2,2.4-3.9,4.8-5.9,7.2c-7.4,0-14.8,0-22.2,0
			C1050.1,502.4,1044.9,496.9,1036,498z"/>
		<path class="st6" d="M1253.3,501c-6.9-2.7-13.7-4.1-20.6,0c-2.9-3.1-5.6-6.3-8.6-9.2c-2.4-2.3-5-4.9-8.4-1.3
			c-2.3-8.9-9.2-13.8-16.1-18.6c0-4.7,0-9.4,0-16.8c7.6,9.2,13.9,16.9,23.8,7.5c0.8,0.7,1.5,1.4,2.3,2.1c-0.8,1.7-1.6,3.3-2.4,5
			c-1.8,3.7-3.6,7.1,0.9,10.5c3.5,2.6,5.7,8.3,11.2,6.4c4.6-1.6,4.9-6.5,5.1-10.9c1.6-1.2,3.2-1.4,4.9-0.2
			c-0.3,15.2,11.8,10.3,21,11.7C1261.3,492.3,1257.3,496.7,1253.3,501z"/>
		<path class="st3" d="M1217.7,321.7c9-4.2,17.8-1.7,23.3,7.5c4.9,8.1,8.3,16.9,9,27.1c-10-1-18.8-4-26.9-9
			c-9.3-5.8-11.9-14.5-7.6-23.4C1216.2,323.2,1217,322.5,1217.7,321.7z"/>
		<path class="st7" d="M1245.2,475.5c-1.7-1.3-3.3-1.1-4.9,0.2c-1.3-2.7-2.8-5.3-3.7-8.1c-2.3-6.7-5.8-8-11-2.8
			c-0.8-0.7-1.5-1.4-2.3-2.1c5.7-4.8,3.8-8.3-1.5-12c-19.7-14-42.1-20.4-65.4-25.1c-7.9-1.6-9.9,0.2-9.1,7.4
			c-1.1-1.8-2.2-3.6-3.3-5.4c-1.8-6.5-7.1-3.1-11-3.9c-4.1-1.8-8.5-1.2-12.8-1.2c2.6-5.4,10.6,1.1,12.7-5.6
			c33.3,2.7,65.5,9.3,93.2,29.7C1235.9,453.6,1243.4,462.7,1245.2,475.5z"/>
		<path class="st3" d="M1177.3,290.5c4.1-8.9,11.9-12.5,21.7-9.9c3.3,0.9,6.6,1.7,9.6,3.2c5.2,2.6,10.2,5.6,15.3,8.5
			c-8.6,10.1-25.6,16-36.9,13.1c-5.2-1.3-9-3.9-9.8-9.5C1177.2,294.1,1177.3,292.3,1177.3,290.5z"/>
		<path class="st3" d="M1132.3,208.6c-4-10-1.5-17.8,8.2-24.2c6.8-4.4,14.7-6,22.3-8.6c2.1-0.7,5.2-1.5,4.1,3.2
			c-2.2,9.6-4.5,19.2-11.2,26.7c-5.2,5.8-11.3,9.4-19.4,5.2C1135.6,209.2,1134,208.8,1132.3,208.6z"/>
		<path class="st3" d="M1192,231.1c-9.7-2.9-9.7-11.1-9.1-18.6c0.7-9,5.6-16.7,10-24.5c2-3.5,4.2-3.2,5.9,0.2
			c3.4,6.8,6.5,13.7,9.8,20.6c0,8.7,2.3,18.3-9.2,22.3C1197.1,231.1,1194.5,231.1,1192,231.1z"/>
		<path class="st3" d="M1213.7,207.3c9.2-4.3,16.2-0.5,21.6,6.7c6.1,8.2,9.2,17.7,10.4,28.1c-21.2-1.7-38.6-12.9-37.1-26
			C1212.4,214.4,1211.7,210.1,1213.7,207.3z"/>
		<path class="st7" d="M1219.7,257.3c-2,2.7-1.3,7.1-5.1,8.8c3.8-8.9-4.2-11.8-8.9-15.4c-5.2-4.1-7.1,2.8-9.7,5.3
			c-10.8,10.7-21.1,21.8-32.6,33.9c5.6,0.9,9.6,2.1,13.8,0.6c0,1.8,0,3.6,0,5.3c-7.5-0.8-14.9-0.7-22.1,2c-0.4-4.6-4.9-3.8-7.3-5.6
			c-1.5-6.4,2.1-12.3,1.9-18.7c0.4-0.1,0.7-0.1,1.1-0.1c0,5.4,0,10.9,0,17.4c7.4-3.4,11.1-9.1,15.8-13.4c6.6-6,12.7-12.4,19.4-18.2
			c9.2-8,8.8-17.8,5.9-28.2c2.5,0,5,0,7.6,0c-3.1,4.8-1.8,9.5,0.6,14.7c2.5-6.5,13.9-6.5,11.1-16.6c3.8,0.6,2.8,4.7,4.7,6.6
			C1205.9,244.9,1205,242.3,1219.7,257.3z"/>
		<path class="st3" d="M1010,290.3c2.7,9.1-1.7,15.3-8.6,20.3c-6.8,4.9-15,6.7-22.9,9c-2.1,0.6-5.9,1.3-4.7-2.9
			c3.3-11.3,5.4-23.4,16.3-30.8c2.9-1.9,5.7-3.7,9.3-2.8C1003,285.5,1006.5,287.9,1010,290.3z"/>
		<path class="st3" d="M1217.9,256.1c8.2-4,15.5-1.6,21.9,3.8c6.4,5.4,17.7,12.7,15,18.7c-3.2,7.3-15.8,3.9-24.4,3.6
			c-4.1-0.2-8.4-1.5-11.5-4.8C1216.2,270.4,1210.6,263.5,1217.9,256.1z"/>
		<path class="st3" d="M1195.9,350.1c-5.3-10-13.8-16-24.5-19.1c8.7-13.3,23.7-13.8,36.8-18c2.7-0.9,2.8,1.9,2.4,3.6
			C1207.4,328.5,1206.3,341.4,1195.9,350.1z"/>
		<path class="st7" d="M1023.5,275.2c2.7-2.5,5.6-1.2,8.5-0.3c2.8,0.8,5.5,1.1,6.3-2.8c10,1.4,19.2,5.5,28.7,8.3
			c2.9,1.3,2.7-0.1,1.9-2.1c-2.5-10.8-4.8-21.8-19.5-21.3c5.4,0,10.9,0,16.3-0.1c1.2,8.9,6.3,16.3,8.9,24.8c0.9,3,4.2,4.1,6.9,5.5
			c8.9,4.7,17.7,9.4,24,17.7c-1.7,1-2.2,2.6-2.4,4.4c-14.8-13.2-32.2-21.5-51-27.4c-5.7-1.8-7.1,0.3-7.9,4.9c-0.6-0.3-0.5-3-1.6-1.1
			c-1.1,1.8,0,4.6-2.1,6.3C1040.8,278.2,1040.8,278.2,1023.5,275.2z"/>
		<path class="st6" d="M1040.4,292.1c2.1-1.7,1-4.5,2.1-6.3c1.2-2,1,0.7,1.6,1.1c1.1,13,9.9,14.5,22.9,12.2
			c-5.5,5.9-9.1,9.7-12.8,13.6c-7.5,0-14.9,0-22.4,0c-4.1-3.4-8.2-6.9-13.5-11.3C1027.8,297.8,1038,303.9,1040.4,292.1z"/>
		<path class="st6" d="M1165.3,332.9c-8.2,3.4-15.1,8.1-17.9,17.2c-4.7,0-9.3,0-14,0c-0.3-0.8-0.5-1.6-0.8-2.4
			c1.4-1.1,2.8-2.2,4.3-3.2c9-5.9,5.9-12.2,0.8-18.6c-0.8-1-1.6-1.9-2.4-2.8c0.8-0.8,1.6-1.6,2.4-2.4c10,9.2,11.6,9.1,26.5-2.3
			C1164.5,323.6,1164.9,328.2,1165.3,332.9z"/>
		<path class="st7" d="M1211,338.5c4,9.6,12.5,7.1,19.9,7.4c-3.1,3-6.7,3.9-10.9,2.9c-5-1.2-5.1-1-8.9,3.9c2,2.1,4.7,0.2,6.9,1.1
			c4.5,6.8,11.4,1.6,16.9,3.2c3.2,0.9,8.1-2.5,9.2,3.7c-9.5-4.4-18.9-0.9-29.8-0.3c3.8,4.5,6.6,7.9,9.5,11.4
			c-0.7,0.7-1.4,1.5-2.2,2.2c-2-1.8-4.2-3.4-6.1-5.3c-5.4-5.9-11.5-9.3-19.7-6c0.1-1.9,0.2-3.8,0.2-5.7
			C1202.7,352.2,1213.6,350.8,1211,338.5z"/>
		<path class="st7" d="M1150.3,368.4c0,3.2,4.8,3.5,4.4,6.9c-12.4,6.1-23.8,13.6-32.9,24.2c-7.5-20.1-2.5-40.9-3.6-61.4
			c0.6,17.5,1.2,35.1,1.9,53.8c7.9-6.7,14.4-12.7,22.3-16.9C1145.1,373.5,1149.8,373.2,1150.3,368.4z"/>
		<path class="st8" d="M1211.3,229.2c2.8,10-8.6,10-11.1,16.6c-2.4-5.2-3.7-9.9-0.6-14.7c11.5-3.9,9.2-13.6,9.2-22.3
			c1.3,2.5,2.5,5,3.8,7.5c-0.6,1.8-1.2,3.7-1.8,5.5c0,1.8,0,3.6,0,5.5C1211,227.9,1211.1,228.6,1211.3,229.2z"/>
		<path class="st7" d="M1084.5,201.7c0.2-2.4-0.2-5.2,3.2-5.8c-2.1,3.6,0.6,5.3,2.7,7.5c5.5,5.5,12,9.8,16.5,16.3
			c-0.1,2-0.2,4-0.3,6.1C1099.3,217.7,1091.9,209.7,1084.5,201.7z"/>
		<path class="st7" d="M1005.5,463.8c-2-3.6-4-7.1-6-10.7c3,2.5,5.7,2.2,8.9,0c5.5-3.7,11.3-6.9,17-10.3c0.6,1,1.1,1.9,1.7,2.9
			c-5.9,3.5-11.6,7.3-17.8,10.3C1005.6,457.9,1004.6,460.2,1005.5,463.8z"/>
		<path class="st7" d="M1002.8,260.8c6.4-0.1,12.8-0.2,19.2-0.3c3.8,1.6,6.5,4.5,8.9,7.6c-4.9,0.4-9.6,7.9-14.7,0.4
			c2.2-0.8,4.8,1.1,6.9-1c-1.7-4-3.7-6.7-8.8-4.4C1010.2,264.9,1006.2,264.1,1002.8,260.8z"/>
		<path class="st7" d="M1132.3,208.6c1.7,0.2,3.3,0.6,4,2.4c-7.2,2.2-8.6,11.4-16.1,13.2c-0.7-1.3-1.4-2.6-2.1-4
			C1122.9,216.4,1127.6,212.5,1132.3,208.6z"/>
		<path class="st7" d="M947.6,486.7c0.8,4.3,4.2,3.6,7.2,3.6c9.4,0.1,18.8,0.1,28.2,0.1c-11,4.1-22.3,2-33.5,1.7
			C945.1,492,945.3,489.5,947.6,486.7z"/>
		<path class="st7" d="M1010,290.3c-3.5-2.4-7-4.8-10.5-7.2c7,3.2,10.5-2.2,14.7-6c0.9,0.8,1.8,1.6,2.8,2.4
			C1015.3,283.6,1008.2,284.1,1010,290.3z"/>
		<path class="st7" d="M1162.4,264.3c0-6.8,0.1-13.6,0.1-20.4C1166.6,250.7,1166.1,257.5,1162.4,264.3z"/>
		<path class="st9" d="M1121.5,508.9c3.2,2.4,6.4,4.9,9.6,7.3c-4-1-5.9,3.4-9.4,3.7C1121.6,516.3,1121.5,512.6,1121.5,508.9z"/>
		<path class="st7" d="M992,273.2c7.7-1.2,15.6-4.5,22.7,2C1007.3,272.9,999.6,273.7,992,273.2z"/>
		<path class="st7" d="M1120.2,416.1c-3.3-5.9-4.3-11.5,1.5-16.5C1119.5,404.9,1119.5,410.5,1120.2,416.1z"/>
		<path class="st7" d="M1151.2,273.2c3.7-3,7.4-5.9,11.1-8.9C1161,270.3,1156.4,272.1,1151.2,273.2z"/>
		<path class="st7" d="M1238,301.4c-3.2,4-7.5,0.9-11.2,1.8C1230.4,301.7,1234.6,303.8,1238,301.4z"/>
		<path class="st7" d="M1147.7,292.4c0,3.7,0.3,7.5-4.5,8.8C1144.8,298.3,1146.3,295.4,1147.7,292.4z"/>
		<path class="st7" d="M1226.8,303.3c-3,2.6-6.1,2.5-9.2,0.3C1220.7,303.4,1223.7,303.4,1226.8,303.3z"/>
		<path class="st7" d="M1147.7,305.4c0-2.5,1.2-3.8,3.8-3.9C1150.9,303.4,1149.6,304.7,1147.7,305.4z"/>
		<path class="st7" d="M1151.4,301.6c0.1-2.4,1.3-3.7,3.8-3.7C1154.6,299.8,1153.3,301,1151.4,301.6z"/>
		<path class="st7" d="M1012.4,268.3c-2.5,2.1-5,2.2-7.4-0.2C1007.5,268.2,1009.9,268.3,1012.4,268.3z"/>
		<path class="st7" d="M1018,278.9c0.2-2.3,1.6-3.3,3.8-3.3C1020.9,277.1,1019.8,278.4,1018,278.9z"/>
		<path class="st7" d="M1043.7,253.3c2.2,0,3.7,0.8,3.9,3.2C1045.7,256.2,1044.4,255.2,1043.7,253.3z"/>
		<path class="st7" d="M1142.1,301.9c-0.2,1.5-0.9,2.6-2.4,3C1140.4,303.9,1141.2,302.9,1142.1,301.9z"/>
		<path class="st10" d="M1106.7,590c5.1,0,10.2,0,15.2,0c0,0-0.1,0.3-0.1,0.3c0,0.6,0,1.2,0.2,1.8c-2.5,10.6,1.9,16.1,11.7,21.2
			c29.8,15.2,45.5,41.2,50.8,73.7c0.2,1.2,0.3,2.5,0.1,3.7c-0.4,2.6-1,5.2-2.2,7.8c-0.9-11.4-2.5-22.5-6.8-33.1
			c-8.9-21.5-24.1-36.8-45.1-46.6c-6.1-2.9-9.3-2.8-9.2,5.6c0.3,11.3-0.6,22.7-1.4,34.1c-0.5,7.2,0.8,12.6,8.5,15
			c1.9,0.6,4.1,1.6,3.8,4.4c-12.2-3.5-12.2-3.5-12.3,10.9c-0.1,11.4,0.2,22.8-0.3,34.2c-0.3,7.1,0.5,12.6,8.2,15.3
			c2.7,1,4.8,3.6,7.2,5.5c-0.3,0.3-0.6,0.5-0.8,0.8c-0.3,0-0.6,0-0.9-0.1c-15-5.7-15-5.7-15.1,11.2c-0.1,15.7-0.1,31.5-0.3,47.2
			c0,2.7,0.5,6.5-3.1,6.8c-4.6,0.4-3.9-3.9-3.9-6.8c-0.2-12.3-0.2-24.7-0.3-37c-0.1-10.1-1-10.6-9.6-5.6c-1.6,0.9-3.2,1.7-4.9,2.6
			c-0.3-0.3-0.5-0.6-0.8-0.8c0.6-2.3,2.5-3.8,4.4-4.5c10.5-3.8,12.2-11.6,10.7-21.3c-2.2-14.7-1.2-29.5-1.7-44
			c-3.3-1.9-5.4,2-8.1,0.8c-1.2-1.4-0.2-2.7,0.8-3c7-2.7,7.9-8.2,7.5-14.8c-0.7-13.5-1.1-27-1.3-40.4c-0.1-6.8-2.3-7.7-8.2-4.8
			c-32.7,16-49.3,42.4-51.5,78.3c-0.3,5.1,0,10.3-0.6,15.5c-7.8-39.6,13.3-81.9,50.6-100.7c7.1-3.6,10.5-7.2,9.3-15.2
			c-0.8-5.1-0.3-10.5-0.5-15.7c0.1-0.6,0.2-1.2,0.1-1.8L1106.7,590z"/>
		<path class="st8" d="M1061.1,371.7c1.1-1.9,2.7-3.1,4.8-3.6c5.5,0.3,10-2.7,14.5-5.2c13.6-7.7,17.3-18.8,11.2-31.9
			c3.8-3.8,7.9-7.4,11.5-11.4c3-3.3,5.1-1.6,7.2,0.8c-1,62.1-2,124.3-3,189.1c-16.8-16.2-31.8-30.7-46.8-45.2
			c-0.1-4.6-0.5-9.2-0.2-13.8c0.4-5.3-2.9-11.1,2.2-15.7c12.5-2.5,18.9-13.7,15.9-28.1C1075.7,393.5,1068.2,382.7,1061.1,371.7z"/>
		<path class="st8" d="M1054.2,312.6c3.6-3.9,7.3-7.8,12.8-13.6c-13,2.3-21.8,0.8-22.9-12.2c0.8-4.6,2.2-6.7,7.9-4.9
			c18.8,5.9,36.2,14.2,51,27.4c0,0.6,0.2,1,0.7,1.4c-3.7,9.6-12.1,16.9-19,16.4c-4.7-3.3-9.4-2.3-14,0.3
			C1067.1,320.2,1059.9,317.3,1054.2,312.6z"/>
		<path class="st8" d="M1150.3,368.4c-0.5,4.8-5.1,5.1-8,6.6c-7.9,4.2-14.4,10.2-22.3,16.9c-0.7-18.7-1.3-36.2-1.9-53.8
			c4.8-6,8.1-13.7,17-15c0.8,0.9,1.6,1.8,2.4,2.8c5.1,6.4,8.2,12.8-0.8,18.6c-1.5,1-2.8,2.1-4.3,3.2c0.3,0.8,0.5,1.6,0.8,2.4
			c4.7,0,9.3,0,14,0C1148,356.3,1145.4,362.9,1150.3,368.4z"/>
		<path class="st8" d="M1029,373.1c7.6,4.4,15.9,1.9,23.9,2.6c-1.2,2.1-2.4,4.2-3.7,6.4c-4.4,7.6-8.7,15.4-10.6,24.1
			c-2.5,11.6,2.6,28.6,16.2,28.7c4.7,7,0.4,14.9,2.3,22.2c-2.8,2.8-4.3-0.1-5.8-1.6c-7.1-6.8-13.6-14.3-21.3-20.3
			c-8.1-6.2-8.8-14.1-8.3-22.9c0.1-1.8-0.1-3.6,1.9-4.8c11.9-7.1,10.8-17.3,6.5-28.2C1029.2,377.4,1028.1,375.4,1029,373.1z"/>
		<path class="st8" d="M1005.5,463.8c-0.9-3.7,0.1-5.9,3.9-7.7c6.1-3,11.9-6.8,17.8-10.3c4.3,0.5,20.3,13.2,20.9,17
			c0.7,4.3-4.3,5.5-5.4,9c-11.1,6.3-11.1,6.3-23.6-4.7c-3.1,4.4,1.2,10.3-2.8,14.2c-4.3-0.2-8.7-0.5-13-0.7c0.2-5,5.1-9,3.2-14.5
			c-0.3-0.7-0.7-1.4-1-2.2L1005.5,463.8z"/>
		<path class="st8" d="M1064.3,479.4c-1.2,5.9,0.4,13.5-7.5,15.9c-6.7,2-11.6-1.7-15.7-6.7c-4.1-4.9,0.5-8.3,2-12.2
			c0.6-1.6,2.1-3,3.2-4.4c3.8-4.9,7.5-5,11.4,0.1C1059.6,474.7,1062,477,1064.3,479.4z"/>
		<path class="st8" d="M1120.2,422.3c4.3,0,8.7-0.6,12.8,1.2c-9.3-1.3-12.8,2.7-11.3,11.8c0.4,2.4,0.2,4.9,0.2,7.3
			c3.9,4.7,9.3,8.1,12.4,13.6c-5.6,1.1-9.5,5-13.7,8.4c-0.3-13.6-0.6-27.2-0.9-40.8C1120,423.3,1120.2,422.8,1120.2,422.3z"/>
		<path class="st7" d="M1084.7,327c6.8,0.5,15.3-6.7,19-16.4c1,4.1,6.5,5.1,6.7,9.7c-2.2-2.4-4.2-4.1-7.2-0.8
			c-3.6,4-7.6,7.6-11.5,11.4C1088.8,330.5,1086.3,329.6,1084.7,327z"/>
		<path class="st7" d="M1057,457c-1.9-7.3,2.5-15.2-2.3-22.2c2.6,0,5.3,0,7.9,0c-5.1,4.6-1.9,10.4-2.2,15.7
			c-0.3,4.6,0.1,9.2,0.2,13.8C1057.7,462.7,1059.6,458.8,1057,457z"/>
		<path class="st7" d="M1119.7,423.7c0.3,13.6,0.6,27.2,0.9,40.8c-0.8,0.2-1.5,0.4-2.3,0.6C1118.6,451.3,1116.1,437.4,1119.7,423.7z
			"/>
		<path class="st3" d="M1062.6,434.8c-2.6,0-5.3,0-7.9,0c-13.5-0.1-18.7-17.2-16.2-28.7c1.9-8.7,6.2-16.5,10.6-24.1
			c1.2-2.1,2.4-4.2,3.7-6.4c2.8-1.3,5.5-2.7,8.3-4c7.1,11,14.6,21.9,17.3,35C1081.5,421.1,1075.1,432.3,1062.6,434.8z"/>
		<path class="st3" d="M1084.7,327c1.6,2.6,4.2,3.5,7,4c6.1,13.1,2.4,24.2-11.2,31.9c-4.4,2.5-8.9,5.5-14.5,5.2
			c9.4-10.3,9.1-22.7,7.4-35.4c-0.3-2.1-0.5-4.3-2.8-5.4C1075.3,324.8,1079.9,323.8,1084.7,327z"/>
		<path class="st11" d="M1034.1,340.3c-5.1-0.2-8.2-2.6-8.7-7.7c-0.5-6.1,3.7-8.3,8.6-8.7c5.1-0.4,7.9,2.9,8,8.1
			C1042,337.2,1039.2,339.9,1034.1,340.3z"/>
		<path class="st11" d="M1056.7,519.9c5.8-0.5,8.9,3.2,8.9,8.2c0,4.6-3.6,8.3-8.4,8c-4.6-0.3-9.4-2.8-9.1-8.5
			C1048.4,523,1051.2,519.6,1056.7,519.9z"/>
		<path class="st8" d="M1147.3,432.8c-0.8-7.2,1.2-9,9.1-7.4c23.3,4.7,45.7,11.1,65.4,25.1c5.3,3.7,7.2,7.2,1.5,12
			c-9.9,9.4-16.3,1.7-23.8-7.5c0,7.4,0,12.1,0,16.8c-8.6,0.1-17.3,0.2-25.9,0.3c0,0-0.1-0.4-0.1-0.4c0.1-2.5-1.4-3.7-3.5-4.6
			c-2.9-6.1-7.8-9.5-14.2-10.9c3.8-4.4,7.7-8.8,12.1-13.8C1158.8,441.7,1149.1,445.1,1147.3,432.8z"/>
		<path class="st6" d="M1147.3,432.8c1.8,12.3,11.5,8.9,20.5,9.6c-4.4,5.1-8.3,9.4-12.1,13.8c-7.1-5-14.2-3.5-21.4-0.1
			c-3.1-5.5-8.5-8.9-12.4-13.6c19.5-1.4,19.5-1.4,22.1-15.2C1145.1,429.2,1146.2,431,1147.3,432.8z"/>
		<path class="st11" d="M1145.6,474.5c-1.7,4.6-4.3,8.2-9.7,8.3c-6,0.1-8.2-4.1-8.2-9c-0.1-6.1,4.9-7.2,9.6-7.6
			C1142.8,465.9,1144.2,470.2,1145.6,474.5z"/>
		<path class="st11" d="M1177.3,481.4c6-0.9,10.7,0.7,10.9,7.5c0.3,7.9-5.5,7.3-10.9,6.8C1177.4,491,1177.4,486.2,1177.3,481.4z"/>
		<path class="st5" d="M1169.9,467.2c2.1,0.8,3.6,2.1,3.5,4.6C1171.4,470.8,1170.3,469.3,1169.9,467.2z"/>
		<path class="st7" d="M1005.4,463.9c0.3,0.7,0.7,1.4,1,2.2C1006,465.4,1005.7,464.7,1005.4,463.9z"/>
		<path class="st11" d="M1010.6,496.8c-0.7,3.3-2.4,6.4-6.6,5.7c-3.4-0.5-6.6-2.5-5.9-6.8c0.6-3.9,3.1-5.8,7.2-5.4
			C1009,490.7,1010.6,492.9,1010.6,496.8z"/>
		<path class="st11" d="M1236.1,463.1c-0.3,4.7-2,6.9-5.7,6.8c-3.8-0.1-6.6-2.3-6.7-6c-0.2-4.5,3.4-5,7-5.1
			C1234.3,458.7,1236.3,460.3,1236.1,463.1z"/>
		<path class="st11" d="M1160.2,349.5c3.5-0.1,6,0.9,5.8,5c-0.1,4.1-2.2,6-6.2,6.2c-3.8,0.2-5.8-1.9-5.9-5.3
			C1153.9,351.5,1156.2,349.4,1160.2,349.5z"/>
		<path class="st8" d="M1219.6,414.6c5.3-5.2,8.7-3.9,11,2.8c1,2.8,2.5,5.4,3.7,8.1c-0.2,4.3-0.5,9.3-5.1,10.9
			c-5.4,1.9-7.6-3.7-11.2-6.4c-4.5-3.4-2.7-6.8-0.9-10.5C1218,418,1218.8,416.3,1219.6,414.6z"/>
		<path class="st0" d="M1144,427.4c-2.6,13.8-2.6,13.8-22.1,15.2c-0.1-2.4,0.2-4.9-0.2-7.3c-1.5-9.1,2.1-13.1,11.3-11.8
			C1136.8,424.3,1142.1,420.9,1144,427.4z"/>
		<path class="st0" d="M1068.9,278.3c0.8,2,1.1,3.4-1.9,2.1C1067.7,279.7,1068.3,279,1068.9,278.3z"/>
	</g>
	<g>
		<path class="st12" d="M342.9,141.3c-1,1.1-1.4,2.6-2.2,3.8c-3.1,4.7-6.7,9.1-10.6,13.1c-4.5,4.6-9.3,8.8-14.8,12.2
			c-3,1.8-6.2,3.2-9.6,3.5c-3.5,0.3-6.9-1.3-8.9-5.4c-1.4-2.8-2.2-5.8-2-9c0.1-2.8,0-5.7,0.1-8.5c0.1-2.9,0.7-5.6,1.9-8.2
			c1.2-2.5,3.2-3.9,6-4c3.6-0.1,6.9,0.9,10.2,1.8c2,0.5,4,1,6,1.3c4.5,0.8,9,1,13.5,0c2.4-0.6,4.8-1.4,7-2.6
			c1.1-0.6,2.2-0.7,3.4-0.6C342.9,139.6,342.9,140.4,342.9,141.3z"/>
		<path class="st12" d="M22.2,145.1c2.3-1.9,4.5-3.9,7-5.4c5.3-3.2,10.8-6,16.6-8.2c3.3-1.2,6.6-2.3,10-2.9c4-0.7,8.2-1.1,12.1,0.5
			c2.6,1,4.1,3.2,5,5.9c1.1,3.7,0.3,7.2-0.5,10.8c-0.9,3.9-1.9,7.6-3.4,11.3c-0.9,2.2-2.1,4.3-4,5.7c-2.4,1.7-5,1.4-7.5,0.1
			c-3.9-2.1-7.3-5-10.8-7.7c-4.4-3.4-9-6.4-14.4-8.1c-3.3-1-6.7-0.7-10.1-0.7C22.2,146,22.2,145.6,22.2,145.1z"/>
		<path class="st12" d="M180.6,13c7.5,5.4,13,12.5,18.1,20.1c2.1,3.1,3.9,6.4,5.4,9.9c1.5,3.4,2.1,7,1.5,10.7
			c-0.4,2.2-2,3.9-4.1,4.8c-3.8,1.6-7.8,1.7-11.8,0.9c-1.7-0.3-3.4-0.4-5-0.8c-3.8-0.8-7.7-1.6-11-3.8c-2.2-1.5-3.1-4.6-2.3-7.1
			c1.6-4.7,4.3-8.9,6.4-13.4c2.4-5.1,3.4-10.4,2.8-16c-0.2-1.8-1.2-3.5-1.2-5.3C179.8,13,180.2,13,180.6,13z"/>
		<path class="st12" d="M176.8,328.3c-5.3-6-9.7-12.5-13.2-19.7c-2-4.1-3.6-8.4-3.8-13.1c-0.2-3.3,0.3-6.6,3-8.9
			c1.9-1.6,4.2-2.6,6.7-2.8c3.9-0.3,7.7,0.4,11.5,1.1c3.2,0.5,6.3,1.1,9.1,2.7c4.1,2.3,3.9,4.5,2.4,7.8c-1.7,3.6-4.3,6.5-6.6,9.7
			c-2.5,3.5-4.9,7-6.3,11c-1.4,3.9-2.2,8.1-0.8,12.3C178,328.3,177.4,328.3,176.8,328.3z"/>
		<path class="st13" d="M88.3,220.2c-2.4-4.3-4.2-8.9-5.9-13.5c-1.2-3.2-2.1-6.4-2.9-9.6c-0.7-2.7-1.1-5.5-1.6-8.2
			c-1.3-6.8-1.3-13.7-1.3-20.5c0-4.1,0.2-8.1,0.9-12.1c0.9-5.2,2-10.4,3.5-15.5c2-6.8,4.8-13.3,8.1-19.6c2.5-4.7,5.5-9.2,8.8-13.5
			c4-5.3,8.5-10.1,13.4-14.6c7.1-6.4,14.8-11.7,23.3-16c5.3-2.7,10.8-4.9,16.6-6.6c4.6-1.4,9.3-2.3,14-3.2c8.9-1.7,17.9-1.4,26.9-1
			c5.9,0.3,11.8,1.5,17.6,3.1c11.5,3.2,22.2,8.1,32.1,14.9c6.8,4.7,12.9,10.1,18.5,16.2c0.3,0.4,0.7,0.7,0.6,1.2
			c-0.4,0.3-0.8,0.4-0.3,1.1c1.7,2.2,2.6,5,3.4,7.6c1.9,6.2,3.7,12.5,4.8,19c0.9,5.4,1.1,10.8,1.3,16.2c0.2,5.2-0.2,10.4-0.9,15.6
			c-0.3,1.8-0.1,3.7-0.7,5.3c-1.1,3-1.5,6.1-2.4,9.2c-0.8,2.8-1.8,5.7-2.9,8.4c-1,2.6-2.1,5.2-3.4,7.7c-2.2,4.4-4.7,8.5-7.2,12.7
			c-2.1,3.4-4.7,6.6-7.3,9.6c-2.6,3-4.9,6.2-8,8.7c-4.8,4-9.5,8.1-14.8,11.5c-4.9,3.2-10.1,5.8-15.3,8.4c-2.8,1.4-5.7,2.3-8.7,3.3
			c-3.3,1.1-6.6,2.1-9.9,2.9c-2.7,0.6-5.4,1.3-8.3,1.6c-3.8,0.4-7.7,1-11.6,1.1c-5.1,0.1-10.2,0.4-15.2-0.6
			c-2.3-0.4-4.7-0.3-6.9-0.8c-3.4-0.8-6.9-1.3-10.2-2.3c-4.1-1.2-8.2-2.3-12-4.1c-4.1-1.9-8.2-3.8-12.2-6.1
			c-2.4-1.4-4.8-2.9-7.1-4.4c-3.4-2.3-6.8-4.8-9.8-7.8c-1.1-1.1-2.6-1.8-3.5-3.2C90.7,221.2,89.7,220.4,88.3,220.2z"/>
		<path class="st14" d="M88.3,220.2c1.4,0.2,2.4,1,3.2,2.2c0.9,1.4,2.4,2.1,3.5,3.2c3,2.9,6.4,5.5,9.8,7.8c2.3,1.5,4.7,3,7.1,4.4
			c4,2.2,8.1,4.2,12.2,6.1c3.8,1.8,8,2.9,12,4.1c3.4,1,6.8,1.5,10.2,2.3c2.2,0.5,4.7,0.4,6.9,0.8c5.1,1,10.2,0.6,15.2,0.6
			c3.9,0,7.7-0.7,11.6-1.1c2.8-0.3,5.6-0.9,8.3-1.6c3.3-0.8,6.6-1.7,9.9-2.9c2.9-1,5.9-2,8.7-3.3c5.2-2.6,10.4-5.2,15.3-8.4
			c5.3-3.4,10-7.6,14.8-11.5c3-2.5,5.4-5.7,8-8.7c2.6-3.1,5.2-6.2,7.3-9.6c2.5-4.1,5.1-8.3,7.2-12.7c1.2-2.5,2.4-5.1,3.4-7.7
			c1.1-2.7,2-5.6,2.9-8.4c0.9-3,1.3-6.2,2.4-9.2c0.6-1.6,0.5-3.5,0.7-5.3c0.7-5.2,1.1-10.4,0.9-15.6c-0.2-5.4-0.5-10.8-1.3-16.2
			c-1-6.5-2.8-12.8-4.8-19c-0.8-2.6-1.6-5.3-3.4-7.6c-0.5-0.6-0.1-0.8,0.3-1.1c2,0.9,3,2.9,4.3,4.5c5,6.4,9.3,13.3,12.7,20.6
			c2.2,4.8,4.1,9.8,5.6,14.9c2,7,3.3,14,3.9,21.2c0.4,4.1,0.6,8.2,0.4,12.3c-0.3,4.9-0.8,9.8-1.6,14.7c-0.7,4.1-1.7,8.2-2.8,12.2
			c-1.1,3.6-2.4,7.2-3.9,10.7c-1.7,4.2-3.8,8.2-6.2,12.1c-2.3,4-4.9,7.7-7.7,11.3c-3.3,4.3-6.8,8.3-10.8,11.9
			c-9,8.4-19.1,15.2-30.5,20.1c-5.2,2.3-10.6,4.1-16.1,5.5c-4,1-8,1.8-12.2,2.2c-5.2,0.5-10.4,1.3-15.6,1c-4.9-0.2-9.9-0.5-14.8-1.3
			c-6.4-1.1-12.6-2.6-18.7-4.8c-9.5-3.4-18.3-8-26.5-13.8c-6.8-4.9-12.9-10.6-18.4-16.9C96.5,234.1,91.9,227.5,88.3,220.2z"/>
		<path class="st12" d="M41.4,84.2c5.5-0.1,10.4,0.8,15.3,1.8c6.3,1.3,12.3,3.2,18.2,5.9c3.4,1.5,6.6,3.3,9.5,5.7
			c2.1,1.7,3.6,3.8,4.4,6.4c0.5,1.4-0.1,2.8-0.9,4.1c-2.4,4.1-5.3,7.8-9.2,10.5c-4.4,3.1-9.3,3.8-14.5,2.5
			c-7.8-2-13.5-7.2-18.9-12.7c-5.4-5.5-9.9-11.6-14.2-17.9c-0.4-0.5-0.7-1-1.1-1.5c-1.1-1.3-0.9-1.9,0.6-2.6c2.7-1.3,5.6-2,8.7-2
			C40.1,84.2,41,84.2,41.4,84.2z"/>
		<path class="st12" d="M65.6,53c1.7-0.8,3.2-0.6,4.7-0.5c3,0.3,6,0.5,9,1c2.8,0.5,5.6,1,8.4,1.6c2.3,0.5,4.5,0.9,6.8,1.5
			c7.2,1.9,14.2,4.3,20.4,8.5c2.4,1.6,4.2,4,4.7,7c0.3,1.9-0.7,3.5-1.6,5.1c-1.7,2.7-4.3,4.5-6.6,6.5c-3,2.5-6.1,4.9-9.6,6.6
			c-2.6,1.3-5.3,1.9-8.1,1.6c-2-0.3-3.7-1.2-5-2.7c-1.7-2-3-4.4-4.2-6.8c-2.3-4.8-3.9-9.9-6.3-14.7c-2.7-5.6-5.9-10.7-11.5-13.8
			C66.3,53.7,66.1,53.4,65.6,53z"/>
		<path class="st12" d="M297.5,100.2c3.3,0,6.5,0.2,9.7,0c5.6-0.4,10.8-2.2,15.2-6c0.7-0.6,1.5-1.8,2.6-1.2c1.2,0.7,0.7,2.1,0.4,3.1
			c-0.7,3.2-1.9,6.3-3.3,9.3c-2.5,5.6-5.5,10.9-9.1,15.8c-3.1,4.2-6.5,8.1-11.2,10.7c-5.9,3.3-11.1,1.6-14.8-3.7
			c-2.7-3.7-4.3-7.9-5.7-12.2c-1.1-3.1-2-6.3-1.9-9.7c0.1-2.7,2.5-4.9,5-5.6C288.8,99.7,293.2,100.6,297.5,100.2z"/>
		<path class="st12" d="M122.9,48.4c0-3.1,0.1-5.8,0-8.5c-0.3-6.5-2.1-12.6-6.4-17.7c-0.3-0.4-1-0.8-0.6-1.3
			c0.4-0.5,0.9-0.1,1.5,0.1c7.6,3,14.5,7.3,21.2,11.9c4.4,3,8.4,6.3,12.2,10c3,2.9,5.7,6.1,7.2,10.2c1.3,3.5-0.6,7.5-4.3,9.4
			c-3.2,1.6-6.6,2.4-9.9,3.3c-3.6,1-7.3,1.9-11.1,1.7c-5-0.1-8.2-2.3-9.3-7.4C122.6,56,123.2,52,122.9,48.4z"/>
		<path class="st12" d="M43.6,261.2c-0.8-2.4,0-4.6,0.6-6.6c1.2-4.2,2.6-8.4,4.3-12.5c3.5-8.3,7.4-16.3,13.5-23
			c1.8-2,3.9-3.7,6.5-4.5c2.2-0.7,4.4-0.5,6.5,0.9c3.1,2.1,4.7,5.2,6.3,8.4c1.7,3.4,3.3,6.8,4.2,10.4c0.7,2.9,1.5,5.9,0.2,8.9
			c-1,2.3-2.8,3.7-5.1,4.5c-3.5,1.2-7.1,1.6-10.7,2.1c-5.2,0.7-10.4,1.4-15.3,3.6c-3.7,1.6-6.8,3.7-9.5,6.7
			C44.6,260.4,44.1,260.8,43.6,261.2z"/>
		<path class="st12" d="M81.9,284.8c-0.4-5.1,0-10,0.7-14.9c0.8-5.2,1.7-10.5,4.5-15.2c2-3.4,4.2-5.6,8.9-5.1c1.7,0.2,3.3,1,4.7,2
			c4.1,2.9,7.5,6.5,10.8,10.3c1.1,1.4,2.3,2.8,3,4.3c2.7,5.5,1.6,8.6-3.7,12.2c-4,2.7-8.6,4.6-12.8,7.1c-4.2,2.5-8,5.4-10.7,9.6
			c-0.9,1.4-1.9,2.9-2.3,4.6c-0.1,0.5-0.4,1.3-1,1.2c-0.5,0-0.7-0.7-0.9-1.2c-0.7-2.3-1-4.8-1.2-7.2C81.7,290,81.9,287.3,81.9,284.8
			z"/>
		<path class="st12" d="M128.5,325.5c-1.9-2.9-2.9-5.8-3.7-8.7c-0.8-2.7-1.6-5.4-2.3-8.1c-0.6-2.6-1-5.2-1.6-7.8
			c-0.8-3.7-0.8-7.5-0.9-11.3c-0.1-3.9,0.1-7.8,2.1-11.4c1.5-2.6,3.5-4.1,6.6-4.3c3.6-0.2,6.8,1.1,9.9,2.6c4.1,1.9,8,4,11.4,7.1
			c1.9,1.8,3.2,3.8,2.9,6.5c-0.2,1.5-0.9,2.6-1.7,3.8c-2.7,3.7-6.4,6.5-9.7,9.6c-4.6,4.2-9,8.6-11.4,14.5
			C129.3,320.2,128.9,322.7,128.5,325.5z"/>
		<path class="st12" d="M284.6,65c-0.2,6.3-0.6,11.1-1.4,15.9c-0.7,3.7-1.8,7.3-3.6,10.6c-3.1,5.7-8.6,6.2-13.6,3.3
			c-4.5-2.6-7.5-6.7-10.9-10.5c-1.9-2.2-3.6-4.6-4.7-7.4c-1.3-3.4-0.2-6.5,3.2-8c3.9-1.8,8.1-2.9,12.1-4.5
			c6.1-2.4,11.6-5.7,14.4-12.1c0.3-0.7,0.6-1.9,1.5-1.8c1,0.1,1.2,1.4,1.4,2.2c0.3,1.2,0.7,2.4,0.7,3.6
			C283.8,59.6,284.8,63,284.6,65z"/>
		<path class="st12" d="M70.3,189.5c0,3.5,0.1,6.7-0.7,9.8c-0.8,3.2-1.6,6.4-5.1,7.7c-2.1,0.8-4.3,0.6-6.4,0.1
			c-2.9-0.7-5.8-1.4-8.6-2.4c-2.9-1-5.9-1.3-8.9-1.6c-3.8-0.3-7.5,0.4-11,1.9c-0.8,0.3-1.5,0.7-2.3,1.1c-0.4,0.2-0.7,0.7-1.1,0.3
			c-0.4-0.4-0.3-1-0.1-1.5c0.7-1.7,1.7-3.1,2.8-4.6c4.2-6,9.1-11.4,14.5-16.3c3.9-3.6,8.1-6.9,13-9.1c2.7-1.2,5.6-1.9,8.6-0.5
			c2.8,1.2,3.7,3.8,4.6,6.4C70.7,183.7,70.1,186.8,70.3,189.5z"/>
		<path class="st12" d="M302.9,215.7c-2.8,0.3-5.6-0.3-8.1-1.9c-1.7-1.1-2.6-2.8-3.3-4.8c-1.5-4.7,0-9,1.7-13.2
			c1.5-3.7,3-7.3,5.4-10.5c0.9-1.2,1.9-2.3,3.4-2.9c2.2-0.9,3.9,0,5.6,1.2c3.6,2.4,6.2,5.7,9.3,8.7c3,2.9,6.2,5.4,10,7.2
			c2.7,1.2,5.6,1.8,8.6,1.7c0.5,0,1.2-0.3,1.5,0.5c0.2,0.7-0.2,1.2-0.7,1.6c-2.6,2.3-5.7,3.9-8.8,5.4c-3.8,2-7.8,3.7-12,4.9
			C311.6,214.8,307.4,216,302.9,215.7z"/>
		<path class="st12" d="M221,64.3c-1.7-1.6-3.6-3.1-5.3-4.8c-1.2-1.3-1.9-2.8-2.3-4.4c-0.5-1.9,0.5-3.4,1.6-4.9
			c2.4-3.1,5.6-5.3,8.6-7.7c4.8-4,9.1-8.4,11.3-14.4c0.5-1.4,1.1-2.9,0.9-4.5c-0.1-0.6,0.3-1.3,0.7-1.5c0.6-0.1,0.9,0.6,1.1,1.1
			c1.4,2.6,2.2,5.4,3,8.2c1.1,3.8,1.9,7.8,2.6,11.7c0.9,4.7,0.9,9.4,0.8,14.1c-0.1,3.4-0.8,6.7-2.6,9.6c-1.1,1.9-2.9,2.9-5.1,3.2
			c-4.4,0.7-8.1-1.1-11.6-3.5c-0.6-0.4-1.2-0.9-1.9-1C222.6,64.7,222,64.3,221,64.3z"/>
		<path class="st12" d="M202.8,289.1c0-4.7,2.1-6.7,4.5-8.6c0.6-0.4,1.3-0.8,1.9-1.2c2.1-1.5,4.2-0.2,6.2,0.2
			c2.3,0.4,4.6,1.1,6.9,1.7c2.6,0.7,5.1,1.4,7.5,2.7c1.4,0.8,1.5,2.2,0.5,3.7c-1.3,1.9-2.9,3.7-3.7,5.9c-0.9,2.4-1.2,4.8-0.7,7.5
			c0.9,4.4,2.9,8.2,5.4,11.8c0.2,0.3,0.6,0.8,0.1,1.3c-0.4,0.5-0.8,0.1-1.2,0c-4.3-1.2-7.9-3.7-11.5-6.2c-4-2.7-7.7-5.9-10.9-9.6
			C205.1,295.3,202.9,292,202.8,289.1z"/>
		<path class="st12" d="M297.7,254.2c-3.7,0.1-7.5,0-11.1-0.8c-3.8-0.8-7.7-1.7-10.9-4c-4.2-3-5.3-6.7-3.1-12.2
			c0.7-1.8,1.9-2.9,3.7-3.5c4.7-1.4,9.2-3.7,14.2-4.1c2.9-0.3,3.4,0.4,3.3,2.9c-0.1,2.1-0.1,4.2,0.3,6.4c0.7,3.8,2.9,6.6,5.8,8.9
			c2.3,1.8,4.9,3.1,7.5,4.4c0.4,0.2,0.9,0.1,0.8,0.8c-0.1,0.6-0.6,0.5-1,0.6C304.1,254.6,300.9,254,297.7,254.2z"/>
		<path class="st12" d="M256.5,260.6c2.2,0,4.5-0.1,6.7,0c2.8,0.1,3.6,1.5,2.9,4.2c-1,3.6-1.8,7.3-0.2,11c1.3,3.2,3.6,5.5,6.1,7.8
			c0.6,0.5,1.2,1,1.8,1.5c0.3,0.3,0.8,0.5,0.6,1c-0.2,0.5-0.5,0.6-1,0.6c-2.1-0.1-4.2-0.5-6.2-0.9c-2-0.4-4-0.9-5.9-1.5
			c-6.2-2-12.2-4.2-16.9-9.1c-3-3.2-3.3-7.3-0.5-10.9c0.4-0.5,0.9-1.1,1.2-1.6c1.1-1.6,2.8-2,4.6-2
			C251.9,260.7,254.2,260.7,256.5,260.6C256.5,260.7,256.5,260.6,256.5,260.6z"/>
		<path class="st15" d="M221,64.3c0.9,0,1.6,0.4,1.9,1.3c-0.1,0.3-0.1,0.8-0.5,0.4C221.9,65.5,221.1,65.1,221,64.3z"/>
	</g>
	<text transform="matrix(1 0 0 1 473 190.52)" class="st16 st17">Sun Light</text>
	<g>
		<path class="st18" d="M938,418l4.9,34.2c0.3,2-2.3,3.1-3.6,1.5C871.4,366.9,732,386,732,386"/>
		<line class="st18" x1="943.1" y1="453.6" x2="903.8" y2="457.2"/>
	</g>
	<g>
		<path class="st18" d="M1355.5,176.1l4.8,33.5c0.3,2-2.2,3-3.4,1.5c-66.3-84.8-202.3-66.1-202.3-66.1"/>
		<line class="st18" x1="1356.9" y1="211" x2="1322.2" y2="214.4"/>
	</g>
	<g>
		<path class="st19" d="M1017.5,766.3l5.1-46.7c0.2-1.4-1.8-2.1-2.5-0.8c-65.8,112.6-203.6,88.1-203.6,88.1"/>
		<line class="st19" x1="1021.3" y1="719.3" x2="984.2" y2="716.6"/>
	</g>
	<g>
		<path class="st18" d="M936,204l6.5,43.5c0,0.3-0.3,0.5-0.5,0.2C875.6,154.8,730,172,730,172"/>
		<line class="st18" x1="942.3" y1="248.3" x2="903.8" y2="243.2"/>
	</g>
	<circle class="st20" cx="396" cy="346" r="30"/>
	<circle class="st20" cx="542" cy="272" r="30"/>
	<path class="st0" d="M910,696.4c0,7.8-4.4,14.1-9.8,14.1c-5.4,0-9.8-6.3-9.8-14.1s9.8-16.9,9.8-16.9S910,688.6,910,696.4z"/>
	<path class="st0" d="M1012,654.9c0,7.8-4.4,14.1-9.8,14.1c-5.4,0-9.8-6.3-9.8-14.1s9.8-16.9,9.8-16.9S1012,647.1,1012,654.9z"/>
	<path class="st0" d="M1070.5,758.4c0,7.8-4.4,14.1-9.8,14.1s-9.8-6.3-9.8-14.1s9.8-16.9,9.8-16.9S1070.5,750.6,1070.5,758.4z"/>
	<path class="st0" d="M1189.5,732.9c0,7.8-4.4,14.1-9.8,14.1s-9.8-6.3-9.8-14.1s9.8-16.9,9.8-16.9S1189.5,725.1,1189.5,732.9z"/>
	<path class="st0" d="M1234,644.4c0,7.8-4.4,14.1-9.8,14.1s-9.8-6.3-9.8-14.1s9.8-16.9,9.8-16.9S1234,636.6,1234,644.4z"/>
	<path class="st0" d="M1182,814.9c0,7.8-4.4,14.1-9.8,14.1s-9.8-6.3-9.8-14.1s9.8-16.9,9.8-16.9S1182,807.1,1182,814.9z"/>
	<path class="st0" d="M1019,828.4c0,7.8-4.4,14.1-9.8,14.1c-5.4,0-9.8-6.3-9.8-14.1s9.8-16.9,9.8-16.9S1019,820.6,1019,828.4z"/>
	<path class="st0" d="M1311,789.9c0,7.8-4.4,14.1-9.8,14.1s-9.8-6.3-9.8-14.1s9.8-16.9,9.8-16.9S1311,782.1,1311,789.9z"/>
	<path class="st0" d="M1265,706.9c0,7.8-4.4,14.1-9.8,14.1s-9.8-6.3-9.8-14.1s9.8-16.9,9.8-16.9S1265,699.1,1265,706.9z"/>
	<circle class="st20" cx="1364" cy="260" r="30"/>
	<circle class="st20" cx="566.1" cy="377.1" r="30"/>
	<text transform="matrix(1 0 0 1 612.5928 392.8843)"><tspan x="0" y="0" class="st16 st17">CO</tspan><tspan x="77" y="0" class="st16 st21">2</tspan></text>
	<text transform="matrix(1 0 0 1 690.2811 815.0864)"><tspan x="0" y="0" class="st22 st23 st17">H</tspan><tspan x="42.2" y="0" class="st22 st23 st21">2</tspan><tspan x="66.7" y="0" class="st22 st23 st24">O</tspan></text>
	<text transform="matrix(1 0 0 1 1405.5928 278.8843)"><tspan x="0" y="0" class="st16 st17">O</tspan><tspan x="43.9" y="0" class="st16 st21">2</tspan></text>
	<path class="st25" d="M1301.3,108H944.8c-5.9,0-10.8-4.8-10.8-10.8V48.8c0-5.9,4.8-10.8,10.8-10.8h356.5c5.9,0,10.8,4.8,10.8,10.8
		v48.5C1312,103.2,1307.2,108,1301.3,108z"/>
	<text transform="matrix(1 0 0 1 956 87.1201)" class="st16 st26">Makes Glucose</text>
</g>
</svg>
