<?xml version="1.0" encoding="utf-8"?>
<!-- Generator: Adobe Illustrator 19.1.0, SVG Export Plug-In . SVG Version: 6.00 Build 0)  -->
<svg version="1.1" xmlns="http://www.w3.org/2000/svg" xmlns:xlink="http://www.w3.org/1999/xlink" x="0px" y="0px"
	 viewBox="0 0 612 792" style="enable-background:new 0 0 612 792;" xml:space="preserve">
<style type="text/css">
	.st0{fill:#FBDBA4;}
	.st1{fill:#FCFBFA;}
	.st2{fill:#D4762D;}
	.st3{fill:#37281F;}
	.st4{fill:#A86434;}
	.st5{fill:#EC8C2D;}
</style>
<g id="Layer_3">
	<path class="st0" d="M306.5,250.8c0,0-23.7,23.7,4.2,53.2c0,0,12.3-28.8,9.8-42.8C320.5,261.2,317.5,248.8,306.5,250.8z"/>
	<path class="st1" d="M304,254.5c0,0-19.2,19.2,3.4,43.1c2.1,2.7,12.3-20.4,8-34.7C315.3,262.9,312.9,252.9,304,254.5z"/>
	<path class="st1" d="M201.6,287.3c-10.3-5.9-9.4-15.8-9.1-25.5c1.4-0.6,1.5-2,1.9-3.1c4.1-10.4,19.6-15.7,28-4.2
		c0.8,1,1.6,2,3.1,1.8c1.5,6.9,4.5,13.5,3.9,20.9c-0.4,4.5-1.1,9.5-4.6,12.3c-5.8,0.7,1.3,8.7-4.6,9.4c-1.2-0.7-16-10.1-17.2-10.8
		 M201.1,262.9"/>
</g>
<g id="Layer_1">
	<path class="st2" d="M99.4,203.6c-2.3-2.5-6.1-3.3-7.9-6.4c0-1.1,0-2.1-1-2.9c-7.1-5.9-12.4-13.5-17.6-20.9
		c-5.9-8.3-10.7-17.6-11.8-28.2c-0.3-2.9-0.7-5.2-4.4-3.1c0-1.4,0-2.9,0-4.3c4.3-1.3,3.4-6.5,6.4-8.7c2.7,3.1,1.9,7,2.3,10.6
		c0.7,6,2.6,11.7,6.5,16.5l0,0c-1,4.5,1.8,7.2,4.5,10.1l-0.1,0.3c0.2,0.9,0.7,1.4,1.6,1.5h0.3c0.5,0.7,1,1.4,1.4,2.2l0,0
		c1.8,3.2,3.5,6.4,5.3,9.6c1.9,3.4,4.8,5.4,8.8,5.6c-0.1,0.5-0.5,1.3-0.4,1.5c4.1,3.6,5.6,9.4,12.1,11.3c7.3,2.1,13.2,7.8,20.6,10.5
		c9.2,3.4,18.2,7.2,27.3,10.9c1.5,0.6,2.9,1.4,3.4,3.2c1.5,5.9,3.1,11.7,1.1,18c-3.1,9.8-5.3,19.8-5.3,30.1c0,10,0.9,19.9,2.8,29.8
		c2.5,12.9,9.2,23,17.4,32.1c10.4,11.4,24.4,17.3,39.3,21c7.8,2,16.1,1.9,23.5,5.5c1.3,0.6,3.8-0.1,3.6,2.2c-0.1,2.3-2.6,1-3.8,1.9
		c-5-3-10.6-3.1-16.1-3.7c-9.5-1-18.5-4.4-27.6-7.3c-0.7-0.4-1.4-0.7-2.2-1.1c-2.2-1.7-4.7-3-7.5-3.4c-1.6-2.6-3.8-4.3-6.6-5.3
		c-1.5-1.8-2.8-3.9-5.4-4.4c-0.3-0.4-0.7-0.7-1-1.1c-0.3-1.9-1.4-3-3.3-3.3c-0.4-0.4-0.7-0.7-1.1-1.1c-0.4-0.4-0.7-0.7-1.1-1.1
		c-0.1-3.3-1.8-5.7-4.4-7.6c-0.4-0.3-0.7-0.7-1.1-1c-0.8-4.6-3.7-8.4-4.8-12.8c-0.8-3.2-1.1-6.7-4-9c-1.9-5.2-3-10.5-2.2-16
		c0.3-3,1.3-5.9,1.2-9c-0.6-10.7,0.7-21.2,4.1-31.5c1.3-4.1,2.9-8.3,2.5-13c-0.5-6.1-1-6.8-7.2-5.4c-0.8-0.8-1.7-1-2.7-0.9
		c-4-1.8-7.9-4.4-12.1-5.2c-9.2-1.8-16.4-6.7-23.9-11.8C105.7,206.9,103.6,203.3,99.4,203.6z"/>
	<path class="st3" d="M71.1,74.3c-0.2,1.3,15.2,0.8,16.5,1.2c21.6,2.8,39.4,20.4,52.2,39.7c-3-0.8-5.9-1.7-8.9-2.5
		c-7.8-3.5-15.8-6.6-24.1-8.5c-1.4-1.7-3.1-1-4.8-0.5c-6-4.5-12-9-18.5-12.9c-4-2.4-5.6-1.5-7.4,2.5c-3.6,7.7-6.1,15.7-7.4,24.1
		c-1.5,2.2-3.5,4.1-3.2,7.1c-1.5,1.3-2.2,2.8-2.3,4.7c-3.1,2.2-2.2,7.4-6.4,8.7v-15.3c0-6.4,0.5-12.9,2-19.2c0-0.2,0.1-0.3,0.1-0.5
		C60.9,92.5,63.4,82.3,71.1,74.3"/>
	<path class="st4" d="M56.8,142.2c3.7-2.1,4.1,0.1,4.4,3.1c1.1,10.6,6,19.9,11.8,28.2c5.2,7.3,10.5,15,17.6,20.9c1,0.8,1,1.8,1,2.9
		c-14.9-12.9-26.6-27.9-31.7-47.4c-0.5-1.8,0.9-5.3-3-5.5C56.8,143.7,56.8,142.9,56.8,142.2z"/>
	<path class="st5" d="M406.4,418.9c2.3-0.8,4.1,1.3,6.2,1.1c0.5,2.1,2.4,1.7,3.8,2.2c16.2,5.1,32,10.9,44.1,23.7
		c-0.3,3.4,3,4.3,4.7,6.2c11.2,13.2,21.1,27.3,27.9,43.3c3.6,8.4,6.3,17.1,5.4,26.6c-0.8,7.6-5.6,12.3-12,10.8
		c-0.2-1.1-0.5-2.1-1.9-1.9c-0.3,0.1-0.9,0.8-0.8,1c0.5,1.3,1.7,0.8,2.6,1c0.6,3,3.1,4.1,5.3,5.4c0.4,0.3,0.8,0.7,1.2,1
		c-1.7,2.3,0.6,3.5,1.5,5c4.8,7.7,8,15.9,4.9,25c-2.9,8.3-10.8,11-23.5,9.9c-10.7-1-21.3-2-32.2-1.1c-15.9,1.3-31.9,2.1-47.8,3.3
		c-19.3,1.5-38.7,2.7-57.8,5.7c-9,1.4-18.1,2.1-26.6,6.1c-8,3.8-16.2,3.6-24.2-1.4c-4.8-3-8.3-1.8-11.3,2.8c-4.4-6-8.9-12-13.3-18.1
		c0.5-1.5,0.9-3,1.4-4.6c1.4-0.8,2.5-1.9,3.2-3.4l0,0c1.5-0.1,2.6-0.8,3.2-2.2l0,0c6.8-4.2,14.5-5.1,22.2-5.3
		c24.8-0.7,49.7,0.7,74.5-1.1c15.1-1.1,30.2,1.7,45.3,0.9c6.5,0,12.9,0,19.4,0c0-0.3,0-0.7,0-1c-6.4,0-12.9,0-19.3,0
		c-8.5,0.2-16.9-0.7-25.3-1.8c-10.6-1.4-20.5-5.4-30-10.2l0,0c-1.6-2.3-3.6-4.1-6.5-4.3l0,0c0-2.3-1.8-3.3-3.3-4.5
		c-0.3-0.3-0.5-0.6-0.8-0.8c-0.5-0.4-0.9-0.8-1.4-1.1l0,0c-0.1-1.3-0.7-2.3-2.2-2.2l0,0c-0.2-3.8-2.2-6.8-4.3-9.8l0,0
		c-3.8-14.3-2.7-28,4.5-41.1c1.9-1.5,3.1-3.5,4.2-5.6c1.4-0.5,2.1-1.7,2.5-3c6.3-4.2,12.6-8.2,20.1-10.1c16.2-4.1,32.2-2.4,48.1,1.7
		c7.2,1.8,14.3,4,21.4,5.9c-0.5-1.2-1.2-1.7-2-2.1c-20.1-8-40.8-12.1-62.4-8.6c-9.7,1.6-18.9,4.9-25.7,12.7c-1.2,0.8-2.4,1.7-2,3.4
		c-3.3,0.2-4.1,2.6-4.7,5.1c-1.6,0.4-2,1.9-2.7,3.2c-4.9,9.7-6.2,20-4.5,30.7c0.2,5.2,0,10.4,0.8,15.5c0.6,3.9,4.6,7.8,2.5,11.6
		c-2,3.7-7.4,3.1-11.1,5c-0.8,0.4-1.7,0.4-2.6,0.6c-14.2,3.3-28.7,1.8-43,3.1c-6.5,0.6-12.8,1.7-19.2,2.9c-2.1,0.4-4,1.3-5.4,3.3
		c-8.5,11.6-21,16.8-34.4,18.7c-14,2-28.3,2.3-42.5,2.7c-10.2,0.3-20.6,1.3-28.8,9.7c-5.9,6-15.6,5.7-21.7,1.1
		c-4.5-1.7-4.9-6.1-6.4-9.8c-1.5-3.5-0.3-7.5-0.8-10.8c-0.7-4.3,0.5-7.4,1.8-10.9c1.4-3.7,4.8-5.7,6.7-8.9l0,0
		c0.9,0,1.7-0.3,2.2-1.1l0,0c0.4-0.4,0.7-0.7,1.1-1.1l0,0c0.9-0.1,1.7-0.2,2.2-1.1l0,0c5.5-1.6,11.1-1.6,16.6-1.2
		c9.9,0.8,19.3-1.2,28.7-4.1c3.3-1,6.6-1.6,10-2.4c20.1-4,40.4-5.5,60.8-6.9c-11.7-1.4-23.4-0.2-35,0.9c-9.8,0.9-19.6,1.7-29,4.9
		c-3.5,0.1-7.1,0.2-10.6,0.3c-2-1.6-3.3-3.7-4.7-5.8c-5.5-8.6-10.8-17.3-16.5-25.8c-5.2-7.7-13.2-7.4-18.2,0.6
		c-0.9,1.5-1.6,3.2-2.4,4.8c-2.7-5.3-5.8-10.4-7.8-16.2c-1.3-3.6-1.4-8.2-4.9-10.9c-2.1-8.7-0.1-17.8-2-26.6c0-0.5,0-1.1,0-1.6
		c3.7-4.8,1.9-10.8,3.4-16.1c-0.6-1.5-1.7-2.9-0.1-4.5c2.3-0.1,2.6-1.6,3-3.6c0.8-4.9,1.3-10.1,3.2-14.5
		c4.8-10.8,5.8-22.8,11.6-33.3c0.4-0.7-0.5-2-0.7-3c-0.8-3.3,1.6-5.7,2.5-8.5c5-6,5.9-13.9,6.8-20.8c1.2-8.9,3.6-17.9,2.9-27.1
		c5.8,13.8,16.2,23.4,29.4,29.7c14.2,6.9,29.7,8.7,45.3,9.4c0.1,0.7,0.1,1.5,0.2,2.2c-0.1,1.7-0.2,3.5-0.3,5.2
		c-1.1,0.7-1.9,1.7-1.9,3.1c0,7,0,13.9,0,20.9c0,1.3,0.7,2,2,2c1,2.7-1,5.7,1.1,8.3c-0.5,7.7,2.7,13.9,7.7,19.4
		c0.3,0.4,0.7,0.8,1,1.2c0.3,2.4-0.2,5.2,3.1,6c0.8,0.1,1.5,0.2,2.3,0.3c1,2.2,2.6,3,5.1,3c5.7,0,11.4,0.4,17.1,1
		c5.5,0.6,11.3,1.3,16.8-0.8c0.6,0,1.2-0.1,1.8-0.1c7.9-0.2,14.9-4,22.5-5.7c2.1-0.5,5.3-0.1,6.2-3.3c1.4-1.2,3-0.5,4.5-0.7
		c5.5-0.2,10-3.2,14.9-5.3c4.3-1.8,8.9-2.3,13.3-3.2c5.4,1.8,10.4-0.2,15.6-1c12.4-2.1,24.8-2,37.1,1.5
		C401.4,420.2,404.2,421,406.4,418.9z M389.8,450.4c0.7,0,1.4,0,2.2,0c2.9,0,6.2,0.2,7.1-3.4s-1.7-5.6-4.6-7.1
		c-6.7-3.3-13.6-5.6-21.2-5.6c-3.6,0-6.8,1.1-9.1,3.9c-1.6,1.9-2,4.2,0.8,5.3C373,446.7,380.9,450.5,389.8,450.4z M438.2,453
		c5.7,6.1,10.6,11.3,16.1,15.8c3.9,3.2,7.9,6.1,12.9,7.7c3,0.9,5.6,0.3,7.4-1.8c2.1-2.4,0.1-4.7-1.3-6.8c-1.9-3-5.1-4.6-7.9-6.4
		C457.7,456.3,449.6,451.6,438.2,453z M316.4,454.4c3.1,0,6.1,0.3,9.2-0.1c3.1-0.3,6.4-1.2,6.6-5.1c0.2-3.8-2.5-6.2-5.7-6.9
		c-8.1-1.7-15.7-0.2-22.4,4.9c-3.5,2.7-3,4.7,1.2,6.5C308.8,455.3,312.6,454.3,316.4,454.4z M279.5,462.2c0.6-0.1,2.7-0.1,4.5-0.7
		c6.3-2,7.2-6.3,2.3-10.7c-2.9-2.6-6.4-3.9-10.2-4.7c-6-1.1-7.9-0.1-9.6,5.5c-1.4,5,0.2,7.7,5.7,9.7
		C274.2,462.1,276.1,462.2,279.5,462.2z M426.3,442.3c1.6-0.3,3.7-0.4,4.2-2.5c0.5-2.4-0.6-4.5-2.3-6.3c-4.7-5.1-11.4-5.3-17.5-6.9
		c-1.1-0.3-2.9-0.4-3.5,0.8c-0.8,1.6,0.9,2.5,1.9,3.4c2,2.1,4.6,3.8,6,6.2C417.7,441.4,422.1,441.5,426.3,442.3z"/>
	<path class="st4" d="M315.5,324.4c0.1,1.1-1.1,1.9-2,1.2c-10.7-7.2-38.8-5.6-46.3,6.7c0,0,0,0.1-0.1,0.1c-1.9,0.8-3.7,1.6-5.5,2.3
		c-2.5,0.2-3.2-1.6-4.2-3.4c-1.6-3.2-3.2-6.3-5.2-9.3c-4.6-6.9-10.6-12.3-16.6-17.8c-0.1-0.1-0.1-0.1,0-0.2c2.1-3.7,3-7.5,3.3-11.7
		c1.4-23.3-4.5-44.2-20-62c0,0,0-0.1,0-0.1c0.1-2-1.4-3.2-2.3-4.6c-3.5-5.7-9.5-8-13.9-5.3c-6.4,4-9.4,10.5-11.2,17.5c0,0,0,0,0,0
		l-2.5,6.2c-0.1,0.1-0.3,0.1-0.3,0c-2.8-5.8-2.4-12.3-2.9-18.4c-0.5-7.4-0.6-14.9-4.4-21.4c-2.9-4.9-5.5-10.8-12.7-10.8
		c0,0-0.1,0-0.1,0c-4.3-2.3-7-6.1-8.7-10.6c-0.7-1.9-1.9-4.3,1.7-4.8c0,0,0.1,0,0.1,0c11.9,5.3,24,4.5,35.5,0.1
		c23.9-9,47.4-6.8,70.9,1.2c4.4,1.5,5.8,0.9,5.6-3.8c-0.1-2.4-0.2-5.1,1.9-7c-0.1,3.3-0.2,6.6-0.3,10c-0.1,1.7-0.7,3.7,2.1,3.7
		c0,0,0.1,0,0.1,0c5.6,3.2,11.2,6.4,17.1,9.8c0.1,0.1,0.3,0,0.3-0.1c0.7-5.6-0.8-10.5-0.2-15.2c0.9-7.8,2-15.8,5.3-23
		c2.8-6.1,4-13.4,10.5-17.4c0.1-0.1,0.3,0,0.3,0.1c0.4,3.6-3.1,5.2-4.5,7.8c-7.5,14.1-10.1,29.1-8.8,44.9
		c0.7,8.3,6.3,12.8,13.8,10.9c0.1,0,0.2,0,0.2,0.1c0.2,2.2-4.9,4.5,0,6.8c0,0,0.1,0,0.1,0.1c1.3,2.5,3.1,4.9,5.6,6.9
		c0,0,0.1,0.1,0.1,0.2c-0.4,2.3,1,4,1.8,5.9c2.5,5.6,3.9,11.6,3.3,17.8c0,0.1-0.1,0.2-0.2,0.2c-8.6-2-13.8,1.9-15.7,11.6
		c0,0,0,0,0,0c-1.7,5-3.6,9.8-4.4,15c0,0.1,0,0.1-0.1,0.1c-1,0.5-1.7,1.1-1.7,2.4c0.3,6.9,0.8,13.9,2.5,20.7c0,0,0,0,0,0
		c1.5,3.5,3,7.1,4.7,10.6c0.4,0.7,0.5,1.6,0.8,2.4c0.5,1.5,2.5,3,2.5,3"/>
	<path class="st5" d="M168.9,194.2c7.2,0.1,9.8,5.9,12.7,10.8c3.8,6.5,3.9,14,4.4,21.4c0.4,6.3,0,12.9,3.1,18.8
		c-5.7,14.1-7.1,28.7-1.4,42.7c8.7,21.5,28.6,25.4,48.1,17c6.1,5.5,12.1,11,16.7,17.9c2,3,3.6,6.2,5.2,9.3c0.9,1.8,1.7,3.6,4.2,3.4
		c-12.3,7-20.2,17.2-22.8,31.3c-2.4,1-3.4-1.2-5-2.1c0.4-0.4,0.8-0.8,1.1-1.3c1.2-0.9,3.7,0.5,3.8-1.9s-2.3-1.6-3.6-2.2
		c-7.4-3.6-15.7-3.5-23.5-5.5c-14.9-3.7-28.9-9.6-39.3-21c-8.2-9-15-19.2-17.4-32.1c-1.9-10-2.9-19.8-2.8-29.8
		c0-10.3,2.2-20.4,5.3-30.1c2-6.3,0.5-12.1-1.1-18c-0.5-1.8-1.9-2.6-3.4-3.2c-9.1-3.7-18.1-7.5-27.3-10.9
		c-7.3-2.7-13.2-8.4-20.6-10.5c-6.5-1.9-8-7.6-12.1-11.3c-0.2-0.2,0.2-1,0.4-1.5l0.1-0.1c1.1,0,2.2,0,3.2,0.1l0,0
		c1.2,3.8,4.3,5.3,7.6,6.5l0,0c0.4,1.7,1.6,2.4,3.3,2.2l0,0c0.4,1,1.2,1.1,2.1,1.1c2.5,1.8,5,3.6,7.6,5.5
		c6.2,6.3,14.5,8.2,22.4,10.9c4.6,1.6,9.6,1.4,14.4,1c1.8-0.1,5-1.3,2.4-3.3c-4.7-3.6-8-8.7-13.1-11.8v0.1c0-0.5,0.2-1.2-0.1-1.6
		c-7.6-10-8.2-21.8-9.8-33.6c-1.7-13.1-6.1-25.5-12.6-37c-0.6-1-1.2-1.8-2.5-1.6l0,0c0.1-4.1-2-6.8-5.4-8.7l0,0
		c0.1-1.5-0.6-2.3-2.2-2.2l0,0c0-0.8-0.3-1.1-1.1-1.1l0,0c0.1-2.6-1.6-4-3.4-5.4c-0.9-0.7-2.2-1.7,0.2-2.3c8.4,2,24.6,7.6,32.4,11
		c1.3,3.6,1.2,3.3,2.9,6.8c6.2,12.2,6.5,24.1,9.6,37.4c1.8,7.9,5.7,13.1,7.7,21C161,187.4,164.1,192,168.9,194.2z"/>
	<path class="st0" d="M239,367c2.6-14.1,10.6-24.3,22.8-31.3c1.9-0.8,3.7-1.6,5.6-2.3c0.4,5.9,2.3,10.8,7.2,14.7
		c7,5.6,14,11,23.7,7.8c5.8-1.9,11.3-4.6,15.7-9.2c0.9,13.2-3,18.9-14.9,24.5c-1.3,0.6-3.1,0.7-3.2,2.4c-0.3,9.2-8,10.2-14,11.4
		c-8.9,1.7-17.2-0.6-24.7-6.6c-5.4-4.3-12.3-6.4-17.9-10.6c0.1-0.1,0.3-0.3,0.2-0.4C239.3,367.3,239.2,367.1,239,367L239,367z"/>
	<path class="st3" d="M262.7,576.7c4.4,6,8.9,12,13.3,18.1c1.9,2.7,4.4,4.5,7.8,4.4c-0.3,5-3.4,8.4-7.3,10.7
		c-7.4,4.3-15.2,7.9-24.1,7.7c-6.3-0.2-12.7-0.4-19,0.1c-7.3,0.5-13.6-2.6-20.1-4.7c-2.4-0.8-4.5-2.3-4.7-5.3
		c-0.1-0.7-0.2-1.4-0.3-2.1l0.2-0.2c1.6-0.4,1.2-1.8,1.3-2.9c1.8-2.5,3.6-5.1,5.5-7.6c0.1-0.2,0.2-0.5,0.1-0.7
		c2.9,0,4.5-2.5,6.8-3.7c0.3,1.9-2,2.8-2.1,5.2c12.3-8.5,25.2-14.7,38.9-19.8c-2.1-0.1-4.1-0.2-6.2-0.3
		C256.5,572.2,259.8,573.4,262.7,576.7z"/>
	<path class="st2" d="M283.9,599.2c-3.5,0-5.9-1.7-7.8-4.4c3-4.5,6.5-5.8,11.3-2.8c8,4.9,16.1,5.2,24.2,1.4c8.5-4,17.6-4.7,26.6-6.1
		c19.1-3,38.5-4.2,57.8-5.7c15.9-1.2,31.9-2,47.8-3.3c10.9-0.9,21.4,0.1,32.2,1.1c12.7,1.1,20.6-1.5,23.5-9.9
		c3.1-9.1-0.1-17.3-4.9-25c-0.9-1.5-3.2-2.7-1.5-5c0.4,0,0.7,0,1.1,0l0,0c0.4,0.9,1.2,1.1,2.1,1.1l0,0c1.3,3.8,3.8,6.3,7.6,7.6l0,0
		c-0.1,0.9,0.1,1.7,1.1,2.1l0,0c1.8,4.3,3.6,8.7,5.4,13l0,0c-0.3,3.7-0.6,7.4-0.9,11c-0.5,4.8-5,6-7.8,8.6
		c-12.3,3.6-24.6,7.3-37.7,6.2c-1.2-0.4-2.3-0.8-3.5-1.2c-0.6-0.3-1.3-0.9-1.9-0.9c-18.6,0-37.3-0.2-55.9,0.4
		c-2.9,0.1-7.4-1.4-9.5,2.8c-0.6,0-1.1,0.1-1.7,0.1l0,0c-1.6,0-3.1,0.1-4.7,0.1c-4.4-0.4-8.9-2.1-13.3-1.1
		c-10.8,2.4-21.8,1.7-32.7,3.2c-7.4,1-14.8,2-22.1,3.4c-2.6,0.5-5.7,1.3-5.9,5c-1.1,0.4-2.3,0.8-3.4,1.2c-7.3,0.1-14.7,1.1-21.2-3.8
		c-0.2-0.1-0.8,0.4-1.3,0.6C285.9,599.1,284.9,599.2,283.9,599.2z"/>
	<path class="st2" d="M124,486.3c3.6,2.7,3.6,7.3,4.9,10.9c2.1,5.8,5.1,10.9,7.8,16.2c-0.1,0.9,0,1.8-0.3,2.7
		c-3.4,9.4-1.7,17.7,5.6,24.7c0.6,0.6,1,1.4,1.5,2.1c-0.5,3.8-5.6,1.9-6.5,5.3l0,0c-0.9,0-1.8,0.1-2.2,1.1l0,0
		c-0.4,0.4-0.7,0.7-1.1,1.1l0,0c-0.9,0-1.8,0.1-2.2,1.1l0,0c-1.2,0.2-3.3-0.1-3.5,0.5c-2,4.6-5.6,3.1-8.9,2.8
		c-1.2-0.1-2.5,0.1-3.7,0.2c1.9,1.2,3.7,1.6,5.6,1.9c1.3,0.3,3,0.8,2.1,2.2c-2,3.1-1.2,7.9-5.6,9.6c-5.8,1.1-11.5,0.9-17.3,0
		c0.1-2.7-1.5-3.4-3.8-3.2c-3.8,0.4-7-1.5-9.7-3.5c-2.2-1.7-3.9-3.5-6.9-3.1c-0.9-1-1.8-2.1-2.7-3.1c10.9-3.4,11.1-3.4,11-14
		c0-4.1,1.7-5.9,5.4-6.6c4.4-0.9,8.8-1.9,13.1-3.3c7.1-2.4,13.4-6.1,16.5-13.5c0.9-2,2-4.2-1.4-5.1c4.7-5.9,3.6,3.3,6.8,2.4
		C126.1,506,123.6,496.3,124,486.3z M130.6,522c-0.3-0.7-0.7-1.5-1-2.2c-0.1-0.4-0.3-0.9-0.4-1.3c-0.2,0.1-0.5,0.4-0.5,0.4
		c0.2,0.4,0.5,0.8,0.7,1.1C129.8,520.7,130.2,521.4,130.6,522c0,1,0.1,1.8,1,2.3c0.1,1.7,0.3,3.4,1.9,4.7c0.9-2.4,0-3.8-1.7-4.8
		C131.3,523.4,131,522.7,130.6,522z"/>
	<path class="st3" d="M317.2,104.3c9.2-5.2,17.7-11.4,27.4-15.7c6.9-3.1,13.7-6.3,21.3-7.3c9.2-1.3,15.1,3.3,16.3,12.5
		c0.2,1.2,0.4,2.5,0.3,3.8c-1.5,14.9,0.8,29.8-1.7,44.7c-0.9,1.2-0.9,2.6-0.8,4c-0.7,1.2-1.5,2.5-2.2,3.7c-2.4-1.5-1.5-5.1-4.2-6.4
		c0-2.5-1.4-4.4-2.3-6.5c-0.5-1.9-1-3.8-1.6-5.6c0.1-2.2,0.2-4.4,0.3-6.7c0.4-2,0.7-4.1-0.3-6c-0.6-5.9-1.4-11.8-3.3-17.4
		c-0.5-1.4-0.8-4-2.9-1.7c-3.1,3.2-7.7,4-10.5,7.3c-1.1,0-2.3-0.1-3.4-0.1c-1.4-0.1-2.8-0.2-4.3-0.3c-7.8-2-15.8-0.9-23.7-0.8
		c-0.8,0-1.5,0-2.3,0C318.4,105.5,317.3,105.6,317.2,104.3z"/>
	<path class="st3" d="M313.9,346.6c-4.3,4.6-9.8,7.3-15.7,9.2c-9.7,3.1-16.6-2.3-23.7-7.8c-4.9-3.9-6.9-8.8-7.2-14.7
		c8-13.3,40.5-14.2,48.6-4.8C321.7,335.3,317.2,340.9,313.9,346.6z"/>
	<path class="st2" d="M539.6,540.6c3.5,0.4,5.2,3.6,7.9,5.2c0,1.3,0.7,1.6,1.8,2.3c5.4,3.3,11.8,4.3,17.2,6.9
		c-1.2,3.3-5.7,2.7-5.8,6.4l-0.1-0.1c-2.7-0.3-5.5-0.8-8,0.4c-5,2.3-9.7,2.5-14.7,0c-1.9-1-4.2-1-6.1,0.4c-1.9,1.4-1.3,2.8-0.3,4.6
		c1.5,2.6-0.6,3.5-2.5,2.9c-3.4-1.1-7.6-1.2-10.1-4c-2.5-2.9-5.2-3.2-8.5-2.3l0,0c-1.1-6.2-2.3-12.5,1.1-18.4c0.1-0.3,0-0.7,0-1.1
		v-0.1c3.2-4.1,3.7-9,3.5-13.9c-0.1-3.1-0.8-6.3,0.8-10.7c1.9,2.3,3.1,3.8,4.4,5.3c1.8,2.2,1.9,5.4,5,7.1c4,2.2,7.8,5.1,10.9,8.5
		C537.1,541.2,538.1,542.2,539.6,540.6z"/>
	<path class="st2" d="M491.8,538.4c-2.2-1.4-4.8-2.4-5.3-5.4l0.1-0.1c6.4,1.5,11.2-3.2,12-10.8c0.9-9.5-1.8-18.2-5.4-26.6
		c-6.8-16-16.7-30.1-27.9-43.3c-1.6-1.9-5-2.8-4.7-6.2c3-1,4.9,2.7,7.9,1.7v0.2c-0.1,0.8,0.2,1.2,1,1.2l0.2-0.2
		c-1.2,4.2,1.6,3.6,4.1,3.4l-0.2,0.2l0.2-0.2c3.9,6.9,9.7,12,16.2,16.4l-0.1-0.1c-0.3,1.4,0.5,2.1,1.7,2.4l0.3,0.1
		c0.1,6.1,4.4,9.5,8.7,12.9c0.1,0.2,0.2,0.4,0.3,0.6c0,0.1,0,0.2-0.1,0.4c0,0.6,0.1,1.1,0.1,1.7c0.7,0.9,1.4,1.8,2,2.6
		c1,6.5,5.5,11.7,6.8,18.2c0.4,1.8-0.7,5.1,2.7,5.7c0.5,0.6,0.9,1.2,1.4,1.8c-2.3,2.7-0.2,5.5,0,8.3c0.5,6.9-1.4,13.5-2.3,20.3v0.1
		c-2.7,1.6-1.8,6.9-6.5,6.5l0,0c0.1-0.9-0.2-1.7-1.1-2.1l0,0c-1.3-3.8-3.8-6.3-7.6-7.6l0,0c-0.4-0.9-1.2-1.1-2.1-1.1l0,0
		C493.9,537.8,493.5,536.7,491.8,538.4z"/>
	<path class="st5" d="M121.7,513.2c3.4,0.9,2.3,3,1.4,5.1c-3.2,7.3-9.4,11-16.5,13.5c-4.2,1.4-8.7,2.4-13.1,3.3
		c-3.7,0.8-5.5,2.5-5.4,6.6c0.1,10.7-0.1,10.7-11,14c-4.5-4.6-8-9.9-8.6-16.3c-0.7-8,3.7-17.1,13.8-19.6c1.9-0.5,3.8-0.7,5.8-1.1
		c6.5,2.8,11.6-1.6,17.3-3.1c2.1-2.1,5.4-0.1,7.5-2.2C115.9,513.3,118.8,513.3,121.7,513.2z"/>
	<path class="st2" d="M373.7,143.4c2.6,1.3,1.7,4.9,4.2,6.4c-0.3,1.4-0.7,2.9-1,4.3c-4.5,8-10.7,15.2-13.9,24
		c-0.4,0.5-0.8,1-1.2,1.4c-0.6,0.3-1.3,0.6-1.9,1c-9,7.3-15.9,17.1-26.4,22.8c-0.3,0.2,0,1.6,0.1,2.5c-0.7,0.2-1.4,0.3-2.1,0.5
		c-3.8-0.1-6.3,1.8-7.8,5.2c-2.1,1.1-4.1,2.2-6.2,3.3c-2.5-2-4.4-4.4-5.7-7.4c1.5-2.4,4.3-1.1,6.2-2.2c13.3-7.5,26.2-15.7,35.8-27.9
		C361.9,167.1,369.3,156.1,373.7,143.4z"/>
	<path class="st0" d="M317.2,104.3c0.1,1.3,1.2,1.2,2.1,1.4c0.5,1,0.2,1.4-0.7,2.1c-9,7-16.6,15.3-23.1,24.7
		c-10.4,15.3-17.8,31.6-17.8,50.5c-2.8,0-2.2-2-2.1-3.7c0.2-3.3,0.2-6.6,0.3-10l-0.1,0.1c0.1-0.1,0.3-0.1,0.3-0.2
		c0-0.2,0-0.4-0.1-0.6c-1-2.9,0.7-5.4,1.3-8c3.2-5,5-10.5,6.1-16.2l-0.1,0.1c1.6-0.1,1.2-1.5,1.6-2.4c-0.8-4,2.6-6,4.3-8.7
		c2.8-0.1,3-2,2.8-4.1l-0.1,0.1c4.7-2.8,7.5-7.2,9.8-12l-0.1,0.1c1.7,0.2,2.6-0.4,2.2-2.2l-0.1,0.1c2.3,0.1,3.7-0.7,3.3-3.3l0,0
		c1.9,0.9,2-0.3,2.2-1.7C311.5,107.4,314,105.4,317.2,104.3z"/>
	<path class="st4" d="M117.6,568.6c4.4-1.7,3.6-6.4,5.6-9.6c0.9-1.4-0.8-2-2.1-2.2c-1.9-0.4-3.7-0.8-5.6-1.9
		c1.2-0.1,2.5-0.3,3.7-0.2c3.4,0.3,7,1.8,8.9-2.8c0.2-0.6,2.3-0.4,3.5-0.5c-1.9,3.2-5.4,5.3-6.7,8.9c-1.3,3.5-2.5,6.6-1.8,10.9
		c0.5,3.2-0.7,7.2,0.8,10.8s2,8,6.4,9.8c0.5,7.2,7.2,8.8,11.7,10.1c7.5,2.1,15.5,3.7,23.6,3.7c14.2,0,28.5,0,42.7,0
		c0.1,0.7,0.2,1.4,0.3,2.1c-14.6-1.1-29.2-0.5-43.8-0.6c-7.5-0.1-14.8-1-22-2.7c-12.1-2.8-22.6-16.5-22.9-30.1
		C119.8,571.8,119.9,569.8,117.6,568.6z"/>
	<path class="st4" d="M154.5,326.7c0.7,9.2-1.7,18.2-2.9,27.1c-0.9,6.9-1.7,14.8-6.8,20.8c2.2-12.9,5.3-25.5,6.6-38.6
		c1.1-11.2,2.2-22.2-2.9-32.8c-0.4-0.8-0.4-1.3,0.4-1.6c3,2.3,3.2,5.7,4,9c1.1,4.4,4.1,8.2,4.8,12.8l-0.1,0.1
		c-1.4-0.2-1.4-2.3-3.2-2.1C154.5,323.2,154.5,325,154.5,326.7z"/>
	<path class="st3" d="M302.9,288.8c-1.7-6.8-2.2-13.7-2.5-20.7c-0.1-1.3,0.8-1.9,1.8-2.4c4.9,0.4,8.4,2.4,9.3,7.7
		c0.9,5.7,0,10.6-5,14.1C305.2,287.6,303.7,287.2,302.9,288.8z M308.6,272.4c-0.8-1-1.7-2.2-2.7-3.4c-0.9,1.4-3.4,1.3-3.2,3.7
		c0.1,1.8,0.8,3.1,2.8,3.1C307.4,275.9,308.3,274.7,308.6,272.4z"/>
	<path class="st4" d="M510.4,563.3c3.3-0.9,6-0.6,8.5,2.3c2.5,2.9,6.6,2.9,10.1,4c1.9,0.6,4-0.3,2.5-2.9c-1.1-1.8-1.6-3.2,0.3-4.6
		c1.9-1.5,4.2-1.4,6.1-0.4c5,2.5,9.7,2.3,14.7,0c2.4-1.1,5.3-0.7,8-0.4c-8.5,6.1-17.8,4.8-27.6,2.3c0.3,1.3,0.5,1.9,0.6,2.5
		c0.3,1.7,3.4,2.6,2.2,4.4c-1.3,1.9-3.9,1.5-6.1,1.2c-4.6-0.7-9.4-1.3-12.7-5.2c-1.1-1.3-2.2-1.5-3.8-1c-1.8,0.5-1.1,1.9-1.4,3
		c-0.5,2,1.2,5-2.3,5.8C509.8,570.7,510.1,567,510.4,563.3z"/>
	<path class="st4" d="M312.8,601c0.3-3.7,3.4-4.5,5.9-5c7.3-1.4,14.7-2.3,22.1-3.4c10.8-1.5,21.9-0.8,32.7-3.2
		c4.5-1,8.9,0.7,13.3,1.1c-10.9,1-21.8,2.3-32.8,2.9C340,594.3,326.1,596.2,312.8,601z"/>
	<path class="st4" d="M468.4,447.7c-3,1-4.9-2.7-7.9-1.7c-12.1-12.7-28-18.5-44.1-23.7c-1.5-0.5-3.4-0.1-3.8-2.2
		c7.2-0.1,13.6,3,20,5.6c8.7,3.6,17.5,7.5,24.6,13.7C460.8,442.5,465.5,443.8,468.4,447.7z"/>
	<path class="st4" d="M121.7,513.2c-2.9,0.1-5.9,0.1-8.8,0.2c1.7-2.2,4.4-2.3,6.7-2.7c4.8-0.8,5.2-3.3,4.3-7.5
		c-3.3-14.4-4.2-28.9-1.9-43.5c1.9,8.8-0.1,17.8,2,26.6c-0.4,10.1,2,19.7,4.5,29.4C125.3,516.5,126.5,507.3,121.7,513.2z"/>
	<path class="st4" d="M142.4,383c0.3,1,1.1,2.4,0.7,3c-5.7,10.4-6.8,22.5-11.6,33.3c-2,4.5-2.4,9.6-3.2,14.5c-0.3,2-0.7,3.5-3,3.6
		c2.8-18.6,9.7-35.9,15.9-53.5C141.4,383.6,142,383.4,142.4,383z"/>
	<path class="st4" d="M147.3,226.7c6.1-1.4,6.6-0.7,7.2,5.4c0.4,4.7-1.1,8.9-2.5,13c-3.4,10.3-4.7,20.7-4.1,31.5
		c0.2,3.1-0.9,6-1.2,9c-1.9-1.1-1.1-2.9-1.1-4.4c-0.3-11.3,0-22.6,3.6-33.6c1.6-4.8,2.2-9.8,2.5-14.9
		C151.9,229.4,150.9,227.2,147.3,226.7z"/>
	<path class="st4" d="M511.5,543.7c0.8-6.7,2.8-13.4,2.3-20.3c-0.2-2.7-2.3-5.5,0-8.3c2.2,0.1,2.9,2,4,3.3
		c5.6,7.1,11.9,13.6,19.2,18.9c1.3,0.9,1.5,2.4,2.6,3.3c-1.5,1.5-2.5,0.5-3.5-0.7c-3.1-3.5-6.9-6.3-10.9-8.5c-3.1-1.7-3.2-4.9-5-7.1
		c-1.2-1.5-2.5-3-4.4-5.3c-1.5,4.5-0.9,7.6-0.8,10.7C515.1,534.8,514.7,539.6,511.5,543.7z"/>
	<path class="st4" d="M393.3,590.3c2.1-4.2,6.6-2.7,9.5-2.8c18.6-0.6,37.2-0.4,55.9-0.4c0.6,0,1.3,0.6,1.9,0.9
		C438.1,588,415.7,589.4,393.3,590.3z"/>
	<path class="st4" d="M99.4,203.6c4.1-0.3,6.3,3.3,9.1,5.2c7.5,5,14.7,10,23.9,11.8c4.2,0.8,8.1,3.4,12.1,5.2
		c-6.3,0.9-11.8-2-17.3-4.1c-9.2-3.4-17.3-8.8-25-14.7C101,206.1,99.3,205.6,99.4,203.6z"/>
	<path class="st4" d="M406.4,418.9c-2.2,2.1-5,1.3-7.1,0.6c-12.3-3.5-24.7-3.6-37.1-1.5c-5.2,0.9-10.2,2.9-15.6,1
		c18.2-5.3,36.6-4.1,55.1-2.2C403.3,417.1,405.3,417.2,406.4,418.9z"/>
	<path class="st3" d="M306.6,250.6c1.9-9.8,7.2-13.7,15.9-11.6c0.2,0.7,0.3,1.3,0.5,2c-4.2,1.9-9.6,0.7-13.2,5.5
		c5,1.8,7.6,6.6,11.7,9.6c-0.1,1.3-0.2,2.7-0.5,5.1C317.7,254.6,313.6,250.5,306.6,250.6z"/>
	<path class="st0" d="M321.6,256c-4.2-3-6.8-7.7-11.7-9.6c3.6-4.8,9-3.6,13.2-5.5C324.7,246.2,324.5,251.2,321.6,256z"/>
	<path class="st4" d="M333.5,205.9c0-0.9-0.4-2.3-0.1-2.5c10.5-5.7,17.4-15.5,26.4-22.8c0.5-0.4,1.2-0.7,1.9-1
		c-2.9,6.9-9,10.9-14.1,15.7C343.3,199.3,338.6,202.9,333.5,205.9z"/>
	<path class="st4" d="M464,589.2c13.1,1.1,25.4-2.6,37.7-6.2c-3.6,4.6-9,5.5-14.1,6.4C479.8,590.8,471.8,592.6,464,589.2z"/>
	<path class="st4" d="M235.1,363.6c-0.4,0.4-0.8,0.8-1.1,1.3c-4.3-2.9-2.7,2.7-4.6,3.2c-0.1-0.7-0.1-1.5-0.2-2.2
		c0.3-2.3-0.6-3.4-3-3.3c-8.4,0.3-16.3-2.4-24.3-4.4c-3.9-1-8.1-1.5-10.8-5.1l0.3-0.3c9.1,2.9,18,6.3,27.6,7.3
		C224.6,360.5,230.1,360.6,235.1,363.6z"/>
	<path class="st4" d="M283.5,437.5c-5.5,2-11.3,1.4-16.8,0.8c-5.7-0.6-11.4-1-17.1-1c-2.5,0-4.1-0.8-5.1-3c4.7-0.8,9.4,0.3,13.8,1.2
		C266.7,437.2,275.1,437,283.5,437.5z"/>
	<path class="st4" d="M560.6,561.5c0.1-3.7,4.6-3.1,5.8-6.4c-5.5-2.6-11.8-3.6-17.2-6.9c-1-0.6-1.8-1-1.8-2.3
		c2.6-1.1,4.3,0.9,6.3,1.8c5.1,2.2,10.2,4.2,15.6,5.6c1.9,0.5,2.7,1.4,0.8,2.6C567,557.7,564.5,560.8,560.6,561.5z"/>
	<path class="st4" d="M313.9,428.3c-0.9,3.2-4.1,2.8-6.2,3.3c-7.5,1.8-14.6,5.6-22.5,5.7c0.3-0.6,0.6-1.7,0.9-1.8
		C295.7,434.2,304.4,429.9,313.9,428.3z"/>
	<path class="st4" d="M362.9,178.2c3.2-8.8,9.4-15.9,13.9-24C374.5,163.5,370,171.6,362.9,178.2z"/>
	<path class="st4" d="M512.4,513.3c-3.4-0.7-2.4-3.9-2.7-5.7c-1.3-6.5-5.8-11.7-6.8-18.2c3.7,1.5,3.8,5.4,5,8.3
		C510,502.6,512.9,507.5,512.4,513.3z"/>
	<path class="st4" d="M79.9,558.8c3-0.4,4.7,1.5,6.9,3.1c2.7,2,5.9,3.9,9.7,3.5c2.3-0.2,3.9,0.5,3.8,3.2
		C92.4,567.6,85.2,565.1,79.9,558.8z"/>
	<path class="st4" d="M286.9,599.1c0.4-0.2,1.1-0.7,1.3-0.6c6.4,4.9,13.9,3.9,21.2,3.8C303.4,606.5,293.4,605.1,286.9,599.1z"/>
	<path class="st4" d="M229.2,399.2c-1.3,0-2-0.7-2-2c0-7,0-13.9,0-20.9c0-1.3,0.7-2.4,1.9-3.1C228.7,381.9,227.8,390.6,229.2,399.2z
		"/>
	<path class="st4" d="M490,468.7c-6.5-4.4-12.3-9.4-16.2-16.4C480.2,456.8,485.8,462.1,490,468.7z"/>
	<path class="st4" d="M238,426.9c-5.1-5.5-8.2-11.7-7.7-19.4C232.9,413.9,235.5,420.4,238,426.9z"/>
	<path class="st4" d="M500.5,484.1c-4.2-3.4-8.5-6.7-8.7-12.9C496,474.7,499.1,478.8,500.5,484.1z"/>
	<path class="st4" d="M333.3,422.3c-4.8,2.1-9.4,5.1-14.9,5.3C322.4,423.1,327.6,422.1,333.3,422.3z"/>
	<path class="st4" d="M105.5,515.6c-5.7,1.5-10.9,5.9-17.3,3.1C93.7,516.5,99.4,515.1,105.5,515.6z"/>
	<path class="st4" d="M283.6,144.3c-1.1,5.7-2.9,11.2-6.1,16.2C278,154.6,280.1,149.2,283.6,144.3z"/>
	<path class="st4" d="M125.4,442c-1.5,5.3,0.3,11.2-3.4,16.1C122.2,452.5,122.2,446.9,125.4,442z"/>
	<path class="st4" d="M302,117.2c-2.3,4.8-5.1,9.2-9.8,12C294.5,124.4,298.6,121,302,117.2z"/>
	<path class="st4" d="M323.6,211.7c1.5-3.4,4-5.3,7.8-5.2C329.7,209.5,326.9,210.9,323.6,211.7z"/>
	<path class="st4" d="M242.2,434c-3.4-0.8-2.8-3.6-3.1-6C240.4,429.9,241.9,431.6,242.2,434z"/>
	<path class="st4" d="M473.7,452.4c-2.5,0.2-5.3,0.8-4.1-3.4C471.5,449.4,472.9,450.5,473.7,452.4z"/>
	<path class="st4" d="M292.2,129.1c0.2,2.1,0,4-2.8,4.1C290.4,131.9,291.3,130.5,292.2,129.1z"/>
	<path class="st4" d="M307.4,111.8c0.4,2.6-1,3.4-3.3,3.3C305.2,114,306.3,112.9,307.4,111.8z"/>
	<path class="st4" d="M491.6,471.1c-1.2-0.3-2-1-1.7-2.4C491.4,468.8,491,470.3,491.6,471.1z"/>
	<path class="st4" d="M285.1,142c-0.3,0.9,0,2.3-1.6,2.4C283.3,143.1,283.4,142.1,285.1,142z"/>
	<path class="st4" d="M500.9,486.8c0-0.6-0.1-1.1-0.1-1.7c0.4,0.4,0.8,0.8,1.3,1.3C501.6,486.5,501.2,486.6,500.9,486.8z"/>
	<path class="st4" d="M304.2,115c0.3,1.8-0.5,2.5-2.2,2.2C302.7,116.5,303.4,115.8,304.2,115z"/>
	<path class="st4" d="M309.6,110.1c-0.1,1.3-0.3,2.6-2.2,1.7C308.1,111.2,308.8,110.7,309.6,110.1z"/>
	<path class="st4" d="M469.4,449.1c-0.8,0-1.2-0.4-1-1.2C469.2,447.9,469.7,448.2,469.4,449.1z"/>
	<path class="st4" d="M276.2,168.5c0,0.2,0.1,0.4,0.1,0.6c0,0.1-0.2,0.2-0.3,0.2C276.1,169.1,276.2,168.9,276.2,168.5z"/>
	<path class="st5" d="M239,366.9c0.1,0.2,0.3,0.4,0.4,0.6c0,0.1-0.2,0.2-0.2,0.4c-0.1-0.2-0.3-0.4-0.3-0.6
		C238.8,367.1,239,367,239,366.9z"/>
	<polygon class="st4" points="391.6,590.4 391.6,590.4 391.6,590.7 	"/>
	<path class="st4" d="M65.3,124.5c-0.3-3,1.7-4.9,3.2-7.1c0.1,3.9,0.1,7.7,0.2,11.6c0.1,1.6,0.2,3.2,0.2,4.8c-0.2,3.4,1,6.6,1.6,9.9
		c2,10.4,7.9,18.9,12.7,28c-1.2-0.4-2.5-0.9-3.7-1.3l0,0c0-1.1-0.2-2-1.4-2.2h-0.3c-0.5-0.5-1-1-1.6-1.5l0.1-0.3
		c0.8-4.4-2-7.2-4.5-10.1l0,0c-2.6-9.3-5.8-18.4-4.4-28.3C67.8,126.4,66.5,125.4,65.3,124.5z"/>
	<path class="st5" d="M65.3,124.5c1.2,0.9,2.5,1.9,2.3,3.5c-1.4,9.9,1.8,19.1,4.4,28.3c-3.8-4.8-5.8-10.5-6.5-16.5
		c-0.4-3.6,0.4-7.5-2.3-10.6C63.3,127.3,64,125.8,65.3,124.5z"/>
	<path class="st5" d="M79.6,170.4c1.2,0.4,2.5,0.9,3.7,1.3c2.2,4.6,7.4,6.8,9.3,11.6c0.4,0.7,0.8,1.5,1.2,2.2l-0.1,0.1
		c-4-0.2-6.9-2.2-8.8-5.6C83.1,176.8,81.3,173.6,79.6,170.4z"/>
	<path class="st5" d="M72,156.3c2.5,2.9,5.3,5.7,4.5,10.1C73.8,163.5,70.9,160.8,72,156.3z"/>
	<path class="st4" d="M175.1,342.9c2.8,1,5,2.7,6.6,5.3l-0.3,0.4c-2.7-1.2-5.5-2.2-6.6-5.4L175.1,342.9z"/>
	<path class="st4" d="M158.8,324.4c2.6,1.8,4.3,4.3,4.4,7.6l-0.2,0.2c-2.3-2-4.2-4.3-4.4-7.6L158.8,324.4z"/>
	<path class="st4" d="M181.8,348.1c2.8,0.4,5.3,1.7,7.5,3.4l-0.2,0.3c-3,0-5.7-0.7-7.6-3.2L181.8,348.1z"/>
	<path class="st4" d="M169.8,338.5c2.6,0.5,3.9,2.5,5.4,4.4l-0.3,0.3c-2.9-0.2-4.7-1.6-5.4-4.4L169.8,338.5z"/>
	<path class="st4" d="M165.4,334.1c1.9,0.3,3,1.4,3.3,3.3l-0.3,0.3c-1.9-0.3-3-1.4-3.3-3.3L165.4,334.1z"/>
	<path class="st4" d="M189.3,351.5c0.7,0.4,1.4,0.7,2.2,1.1l-0.3,0.3c-0.7-0.4-1.4-0.7-2.1-1.1L189.3,351.5z"/>
	<path class="st5" d="M78.1,168.2c1.3,0.2,1.5,1.1,1.4,2.2C79.1,169.7,78.6,169,78.1,168.2z"/>
	<path class="st4" d="M163.2,332c0.4,0.4,0.7,0.7,1.1,1.1l-0.3,0.3c-0.4-0.4-0.7-0.7-1.1-1.1L163.2,332z"/>
	<path class="st5" d="M76.3,166.7c0.5,0.5,1,1,1.6,1.5C77,168.1,76.5,167.6,76.3,166.7z"/>
	<path class="st4" d="M157.8,323.4c0.4,0.3,0.7,0.7,1.1,1l-0.2,0.2c-0.3-0.4-0.7-0.8-1-1.1L157.8,323.4z"/>
	<path class="st4" d="M168.7,337.4c0.3,0.4,0.7,0.7,1,1.1l-0.3,0.3c-0.4-0.3-0.7-0.7-1.1-1L168.7,337.4z"/>
	<path class="st4" d="M164.4,333.1c0.4,0.4,0.7,0.7,1.1,1.1l-0.3,0.3c-0.4-0.4-0.7-0.7-1.1-1.1C164.1,333.3,164.4,333.1,164.4,333.1
		z"/>
	<path class="st0" d="M68.7,129c-0.1-3.9-0.1-7.7-0.2-11.6c1.2-8.4,3.8-16.4,7.4-24.1c1.8-4,3.4-4.9,7.4-2.5
		c6.5,3.9,12.5,8.4,18.5,12.9c1.9,3.5,5,5.8,8.1,8.2l0,0c0,0.8,0.3,1.2,1.1,1.1l0,0c0,1.5,0.4,2.5,2.2,2.2l0,0
		c0.3,3.9,3.2,6.1,5.4,8.7l0,0c3.3,8.1,7.4,15.9,10.1,24.3c3.5,11.3,2.8,23.3,6.3,34.4c1.7,5.5,2.8,11.7,8.6,15.1c0,0,0-0.1,0,0
		c0.9,6.4,7.4,8.2,10.7,12.6c-1.6,1.8-3.7,1.3-5.6,1.2c-6.3-0.4-12.2-2.8-18.1-4.9c-4.5-1.6-8.1-5.3-13-5.8c-2.5-1.8-5-3.6-7.6-5.5
		c-0.4-1-1.1-1.3-2.1-1.1l0,0c-0.6-1.4-1.5-2.5-3.3-2.2l0,0c-1.9-3-4.5-5.1-7.6-6.5l0,0c-0.9-1.8-2.6-2.2-4.5-2.2
		c-1.9-4.9-7.1-7-9.3-11.6c-4.8-9.1-10.7-17.7-12.7-28c-0.6-3.3-1.8-6.5-1.6-9.9"/>
	<path class="st4" d="M109.9,111.9c-3.1-2.3-6.1-4.7-8.1-8.2c1.7-0.5,3.4-1.2,4.8,0.5c-2.4,0.6-1.1,1.6-0.2,2.3
		C108.2,107.9,110,109.3,109.9,111.9z"/>
	<path class="st2" d="M208.3,605.5c-14.2,0-28.5,0-42.7,0c-8,0-16-1.6-23.6-3.7c-4.5-1.3-11.1-2.9-11.7-10.1
		c6.1,4.7,15.8,5,21.7-1.1c8.2-8.4,18.6-9.4,28.8-9.7c14.2-0.4,28.5-0.7,42.5-2.7c13.4-1.9,25.9-7.2,34.4-18.7
		c1.4-1.9,3.3-2.9,5.4-3.3c6.3-1.2,12.7-2.3,19.2-2.9c14.3-1.2,28.8,0.2,43-3.1c0.9-0.2,1.9-0.2,2.6-0.6c3.7-1.9,9-1.3,11.1-5
		c2.1-3.8-1.9-7.6-2.5-11.6c-0.8-5.1-0.6-10.3-0.8-15.5c2.3,2-0.5,6.2,3.2,7.6l0,0c0.1,3.9,0.8,7.4,4.3,9.8l0,0
		c0,1.4,0.7,2.2,2.2,2.2l0,0c0.5,0.4,0.9,0.8,1.4,1.1c0.3,0.3,0.5,0.6,0.8,0.8c0.2,2.2,0.6,4.1,3.3,4.5l0,0c1.5,2.4,3.1,4.7,6.5,4.3
		l0,0c0.5,3.8,4.9,2.9,6.5,5.5c-0.1,0.1-0.2,0.3-0.2,0.4c0.1-0.1,0.1-0.3,0.2-0.4c2.9,2,6.6,2.1,10.3,3.8c-7.3,1.9-14,1.6-20.7,1.6
		c-23.5,0.3-47-0.9-70.4,1.2c-4.8,0.4-10.2,0.7-12.5,6.5l0,0c-1.7-0.1-3.2,0-3.2,2.2l0,0c-1.4,0.8-4.8-0.3-3.2,3.4
		c-0.5,1.5-0.9,3-1.4,4.6c-2.9-3.3-6.2-4.6-10-1.4c-1.6,0.7-3.3,1.4-4.9,2.1c-6.3,1.3-11.7,5-17.4,7.6c-2.7,1.8-5.5,3.5-8.2,5.3
		c-2.3,1.2-3.9,3.7-6.8,3.7c-0.6-1.3-1.8-1.9-3-2.1c-6.7-1.3-13.4-3.1-20.1-3.4c-7.3-0.4-14.9-1.4-21.9,1.9c2.4,0.2,4.8,0.1,7.2,0
		c12.8-0.8,25.4,1.1,37.8,4.3c-1.8,2.5-3.6,5.1-5.5,7.6c-1.2,0.6-1.2,1.8-1.3,2.9L208.3,605.5z"/>
	<path class="st0" d="M143.6,542.9c-0.5-0.7-0.9-1.5-1.5-2.1c-7.3-7-8.9-15.3-5.6-24.7c0.3-0.8,0.2-1.8,0.3-2.7
		c0.8-1.6,1.5-3.3,2.4-4.8c4.9-8,12.9-8.4,18.2-0.6c5.7,8.5,11,17.2,16.5,25.8c1.3,2.1,2.6,4.3,4.7,5.8c0.4,2.1-0.8,2.9-2.6,3.2
		c-3.1,0.6-6.3,1.9-9.4,2C158.9,544.9,151,546.7,143.6,542.9z"/>
	<path class="st0" d="M389.8,450.4c-8.9,0.1-16.8-3.7-24.8-6.8c-2.7-1.1-2.4-3.4-0.8-5.3c2.3-2.8,5.5-3.9,9.1-3.9
		c7.6,0,14.5,2.3,21.2,5.6c2.9,1.5,5.5,3.5,4.6,7.1s-4.2,3.4-7.1,3.4C391.3,450.4,390.5,450.4,389.8,450.4z"/>
	<path class="st0" d="M438.2,453c11.4-1.4,19.5,3.3,27.3,8.5c2.8,1.8,6,3.4,7.9,6.4c1.4,2.1,3.3,4.4,1.3,6.8
		c-1.8,2.1-4.4,2.7-7.4,1.8c-4.9-1.5-8.9-4.5-12.9-7.7C448.8,464.3,443.9,459.1,438.2,453z"/>
	<path class="st2" d="M164.1,333.3c0.4,0.4,0.7,0.7,1.1,1.1c0.3,1.9,1.4,3,3.3,3.3c0.4,0.3,0.7,0.7,1.1,1c0.7,2.8,2.5,4.2,5.4,4.4
		c1,3.2,3.9,4.2,6.6,5.4c1.9,2.5,4.6,3.3,7.6,3.3c0.7,0.4,1.4,0.7,2.1,1.1c2.7,3.7,7,4.2,10.8,5.2c8,2,15.9,4.8,24.3,4.4
		c2.4-0.1,3.3,1.1,3,3.3c-15.6-0.7-31.1-2.5-45.3-9.4c-13.2-6.4-23.6-15.9-29.4-29.7c0-1.7,0-3.5,0-5.3c1.8-0.2,1.8,1.9,3.2,2.1
		c0.3,0.4,0.7,0.8,1,1.1c0.2,3.3,2.1,5.5,4.4,7.6C163.4,332.6,163.7,332.9,164.1,333.3z"/>
	<path class="st0" d="M316.4,454.4c-3.7-0.1-7.6,0.9-11.2-0.7c-4.2-1.8-4.7-3.8-1.2-6.5c6.6-5.1,14.3-6.6,22.4-4.9
		c3.2,0.7,5.9,3.1,5.7,6.9c-0.2,3.9-3.5,4.7-6.6,5.1C322.5,454.7,319.4,454.4,316.4,454.4z"/>
	<path class="st4" d="M363.9,553.5c-1.6-2.5-6-1.7-6.5-5.5c9.5,4.8,19.3,8.8,30,10.2c8.4,1.1,16.8,2,25.3,1.8c0,0.3,0,0.7,0,1
		c-15.1,0.8-30.2-2-45.3-0.9c-24.8,1.8-49.7,0.4-74.5,1.1c-7.7,0.2-15.4,1.1-22.2,5.3c2.3-5.7,7.7-6,12.5-6.5
		c23.4-2.1,46.9-0.9,70.4-1.2c6.7-0.1,13.3,0.3,20.7-1.6C370.5,555.6,366.8,555.5,363.9,553.5L363.9,553.5z"/>
	<path class="st0" d="M279.5,462.2c-3.4,0-5.3-0.1-7.2-0.8c-5.5-2-7.1-4.7-5.7-9.7c1.6-5.6,3.6-6.7,9.6-5.5
		c3.8,0.7,7.3,2.1,10.2,4.7c4.9,4.4,4,8.7-2.3,10.7C282.2,462.1,280.1,462.1,279.5,462.2z"/>
	<path class="st0" d="M426.3,442.3c-4.3-0.8-8.6-0.8-11.2-5.3c-1.4-2.4-4-4.1-6-6.2c-0.9-1-2.7-1.8-1.9-3.4c0.6-1.2,2.3-1,3.5-0.8
		c6.1,1.6,12.8,1.7,17.5,6.9c1.6,1.8,2.8,3.9,2.3,6.3C430.1,441.9,428,442,426.3,442.3z"/>
	<path class="st4" d="M349.6,475.2c6.8-7.7,16-11.1,25.7-12.7c21.6-3.6,42.3,0.6,62.4,8.6c0.8,0.3,1.5,0.8,2,2.1
		c-7.1-2-14.2-4.1-21.4-5.9c-15.9-4.1-31.8-5.8-48.1-1.7c-7.5,1.9-13.9,5.9-20.1,10.1C349.9,475.5,349.8,475.4,349.6,475.2z"/>
	<path class="st4" d="M143.6,542.9c7.4,3.8,15.3,2,23,1.9c3.1-0.1,6.3-1.3,9.4-2c1.8-0.4,3-1.2,2.6-3.2c3.5-0.1,7.1-0.2,10.6-0.3
		c1.1,0.2,2.4-0.2,3.2,1.1c-3.3,0.8-6.7,1.4-10,2.4c-9.4,2.9-18.8,5-28.7,4.1c-5.6-0.5-11.2-0.4-16.6,1.2
		C138,544.8,143.1,546.7,143.6,542.9z"/>
	<path class="st2" d="M192.3,540.4c-0.8-1.3-2.1-0.9-3.2-1.1c9.4-3.2,19.3-4,29-4.9c11.6-1.1,23.3-2.3,35-0.9
		C232.8,534.9,212.4,536.3,192.3,540.4z"/>
	<path class="st4" d="M339,525.3c-3.8-1.4-0.9-5.6-3.2-7.6c-1.7-10.7-0.4-21,4.5-30.7c0.6-1.2,1.1-2.7,2.7-3.2
		c0.2,0.1,0.4,0.3,0.5,0.4C336.2,497.3,335.1,511,339,525.3z"/>
	<path class="st2" d="M412.7,561.1c0-0.3,0-0.7,0-1c6.4,0,12.9,0,19.3,0c0,0.3,0,0.7,0,1C425.6,561.1,419.1,561.1,412.7,561.1z"/>
	<path class="st4" d="M343.3,535c-3.5-2.3-4.3-5.9-4.3-9.8C341.1,528.2,343.1,531.2,343.3,535z"/>
	<path class="st4" d="M357.4,548.1c-3.4,0.3-5-1.9-6.5-4.3C353.8,544,355.8,545.8,357.4,548.1z"/>
	<path class="st4" d="M342.9,483.8c0.6-2.6,1.4-5,4.7-5.1c-1,2.1-2.3,4.1-4.2,5.6C343.3,484.1,343.1,483.9,342.9,483.8z"/>
	<path class="st4" d="M350.9,543.7c-2.6-0.4-3.1-2.4-3.3-4.5C349,540.4,350.9,541.4,350.9,543.7z"/>
	<path class="st4" d="M264.1,572.2c-1.6-3.7,1.8-2.6,3.2-3.4C266.6,570.2,265.5,571.3,264.1,572.2z"/>
	<path class="st2" d="M486.5,533c-1-0.2-2.2,0.2-2.6-1c-0.1-0.2,0.5-0.9,0.8-1C486.1,530.8,486.4,531.8,486.5,533
		C486.6,532.8,486.5,533,486.5,533z"/>
	<path class="st4" d="M267.3,568.7c0.1-2.2,1.6-2.3,3.2-2.2C269.9,568,268.8,568.7,267.3,568.7z"/>
	<path class="st4" d="M345.5,537.2c-1.5,0-2.2-0.8-2.2-2.2C344.8,535,345.3,535.9,345.5,537.2z"/>
	<path class="st4" d="M350.1,475.6c-0.4,1.3-1.1,2.4-2.5,3c-0.4-1.7,0.8-2.6,2-3.4C349.8,475.4,349.9,475.5,350.1,475.6z"/>
	<path class="st4" d="M491.8,538.4c1.7-1.7,2.1-0.6,2.3,1c-0.4,0-0.7,0-1.1,0C492.6,539.1,492.2,538.7,491.8,538.4z"/>
	<path class="st4" d="M134.9,549.2c0.4-1,1.3-1.1,2.2-1.1C136.6,549,135.8,549.2,134.9,549.2z"/>
	<path class="st4" d="M131.7,551.4c0.4-1,1.3-1.1,2.2-1.1C133.4,551.1,132.6,551.4,131.7,551.4z"/>
	<path class="st4" d="M133.8,550.3c0.4-0.4,0.7-0.7,1.1-1.1C134.6,549.6,134.2,549.9,133.8,550.3z"/>
	<path class="st4" d="M346.8,538.3c-0.5-0.4-0.9-0.8-1.4-1.1C345.9,537.6,346.4,538,346.8,538.3z"/>
	<path class="st0" d="M353,106.8c2.9-3.3,7.5-4.1,10.5-7.3c2.1-2.2,2.5,0.3,2.9,1.7c1.9,5.7,2.7,11.5,3.3,17.4c-0.3,2-0.4,4,0.3,6
		c-0.1,2.2-0.2,4.4-0.3,6.7c-0.9,5.1-1.8,10.2-2.7,15.3l0,0c-1.6,1.5-2,3.4-2.2,5.4l0,0c-1.2,0.8-1.7,1.9-1.1,3.3l0,0
		c-3.1,3.1-5.5,6.6-6.5,10.9l0,0c-3,0.6-4.5,2.8-5.4,5.5l0,0c-0.7,0-1.1,0.4-1.1,1.1l0,0c-3.5,2.6-7.6,4.6-9.8,8.7l0,0
		c-4.3,2.5-8.8,4.6-12,8.7l0,0c-1.3-0.5-2.1,0-2.6,1.2c-0.3-0.1-0.4,0-0.5,0.3c-4.1,2-8.4,3.5-11.3,7.3c-0.3,0.4-0.5,0.8-0.8,1.2
		c-0.9-0.1-2.1-0.9-2.2,0.9l-0.1-0.1c-7.6,2.1-13.3-2.3-14-10.8c-1.3-15.8,1.3-30.7,8.8-44.9c1.4-2.7,5.1-4.3,4.5-8.1l-0.1-0.1
		c3.9-2.4,6.9-5.5,8.7-9.8l0,0c3.4-0.6,5.5-3,7.6-5.5l0,0c1.5-0.1,2.7-0.7,3.3-2.2l0,0c3.3-1.5,6.7-2.9,9.4-5.5
		c1.2-0.7,2.3-1.5,3.5-2.2C347.3,111.7,350.3,109.6,353,106.8z"/>
	<path class="st0" d="M235.7,305c-19.4,8.4-39.3,4.5-48.1-17c-5.7-14-4.3-28.7,1.4-42.7c0.9-2.2,1.8-4.4,2.7-6.6
		c1.3-1.7,2.6-3.4,4-5.1c6.5-8.2,12.2-9.2,21-3.7c0.8,0.5,1.6,0.8,2.4,1.2c15.5,17.8,21.3,38.8,20,62
		C238.8,297.3,237.8,301.3,235.7,305z M225.5,256.2c-1.2-3.6-2.7-6.9-5.4-9.8c-6.9-7.5-15.6-7.5-22.1,0.4c-3.4,4.2-6.6,8.9-5.5,14.9
		c-0.3,9.7-1.2,19.6,9.1,25.5c0.4,0.2,0.9,0.5,1.3,0.7c1.2,0.7,2.3,1.3,3.5,2c6,3.3,12.7,2.6,17.5-2c3.5-2.8,5.1-6.4,5.5-10.9
		C230,269.7,226.9,263.1,225.5,256.2z"/>
	<path class="st5" d="M343.2,111.8c-1.2,0.7-2.3,1.5-3.5,2.2c-4,0.3-7.7,1.1-9.4,5.5l0,0c-1.8-0.3-3.3-0.2-3.3,2.2l0,0
		c-4-0.2-6.2,2.1-7.6,5.5l0,0c-4.5,1.9-7.2,5.3-8.7,9.8l0.1,0.1c-6.8,3.8-8,11.2-10.7,17.5c-3.2,7.2-4.3,15.2-5.3,23
		c-0.6,4.8,1.1,9.9,0.2,15.5c-6-3.4-11.7-6.7-17.4-10c0-18.9,7.4-35.3,17.8-50.5c6.4-9.4,14.1-17.7,23.1-24.7
		c0.9-0.7,1.2-1.2,0.7-2.1c0.8,0,1.5,0,2.3,0c7.8,1.8,15.8,0.4,23.7,0.8c1.4,0.1,2.8,0.2,4.3,0.3C348.3,109.5,344.4,109,343.2,111.8
		z"/>
	<path class="st5" d="M313.9,199.8c0.3-0.4,0.5-0.8,0.8-1.2c4.5-1.3,9-2.6,11.3-7.3c0.1-0.3,0.3-0.4,0.5-0.3c1,0,2.2,0.2,2.6-1.2
		l0,0c5.8-0.4,8.8-4.6,12-8.7l0,0c4.8-1.1,8-4.1,9.8-8.7l0,0c0.8,0,1.1-0.4,1.1-1.1l0,0c3.2-0.5,4.8-2.4,5.4-5.5l0,0
		c3-3.1,6.5-5.9,6.5-10.9l0,0c1.6-0.7,1.3-2,1.1-3.3l0,0c3.6-0.7,2-3.4,2.2-5.4l0,0c3.5-2.3,1.1-7.2,4.3-9.6c1,2.1,2.3,4.1,2.3,6.5
		c-4.4,12.7-11.7,23.7-20,34.1c-9.6,12.2-22.5,20.4-35.8,27.9c-1.9,1.1-4.7-0.3-6.2,2.2c-5.1-2.3,0.5-4.7-0.1-7l0.1,0.1
		C312.6,200.9,313.4,200.6,313.9,199.8z"/>
	<path class="st3" d="M219.1,231.1c-0.8-0.4-1.6-0.8-2.4-1.2c-8.9-5.5-14.6-4.5-21,3.7c-1.3,1.7-2.6,3.4-4,5.1
		c1.8-7.1,4.8-13.5,11.2-17.5c4.4-2.8,10.4-0.4,13.9,5.3C217.7,227.8,219.2,229.1,219.1,231.1z"/>
	<path class="st4" d="M143.5,197.6c-5.8-3.3-6.9-9.5-8.6-15.1c-3.5-11.2-2.8-23.1-6.3-34.4c-2.7-8.5-6.7-16.2-10.1-24.3
		c1.3-0.2,2,0.6,2.5,1.6c6.4,11.6,10.9,23.9,12.6,37c1.5,11.8,2.2,23.6,9.8,33.6C143.7,196.4,143.5,197.1,143.5,197.6z"/>
	<path class="st4" d="M117.4,200.8c5,0.5,8.5,4.2,13,5.8c5.9,2.1,11.8,4.4,18.1,4.9c1.8,0.1,4,0.6,5.6-1.2
		c-3.3-4.5-9.7-6.2-10.7-12.6c5.1,3.1,8.4,8.1,13.1,11.8c2.7,2.1-0.6,3.2-2.4,3.3c-4.8,0.4-9.7,0.6-14.4-1
		C131.9,209,123.5,207.1,117.4,200.8z"/>
	<path class="st4" d="M118.6,123.8c-2.2-2.7-5.2-4.8-5.4-8.7C116.5,117,118.7,119.7,118.6,123.8z"/>
	<path class="st4" d="M96.9,185.6c3.2,1.5,5.8,3.5,7.6,6.5C101.2,190.9,98.1,189.3,96.9,185.6z"/>
	<path class="st4" d="M92.5,183.3c1.9,0,3.6,0.4,4.4,2.3c-1.1,0-2.2,0-3.2-0.1C93.3,184.8,92.9,184,92.5,183.3z"/>
	<path class="st4" d="M113.1,115.1c-1.7,0.3-2.2-0.7-2.2-2.2C112.6,112.8,113.2,113.6,113.1,115.1z"/>
	<path class="st4" d="M104.5,192.1c1.8-0.3,2.7,0.8,3.3,2.2C106.1,194.4,105,193.8,104.5,192.1z"/>
	<path class="st4" d="M107.8,194.2c1-0.2,1.7,0.1,2.1,1.1C109,195.3,108.2,195.2,107.8,194.2z"/>
	<path class="st4" d="M111,113c-0.8,0.1-1.1-0.3-1.1-1.1C110.6,111.8,111,112.2,111,113z"/>
	<path class="st4" d="M222.1,590.3c2.7-1.8,5.5-3.5,8.2-5.3c6.9,0,12-4.1,17.4-7.6c1.6-0.7,3.3-1.4,4.9-2.1c2.1,0.1,4.1,0.2,6.2,0.3
		c-13.7,5.1-26.6,11.3-38.9,19.8C220.1,593,222.5,592.2,222.1,590.3z"/>
	<path class="st4" d="M215.3,594.7c-12.4-3.2-24.9-5.1-37.8-4.3c-2.4,0.1-4.8,0.3-7.2,0c7.1-3.4,14.6-2.3,21.9-1.9
		c6.7,0.4,13.4,2.1,20.1,3.4c1.2,0.2,2.4,0.8,3,2.1C215.4,594.2,215.4,594.5,215.3,594.7z"/>
	<path class="st4" d="M208.5,605.3c0.1-1.1,0.1-2.3,1.3-2.9C209.7,603.5,210.1,604.8,208.5,605.3z"/>
	<path class="st4" d="M505,550.3c4.7,0.4,3.8-4.9,6.5-6.5c0,0.4,0.2,0.8,0,1.1c-3.4,6-2.2,12.2-1.1,18.4
		C508.6,558.9,506.8,554.6,505,550.3z"/>
	<path class="st4" d="M496.3,540.5c3.8,1.3,6.3,3.8,7.6,7.6C500.1,546.8,497.6,544.3,496.3,540.5z"/>
	<path class="st4" d="M503.9,548.1c0.9,0.4,1.1,1.2,1.1,2.1C504,549.8,503.8,549,503.9,548.1z"/>
	<path class="st4" d="M494.1,539.4c0.9-0.1,1.7,0.2,2.1,1.1C495.4,540.5,494.6,540.3,494.1,539.4z"/>
	<path class="st4" d="M131.7,524.1c1.7,1,2.6,2.4,1.7,4.8c-1.6-1.3-1.8-3-1.9-4.7C131.5,524.3,131.7,524.1,131.7,524.1z"/>
	<path class="st4" d="M129.4,520c-0.3-0.4-0.5-0.7-0.7-1.1c0,0,0.3-0.2,0.5-0.4c0.1,0.4,0.3,0.9,0.4,1.3L129.4,520z"/>
	<path class="st4" d="M130.6,522c0.4,0.7,0.7,1.4,1.1,2.2l-0.2,0.1c-0.9-0.5-1-1.3-1.1-2.2C130.5,522.1,130.6,522,130.6,522z"/>
	<path class="st4" d="M129.6,519.8c0.3,0.7,0.7,1.5,1,2.2l-0.1,0.1c-0.4-0.7-0.8-1.4-1.1-2.1L129.6,519.8z"/>
	<path class="st2" d="M345.3,106.4c-7.9-0.4-15.8,1-23.7-0.8C329.5,105.5,337.5,104.4,345.3,106.4z"/>
	<path class="st4" d="M371.4,136.9c-3.1,2.5-0.8,7.4-4.3,9.6c0.9-5.1,1.8-10.2,2.7-15.3C370.3,133.1,370.8,135,371.4,136.9z"/>
	<path class="st4" d="M343.2,111.8c1.2-2.9,5.1-2.4,6.4-5.2c1.1,0,2.3,0.1,3.4,0.1C350.3,109.6,347.3,111.7,343.2,111.8z"/>
	<path class="st4" d="M370.1,124.6c-0.7-2-0.7-4-0.3-6C370.8,120.6,370.5,122.6,370.1,124.6z"/>
	<path class="st1" d="M308.6,272.4c-0.3,2.3-1.1,3.5-3.1,3.4c-2,0-2.7-1.3-2.8-3.1c-0.2-2.3,2.3-2.3,3.2-3.7
		C306.9,270.3,307.8,271.5,308.6,272.4z"/>
	<path class="st3" d="M247.8,577.4c-5.4,3.5-10.5,7.6-17.4,7.6C236.1,582.4,241.5,578.7,247.8,577.4z"/>
	<path class="st4" d="M363.9,553.5c-0.1,0.1-0.1,0.3-0.2,0.4C363.7,553.8,363.8,553.7,363.9,553.5L363.9,553.5z"/>
	<path class="st4" d="M341.1,181.2c-3.1,4.1-6.2,8.3-12,8.7C332.2,185.8,336.8,183.7,341.1,181.2z"/>
	<path class="st4" d="M326,191.4c-2.4,4.6-6.8,6-11.3,7.3C317.6,194.9,321.9,193.3,326,191.4z"/>
	<path class="st4" d="M350.8,172.5c-1.8,4.6-5,7.6-9.8,8.7C343.2,177.1,347.3,175.1,350.8,172.5z"/>
	<path class="st4" d="M310.8,136.9c1.5-4.5,4.2-7.9,8.7-9.8C317.7,131.3,314.7,134.5,310.8,136.9z"/>
	<path class="st4" d="M363.8,155.2c0,4.9-3.5,7.8-6.5,10.9C358.3,161.7,360.7,158.3,363.8,155.2z"/>
	<path class="st4" d="M330.3,119.5c1.6-4.4,5.4-5.1,9.4-5.5C337,116.6,333.6,118,330.3,119.5z"/>
	<path class="st4" d="M319.4,127.1c1.4-3.4,3.6-5.6,7.6-5.5C324.9,124.1,322.9,126.5,319.4,127.1z"/>
	<path class="st4" d="M357.3,166c-0.6,3-2.3,5-5.4,5.5C352.8,168.8,354.3,166.6,357.3,166z"/>
	<path class="st4" d="M367.1,146.5c-0.2,2,1.3,4.8-2.2,5.4C365.1,149.9,365.5,148,367.1,146.5z"/>
	<path class="st4" d="M327,121.7c0-2.3,1.5-2.5,3.3-2.2C329.7,120.9,328.5,121.6,327,121.7z"/>
	<path class="st4" d="M329.1,189.9c-0.4,1.4-1.6,1.2-2.6,1.2C327,189.8,327.8,189.4,329.1,189.9z"/>
	<path class="st4" d="M364.9,151.9c0.1,1.3,0.5,2.6-1.1,3.3C363.2,153.8,363.7,152.7,364.9,151.9z"/>
	<path class="st4" d="M313.9,199.8c-0.5,0.8-1.2,1.1-2.2,0.9C311.8,198.9,313,199.7,313.9,199.8z"/>
	<path class="st4" d="M351.9,171.5c0,0.7-0.3,1.1-1.1,1.1C350.8,171.9,351.2,171.5,351.9,171.5z"/>
	<path class="st3" d="M203.9,265.5c0.9-0.3,10.1-1.9,12,3.4c1,2.8-0.6,5.6-1.4,8.5c-0.8,3.4-3.6,5.9-7,6.8c-0.4,0.1-0.9,0.3-1.3,0.5
		c-0.4,0.2-0.9,0.2-1.3,0c-0.1,0-0.1-0.1-0.2-0.1c-0.3-0.2-0.6-0.4-0.7-0.8c-1.2-3.3-2.4-6.7-3.7-10.1c-1.7-4.1-0.8-7,3.6-8.4
		c0,0,0.1,0,0.1,0"/>
	<path class="st3" d="M225.5,256.2c-1.5,0.3-2.3-0.7-3.1-1.8c-8.4-11.5-23.9-6.1-28,4.2c-0.4,1.1-0.6,2.5-1.9,3.1
		c-1.1-6,2.1-10.7,5.5-14.9c6.4-7.9,15.1-7.9,22.1-0.4C222.7,249.3,224.2,252.6,225.5,256.2z"/>
	<path class="st0" d="M201.1,262.9c-0.1-0.1-0.2-0.2-0.3-0.3C200.9,262.7,201,262.7,201.1,262.9
		C201.2,262.8,201.1,262.9,201.1,262.9z"/>
</g>
</svg>
