<?xml version="1.0" encoding="utf-8"?>
<!-- Generator: Adobe Illustrator 19.1.0, SVG Export Plug-In . SVG Version: 6.00 Build 0)  -->
<svg version="1.0" id="Layer_1" xmlns="http://www.w3.org/2000/svg" xmlns:xlink="http://www.w3.org/1999/xlink" x="0px" y="0px"
	 viewBox="0 0 612 792" style="enable-background:new 0 0 612 792;" xml:space="preserve">
<style type="text/css">
	.st0{fill:#0D1C0C;}
	.st1{fill:#356632;}
	.st2{fill:#1C8F45;}
	.st3{fill:#277B3D;}
	.st4{fill:#2F6E36;}
	.st5{fill:#FFFFFF;}
</style>
<path class="st0" d="M222.9,248.5c3.8-1,5-3,5.2-7.3c0.2-4.8,2.1-9.9,6.8-13c0.6,2.4-1.1,4.1-1.7,6.2c-1.6,5.4-4.2,10.7-3.6,16.6
	c1,9.9,0.9,19.6-2.8,29.2c-1.7,4.4-5.8,6.7-8.1,11.4c7.1-0.9,13.5-0.5,18.5-6.2c5.1-5.7,13.6-6.6,19.1-11.4
	c6.2-5.4,17.3-9,12.1-21.3c-0.3-0.8,0.6-2.3,1.3-3.2c4.6-5.9,5.3-13.1,7.1-19.9c1-3.8-0.2-4.4-3.7-4.3c-6.4,0.3-9.9,3.9-12.7,9.1
	c-4.6,8.7-9.7,17-17.1,25.4c0.5-3.5,1.4-5.3,2.4-7.2c3.5-6.8,9-12.5,12-19.7c2.6-6.2,7.1-9.9,14.2-9.4c1.4,0.1,3.6,0.6,3.9-1.6
	c0.2-1.7-1.7-2.7-3.1-3.2c-7-2.3-13.4,0.5-19.8,2.6c-6.1,2-12,4.6-18,6.9c2.8-4.3,6.5-6.5,11.8-6c1.2,0.1,3.5,1.1,3.7-1.5
	c0.2-3.2-2.4-1.8-3.8-1.9c-3.2-0.2-6.3-0.1-9.5,0c-5.4,0.1-10.6,0.3-13.4-5.8c-0.9-1.9-3.5-2.6-4,0.4c-2,11.5-8.4,20.7-14.7,30.1
	c-1.5,2.2-3.1,4.4-3.3,7.3c-0.1,1.9-0.5,4.2-2.5,4.7c-2.5,0.6-3.3-2-4.8-3.5c-1.4-1.4,0.4-5.2-3.1-4.6c-2.5,0.5-2,3.3-2.9,5.1
	c-4.9,9.5-9.2,19.3-15.2,28.2c-2.1,3.2-5.8,4.3-8.6,6.6c-6,4.8-10.9,11.2-18.7,13.6l-0.2-0.2c0.1-1.8,1.4-2.6,2.8-3.4
	c5.9-3.4,10.3-8.7,15.4-13c3.4-0.7,5.4-3.4,7.2-5.8c14.1-18.7,18.5-40.4,18.2-63.4c-0.9,1.7-1.5,3.4-1.9,5.3
	c-2.1,9.9-5.3,19.1-12.3,27.1c-4.9,5.6-10.3,10.8-15.1,16.5c-6.4,5.6-14.4,8.5-21.4,13.1c-2.5,0.3-4.1,2.1-6.1,3.3
	c-3.4,2.1-5.1,6.4-9.4,7.5c-1-2.8,1.5-3.9,2.9-5.1c3.6-2.9,7.5-5.5,11.3-8.2c7.4-4.8,16.3-7.6,21.8-15.2
	c12.4-11.3,22.8-23.7,25.5-41c0.5-3.4,1.1-6.5,6.2-7.7c-5.1-2.5-8.8-4.1-12.9-1.3c1.6-4.4,4.1-8.4,4.7-13.1c0.2-1.5,1-3.8-0.8-4.2
	c-4.2-0.8-8.6-4.7-13,0c-1.2,1.3-2.8,2.1-4.7,2.2c-0.1-0.1-0.3-0.3-0.4-0.4c2.2-3.5,5.8-4.8,9.5-5.9c1.5-0.4,2.9-0.7,4.4-1.2
	c2.8-1,5.9-3.2,5.6-5.8c-0.3-2.5-4.2-1.6-6.3-1.2c-10.4,2-15.2-4.4-19-12.2c-3.1-6.5-5.7-13.3-8.4-19.9c0.3-0.3,0.5-0.6,0.7-0.8
	c3.8,3.1,5.3,7.6,6.8,12c2,6,4.9,11.4,9.3,16c2.6,3,10.8,5.1,13.1,3.2c1.9-1.5,1.4-10-0.8-12.7c-0.9-1.1-1.9-2-1.8-3.6
	c5.3,0.1,4.7,5.6,7.5,8.1c1.4,1.3,2.3,3.7,4.2,0.6c6-9.8,4.6-20.9-3.9-28.9c-2-1.9-4.4-3.3-6.6-4.9c-10.3-10.1-23.7-11.5-36.9-13.6
	c-1.8-0.3-3,0.4-2.4,2.1c1.4,3.8,1.9,8.2,5.5,10.8c10.8,7.9,21.7,15.6,32.6,23.4c0,0.8,0,1.6,0,2.5c-3.4,0-4.2-4.1-7.2-4.7
	c-5.6-4.3-11.2-8.8-17-12.8c-1.2-0.8-3.4-4.5-5.5-0.4l-0.1,0.1c-6.1-6.5-9.3-14.7-13.4-22.3c-0.9-1.7,0.2-2.4,1.2-2.2
	c13.3,2.4,27,3.4,39,10.5c4.6,2.7,8.6,6.6,12.8,10.1c5.3,4.4,8.5,10.1,8,17.1c-0.3,4.5,3.2,4.1,5.2,4.4c3.4,0.5,1.8-2.7,1.9-4.3
	c0.9-14.2,9.2-23.6,20.2-31.3l0.2,0.2c-0.8,4-4.4,5.8-6.9,8.4c-5.4,5.7-8.9,12.4-10.7,19.9c-0.6,2.5-1.5,5.6,2.1,7.1
	c6.3,2.5,12.6,5,18.9,7.5c1,1.1,1.9,3.9,3.1,3c3.6-2.8,8.7-2.1,11.8-5.3c2.9-3,5.2-6.5,8.3-9.2c4.2-3.7,6.7-9.5,13.1-10.7
	c-6.1,7.7-12.6,15-19.3,22.1c-1.8,2-5.6,12.6-4.1,13.3c3.4,1.6,7.2,1.1,10.9,0.3c0.6-0.1,1.1-0.4,1.7-0.6c8.7-2.9,18.1-4,25.4-10.4
	c0.6-0.5,1.9-0.2,2.8-0.3c-5.2,4.5-10,9.4-17.6,9.6c-1.5,0-3.8,0.6-4.1,2.6c-0.3,1.8,0.9,3.2,2.1,4.6c7.8,9.2,19.7,14,25.8,25.1
	c3.3-5,5.4-9.8,9.6-13.2c2.6-2.1,3-5.1,3.3-8.3c1.3-11.7-2.3-22.6-5.6-33.4c-0.4-1.2,0.5-3.5-2-3.7s-2.7,2.2-3.1,3.5
	c-1.6,5.2-4.1,9.8-8.4,13.3c5.2-12.3,9-25,14.8-37c4.4-9.2,11-15.7,21.4-18.3c-3.8-2-7.3-2-11.1-1.4c-10.4,1.6-16.9,8.8-23.8,15.4
	c-9.3,8.8-18.5,16.9-33,14c-5.9-1.2-11.8,2.5-18,2.1c-3.4-1.8-4-4.1-1.9-7.5c1.8-2.8,3.4-5.6,5.6-8.3c3.7-4.5,8.6-8.1,10.4-14
	c0.2-0.2,0.4-0.3,0.6-0.5c-0.1,0-0.3,0-0.3,0.1c-0.1,0.1-0.1,0.3-0.2,0.4c-6.4,0.7-11.7,4.5-17.7,6l-0.2-0.2
	c3.7-4.1,8.8-5.9,13.8-6.8c4.9-0.9,2.8-2.7,1.7-4.9l0.1-0.1c3.9,2.6,6.3,1.7,9.2-2.2c4.1-5.6,10.3-6.8,17.3-6.4
	c4.6,0.3,9.9,1,12.7-4.4l0.1-0.1c6,3.9,12.7,2.2,19.1,2.4c4.1,0.1,1.7-3,2.1-4.6c4.2,1.2,7.2,5.9,12.5,4.2
	c-18.8-21.8-29-27.9-37.9-25.8c4.6,4.8,10.4,7.2,16.3,9.3c5.8,2.1,8.8,6.2,9.1,12.4c-2.4,0.6-2.6-1.6-3-2.8c-1.8-5.4-6-7.4-10.8-9.3
	c-6.3-2.5-12.8-5-15.8-12.1c9.8-2.4,25.7,4.6,32.2,13.4c3.3,4.4,6.2,9.4,11.4,12.1c1.1,0.6,2.2,1.2,3.2,0.7c1.2-0.6,0.9-2.2,0.6-3.2
	c-1.2-4-2.3-8.1-4-11.9c-5.9-12.8-4.8-26-2.5-39.3c0.6-3.2,0.4-6.2,0.5-9.3c0.1-1.7,0.3-3.3,2-3.8c2.1-0.7,1.9,1.7,2.5,2.6
	c3.4,5.2,4,11.4,6.5,17c3.2,7.1,7.2,13.7,8.8,21.6c1.1,5.5-1.7,10.2-0.7,15.8c1,0.6,1.9-2,3.4-1.2c-0.9,3.8-4.3,6.6-4.4,10.7
	c-2.1,2-0.7,6.2-4.8,7.5c0.7-4.3,1.3-8.2,2-12c2.1-12.4,3.5-24.7-4.5-35.8c-2.8-5.2-3.4-11.4-7.1-16.8c-3.8,12.6-4.1,24.7-1.4,34.6
	c3,11.4,9.7,22,7.4,34.5c-5.4-6.5-12.4-8-20.4-7.2c-4.6,0.4-9.4,0.2-14,0.2c-7.2-1.5-13.7,3.2-21,2.3c-6.7-0.8-12.2,2.2-15.9,8.1
	c-2.7,4.1-5.4,8.2-8.4,12.1c-3.7,4.8-8.7,8.6-11.3,14.3c-0.6,1.4-2.2,2.6-1.1,4.3c1,1.5,2.5,0.4,3.8,0.4c6.5,0,12.9-2,19.4-1.3
	c5.2,0.6,9.6-1.3,13.6-4.5c10-8.2,18.3-18.5,30.4-24c7.7-2.4,15-1.2,22.1,2.2c2.9,1.4,4.9,4.6,8.8,3.8c0.9,1.4,2.4,2.8,3.7,2.1
	c5.6-3,12.8-0.7,17.7-5.7c1.7,0.1,2.9-2.1,4.8-1.2c-2.4,4.6-7.4,5.4-11.6,7c-3,1.1-7.5,0.2-9.3,2.1c-2.3,2.4,1.1,5.9,1.7,9
	c2.4,12-0.8,23-5.7,33.8c-1.6,3.5-3.8,7.1-3.8,11.3c0,2.5,0.6,3.9,3.3,3.2c6.3-1.7,12.7-2.1,19.2-1.2c2.4,0.3,4.5,0.6,6.2,2.4
	l-0.2,0.2c-6.7,0-13.4-0.2-20.1,0c-3.4,0.1-7.3,0.7-7,5.3c0.3,5.7,1.3,11.3,2,16.9c0.2,1.6,0.6,3.1,3,2c10.7-4.7,21.4-9.3,31.9-13.8
	c-10.6-8-19.4,1.1-29.1,2.9c6-5.4,11.8-10.7,20.5-8.9c1.6,0.3,2-0.8,2.3-2l0.2-0.2c6,5.3,13.3,6.8,21.1,7.4c2.8,0.2,6.7-0.2,8.6,3.3
	l-0.1,0.1c-6.6-1.5-13.4-2.7-19.8-0.2c-18,7.1-36,14.3-51.5,26.5c-15.1,12-23.6,28.3-30.2,45.8c-1.3,3.5,1,2.6,2.7,2.2
	c6.4-1.6,10.6-6.2,14.1-11.2c8.4-11.9,18.5-22.5,31.3-29.1c17.4-8.9,34.4-18.6,52.4-26.1c3-1.3,6-3,9.7-1.6
	c-2.5,7.7-10,11.9-13.9,20.2c3.7-2.2,6-4.2,8.7-5c3.8-1.2,6.4-2.8,6.2-7.3c-0.1-1.5,0.8-3,1.4-4.5c0.5-1.2,0.9-2.9,2.8-2.5
	c1.5,0.3,1.4,1.7,1.5,2.8c0.9,8.9,6.2,14.1,14.3,16.9c5.3,2.1,10.6,4.1,15.8,6.4c4.2,1.9,5.4,0,5.5-3.8c0.4-8-3.7-13.9-11.9-16.7
	c-8.9-3.6-14.2-11.5-20.7-17.9c-6.2-6.2-5.8-8.3,0.6-14.1c2.8,0.1,4.2-1.7,5.5-3.8c1.4-2.1,3-4,4.9-5.9
	c11.4-10.9,25.4-13.7,40.5-13.1c1.1,0.5,3.4,1.1,0.6,2.2c-1.7,0.7-3.9,0.1-5.8,0.2c-12.7,0.7-24.1,4.5-32.8,14.3
	c-0.1,0.1-0.3,0.1-0.4,0.2c-0.1,0.1,0,0.2-0.1,0.3c0.1-0.2,0.3-0.4,0.4-0.6c7-1,13.9-2.5,21-2.4c9.6,0.1,18.5-2.7,27.2-6.6
	c10-4.5,18.9-12.7,31.2-10c0.9,0.2,2.2,0,2.2-1.3c0-0.6-0.7-1.5-1.3-1.8c-4.3-2.2-8.4-5.2-13.6-5.2c-4.9,0-9.7-1-14.5-2.2
	c-1.1,0-2.3,0-3.4,0c-1.2,0-2.4,0-3.7,0c-5.8,0-11.2-1.2-16.2-4.5c-2.5-1.7-5.8-2.8-8.8-3.2c-14.1-2-24.3-0.2-28.1,15.8
	c-1.5,6.3-1.9,12.8-2.7,19.2c-0.2,1.7,0.4,4-2,4.2c-2.1,0.2-2-2.3-2.4-3.6c-2.4-8.6-7.1-16.1-12.2-23.4
	c-5.6-9.4-12.7-17.5-24.3-18.6c-7.6-0.8-15.4-0.1-23.1-0.1c-0.9,0-2.3,0-2.1,1.3c0.1,0.8,1,1.6,1.8,2.1c3,1.8,6.4,3.2,7.4,7.1
	c3.5,5,5.1,10.6,4.6,16.7c0.3,0.4,0.6,0.9,1,1.3l-0.1,0.2c0.3,7.8,5.7,12,11.3,16.2c5.9,4.4,11.8,8.9,15,15.8
	c-2.7-0.3-4.8-2.1-6.3-3.9c-5.3-6.3-12.1-10.9-18.1-16.4c-4.8-4.3-6.2-9.7-6.5-15.6c-0.5-9.2-4-16.6-12.4-21.2c-1-0.6-2-1.1-2.9-1.9
	c-0.6-0.5-1-1.2-1.5-1.8c30.3-11.1,61.4,5.7,70,38.1c0.9-6.9,1.8-13.2,2.7-19.4c1-7.2,8.9-13.4,16.2-14.1c7.2-0.7,14.2-1.7,21.1,1.3
	c0.7,0.3,1.6,0.4,2.1,0.8c6.7,5.7,14.9,4.6,22.7,5.2c10.2,0.7,20.3,1.7,29.5,7c3.6,2,6,5.2,10.3,7.5c-3.3,1.5-5.9,1.2-8.2,0.9
	c-9.5-0.9-18,1.6-25.9,6.5c-11.2,7.1-23.4,10.6-37.6,10.3c4.9,6.5,9,13,15.1,16.6c2.6,1.6,7.9,1.3,12,1c9.1-0.7,17.8,1.6,26.7,2.6
	c2,0.2,4.1,1.4,5.7,2.6c2.2,1.6,3.6,2.9-0.7,4.6c-6.8,2.8-13.9,5.8-18.7,12.3c4.3,1.7,8.1-0.8,12-0.6c11.7,0.6,23.1,1.8,32.6,9.8
	c9.4,7.8,20.2,12.9,32.3,15.2c1.2,0.2,2.3,1,2.3,2.3c0.1,1.5-1.3,1.1-2.2,1.2c-12.1,1.3-20.8,9.1-30.6,15.1
	c-8.7,5.3-18.4,6.1-24.3-0.8c6.5,1.1,12.9,3.3,19.3-0.5c8.8-5.3,16.5-12.3,26.8-15.4c-1.7-2.2-3.7-2.5-5.5-3.3
	c-4.6-2.2-9.7-3.9-13.6-7c-11.3-9.1-23.8-14.5-38.2-12.8c-12,1.4-25.9-0.8-33.6,12.6c-0.4,0.7-2.9-0.1-1.5,2c1.3,2,4.3,3.2,5.5,2
	c6.3-6.2,14.4-4.2,21.7-5.6c5-1,9.4,1.2,12.5,5c-10.3-3.7-19.9-2-29.6,0.9c4.6,1.1,9.4,1.9,10.8,7.2c0.8,3.3,2.8,3.6,5.5,4.1
	c7.9,1.3,14.9,4.4,19.9,10.9c-1.5-0.6-3-1.1-4.5-1.7c-2.4-1-1,1-1.3,1.6c-2.4,0.6-3.6-1.4-5-2.6c-4.7-3.8-10.5-5.3-15.9-7.5
	c-1.6-0.7-3.7-1.4-4.9,0.4c-1,1.6,0.7,2.8,1.6,4.1c4.3,6.7,11.4,10.8,15.9,17.3c-0.2,0.2-0.5,0.4-0.8,0.6c-6.8-3.6-11-10.3-16.8-15
	c-1.6-2.1-2-6.6-5.8-5.1c-4.8,2-8.8,4-12.8-1.2c-0.8-1.1-2.6-0.9-3.6,0.5c-1.3,1.9,0.4,2.3,1.5,3c4.7,2.7,8.8,6.4,14.2,7.8
	c0.8,0.7,1.8,1.2,1.1,2.5c-0.8-0.1-1.5-0.2-2.3-0.2c-0.3-1.1-1.1-1.3-2.1-0.8c0.4,0.5,0.7,1.1,1.1,1.6c6.1,5.7,7.8,12.8,8.3,21
	c0.7,10,2.5,19.8-2.9,29c-2.9,4.9-5.9,9.8-8.1,15.3c8.8,2.9,17.2-0.6,25.7-0.5c1.4,0,2.8,0,4.2,0c1.3,0,2.4,0.1,2.2,1.9
	c-0.1,1.2-0.7,1.6-1.9,1.7c-10.5,1.1-18.4,8.4-27.6,12.5c-2.2,1-4.5,2.3-6.8,2.9c-4,1.2-6.1,3.6-6.3,7.7c0.3,0,0.6,0,0.9,0.1
	c13.9,7.4,19.4-5.8,27.3-11.8c5.5-4.2,11.4-6.6,17.9-2.4c9.4,6,18.3,12.8,27.6,19.1c2.8,1.9,5.9,3.5,8.8,5.4
	c0.7,0.5,1.7,1.1,1.5,2.3c-0.3,1.4-1.5,1.1-2.4,1c-6.9-0.6-13.2,1.2-19.8,3.3c-5.3,1.7-11.5,0.3-17.5,0.3c5.8,6.7,13.7,5.8,20.4,4.4
	c14.2-2.8,23.5,3.9,32.1,13.5c1.2,1.3,2.4,2.7,3.8,3.8c9.7,7.3,14.3,17.6,14.2,29.2c0,9.2,2.4,16.6,9.5,23.3
	c-5.7,1.7-10.1,0.2-14.1-1.8c-8.2-4.1-16.6-6.7-25.6-8.4c-6.9-1.3-10.7-7.7-14.8-13c-1.9-2.5-3.6-5.7-7.9-5.8c2.7,8-0.3,15.5-1.8,23
	c-2.2,11.1-2.8,22.3-4.4,33.4c-0.2,1.2,0.3,2.9-0.3,3.4c-1.5,1.2,0.4,4.6-2.8,4.4c-2.7-0.2-2.7-2.2-2.9-4.3
	c-0.4-2.8-2.6-4.6-4.3-6.7c-7.9-10.5-16.2-20.7-23.4-31.7c-10.6-16.2-9.2-33.6,4.1-48.3c1.2-1.3,2.5-2.5,3.8-3.8c7-7,7.1-7.1-2.1-11
	c-3.2-1.3-6.5-2.3-9.7-3.5c-3.1-1.2-6.2-2.5-10.1-4.1c8.3,16.1,4.4,30.6-2.9,44.3c-4.7,8.8-13.1,15.1-20.7,21.6
	c-5.3,4.5-9.9,9.6-14.8,14.4c-2.2,2.2-2.3,4.5,1.2,5.9c5.4,2.2,9.1,6.7,13,10.8c4.2,4.5,8.1,8.9,14.8,10.1c2.5,0.5,5.4,1.7,7.3,4
	l-0.1,0.1c-7.3-2.3-14.3-5.3-22.2-1.4c-7.9,3.9-16.7,6-24.3,10.8c-7.6,3.1-13.1-1.3-18.7-5.2c-1.8-1.2-3.2-2.9-4.8-4.3
	c-2.6-3-5.2-6.1-7.9-9.1c-3.1-3.4,0.6-2.2,1.8-2.7c4.9,0,9.2,3.5,14.3,2.3c12.4,4.5,25,7.4,38.3,5.8c1.5-0.2,5.2-0.7,2.4-3.4
	c-5.3-5.2-9.1-11.9-16.2-15.3c-3.6-1.7-5.4-1.5-6.6,2.4c-0.4,1.2,0.3,3.3-1.8,3.2c-2-0.1-2.4-2-2.1-3.6c1-5.2-1.8-5.9-6.1-5.5
	c-2.7,0.2-5.5,0-8,1.4c-5-0.7-9.5,1.6-14.3,2.4c-4.2,0.2-7.6,4.1-13,3.1c3.8-4.6,9.2-4.1,13-6.8c4.6,0.7,8.8-1.5,13.4-1.5
	c3.3,0,3.5-2.5,3.3-5c-0.7-6.5-5.1-11.3-11.8-12.8c-6.1-0.3-12.3,1.3-14.8,6.8c-2.7,5.8-6.2,11.7-5.5,18.8c0.5,4.9-1.8,6.1-5.9,3.2
	c-3.3-2-6.9-1.6-10.3-0.7c-8,2.1-15.2,6.3-22.8,9.5c-9.9,4.1-16.9,11.7-24.6,19c-6.7,6.4-11.3,13-12.5,22c-1.6,11.9-5,23-12.7,32.6
	c-3.1,3.8-5.4,8.2-7.9,12.5c-0.9,1.5-2.8,3.3-0.8,5.3c1.6,1.6,3.7,1.1,5.6,0.4c5.7-2.2,11.3-4.6,17.1-6.7c3.1-1.1,4.6-2.8,5-6.3
	c0.6-4.5,0.6-9,1.1-13.5c1.2-12.5,5.7-23.3,14.4-32.8c9.4-10.4,21.6-15.5,33.8-21c5.4-2.4,11.2-4.2,14.8-9.4
	c1.2-0.6,2.6-1.1,3.6-1.9c4.4-4.1,7.9-2.3,11.6,1.1c3.5,3.2,7.2,6,10.9,9c1.5,2.6,4.3,3.9,6.4,5.8c7,6.5,7.1,6.5-1,10.5
	c-12.5,4.6-24.3,10.1-29.3,24c-5.1,5.3-7.4,12.5-11.9,18.3c-5.9,7.5-8.1,16.7-9.2,25.8c-0.6,5.1-1.6,10-3,15
	c-1.1,3.8-3.6,7.4-2.5,12.3c3.7-2,6.7-4.7,10.7-5.5c16.8-3.5,27.6-16.1,39.9-26.4c6.4-5.8,11.2-12.8,15.2-20.4
	c6.6-10.6,7.2-22.3,5.4-34.4c4,14.7,9.9,28.8,9.1,44.3c-0.3,5.8,1.2,11.3,3.4,16.6c0.3,5,1.7,10,4.4,14
	c7.8,11.2,14.4,23.1,21.8,36.2c5.4-12.2,7.7-24,8.5-36.2c1.5-8.7,2.9-17.4,2-26.3c-0.1-3.4-1.5-6.4-2.3-9.6
	c-3-12.5-5.9-25.2-20.2-30.4c-1.6-0.6-2.8-2.1-4.1-3.2c0.3-0.3,0.5-0.6,0.8-0.9c18.2,5.7,24.8,20.5,28.4,37.2
	c3.2,15,0.1,29.8-2.1,44.6c-1.4,9.3-3.4,18.1-7.9,26.3c-1.8,3.3-5.2,3.7-6.8,0.5c-6.8-13.6-15.5-26-23.1-39
	c-6.6-11.4-7-24.6-7.6-37.5c-0.3-5.4,0.7-10.9-1.8-16.2c-1,3.8-2,7.7-2.9,11.5c-1,4.4-4.2,7.7-6.3,11.5c-2.1,3.7-4.4,7.4-7.7,10.1
	c-13.5,11.2-25.1,25.3-43.2,30c-4.2,1.1-7.6,3.6-11.3,5.6c-5.3,2.9-6.7,1.9-6.8-4.2c-0.1-4.4,1.1-8.5,2.7-12.5
	c3.6-9.2,3.2-19.5,7.2-28.6c1.6-0.8,1.3-2,0.6-3.3c-0.5,0.8-0.9,1.5-1.4,2.3c-4.8,4-8.4,9.4-13.9,12.6c-4.1,2.4-2.1,6.6-1.6,9.3
	c1.4,7.9-0.1,15.5-0.3,23.2c-0.3,11.6,3,23,2.5,34.7c-0.2,4.5,0.4,9.1,1.1,13.5c0.4,2.8,1.9,3.5,4.4,1.3s3.9-6.2,8.3-5.7
	c-1.2,2.9-4.7,4.2-5.3,7.5c5.9,1.4,5.9,1.4,7.9,7.5c0.9,2.6,3.1,2.4,4.2,1.4c6.8-6.1,12.6-1.3,18.6,1.3c-2.2,2.8-4.4,0.2-6.4-0.3
	c-2.4-0.5-4.5-1.4-6.8-0.1c-14.1,8.1-28.5,14.4-45.4,8.9c-2.3-0.7-4.4,0.4-6,1.9c-5.1,5-11.7,5.5-18.1,6.2
	c-19.8,2-35,11.8-46.9,27.2c-0.9,1.1-1.5,2.3-3,2.6c-12.4,2.3-22.9,8.3-32.1,16.7c-0.9,0.9-3,1.1-2.5,2.8c0.5,1.9,2.4,1.6,3.9,1.9
	c10.2,1.5,20.4,3.9,30.8,2.6c0,2.5,1.8,2.4,3.6,2.4c1.7,0,3.1-0.4,2.6-2.6c1.1,0.1,2.2,0.1,3.4,0.2c0.3,1.7-0.7,3.7,1,5.3
	c1.8-3.2-2.2-9.3,5.1-9h-0.1c-0.2,1.5-1,3.1,0.1,5c2.1-1.6,1.3-3.4,1.2-5c10,1.2,19-3.4,28.2-5.7c19.5-4.9,39.4-7.3,59.1-10.8
	c5-0.9,10.2-1.4,15.2-1c8.8,0.6,17.5,0.3,26.2-0.8c2.7-0.4,5.2,1.3,8-0.2c16-8.4,33.3-11.2,51.1-12.6c9-0.7,18.3-1.1,26.6-4.5
	c14.7-6.2,29.2-12.8,45.3-14.7c1.4-0.2,4.3-0.2,4-2.6c-0.3-2.4-2.9-1.5-4.5-1.5c-36.6,0.5-73.1-2.1-109.7-1.4
	c-7.9,0.2-15.8,0-23.7,0c-2.5,0-4.8-0.2-6.1-2.7c-0.8-1.6,0.2-2.1,1.7-2c2.2,2.6,5.2,2.4,8.1,2.4c29.7,0,59.4-0.1,89.1,0.1
	c5.2,0,9.6-1.7,14-4.1c1.2-0.6,3.1-1.2,2.8-2.7c-0.3-1.6-2.1-2.4-3.7-2.5c-4.7-0.4-9.5-0.2-14.2-0.9c-5.5-0.9-11.5,0.9-16.4-3.2
	c10,2.3,20.3,0,30.2,2.4c0.2,0,0.4,0,0.6,0c3,0.7,6.6,0.9,7.9,4c1.5,3.4-3.6,3.2-4.3,5.8c1.8,1.7,3.8,0.9,5.6,0.8
	c14.2-0.7,28.4,1.1,42.5,1.5c7.6,0.2,15.2,2.5,21.6,7.2c1,0.7,3,1.5,1.9,3.5c-1,1.8-2.2,0.3-3.5,0c-28.3-5.1-55.4-1.4-81.1,11.7
	c-7.8,4-16.2,5.3-24.6,5.8c-17.1,1.1-33.8,3.1-49.9,9.6c-4.7,1.9-9,3.7-7.8,10.1c0.5,2.6-1.2,4.2-3,5.3c-7.2,4.2-14.8,6.9-23.3,7.4
	c-16.5,0.9-32.9,1.7-49.4,2.5c-10.8,0.5-21.1,5-29.7,11.2c-8.4,6-17.4,8.4-27.2,10.1c-16.8,2.8-32.7-2.3-49-4.2
	c-18-2.1-34.8-10-53-11.3c-1.6-0.1-2.5-0.9-3.1-2.6c8.3-3,16.1-6.7,25.4-7.5c8-0.7,16.2-4.6,22.7-10.3c3.3-2.9,8-4,10.3-8.4
	c-1.8-1.7-4-1.1-5.7-0.8c-13.6,2.4-26.3-2-39.2-5c-4.4-1-8.6-3.4-11.8-7c-5.1-5.6-12.8-5-19.3-6.8c-10.3-2.8-21-5.3-31.7-3.7
	c-8,1.2-15.9,0.3-23.9,1.7c-3.6,0.7-8.1,0-10.3-4.8c19.8-2.8,38.6-8.3,57.4-13.8c15.2-4.5,29.7-10.9,44.6-16.4
	c8.9-3.3,17.6-7.9,27.5-8.4c2.9-0.2,5.8-0.4,8.6,1c5.7,2.8,11.2,1.2,16.8-1c12.6-5.1,25.5-6.6,39-3.2c7.7,1.9,16.1,1,23.5,3.6
	c8.1,2.8,14-1,20.6-3.4c1.2-0.4,2.4-0.8,2.4-2.7c0.3-11.7,2.4-23.3,0.2-35.2c-1-5.6-0.8-11.5,0-17.2c0.5-3.4-0.4-6.3-0.3-9.7
	c-3.8,0.2-6.4,2.9-9.8,3.7c-5.6,1.3-7.3,0.3-8.1-5.3c-0.6-4.3,1.6-8.3,1-13c-4.5,2-8.9,3.6-12.9,5.8c-3.7,2-7.6,1.9-11.5,1.5
	c-5.1-0.6-6.4-4.4-3.8-8.9c3.8-6.5,7.8-12.7,12.4-18.7c4.4-5.8,6.8-13.4,7.3-20.3c0.8-12.1,6-21.4,13.8-29.8
	c5.1-5.5,10-11.2,16.9-14.7c3.1-1.6,2.4-19.8-0.6-21.5c-2.2-1.3-4.5,0.5-6.5-0.2c-10.2-3.7-21.1-5-29.9-12.6
	c-5.9-5-8.5-11.7-13-17.8c-3.5,3.9-6.2,8.9-10.4,12.6c-1.5,1.3-0.9,2,1,2.6c5.5,1.8,10.1,5.4,14.7,8.8c6.2,4.5,7.8,11.6,9.1,18.2
	c1.2,5.7,2.3,11.3,4.1,16.8c2.9,9,1.1,17.5-2.4,25.8c-3.6,8.5-6.3,17.3-8.4,26.2c-0.3,1.4-1.2,3.3-2.2,3.6c-1.6,0.5-2.7-1.4-3.5-2.7
	c-2.4-3.8-3.5-8.2-3.6-12.6c-0.1-4.4-1.9-7.7-4.6-11c-6.8-8.3-14-16.2-20-25c-4.9-7.1-7.9-15.4-5.9-24.5c0.2-0.9,1.1-1.9-0.3-2.2
	c-0.7-0.2-1.7,0.7-2.5,1.1c-0.2-0.2-0.4-0.3-0.6-0.5c0.2-2.1,1.3-3.7,2.8-5.1c3.8-3.6,5-8.2,5.7-13.3c-8.6,3-8.7,3.1-14.7,0
	c-11.9-6.2-23.3-6.8-35.3,0.4c-6.1,3.6-10.8,8.5-16.6,12.3c-1.5,1-2.9,3.6-5.4,1.3c3.8-3.2,7.3-6.7,11.3-9.5
	c10.7-7.5,21.6-14.7,35.8-11.8c5,1.1,9.9,2.7,14,5.9c1.8,1.4,3.7,2.1,4-1.3c1.3-14.9-6.9-27.4-23.2-28.4c-12.3-0.7-21.1,6.5-28.9,15
	c-1.8,2-2.9,4.8-6,5.2l-0.2-0.2c0.4-2.3,0.1-3.7-2.8-3.5c-4.7,0.2-9.4,0.1-14.1,0c-1.8,0-4.6,0.9-4.9-1.6c-0.2-1.7,1.8-3.2,4.1-3.3
	c0.3,1.5,0.8,2.4,2.6,2.5c5.7,0.3,11.4-0.7,17.1,0.7c1.4,0.4,1.9-1.2,2.6-2c4-4.7,8.7-8.4,13.9-11.8c11.2-7.3,29.3-8.1,38.4,6.8
	c1.5,2.4,3.3,3.6,6,4.1c5.3,1.1,10.5,1.9,15.1-2c0.6-0.5,1.4-0.7,2.2-0.1s0.6,1.5,0,2c-3.1,2.8-4.1,7.9-9.3,8.4
	c2.9-5.6,2.7-6-3.4-6.1c-7.3-0.2-7.2-0.2-6.8,7.2c0.1,2.2,0.4,4.7,2.1,5.6c1.7,0.9,2.6-1.9,4.1-2.7c0.3,0.7,0.5,1.4,0.8,2.1
	c-0.7,1-1.6,2.2-0.1,2.9c1.6,0.8,2.5-0.5,3.1-1.9c6.5-2.6,10.4-8,14.6-13.2c2.2-2.7,4.5-5.5,6.9-8.1c0.8-0.9,1.6-2.1,2.9-1.7
	s1.4,1.7,1.4,3c0.6,10.3,6.2,17.8,14.5,23.1c8.6,5.4,18.1,8.6,28.4,8.6c6.1,0,12.2,0.4,18.2,1.6c6.8,1.3,13.6,2,20.5,2.1
	c4.7,0,6-1.9,4.5-6.3c-2.2-6.4-7.6-9.5-13-12.3c-11.8-6-22.9-12.8-33.3-21.3c-9.9-8.1-23-11.9-33.1-4.5c-3.3,2.4-3.5,3.4,0,5.7
	c13.2,8.8,27,15.9,42.9,18.7c7.8,1.4,15.5,3.8,22.6,8.4c-2.6,1.6-4,0.2-5.7-0.3c-6-1.9-11.9-4.6-18-5.6
	c-17.4-2.9-32.1-11.5-46.6-20.8c-3.2-2-3.5-3.9-0.1-6c3.7-2.2,7.9-4,11-6.8c8.9-8.1,17.5-16.5,28.7-21.5c2.6-1.2,2.9-3.5,2.1-5.5
	c-1.2-3.2-3.6-0.6-4.8,0c-4.5,2.3-8.8,5.1-13.1,7.8c-2.4,1.5-3.3,0.7-3.1-1.8c0.1-1.8-1-4,1.3-5.3c0,1.8,0,3.5,0,5.4
	c2.3-0.2,3.6-2.1,5.3-3.1c5.3-3.1,8.8-10.5,17-7.3c1.3,0.5,3.6-1.2,2.7-4.3c-0.8-3.1-2.7-6.5-1.3-9.7c1.8-4.2,1.5-8-0.3-11.9
	c3.3,1.3,3.8,4.3,3.7,7.3c0,3.1-0.4,6.3-0.4,9.4c0,3.9,0.6,6.7,6.1,5c4.1-1.3,3.4-3.8,4-6.7c0.6-3-2.6-7.1,2.3-9
	c0,3.7-0.1,7.3,0.8,11.1c1.2,5.3,3.6,3.5,5.9,1.6c2.9-2.4,4.9-5.8,8.3-7.9c5.3-3.3,10.8-5.8,16.7-7.6c15.3-4.8,25.1-16.5,34.4-28.5
	c0.4-0.5,0.7-1.1,1.1-1.6c-1-0.5-1.7-0.3-2.1,0.8c-8.3,3.5-16.2,8-23.8,12.8c-2.4,1.5-4.3,3.9-5.6,6.6c-1,2.1-1.2,6-4.4,5.2
	c-3-0.8-1.5-4.4-1.8-6.8c0-0.2,0-0.4,0-0.6c0.5-4.4-1.3-5-5.1-3.3c-4.7,2.2-8.6,5.2-12.2,8.8c-3.8,3.7-7.6,7.2-12.4,9.5
	c-0.5-2.4,1.5-3.6,2.9-4.8c7-5.7,13.1-12.6,21.6-16.4c4.7-2.1,5.7-5.5,4.7-10.6c-2.7,2.1-5.2,3.9-7.6,5.9
	c-6.4,5.5-12.8,11.2-19.2,16.7c-1.3,1.1-2.9,2.4-4.8,1.7c-1.9-0.7-1.2-2.7-1.2-4.2c-0.1-5.3,0.1-10.7-0.2-16c-0.1-1.5,2-5-2.2-4.5
	c-2.7,0.4-5.6,0.7-5.1,5.4c0.6,5.3,2.7,10.7,0.7,17.3c-2.1-4-5.5-6.4-5.1-10.9c1.7-0.6,2,1.7,3.8,2c-1-2.9,0.3-5.6-1.1-8.4
	c-1.3-2.6-3.8-2-5.8-2.9c-0.7-0.3-1.5,0.1-1.7,1.1c-0.6,2.3,0.6,3.4,2.5,4.5c1.3,0.8,2.4,2.1,2.4,3.8c-1.4,0.4-1.9-2.1-3.4-1
	c0.7,4.8,1.4,9.6,2.1,14.4c-3.8-0.4-2.1,2.4-2.3,3.9c-0.4,3.3,1.1,7-0.6,9.8c-4.5,7.3-11.2,12.6-18.4,17.1c-0.7-2.4,1-3.4,2.5-4.8
	c9.3-8.9,15.9-18.8,14.3-32.8c-1-8.9-2.7-17.5-4.9-26.1c-1.8-6.9-3.5-13.8-5.3-20.7c-3.6,6.7-5.9,13.5-10.2,19.1
	c-8.7,11.4-10,25-11.8,38.4c-1.2,8.8,2.4,17,3.4,25.6c-2.6-3.8-4.8-7.6-4.9-12.6c0-3-1.3-6.2-4.2-7.9c-5.1-3-7.7-7.8-10-12.9
	c-1.5-3.4-3.6-3.3-5.8-0.8c-3.8,4.3-8.5,7.2-13.5,9.9c-7,3.9-14.8,4-22.3,4.9c-6,0.7-11.7,3.9-18.1,1.5c-3.5-1.3-4.3-2.4-1.4-5
	c2.3-2.1,4.8-4,7.2-6c3.9-3.2,5.3-7.1,5.4-12.3c0.2-7.2,5.8-12.3,9.6-17.8c2.4-3.5,3.5-7.7,6.6-10.8c0.6-0.6,0.7-2.5,0.2-3.4
	c-0.7-1.4-2.7-1.1-3.7-0.6c-3.1,1.5-5.8,1.4-8.9,0c-2.1-1-3.9,0.5-5.6,2.1c-7.1,6.2-13.8,13-23.3,15.6c-6.4,1.7-12.9,3.2-19.4,4.7
	c-1.3,0.3-3,0.2-3.6-1.2c-0.6-1.4,0.8-1.9,1.7-2.5c0.5,1,1.4,1.6,2.4,1.4c9.9-2,19.9-4.1,28.2-9.9c8.2-5.8,15.7-12.5,23.5-18.9
	c5.2-4.2,8.8-18.2,6.5-24c-10,9.4-21.4,17.3-29.5,28.8c4.7-14.3,17.6-21.1,27.3-30.6c2.4-2.3,2.6-4,2.7-6.7
	C227.3,247.7,224.7,248.9,222.9,248.5z M366.2,241.7c-2.5,2.9-5,5.8-6.9,8.1c1.6,2,3,3.8,4.7,5.8c1.3-4.5,3-8.5,3-12.9
	c1.6-0.8,1.3-2,0.6-3.3C367.1,240.2,366.6,240.9,366.2,241.7z M331.4,272.5c2.2-0.4,3.9-1.6,5.6-3c4.8-4,9.7-7.9,14.4-11.9
	c1.6-1.4,5.7-1.6,4.2-4.4c-1.3-2.4-3.2,2-5.4,1.3c-0.2-2.1,1.2-3.4,2.7-4.3c3.9-2.3,6.3-5.8,9.2-9.1c8.8-10.1,18.8-19.2,25.9-30.8
	c1-1.6,3.2-2.5,2.2-5c-0.4,0-0.8-0.1-1.1,0c-16.2,8.6-32.8,16.4-48.9,25c-10,5.3-20,11.7-26.7,21.9c-5.9,8.9-12.6,17.3-23.3,21
	c-1.3,0.4-4.5-0.6-3.4,2.5c0.9,2.6,3.6,3.5,5.9,2c3.4-2.3,6.4-5.6,9.2,0.6c0.4,1,2.2,0.2,3.3,0.2c10.8,0.2,18.9-5.2,26.7-11.9
	c5.5-4.8,10.5-10.8,18.4-12.1c-0.8,1.9-2.7,2.7-4.1,4c-5,4.6-11.4,7.6-15.2,13.5c-0.5,0.3-1,0.6-1.4,0.9c0.1,0.1,0.3,0.4,0.4,0.4
	C330.4,273.1,330.9,272.8,331.4,272.5z M409.9,401.9c0.3,6-3.2,12.1,0.8,17.9c1.9,7.9,1.6,16,0.7,24.2c6.1-5,10.6-11.2,16.5-16.1
	c4.3-3.6,9.6-6.3,12.2-11.7c8.2-5.4,13.2-12.9,14.8-22.7c2.6-7.9,3.5-15.9,1.4-24.1c-0.3-1.3,0-3.1-1.5-3.6
	c-1.9-0.6-2.7,1.3-3.6,2.4c-5.2,6.7-9.2,14.1-13,21.5c-7.6,7.1-11.1,16.8-15.5,25.9c-0.8,1.5-1.5,3.1-2.5,4.6s-1.3,4.7-3.7,3.5
	c-2-1-0.6-3.4,0.2-5.2c3.7-7,7.4-13.9,10.1-21.3c7.5-7.3,11.1-17.1,17-25.4c5-7.1,10.2-14.7,21.1-9.7c0.7,0.3,1.8-0.3,2.8-0.3
	c6.7,0,13.3-1,20,0.5c12.3,2.9,24.2,1.6,36.1-4.5c-5.9-3.3-10.3-8.2-16.5-10.6c-2.8-2.1-5.7-4-8.3-6.5c-5.6-5.2-11.8-6.9-15.3-3.4
	c-5.3,5.2-11.6,9.2-17.7,16c12-2.1,22.6-3.3,32.9,0.8c1,1,3.2,0.9,3.1,3c-0.4,0.2-0.8,0.5-1.1,0.4c-0.8-0.1-1.6-0.2-2.3-0.5
	c-7.5-3.2-15.2-3.8-23.1-1.7c-10.2,2.8-20.7,0.9-28-5.3c-6.6-5.6-12.9-5-19.8-5.2c-0.8,0-1.6,0-2.4,0c-2-0.1-4.3-0.3-4.7-2.7
	c-0.5-2.7,1.7-3.8,3.8-4.4c3.2-1,6.5-1.8,9.6-2.9c2.1-0.7,5.3-0.8,4-4.4c-1.1-3-1.6-6.8-6.5-6c-6.1,1.1-12,2.6-17.1,6.1
	c-5,3.4-4.8,6.5-0.7,10.9c6.7,7.3,15.7,7.6,24.3,9c5,0.8,9.2,3.2,12.9,6.4c-9.2,0-16.3,5.5-22.6,9.9c-9.3,6.4-14.4,17-16.3,28.6
	c-1.5,1.4-0.9,3.3-1.2,5C410.5,401,410.2,401.4,409.9,401.9z M212.3,174.8c1.4,0.4,1.3,1.5,0.5,2.2c-3.7,3.2-2.3,6.2,0.5,8.7
	c1.8,1.7,2.6,3.7,3.4,5.9c0.6,1.7,2.2,3.3,3.2,1.7c3.2-4.9,8.8-6.1,12.8-9.4c2.2-1.8,4.1-6.4,2.6-9.3c-1.4-2.7-4,0-5.9,1.3
	c-0.3,0.2-0.9,0.3-1.1,0.1C223.3,171.6,217.9,171.8,212.3,174.8c-0.9-2,1.4-2.4,1.9-3.7c0.4-1.2,0.6-2.8-0.9-2.8
	c-4,0.1-6.9-2.9-10.4-3.5c-4.2-0.7-9.8-2.6-10.8,4.8c-0.3,2.1-1.5,3.8-3.5,4.9c-1.5,0.9-4.2,2-2.9,4.3c1.2,2.2,4.1,3.4,6.5,2.9
	C199.2,180.3,207.3,181.9,212.3,174.8z M485.6,417.4c-0.3-0.5-0.6-1-0.8-1.6c0.1-0.3,0.1-0.6-0.1-0.9c-1.4-10.5,1.8-20.6,2.9-30.9
	c0.2-1.5,1.2-3.4-0.3-4.3c-1.9-1.2-3.3,0.7-4.4,2c-3.6,4.4-7,9-10.5,13.4c-2.7,3.4-3.9,7.2-3.1,11.6c0.1,2.8-1.9,5.2-1.2,8.1
	c1.9,7.7,4.7,14.9,9.5,21.4c6.4,8.7,14.1,16.4,19,26.2c0.8,1.6,2.3,2.6,4.4,2.9c0.9-6.9,1.8-13.7,2.8-20.5
	c7.1-25.2,2.7-49.4-11.5-62.6c-0.7,4.9-1.2,9.8-2.2,14.5c-1.9,9.2-2.1,18.3,1.5,27.2c2.5,6.2,5,12.4,7.4,18.6
	c-1.9,1.5-2.6-0.5-3.1-1.4C491.7,433.5,487.2,426.1,485.6,417.4z M263.2,487.5c-0.3-0.4-0.6-0.8-0.9-1.2
	c-5.9-7.1-9.6-15.1-11.1-24.3c-1.4-8.2-5.1-15.7-8.5-23.2c-0.6-1.3-0.9-3.4-3-3.1c-1.9,0.3-2.3,1.9-2.3,3.6c0.1,2.1-0.9,3.8-2.1,5.4
	c-3.8,4.9-3.3,10.5-2.3,15.9c3.2,16.5,15,27.5,25.6,39.1c7.2,7.2,5.1,17.8,9.3,26.3c0.4-11.8,6.5-21.6,9.6-32.4
	c1.5-5.2,2.2-10.6,1.1-15.8c-1.9-8.6-4.7-17.1-6.5-25.7c-1.4-6.6-5.5-10.8-10.6-14.2c-3.6-2.4-7.5-4.3-11.4-6.3
	c-1.5-0.8-3.4-2-4.9-0.6s-0.5,3.2,0.2,4.9c4.9,10.8,9,21.9,11.3,33.5c0.7,3.8,2.6,6.9,5,9.9c3.6,4.6,7.4,9.2,7.4,16
	c-3.1-1.8-2.8-5.4-5.5-6.7C263.5,488.3,263.3,487.9,263.2,487.5z M426.1,179.8c-2.8-0.9-5.6-2-8.4-2.8c-5.2-1.5-8,2.8-10.8,5.6
	c-2.5,2.5,1.5,4.2,2.9,6.1c7.6,10,18.7,15.5,29.1,21.9c1.8,1.1,2.3,0.3,3.2-0.9c4.3-5.8,6-12.8,10-18.8c0.6-0.9,0.6-2-0.1-2.8
	c-4.4-4.8-8.5-10-13.4-14.1c-2.9-2.4-7.3-3.4-11.3-2.4c-2.2,0.5-5.6,0.1-6.2,2.6c-0.7,2.6,3.4,1.9,4.4,3.8c0.3,0.5,0.7,0.9,1.1,1.4
	C426.5,179.4,426.1,179.8,426.1,179.8z M371.7,369.8c0,3.2,3.1,4.4,4.6,6.7c1.7,2.7,2.7,3,5,0.1c4.4-5.6,9.9-10.2,15.8-14.2
	c4.8-3.2,10.2-5.5,14-10.3c-12.4,5-26.9,5.1-36.1,16.8C374.1,370,372.8,369.8,371.7,369.8c2-8.1,9-10.4,15.6-12.7
	c2.6-0.9,4.9-1.6,5.9-4.2c4.4-11.4,7-23.3,9.3-35.3c0.2-1,0.5-2.5-0.9-3.1c-1.3-0.5-2.4,0.4-3.1,1.2c-3,3.4-6,6.8-8.6,10.5
	c-6.3,8.9-14,15.3-24.9,17.8c-7.2,1.6-13.8,4.7-19.7,9.2c-1.3,1-3.7,2.2-2.6,4c1,1.8,3,0.7,4.7-0.3c2-1.2,4.2-2.2,6.4-3
	c7.5-2.5,15.1-4.3,23.1-3.5c-7.4,4.7-17.2,2.6-24.1,9.1C359.3,363.1,365.5,366.4,371.7,369.8z M442.8,334.3
	c0.2,4.4,1.7,8.4,4.4,12.3c1.4-3.6,2.7-6.8,4-10.1c1.9-3.3,4-6.5,4-10.4c2.4-4.5,3-9.8,6.2-13.9c6.2-8,7.9-17.1,6.5-26.8
	c-1.3-8.4,0.4-18-8-24.1c-1-2.9-3.7-4.4-5.6-6.6c-0.4-0.5-1.4-1-1.9-0.8c-1.2,0.3-0.9,1.6-0.8,2.4c0.7,3.8,1.4,7.6,2.2,11.4
	c-0.5,10.1,1.8,20.5-2.9,30.1c1.6-12.5,0.1-24.8-0.9-37.2c-0.7-2.8-1.3-5.7-2-8.5c-0.4-1.7-1.3-3.1-3.2-2c-3.4,2.1-6,0-8.6-1.5
	c-2.7-1.5-5.1-3.7-8.5-3.5c-9.7-4.1-22.6-0.3-31,9.3c-8.7,6.9-14.7,16.3-22.5,24.1c-1.2,1.2-1,3.3-1.2,5.1c-1,8.2-1.4,16.6-7.1,23.3
	c-5.4,6.3-3.2,13.5-3.4,22.1c7.6-9.6,16.8-14.1,26.3-18c3.6-1.5,7.4-2.7,10.5-5.3c7.4-2.8,13.4-7.6,19-13.1
	c12.4-8.8,17.5-22,21.8-35.9c1.2,4.5-0.9,8.2-2.3,12.2c-2.7,7.8-7.1,14.9-5.7,24C434.1,307.1,439,320.5,442.8,334.3z M384.7,390
	c-2.5-0.1-3.5-2.1-4.9-3.8c-7-8.7-13.3-17.8-24.5-22.4c-11.5-4.7-22.5-4.5-33.7-0.4c-2.1,0.8-4.3,1.9-5.2,5.3c8.7,0,17.1-0.1,25.5,0
	c5.8,0.1,10.9,1.7,13.5,7.5c-4.6-2.1-8.7-5.2-14-5.1c-7.3,0.1-14.6,0.1-21.9,0c-4.5-0.1-6.6,2.7-7.2,6.4c-0.7,4.2,2.4,5.1,5.9,5.6
	c12.2,1.8,24.6,2.9,36.1,8.1c4.7,2.1,10,2,15,0.1c3.8-1.5,7.6-1.5,11.5,0C382.3,391.7,384.4,393.4,384.7,390
	c2.3-0.6,3.7,0.9,5.2,2.2c1.1,0.9,2.1,1.5,3.6,0.3c10.1-8.7,12.7-20.8,15.9-33.3c-9.2,3.9-16.1,9.9-22.7,16.4
	c-3.8,3.7-8.1,7-2.1,12.3C385,388.1,384.7,389.3,384.7,390z M332.2,152.3c0.5-9.3,1.2-18.6-2.3-27.5c-0.6-1.6-0.7-4.5-4.2-3.8
	c-3,0.6-3,2.6-2.9,4.8c0.3,6.9-1.7,13.2-4.8,19.3c-3.1,4-3.4,8.7-3.5,13.4c0,1.2-0.4,2.6-1.9,2.5s-1.7-1.6-1.3-2.8
	c1.2-3.6,0.3-7.7,2.4-10.9c3.9-5.7,5.1-12.1,6.2-18.8c0.6-3.7,0.5-8.1-1.7-9.9c-2.3-1.8-6.1,1-9,2.6c-9.9,5.5-12.7,15.6-16.9,24.9
	c-0.7,1.6,0.3,3,0.6,4.6c2.3,9.7,6.5,18.9,7.9,29c0.8,5.6-0.9,11.8,2.9,17.8c1.8-3.8,2.6-7.8,6-9.7
	C323.5,179.8,327.5,165.8,332.2,152.3z M431.4,241c0.6,0.5,1.3,0.9,1.8,1.4c6.4,7.7,6.6,7.7,12.2-0.1c2.2-3.1,5.7-3.2,7.7-1.2
	c3.6,3.8,6.7,1.9,10,0.4c2.9-1.4,5-4.4,8.8-4c0.4,0.1,1.4-1.1,1.3-1.6c0-0.5-0.9-1.3-1.6-1.4c-1.1-0.3-2.3-0.1-3.5-0.2
	c-10.2-0.2-15.9-4.3-18-12c-0.3-1.1-0.5-2.4-1.2-3.3c-1.5-2.2-4-3.6-6.3-3.1c-3.3,0.7-1.1,3.4-1,5.3c0.2,2.7,0.5,5.6,0,8.2
	c-0.5,2.8-2,4.4-5.5,2.9c-5.3-2.3-7.7-0.8-9.6,5.5c-4.2,1.6-4.9-4.3-9.6-3.8c-7.6,0.8-14.8,1.7-21.5,5.6c-4.4,2.5-4.6,2.4-8,2.1
	c6.6-5,13.2-8.7,21.3-10.3c4.7-0.9,9,0.1,13.5,0.4c1.4,0.1,2.9-0.1,3.6-1.5c0.7-1.3,0-2.5-1.2-2.9c-7.7-2.5-14.2-8.1-22.5-8.6
	c-12.9-0.9-29.8,14.4-33,28.5c-2.2,9.7-3.3,19.6-7.6,29c-3.3,7.2-7.6,14.2-9,23.2c8-6.1,16.8-10.1,17.3-21.1
	c0.1-1.9,1.2-3.7,2.6-5.2c8-8.3,15.6-16.8,23.8-24.8c7.2-7,16-9.6,26.1-7.4C425.3,241.6,428.4,243.7,431.4,241z M503.5,392.6
	c3.6,14.3,16.8,20.7,25.9,30.2c9.3,9.7,25.1,7.4,36.7,14.6c-4.9-6.3-5.5-12.9-5.6-20c-0.2-10.6-3.7-20-12.2-27.1
	c-2.6-2.1-4.7-4.9-7.1-7.1c-6.5-6.1-13.4-10.9-23-9.7c-3.9,0.5-7.9,0.7-11.8,0.5c-2-0.1-4.7-0.7-5.3,1.1c-0.7,2.1,1.7,3.5,3.3,4.9
	c7.3,6.3,16.1,10.8,22.3,18.5c3.2,3.9,7.3,6.5,11.6,9.1c5.4,3.2,10.5,6.8,14.3,12.1c-9.9-5.7-20.5-10.7-28.6-18.8
	c-6.3-6.3-12.7-12.2-20.3-16.8c-3.6-2.8-6.7-6-9.2-9.8c-5.3-8.1-10.2-10.3-20-8.4c1.6,0.6,2.7,0.9,3.7,1.4
	c4.3,2.4,12.7,0.5,10.4,9.9c-0.1,0.2,0.4,0.8,0.6,0.8c7-1.3,7.6,5.4,10.9,8.7c0,0.4,0.1,0.8,0.1,1.1
	C500.1,390.2,501.9,391.3,503.5,392.6z M85.4,673.2c0.9,1.8,1.6,1.7,2.7,1.5c5.9-0.7,11.8-1.5,17.7-1.6c13.7-0.3,26.6,4.3,39.9,6.7
	c4.1,0.8,7.5,2.2,10.2,5.3c3.4,3.9,7.9,5.7,12.8,6.9c13.7,3.4,27.7,4.5,41.7,3.4c9.8-0.8,19.3-1,26.4-10.8
	c3.4-4.8,10.9-7.5,16.5-11.1c8.8-5.7,17.4-9.4,27.9-9.1c4.1,0.1,9.7-1,11.2-5.6c2.5-7.5,7.2-12.9,12.5-18.2c1.1-1.1,1.7-2.5,1-3.7
	c-0.9-1.6-2.4-0.5-3.7-0.2c-4,1.1-7.7,3.9-11.9,2.8c-7-2-14.2-3.1-21.4-4.2c-12-1.8-24.4-4.8-36-0.3c-11.2,4.3-21.7,6.1-33.7,3.5
	c-9.3-2.1-18.1,3.2-26.6,6.6C144.3,656.6,115.4,666.4,85.4,673.2z M359.7,472c-5.2,1.3-8.3,5.7-13.2,7c-7.1,2-13.6,5.4-19.9,9.1
	c-13.5,8-22.7,19.2-26.4,34.8c-1.9,8,0.3,16.3-2.3,24.1c-1.9,5.4-3,11-3.5,16.7c-0.3,3.8,0.7,5.3,4.5,3.1
	c12.2-6.9,24.4-13.5,34.7-23.5c9.5-9.3,16.6-20.1,23-31.5c7.2-12.7,8.2-26.6,7.9-42.3c-6.3,14.6-12.7,27.2-23.9,36.6
	c-11.9,10.1-23.6,20.4-28.4,36.2c-0.2,0.7-0.6,1.5-2,1.3c-0.8-5.9,1.1-11,4.2-15.9c5.7-9,13.9-15.7,21.8-22.4
	C346.9,496.2,353.7,484.6,359.7,472z M255.7,294.4c3.8-5.9,7.9-11.4,13-16c1.2-1,2.3-2.7,4-2.1c2.3,0.8,1.5,3.1,1.4,4.6
	c-1,14.1-3.5,27.7-10.9,40.1c-1.3,2.1-3.9,4.6-2.6,6.8c2.8,4.7,4.8,9.9,8.6,14c0.7,0.7,1.7,1.6,2.4,1.5c1.6-0.2,1.3-1.8,1.2-2.9
	c-0.4-4,0.4-8,1.5-11.7c2.5-8.6,2.5-18,9-25.2c2.3-2.6,3.8-6,5.5-9.1c2.6-4.7-4.3-20.6-9.5-21.9c-0.4-0.1-0.8-0.1-1.2-0.1
	c-7.6-0.4-15,0.2-21.5,5c-1.7,1.3-3.8,2.2-5.7,3.1c-7.7,3.5-14.1,8.6-18.7,15.7c-4.2,6.4-8.2,13-12.2,19.6c-1.4,2.3-3.9,4.9-3.8,7.2
	c0.7,9.5-4.7,15-11.5,20c-1.1,0.8-2.4,1.9-1.5,3.4s2.4,0.6,3.7,0.3c6.2-1.2,12.3-2.4,18.6-3c10.9-1,21-5,27.7-14.1
	c10.6-14.2,16.7-30.3,17.9-49.1C265.3,285.1,261.8,291.1,255.7,294.4z M442.4,354.9c-6.5-2.1-13-4.1-18-2.2
	c-8.2,3-13.9,9.7-14.7,19.2c-0.5,6-2.4,11.2-7.1,15.4c-3.7,3.3-7.4,7.1-7.1,12.8c0,1.1-0.4,2.3-1.6,1.6c-2.7-1.5-2.7,0.9-3.5,2.2
	c-4,5.9-6.9,12.7-13.9,15.9c-5.2,2.4-9.8,5.2-13.1,10.1c-3.3,4.9-5.9,4.1-8.5-1c-1.1-2.2-2.8-4.1-3.7-6.4
	c-3.3-8.8-8.3-17.5-1.2-26.9c1.1-1.5-0.5-2.5-1.8-3c-5.7-2.3-11.7-3.6-17.8-4.8c-3-0.6-4.1,0.5-4,3.8c0.3,6.3,0.7,12.7,0,19
	c-0.7,6,2.4,8.5,6.9,10.4c9.1,3.8,17.2,8.7,22.9,17.1c1.9,2.9,1.6,5.7,0.9,8.4c-0.7,2.7-3.6,1.8-5.6,1.9c-7.9,0.4-15.7-0.2-23.5-2
	c0,4.8,0,9.1,0,13.6c10.4-3.9,19.9-11.2,31.5-5.5c1.3-6.7,1.9-12.7,4.7-18.5c4-8,9.9-12,19.8-11.4c5.7,0.4,14.2,7.8,14.9,14.4
	c0.4,4,1.5,4.6,5.1,4.8c4.4,0.2,3-2.7,3.7-4.9c1-3.5,0.3-6.8,0.2-10.2c-0.1-4.7-2.8-8.5-2.8-13c-0.1-13.4,2.4-26.1,9.4-37.8
	c3.4-5.7,6-12.4,12.6-14.7C432.2,361.1,436.8,358.3,442.4,354.9z M257.4,204.6c-1.6,1.6-2.8,2.4-4.2,1.8c-8.8-4-18.4-5.8-26.6-10.9
	c-1.5-1-2.1-1.3-3.8,0.1c-2.5,2-3.3,3.4-2.1,6.7c2.3,6.4,5.6,13.5,12.2,13.8c10.2,0.5,20.6,3.1,31.1-0.4c8.3-2.7,11.5-0.6,16.5,7
	c1,1.5,1.8,3.5,4.4,3.3c1.1-11.8-6.3-18.7-14.3-25c-3.9-3.1-7.8-6.1-11.1-9.7c-5.9-6.6-18.2-8.6-25.7-4c-1.7,1-4.8,1.1-4.3,4.1
	c0.5,3.2,3.1,4.1,6,4.8C242.7,198.1,249.6,201.5,257.4,204.6z M271.6,251.9c8.4-2,17.9-1.8,23.1-10.3c5.6-9.3,13-16.8,20.9-24
	c1.8-1.6,3-3.2,3-5.4c-0.3-7.4-0.6-14.8-1.2-22.2c-0.2-3.3-1.7-3-4.2-1.5c-3.8,2.3-4.4,6.4-6.5,9.6c-1.2,1.9-2.8,5.5-5,3.7
	c-4.4-3.5-5,0.4-6.4,2.5c-4.7,6.9-8.3,14.3-9,22.8c-0.2,2.1-0.2,4.5-3.1,3.7c-3.4-0.9-3.8,1.1-4,3.3
	C278.4,240.6,276.2,246.6,271.6,251.9z M298.9,657.3c2.5-0.8,4.8-1.6,6.8-0.8c9.7,4,18.8,2.5,27.8-2.3c2.8-1.5,6-1.8,5.1-6.4
	c-0.9-4.4-3.6-4.8-7.3-4.8c-6.4,0.1-10.6-3.2-10.6-8.7c0-18.7-3.2-37.3-2.5-56.1c0.2-6,0-12,0-18.1c-5.7,1.2-7.3,4.6-7.1,10.3
	c0.6,20.5,2,40.9,0.7,61.4c-0.2,3.7-0.4,8.3-4.6,10.8C301.8,645.9,298.7,650.4,298.9,657.3z M319.5,279c-5.8,1.1-10.4,2.1-15,2.7
	c-3.1,0.4-3.4,2-2.7,4.5c1.9,6.6,3.8,13.2,5.8,19.8c2.2,7.3,3.3,8.2,10.1,4.3c13.1-7.6,24.2-17.5,30.9-31.5
	c2.6-5.4,4.9-10.7,9.3-14.9c1.8-1.7,2.7-4,2.2-7.4c-2.6,1.9-4.6,3.4-6.7,4.8c-7.2,5-12.5,12.7-21.2,15.9
	c-8.4,3.1-14.7,8.8-19.5,16.5c-0.8,1.2-1,4.3-3.4,2.8c-1.6-1-0.4-3.2,0.4-4.9C311.9,287.1,315.8,284,319.5,279z M428.5,288.9
	c-6.8,6-12,11.4-18.7,14.8c-3.5,1.8-5,4-5,8.2c0,6.5,1.4,13.1-0.4,19.6c-1.9,7.2-4.1,14.4-6.1,21.6c1.6,0.4,2.6-0.5,3.6-0.7
	c4.7-1,9.6-6.6,14.2,0.5c0.8,1.3,2.2-0.8,3.2-1.7c1.6-1.3,0.2-2-0.7-2.5c-1.5-0.9-3.1-1.5-4.6-2.3c-9.7-5.3-10-11.1-0.5-19.3
	c5-4.3,11.3-4.5,17.2-6c1.5-0.4,4.1,0,3-3.7C431,308.5,428.4,299.6,428.5,288.9z M454.9,224.6c0.9-6.8,5.4-9.1,10.9-10.6
	c3.7-1.1,8.4-1.4,10.6-4.7c4.2-6.1,10.6-8.6,16.5-12c1.3-0.8,3.6-0.6,3.8-3.1c-10.8-2.4-21.8-3.2-32.7-3.7
	c-5.3-0.3-9.2,2.2-11.4,6.8c-2.2,4.6-4.2,9.3-7.1,13.6c-0.9,1.3-1.7,2.5,0.3,3.3C450.5,216,452.8,219.9,454.9,224.6z M191,233.9
	c-1.6,5.2,1.5,9.9,4.3,14.6c1.1,1.8,2.7,4.2,4.2-0.1c2.1-5.8,6.1-10.6,9.1-15.9c4.7-8.1,8.1-16.7,8.4-26.2c0.1-3-0.5-5.9-3.9-6.4
	c-2.1-0.3-4.4-2.4-6.6,0.1c-2.5,2.8-4.3,5.5-2.8,9.5c0.5,1.5,1.6,3.7-1.1,4.4c-2.1,0.5-2.6-1.5-3.1-2.9c-0.7-2-0.4-5-3.4-4.6
	c-2.9,0.4-4.1,3.6-3.9,6C192.7,219.4,190.5,226.2,191,233.9z M377.6,393.7c-5.7-0.5-11.3,1.5-17.1,1.2c-6.7-0.4-11.4,5.1-9.9,11.7
	c1.4,6.3,3.7,12.5,5.7,18.7c1.1,3.5,2.9,3.3,5.1,0.8c2.9-3.3,6.3-5.9,10.3-7.9c7.2-3.6,12.1-9.4,15.3-16.6c1.7-3.9,0.3-7-3.9-7.7
	C381.2,393.5,379.4,393.7,377.6,393.7z M362.3,261.7c-2.8,5-6.8,9.7-8.1,15c-2.8,11.1-10.4,18-18,25.4c-2.6,2.5-7.2,3.7-7.3,8.2
	c-0.2,6.7-0.1,13.5,0,20.2c0,0.9-0.4,2.2,1,2.3c0.6,0.1,1.4-0.6,1.9-1.1c9.1-8.5,19.2-15.8,28.4-24.1c3.7-3.3,7.6-8.3,6.7-14.6
	c-3.2,2.7-6.2,5.3-9.3,7.8c-2.3,1.8-5.2,4-7.8,1.9c-2.9-2.3-0.5-5.4,0.3-8.3C353.2,283.2,360.7,273.8,362.3,261.7z M314.6,408.5
	c0-8,0-14.8,0-21.7c0-1.1,0.4-2.8-1.3-2.6c-4.4,0.5-4.7-3.2-6.2-5.9c-7,4.8-14.1,9.4-20,16.3C297.3,397,306.8,399.9,314.6,408.5z
	 M202.1,183.1c-6,0.1-10.9,1.9-16,1.5c-1.5-0.1-2.5,1.2-3,2.5c-0.8,2.3,1.2,1.7,2.3,2.2c1.8,0.7,1.9,2,1.2,3.8
	c-0.7,2-1.4,4.1-1.5,6.2c-0.1,1.9-1.4,4.6,1.8,5.5c2.5,0.7,3.1-1.3,4.2-3c0.8-1.4,2.7-2.9,4.2-2.9c5-0.1,9.1-3.2,13.9-3.7
	c5-0.4,3.8-4.3,2.5-5.7C209,186.4,206.7,181.8,202.1,183.1z M390.4,487c-5.3-6.9-12.9-11.5-18.7-17.8c-2.6-2.8-3.8-0.8-4.4,1.9
	c-0.7,3.3,1.3,6.3,0.7,9.7c-1,6.1-1.2,12.3-1.7,18.6C374.5,495.1,382.4,491.1,390.4,487z M382.9,466c4.6,5.8,9.7,11.6,16.4,13.7
	c8.6,2.7,15.3-4.3,22.9-7.3C408.5,474.3,396.9,465.3,382.9,466z M267.6,268.8c3.4,0,6.6,0.1,9.7,0c1.9-0.1,4.2,1,5.5-1
	c2.6-4.2,4.9-8.6,5.6-13.6c0.4-2.9-1.1-3.8-3.3-3c-5,2-11,2.3-12.8,9.2C271.6,263.2,269.4,265.7,267.6,268.8z M323.9,404.4
	c-0.3-3.7-0.7-8.9-1-14.2c-0.1-2.6-2-3.3-3.9-3.5c-2.5-0.2-2.1,1.9-2,3.3c0.1,5.7,0.2,11.3,0.4,17c0.1,3.1,1.3,6.5,4.6,6.3
	c4-0.1,1.3-4.1,2.1-6.2C324.1,406.9,323.9,406.5,323.9,404.4z M317,455.5h0.1c0,2.2,0,4.4,0,6.5c0,2.7,0.9,3,3.2,1.6
	c3-1.8,5-3.9,4.2-7.6c-0.4-2-0.2-3.9,0.4-5.8c0.7-2.3,0.7-4.4-2.7-4.4c-2.6,0-5.4-0.4-5.1,3.7C317.1,451.5,317,453.5,317,455.5z
	 M461.4,326.6c-2.6-1.2-3.5,0.2-4,2.1s-1,3.8-1.6,5.7c-0.3,0.9-1.2,1.8-0.3,2.7c0.8,0.8,1.9,0.4,2.7,0c5.1-2.7,10.1-5.3,15.2-8
	c0.8-0.5,1.8-1.1,1.3-2.3c-0.5-1.2-1.7-1-2.5-0.7C468.5,327.1,464.9,327.5,461.4,326.6z M323.6,212.6c1.1-1.8,1.7-2.3,1.7-2.8
	c1-9.1-1.7-17.9-1.5-27c0-0.9-0.6-1.7-1.4-1.5c-1.3,0.3-2,1.4-1.8,2.7C321.8,193,320.9,202.3,323.6,212.6z M423.3,340.9
	c4.8,1.2,9.3,2.5,14.1,1.6c1.9-0.3,3.7-0.6,2.8-3.2c-0.6-1.8-1.6-3.4-3.9-2.7C432,338,427.7,339.5,423.3,340.9z M402.5,205.1
	c-4,7.9-3.3,10.5,2.7,12C403.7,213.5,402.3,210.2,402.5,205.1z M293.1,288.3c0.9-3.6,3.5-5.7,1.3-8.4c-0.9-1-3,0-3.6,0.9
	C288.9,283.6,291.7,285.1,293.1,288.3z"/>
<path class="st1" d="M238.2,429.5c-0.3-0.7-0.5-1.4-0.8-2c1.3-1.3,2.7-2.7,4-4c5.2-0.4,6.2-5.6,9.3-8.4c0.6-0.5,0.8-1.4,0-2
	c-0.7-0.5-1.5-0.4-2.2,0.1c-4.6,3.9-9.8,3.1-15.1,2c-2.8-0.6-4.6-1.8-6-4.1c-9.1-14.9-27.2-14-38.4-6.8c-5.2,3.4-9.9,7.1-13.9,11.8
	c-0.7,0.9-1.2,2.4-2.6,2c-5.7-1.5-11.4-0.4-17.1-0.7c-1.8-0.1-2.4-1.1-2.6-2.5v0.1c1.1,0,2.3,0.2,1.7-1.6c0,0,0.2-0.5,0.3-0.5
	c2.9,1.4,3.7-0.2,4-2.7v0.1c0.9,0,1.3-0.4,1.3-1.3l-0.1,0.1c0.9,0,1.3-0.4,1.3-1.3h-0.1c1.2,0.3,2,0,2.4-1.2
	c0.8-0.8,1.5-1.5,2.3-2.3c1.4-0.5,1.6-1.5,1.4-2.8c0-0.5,0.2-0.7,0.7-0.7c8.5-4.3,17.6-7.6,25.4-13c9.9-6.8,20.3-8.1,31.6-7.2
	c10.8,0.9,24.3,12,27.2,22.1c0.3,1.1,1.1,2.3,0.2,3.3c-1.2,1.3-2.6,0.5-3.8-0.2c-4.6-3.1-9-6.4-13.7-9.3c-6.3-3.9-13-5.5-20.3-2.3
	c11-1,19.1,4.7,27.2,11c7.8,6,11.3,5.5,18.8-1c3.3-2.8,6.1-6.2,9.3-9.2c2.1-2,1.7-3.3-0.1-5.4c-5.8-6.5-12.4-12.1-19.7-16.9
	c-4.8-3.2-8.6-4.5-12.6-4.3c11,6.7,21.5,13.3,28.7,23.1c-9.6,4.5-16.2,0.5-22.9-6.4c-9.9-10.1-23.1-10.3-35.5-6.8
	c-8,2.3-14,2-20-3.5c-1.3-1.2-3.8-2-3.4-3.7c0.6-2.4,3.4-1.2,5.2-1.3c9.4-0.2,18.1-2.5,25-9c4.3-4,8.5-5.9,14.3-4.3
	c2.5,0.7,5,0,7.5-0.9c15.6-5.5,15.9-5.4,25.8,8.1c1.9,2.5,3.8,5,5.8,7.5c1,1.2,2,2.6,3.9,2.1l0,0c-0.1,5.1,4.2,7.6,6.8,11.1
	c1.2,1.5,2.4,0.3,3.5-0.5c5.5-4.3,4.5-12.5-2.2-17.5v0.1c-1-8.6-4.6-16.8-3.4-25.6c1.8-13.4,3.2-27,11.8-38.4
	c4.2-5.6,6.6-12.4,10.2-19.1c1.8,6.9,3.5,13.8,5.3,20.7c2.2,8.6,3.9,17.2,4.9,26.1c1.6,14-5,23.9-14.3,32.8
	c-1.5,1.4-3.2,2.4-2.5,4.8l0.1-0.1c-0.8,0-1.2,0.5-1.3,1.3l0.1-0.1c-2.3,1.3-1.2,3.5-1.3,5.3c-0.2,2.5,0.8,3.3,3.1,1.8
	c4.3-2.7,8.6-5.5,13.1-7.8c1.2-0.6,3.6-3.2,4.8,0c0.8,2,0.5,4.3-2.1,5.5c-11.2,5-19.8,13.4-28.7,21.5c-3.2,2.8-7.3,4.6-11,6.8
	c-3.4,2.1-3.1,4,0.1,6c14.5,9.2,29.2,17.9,46.6,20.8c6.2,1,12,3.7,18,5.6c1.6,0.5,3.1,1.9,5.7,0.3c-7.2-4.6-14.8-7.1-22.6-8.4
	c-15.9-2.8-29.7-9.9-42.9-18.7c-3.5-2.3-3.3-3.3,0-5.7c10.1-7.3,23.3-3.6,33.1,4.5c10.3,8.5,21.4,15.3,33.3,21.3
	c5.4,2.7,10.8,5.8,13,12.3c1.5,4.4,0.2,6.3-4.5,6.3c-6.9,0-13.7-0.8-20.5-2.1c-6-1.2-12.1-1.5-18.2-1.6c-10.3,0-19.8-3.3-28.4-8.6
	c-8.3-5.2-13.9-12.7-14.5-23.1c-0.1-1.2-0.1-2.6-1.4-3s-2.1,0.8-2.9,1.7c-2.3,2.7-4.6,5.4-6.9,8.1c-4.2,5.1-8.1,10.6-14.6,13.2
	C240.2,430.2,239.2,429.9,238.2,429.5z M289.8,362.8c4.5-16.6,4-33.8,6.7-50.5C290.6,328.7,289.4,345.7,289.8,362.8z"/>
<path class="st2" d="M363.5,650.3c-6-2.6-11.8-7.4-18.6-1.3c-1.1,1-3.3,1.2-4.2-1.4c-2-6.1-2.1-6.1-7.9-7.5c0.7-3.3,4.2-4.6,5.3-7.5
	c0.5-0.5,0.9-0.9,1.4-1.4c0.8,0,1.3-0.3,1.2-1.1l-0.1,0.1c0.8,0,1.4-0.3,1.3-1.3l-0.1,0.1c1,0.2,1.6-0.1,1.2-1.2l0,0
	c3.3,0,5.6-1.1,6-4.8l0,0c2.8,0.5,4.4-0.8,4.8-3.6l-0.1,0.1c1,0.2,1.5-0.1,1.2-1.3l-0.1,0.1c1.1,0.3,1.6-0.1,1.2-1.2l0,0
	c1.3,0.9,1.9-0.1,2.6-0.9c1.9-1.3,3.8-2.6,5.7-3.9c0.7,0,1.4-0.1,1.2-1.1h-0.1c5,0.4,8.7-4.2,13.8-3.7c0.4,2.1-3,2.7-1.8,5l0,0
	c-1.2-0.3-1.6,0.1-1.2,1.2l0,0c-2.1-0.4-2.8,0.5-2.4,2.4V616c-1.1-0.3-1.4,0.3-1.3,1.2l0.1-0.1c-1-0.1-1.4,0.3-1.3,1.3l0.1-0.1
	c-1-0.1-1.3,0.4-1.3,1.3l0.1-0.1c-0.9-0.1-1.3,0.4-1.3,1.3l0.1-0.1c-0.9,0-1.3,0.4-1.2,1.3c-0.8,1.5-2,2.7-3.5,3.5
	c-2,0.8-3.3,2.2-4.2,4.7c11.7,0,22.9,0,34.1,0c4.7,0,9.2,2.9,14,1.3c1.7,2.1,4.1,2,6.4,2.1c9.4,0.5,18.7,0.8,28.1,1.2l-0.1-0.1
	c1.3,1.5,2.9,2.4,4.9,2.4l-0.1-0.1c1.7,2.6-3.2,6.2,1.3,8.4l-0.1-0.1c4.9,4.1,10.9,2.3,16.4,3.2c4.7,0.8,9.5,0.5,14.2,0.9
	c1.5,0.1,3.4,0.9,3.7,2.5c0.3,1.5-1.6,2.1-2.8,2.7c-4.3,2.4-8.8,4.1-14,4.1c-29.7-0.2-59.4-0.1-89.1-0.1c-3,0-5.9,0.3-8.1-2.4
	C368.1,653.7,367.7,650.3,363.5,650.3z"/>
<path class="st2" d="M488.3,263.9c-4.5-6.5-11.6-10.6-15.9-17.3c-0.8-1.3-2.6-2.5-1.6-4.1c1.2-1.8,3.3-1.1,4.9-0.4
	c5.4,2.2,11.1,3.7,15.9,7.5c1.4,1.1,2.6,3.1,5,2.6l-0.1-0.1c-0.1,1,0.1,1.6,1.2,1.2l0,0c-0.9,2.3,0.7,3.4,2.1,4.7
	c4.5,8.6,12.9,12.9,20.3,18.2c0.6,0.9,1.3,1.7,2.5,0.9l0,0c-0.2,1,0.3,1.4,1.2,1.3l-0.1-0.1c0.3,1.4,1.1,1.8,2.5,1.2l0,0
	c-0.2,1.1,0.2,1.5,1.2,1.2l0,0c1.1,7.2,4.9,13.5,7.2,20.3c-5.5,2.6-6.8,8.4-9.6,13.1c-1.3-0.3-2.7-0.5-4-1
	c-15.5-5.5-25.7-16.9-33.9-30.5c-3.2-5.4-6.4-10.9-9.8-16.1c-1-1.6-1.8-4.2-4.7-3.5l0,0c0.6-3-0.8-4-3.6-3.6l0,0
	c0.1-2.8-1.6-2.9-3.6-2.4v0.1c0.6-1.3-0.4-1.9-1.1-2.5c0.4-3.9,3.7-4.1,6.4-5c5.8,4.7,10,11.4,16.8,15c7.4,8.9,12.8,19.3,21.2,27.5
	c4.7,4.6,7.6,5.7,12.5,4.6c-9.9-3.1-15-10.8-20.2-18.3C497.4,273,493.9,267.5,488.3,263.9z"/>
<path class="st2" d="M355.1,114.3c-1.9-0.9-3.1,1.3-4.8,1.2c-2.5-2.5-6.2-3.8-7.1-7.7c8.3-5.1,15-13.6,25.2-14.6
	c8.2-0.8,16.4-1.3,24.7-2.3c-4.3-6.2-7.9-8.1-18.5-8.9c-15.8-1.2-29.1,4-39.6,15.9c-0.7-1.6-2.1-1.4-3.5-1.4
	c0.2-4.1,3.5-6.9,4.4-10.7c2.9-4.9,8-6,12.9-7.6c2.1-0.6,4-2.1,6-3.1c5.1,1.1,9.2-0.3,12.1-4.8l-0.1,0.1c0.9,0.1,1.3-0.3,1.3-1.3
	l-0.1,0.1c1,0.1,1.4-0.3,1.2-1.3l-0.1,0.1c7.9-2.5,14.2-0.2,19,6.3c3.7,5.1,7.2,10.4,11,15.4c2.5,3.3,3.4,6.6,1.2,10.2
	c-1.3,2.1,0,2.9,1.2,3.4c1.4,0.5,2.1-0.8,2.1-2.1c-0.1-3.5,1-7.2-0.3-10.6c-1.8-4.6,0.9-3.8,3.7-3.8c2.9,0,4.4,3.6,7.5,2.6l0,0
	c1.9,4.1,5,6.6,9.5,7.2l0,0c0.6,4.9,5.7,3.8,8.2,6.2c-0.2,1.9-0.9,3.5-2.5,4.7c-1.9-0.3-3.9-0.8-5.8-0.8c-5.7-0.2-11.5-3.6-17.3-0.2
	c-4.2,2.5-8.5,2.4-13.1,1.3c-5.7-1.4-11.5-2.5-17.2-3.8C370.4,102.4,358.6,106.3,355.1,114.3L355.1,114.3z M396.4,94.9
	c0.2-0.9-0.1-1.6-0.8-1.9c-0.8-0.4-1.1,0.3-1,0.8c0.1,0.7,0.5,1.4,1,1.8C396.5,96.2,396.2,95.1,396.4,94.9z"/>
<path class="st0" d="M226.7,454.3c-2.5,9.9,0.6,20-1.2,30c-1.9,10.6-5.4,20.1-13.9,27.1c-7.8,6.5-15.4,13.2-23.2,19.6
	c-3.7,3-8.2,4.9-12.6,6.8c-5.8,2.6-9.9,7.5-14.4,11.9c-1.5,1.4-2.8,4.4-5.1,2.9c-2.1-1.3-1.4-4.5-0.5-6.4c4-8.4,6.4-17.2,8.2-26.2
	c1.6-7.8,1-15.8,3-23.6c0.6-2.3,1.3-4.5,2.6-6.3c5.5-8,8.7-17.6,15.7-24.7c4.3-4.4,9.5-6.8,15.8-7.7c5.5-0.8,11.4-1.8,15.5-7.5
	c-7.7,1-13.7-1.7-19.5-4.8c-3-1.7-4.9-1.8-7.4,0.9c-3.4,3.8-6.9,7.5-11.2,10.3c-3.7,2.4-7.4,4.3-11.9,3.6c-5.6-0.9-9.7,2-13.6,5.3
	c-2.7,2.2-5.3,4.6-8,6.8c-1.8,1.5-4.1,3.1-6.4,2c-2.2-1.1-2.3-4.5-2.1-6.1c1.1-8.5,3.2-16.8,9.2-23.5l0.2,0.2c0.2,1.7-0.5,3-1.1,4.5
	c-2.1,5.2-4.3,10.5-4.9,16.1c-0.2,1.4-0.7,3.3,1.2,4.1c1.4,0.6,2.7,0.1,3.8-0.8c3.1-2.7,6.2-5.4,9.3-8.1c3.5-2.3,7.3-4.5,11.5-3.9
	c7.1,1,12.2-2.3,17-6.7c2.6-2.4,5-5.1,7.6-7.5c2.7-2.6,5.5-3.4,9-0.9c7.6,5.5,15.7,7.1,24.4,2.6c0.3,0.2,0.6,0.5,0.8,0.8
	c-0.3,2.5-3.1,3.4-3.7,5.7c-5.8,7.5-14.2,9.8-23,11.3c-5.6,1-10.3,4-12.8,8.6c-4.8,8.9-11.1,17-14.5,26.7c-0.7,1.9-0.9,3.8-1,5.7
	c-2.6,6.7-0.2,13.7-1.8,20.5c-2.3,6.7-4.6,13.3-7.2,21c9.1-6.2,10.1-7.8,13.7-20.2c0.4-4.1,2.6-7.5,3.9-11.2
	c16.1-15.5,28.2-34,38.8-53.7c2.6,2,1.2,3.8,0.3,5.4c-2.9,5.2-5.6,10.4-8.9,15.3c-8.5,12.8-17.6,25.1-27.3,37
	c-3.7,4.8-4.1,10.7-6.8,17.2c8-2.4,13.5-6.5,18.2-11.8c5.2-4.2,10.6-8.1,15.6-12.6c3.4-3.1,7.4-5.9,9.3-10.5
	c5.3-13.1,9-26.3,5.9-40.6c-0.4-1.6,0-3.1,1.5-4.2c0.7-0.2,1.3-0.3,2-0.5L226.7,454.3z"/>
<path class="st1" d="M222.9,248.5c1.8,0.4,4.5-0.8,4.2,3c-0.2,2.7-0.4,4.4-2.7,6.7c-9.7,9.6-22.6,16.3-27.3,30.6
	c8-11.5,19.5-19.5,29.5-28.8c2.3,5.8-1.4,19.7-6.5,24c-7.8,6.4-15.3,13.1-23.5,18.9c-8.3,5.9-18.3,8-28.2,9.9
	c-1,0.2-1.9-0.3-2.4-1.4c0.7-0.7,1.4-1.5,2.1-2.2c1.4-0.5,1.8-1.5,1.6-2.8c0-0.5,0.2-0.7,0.7-0.7c2.7,0.4,3.9-1.6,5.2-3.3
	c6.5-8.2,9.2-18,11.8-27.9c0.7-3.2,2.6-5.2,5.8-5.8c3.4-0.1,6.3-1,7.3-4.8l0,0c10.5-0.8,16.8-7.9,22.7-15.5L222.9,248.5z"/>
<path class="st0" d="M271.9,373.3c-1.9,0.5-2.9-0.9-3.9-2.1c-2-2.4-3.9-5-5.8-7.5c-9.9-13.5-10.2-13.6-25.8-8.1
	c-2.5,0.9-5.1,1.6-7.5,0.9c-5.8-1.6-10.1,0.4-14.3,4.3c-7,6.5-15.7,8.8-25,9c-1.8,0-4.5-1.2-5.2,1.3c-0.4,1.6,2.1,2.5,3.4,3.7
	c6,5.4,12,5.7,20,3.5c12.4-3.5,25.6-3.3,35.5,6.8c6.7,6.9,13.3,10.9,22.9,6.4c-7.2-9.8-17.7-16.4-28.7-23.1c4-0.2,7.8,1.1,12.6,4.3
	c7.2,4.8,13.8,10.4,19.7,16.9c1.8,2,2.2,3.4,0.1,5.4c-3.2,3-6,6.3-9.3,9.2c-7.5,6.4-11,7-18.8,1c-8.1-6.3-16.2-11.9-27.2-11
	c7.3-3.2,14-1.6,20.3,2.3c4.7,2.9,9.1,6.2,13.7,9.3c1.1,0.7,2.5,1.6,3.8,0.2c0.9-1,0.1-2.2-0.2-3.3c-2.9-10.1-16.4-21.2-27.2-22.1
	c-11.2-0.9-21.7,0.4-31.6,7.2c-7.7,5.4-16.9,8.7-25.4,13c5.5-6.9,13.2-10.3,21.2-13.1c1.7-0.6,3.8-0.6,4.3-3
	c0.5-2.7-1.4-3.9-3.1-5.2c-4.6-3.3-10-5.8-12.2-12.5c8.7,2.2,16.3-0.9,24.1-2.2c4.4-0.7,8.1-3.5,11-7c3.1-3.9,7.2-5.5,11.9-4.5
	c3.9,0.9,7.2,0.2,10.9-1.1c15.4-5.5,18.7-4.3,28.4,9.8C266.8,365.7,270.6,368.7,271.9,373.3z M262.9,396c-1.8,0-3.6,0.1-5.3,0
	c-1.8-0.1-3.5,0.6-3.4,2.3c0,2,0.5,4.5,1.8,5.7s2.4-1.3,3.5-2.2C261.2,400.3,262.7,398.6,262.9,396z"/>
<path class="st2" d="M137.4,274.6c-3.8,2.7-7.7,5.2-11.3,8.2c-1.4,1.2-3.9,2.3-2.9,5.1l0.1-0.1c-2.6-0.8-3.1,1.9-4.8,2.7
	c-3.5,1.8-6.2,1.9-5.9-3.3l0,0c6.1-6,9.7-13.6,10.4-21.9c0.7-8.2,3.2-15.2,7.8-22c2.9-4.2,7.2-8,6.7-13.9l0,0
	c5.1-2.4,7.3-6.7,8.4-11.9l0,0c1.2,0.4,1.6-0.1,1.2-1.2l0,0c1.2,0.3,1.6-0.1,1.2-1.2l0,0c1.2,0.3,1.6-0.1,1.2-1.2l0,0
	c2.9,0.5,3.3-2.1,4.5-3.6c2.1-2.8,3.2-6.2,5.9-8.5c2.4,1.5,0.8,3.2,0,4.6c-5.1,10-10.7,19.7-15.4,29.9
	C138.7,248.4,134.5,260.9,137.4,274.6z"/>
<path class="st2" d="M123.1,287.8c4.3-1,6-5.4,9.4-7.5c2-1.2,3.6-3,6.1-3.3c1.8,1.5,1.2,3.6,1.2,5.5c0,6.9,0,13.7,0,20.6
	c-1.8,2.7-6.6,1.9-7.1,6.1l0,0c-4.1-0.2-6.8,2.3-9.5,4.8c-2,1.2-4,2.4-6,3.7c-2.6-0.3-4.6-0.8-2.9-4.2c0.6-1.3,1.3-2.8,0.5-4.4l0,0
	c1.1,0.5,1.9-0.1,2.3-1C119.7,301.5,123.6,295.3,123.1,287.8L123.1,287.8z"/>
<path class="st2" d="M81.7,270.1c0.7-0.5,1.5-1,2.2-1.5c1,0.1,2.1,0.3,2.4-1.1l-0.1,0.1c1.8,0,3.7,0.3,3.6-2.4l-0.1,0.1
	c5-0.8,7.2-4.6,9.6-8.4h-0.1c1.3,0.4,2.1,0,2.5-1.2l-0.1,0.1c0.8,0,1.4-0.3,1.3-1.3l-0.1,0.1c1,0.1,1.6-0.1,1.2-1.3l0,0
	c3,0.6,3.9-0.9,3.6-3.6v0.1c1,0.1,1.4-0.3,1.3-1.2l-0.1,0.1c0.9,0.1,1.3-0.3,1.3-1.3l-0.1,0.1c0.9,0.1,1.3-0.4,1.3-1.3l-0.1,0.1
	c0.9,0.1,1.4-0.3,1.3-1.3h-0.1c1.2,0.4,2.1,0.1,2.5-1.2l-0.1,0.1c1.1,0.3,1.8-0.1,2.4-1c1.9-2.2,5.2-0.6,7.1-2.7
	c1.8,0.5,6.3-0.6,3,3.4c-5.3,6.5-4.5,16.9-13.7,20.7c-0.1,0.1,0,0.7,0,1.1l0,0c-2.2-0.8-3.7,0.9-5.5,1.6c-7.9,3-15.8,6.3-24.6,5.7
	C82.2,272.4,80,272.9,81.7,270.1z"/>
<path class="st1" d="M384.7,186.9c-3.2-6.9-9.2-11.4-15-15.8c-5.6-4.2-11-8.4-11.3-16.2c2.1-0.2,4.4-0.7,6.3,0.7
	c3.1,2.3,6.3,1.8,9.4,0.2c8.6,9,13.7,20.3,20.1,30.7c1.2,1.9,3.3,4.9,0.2,7.5c-0.9-1.5-2-2.8-3.7-3.5c-0.6-1-1.4-1.5-2.6-1.2
	l0.1,0.1c0-2.6-1.7-2.7-3.6-2.4L384.7,186.9z"/>
<path class="st0" d="M464.5,481.5c8.3,6.1,10,15.4,12.1,24.6c2.8,11.8,4.2,23.9,5.6,35.9c0.1,0.8,0.1,1.6,0,2.4
	c-0.4,2.9-1.3,6.3-3.8,7.1c-3.2,1-4.3-2.7-5.5-5c-7.7-14.5-16.9-27.8-30.6-37.4c-5.5-3.8-11.8-5.9-18.2-8.6
	c-0.5,3.3,3.3,2.8,3.5,4.9c-0.3,0.3-0.5,0.6-0.8,0.9c-4.1-2.6-8.3-5.2-12.4-7.9c-3.3-2.2-3.4,0.1-3.5,2.4c-1.5-0.5-1.8-2.1-2.8-2.9
	c-1.6-1.3-3.1-3.3-2-4.9c1.1-1.8,3.1,0.4,4.8,0.5c6.4,2.4,12.9,4.7,19.3,7.2c5.9,2.3,12.2,4.2,16.8,8.4c7.8,7.2,15.6,14.5,20.6,24.2
	c2.6,5,6.2,9.2,11.3,13.4c-0.5-16.7-0.1-32.4-6.8-47.4c-2.6-5.9-5.8-11.5-8-17.5L464.5,481.5z"/>
<path class="st0" d="M534.6,300.8c-2.3-6.8-6.1-13.1-7.2-20.3c5.6,5.1,5.9,13,9.8,19.1c4.2,6.6,5.1,14.8,7.8,22.1
	c0.5,1.3,0.7,2.8-0.4,3.9c-0.4,0.4-1.6,0.3-2.2-0.1c-8.3-4.8-17.4-7.8-26-11.7c-17-7.7-27.7-21.6-36.4-37.5c-2.5-4.5-4.9-9-7.3-13.5
	c2.9-0.8,3.7,1.9,4.7,3.5c3.4,5.3,6.6,10.7,9.8,16.1c8.2,13.6,18.4,25,33.9,30.5c1.3,0.5,2.6,0.6,4,1c4.3,2.8,8.9,5,13.8,6.5
	c2.3,0.7,3.4-0.1,2.5-2.1C538.7,312.6,538.6,306,534.6,300.8z"/>
<path class="st0" d="M113.7,265.3c0-0.4-0.1-1,0-1.1c9.1-3.8,8.4-14.2,13.7-20.7c3.2-4-1.3-2.9-3-3.4c7.9,0.8,9.1-6.7,13.1-10.6
	c0.5,5.9-3.8,9.7-6.7,13.9c-4.6,6.7-7.1,13.8-7.8,22c-0.7,8.3-4.3,15.9-10.4,21.9c0.5-5.5,4.1-9.8,5.9-14.8
	C120.6,266.5,119.9,265.1,113.7,265.3z"/>
<path class="st0" d="M394.4,193.9c3.1-2.6,1-5.5-0.2-7.5c-6.4-10.4-11.5-21.7-20.1-30.7c-2.5-2-3.9-4.5-4.6-9
	c9.9,9,16.1,19.2,22.5,29.2c3,5.2,6.5,10.2,7.5,16.3c0.3,1.9,1.1,3.9-1.6,3.9c-3.2,0-6.7,1.3-9.6-1.1l0.1-0.1
	C390.4,194.7,392.7,196.1,394.4,193.9z"/>
<path class="st0" d="M226.5,103.6c-5.4-1-10.7-3.5-17-8.6c7.1,0.9,13.1,1.3,19.3,0.4c12.7-1.7,25.6-2.1,38.4-2.6
	c4.7-0.2,9.4,1,13,4.6l-0.1,0.1c-19.6-5.4-38.9,0.2-58.8,1.2c1.7,2.6,4.7,2.2,5.4,4.7L226.5,103.6z"/>
<path class="st0" d="M414.5,89.2c-3.1,1-4.6-2.6-7.5-2.6c-2.8,0-5.5-0.8-3.7,3.8c1.3,3.4,0.3,7.1,0.3,10.6c0,1.3-0.6,2.6-2.1,2.1
	c-1.2-0.4-2.6-1.3-1.2-3.4c2.2-3.5,1.3-6.9-1.2-10.2c-3.8-5-7.2-10.3-11-15.4c-4.8-6.5-11.2-8.8-19-6.3c7.6-4.9,11.4-4.5,18.3,2.3
	c2.9,2.8,6.2,5.8,7.6,9.4c1.9,4.6,4.8,5.3,9,5C408.3,84.2,412.2,85.2,414.5,89.2z"/>
<path class="st0" d="M355,114.3c3.6-8,15.4-11.9,21.4-10.6c5.7,1.3,11.5,2.4,17.2,3.8c4.6,1.1,8.9,1.2,13.1-1.3
	c5.8-3.5,11.5,0,17.3,0.2c1.9,0.1,3.9,0.5,5.8,0.8c1.6,2.3,5.8-0.5,6.6,3.3c-6.4,0.2-12.4-2.3-18.7-3c-3.3-0.4-6.4-1-9.7,0.5
	c-5.3,2.5-11.4,2.8-16.6,1c-4.8-1.7-9.8-1.7-14.6-2.9c-6.9-1.8-12.7,1.8-17.9,6C357.8,113.1,356.9,114.6,355,114.3z"/>
<path class="st0" d="M280,366.3c6.7,5.1,7.7,13.3,2.2,17.5c-1.1,0.9-2.3,2-3.5,0.5c-2.6-3.4-6.9-5.9-6.8-11.1c2,1.5,3.9,3,5,5.4
	c0.5,1.1,1.5,3,3.3,2.2c1.3-0.6,2.2-1.8,2.5-3.6C283.2,373.2,281,369.9,280,366.3z"/>
<path class="st0" d="M123.2,287.8c0.4,7.5-3.5,13.8-6.1,20.4c-0.4,0.9-1.2,1.5-2.3,1c0.2-3.5,1.3-6.8,3.3-9.6
	c2.5-3.6,3.4-5.9-2.6-5.9c-4.9,0-5.5-2.6-2.9-6.4c-0.3,5.2,2.4,5,5.9,3.2C120.1,289.7,120.6,287,123.2,287.8z"/>
<path class="st0" d="M81.7,270.1c-1.7,2.7,0.5,2.3,2,2.4c8.8,0.6,16.6-2.7,24.6-5.7c1.8-0.7,3.3-2.3,5.5-1.6
	c-9.4,6.3-19.6,10-31.1,9.5c-1.9-0.1-4.2-0.5-4.5-2.6C78,270.6,79.8,269.6,81.7,270.1z"/>
<path class="st0" d="M432.2,102.5c-2.5-2.4-7.6-1.3-8.2-6.2c8.2,3.2,16,6.9,22.6,12.7c1.2,1,3.9,1.9,2.5,4.2
	c-1.2,1.9-3.6,1.1-5.4,0.7c-1.2-0.2-2.1-1.4-3.2-2.1c1.3-0.8,3.6,1.1,4.5-1.5C441,107.2,436.9,104.5,432.2,102.5z"/>
<path class="st0" d="M187.3,274.5c-2.6,9.9-5.3,19.7-11.8,27.9c-1.3,1.6-2.6,3.7-5.2,3.3c6.6-8.5,10.9-18.1,14.5-28.1
	C185.4,276.2,186.1,275.2,187.3,274.5z"/>
<path class="st0" d="M443.1,634.9c-9.4-0.4-18.7-0.8-28.1-1.2c-2.3-0.1-4.8,0-6.4-2.1c11,2.4,22.4-0.6,33.4,2.3
	C442.4,634,442.7,634.6,443.1,634.9z"/>
<path class="st0" d="M223,248.4c-5.9,7.6-12.1,14.7-22.7,15.5c5.2-4,12.2-5.6,15.8-11.6C217.8,249.6,219.9,248.4,223,248.4z"/>
<path class="st3" d="M432.2,102.5c4.7,2,8.8,4.7,12.8,7.9c-1,2.6-3.2,0.7-4.5,1.5h0.1c-0.9-1.8-2.5-1.6-4.1-1.4h-0.1
	c-0.9-3.8-5-1-6.6-3.3C431.3,106,432.1,104.4,432.2,102.5z"/>
<path class="st0" d="M159.6,201.9c-2.7,2.3-3.9,5.8-5.9,8.5c-1.2,1.5-1.6,4.2-4.5,3.6c3.6-7.6,7.9-14.6,14.2-20.3
	c0.1,0.1,0.3,0.3,0.4,0.4C164,197.6,160.1,198.7,159.6,201.9z"/>
<path class="st0" d="M377.6,612.4c-1.2-2.3,2.2-2.9,1.8-5c-5.1-0.5-8.8,4.2-13.8,3.7c4.1-3.2,9-5.1,13.8-7c1-0.4,3.2-1.1,4,0.9
	c0.6,1.5-0.2,2.8-1.5,3.5C380.1,609.5,380.5,612.8,377.6,612.4z"/>
<path class="st0" d="M394.5,630.2c-11.2,0-22.4,0-34.1,0c0.8-2.4,2.2-3.9,4.2-4.7c-0.6,3,0.8,3.6,3.5,3.5c7-0.2,14.1-0.1,21.1,0
	C391,629.1,393.2,628,394.5,630.2z"/>
<path class="st0" d="M155.2,436.3c3.6-3.3,7.4-6.2,11.9-8.3l0.2,0.2c-2.1,5.4-6.8,7.2-11.9,8.4L155.2,436.3z"/>
<path class="st0" d="M145.7,217.6c-1.1,5.2-3.3,9.5-8.4,11.9C139.3,224.9,141.8,220.7,145.7,217.6z"/>
<path class="st0" d="M132.7,309.3c0.5-4.2,5.2-3.5,7.1-6.1c2.1-0.5,3.4-2.9,5.9-2.4l0.2,0.2C142.2,304.8,137.8,307.6,132.7,309.3z"
	/>
<path class="st0" d="M114.8,309.1c0.8,1.6,0.2,3.1-0.5,4.4c-1.7,3.4,0.3,3.9,2.9,4.2c-1.3,0.7-2.5,1.9-3.8,2.1
	c-2.2,0.3-4-0.5-2.2-3.2C112.8,314.2,112.3,310.9,114.8,309.1z"/>
<path class="st0" d="M99.4,256.8c-2.4,3.7-4.6,7.6-9.6,8.4C92.3,261.5,95.1,258.4,99.4,256.8z"/>
<path class="st0" d="M424,96.3c-4.6-0.6-7.6-3.1-9.5-7.2C418.5,90.5,421.7,92.8,424,96.3z"/>
<path class="st0" d="M366.9,70.1c-2.9,4.5-7,5.9-12.1,4.8C358.6,72.8,363.3,72.8,366.9,70.1z"/>
<path class="st0" d="M449,645.6c-4.4-2.2,0.4-5.8-1.3-8.4c3.2,0.5,5.1,1.5,2,4.6C448.6,643,449,644.3,449,645.6z"/>
<path class="st0" d="M236,108.4c-3.5-0.9-6.6-2.6-9.5-4.8l0.1-0.2c4-0.1,7.5,0.9,9.5,4.7L236,108.4z"/>
<path class="st0" d="M123.3,314c2.7-2.5,5.4-5,9.5-4.8C130.4,312.3,127.1,313.7,123.3,314z"/>
<path class="st0" d="M457.3,474.4c3.3,0.6,5.3,2.6,6,5.9l-0.2,0.2C459.9,479.7,458.7,477,457.3,474.4L457.3,474.4z"/>
<path class="st0" d="M200.4,263.9c-1,3.8-3.8,4.7-7.3,4.8C194.8,266,197.2,264.4,200.4,263.9z"/>
<path class="st0" d="M349,623c-0.3,3.7-2.7,4.8-6,4.8C344.2,625.1,346.8,624.3,349,623z"/>
<path class="st0" d="M353.8,619.4c-0.4,2.8-2,4.1-4.8,3.6C350.1,621.2,351.3,619.4,353.8,619.4z"/>
<path class="st0" d="M158.8,410.1c-0.3,2.5-1.1,4.1-4,2.7C155.7,411.3,156.8,410,158.8,410.1z"/>
<path class="st0" d="M499.9,257.9c-1.4-1.2-3-2.4-2.1-4.7C499.9,254.1,500.4,255.8,499.9,257.9z"/>
<path class="st0" d="M469.1,259.3c2.8-0.4,4.2,0.6,3.6,3.6C471.1,262.1,469.9,260.9,469.1,259.3z"/>
<path class="st0" d="M240.8,110.7c-2,0-3.9-0.1-4.8-2.4l0.2-0.2c2.1-0.2,3.9,0.1,4.7,2.4L240.8,110.7z"/>
<path class="st0" d="M107.7,249.7c0.3,2.7-0.6,4.2-3.6,3.6C104.9,251.7,106.1,250.5,107.7,249.7z"/>
<path class="st0" d="M151.6,438.7c0.7-1.5,1.8-2.5,3.6-2.4l0.2,0.2c-0.1,2.4-1.8,2.5-3.6,2.4L151.6,438.7z"/>
<path class="st0" d="M384.6,186.8c2-0.3,3.6-0.1,3.6,2.4C386.5,189.3,385.3,188.4,384.6,186.8z"/>
<path class="st0" d="M167.1,428c-0.1-1.8,0.8-2.9,2.4-3.6l0.2,0.2c0.1,1.8,0,3.5-2.4,3.6L167.1,428z"/>
<path class="st0" d="M89.9,265.1c0.1,2.8-1.9,2.4-3.6,2.4C86.9,265.9,88,265,89.9,265.1z"/>
<path class="st0" d="M447.8,637.3c-2-0.1-3.6-0.9-4.9-2.4C445,634.9,447,634.9,447.8,637.3z"/>
<path class="st0" d="M465.5,256.9c2-0.4,3.7-0.4,3.6,2.4C467.9,258.5,466.7,257.7,465.5,256.9z"/>
<path class="st0" d="M374.1,616c-0.3-2,0.4-2.9,2.4-2.4C376.7,615.4,375.9,616.2,374.1,616z"/>
<path class="st0" d="M222.9,124.8c-0.2-1.7,0.6-2.5,2.4-2.4l0.2,0.2c0.1,1.7-0.8,2.4-2.4,2.4L222.9,124.8z"/>
<path class="st0" d="M146.8,443.4c-0.2-1.7,0.6-2.5,2.4-2.4l0.2,0.2c0.1,1.6-0.7,2.5-2.4,2.4L146.8,443.4z"/>
<path class="st0" d="M436.5,110.5c1.6-0.2,3.2-0.5,4.1,1.4C439.2,111.7,437.4,112.3,436.5,110.5z"/>
<path class="st0" d="M388.2,189.2c1.2-0.3,2,0.2,2.6,1.2C388.8,192.3,388.9,189.9,388.2,189.2z"/>
<path class="st0" d="M167.2,401.5c0.2,1.2,0,2.3-1.4,2.8C166,403.2,165.9,402,167.2,401.5z"/>
<path class="st0" d="M86.3,267.5c-0.3,1.4-1.4,1.2-2.4,1.1C84.3,267.3,85.5,267.7,86.3,267.5z"/>
<path class="st0" d="M163.5,406.6c-0.4,1.2-1.2,1.5-2.4,1.2C161.4,406.4,162.6,406.8,163.5,406.6z"/>
<path class="st0" d="M154.5,413.3c0.6,1.8-0.6,1.7-1.7,1.6C153,414,153.6,413.5,154.5,413.3z"/>
<path class="st0" d="M114.9,243.7c-0.3,1.4-1.2,1.7-2.5,1.2C112.7,243.4,113.9,243.9,114.9,243.7z"/>
<path class="st0" d="M117.2,242.8c-0.6,0.8-1.4,1.3-2.4,1C115.1,242.3,116.2,242.6,117.2,242.8z"/>
<path class="st0" d="M454.9,473.2c0.9,0.2,2.1-0.3,2.4,1.2l-0.1,0.1C456.2,474.6,455.4,474.2,454.9,473.2L454.9,473.2z"/>
<path class="st0" d="M101.8,255.6c-0.4,1.3-1.2,1.7-2.5,1.2C99.6,255.3,100.9,255.8,101.8,255.6z"/>
<path class="st0" d="M356.3,183.1c0.9,0.2,2.1-0.2,2.4,1.2l-0.2,0.2c-1.1,0.1-1.9-0.1-2.3-1.2L356.3,183.1z"/>
<path class="st0" d="M358.8,616.1c-0.7,0.8-1.3,1.8-2.6,0.9C356.6,615.5,357.7,616,358.8,616.1z"/>
<path class="st0" d="M148,146.4c-1.4-0.3-1-1.5-1.2-2.4l0.1-0.1c0.6,0.6,1.3,1.2,1.9,1.8C148.6,145.9,148.3,146.2,148,146.4z"/>
<path class="st0" d="M522.7,277c-1.2,0.7-1.9,0-2.5-0.9C521.2,275.9,522.3,275.5,522.7,277z"/>
<path class="st0" d="M526.3,279.4c-1.3,0.6-2.1,0.2-2.5-1.2C524.7,278.4,526,277.9,526.3,279.4z"/>
<path class="st0" d="M169.6,306.4c0.2,1.3-0.2,2.4-1.6,2.8C168.4,308.2,168.3,306.9,169.6,306.4z"/>
<path class="st0" d="M111.3,246.1c0.1,0.9-0.3,1.3-1.3,1.3C110.4,246.9,110.8,246.5,111.3,246.1z"/>
<path class="st0" d="M169.4,424.4c0.4-0.4,0.8-0.8,1.2-1.2l0.2,0.2c0,0.8-0.4,1.1-1.2,1.2L169.4,424.4z"/>
<path class="st0" d="M108.9,248.5c0.1,1-0.3,1.4-1.3,1.2C108,249.3,108.5,248.9,108.9,248.5z"/>
<path class="st0" d="M227.9,453.1c-0.4,0.4-0.8,0.8-1.2,1.2l-0.2-0.2c0.3-0.5,0.5-1,0.8-1.4C227.5,452.8,227.7,453,227.9,453.1z"/>
<path class="st0" d="M146.9,216.4c0.3,1.2-0.1,1.6-1.2,1.2C146.1,217.2,146.5,216.8,146.9,216.4z"/>
<path class="st0" d="M355.1,181.9c0.4,0.4,0.8,0.8,1.2,1.2l-0.1,0.1c-0.4-0.4-0.8-0.8-1.2-1.2L355.1,181.9z"/>
<path class="st0" d="M160,409c0,0.9-0.4,1.3-1.3,1.3C159.1,409.8,159.6,409.4,160,409z"/>
<path class="st0" d="M102.9,254.4c0.1,0.9-0.4,1.3-1.3,1.3C102.1,255.3,102.5,254.8,102.9,254.4z"/>
<path class="st0" d="M161.2,407.8c0,0.9-0.4,1.3-1.3,1.3C160.3,408.6,160.8,408.2,161.2,407.8z"/>
<path class="st0" d="M527.5,280.6c-1.1,0.2-1.5-0.2-1.2-1.2C526.6,279.8,527.1,280.2,527.5,280.6z"/>
<path class="st0" d="M149.2,147.6c-0.4-0.4-0.8-0.8-1.2-1.2c0.3-0.3,0.6-0.5,0.9-0.7c0.4,0.4,0.7,0.7,1.1,1.1
	C149.7,147,149.5,147.3,149.2,147.6z"/>
<path class="st0" d="M369.2,67.8c0.1,1-0.3,1.4-1.2,1.3C368.4,68.6,368.8,68.2,369.2,67.8z"/>
<path class="st0" d="M365.7,611.1c0.2,1-0.4,1.1-1.2,1.1C364.9,611.8,365.3,611.5,365.7,611.1z"/>
<path class="st0" d="M376.4,613.6c-0.3-1.1,0.1-1.6,1.2-1.2C377.3,612.8,376.9,613.2,376.4,613.6z"/>
<path class="st0" d="M372.9,617.2c-0.1-1,0.2-1.5,1.3-1.2C373.7,616.4,373.3,616.8,372.9,617.2z"/>
<path class="st0" d="M356.2,617c0.3,1.2-0.1,1.5-1.2,1.2C355.3,617.9,355.7,617.4,356.2,617z"/>
<path class="st0" d="M371.7,618.4c-0.1-1,0.3-1.4,1.3-1.3C372.5,617.5,372.1,618,371.7,618.4z"/>
<path class="st0" d="M355,618.2c0.3,1.1-0.3,1.4-1.2,1.3C354.1,619,354.6,618.6,355,618.2z"/>
<path class="st0" d="M370.5,619.6c-0.1-0.9,0.3-1.4,1.3-1.3C371.3,618.7,370.9,619.2,370.5,619.6z"/>
<path class="st0" d="M369.3,620.8c0-0.9,0.4-1.3,1.3-1.3C370.1,619.9,369.7,620.3,369.3,620.8z"/>
<path class="st0" d="M368.1,622c-0.1-0.9,0.3-1.4,1.2-1.3C368.9,621.1,368.5,621.6,368.1,622z"/>
<path class="st0" d="M523.9,278.3c-0.9,0.1-1.5-0.2-1.2-1.3C523.1,277.4,523.5,277.8,523.9,278.3z"/>
<path class="st0" d="M110.1,247.3c0.1,0.9-0.3,1.3-1.3,1.3C109.2,248.1,109.7,247.7,110.1,247.3z"/>
<path class="st0" d="M341.9,628.9c0.2,1-0.4,1.3-1.3,1.3C341.1,629.8,341.5,629.3,341.9,628.9z"/>
<path class="st0" d="M340.7,630.1c0,0.9-0.4,1.2-1.2,1.1C339.9,630.9,340.3,630.5,340.7,630.1z"/>
<path class="st0" d="M148.1,215.2c0.3,1.2-0.1,1.6-1.2,1.2C147.3,216,147.7,215.6,148.1,215.2z"/>
<path class="st0" d="M368.1,68.9c0.1,0.9-0.3,1.3-1.3,1.3C367.2,69.8,367.6,69.4,368.1,68.9z"/>
<path class="st0" d="M149.3,214c0.3,1.2-0.1,1.6-1.2,1.2C148.5,214.8,148.9,214.4,149.3,214z"/>
<path class="st0" d="M149.2,441.1c0.4-0.4,0.8-0.8,1.2-1.2l0.2,0.2c0,0.8-0.4,1.2-1.2,1.2C149.4,441.2,149.2,441.1,149.2,441.1z"/>
<path class="st0" d="M104.1,253.2c0.3,1.2-0.3,1.4-1.2,1.3C103.3,254.1,103.7,253.6,104.1,253.2z"/>
<path class="st0" d="M497.8,253.3c-1.2,0.4-1.4-0.3-1.2-1.2C496.9,252.4,497.3,252.9,497.8,253.3z"/>
<path class="st0" d="M150.4,439.9c0.4-0.4,0.8-0.8,1.2-1.2l0.2,0.2c0,0.8-0.4,1.1-1.2,1.2C150.6,440,150.4,439.9,150.4,439.9z"/>
<path class="st0" d="M221.7,126c0.4-0.4,0.8-0.8,1.2-1.2l0.2,0.2c0,0.8-0.4,1.1-1.2,1.2L221.7,126z"/>
<path class="st0" d="M145.7,444.6c0.4-0.4,0.8-0.8,1.2-1.2l0.2,0.2c0,0.8-0.4,1.1-1.2,1.2C145.8,444.8,145.7,444.6,145.7,444.6z"/>
<path class="st0" d="M112.4,244.9c0.1,1-0.3,1.4-1.3,1.3C111.6,245.7,112,245.3,112.4,244.9z"/>
<path class="st0" d="M463.3,480.3c0.4,0.4,0.8,0.8,1.2,1.2l-0.3,0.3c-0.8-0.1-1.1-0.5-1.1-1.3L463.3,480.3z"/>
<path class="st0" d="M343.1,627.7c0.4,1.2-0.2,1.4-1.2,1.2C342.2,628.6,342.7,628.1,343.1,627.7z"/>
<path class="st1" d="M363.5,650.3c4.2,0,4.5,3.4,5.7,6.2c-1.5-0.1-2.5,0.5-1.7,2c1.3,2.4,3.6,2.7,6.1,2.7c7.9-0.1,15.8,0.1,23.7,0
	c36.6-0.8,73.1,1.9,109.7,1.4c1.6,0,4.2-0.9,4.5,1.5s-2.5,2.4-4,2.6c-16.1,1.9-30.5,8.5-45.3,14.7c-8.2,3.5-17.6,3.8-26.6,4.5
	c-17.8,1.4-35.1,4.2-51.1,12.6c-2.8,1.5-5.3-0.1-8,0.2c-8.6,1.2-17.4,1.5-26.2,0.8c-5-0.4-10.2,0.1-15.2,1
	c-19.7,3.5-39.5,6-59.1,10.8c-9.2,2.3-18.2,6.8-28.2,5.7c-0.4,0-0.8,0-1.2,0h0.1c-4.7-3.2-5.9-0.5-6.2,3.7c-1.1-0.1-2.2-0.1-3.4-0.2
	c-1.8-0.8-0.6-4-2.7-4c-2.3,0-2.1,2.9-3.4,4.2c-10.5,1.4-20.6-1-30.8-2.6c-1.6-0.2-3.4,0-3.9-1.9c-0.5-1.8,1.6-2,2.5-2.8
	c9.2-8.4,19.7-14.4,32.1-16.7c1.5-0.3,2.1-1.5,3-2.6c11.9-15.4,27.1-25.3,46.9-27.2c6.4-0.6,13-1.2,18.1-6.2c1.5-1.5,3.7-2.7,6-1.9
	c16.8,5.4,31.3-0.8,45.4-8.9c2.3-1.3,4.5-0.4,6.8,0.1C359.1,650.5,361.3,653.1,363.5,650.3z"/>
<path class="st2" d="M85.4,673.2c30-6.8,58.8-16.6,87.2-28c8.5-3.4,17.3-8.7,26.6-6.6c12,2.6,22.5,0.8,33.7-3.5
	c11.6-4.5,24-1.5,36,0.3c7.2,1.1,14.4,2.2,21.4,4.2c4.2,1.2,8-1.7,11.9-2.8c1.3-0.4,2.8-1.4,3.7,0.2c0.7,1.3,0.1,2.7-1,3.7
	c-5.3,5.3-10.1,10.7-12.5,18.2c-1.5,4.6-7.1,5.7-11.2,5.6c-10.6-0.3-19.2,3.3-27.9,9.1c-5.5,3.6-13,6.4-16.5,11.1
	c-7.1,9.8-16.6,10-26.4,10.8c-14,1.2-28,0.1-41.7-3.4c-4.9-1.2-9.4-3.1-12.8-6.9c-2.8-3.1-6.1-4.6-10.2-5.3
	c-13.3-2.5-26.2-7-39.9-6.7c-5.9,0.1-11.8,0.9-17.7,1.6C87.1,674.9,86.3,675,85.4,673.2z"/>
<path class="st1" d="M359.7,472c-5.9,12.6-12.8,24.2-23.6,33.3c-7.9,6.7-16.1,13.4-21.8,22.4c-3.1,4.9-5,10.1-4.2,15.9
	c1.4,0.2,1.8-0.6,2-1.3c4.8-15.7,16.5-26.1,28.4-36.2c11.2-9.5,17.6-22,23.9-36.6c0.3,15.7-0.8,29.6-7.9,42.3
	c-6.4,11.4-13.5,22.2-23,31.5c-10.2,10-22.5,16.6-34.7,23.5c-3.9,2.2-4.9,0.7-4.5-3.1c0.5-5.7,1.7-11.2,3.5-16.7
	c2.7-7.8,0.4-16.1,2.3-24.1c3.7-15.6,12.9-26.9,26.4-34.8c6.3-3.7,12.7-7.1,19.9-9.1C351.3,477.7,354.5,473.4,359.7,472z"/>
<path class="st1" d="M255.7,294.4c6-3.3,9.6-9.3,15.5-14.1c-1.2,18.8-7.4,34.9-17.9,49.1c-6.7,9-16.9,13-27.7,14.1
	c-6.3,0.6-12.4,1.8-18.6,3c-1.3,0.3-2.8,1.3-3.7-0.3c-0.9-1.5,0.4-2.6,1.5-3.4c6.8-5,12.1-10.5,11.5-20c-0.2-2.3,2.3-4.9,3.8-7.2
	c4-6.6,8-13.1,12.2-19.6c4.6-7.1,11-12.2,18.7-15.7c2-0.9,4-1.8,5.7-3.1c6.5-4.7,13.8-5.4,21.5-5c0.4,0,0.8,0,1.2,0.1
	c5.2,1.3,12.1,17.2,9.5,21.9c-1.7,3.1-3.1,6.5-5.5,9.1c-6.6,7.2-6.5,16.7-9,25.2c-1.1,3.7-1.9,7.6-1.5,11.7c0.1,1.1,0.4,2.7-1.2,2.9
	c-0.7,0.1-1.7-0.8-2.4-1.5c-3.9-4-5.8-9.3-8.6-14c-1.3-2.2,1.3-4.7,2.6-6.8c7.4-12.3,9.9-26,10.9-40.1c0.1-1.6,0.9-3.9-1.4-4.6
	c-1.7-0.6-2.8,1.1-4,2.1C263.6,283,259.5,288.4,255.7,294.4z M233.1,330.5c1.7-9.3,4.9-17.5,13.4-23.1c3.7-2.4,6.2-6.6,8.9-11.4
	C241.1,303.4,232,317.6,233.1,330.5z"/>
<path class="st1" d="M388.3,195.1c3,2.4,6.4,1.1,9.6,1.1c2.7,0,2-1.9,1.6-3.9c-1.1-6.1-4.5-11.1-7.5-16.3c5.2,0.7,10.4-1.3,15.6,0.1
	c-6.5,5.7-6.9,7.9-0.6,14.1c6.5,6.4,11.7,14.3,20.7,17.9c-0.5,3.8-3.9,5.2-6,7.7c-1.6,1.9-4,3.3-3.5,6.4c-8.1-2.8-13.4-8-14.3-16.9
	c-0.1-1.2,0-2.5-1.5-2.8c-1.9-0.4-2.3,1.3-2.8,2.5c-0.6,1.4-1.5,3-1.4,4.5c0.2,4.5-2.4,6.1-6.2,7.3c-2.6,0.8-4.9,2.8-8.7,5
	c4-8.4,11.5-12.5,13.9-20.2c-3.7-1.4-6.6,0.3-9.7,1.6c-18.1,7.5-35.1,17.2-52.4,26.1c-12.9,6.6-22.9,17.2-31.3,29.1
	c-3.5,5-7.7,9.6-14.1,11.2c-1.7,0.4-4,1.3-2.7-2.2c6.6-17.6,15.1-33.8,30.2-45.8c15.4-12.2,33.5-19.4,51.5-26.5
	C374.8,192.4,381.7,193.6,388.3,195.1z"/>
<path class="st1" d="M229.1,146.2c6.2,0.4,12.1-3.3,18-2.1c14.5,2.9,23.7-5.2,33-14c7-6.6,13.5-13.9,23.8-15.4
	c3.8-0.6,7.3-0.7,11.1,1.4c-10.4,2.6-17,9.1-21.4,18.3c-5.8,12-9.6,24.8-14.8,37l0,0c-1,0.1-2.2-0.2-2.8,0.3
	c-7.3,6.4-16.7,7.5-25.4,10.4c-0.6,0.2-1.1,0.4-1.7,0.6c-3.7,0.8-7.5,1.2-10.9-0.3c-1.5-0.7,2.3-11.3,4.1-13.3
	c6.7-7.1,13.2-14.3,19.3-22.1c-6.4,1.2-8.9,7-13.1,10.7c-3.1,2.7-5.4,6.2-8.3,9.2c-3.2,3.3-8.3,2.5-11.8,5.3c-1.1,0.9-2.1-1.9-3.1-3
	c1.5-5.6,1.3-11.2,1.3-16.9C226.6,149.9,226.3,147.4,229.1,146.2z"/>
<path class="st1" d="M234.8,228.3c6-2.3,11.9-4.9,18-6.9c6.4-2.1,12.8-5,19.8-2.6c1.5,0.5,3.3,1.5,3.1,3.2c-0.2,2.2-2.4,1.7-3.9,1.6
	c-7.2-0.4-11.7,3.3-14.2,9.4c-3,7.2-8.4,12.9-12,19.7c-1,1.9-1.9,3.7-2.4,7.2c7.3-8.5,12.5-16.7,17.1-25.4c2.7-5.2,6.3-8.8,12.7-9.1
	c3.5-0.1,4.7,0.6,3.7,4.3c-1.9,6.8-2.6,14-7.1,19.9c-0.7,0.9-1.7,2.4-1.3,3.2c5.1,12.3-5.9,16-12.1,21.3c-5.5,4.7-14,5.6-19.1,11.4
	c-5,5.6-11.4,5.3-18.5,6.2c2.4-4.7,6.4-7,8.1-11.4c3.7-9.6,3.8-19.2,2.8-29.2c-0.6-5.9,2-11.1,3.6-16.6
	C233.8,232.4,235.4,230.6,234.8,228.3C234.8,228.2,234.8,228.3,234.8,228.3z"/>
<path class="st1" d="M357.4,467.4c-3.6,5.2-9.4,7-14.8,9.4c-12.2,5.5-24.4,10.6-33.8,21c-8.7,9.5-13.2,20.3-14.4,32.8
	c-0.4,4.5-0.5,9-1.1,13.5c-0.5,3.6-1.9,5.2-5,6.3c-5.7,2.1-11.4,4.5-17.1,6.7c-1.9,0.7-4,1.1-5.6-0.4c-2-1.9,0-3.8,0.8-5.3
	c2.4-4.3,4.8-8.7,7.9-12.5c7.7-9.6,11.1-20.7,12.7-32.6c1.2-9,5.8-15.6,12.5-22c7.6-7.2,14.7-14.9,24.6-19
	c7.6-3.2,14.8-7.4,22.8-9.5c3.5-0.9,7-1.3,10.3,0.7C357.4,460.3,357.4,463.9,357.4,467.4z"/>
<path class="st1" d="M500.2,387.7c-0.1-0.4-0.1-0.7-0.1-1.1c1.2-0.9,2.5-1.7,3.7-2.6c7.6,4.6,14,10.5,20.3,16.8
	c8.1,8.2,18.7,13.1,28.6,18.8c-3.8-5.3-9-8.9-14.3-12.1c-4.3-2.6-8.4-5.2-11.6-9.1c-6.2-7.6-15-12.1-22.3-18.5
	c-1.6-1.4-4.1-2.9-3.3-4.9c0.6-1.8,3.3-1.2,5.3-1.1c3.9,0.2,7.9-0.1,11.8-0.5c9.6-1.2,16.6,3.7,23,9.7c2.4,2.3,4.5,5,7.1,7.1
	c8.5,7.1,11.9,16.5,12.2,27.1c0.2,7.1,0.8,13.7,5.6,20c-11.7-7.1-27.4-4.8-36.7-14.6c-9.1-9.5-22.3-15.9-25.9-30.2
	C503.6,390.1,504.2,387.4,500.2,387.7z"/>
<path class="st2" d="M463.1,480.5c-0.1,0.8,0.3,1.2,1.1,1.3c2.2,6.1,5.5,11.6,8,17.5c6.6,15,6.2,30.7,6.8,47.4
	c-5.1-4.1-8.7-8.4-11.3-13.4c-5-9.7-12.8-17-20.6-24.2c-4.6-4.2-11-6.1-16.8-8.4c-6.4-2.5-12.9-4.8-19.3-7.2c0-1.4,0-2.8,0-4.2
	c2.7-0.6,5.4-1.1,8.1-1.8c9.7-2.5,18.7-1.5,26.9,4.6c6.5,4.8,12.5,10.2,18.3,15.8c0.5,0.8,1.2,2.1,1.9,1.2c0.8-0.9-0.5-1.5-1.4-1.9
	c-1.4-4.9-5.6-7.4-8.9-10.7c-10.3-10.2-22.4-14.7-37-11.6c-3.4,0.7-6.8,2.1-10.4,1.5c0-1.2,0-2.5-0.1-3.7
	c7.6-4.7,16.3-6.8,24.3-10.8c7.8-3.9,14.9-0.9,22.2,1.4c0.5,0.9,1.3,1.3,2.4,1.2C458.7,477,459.9,479.7,463.1,480.5z"/>
<path class="st3" d="M502.4,252.2c-5.1-6.5-12.1-9.6-19.9-10.9c-2.7-0.4-4.6-0.8-5.5-4.1c-1.3-5.2-6.1-6.1-10.8-7.2
	c9.6-2.9,19.2-4.6,29.6-0.9c-3.1-3.8-7.5-6-12.5-5c-7.3,1.4-15.5-0.6-21.7,5.6c-1.2,1.2-4.2,0-5.5-2c-1.4-2.1,1.1-1.3,1.5-2
	c7.7-13.4,21.5-11.2,33.6-12.6c14.5-1.7,26.9,3.7,38.2,12.8c3.9,3.1,9,4.8,13.6,7c1.8,0.8,3.8,1.1,5.5,3.3
	c-10.3,3.1-18,10.2-26.8,15.4C515.2,255.5,508.8,253.3,502.4,252.2C502.3,252.2,502.4,252.2,502.4,252.2z"/>
<path class="st1" d="M350.3,254.5c-7.9,1.3-12.8,7.3-18.4,12.1c-7.8,6.7-15.9,12.1-26.7,11.9c-1.1,0-2.9,0.8-3.3-0.2
	c-2.8-6.2-5.8-2.9-9.2-0.6c-2.3,1.5-5,0.5-5.9-2c-1-3,2.1-2,3.4-2.5c10.8-3.7,17.5-12.1,23.3-21c6.7-10.2,16.7-16.6,26.7-21.9
	c16.1-8.6,32.7-16.4,48.9-25c0.3-0.1,0.7,0,1.1,0c1,2.5-1.3,3.4-2.2,5c-7.1,11.6-17.1,20.7-25.9,30.8c-2.9,3.3-5.3,6.8-9.2,9.1
	C351.4,251.1,350,252.4,350.3,254.5L350.3,254.5z"/>
<path class="st4" d="M407.5,176.2c-5.2-1.4-10.4,0.6-15.6-0.1c-6.4-10-12.6-20.2-22.5-29.2c0.7,4.5,2.1,7,4.6,9
	c-3.2,1.6-6.3,2-9.4-0.2c-1.9-1.4-4.1-0.9-6.3-0.7l0.1-0.2c-0.3-0.4-0.6-0.9-1-1.3c0.5-6.1-1.1-11.7-4.6-16.7
	c11.1,2.7,21.5,8.2,33.1,9.1c2.5,0.2,5,1.4,7.1-0.9c5.1,7.2,9.7,14.7,12.2,23.4c0.4,1.3,0.3,3.7,2.4,3.6c2.4-0.2,1.8-2.5,2-4.2
	c0.8-6.4,1.2-12.9,2.7-19.2c3.8-16,14-17.8,28.1-15.8c3,0.4,6.3,1.6,8.8,3.2c5,3.3,10.4,4.5,16.2,4.5c0.4,2.7-1.4,4.3-3.1,6
	c-2,1.9-3.7,4-4,6.9c-15.1-0.6-29,2.2-40.5,13.1c-1.9,1.8-3.5,3.7-4.9,5.9C411.7,174.4,410.3,176.3,407.5,176.2z"/>
<path class="st4" d="M145.8,444.8c0.8,0,1.1-0.4,1.2-1.2c1.7,0.1,2.4-0.7,2.4-2.4c0.8,0,1.2-0.4,1.2-1.2c0.8,0,1.2-0.4,1.2-1.2
	c1.8,0.1,3.5,0.1,3.6-2.4c5.1-1.1,9.7-3,11.9-8.4c2.4-0.1,2.5-1.8,2.4-3.6c0.8,0,1.1-0.4,1.2-1.2c3.2-0.4,4.2-3.2,6-5.2
	c7.8-8.5,16.6-15.7,28.9-15c16.3,1,24.5,13.5,23.2,28.4c-0.3,3.4-2.2,2.7-4,1.3c-4.2-3.2-9-4.9-14-5.9c-14.2-3-25.1,4.3-35.8,11.8
	c-4,2.8-7.6,6.3-11.3,9.5c-5.7,2.2-8.8,6.4-9.6,12.4c-3.1,2.7-6.2,5.4-9.3,8.1c-1.1,0.9-2.4,1.4-3.8,0.8c-2-0.8-1.4-2.7-1.2-4.1
	c0.6-5.7,2.8-10.9,4.9-16.1C145.3,447.8,146.1,446.4,145.8,444.8z"/>
<path class="st4" d="M412,395.5c1.8-11.6,7-22.2,16.3-28.6c6.3-4.3,13.5-9.9,22.6-9.9c-3.8-3.2-7.9-5.5-12.9-6.4
	c-8.6-1.4-17.6-1.7-24.3-9c-4-4.4-4.3-7.5,0.7-10.9c5.2-3.5,11.1-5,17.1-6.1c4.9-0.9,5.4,3,6.5,6c1.3,3.6-1.9,3.7-4,4.4
	c-3.2,1.1-6.4,1.8-9.6,2.9c-2.1,0.7-4.3,1.7-3.8,4.4c0.4,2.4,2.7,2.6,4.7,2.7c0.8,0,1.6,0,2.4,0c6.9,0.3,13.2-0.3,19.8,5.2
	c7.3,6.1,17.8,8.1,28,5.3c7.9-2.2,15.6-1.5,23.1,1.7c0.7,0.3,1.5,0.5,2.3,0.5c0.3,0,0.7-0.3,1.1-0.4c0.1-2.1-2-2.1-3.1-3
	c-0.2-3.3,2-4.2,4.7-4.5c1.7-0.2,3.5-0.1,3.7-2.5c6.1,2.4,10.6,7.3,16.5,10.6c-11.9,6.1-23.7,7.5-36.1,4.5c-6.7-1.6-13.3-0.5-20-0.5
	c-0.9,0-2.1,0.7-2.8,0.3c-10.8-5-16.1,2.6-21.1,9.7c-5.9,8.3-9.5,18.1-17,25.4c-3.8-0.6-7.3,0.5-10.8,1.6
	C412.4,400.1,412,398.2,412,395.5z"/>
<path class="st1" d="M383.6,555.4c-12.3,10.3-23.1,22.9-39.9,26.4c-3.9,0.8-6.9,3.4-10.7,5.5c-1.1-4.9,1.5-8.4,2.5-12.3
	c1.4-4.9,2.3-9.9,3-15c1.2-9.2,3.3-18.3,9.2-25.8c4.5-5.8,6.8-12.9,11.9-18.3c3,1.5,4.5,4.1,5.6,7.2c1.1,3.3,1.3,7.1,4.2,9.5
	c-4.3,7-10.4,13.1-10.9,22.1c4.9-5.4,7-12.9,13-17.4C379,541.1,380.3,548.9,383.6,555.4z"/>
<path class="st1" d="M431.4,241c-3,2.7-6.1,0.6-9,0c-10.2-2.2-18.9,0.4-26.1,7.4c-8.2,8-15.9,16.5-23.8,24.8
	c-1.5,1.5-2.5,3.4-2.6,5.2c-0.6,11-9.4,15.1-17.3,21.1c1.5-9,5.8-16,9-23.2c4.3-9.4,5.5-19.3,7.6-29c3.1-14.1,20.1-29.4,33-28.5
	c8.3,0.6,14.8,6.2,22.5,8.6c1.1,0.4,1.9,1.6,1.2,2.9c-0.8,1.4-2.2,1.6-3.6,1.5c-4.5-0.3-8.7-1.3-13.5-0.4c-8,1.6-14.7,5.3-21.3,10.3
	c3.5,0.2,3.6,0.4,8-2.1c6.7-3.8,13.9-4.8,21.5-5.6c4.6-0.5,5.4,5.4,9.6,3.8C428.8,238,429.9,239.8,431.4,241z"/>
<path class="st1" d="M332.2,152.3c-4.8,13.6-8.7,27.6-22.6,35.4c-3.4,1.9-4.2,6-6,9.7c-3.8-6-2.1-12.1-2.9-17.8
	c-1.3-10.1-5.6-19.2-7.9-29c-0.4-1.5-1.3-3-0.6-4.6c4.2-9.3,7-19.4,16.9-24.9c2.9-1.6,6.8-4.4,9-2.6s2.3,6.2,1.7,9.9
	c-1.1,6.6-2.3,13-6.2,18.8c-2.2,3.2-1.3,7.3-2.4,10.9c-0.4,1.2-0.2,2.6,1.3,2.8c1.5,0.1,1.8-1.2,1.9-2.5c0.2-4.7,0.5-9.4,3.5-13.4
	c3.6,0.9,6.2,3.2,8.7,5.7C328.3,152.4,329.8,154.1,332.2,152.3z"/>
<path class="st3" d="M408.4,482.6c0,1.2,0,2.5,0.1,3.7c-0.6,0.4-1.8,0.9-1.7,1.1c0.6,2.2,2.9,0.9,4.1,1.8c0,1.4,0,2.8,0,4.2
	c-1.7-0.2-3.7-2.3-4.8-0.5c-1,1.6,0.4,3.5,2,4.9c1,0.8,1.3,2.4,2.8,2.9v-0.1c3.5,7.7,6.9,15.4,10.4,23.1c2.7,5.9,5.1,11.9,6.3,18.4
	c1.7,9.7,4.8,18.9,9.5,27.6c-6.7,1.5-10.2-3.8-14.7-7c-1.8-1.2-3.2-4.2-5.7-1c-2.1-5.3-3.7-10.8-3.4-16.6
	c0.8-15.5-5.1-29.6-9.1-44.3c1.8,12.1,1.2,23.7-5.4,34.4c-3.2,0.5-3.5-2.2-4.8-4.1c-3.1-4.3-2.7-10.8-8.1-13.7
	c2.8-7,8.1-12.8,9.6-20.6c-2.5,0-2.1,2.4-3.4,3.1c-2-2.2-0.1-5.9-3-7.8c8.1-4,8-4,1-10.5c-2.1-2-4.9-3.2-6.4-5.8
	c0.1-1.1,0.3-2.1,1.4-2.6c1.6,1.5,3.1,3.1,4.8,4.3C395.4,481.3,400.9,485.7,408.4,482.6z"/>
<path class="st3" d="M159.6,201.9c0.4-3.1,4.4-4.3,4.3-7.7c1.9-0.1,3.5-0.9,4.7-2.2c4.4-4.6,8.7-0.8,13,0c1.9,0.4,1,2.7,0.8,4.2
	c-0.5,4.8-3,8.8-4.7,13.1l0,0c-1.4-0.4-2.3,0.5-3,1.4c-7.3,9.3-16.2,17.3-22.8,27.1c-1.8,2.6-4.2,5.3-3.7,9.1
	c6.6-8.3,12.2-17.3,20-24.6c2.4,1.8,0.7,3.5-0.1,5.2c-3.7,7.9-7.3,15.9-9.8,24.3c-0.8,2.6-1.8,5.3,0.7,7.6
	c-5.5,7.6-14.3,10.4-21.8,15.2c-2.9-13.7,1.4-26.1,6.9-38.2c4.7-10.2,10.3-19.9,15.4-29.9C160.4,205,162,203.4,159.6,201.9z"/>
<path class="st1" d="M298,113c-12.1,5.5-20.4,15.8-30.4,24c-4,3.3-8.3,5.2-13.6,4.5c-6.5-0.8-12.9,1.3-19.4,1.3
	c-1.3,0-2.8,1.2-3.8-0.4c-1.1-1.7,0.5-2.9,1.1-4.3c2.6-5.7,7.6-9.5,11.3-14.3c3-3.9,5.7-8,8.4-12.1c3.8-5.9,9.2-8.9,15.9-8.1
	c7.3,0.9,13.7-3.8,21-2.3c0,1.1,0,2.1,0,3.2c-17.5,2.4-28.3,15.5-41.1,26.5c5.3-0.8,9.3-3,12.2-6.4c8.6-10.3,19.3-16.7,32.5-18.6
	C293.1,109.2,294.7,111.8,298,113z"/>
<path class="st4" d="M263.6,488.7c2.7,1.3,2.4,4.9,5.5,6.7c0-6.8-3.8-11.4-7.4-16c-2.4-3-4.2-6.2-5-9.9
	c-2.3-11.7-6.4-22.7-11.3-33.5c-0.8-1.7-1.7-3.5-0.2-4.9s3.4-0.2,4.9,0.6c3.8,2,7.7,3.9,11.4,6.3c5.2,3.4,9.3,7.6,10.6,14.2
	c1.8,8.7,4.6,17.1,6.5,25.7c1.1,5.2,0.4,10.6-1.1,15.8c-3.1,10.7-9.2,20.6-9.6,32.4c-4.2-8.5-2.1-19.1-9.3-26.3
	C260.5,496.2,258.6,490.8,263.6,488.7z"/>
<path class="st1" d="M384.7,390c-0.3,3.4-2.4,1.7-3.8,1.2c-3.9-1.5-7.7-1.5-11.5,0c-5,1.9-10.3,2-15-0.1
	c-11.5-5.2-23.9-6.2-36.1-8.1c-3.5-0.5-6.6-1.5-5.9-5.6c0.6-3.7,2.6-6.5,7.2-6.4c7.3,0.2,14.6,0.1,21.9,0c5.4,0,9.5,3,14,5.1
	c-2.7-5.8-7.8-7.4-13.5-7.5c-8.4-0.1-16.8,0-25.5,0c0.9-3.3,3.1-4.5,5.2-5.3c11.3-4.1,22.3-4.3,33.7,0.4
	c11.2,4.6,17.4,13.8,24.5,22.4C381.2,387.9,382.2,389.9,384.7,390L384.7,390z"/>
<path class="st1" d="M257.4,204.6c-7.8-3.1-14.6-6.5-22.1-8.3c-2.9-0.7-5.5-1.6-6-4.8c-0.4-3,2.6-3.1,4.3-4.1
	c7.4-4.6,19.7-2.6,25.7,4c3.3,3.7,7.2,6.6,11.1,9.7c7.9,6.3,15.3,13.2,14.3,25c-2.6,0.2-3.4-1.8-4.4-3.3c-4.9-7.6-8.1-9.8-16.5-7
	c-10.5,3.5-20.9,0.9-31.1,0.4c-6.6-0.3-9.9-7.4-12.2-13.8c-1.2-3.4-0.3-4.7,2.1-6.7c1.7-1.4,2.3-1,3.8-0.1c8.2,5.1,17.9,7,26.6,10.9
	C254.5,207,255.8,206.2,257.4,204.6z"/>
<path class="st2" d="M449.9,260.5c1,12.4,2.5,24.7,0.9,37.2c4.7-9.7,2.4-20.1,2.9-30.1c4.6,0.3,4.4-4,6.1-6.4
	c8.4,6.1,6.7,15.7,8,24.1c1.5,9.7-0.2,18.8-6.5,26.8c-3.2,4.1-3.7,9.5-6.2,13.9c-21.4-18.9-19.9-43.2-7.8-64.3
	C447.7,261.1,449,260.9,449.9,260.5z"/>
<path class="st1" d="M399,305.6c-3.1,2.6-6.8,3.8-10.5,5.3c-9.5,3.9-18.7,8.4-26.3,18c0.2-8.6-2-15.8,3.4-22.1
	c5.7-6.7,6.1-15.1,7.1-23.3c0.2-1.8,0-3.8,1.2-5.1c7.7-7.8,13.8-17.2,22.5-24.1c1.8,2.3,0.3,4.5-0.2,6.7c-1.1,5.7-4.2,11.3-1.8,17.4
	c-1.2,2.4-2.8,4.6-3.6,7.1c-0.9,3,0.5,4,3.3,2.3c2.1,0.2,2.6,1.6,2.4,3.4C396.1,296.2,397.9,300.9,399,305.6z"/>
<path class="st3" d="M449.9,260.5c-0.9,0.4-2.1,0.5-2.5,1.2c-12.1,21.1-13.6,45.4,7.8,64.3c-0.1,4-2.1,7.2-4,10.4
	c-3.3,1.1-5.4-2.2-8.3-2.2c-3.8-13.7-8.7-27.2-10.9-41.4c-1.4-9.1,3-16.2,5.7-24c1.4-4,3.5-7.7,2.3-12.2
	c-4.3,13.8-9.4,27.1-21.8,35.9c-2.7-6.1-0.2-12,1.2-17.8c1.9-8,4.8-15.7,7.2-23.6c2.7-0.6,4.8,1.1,7.1,2.1c0.2,0.5,0.4,1,0.6,1.5
	c0.1-0.1,0.4-0.3,0.4-0.4c0.1-0.7-0.2-1.1-1-1.1c-0.4-4.5-4.1-4.1-7.1-5c0.4-1.1,0.8-2.2,1.1-3.4c3.4-0.2,5.8,2,8.5,3.5
	s5.2,3.6,8.6,1.5c1.9-1.2,2.8,0.2,3.2,2C448.5,254.9,449.2,257.7,449.9,260.5z"/>
<path class="st1" d="M271.6,251.9c4.6-5.3,6.8-11.3,7.4-17.9c0.2-2.2,0.7-4.3,4-3.3c2.9,0.8,3-1.6,3.1-3.7c0.7-8.5,4.3-15.9,9-22.8
	c1.4-2.1,2-5.9,6.4-2.5c2.2,1.8,3.8-1.8,5-3.7c2.1-3.2,2.7-7.3,6.5-9.6c2.5-1.5,4-1.8,4.2,1.5c0.5,7.4,0.9,14.8,1.2,22.2
	c0.1,2.2-1.2,3.8-3,5.4c-7.9,7.2-15.3,14.8-20.9,24C289.5,250.1,280,249.9,271.6,251.9z"/>
<path class="st1" d="M298.9,657.3c-0.1-7,2.9-11.5,8.2-14.5c4.3-2.5,4.4-7.1,4.6-10.8c1.3-20.5,0-40.9-0.7-61.4
	c-0.2-5.7,1.5-9,7.1-10.3c0,6,0.2,12.1,0,18.1c-0.7,18.8,2.5,37.4,2.5,56.1c0,5.5,4.2,8.7,10.6,8.7c3.7,0,6.5,0.3,7.3,4.8
	c0.9,4.6-2.3,4.8-5.1,6.4c-9,4.8-18.1,6.3-27.8,2.3C303.7,655.7,301.4,656.5,298.9,657.3z"/>
<path class="st1" d="M319.5,279c-3.7,5-7.7,8.2-9.8,12.6c-0.8,1.6-2,3.9-0.4,4.9c2.4,1.5,2.6-1.6,3.4-2.8
	c4.7-7.6,11.1-13.3,19.5-16.5c8.7-3.2,13.9-10.8,21.2-15.9c2.1-1.4,4.1-2.9,6.7-4.8c0.5,3.4-0.4,5.7-2.2,7.4
	c-4.4,4.2-6.7,9.6-9.3,14.9c-6.7,13.9-17.8,23.9-30.9,31.5c-6.8,4-7.9,3-10.1-4.3c-2-6.6-3.8-13.2-5.8-19.8
	c-0.7-2.5-0.5-4.1,2.7-4.5C309.2,281.1,313.7,280.1,319.5,279z"/>
<path class="st1" d="M371.7,369.8c-6.2-3.4-12.4-6.7-18.9-10.3c6.9-6.5,16.7-4.4,24.1-9.1c-8-0.9-15.6,1-23.1,3.5
	c-2.2,0.7-4.4,1.8-6.4,3c-1.6,0.9-3.7,2.1-4.7,0.3c-1.1-1.9,1.3-3,2.6-4c5.9-4.5,12.6-7.6,19.7-9.2c10.9-2.5,18.6-8.9,24.9-17.8
	c2.6-3.7,5.6-7.1,8.6-10.5c0.7-0.8,1.9-1.7,3.1-1.2c1.4,0.6,1.1,2.1,0.9,3.1c-2.3,12-4.9,23.9-9.3,35.3c-1,2.6-3.3,3.3-5.9,4.2
	C380.7,359.4,373.7,361.7,371.7,369.8L371.7,369.8z"/>
<path class="st1" d="M426.5,179.4c-0.4-0.5-0.8-0.9-1.1-1.4c-1-1.9-5.1-1.2-4.4-3.8c0.6-2.5,4.1-2.1,6.2-2.6c4-1,8.4,0.1,11.3,2.4
	c5,4.1,9,9.3,13.4,14.1c0.7,0.8,0.7,1.9,0.1,2.8c-3.9,5.9-5.7,13-10,18.8c-0.9,1.3-1.5,2-3.2,0.9c-10.4-6.4-21.4-11.9-29.1-21.9
	c-1.4-1.9-5.3-3.6-2.9-6.1c2.7-2.8,5.5-7.1,10.8-5.6c2.8,0.8,5.6,1.8,8.4,2.8c4.2,4.2,8.6,8.2,10.4,14.2
	C437,186.4,433.4,181.8,426.5,179.4z"/>
<path class="st3" d="M154.2,460.6c0.8-6,3.9-10.2,9.6-12.4c2.4,2.4,3.8-0.2,5.4-1.3c5.7-3.8,10.5-8.7,16.6-12.3
	c12.1-7.1,23.5-6.5,35.3-0.4c6.1,3.1,6.1,3.1,14.7,0c-0.7,5.1-1.9,9.7-5.7,13.3c-1.5,1.4-2.6,3-2.8,5.1c-0.3,0.5-0.6,1-0.8,1.4
	c-0.7,0.2-1.3,0.3-2,0.5c-0.4-2.1-1.2-3.8-3.7-3.9c0.7-2.3,3.4-3.2,3.7-5.7c1.3-0.4,2.2-1.1,2.2-2.6c0.2-0.2,0.3-0.4,0.5-0.7
	c-0.2,0.2-0.4,0.3-0.6,0.5c-1.5-0.1-2.3,0.8-2.8,2c-8.7,4.4-16.8,2.8-24.4-2.6c-3.5-2.5-6.3-1.7-9,0.9c-2.6,2.4-5,5.1-7.6,7.5
	c-4.8,4.4-9.9,7.7-17,6.7C161.4,456.1,157.7,458.2,154.2,460.6z"/>
<path class="st1" d="M458.4,153.4c0.4-2.9,2-5,4-6.9c1.7-1.6,3.5-3.2,3.1-6c1.2,0,2.4,0,3.7,0c1.1,1.4,2.2,1.4,3.4,0
	c4.8,1.2,9.6,2.2,14.5,2.2c5.3,0,9.3,3,13.6,5.2c0.6,0.3,1.3,1.2,1.3,1.8c0,1.3-1.3,1.5-2.2,1.3c-12.4-2.7-21.2,5.5-31.2,10
	c-8.7,3.9-17.6,6.7-27.2,6.6c-7.1,0-14,1.4-21,2.4l0.1,0.1c8.7-9.9,20.1-13.7,32.8-14.3c2-0.1,4.1,0.5,5.8-0.2
	C461.8,154.5,459.5,153.9,458.4,153.4z"/>
<path class="st3" d="M263.6,488.7c-5.1,2.2-3.1,7.5-5,11.1c-10.6-11.7-22.4-22.7-25.6-39.1c-1-5.4-1.5-11,2.3-15.9
	c1.2-1.5,2.2-3.2,2.1-5.4c-0.1-1.7,0.4-3.4,2.3-3.6c2.1-0.3,2.4,1.8,3,3.1c3.4,7.6,7.1,15.1,8.5,23.2c1.6,9.2,5.2,17.2,11.1,24.3
	c0.3,0.4,0.6,0.8,0.9,1.2C263.3,487.9,263.5,488.3,263.6,488.7z"/>
<path class="st2" d="M410.9,500.6c0.1-2.3,0.2-4.6,3.5-2.4c4.1,2.7,8.3,5.3,12.4,7.9c1.4,1.1,2.6,2.7,4.1,3.2
	c14.3,5.1,17.2,17.9,20.2,30.4c0.8,3.2,2.2,6.2,2.3,9.6c-4.7,1.8-8-0.8-11.9-2.9c-5.2-2.8-6.7-9.9-13.2-11.1
	c-3.5-11.4-9.1-21.8-14.7-32.2C413.1,502,412.8,500.3,410.9,500.6L410.9,500.6z"/>
<path class="st4" d="M454.9,224.6c-2.1-4.6-4.4-8.6-9.2-10.4c-2-0.8-1.2-2-0.3-3.3c2.9-4.2,4.9-9,7.1-13.6s6.1-7.1,11.4-6.8
	c11,0.6,21.9,1.3,32.7,3.7c-0.1,2.5-2.4,2.3-3.8,3.1c-5.9,3.4-12.3,5.9-16.5,12c-2.2,3.2-6.9,3.6-10.6,4.7
	C460.3,215.5,455.9,217.7,454.9,224.6z"/>
<path class="st4" d="M229.1,146.2c-2.8,1.2-2.5,3.6-2.5,6c0.1,5.7,0.2,11.3-1.3,16.9c-6.3-2.5-12.6-5-18.9-7.5
	c-3.6-1.4-2.8-4.6-2.1-7.1c1.8-7.5,5.3-14.2,10.7-19.9c2.5-2.6,6.1-4.4,6.9-8.4c0.8,0,1.1-0.4,1.2-1.2c1.6,0.1,2.5-0.7,2.4-2.4
	c6.1-1.5,11.4-5.3,17.7-6v-0.1c-1.8,5.9-6.7,9.5-10.4,14c-2.1,2.6-3.8,5.5-5.6,8.3C225.1,142.1,225.7,144.4,229.1,146.2z"/>
<path class="st1" d="M191,233.9c-0.5-7.7,1.7-14.4,1.3-21.4c-0.1-2.4,1-5.5,3.9-6c3-0.4,2.7,2.6,3.4,4.6c0.5,1.4,0.9,3.4,3.1,2.9
	c2.7-0.7,1.6-2.9,1.1-4.4c-1.5-4,0.4-6.7,2.8-9.5c2.2-2.5,4.5-0.5,6.6-0.1c3.4,0.5,4,3.4,3.9,6.4c-0.3,9.5-3.7,18.1-8.4,26.2
	c-3.1,5.3-7,10.1-9.1,15.9c-1.6,4.3-3.2,1.8-4.2,0.1C192.5,243.7,189.4,239,191,233.9z"/>
<path class="st1" d="M377.6,393.7c1.8,0,3.6-0.3,5.3,0.1c4.2,0.8,5.6,3.8,3.9,7.7c-3.2,7.3-8.1,13-15.3,16.6
	c-3.9,2-7.4,4.6-10.3,7.9c-2.1,2.4-4,2.6-5.1-0.8c-2-6.2-4.2-12.3-5.7-18.7c-1.5-6.5,3.3-12,9.9-11.7
	C366.3,395.2,371.8,393.3,377.6,393.7z M364.6,406.6c0.8-1,1.4-1.8,1.9-2.6c1.2-1.8,3.3-3.3,2.8-5.9c-0.1-0.3-1.1-0.7-1.5-0.6
	c-2.9,0.8-3.6,3.4-4.3,5.9C363.2,404.4,363.2,405.4,364.6,406.6z"/>
<path class="st4" d="M416.6,561.6c2.5-3.2,3.9-0.3,5.7,1c4.5,3.2,8,8.5,14.7,7c0.8,0,1.6,0,2.4,0c1.5,7.1,7.3,5.3,12,6
	c-0.8,12.2-3.1,23.9-8.5,36.2c-7.5-13-14-25-21.8-36.2C418.3,571.6,416.9,566.6,416.6,561.6z"/>
<path class="st4" d="M426.4,251.2c-2.5,7.8-5.3,15.6-7.2,23.6c-1.4,5.8-3.8,11.7-1.2,17.8c-5.6,5.4-11.6,10.3-19,13.1
	c-1.1-4.8-2.9-9.5-2.4-14.5c0.2-1.8-0.3-3.2-2.4-3.4c4.8-10.9,12.8-19.5,20.6-28.3C417.9,255.9,421,251.9,426.4,251.2z"/>
<path class="st3" d="M503.8,444.8c-0.9,6.8-1.8,13.6-2.8,20.5c-2.1-0.3-3.6-1.3-4.4-2.9c-5-9.7-12.6-17.5-19-26.2
	c-4.8-6.5-7.6-13.7-9.5-21.4c-0.7-2.9,1.2-5.3,1.2-8.1c5.6,2,9.4,7.2,15.5,8.2c0.1,0.3,0.1,0.6,0.1,0.9c0.3,0.5,0.6,1,0.8,1.6
	c1.5,8.7,6.1,16.1,10.3,23.6c0.5,0.9,1.2,2.9,3.1,1.4C501.1,442.2,502.1,444.3,503.8,444.8z"/>
<path class="st4" d="M503.8,444.8c-1.7-0.5-2.7-2.6-4.8-2.4c-2.5-6.2-5-12.4-7.4-18.6c-3.6-8.9-3.4-18-1.5-27.2
	c1-4.7,1.5-9.5,2.2-14.5C506.6,395.4,510.9,419.5,503.8,444.8z"/>
<path class="st2" d="M176.7,159.3c-10.9-7.8-21.8-15.5-32.6-23.4c-3.6-2.6-4.1-7-5.5-10.8c-0.6-1.7,0.6-2.4,2.4-2.1
	c13.2,2.2,26.7,3.6,36.9,13.6c0.1,4.1-0.5,8.3,0.4,12.2C179.2,152.8,179,156.1,176.7,159.3z"/>
<path class="st3" d="M343.1,107.7c0.9,3.9,4.7,5.2,7.1,7.7c-4.9,5-12.1,2.8-17.7,5.7c-1.3,0.7-2.9-0.7-3.7-2.1
	c-0.1-1.7-0.1-3.4-0.2-5.1c0.2-2.4-1.4-3-3.4-3.3v0.1c0-1.6-0.5-2.7-2.4-2.4v0.1c2.3-12.5-4.3-23.1-7.4-34.5
	c2.9-0.2,2.1-2.5,2.7-4.2c1.6-4.7,0.2-10.6,5.8-13.6c8,11.1,6.7,23.4,4.5,35.8c-0.7,3.9-1.3,7.7-2,12c4.1-1.3,2.7-5.6,4.8-7.5
	c1.3,0,2.8-0.1,3.5,1.4c-0.7,4-3.9,7.2-3.8,11.5c-0.5,0.2-0.9,0.4-0.3,1c0.2-0.2,0.4-0.5,0.6-0.7c3.9-2.1,2.8-7.1,5.8-9.7
	c1.3,2.2,2,5,4.9,5.9C342.3,106.4,342.7,107,343.1,107.7z M338.8,111c0.7-0.1,1.8-0.6,1.4-1.2c-0.8-1.2-1.5-0.1-2.1,0.6
	c-0.4,0.4-0.8,0.8-1.2,1.2c-3,1.3-5.5,2.9-5.3,8.3c2.4-3.5,4.9-4.9,5.9-7.7C338,111.8,338.4,111.4,338.8,111z"/>
<path class="st4" d="M159.9,263.9c4.8-5.7,10.2-10.9,15.1-16.5c7-7.9,10.2-17.1,12.3-27.1c0.4-1.8,1-3.6,1.9-5.3
	c0.3,23-4.1,44.6-18.2,63.4c-1.9,2.5-3.8,5.1-7.2,5.8c-3.2-0.4-2.4-2.9-2.6-5C160.5,274.2,162.7,268.9,159.9,263.9z"/>
<path class="st1" d="M330.1,343.7c-4.9,1.9-1.7,6-2.3,9c-0.6,2.8,0.1,5.4-4,6.7c-5.5,1.8-6.1-1-6.1-5c0-3.1,0.4-6.3,0.4-9.4
	c0-3-0.4-5.9-3.7-7.3l0.1,0.1c0-0.8-0.4-1.3-1.3-1.3l0.1,0.1c-0.7-4.8-1.4-9.5-2.1-14.4c1.6-1,2.1,1.5,3.4,1l-0.1-0.1
	c-0.5,4.5,3,6.8,5.1,10.9c2-6.6-0.1-11.9-0.7-17.3c-0.5-4.7,2.4-5,5.1-5.4c4.1-0.6,2.1,2.9,2.2,4.5c0.3,5.3,0.1,10.7,0.2,16
	c0,1.5-0.7,3.4,1.2,4.2c1.9,0.7,3.5-0.5,4.8-1.7c6.5-5.5,12.8-11.1,19.2-16.7c2.3-2,4.9-3.8,7.6-5.9c1,5.2,0,8.5-4.7,10.6
	c-8.4,3.7-14.6,10.7-21.6,16.4C331.6,340.2,329.6,341.3,330.1,343.7C330.1,343.8,330.1,343.7,330.1,343.7z"/>
<path class="st4" d="M388.9,492c2.9,1.8,1,5.6,3,7.8c-6.3,11.8-13.8,22.9-22.6,33c-2.9-2.5-3.1-6.3-4.2-9.5
	c-1.1-3.1-2.6-5.7-5.6-7.2C364.6,502.1,376.4,496.6,388.9,492z"/>
<path class="st2" d="M393.1,448.5c2.5-1.5,5.3-1.2,8-1.4c4.2-0.4,7,0.3,6.1,5.5c-0.3,1.6,0.1,3.5,2.1,3.6s1.4-2,1.8-3.2
	c1.2-3.8,3-4.1,6.6-2.4c7.1,3.4,10.9,10.1,16.2,15.3c2.8,2.7-0.9,3.2-2.4,3.4c-13.3,1.6-25.9-1.2-38.3-5.8
	C393.4,458.5,395.5,453.5,393.1,448.5z"/>
<path class="st4" d="M159.1,259.4c-2.6-2.3-1.5-5-0.7-7.6c2.5-8.4,6.1-16.4,9.8-24.3c0.8-1.6,2.5-3.4,0.1-5.2
	c2.6-4.8,7.5-7.9,9.6-13.1l0,0c4.1-2.7,7.9-1.1,12.9,1.3c-5,1.2-5.6,4.3-6.2,7.7C182,235.6,171.5,248.1,159.1,259.4z"/>
<path class="st4" d="M384.9,473.1c-1.1,0.5-1.4,1.5-1.4,2.6c-3.6-3-7.4-5.8-10.9-9c-3.7-3.4-7.2-5.2-11.6-1.1
	c-1,0.9-2.4,1.3-3.6,1.9c0-3.6,0-7.2,0-10.8c4.1,2.9,6.3,1.7,5.9-3.2c-0.6-7.1,2.9-13,5.5-18.8c2.5-5.5,8.7-7.1,14.8-6.8
	c0.1,2.4-0.2,4.7-1.3,6.7c-2,4-3.6,8-3.5,12.6c-3.7,2.7-9.1,2.2-13,6.8c5.4,1,8.8-2.9,13-3.1c0,3.5,0,6.9,0,10.4
	c-1.2,0.5-4.9-0.7-1.8,2.7C379.7,467,382.3,470,384.9,473.1z"/>
<path class="st3" d="M393.2,145c-2.2,2.2-4.6,1-7.1,0.9c-11.7-0.9-22-6.4-33.1-9.1c-1-3.9-4.4-5.3-7.4-7.1c-0.8-0.5-1.7-1.3-1.8-2.1
	c-0.2-1.3,1.2-1.3,2.1-1.3c7.7,0,15.5-0.7,23.1,0.1C380.5,127.5,387.5,135.5,393.2,145z"/>
<path class="st3" d="M159.9,263.9c2.8,4.9,0.6,10.3,1.3,15.4c0.3,2-0.6,4.5,2.6,5c-5.1,4.4-9.5,9.6-15.4,13
	c-1.4,0.8-2.7,1.6-2.8,3.4c-2.5-0.5-3.8,1.9-5.9,2.4c0-6.9,0.1-13.7,0-20.6c0-1.9,0.6-4-1.2-5.5
	C145.5,272.4,153.6,269.5,159.9,263.9z"/>
<path class="st3" d="M451.4,575.5c-4.6-0.7-10.5,1.1-12-6c-5.7-10.8-9.5-22.2-11-34.3c6.4,1.2,7.9,8.2,13.2,11.1
	c3.9,2.1,7.2,4.8,11.9,2.9C454.3,558.2,452.9,566.8,451.4,575.5z"/>
<path class="st3" d="M422.6,415.7c4.5-9.1,7.9-18.7,15.5-25.9c4.8,4.8,11.4,1.4,16.8,3.8c-1.6,9.8-6.6,17.3-14.8,22.7
	c-3.7,0-7.5,0.1-11.2-0.1C426.8,416.1,424.5,419,422.6,415.7z"/>
<path class="st1" d="M354.9,182c0.4,0.4,0.8,0.8,1.2,1.2c0.4,1.1,1.3,1.3,2.3,1.2c-0.3,1.2-0.7,2.4-2.3,2
	c-8.7-1.8-14.5,3.5-20.5,8.9c9.6-1.9,18.5-10.9,29.1-2.9c-10.6,4.6-21.3,9.1-31.9,13.8c-2.4,1.1-2.8-0.4-3-2
	c-0.8-5.6-1.8-11.2-2-16.9c-0.2-4.5,3.7-5.2,7-5.3C341.5,181.8,348.2,182,354.9,182z"/>
<path class="st4" d="M385.9,517.2c5.4,3,5,9.4,8.1,13.7c1.3,1.8,1.7,4.5,4.8,4.1c-4,7.6-8.7,14.7-15.2,20.4
	c-3.3-6.5-4.6-14.4-12.1-18C376.3,530.7,381.1,524,385.9,517.2z"/>
<path class="st1" d="M240.9,110.6c-0.8-2.3-2.7-2.6-4.7-2.4c-2.1-3.8-5.5-4.9-9.5-4.7c-0.7-2.5-3.7-2.1-5.4-4.7
	c19.9-1,39.2-6.6,58.8-1.2c-2.9,5.4-8.2,4.6-12.7,4.4c-6.9-0.4-13.2,0.9-17.3,6.4C247.2,112.3,244.8,113.2,240.9,110.6z"/>
<path class="st1" d="M384.7,390c0-0.8,0.2-1.9-0.2-2.3c-6.1-5.3-1.7-8.6,2.1-12.3c6.7-6.4,13.5-12.5,22.7-16.4
	c-3.1,12.5-5.7,24.7-15.9,33.3c-1.5,1.3-2.5,0.7-3.6-0.3C388.4,390.9,387,389.4,384.7,390L384.7,390z"/>
<path class="st4" d="M427.5,245c-0.4,1.1-0.8,2.2-1.1,3.4c-5-0.4-8.4,2.5-11.8,5.6c-7.9,7.2-13.3,16.3-20.1,24.5
	c-2.4-6.1,0.7-11.6,1.8-17.4c0.4-2.2,2-4.4,0.2-6.7C405,244.7,417.8,240.8,427.5,245z"/>
<path class="st3" d="M507.2,347.2c-0.2,2.4-2,2.3-3.7,2.5c-2.6,0.3-4.8,1.2-4.7,4.5c-10.3-4.1-20.9-2.9-32.9-0.8
	c6-6.9,12.4-10.8,17.7-16c3.6-3.5,9.7-1.8,15.3,3.4C501.5,343.2,504.4,345.1,507.2,347.2z"/>
<path class="st4" d="M484.7,415c-6.1-1-9.9-6.2-15.5-8.2c-0.8-4.4,0.5-8.1,3.1-11.6c3.5-4.5,6.9-9,10.5-13.4c1.1-1.3,2.5-3.2,4.4-2
	c1.6,1,0.5,2.8,0.3,4.3C486.5,394.3,483.4,404.4,484.7,415z"/>
<path class="st4" d="M328.6,113.9c0.1,1.7,0.1,3.4,0.2,5.1c-3.8,0.8-5.9-2.4-8.8-3.8c-7-3.4-14.4-4.5-22.1-2.2c-3.2-1.3-4.9-3.9-6-7
	c2.4-0.6,4.7-1.3,7.4-2c-3.9-1.7-7.4,0.8-10.9,0.4c0-1.1,0-2.1,0-3.2c4.7,0,9.4,0.2,14-0.2c8-0.8,15.1,0.8,20.4,7.2v-0.1
	c0.5,1.1,1.3,2,2.4,2.4v-0.1C325.7,112.5,326.1,114.3,328.6,113.9z"/>
<path class="st2" d="M422.6,415.7c1.8,3.3,4.2,0.4,6.3,0.5c3.7,0.2,7.5,0.1,11.2,0.1c-2.6,5.4-7.8,8.1-12.2,11.7
	c-5.8,4.9-10.4,11-16.5,16.1c0.9-8.3,1.2-16.3-0.7-24.2c1.6-2,3.9-1,5.9-1.2c-0.8,1.8-2.2,4.2-0.2,5.2c2.4,1.1,2.7-2,3.7-3.5
	C421.1,418.9,421.8,417.2,422.6,415.7z"/>
<path class="st3" d="M176.7,159.3c2.3-3.2,2.4-6.5,1.6-10.4c-0.9-3.9-0.3-8.1-0.4-12.2c2.2,1.6,4.6,3.1,6.6,4.9
	c8.5,8,9.9,19.1,3.9,28.9c-1.9,3.1-2.8,0.7-4.2-0.6c-2.7-2.5-2.2-8-7.5-8.1l0.1,0.1C176.7,161,176.7,160.2,176.7,159.3z"/>
<path class="st4" d="M454.9,393.6c-5.3-2.4-12,1-16.8-3.8c3.9-7.5,7.8-14.9,13-21.5c0.9-1.1,1.7-3,3.6-2.4c1.5,0.5,1.2,2.3,1.5,3.6
	C458.4,377.7,457.5,385.7,454.9,393.6z"/>
<path class="st1" d="M371.6,369.9c1.2-0.1,2.5,0.2,3.3-0.9c9.2-11.7,23.8-11.9,36.1-16.8c-3.8,4.7-9.2,7.1-14,10.3
	c-6,4-11.4,8.6-15.8,14.2c-2.3,2.9-3.4,2.5-5-0.1C374.8,374.2,371.7,373,371.6,369.9C371.7,369.8,371.6,369.9,371.6,369.9z"/>
<path class="st4" d="M332.2,152.3c-2.5,1.9-3.9,0.1-5.5-1.5c-2.5-2.5-5.1-4.8-8.7-5.7c3.1-6.1,5.2-12.4,4.8-19.3
	c-0.1-2.2-0.2-4.2,2.9-4.8c3.4-0.7,3.5,2.2,4.2,3.8C333.4,133.7,332.7,143,332.2,152.3z"/>
<path class="st4" d="M418,222.2c-0.5-3,1.9-4.5,3.5-6.4c2.1-2.5,5.5-4,6-7.7c8.1,2.9,12.2,8.7,11.9,16.7c-0.2,3.8-1.3,5.7-5.5,3.8
	C428.7,226.4,423.3,224.4,418,222.2z"/>
<path class="st2" d="M150,146.8c-0.4-0.4-0.7-0.7-1.1-1.1c-0.6-0.6-1.3-1.2-1.9-1.8c2.1-4.1,4.3-0.4,5.5,0.4c5.9,4,11.4,8.5,17,12.8
	c0.1,1.4,0.4,2.7,0.4,4.1c-0.1,4.9-0.1,9.7-3.8,13.6c-4.4-4.6-7.3-10-9.3-16C155.3,154.4,153.8,149.9,150,146.8z"/>
<path class="st3" d="M416.6,418.6c-2,0.2-4.2-0.8-5.9,1.2c-4-5.8-0.5-12-0.8-17.9c0.3-0.5,0.5-1,0.8-1.4c0.3-1.7-0.3-3.6,1.2-5
	c0,2.7,0.4,4.6,4,3.4c3.4-1.1,7-2.3,10.8-1.6C424.1,404.7,420.3,411.6,416.6,418.6z"/>
<path class="st3" d="M378.8,447.1c-0.1-4.5,1.5-8.6,3.5-12.6c1.1-2.1,1.4-4.4,1.3-6.7c6.7,1.5,11.2,6.3,11.8,12.8
	c0.3,2.5,0,5.1-3.3,5C387.6,445.6,383.3,447.8,378.8,447.1z"/>
<path class="st3" d="M378.8,461.2c0-3.5,0-6.9,0-10.4c4.8-0.7,9.3-3.1,14.3-2.4c2.4,5,0.3,10,0,15.1
	C388,464.7,383.7,461.2,378.8,461.2z"/>
<path class="st3" d="M166.1,174.8c3.7-3.8,3.7-8.7,3.8-13.6c0-1.4-0.3-2.7-0.4-4.1c3,0.6,3.8,4.7,7.2,4.7l-0.1-0.1
	c-0.1,1.6,0.9,2.5,1.8,3.6c2.2,2.7,2.6,11.3,0.8,12.7C176.9,179.9,168.7,177.8,166.1,174.8z"/>
<path class="st4" d="M324,56c-5.5,3-4.2,8.9-5.8,13.6c-0.6,1.7,0.2,4-2.7,4.2c-2.8-10-2.4-22.1,1.4-34.6
	C320.6,44.6,321.2,50.8,324,56z"/>
<path class="st4" d="M301.4,95.3c-0.3-6.1-3.3-10.2-9.1-12.4c-5.9-2.1-11.7-4.6-16.3-9.3c8.9-2,19.1,4,37.9,25.8
	C308.6,101.1,305.6,96.4,301.4,95.3L301.4,95.3z"/>
<path class="st1" d="M323.9,404.4c0,2,0.1,2.5,0,2.8c-0.7,2.1,1.9,6-2.1,6.2c-3.2,0.1-4.5-3.2-4.6-6.3c-0.2-5.7-0.3-11.3-0.4-17
	c0-1.5-0.4-3.6,2-3.3c2,0.2,3.8,0.9,3.9,3.5C323.2,395.5,323.7,400.8,323.9,404.4z"/>
<path class="st1" d="M317,455.5c0-2,0.1-4,0-5.9c-0.3-4.1,2.5-3.6,5.1-3.7c3.4-0.1,3.4,2,2.7,4.4c-0.6,1.9-0.8,3.8-0.4,5.8
	c0.8,3.7-1.2,5.8-4.2,7.6c-2.3,1.3-3.2,1.1-3.2-1.6C317,459.9,317,457.7,317,455.5C317,455.5,317,455.5,317,455.5z"/>
<path class="st3" d="M461.4,326.6c3.5,0.9,7.1,0.4,10.8-0.6c0.9-0.2,2.1-0.4,2.5,0.7c0.5,1.2-0.5,1.8-1.3,2.3
	c-5,2.7-10.1,5.4-15.2,8c-0.9,0.5-1.9,0.9-2.7,0c-0.9-0.9,0-1.8,0.3-2.7c0.5-1.9,1.1-3.8,1.6-5.7
	C457.9,326.8,458.8,325.4,461.4,326.6z"/>
<path class="st3" d="M470.8,249.5c-2.7,0.9-6,1.1-6.4,5c-5.4-1.3-9.6-5.1-14.2-7.8c-1.1-0.6-2.8-1.1-1.5-3c1-1.4,2.8-1.5,3.6-0.5
	c4,5.2,8,3.1,12.8,1.2C468.8,242.8,469.1,247.3,470.8,249.5z"/>
<path class="st4" d="M503.7,383.9c-1.2,0.9-2.5,1.7-3.7,2.6c-3.3-3.3-3.8-10.1-10.9-8.7c-0.1,0-0.6-0.6-0.6-0.8
	c2.3-9.4-6.1-7.4-10.4-9.9c-1-0.6-2.1-0.8-3.7-1.4c9.9-1.8,14.7,0.4,20,8.4C497,377.9,500.2,381.1,503.7,383.9z"/>
<path class="st1" d="M323.6,212.6c-2.7-10.3-1.8-19.6-3-28.6c-0.2-1.3,0.6-2.4,1.8-2.7c0.8-0.2,1.4,0.7,1.4,1.5
	c-0.2,9,2.4,17.9,1.5,27C325.2,210.3,324.7,210.8,323.6,212.6z"/>
<path class="st1" d="M350.2,254.5c2.2,0.7,4.1-3.7,5.4-1.3c1.5,2.8-2.6,3-4.2,4.4c-4.7,4.1-9.6,7.9-14.4,11.9
	c-1.7,1.4-3.4,2.6-5.6,3c-0.1-0.2-0.3-0.3-0.4-0.5c3.8-6,10.2-8.9,15.2-13.5C347.5,257.2,349.4,256.4,350.2,254.5
	C350.3,254.5,350.2,254.5,350.2,254.5z"/>
<path class="st3" d="M459.8,261.2c-1.7,2.4-1.5,6.7-6.1,6.4c-0.7-3.8-1.5-7.6-2.2-11.4c-0.2-0.9-0.5-2.1,0.8-2.4
	c0.6-0.1,1.5,0.3,1.9,0.8C456.1,256.7,458.8,258.2,459.8,261.2z"/>
<path class="st4" d="M423.3,340.9c4.4-1.4,8.7-2.9,13.1-4.3c2.2-0.7,3.2,0.9,3.9,2.7c0.9,2.6-0.9,2.9-2.8,3.2
	C432.6,343.4,428.1,342.1,423.3,340.9z"/>
<path class="st4" d="M442.8,334.3c3,0,5.1,3.4,8.3,2.2c-1.3,3.2-2.5,6.4-4,10.1C444.5,342.7,443,338.7,442.8,334.3z"/>
<path class="st1" d="M293.1,288.3c-1.4-3.2-4.1-4.7-2.4-7.5c0.6-0.9,2.8-1.9,3.6-0.9C296.6,282.6,293.9,284.7,293.1,288.3z"/>
<path class="st2" d="M231.1,720.7c1.3-1.3,1.1-4.2,3.4-4.2c2.1,0,0.9,3.2,2.7,4c0.5,2.2-0.8,2.6-2.6,2.6
	C232.9,723.1,231.1,723.3,231.1,720.7z"/>
<path class="st2" d="M240.6,720.8c0.2-4.2,1.5-6.9,6.2-3.7c-7.3-0.3-3.3,5.8-5.1,9C239.9,724.4,240.9,722.4,240.6,720.8z"/>
<path class="st4" d="M500.2,387.7c4-0.3,3.5,2.5,3.4,5C501.9,391.3,500.1,390.2,500.2,387.7z"/>
<path class="st3" d="M238.2,429.5c1,0.3,2,0.7,3,1c-0.6,1.3-1.5,2.6-3.1,1.9C236.7,431.7,237.5,430.5,238.2,429.5z"/>
<path class="st2" d="M246.7,717c0.4,0,0.8,0,1.2,0c0.1,1.6,0.9,3.3-1.2,5C245.7,720.2,246.5,718.6,246.7,717z"/>
<path class="st5" d="M337.6,543.7c0.5-0.8,0.9-1.5,1.4-2.3c0.7,1.3,1,2.5-0.6,3.3C338.2,544.3,337.9,544,337.6,543.7z"/>
<path class="st4" d="M472.6,140.5c-1.2,1.3-2.3,1.3-3.4,0C470.3,140.5,471.5,140.5,472.6,140.5z"/>
<path class="st5" d="M366.2,241.7c0.5-0.8,0.9-1.6,1.4-2.3c0.7,1.3,1,2.5-0.6,3.3C366.7,242.4,366.4,242,366.2,241.7z"/>
<path class="st1" d="M331.4,272.5c-0.5,0.3-0.9,0.5-1.4,0.8c-0.1,0-0.3-0.2-0.4-0.4c0.5-0.3,1-0.6,1.4-0.9
	C331.1,272.2,331.2,272.3,331.4,272.5z"/>
<path class="st5" d="M462.2,257.6c-0.4-0.5-0.7-1.1-1.1-1.6c1-0.4,1.7-0.3,2.1,0.8C462.9,257,462.6,257.3,462.2,257.6z"/>
<path class="st5" d="M395.3,311.5c0.4-1.1,1.1-1.3,2.1-0.8c-0.4,0.5-0.7,1.1-1.1,1.6C396,312,395.7,311.7,395.3,311.5z"/>
<path class="st4" d="M243.3,116.6c0.1-0.2,0.1-0.3,0.2-0.4c0.1-0.1,0.2,0,0.3-0.1C243.6,116.3,243.4,116.4,243.3,116.6
	C243.2,116.6,243.3,116.6,243.3,116.6z"/>
<path class="st4" d="M263.2,487.5c-0.3-0.4-0.6-0.8-0.9-1.2C262.6,486.7,262.9,487.1,263.2,487.5z"/>
<path class="st4" d="M485.6,417.4c-0.3-0.5-0.6-1-0.8-1.6C485.1,416.3,485.4,416.9,485.6,417.4z"/>
<path class="st1" d="M420.4,170.1c-0.1,0.2-0.3,0.4-0.4,0.6c0-0.1,0-0.2,0.1-0.3C420.1,170.2,420.3,170.2,420.4,170.1L420.4,170.1z"
	/>
<path class="st1" d="M357.5,153.5c0.3,0.4,0.6,0.9,1,1.3C358.1,154.3,357.8,153.9,357.5,153.5z"/>
<path class="st4" d="M410.8,400.5c-0.3,0.5-0.5,1-0.8,1.4C410.2,401.4,410.5,401,410.8,400.5z"/>
<path class="st0" d="M289.8,362.8c-0.3-17.1,0.9-34.1,6.7-50.5C293.7,329.1,294.3,346.2,289.8,362.8z"/>
<path class="st0" d="M292.1,367.5c-0.4,0.4-0.8,0.8-1.3,1.3C290.9,368,291.3,367.5,292.1,367.5z"/>
<path class="st3" d="M534.6,300.8c4,5.1,4.1,11.8,6.7,17.5c0.9,2-0.1,2.8-2.5,2.1c-4.9-1.5-9.5-3.6-13.8-6.5
	C527.8,309.3,529.1,303.5,534.6,300.8z"/>
<path class="st0" d="M488.3,263.9c5.6,3.6,9.1,9.1,12.7,14.4c5.2,7.5,10.3,15.2,20.2,18.3c-4.9,1.1-7.8,0-12.5-4.6
	c-8.3-8.2-13.8-18.6-21.2-27.5C487.8,264.3,488.1,264.1,488.3,263.9z"/>
<path class="st0" d="M331,109.3c-0.1-4.3,3.1-7.5,3.8-11.5c10.5-11.9,23.8-17.1,39.6-15.9c10.6,0.8,14.2,2.8,18.5,8.9
	c-8.2,1-16.4,1.6-24.7,2.3c-10.2,1-16.9,9.5-25.2,14.6c-0.4-0.7-0.8-1.4-1.2-2c11-8.8,22.1-17.5,37.6-15.3c2.3,0.3,5.6,0.1,6-2.2
	c0.4-2.5-2.9-3.3-5.2-3.7c-17.3-3.1-31.7,2-43.2,15.3c-3,2.6-1.9,7.7-5.8,9.7L331,109.3z"/>
<path class="st0" d="M396.4,94.9c-0.2,0.2,0.1,1.4-0.8,0.6c-0.5-0.4-0.9-1.1-1-1.8c-0.1-0.4,0.2-1.2,1-0.8
	C396.3,93.3,396.6,94,396.4,94.9z"/>
<path class="st2" d="M220.8,450.7c2.5,0.1,3.3,1.8,3.7,3.9c-1.5,1.1-1.8,2.6-1.5,4.2c3.2,14.3-0.5,27.6-5.9,40.6
	c-1.9,4.7-5.8,7.4-9.3,10.5c-4.9,4.5-10.3,8.4-15.6,12.6c-2.6-4.3-6.8-5.4-11.4-5.4c9.7-11.9,18.8-24.3,27.3-37
	c3.3-4.9,6-10.1,8.9-15.3c0.9-1.6,2.4-3.5-0.3-5.4c-10.5,19.7-22.6,38.1-38.8,53.7c-1.6-4.5-3.3-8.7-8.5-10.2c0.1-2,0.3-3.8,1-5.7
	c3.4-9.7,9.6-17.8,14.5-26.7c2.5-4.6,7.2-7.6,12.8-8.6C206.6,460.5,214.9,458.2,220.8,450.7z"/>
<path class="st3" d="M180.9,517.2c4.7,0,8.8,1.1,11.4,5.4c-4.7,5.3-10.2,9.3-18.2,11.8C176.8,527.9,177.2,522,180.9,517.2z"/>
<path class="st3" d="M169.5,503c5.2,1.4,7,5.7,8.5,10.2c-1.3,3.7-3.5,7.1-3.9,11.2c-2.1-0.3-4.3-0.6-6.4-0.9
	C169.3,516.7,166.9,509.6,169.5,503z"/>
<path class="st4" d="M167.7,523.5c2.1,0.3,4.3,0.6,6.4,0.9c-3.6,12.4-4.6,13.9-13.7,20.2C163.1,536.8,165.4,530.1,167.7,523.5z"/>
<path class="st0" d="M233.1,330.5c-1-13,8-27.1,22.3-34.6c-2.7,4.9-5.2,9-8.9,11.4C238,313,234.8,321.2,233.1,330.5z"/>
<path class="st0" d="M410.9,489.2c-1.3-0.9-3.5,0.3-4.1-1.8c-0.1-0.2,1.1-0.7,1.7-1.1c3.6,0.6,7-0.8,10.4-1.5
	c14.6-3.1,26.7,1.4,37,11.6c3.3,3.3,7.6,5.8,8.9,10.7c-0.2,0.2-0.3,0.5-0.5,0.7c-5.8-5.6-11.8-11-18.3-15.8
	c-8.3-6.1-17.3-7-26.9-4.6C416.3,488.1,413.6,488.6,410.9,489.2z"/>
<path class="st0" d="M464.8,507.2c0.9,0.3,2.2,0.9,1.4,1.9c-0.8,0.9-1.5-0.4-1.9-1.2C464.5,507.6,464.6,507.4,464.8,507.2z"/>
<path class="st0" d="M385.9,517.2c-4.8,6.7-9.6,13.5-14.4,20.2c-6,4.5-8.1,12-13,17.4c0.6-9,6.7-15.1,10.9-22.1
	c8.8-10.1,16.3-21.2,22.6-33c1.3-0.7,1-3.1,3.5-3.1C394,504.4,388.7,510.3,385.9,517.2z"/>
<path class="st0" d="M428.4,535.3c1.6,12.1,5.4,23.5,11,34.3c-0.8,0-1.6,0-2.4,0c-4.7-8.7-7.8-17.9-9.5-27.6
	c-1.1-6.4-3.6-12.4-6.3-18.4c-3.5-7.7-6.9-15.4-10.4-23.1c1.9-0.3,2.2,1.4,2.8,2.5C419.3,513.5,424.9,523.9,428.4,535.3z"/>
<path class="st0" d="M177.9,209.3c-2.1,5.2-6.9,8.3-9.6,13.1c-7.8,7.3-13.4,16.3-20,24.6c-0.5-3.8,2-6.5,3.7-9.1
	c6.6-9.9,15.5-17.8,22.8-27.1C175.6,209.8,176.5,208.9,177.9,209.3z"/>
<path class="st0" d="M288.4,104.5c3.6,0.3,7-2.2,10.9-0.4c-2.6,0.7-5,1.3-7.4,2c-13.3,1.9-23.9,8.4-32.5,18.6
	c-2.8,3.4-6.9,5.6-12.2,6.4C260.2,120,270.9,107,288.4,104.5z"/>
<path class="st0" d="M394.5,278.4c6.7-8.1,12.2-17.3,20.1-24.5c3.4-3.1,6.8-6,11.8-5.6c2.9,0.9,6.7,0.5,7.1,5l0,0
	c-2.3-1-4.3-2.7-7.1-2.1c-5.4,0.7-8.5,4.7-11.7,8.3c-7.7,8.8-15.7,17.4-20.6,28.3c-2.8,1.7-4.2,0.8-3.3-2.3
	C391.6,283,393.2,280.7,394.5,278.4z"/>
<path class="st0" d="M433.5,253.3c0.7,0,1,0.4,1,1.1c0,0.2-0.2,0.3-0.4,0.4C433.9,254.3,433.7,253.8,433.5,253.3L433.5,253.3z"/>
<path class="st0" d="M426.5,179.4c6.9,2.3,10.5,7,10,14.6c-1.8-6-6.2-10-10.4-14.2L426.5,179.4z"/>
<path class="st0" d="M223.7,444.2c0.6-1.2,1.3-2.1,2.8-2l0.1,0.1c0,1.5-0.8,2.2-2.2,2.6C224.2,444.8,224,444.5,223.7,444.2z"/>
<path class="st0" d="M226.5,442.3c0.2-0.2,0.4-0.3,0.6-0.5c-0.2,0.2-0.3,0.4-0.5,0.7C226.7,442.4,226.5,442.3,226.5,442.3z"/>
<path class="st0" d="M364.6,406.6c-1.4-1.2-1.4-2.2-1.1-3.2c0.7-2.5,1.4-5,4.3-5.9c0.4-0.1,1.5,0.3,1.5,0.6c0.5,2.6-1.6,4.1-2.8,5.9
	C366,404.8,365.4,405.6,364.6,406.6z"/>
<path class="st2" d="M337.1,99.8c11.5-13.3,25.9-18.4,43.2-15.3c2.3,0.4,5.5,1.1,5.2,3.7c-0.3,2.4-3.6,2.6-6,2.2
	c-15.5-2.2-26.6,6.4-37.6,15.3C339,104.8,338.4,102,337.1,99.8z"/>
<path class="st0" d="M337.6,112.2c-1,2.8-3.5,4.2-5.9,7.7c-0.2-5.5,2.3-7.1,5.3-8.3C337.2,111.8,337.4,112,337.6,112.2z"/>
<path class="st0" d="M328.6,113.9c-2.6,0.4-3-1.4-3.4-3.3C327.2,110.9,328.8,111.5,328.6,113.9z"/>
<path class="st0" d="M325.3,110.7c-1.2-0.4-1.9-1.3-2.4-2.4C324.8,107.9,325.3,109,325.3,110.7z"/>
<path class="st0" d="M338.1,110.4c0.6-0.7,1.3-1.8,2.1-0.6c0.4,0.6-0.7,1.1-1.4,1.2C338.6,110.8,338.4,110.6,338.1,110.4z"/>
<path class="st0" d="M338.8,111c-0.4,0.4-0.8,0.8-1.2,1.2c-0.2-0.2-0.4-0.4-0.6-0.6c0.4-0.4,0.8-0.8,1.2-1.2
	C338.4,110.6,338.6,110.8,338.8,111z"/>
<path class="st0" d="M331.3,109.5c-0.2,0.2-0.4,0.5-0.6,0.7c-0.6-0.6-0.2-0.8,0.3-1C331,109.3,331.3,109.5,331.3,109.5z"/>
<path class="st0" d="M314.5,337.8c-0.4-0.4-0.8-0.8-1.3-1.3C314.1,336.6,314.5,337,314.5,337.8z"/>
</svg>
