<?xml version="1.0" encoding="utf-8"?>
<!-- Generator: Adobe Illustrator 19.1.0, SVG Export Plug-In . SVG Version: 6.00 Build 0)  -->
<svg version="1.0" id="Layer_1" xmlns="http://www.w3.org/2000/svg" xmlns:xlink="http://www.w3.org/1999/xlink" x="0px" y="0px"
	 viewBox="0 0 612 409.5" style="enable-background:new 0 0 612 409.5;" xml:space="preserve">
<style type="text/css">
	.st0{fill:#8B4D21;}
	.st1{fill:#56B848;}
	.st2{fill:#080605;}
	.st3{fill:#100906;}
	.st4{fill:#DBBCBC;}
</style>
<path class="st0" d="M478,265.7c-0.3,1.4-1.1,2.6-0.6,4.1c-1.5-0.7-3.1-1.2-4.7-1.7c-3.8-1.2-7.6-1.2-11.5-1.1
	c-0.5,0-0.9,0.1-0.8,0.8c0.3,1.7,1.8,3.2,3.6,3.5c3,0.5,6.1,0.2,9.1,0.4c3.3,0.2,6.3,1.4,7.7,4.6c2.4,5.6,6.3,9.8,10.8,13.8
	c-0.3,3.8,0.6,7.5,0.7,11.3c-0.7-0.9-1.4-1.7-2.2-2.6c-0.5-0.6-0.8-0.8-1.4-0.1c-0.7,0.8-1.5,1.2-2.6,1.4c-2.7,0.7-5.3-0.3-8.2-0.1
	c1.5-2.5,3.6-3.5,6-3.9c2.1-0.4,4-1,5.9-1.9c1.2-0.6,1.1-1.1,0.3-2c-2.2-2.4-4.7-3.6-8.1-2.3c-3.3,1.3-6.3,2.9-9,5.2
	c-1.1,0.9-1.4,2.1-0.9,3.6c0.7,2.3,2.1,4.1,3.4,6c1.5,2.3,3.4,2,5.5,1.5c0.8-0.2,1.6-0.6,2.4-0.8c3.1-1,5.7-3.1,8.9-3.5
	c0.4,3-0.8,5.2-3.4,6.5c-1.2,0.6-2.2,1.3-3.2,2.2c-0.8,0.6-1.6,1.4-2.7,1.6c0.3-0.5,0.5-1.1,0.8-1.6c0.2-0.4,0.5-0.9,0.1-1.3
	c-0.4-0.5-0.9,0-1.3,0.1c-2,0.6-4.1,1.4-6.1,1.9c-3.8,1-7.6,1.3-11.5,0.8c-5.1-0.7-10.2-2-15.4-1.8c-3.8,0.1-6-1.6-7.8-4.5
	c-1.9-3.1-4.6-5.6-7.7-7.7c-3.4-2.3-7.2-3.4-11.1-4.6c-4.5-1.4-8.9-1.1-13.4-0.8c-1.5,0.1-3.1,0.2-4.5,0.9c-1,0.5-1.3,0.8-0.4,1.8
	c1.4,1.4,2.6,2.9,3.9,4.4c0.7,0.8,0.5,1.3-0.5,1.4c-5.7,0.4-10.2,3.2-14.6,6.5c-0.6-0.5-1.3-1-1.9-1.5c-0.1-0.8,0.2-1.8-0.6-2.5
	c-1.6-1.3-3.1-2.7-4.6-4c-4.3-3.8-8.6-7.6-11.4-12.7c-2.1-4-3.2-8.1-1-12.4c0.8-1.6,0.3-3.1-0.9-4.2c-1.7-1.6-3.5-3.1-5.2-4.7
	c-0.8-0.8-1.4-1.7-0.9-2.9c1.9-5.2,3.2-10.7,6-15.5c1.1-2,1.6-3.5,0-5.4c-0.6-0.7-0.7-1.9-0.7-2.9c0-1.4-0.1-2.7-0.4-4.1
	c-0.3-1.7-0.6-1.8-2-0.8c-3,2.1-5.6,4.6-7.7,7.7c-2,3-2.2,6.3-1.7,9.8c3.9-2.6,4.9-7.5,8.6-10.1c0,0.7-0.3,1.2-0.5,1.7
	c-1.5,3.3-3.7,6.3-5.2,9.6c-1.6,3.6-3,7.2-1.6,11.2c0.2,0.6,0.1,1-0.4,1.5c-1.3,1.2-2,2.7-1.5,4.6c0.6,2.2,1,4.5,1.5,6.8
	c-4.3-1.4-6.2-3.9-6.3-8.3c-0.1-3.2,0.1-6.4-0.1-9.5c-0.2-1.7,0.5-3.8-1.7-5.1c-2.7-1.5-3.7-4-3.7-7.1c0-3.1,0.1-6.2,0-9.3
	c-0.1-2.1-1-3.9-2.3-5.5c-0.3-0.3-0.7-0.9-1.2-0.7c-0.6,0.2-0.4,0.8-0.4,1.3c-0.3,7.4-2.8,14.2-6.3,20.7c-2.7,5-5.5,9.9-8.1,14.9
	c-1.4,2.6-0.6,5.1,2,6.4c0.8,0.4,0.9,0.9,0.8,1.6c-0.4,2-1.1,4-1.9,5.9c-1.8,4.2-4.6,8.1-5,12.9c-0.2,2.6-0.2,5.1,1.9,7.1
	c1.2,1.2,1.5,2.7,0.7,4.3c-0.9,1.7-1.8,3.4-2.7,5.1c-1.3,2.3-2.1,4.8-1.9,7.5c0.1,1.1,0.4,2.3,1.4,2.8c1,0.5,1.7-0.5,2.4-1.1
	c0.2-0.2,0.5-0.3,0.8-0.4c0.9,1.1,2.3,1.7,3.3,2.6c-0.6,0.1-0.6,0.2-0.1,0.5c3.5,2.4,4.3,5.9,4.4,9.8c0.1,3.7-0.1,7.3,0.6,11
	c0.9,4.5,3.1,6,7.1,4.1c0.1,0,0.1,0,0.2,0c-0.2,2.8-1.5,5.4-2.5,8c-1,2.7-0.7,5,1.2,7.3c2.4,2.9,4.6,5.9,5.1,9.9
	c0.4,3.4-0.1,4.3-4.1,4.3c-0.4,0-0.8-0.1-1.2-0.2c-2-0.5-3.7-1.3-6-0.9c-2,0.3-4.3-0.4-6.2-1.3c-0.8-0.4-1.5-0.5-2.3,0
	c-2.7,1.5-5.5,1.9-8.4,0.7c-1.6-0.6-3.2-0.8-4.9-0.5c-1.1,0.2-2.4,0-3.2-0.8c-1-0.9-1.1-0.3-1.5,0.5c-0.6,1.2-1.4,2.3-2.4,3.3
	c-2.5,2.2-5.3,1.7-8,0.9c-3.2-1-6.4-2.4-9.1-4.4c-2.4-1.7-4.7-2.6-7.5-1.9c0.1-0.4,0.2-0.8,0.4-1.2c0.7-1.9,0.7-2-1.4-2
	c-2.1,0-4.2,0.1-6.2-0.7c-3.8-1.5-7-3.8-10.3-6c-1.5-0.9-3-1.8-4.9-2.4c0.8,3.7,3.3,5.8,6,7.7c2.8,2,6.1,3.2,8.8,5.5
	c-1.6,0.4-3.2-0.2-4.7-0.6c-7.6-1.8-13.6-6-18.5-12c1,0.4,1.9,1.1,3.1,1.4c0.6,0.2,1,0.2,1.3-0.4c0.6-1.2,1.2-2.3,1.1-3.7
	c-0.2-3.4-1.9-6.1-3.9-8.6c-0.7-0.9-1.5-1.8-1.5-3.1c0.1-2.6,0.4-5.2,0.5-7.9c0.1-3.2,0-6.5-0.7-9.6c-1.1-4.8-3.4-9.2-5.8-13.4
	c-0.6-1-0.9-1.9-0.9-3c0.2-6-0.1-11.9,0.3-17.9c0.3-5.5,0.1-11,0.1-16.5c0-1-0.3-1.3-1.3-1.4c-8.9-1.2-17.8-1.6-26.7-2
	c-7-0.3-14-0.1-21-0.1c-1,0-1.9-0.2-2.6-0.9c-2.3-2-4.7-3.7-7.3-5.2c-7.7-4.5-16-7.2-24.9-7.2c-3.6,0-6-1.3-8.2-3.8
	c-1.3-1.6-2.6-3.3-4.4-4.2c-1.2-0.6-1.9-1.3-2.6-2.3c-0.9-1.2-1.8-2.4-2.6-3.6c-1.6-2.2-3.6-4.4-3.3-7.3c0.2-1.9-0.6-2.8-1.8-3.8
	c-1.9-1.6-3.4-3.7-5.8-4.7c-2-0.8-2.5-0.5-2.4,1.6c0.3,3.6,1.4,6.8,3.2,9.9c3.4,5.8,8,10.7,12.6,15.5c0.9,0.9,1,1.6,0.6,2.8
	c-1.8,5-4.1,9.7-5.1,15c-1.1,5.3-0.6,10,2.9,14.3c0.5,0.6,0.5,1,0,1.5c-1.6,2.1-2.5,4.5-3.1,7c-1,4.5,0.2,8.7,2.4,12.7
	c2.3,4.2,5.2,8,7.7,12.1c1.7,2.8,3.4,5.6,3.9,8.9c0.4,2.2,0.5,4.5,0.8,6.7c0.5,3.6,2,6.6,5.4,8.4c1.2,0.6,1.5,0.4,1.5-0.8
	c0-0.3,0.1-0.6,0.1-0.9c1.9,1.1,3.7,2.3,6,2.8c0.3,0.8,0.5,1.5,0.8,2.3c1,3,1.8,3.3,4.6,2.1c1.5,3.3,1.1,6.4-0.7,9.4
	c-0.8,1.4-2.4,2.1-3.9,2.7c-2,0.8-4.1,1.5-6.4,1.7c-1.8,0.2-3.6,0.6-5.2,1.7c-2.1,1.4-4.4,1.4-6.8,1.2c-2.3-0.2-4.6-0.2-6.7,1.3
	c-1.6,1.2-3.5,0.6-5.4,0.3c-0.8-0.2-1.6-0.4-2.4-0.6c-1.2-0.2-2.3,0-3.2,1c-2.7,2.8-6.7,3-9.1,1.1c0.6-0.1,1.3,0,1.9-0.2
	c1.2-0.4,5.1-4.9,5.1-6.1c0-0.3-0.2-0.7-0.3-1c-1-2.4-3-3.8-5.1-5.1c-1.7-1-3.4-2-5.9-2.2c1.3,1.5,2.4,2.6,3.3,3.8
	c1.2,1.4,1.8,2.9,1.6,4.8c-0.1,0.4-0.1,0.8-0.5,0.8c-0.2,0-0.5-0.3-0.7-0.5c-2.2-2.6-5-3.9-8.2-4.8c-3-0.9-6.1-1.4-9.3-1.9
	c-2.1-0.3-4.1-1.1-6.6-1.1c1.7,0.9,3.1,1.6,4.4,2.3c-3-0.4-5.8-1.5-8.6-2.6c-1-0.4-2-0.8-3-1.2c-5.4-8.3-11.3-16.1-17-24.1
	c-1-1.4-1.2-2.8-0.7-4.4c1.6-5.6,0.7-10.8-2.1-15.8c-2.8-5-6.7-9.2-10.1-13.9c-4.4-6.2-6.8-12.8-4.6-20.5c0.2-0.8,0.1-1.6-0.2-2.3
	c-0.4-1.1-0.4-2.3-0.5-3.5c-0.3-4.5-0.6-9-1-13.5c-0.4-4-1.7-7.8-4.1-11.1c-0.4-0.6-0.8-1.8-2-1.3c-0.7-3.9-1.5-7.7-2.1-11.6
	c-1-5.9-1.9-11.9-2.7-17.9c-0.3-2.5-1.1-5-0.9-7.6c0.8,1,1.3,2.2,1.5,3.5c1,6.6,3.8,12.4,7.7,17.8c0.1-1.6-0.6-3.1-0.6-4.7
	c-0.1-5.2,0.7-10.3,1.7-15.4c1.1-5.6,2.4-11.2,2.3-17c-0.2-5.4-2-10.2-6.3-13.6c-1.5-1.2-1.5-2.1-0.9-3.6c1.2-2.8,2.2-5.7,3.3-8.5
	c1.2-3,2.1-6.3,3.9-9c1.7-2.5,2-5.1,2.1-7.8c0.1-4.6-1.3-8.8-4-12.5c-0.5-0.6-0.5-1.2-0.2-2c1.3-3,3.5-5.4,5.6-7.8
	c4.7-5.3,10.2-9.7,14.4-15.5c1.6-2.2,4-4.1,3.3-7.4c-0.2-1.2-0.4-2.4-0.5-3.5c-0.1-1.7-1-1.7-2.2-1.1c-1.5,0.8-2.8,2.1-4.6,2.4
	c0.5-0.9,1-1.9,1.4-2.8c1.8-3.6,1.4-7.1-0.8-10.4c-0.6-0.9-1-1.9-0.2-3c3.8,0.7,6.5-1.2,9-3.7c2-2,4-3.7,6.9-4.1
	c0.5-0.1,1-0.1,1-0.8c0-1.6,0.2-3.3-0.1-5c-2.1,1-4.3,1.6-6.1,0.5c-1.7-1-2.4-0.3-3.2,0.8c-1.8,2.2-3.5,4.4-5.2,6.6
	c-0.1-1.6-1.1-2.6-2.2-3.5c-2.2-2.1-2.7-4.5-1.2-6.5c0.2,0.7,0.3,1.5,0.7,2.2c0.5,0.9,1.4,1.4,2.5,1.4c0.9,0,1.2-0.7,1.5-1.3
	c2.5-5.3,6.8-8.8,11.9-11.3c7-3.4,14.3-5.7,22-6.7c1.1-0.2,0.8-0.5,0.6-1.3c-0.4-1.3-1.5-2.1-1.8-3.4c3.6,0.5,7.2,0.2,10.8,0.3
	c1.9,1.6,3.7,3.3,5.9,4.5c0.5,0.3,0.9,0.6,1.6,0.4c1.6-0.5,3.4-0.6,5-1.2c4.1-1.3,8.1-3,11.9-5c4.9-2.6,9.5-5.9,14.1-9
	c0.4-0.3,1.4-0.2,1.2-1.1c-0.2-0.7-0.7-1.2-1.5-1.4c-1.1-0.3-2.3-0.7-3.5-0.7c0.9-2.3,1.5-4.7,1.5-7.2c1,0.2,1.5,0.9,2.1,1.6
	c0.8,0.9,1.6,1.9,2.8,2.5c0.9,0.4,1.7,1.1,2.8,0.4c4.9-3.1,10.1-5.8,15.4-8.4c4.9-2.4,9.9-4.3,15.2-5.5c0.7-0.2,1.2-0.1,1.7,0.3
	c5.1,4,10.8,3,16.4,1.7c3.5-0.8,6.9-1.9,10.4-2.7c5.9-1.3,11.3-0.3,15.4,4.6c0.8,0.9,1.6,1.8,2.2,2.8c0.5,0.7,0.9,0.8,1.7,0.5
	c2-0.9,4.1-1.2,6.3-1.2c4.6,0,8.9,1.3,13.4,1.9c4.1,0.6,8.2,1.3,12.4,1.3c0.5,0,1.3,0.3,1.4-0.4c0.1-1.5,1.3-1.5,2.2-1.6
	c2.9-0.3,5.9-0.2,8.7,0.6c7.6,2.3,14.7,6.1,22.3,8.6c0.9,0.3,1.2,0.3,1.5-0.6c0.5-1.4,1.1-2.7,1.7-4.1c3.5,1.7,6.7,3.9,9.7,6.3
	c4.3,3.5,9.2,6.1,14.2,8.5c1.5,0.7,3,1.6,4.5,2.4c-1,0.3-1.9-0.2-2.8-0.4c-3.4-0.9-6.8-1.2-10.4-0.8c0.3,0.7,0.8,0.7,1.2,0.9
	c3.9,2,8.2,3.2,12.3,4.7c3.8,1.4,7.7,2.6,11.4,4.3c0.7,0.3,1.6,0.6,1.7,1.5c0.7,4.6,2.9,8.6,5.2,12.5c3.7,6.2,8.4,11.4,15.4,14.1
	c2.2,0.8,3.8,2.1,4.8,4.4c1.7,4.1,3.8,8,5.7,12c0.5,1.1,1.2,2.3,2.3,2.9c1.1,0.6,1.9,1.4,2.8,2.2c2.1,2.1,2.9,2.2,5.5,0.7
	c2.7,4.3,4.9,8.9,8.3,12.7c0.4,0.5,1,0.9,1.1,1.5c-0.7,0.3-1.1-0.3-1.6-0.6c-7-5.8-14.5-10.8-22.9-14.5c-3-1.3-6-2.9-9.3-3.7
	c-0.1,0.5,0.2,0.7,0.4,1c3.6,4.4,8.4,7.3,13.2,10c4.3,2.4,8.8,4.6,12.7,7.6c0.8,0.6,1.6,1.1,2,2c3,6.1,7,11.5,11.7,16.4
	c1.9,2,3.7,3.8,4.7,6.6c1.3,3.7,4.1,6.5,6.4,9.6c2.7,3.6,5.2,7.2,5.4,11.9c0.1,2.4,0.7,4.5,2.5,6.2c0.7,0.7,1.1,1.8,1.6,2.8
	c2.1,3.8,3.1,8.2,5.7,11.8c1.5,2.1,3.2,4.2,6,4.8c1.2,0.2,2.3,0.6,3.4,1.1c2.5,1,4.9,2.2,7.5,2.9c2.8,0.7,4.9,1.6,6.6,4.1
	c3,4.5,7.3,8,11,12c4.8,5,8.9,10.4,11,17.2c0.2,0.8,0.6,1.6,0.2,2.2c-2,2.7-1.3,5.7-0.8,8.6c0.5,3.1,0.8,6.3-0.8,9.3
	c-0.7,1.3-1.2,1.5-2.3,0.3c-4.6-5.4-12.6-3.8-17.2,0.3c-0.5,0.5-1,1.1,0.2,1.6c0.9,0.4,1.8,1.1,2.3,2.4c-5.5-1.6-11.1-1.9-16.6-2.6
	c-0.4,0-0.8-0.5-1.1,0c-0.2,0.4,0.1,0.7,0.3,1c0.9,1.3,1.8,2.7,2.7,4c0.4,0.5,0.8,0.8,1.5,0.6c2.9-0.5,5.7,0.2,8.4,0.9
	c2.9,0.7,5.7,1.7,8.7,1.8c1.3,0,0.7-0.5,0.4-1c0.7-0.3,1.6,0.1,2.3-0.4c0.7,0.5,1.4,1.1,2.2,1.5C475.1,265.8,476.3,267.1,478,265.7z
	 M299.5,366.6c0,0,0-0.1-0.1-0.1c0,0-0.1,0-0.1,0C299.4,366.5,299.4,366.5,299.5,366.6c0.9,2.2,3,3.5,4.2,5.6
	c-2.5,0.5-4.6,0.4-6.8-0.8c-2.2-1.1-4.1-2.7-6.2-3.8c-2.6-1.4-4.5-1.8-6.2-1.3c4.7,3.2,8.6,7.1,13.6,9.7c2.1,1.1,4.3,1.8,6.5,2.4
	c0.6,0.1,1.1,0.2,1.6-0.3c2.6-3,2.4-6.2-1-8.5C303.4,368.3,301.5,367.4,299.5,366.6z M413,251.4c-0.4,0-0.8,0.1-0.7,0.6
	c0.6,3.2,1.4,6.4,3.6,9c0.5,0.5,1.7,1,1,1.9c-0.8,1-1.7,0.3-2.5-0.2c-0.2-0.1-0.4-0.2-0.7-0.3c-0.1,0-0.1-0.1-0.2-0.1
	c0.1,0.1,0.1,0.1,0.2,0.2c1.1,2.1,2.8,3.6,5,3.8c3.3,0.4,6.5-0.6,9.3-2.6c2.7-1.9,5.4-3.9,8.2-5.7c1.5-1,1.6-1.7,0.1-2.4
	c-1.5-0.7-1.2-1.2-0.2-2.1c3.2-3,2.9-3.9,0.4-6.4c-0.2-0.2-0.3-0.4-0.4-0.6c-1.2-1.9-3-2.8-5.1-3.6c-2.8-1.1-5.6-0.6-8.3-0.1
	c-2.9,0.5-5.8,1.5-8.6,3.3c0.9,0.2,1.5,0.4,2.1,0.5C414.6,248,413.7,249.6,413,251.4z M256.2,192.5c-0.8,0.9-1.2,1.9-1.6,2.9
	c-1.3,4.2-3.6,8-5.7,11.9c-2.9,5.4-5.9,10.8-8.5,16.3c-2.4,5-3.9,10.3-4.7,15.9c-0.6,4.4-0.8,8.8,0.1,13.2c0.8,3.9,4,7,7.7,7.6
	c-2.7-3.6-3.3-7.7-3-11.9c0.2-3.4,1.9-6.4,2.9-9.5c0.9-2.8,2.5-5.3,4-7.8c2.2-3.8,4.1-7.8,5.2-12c1.3-4.8,4.6-8.9,5.8-13.8
	C259.5,200.5,259.4,196.3,256.2,192.5z M363.8,204.7c-0.2,4.1,0.8,7.9,3.1,11.2c3.1,4.5,7,8,13,7.8c0.8,0,1.8,0,2-0.8
	c0.2-0.9-0.4-1.7-1.2-2.2c-1.3-0.8-2.7-1.3-4.1-1.7c-6.9-2-9.9-5.1-8.1-12.5c0.8-3.4,1.5-6.8,1.4-10.4c0-1,0.6-1.5,1.4-1.9
	c2.7-1.3,5.6-1.9,8.6-2.2c3.7-0.3,7.4-0.4,11.1-0.3c0.9,0,1.1-0.2,0.9-1.1c-0.6-2.9-4.8-6.5-7.8-6.8c-3.4-0.3-6.1,1.3-8.8,2.9
	c-2.8,1.7-5.4,3.6-8.1,5.3c-0.9,0.6-1.5,1.3-1.8,2.4C364.3,197.7,363.9,201.1,363.8,204.7z M118.4,178.7c-0.1,5.1,0.5,9.1,1.9,13
	c0.2,0.5,0.3,1.2,1,1c0.5-0.1,0.7-0.6,0.7-1.1c0.1-1.5-0.6-3.3,1.3-4.3c0.1-0.1,0.1-0.6,0.1-0.9c0-3.8,0.9-7.6,1.6-11.3
	c1.1-5.6,1.9-11.2-0.3-16.9c-0.7-1.6-1.4-1.5-2.5-0.8c-1.2,0.7-2.3,1.9-3.7,2.1c-1.3,0.2-1.4,0.9-1.2,1.9
	C118.7,167.4,117.5,173.6,118.4,178.7z M241.5,192.2c1.9,1.1,3.3,2.6,5.4,3.2c0.9,0.2,1.7,0.1,1.5-1c-0.2-1.9,0.7-3.3,1.8-4.5
	c1.9-2,3-4.8,6-5.6c1.6-0.4,2.6-1.1,2.3-3c-0.1-0.5,0.2-1.2,0.4-1.7c1.1-2,2.7-3.7,4.4-5.2c1.8-1.6,4-2.1,6.5-1.6
	c-0.5-1.5-0.5-1.7-1.4-2c-3.5-1.4-7.1-1.6-10.6-0.2c-3.6,1.5-5.2,4.8-6.8,8.2C248.7,183.7,247,189.1,241.5,192.2z M275,103.5
	c1.9,1.5,3.7,2.2,5.6,2.7c5.4,1.5,11,2.6,16,5.5c0.3,0.2,0.6,0.3,0.8,0.1c1.9-1.7,3.5-0.5,5.3,0.3c2.6,1.1,5,2.7,8,2.9
	c1.3,0.1,1.2-0.3,0.8-1.1c-1.3-2.8-3.8-4.6-6.2-6.2c-3.4-2.4-7.6-3-11.9-3.3c-3.9-0.3-7.7-0.1-11.6-0.5
	C279.6,103.5,277.5,103,275,103.5z M112.7,149.2c-0.1,2.2,0,4.1,0.9,5.9c0.3,0.7,0.7,0.8,1.5,0.7c2.2-0.3,3.2-2,4.1-3.6
	c1.3-2.3,2.2-4.8,4.2-6.6c0.4-0.4,0.4-0.7,0.1-1.1c-1.3-1.5-1.8-3.4-2.7-5.2c-0.6-1.3-1.3-2.5-2.5-3.4c-1.1-0.8-1.8-0.5-2.3,0.5
	C114.3,140.5,112.3,144.6,112.7,149.2z M382.8,212.1c-0.3-1.1-0.7-2.1-0.9-3.2c-0.3-1-0.8-2,0.4-2.9c1.2-0.8,2.3-1.1,3.7-0.3
	c1.3,0.8,2.6,1.6,4.1,2.1c1.3,0.4,2.2-0.1,2.7-1c0.6-1.2,0.6-2.4-0.7-3.3c-2.2-1.5-4.6-2.7-7-3.9c-0.9-0.5-1.7-0.5-2.1,0.7
	c-0.2,0.7-0.9,1.1-1.7,1.5c-1.4,0.7-2.8,0.6-4.2,0.6c-0.9,0-2-0.3-2.5,0.6c-0.6,1,0.5,1.7,1,2.5C377.4,208.3,380,210.3,382.8,212.1z
	 M124.8,118.8c-3.2-1.5-6.1-1.4-8.6,0.6c-3,2.5-5.7,5.3-8.4,8c-1,1-0.9,1.9,0.4,2.6c1.6,0.9,3.3,1.4,5,1.9c0.8,0.2,1-0.2,1.3-0.8
	C117,126.3,119.7,121.7,124.8,118.8z M305.8,96.7c2.1,3.6,4.8,6,8.1,7.6c1.1,0.5,2.5,1.1,3.8,0.5c1.4-0.6,2.6-0.2,3.7,0.5
	c0.8,0.6,1.6,1,2.5,1.3c1,0.3,2.4,0.7,3-0.3c0.6-1-0.5-1.9-1.1-2.8c0,0-0.1-0.1-0.1-0.1c-2.6-1.7-5.3-3.2-8.6-3
	c-2.4,0.1-4.5-0.6-6.5-1.7C309.2,98,307.8,97.2,305.8,96.7z M290.8,70.7c1.8,0.5,3.5,0.8,5.1,1.5c4.2,1.8,7.7,4.8,11.7,6.9
	c2.3,1.2,4.8,2.3,7.7,2.7C306.3,73,298.8,68.9,290.8,70.7z M339,89.7c2.6,1.5,3,3.8,3.2,6.2c0.2,1.8,0.3,3.7,1.1,5.4
	c0.8,1.6,1.4,1.6,2.7,0.6c2.4-1.8,3-8.6-0.3-10.4C343.8,90.3,341.7,89.5,339,89.7z M329.7,363.9c1.9,2.1,2.7,4.6,3.7,7
	c0.5,1.3,0.9,2.7,1.8,3.9c0.6,0.8,1.3,1.1,2.2,0.7c0.7-0.3,2.1-3.6,2-4.3C338.5,367.8,333.5,363.9,329.7,363.9z M318.3,364.9
	c1.1,2.8,1.9,5.7,3.5,8.2c0.7,1,1.6,1.6,2.6,2c1.2,0.5,2.4-0.2,2.6-1.5c0.3-2-0.3-3.8-1.8-5.2C323.3,366.6,320.9,365.8,318.3,364.9z
	 M145.2,357.7c1.8,1.2,2.4,2.6,3.1,4.1c0.7,1.6,1.1,3.3,2.1,4.7c0.8,1.1,1.9,1.5,3.2,1.2c1.3-0.3,1.1-1.6,1.2-2.5
	c0.3-2.1-0.5-3.9-2.1-5.2C150.6,358.2,148.3,357.5,145.2,357.7z M156.6,355.1c0.9,4.6,3.6,7.5,5.9,10.7c0.9,1.2,2.6,0.7,4.2-0.9
	c1.1-1,0-1.8-0.5-2.4C163.8,359.4,160.3,357.5,156.6,355.1z M164.4,353.9c1.4,2.7,2.6,5.1,3.8,7.4c0.3,0.6,1,1,1.5,1.5
	c1.6,1.7,2.6,0,3.7-0.7c1.3-0.8,0.7-1.8,0.1-2.8C171.4,356.1,168.1,355.1,164.4,353.9z M120.2,220.2c0,2.3,0.1,4.4,0,6.5
	c-0.1,1.7,0.6,1.9,1.9,1.5c0.4-0.1,0.7-0.3,1.1-0.5c1.3-0.7,2.4-1.7,3.9-2.1c1.6-0.5,1.8-1.3,0.7-2.5c-0.5-0.5-1.1-1-1.7-1.2
	C124.1,221.4,122.2,221,120.2,220.2z M420.9,186.4c1.7,2.8,3.3,5.6,5.1,8.2c0.8,1.2,2.1,2.1,3.8,2.1c0.9,0,1.3-0.3,1.1-1.1
	C429.9,191.1,425.4,186.6,420.9,186.4z M246.1,168.6c4.1-0.4,8-2,11.1-5.4c0.3-0.3,1-0.4,0.8-1.1c-0.2-0.6-0.9-0.8-1.5-0.7
	c-1.7,0.1-3.2,0.5-4.7,1.5c-2.3,1.5-4.7,2.8-7,4.2c-0.5,0.3-1.2,0.4-1.1,1c0.1,0.7,1,0.4,1.5,0.5
	C245.4,168.7,245.6,168.6,246.1,168.6z M431.4,231.9c-1.7,0-3-0.1-4.3,0.3c-0.5,0.2-1.4-0.3-1.4,0.6c0,0.7,0.8,1.1,1.4,1.2
	c1.7,0.3,3.4,0.5,5.1,0.8c1.7,0.2,3.1,0.8,3.7,2.6c0.5,1.5,2.5,1.9,3.6,0.8c0.2-0.3,0.4-0.6,0.2-0.8c-1.2-0.8-1.1-2.3-2-3.3
	C435.9,232.1,433.6,231.7,431.4,231.9z M396,188.5c2.2,3.8,2.9,7.7,1.4,12.3c1.8-1.2,3.2-1.9,4.4-2.9c1.7-1.4,2-2.8,0.7-4.5
	C400.9,191.2,398.7,189.6,396,188.5z M406,187.6c1.5,0.7,2.6,1.2,3.6,2c1.8,1.3,3.3,3.1,4.9,4.7c1.2,1.1,2.5,1.7,4,2.4
	c0.3,0.1,0.7,0.2,1-0.1c0.1-0.1,0-0.4,0-0.6C418,190.4,412.1,186.7,406,187.6z M136.7,361c2.3,3.3,4.7,6.3,8.2,8.2
	c0.5,0.3,1.1,0.9,1.6,0.4c0.4-0.4,0.3-1.1,0.1-1.7c-0.1-0.5-0.4-1-0.7-1.4C143.6,363.3,140.4,361.7,136.7,361z M308.9,365
	c0.6,1.2,1.1,2.4,1.7,3.5c1.4,2.2,2.9,4.4,5.4,5.6c0.8,0.4,1.3,0.5,1.4-0.7c0.1-1.6-0.3-3.1-1.6-4.2
	C313.8,367.5,311.5,366.1,308.9,365z M135.9,103.6c-2.6-1.3-7.6-0.5-10,1.6c-0.4,0.3-1,0.6-0.8,1.3c0.2,0.5,0.8,0.4,1.3,0.4
	C130.1,107.2,132.9,105.3,135.9,103.6z M477.5,242.4c-0.3-2.1-1.4-3.1-3.3-3.2c-1.4-0.1-2.7-0.4-4-0.7c-0.5-0.1-1.2-0.8-1.6-0.2
	c-0.5,0.7,0,1.5,0.4,2.1c0.3,0.5,0.9,0.7,1.5,0.8C472.7,241.8,475.1,241.5,477.5,242.4z M341.2,368.6c0.3,2.3,0.7,4.1,1.7,5.8
	c0.6,1.1,2.8,1.8,3.3,1c0.6-1,0.6-2.1-0.3-3.1C344.6,370.9,343.1,369.8,341.2,368.6z M332.7,96c0.7,1.7,1.1,3.1,1.8,4.3
	c0.6,1.2,1.7,1.2,2.7,0.5c1.1-0.7,0.7-1.5,0-2.2C336.2,97.3,334.8,96.5,332.7,96z"/>
<path class="st1" d="M492.3,301.5c0-3.8-1-7.5-0.7-11.3c0.3-1.8-0.1-3.5-1.1-4.9c-1-1.4-2.2-2.6-3.5-3.8c-1-0.9-2.1-1.7-2.6-3
	c3.1-0.3,6.1-0.5,9.1,0.1c1.7,3,4.1,5.2,7.5,6.2c3.7,1,7.5,0.9,11.4,0.4c3.6-0.5,7.1-1.4,10.8-1.5c1,0,2.2-0.4,3.1,0.5
	c5.3,5.2,12.4,7.2,19.1,9.7c6,2.3,11.8,4.7,16.1,9.8c1.5,1.8,2.9,2,4.8,0.7c1.7-1.2,3.4-1,5.1-0.5c1.4,0.4,2.1,1.7,2,3
	c-0.1,1.3-0.6,2.6-1.1,3.7c-1.6,3.6-3.5,7.1-5.1,10.8c-0.7,1.7-1.4,3.5-1.7,5.4c-0.4,2.6,0.4,4.9,1,7.3c-3.1,0.1-6.1-0.6-9-1.6
	c0.3-0.2,0.6-0.3,1-0.6c-1.2-0.5-2.3-0.7-3.4-1.1c-5-1.7-9.7-4.2-14.4-6.5c-5.1-2.5-10.1-5.1-15.3-7.3c-0.8-0.3-1.3-0.6-1.7,0.6
	c-0.6,2-0.9,1.9-2.4,0.4c-1-1-1.9-2.2-3.1-2.9c-0.5-0.3-1-0.5-1.5-0.1c-0.5,0.4,0,0.9,0.2,1.3c0.2,0.5,0.6,1,0.8,1.6
	c0.9,2.5,1.7,5.1,0.6,7.8c-0.3,0.7-0.5,1-1.4,0.6c-2.7-1.3-5.4-2.6-7.9-4.5c-1.9-1.5-3.8-3-6.3-4.1c0.3,0.6,0.4,0.8,0.6,1
	c2.3,3.5,5.3,6.3,8.6,8.7c-1,1.3-2.2,2-3.7,2.4c-0.6,0.2-1.1,0.7-1.6,1.1c-2.1-1.3-4.1-0.3-6.1,0.4c-6.2,2.5-11.9,6-17.7,9.3
	c-7.9,4.4-15.5,9.3-24.1,12.2c-5.7,1.9-11.5,3.3-17.6,3.7c-2.1,0.1-4.2,0.2-6.3,0.2c-1.1,0-1.1,0.6-0.6,1.2c0.7,0.9,1.5,1.6,2.3,2.4
	c-1.8,0.9-3.7,1.3-5.4,2.4c-1.4-1.5-4.4-2-5.5-0.8c-4.5,4.9-10.1,8.1-16.1,10.9c-1.2,0.5-1.8,0.4-2.4-0.7c-1.4-2.4-2.3-4.9-3.3-7.5
	c-1.6-4.5-3.7-8.5-7.4-11.5c-0.7-0.6-1.5-1.3-2.5-1c-3.3,0.9-6.3,2.4-8.7,5c-0.4,0.5-1,1.1-0.8,1.7c0.7,1.4-0.4,1.8-1.2,2.3
	c-0.9,0.7-2,1-3.1,1.3c-2.9,0.7-3,0.8-1.1,3c0.1,0.1,0.1,0.3,0.2,0.5c-0.8,0.1-1.6,0.4-2-0.2c-0.8-1.4-2.1-1.2-3.4-1.2
	c-0.4-0.5-0.3-1.4-0.9-1.8c1.7-2.1,2-4.6,1.8-7.2c-0.2-2.2-0.4-4.5,0.9-6.6c0.6-0.9,0.6-2.1,0.9-3.2c0.4-1.9-0.2-4,0.9-5.8
	c1.3-2,2.7-3.7,3.2-6.3c0.7-3.3,3.6-4.9,6.5-6.5c5.5-2.9,7.3-4.5,6.4-10.7c-0.1-0.8,0.2-1.2,0.7-1.7c3.1-3.1,6.8-5.4,10.8-7
	c2.8-1.1,5.7-1.2,8.9-0.9c-2-1.8-3.8-3.4-5.7-5.1c2.1-0.4,3.6-1.3,5.1-2.3c3.5-2.3,7.2-3,11.1-0.8c3.4,1.9,6.7,3.8,10.2,5.5
	c2.4,1.2,3.3,2.9,2.8,5.5c-0.2,1.1-0.6,2.2-1.1,3.2c-1.8,4,0.7,7.8,5,7.8c2.3,0,3.9-1.2,5.5-2.5c1.8-1.4,3.6-2.7,6-2
	c0.5,0.1,0.8,0,1.1-0.4c2.2-2.2,4.8-2,7.5-1.3c1.4,0.4,2.8,1.1,4.2,1.6c2.6,1,5.2,1.7,8,0.8c3.3-1.1,6.4-2.7,9.2-4.9
	c1.1-0.2,1.9-1,2.7-1.6c1-0.8,2-1.6,3.2-2.2c2.6-1.3,3.8-3.6,3.4-6.5C492.3,301.8,492.3,301.7,492.3,301.5z M440,343.5
	c-1.8-3.4-2.9-6.8-3.6-10.3c-0.8-3.9-2.8-6.5-6.1-8.5c-2.3-1.4-4.9-2.1-7.5-2.8c-4.7-1.2-9.4-1.7-14.2-2.3c0.3,1.2,2,1.5,1.6,2.5
	c-0.4,1-1.8,0.6-2.8,0.6c-0.1,0-0.2,0.1-0.3,0.2c0.6,1,1.6,1.4,2.7,1.6c4.2,0.8,8.4,0.3,12.6,0.3c1.8,0,3.4,0.1,4.6,1.7
	c1.1,1.5,1.6,3.2,2,4.9c0.4,1.8,1.1,3.4,2.3,4.8c1.6,1.8,1.8,2.8,0.7,5c-0.4,0.7-0.4,1,0.5,1.4C434.9,343.5,437.3,343.4,440,343.5z
	 M476.1,324.4c-4.4-6.3-18.6-4.3-23.7-0.9c3.6-0.1,7-0.7,10.5-0.9c2.9-0.2,5.6,0.2,8.3,1.1c1.3,0.4,1.5,1.1,1.3,2.3
	c-0.4,2.2-2.6,4.4-5.1,5c-1.4,0.4-2.9,0.7-4.3,1.2c-4.2,1.3-8.4,2.3-12.7,0.3c-0.2-0.1-0.7-0.1-0.8,0c-0.3,0.3-0.1,0.8,0,1.2
	c1.1,2.8,4.3,4.4,7.4,4c2.5-0.4,5-0.8,7.4-0.9c3.7-0.2,7-2.5,7.9-6.1C472.8,328.2,474,326,476.1,324.4z M428.6,346.1
	c-3.5-0.3-6.4,1-8.9,2.9c-5.2,4.1-8.1,9.7-9.5,16.1c-0.1,0.4-0.3,1,0.3,1c1,0,2.1,0.5,2.9-0.9c1.9-3.2,3.4-6.5,4.9-9.9
	c1.3-2.9,3.1-5.3,6.3-6.1C426.5,348.8,427.7,348,428.6,346.1z M395.8,332.2c-0.7,0-3.1,0.9-3.3,1.2c-0.4,0.8,0.6,1.1,0.6,1.7
	c0,0.2,0,0.6-0.1,0.7c-1.3,1-0.2,1.7,0.4,2.2c0.7,0.6,1.1,1.9,2.2,1.6c2.3-0.6,4.7-1.1,6.4-3.1c0.8-0.9,0.6-1.4-0.2-2.2
	C400.2,332.4,398,332.4,395.8,332.2z M568.6,311.8c-2.9-3.8-11.2-5.9-15.6-4.1c0.9,1.2,2.1,1.9,3.5,2.2
	C560.4,310.8,564.5,310.2,568.6,311.8z M562.1,325.7c-3.2-0.5-5.1-2.5-7.4-3.9c-1.7-1-3.5-1.6-5.5-0.8c1.3,0.3,2.6,0.8,3.7,1.6
	c1.1,0.8,2.2,1.6,3.3,2.4C557.9,326,559.6,326.9,562.1,325.7z M563.3,318.2c-3.2-3.8-7.1-5.4-10.3-4.1c2.3,0.4,3.8,1.8,5.5,3
	C559.8,318.1,561.3,318.9,563.3,318.2z"/>
<path class="st2" d="M164.5,346.8c0,0.3-0.1,0.6-0.1,0.9c0,1.2-0.3,1.4-1.5,0.8c-3.4-1.8-4.9-4.8-5.4-8.4c-0.3-2.2-0.4-4.5-0.8-6.7
	c-0.5-3.3-2.2-6.2-3.9-8.9c-2.5-4.1-5.4-7.8-7.7-12.1c-2.2-4-3.4-8.2-2.4-12.7c0.6-2.5,1.5-4.9,3.1-7c0.4-0.6,0.4-1,0-1.5
	c-3.5-4.2-3.9-9-2.9-14.3c1.1-5.3,3.4-10,5.1-15c0.4-1.2,0.3-1.9-0.6-2.8c-4.6-4.8-9.2-9.7-12.6-15.5c-1.8-3.1-3-6.4-3.2-9.9
	c-0.1-2.1,0.4-2.4,2.4-1.6c2.4,1,3.9,3.1,5.8,4.7c1.1,1,1.9,1.9,1.8,3.8c-0.3,2.9,1.7,5.1,3.3,7.3c0.8,1.2,1.8,2.4,2.6,3.6
	c0.7,1,1.4,1.8,2.6,2.3c1.8,0.9,3.1,2.6,4.4,4.2c2.1,2.6,4.6,3.9,8.2,3.8c9-0.1,17.2,2.7,24.9,7.2c2.6,1.5,5,3.2,7.3,5.2
	c0.7,0.7,1.6,0.9,2.6,0.9c7,0,14-0.1,21,0.1c8.9,0.3,17.9,0.8,26.7,2c1,0.1,1.3,0.4,1.3,1.4c-0.1,5.5,0.2,11-0.1,16.5
	c-0.4,6-0.2,12-0.3,17.9c0,1.1,0.3,2,0.9,3c2.4,4.3,4.7,8.6,5.8,13.4c0.7,3.1,0.8,6.3,0.7,9.6c-0.1,2.6-0.4,5.2-0.5,7.9
	c0,1.3,0.8,2.2,1.5,3.1c2,2.6,3.7,5.3,3.9,8.6c0.1,1.4-0.6,2.5-1.1,3.7c-0.3,0.6-0.7,0.6-1.3,0.4c-1.1-0.3-2-1-3.1-1.4
	c-2.3-2.1-3.7-4.6-4.6-7.5c-0.8-2.9-1.8-5.7-2.8-8.5c-0.9-2.4-2.6-4.3-4.8-5.6c-0.8-0.5-1.6-0.8-2.4-0.1c-1.3,1-2.9,0.7-4.3,0.8
	c-2.3,0.2-2.9,0.7-2.8,2.9c0.1,1.2-0.5,1.4-1.3,1.7c-4,1.3-7.4-0.5-10.8-2c-1.5-0.7-3-1.3-4.7-1.7c-1.3-0.3-2.5-0.3-3.5,0.2
	c-1.9,1-3.3,0.2-4.9-0.5c-3.5-1.6-5.8-4.5-8.5-7.1c-1.3-1.2-2.5-2.5-4.1-3c-0.9-0.3-1-1-1.2-1.8c-1-4.3-1.3-8.6-2-12.9
	c-0.9-5.3-1.7-10.7-4.4-15.7c1.7,0.3,1.8-0.7,2-1.9c1.3-8.1-2.2-15.6-9.2-19.8c-0.8-0.5-1.6-1-2.5-0.9c-5.7,0.6-9.6-2.5-13.3-6.1
	c-1.6-1.6-3.4-3.1-5.5-4.5c-0.5,1.5-0.8,3-1.3,4.3c-1.5,4.6-4,8.8-5.1,13.5c-0.8,3.5-0.6,6.9,1.9,10c2.5,3.1,2.3,6.9,1.8,10.6
	c-0.5,4-1.3,8.1,0,12.1c0.9,2.8,2.1,5.4,3.5,8c2.5,4.5,4.5,9.2,5.9,14.1C164.7,342.2,164.5,344.5,164.5,346.8z"/>
<path class="st2" d="M469.3,263.9c0.3,0.5,0.9,1.1-0.4,1c-3-0.1-5.8-1.1-8.7-1.8c-2.8-0.7-5.6-1.4-8.4-0.9c-0.7,0.1-1.1-0.1-1.5-0.6
	c-0.9-1.3-1.8-2.7-2.7-4c-0.2-0.3-0.5-0.6-0.3-1c0.3-0.6,0.7-0.1,1.1,0c5.5,0.7,11.1,1,16.6,2.6c-0.5-1.3-1.3-2-2.3-2.4
	c-1.2-0.5-0.7-1.1-0.2-1.6c4.5-4.1,12.6-5.7,17.2-0.3c1,1.2,1.6,1,2.3-0.3c1.6-3,1.3-6.1,0.8-9.3c-0.4-3-1.2-5.9,0.8-8.6
	c0.5-0.7,0.1-1.5-0.2-2.2c-2-6.8-6.2-12.1-11-17.2c-3.7-4-8-7.4-11-12c-1.7-2.5-3.9-3.5-6.6-4.1c-2.6-0.6-5-1.8-7.5-2.9
	c-1.1-0.5-2.2-0.8-3.4-1.1c-2.8-0.6-4.5-2.6-6-4.8c-2.5-3.6-3.6-7.9-5.7-11.8c-0.5-0.9-0.9-2.1-1.6-2.8c-1.8-1.7-2.4-3.9-2.5-6.2
	c-0.2-4.7-2.8-8.3-5.4-11.9c-2.3-3.1-5.2-5.9-6.4-9.6c-0.9-2.8-2.8-4.6-4.7-6.6c-4.6-4.9-8.7-10.3-11.7-16.4c-0.4-0.9-1.2-1.5-2-2
	c-3.9-3-8.4-5.2-12.7-7.6c-4.8-2.7-9.6-5.6-13.2-10c-0.2-0.3-0.5-0.5-0.4-1c3.3,0.8,6.3,2.3,9.3,3.7c8.4,3.7,15.9,8.7,22.9,14.5
	c0.5,0.4,0.8,0.9,1.6,0.6c0,0,0,0,0,0c0,0.1,0,0.1-0.1,0.2c0.1,0,0.1,0,0.2-0.1c0.1,0,0.2,0.1,0.2,0.2c-0.3,0.5,0.1,0.5,0.4,0.5
	c0,0,0,0,0,0c-0.1,0.5,0.2,0.7,0.7,0.8c6.7,6.5,13.3,13.3,18.6,21.1c4.2,6.1,8.3,12.2,12.4,18.4c3,4.6,6.2,9,9.9,13
	c1.5,1.7,1.6,3.5,0.8,5.5c-0.6,1.6-1.2,3.1-1.5,4.8c-0.1,0.7,0,1.3,0.1,1.9c0.4,1.5,1.4,2.1,2.9,1.6c1.3-0.5,2.8-0.7,3.9-1.7
	c0.5-0.5,1.1-1,0.1-1.6c-1.2-0.8-0.7-1.5,0.2-2c2.6-1.5,5-3,8.2-3.2c4.3-0.3,8.3,0.8,12.2,2.3c2.3,0.9,3.2,3.1,3.9,5.3
	c0.8,2.9,1.4,5.8,2.2,8.6c0.5,1.9,1.4,3.5,2.9,4.9c1.6,1.4,1.9,2.7,0.8,4.5c-1.5,2.7-3.4,5-7,4.4c0.1,1.6,1,2.8,1.8,4
	c3.1,5,6.7,9.6,9.9,14.5c1.7,2.7,2.9,5.7,4.2,8.7c0.3,0.7,0,0.9-0.5,1.2c-2.4,1.6-3,3.5-2.2,6.3c0.8,2.6,1.9,5.1,1,8
	c-0.8,2.4-4.1,3.9-6.1,2.3c-1.4-1.1-2-0.4-2.6,0.6c-0.6,1-1.4,1.9-1.9,3c-0.5,1.1-1.6,1.9-2.7,2.5c-1.7,1.3-2.9,0.1-4.3-0.7
	c-0.8-0.5-1.5-1-2.2-1.5c-0.2-1.3-0.5-2.6-0.7-4c1.3,0.5,2.4,1.1,3.5,1.4c1.5,0.5,3.1-0.5,3.2-2c0.1-1.6-0.6-2.9-1.8-3.9
	c-1.1-0.9-2.3-1.1-3.8-0.4c-1.7,0.8-2.9,1.9-3.7,3.6c-0.5,1.2-1.3,2.2-2.7,2.8C466.7,262.3,467.7,263.5,469.3,263.9z"/>
<path class="st2" d="M329.6,320.2c-0.3,0.1-0.6,0.2-0.8,0.4c-0.7,0.6-1.4,1.6-2.4,1.1c-1-0.5-1.3-1.7-1.4-2.8
	c-0.2-2.7,0.6-5.2,1.9-7.5c0.9-1.7,1.8-3.4,2.7-5.1c0.8-1.6,0.5-3.1-0.7-4.3c-2.1-2-2.1-4.5-1.9-7.1c0.5-4.7,3.2-8.6,5-12.9
	c0.8-1.9,1.5-3.9,1.9-5.9c0.1-0.7,0-1.2-0.8-1.6c-2.7-1.4-3.5-3.8-2-6.4c2.7-5,5.5-9.9,8.1-14.9c3.4-6.5,6-13.2,6.3-20.7
	c0-0.4-0.2-1.1,0.4-1.3c0.5-0.2,0.9,0.4,1.2,0.7c1.3,1.6,2.3,3.4,2.3,5.5c0.1,3.1,0.1,6.2,0,9.3c0,3,1,5.5,3.7,7.1
	c2.2,1.3,1.5,3.4,1.7,5.1c0.3,3.1,0.1,6.3,0.1,9.5c0.1,4.4,2,6.9,6.3,8.3c-0.5-2.3-0.9-4.6-1.5-6.8c-0.5-1.9,0.2-3.4,1.5-4.6
	c0.6-0.5,0.7-0.9,0.4-1.5c-1.4-4,0-7.6,1.6-11.2c1.5-3.3,3.6-6.3,5.2-9.6c0.2-0.5,0.5-1.1,0.5-1.7c-3.7,2.6-4.7,7.5-8.6,10.1
	c-0.5-3.5-0.2-6.8,1.7-9.8c2-3.1,4.7-5.6,7.7-7.7c1.4-1,1.7-0.9,2,0.8c0.2,1.4,0.3,2.7,0.4,4.1c0,1,0.1,2.2,0.7,2.9
	c1.6,1.9,1.2,3.4,0,5.4c-2.8,4.8-4.1,10.3-6,15.5c-0.4,1.2,0.1,2.1,0.9,2.9c1.7,1.6,3.5,3.1,5.2,4.7c1.2,1.2,1.7,2.6,0.9,4.2
	c-2.2,4.4-1.1,8.5,1,12.4c2.8,5.2,7.1,9,11.4,12.7c1.5,1.3,3,2.7,4.6,4c0.9,0.7,0.5,1.7,0.6,2.5c-0.8,0.6-1.3-0.2-1.8-0.4
	c-7.8-3.7-13.7-9.7-18.6-16.6c-0.9-1.3-1.6-3.1-2.8-3.8c-1.3-0.8-3,0.6-4.6,0.8c-4.3,0.6-8.7,0.7-13,0.9c-3.3,0.2-6.6,0.3-9.9,1.3
	c-4.5,1.4-8.1,5.4-8.7,10.1c-0.1,1.1,0.2,1.6,0.9,2.3c2.4,2.3,4,5,3.5,8.6c-0.2,1.4-0.7,2.5-1.6,3.7
	C333.2,315.3,331.5,317.9,329.6,320.2z"/>
<path class="st2" d="M312.5,35c-0.6,1.4-1.2,2.7-1.7,4.1c-0.3,0.9-0.7,0.9-1.5,0.6c-7.6-2.5-14.7-6.3-22.3-8.6
	c-2.8-0.8-5.8-0.9-8.7-0.6c-0.9,0.1-2.1,0.1-2.2,1.6c-0.1,0.7-0.9,0.4-1.4,0.4c-4.2,0-8.3-0.7-12.4-1.3c-4.5-0.6-8.8-1.9-13.4-1.9
	c-2.2,0-4.3,0.3-6.3,1.2c-0.7,0.3-1.2,0.2-1.7-0.5c-0.7-1-1.4-1.9-2.2-2.8c-4.2-4.8-9.5-5.9-15.4-4.6c-3.5,0.8-6.9,1.9-10.4,2.7
	c-5.6,1.3-11.3,2.3-16.4-1.7c-0.5-0.4-1-0.4-1.7-0.3c-5.3,1.3-10.3,3.1-15.2,5.5c-5.2,2.6-10.4,5.3-15.4,8.4c-1.1,0.7-2,0.1-2.8-0.4
	c-1.1-0.6-2-1.5-2.8-2.5c-0.6-0.7-1.1-1.4-2.1-1.6c0.1-0.5,0.5-0.6,0.9-0.7c3.8-0.8,7.4-2.3,10.9-3.8c3.4-1.4,6.6-3.4,9.9-5.2
	c5.6-3,11.2-6.1,17.5-7.4c3-0.6,6-1,9.1-0.5c0.6,0.1,1.2,0.2,1.7-0.1c4.3-2.5,9.1-2.3,13.8-1.8c7,0.8,13.9,2.3,20.8,3.2
	c3.6,0.4,7.3,0.1,10.9-0.7c6.1-1.4,12.2-1,18.3,0.2c8.9,1.8,17,5.6,25,9.6c5.5,2.8,11,5.7,16.4,8.6C312.1,34.4,312.4,34.6,312.5,35z
	"/>
<path class="st2" d="M436.8,360.5c-0.8-0.8-1.6-1.5-2.3-2.4c-0.5-0.6-0.4-1.2,0.6-1.2c2.1,0,4.2-0.1,6.3-0.2
	c6-0.4,11.8-1.8,17.6-3.7c8.6-2.9,16.2-7.9,24.1-12.2c5.8-3.2,11.5-6.7,17.7-9.3c2-0.8,4-1.7,6.1-0.4c0.5,0.8-0.3,1.1-0.6,1.5
	c-1.6,2.1-3.2,4.1-4.9,6.3c1.9,0.4,3.6,0.5,5.2,1.3c3.8,1.8,5.3,5.2,5.9,9c0.4,2.5,1.2,4.9,1.4,7.3c0.2,1.8,0.3,3.6,0.4,5.3
	c0.1,0.7-0.5,0.6-0.9,0.6c-0.9,0.1-1.9,0.2-2.8,0.3c-0.6,0.1-1.4,0-1.9,0.3c-2,1.1-4,1.6-6.3,1.2c-0.7-0.1-1.6,0.3-2,1
	c-1.5,2.4-3.9,2.7-6.4,2.8c-1.5,0.1-3,0.1-4,1.5c-0.3,0.4-0.7,0.5-1.1,0.4c-1.8-0.2-3.5,0.3-5.3,0c-1.6-0.2-2.6-1-3.8-2
	c-4.7-3.9-9.1-8.4-15.1-10.3c-2.8-0.9-5.8-1-8.3,1c-0.4,0.3-0.8,0.5-1.3,0.4c-3-0.4-5.8,0.6-8.6,1.3
	C443.1,361.1,439.9,361.7,436.8,360.5z"/>
<path class="st2" d="M72.7,105.8c1.8-0.3,3-1.7,4.6-2.4c1.2-0.6,2.1-0.6,2.2,1.1c0.1,1.2,0.2,2.4,0.5,3.5c0.6,3.3-1.7,5.1-3.3,7.4
	c-4.2,5.7-9.7,10.2-14.4,15.5c-2.1,2.4-4.3,4.8-5.6,7.8c-0.3,0.8-0.3,1.3,0.2,2c2.7,3.7,4.1,8,4,12.5c-0.1,2.7-0.4,5.3-2.1,7.8
	c-1.8,2.7-2.7,5.9-3.9,9c-1.1,2.8-2.1,5.7-3.3,8.5c-0.6,1.5-0.6,2.4,0.9,3.6c4.4,3.4,6.2,8.2,6.3,13.6c0.2,5.8-1.1,11.4-2.3,17
	c-1,5.1-1.8,10.2-1.7,15.4c0,1.6,0.7,3.1,0.6,4.7c-3.9-5.4-6.7-11.2-7.7-17.8c-0.2-1.4-0.6-2.5-1.5-3.5c-0.7-6-0.3-12,0.6-18
	c0.5-3.7,0.7-7.5-0.5-11.2c-0.5-1.5-1.3-2.8-2.1-4.1c-2.2-3.6-2.5-7.3-1.2-11.3c1.1-3.6,3.4-6.5,5.2-9.7c2.5-4.7,5.9-9.2,5.2-15.1
	c-0.2-1.7-0.5-3.5-1.5-4.9c-1.6-2.2-1-4.3-0.4-6.5c2.2-7.9,7.3-13.7,13.5-18.8C67.5,109.6,70.4,108.2,72.7,105.8z"/>
<path class="st3" d="M483,312.3c-2.7,2.2-5.8,3.8-9.2,4.9c-2.8,1-5.4,0.2-8-0.8c-1.4-0.5-2.7-1.2-4.2-1.6c-2.7-0.8-5.3-0.9-7.5,1.3
	c-0.3,0.3-0.6,0.5-1.1,0.4c-2.4-0.6-4.2,0.6-6,2c-1.6,1.3-3.2,2.6-5.5,2.5c-4.4,0-6.8-3.8-5-7.8c0.5-1,0.9-2.1,1.1-3.2
	c0.5-2.6-0.4-4.4-2.8-5.5c-3.5-1.7-6.8-3.6-10.2-5.5c-3.9-2.2-7.6-1.5-11.1,0.8c-1.5,1-3,1.9-5.1,2.3c1.9,1.7,3.7,3.3,5.7,5.1
	c-3.3-0.3-6.2-0.3-8.9,0.9c-4,1.7-7.7,3.9-10.8,7c-0.5,0.5-0.8,0.9-0.7,1.7c0.8,6.1-1,7.8-6.4,10.7c-2.9,1.5-5.8,3.2-6.5,6.5
	c-0.5,2.5-1.9,4.3-3.2,6.3c-1.1,1.8-0.5,3.8-0.9,5.8c-0.2,1.1-0.3,2.3-0.9,3.2c-1.3,2.1-1.1,4.4-0.9,6.6c0.2,2.6-0.1,5.1-1.8,7.2
	c-1.8-2.5-2.4-5.4-2.6-8.4c-0.6-7.5,1.7-14.2,4.6-21c3.3-7.6,7.7-14.5,13.1-20.7c1.6-1.8,3.4-3.5,5.1-5.3c4.4-3.3,9-6.1,14.6-6.5
	c1-0.1,1.3-0.6,0.5-1.4c-1.3-1.5-2.6-3-3.9-4.4c-0.9-0.9-0.6-1.2,0.4-1.8c1.5-0.7,3-0.8,4.5-0.9c4.5-0.3,8.9-0.6,13.4,0.8
	c3.9,1.2,7.7,2.4,11.1,4.6c3.1,2,5.7,4.5,7.7,7.7c1.8,3,4,4.7,7.8,4.5c5.2-0.2,10.3,1,15.4,1.8c3.9,0.5,7.7,0.2,11.5-0.8
	c2.1-0.5,4.1-1.3,6.1-1.9c0.4-0.1,0.9-0.6,1.3-0.1c0.4,0.4,0.1,0.9-0.1,1.3C483.6,311.2,483.3,311.8,483,312.3z M441.2,316.6
	c0.9,0.1,1.7,0.4,2.7,0.1c0.8-0.2,1.1-0.7,1.3-1.3c0.2-0.8-0.6-0.9-1.1-1.2c-0.7-0.4-1,0-1.4,0.6C442.3,315.5,441.8,316,441.2,316.6
	z"/>
<path class="st2" d="M52,248.4c1.2-0.5,1.6,0.7,2,1.3c2.4,3.3,3.7,7.1,4.1,11.1c0.4,4.5,0.7,9,1,13.5c0.1,1.2,0.1,2.4,0.5,3.5
	c0.3,0.7,0.4,1.5,0.2,2.3c-2.1,7.7,0.2,14.3,4.6,20.5c3.3,4.6,7.2,8.9,10.1,13.9c2.8,5,3.7,10.2,2.1,15.8c-0.4,1.6-0.3,3,0.7,4.4
	c5.8,8,11.7,15.8,17,24.1c-3.3-1.2-6.1-3.4-8.8-5.6c-7.4-6-12.9-13.5-17.5-21.8c-1.3-2.3-1.9-4.5-1.5-7.3
	c1.7-10.8-1.9-20.1-9.4-27.7c-3.1-3.2-4.4-6.7-4.8-10.8c-0.9-8.8-0.5-17.7-0.1-26.5C52.4,255.6,52.1,252,52,248.4z"/>
<path class="st3" d="M566.6,334.1c-0.6-2.4-1.4-4.7-1-7.3c0.3-1.9,1-3.7,1.7-5.4c1.6-3.6,3.4-7.2,5.1-10.8c0.5-1.2,1-2.5,1.1-3.7
	c0.1-1.4-0.6-2.6-2-3c-1.7-0.5-3.4-0.7-5.1,0.5c-1.9,1.4-3.4,1.1-4.8-0.7c-4.3-5.1-10.1-7.5-16.1-9.8c-6.7-2.5-13.7-4.5-19.1-9.7
	c-0.9-0.9-2-0.5-3.1-0.5c-3.6,0.1-7.2,1-10.8,1.5c-3.8,0.5-7.6,0.6-11.4-0.4c-3.4-0.9-5.8-3.2-7.5-6.2c0.1-0.7,0.6-0.3,0.8-0.2
	c5,1.9,10.2,1.4,15.4,1.4c3.7,0,7.4-0.5,11.1-0.1c5,0.5,9.4,2.1,13,5.7c0.8,0.8,1.5,1.1,2.8,1.1c2.2-0.1,4.3,0.5,6.4,1.4
	c4.6,1.9,8.7,4.8,12.7,7.7c5.2,3.7,10.7,6.1,17.2,5.9c2.8-0.1,6.7,3.9,6.7,6.7c0,5.4-0.5,10.7-3.6,15.4c-0.8,1.1-1.8,2-2.8,2.7
	c-3.9,2.7-4,4.4-1.2,8.8c0.8,1.2,1.8,2.2,2.4,3.6c1.1,2.4,0.6,3.6-1.8,4.5c-0.5,0.2-1.1,0.3-2,0.6c1.5-3.3-0.2-5.4-2.4-7.4
	C567.5,335.6,567.1,334.8,566.6,334.1z"/>
<path class="st3" d="M396,111.2c-2.5,1.5-3.4,1.4-5.5-0.7c-0.8-0.8-1.7-1.6-2.8-2.2c-1.1-0.7-1.7-1.8-2.3-2.9c-1.9-4-4-7.9-5.7-12
	c-1-2.3-2.6-3.5-4.8-4.4c-7-2.7-11.7-7.9-15.4-14.1c-2.3-3.9-4.5-7.9-5.2-12.5c-0.1-0.9-1-1.2-1.7-1.5c-3.7-1.7-7.6-2.9-11.4-4.3
	c-4.1-1.5-8.4-2.6-12.3-4.7c-0.4-0.2-0.9-0.3-1.2-0.9c3.6-0.3,7-0.1,10.4,0.8c0.9,0.2,1.8,0.7,2.8,0.4c3.9,1.6,7.9,2.9,11.6,5
	c4.8,2.6,9.2,5.7,11.9,10.3c1.5,2.7,3.5,5.4,4.2,8.5c0.2,0.8,0.5,1.3,1.2,1.9c4.8,3.7,9.9,7.1,14.5,11.1
	c6.5,5.6,10.9,12.4,11.4,21.3C395.8,110.5,395.9,110.8,396,111.2z"/>
<path class="st3" d="M374.1,364.7c1.3-0.1,2.5-0.3,3.4,1.2c0.4,0.7,1.3,0.3,2,0.2c-0.1-0.3-0.1-0.4-0.2-0.5c-1.9-2.2-1.9-2.3,1.1-3
	c1.1-0.3,2.2-0.6,3.1-1.3c0.7-0.5,1.8-0.9,1.2-2.3c-0.3-0.6,0.3-1.3,0.8-1.7c2.4-2.5,5.3-4.1,8.7-5c1-0.3,1.8,0.4,2.5,1
	c3.7,3,5.9,7.1,7.4,11.5c0.9,2.6,1.9,5.1,3.3,7.5c0.6,1.1,1.3,1.2,2.4,0.7c6-2.7,11.6-6,16.1-10.9c1.2-1.3,4.1-0.8,5.5,0.8
	c-0.1,0.3,0.1,0.7-0.3,0.9c-3.6,1.8-5.9,5-8.7,7.8c-3.7,3.7-7.8,6.6-13.3,6.7c-0.4,0-0.8,0-1.1-0.3c-4.6-3.8-8.7-8-10.1-14.1
	c-0.2-0.8-0.5-1-1.4-0.7c-2.7,0.8-5.4,1.3-8,2.5c-2.1,1-4.1,2.1-5.3,4.3c-0.5,1-1.5,0.8-2.4,0.7c-1.6-0.3-2.9-1.1-3.9-2.3
	C375.9,367.2,375,366,374.1,364.7z"/>
<path class="st2" d="M109.4,53.3c0.3,1.3,1.4,2.2,1.8,3.4c0.2,0.7,0.5,1.1-0.6,1.3c-7.7,1.1-15.1,3.3-22,6.7
	c-5.1,2.5-9.4,6-11.9,11.3c-0.3,0.6-0.5,1.3-1.5,1.3c-1.1,0-2-0.5-2.5-1.4c-0.4-0.7-0.5-1.5-0.7-2.2c0.1-0.3,0.4-0.7,0.3-1
	c-0.1-4.8,3-7.7,6.3-10.4c3.5-2.9,7.3-5.3,11.1-7.8c4.5-2.9,9.6-4,15-3.6c1.6,0.1,2.8,1.2,4.1,2.1C108.9,53.3,109.1,53.5,109.4,53.3
	L109.4,53.3z"/>
<path class="st3" d="M512.1,327.5c-3.3-2.4-6.3-5.2-8.6-8.7c-0.2-0.2-0.3-0.5-0.6-1c2.5,1.1,4.4,2.6,6.3,4.1
	c2.4,1.9,5.2,3.1,7.9,4.5c0.9,0.4,1.1,0.1,1.4-0.6c1.1-2.7,0.2-5.3-0.6-7.8c-0.2-0.6-0.6-1-0.8-1.6c-0.2-0.4-0.7-0.8-0.2-1.3
	c0.5-0.4,1-0.2,1.5,0.1c1.3,0.7,2.2,1.9,3.1,2.9c1.5,1.5,1.8,1.5,2.4-0.4c0.4-1.2,0.9-1,1.7-0.6c5.2,2.3,10.2,4.8,15.3,7.3
	c4.7,2.3,9.4,4.9,14.4,6.5c1.1,0.4,2.2,0.6,3.4,1.1c-0.4,0.2-0.7,0.4-1,0.6c-7.5,0.5-14-2.6-20.3-6.1c-3.1-1.7-6.2-3.2-9.6-4.1
	c-1.3-0.3-2.1,0-2.6,1.1c-1,2-1.8,4-2.3,6.2c-0.2,0.8-0.4,0.9-1.3,0.9C518,330.5,515,329.1,512.1,327.5z"/>
<path class="st3" d="M155,40.1c1.2,0,2.3,0.4,3.5,0.7c0.8,0.2,1.3,0.7,1.5,1.4c0.2,0.9-0.8,0.8-1.2,1.1c-4.6,3.1-9.2,6.4-14.1,9
	c-3.8,2-7.8,3.7-11.9,5c-1.7,0.5-3.4,0.6-5,1.2c-0.7,0.2-1.1-0.1-1.6-0.4c-2.2-1.2-4-2.9-5.9-4.5c0.1-0.4,0.3-0.6,0.7-0.7
	c7.5-0.6,14.2-3.7,21-6.7c3.1-1.4,6.3-2.7,9.7-3.4C153.4,42.6,154.2,41.4,155,40.1z"/>
<path class="st3" d="M105.9,362.5c-1.3-0.7-2.7-1.4-4.4-2.3c2.5,0.1,4.5,0.9,6.6,1.1c3.1,0.4,6.2,0.9,9.3,1.9c3.1,0.9,6,2.3,8.2,4.8
	c0.2,0.2,0.5,0.5,0.7,0.5c0.4,0,0.4-0.5,0.5-0.8c0.3-1.9-0.4-3.4-1.6-4.8c-1-1.2-2-2.3-3.3-3.8c2.5,0.2,4.2,1.3,5.9,2.2
	c2.1,1.2,4.1,2.7,5.1,5.1c0.1,0.3,0.3,0.7,0.3,1c0,1.2-3.9,5.7-5.1,6.1c-0.6,0.2-1.3,0.2-1.9,0.2c-2.5-1.5-4.5-3.7-7-5.2
	C114.9,366.1,110.5,364.1,105.9,362.5z"/>
<path class="st3" d="M345.1,348.3c-0.1,0-0.1,0-0.2,0c-4,1.9-6.2,0.4-7.1-4.1c-0.7-3.7-0.5-7.3-0.6-11c-0.1-3.9-1-7.4-4.4-9.8
	c-0.4-0.3-0.5-0.5,0.1-0.5c4.9,2.2,8.3,5.8,10.6,10.7c0.5,1,0.7,2,0.6,3.2c-0.2,2.2,0.8,4.2,1.2,6.3c0.2,1.1,0.3,2.1,0.5,3.2
	C345.9,347,345.7,347.7,345.1,348.3z"/>
<path class="st3" d="M484.5,278.4c0.5,1.3,1.6,2.1,2.6,3c1.3,1.2,2.5,2.3,3.5,3.8c1,1.5,1.3,3.2,1.1,4.9c-4.4-3.9-8.3-8.2-10.8-13.8
	c-1.4-3.2-4.4-4.3-7.7-4.6c-3-0.2-6.1,0.1-9.1-0.4c-1.8-0.3-3.3-1.8-3.6-3.5c-0.1-0.7,0.3-0.8,0.8-0.8c3.9-0.1,7.7-0.1,11.5,1.1
	c1.6,0.5,3.1,1,4.7,1.7c1.7,1.6,4,2.3,5.6,4c0.6,0.6,1.1,1,0.7,2.1C483.5,276.8,483.9,277.7,484.5,278.4z"/>
<path class="st2" d="M75.4,83.8c1.7-2.2,3.4-4.4,5.2-6.6c0.8-1,1.5-1.8,3.2-0.8c1.8,1.1,4,0.5,6.1-0.5c0.3,1.7,0.1,3.4,0.1,5
	c0,0.7-0.5,0.7-1,0.8c-2.9,0.4-5,2.1-6.9,4.1c-2.5,2.5-5.2,4.5-9,3.7C73,87.3,74.5,85.7,75.4,83.8z"/>
<path class="st3" d="M276.2,373.9c-2.6-2.3-5.9-3.5-8.8-5.5c-2.6-1.9-5.1-3.9-6-7.7c1.9,0.6,3.4,1.5,4.9,2.4c3.3,2.2,6.6,4.5,10.3,6
	c2,0.8,4.1,0.7,6.2,0.7c2,0,2.1,0.1,1.4,2c-0.1,0.4-0.2,0.8-0.4,1.2C281.5,374.6,278.8,374.1,276.2,373.9z"/>
<path class="st3" d="M175.9,354c-2.8,1.2-3.6,0.9-4.6-2.1c-0.3-0.8-0.5-1.5-0.8-2.3C172.3,351,174.5,352,175.9,354z"/>
<path class="st0" d="M406.8,127.1c-0.4-0.1-0.7-0.3-0.7-0.8C406.5,126.4,406.7,126.7,406.8,127.1z"/>
<path class="st0" d="M406.1,126.3c-0.3,0-0.7,0-0.4-0.5C406,125.8,406.1,126,406.1,126.3z"/>
<path class="st0" d="M109.4,53.3c-0.3,0.1-0.5,0-0.7-0.3C109,53,109.3,53,109.4,53.3z"/>
<path class="st0" d="M405.5,125.6c-0.1,0-0.1,0-0.2,0.1c0-0.1,0-0.1,0.1-0.2C405.4,125.5,405.5,125.6,405.5,125.6z"/>
<path class="st2" d="M256.2,192.5c3.2,3.9,3.4,8.1,2.3,12.6c-1.2,5-4.4,9-5.8,13.8c-1.2,4.3-3,8.2-5.2,12c-1.5,2.5-3.1,5-4,7.8
	c-1,3.2-2.7,6.1-2.9,9.5c-0.2,4.2,0.4,8.3,3,11.9c-3.8-0.5-6.9-3.7-7.7-7.6c-0.9-4.4-0.8-8.7-0.1-13.2c0.8-5.5,2.3-10.8,4.7-15.9
	c2.6-5.5,5.6-10.9,8.5-16.3c2.1-3.9,4.3-7.7,5.7-11.9C254.9,194.4,255.3,193.4,256.2,192.5z"/>
<path class="st3" d="M363.8,204.7c0.1-3.5,0.6-7,1.6-10.4c0.3-1,0.9-1.8,1.8-2.4c2.7-1.8,5.3-3.7,8.1-5.3c2.7-1.6,5.5-3.2,8.8-2.9
	c3,0.3,7.2,3.9,7.8,6.8c0.2,0.9,0,1.2-0.9,1.1c-3.7,0-7.4,0-11.1,0.3c-3,0.2-5.9,0.8-8.6,2.2c-0.8,0.4-1.5,0.9-1.4,1.9
	c0.1,3.5-0.6,7-1.4,10.4c-1.8,7.4,1.2,10.5,8.1,12.5c1.4,0.4,2.8,0.9,4.1,1.7c0.8,0.5,1.4,1.4,1.2,2.2c-0.2,0.7-1.2,0.8-2,0.8
	c-6,0.2-9.9-3.2-13-7.8C364.6,212.6,363.6,208.7,363.8,204.7z"/>
<path class="st3" d="M416,246.7c-0.6-0.2-1.1-0.3-2.1-0.5c2.8-1.8,5.7-2.8,8.6-3.3c2.7-0.4,5.5-0.9,8.3,0.1c2.1,0.8,3.9,1.7,5.1,3.6
	c0.1,0.2,0.3,0.4,0.4,0.6c2.6,2.5,2.8,3.4-0.4,6.4c-1,0.9-1.2,1.4,0.2,2.1c1.6,0.7,1.4,1.4-0.1,2.4c-2.8,1.8-5.5,3.8-8.2,5.7
	c-2.8,2-5.9,3-9.3,2.6c-2.2-0.3-4-1.8-5-3.8l0.1-0.1c0.2,0.1,0.5,0.1,0.7,0.3c0.8,0.5,1.8,1.1,2.5,0.2c0.7-1-0.5-1.4-1-1.9
	c-2.2-2.6-3-5.7-3.6-9c-0.1-0.5,0.3-0.6,0.7-0.6c1.2,2.8,3,5.3,5,7.6c0.6,0.6,1.1,2.6,2.5,0.7c0.1-0.1,0.6-0.1,0.9,0
	c1.1,0.1,2.1-0.2,3-0.9c-0.4-0.5-1.6-1-0.7-1.8c1.4-1.2,0.1-1.2-0.5-1.6c-0.4-0.2-1.1,0-1.5-0.7c1.8-1.6,3.6-3.2,5.9-4.2
	c1.6-0.7,3.1-0.6,4.5,0.6c0.3,0.3,0.6,0.8,1.2,0.4c1.2-0.8,1.5-2.5,0.6-3.6c-1.6-1.9-3.8-2.8-6.2-2.6
	C423.7,245.5,419.9,246.2,416,246.7z"/>
<path class="st3" d="M118.4,178.7c-0.9-5.1,0.3-11.3-1-17.3c-0.2-0.9-0.2-1.7,1.2-1.9c1.5-0.2,2.5-1.3,3.7-2.1
	c1.1-0.7,1.8-0.9,2.5,0.8c2.2,5.6,1.4,11.2,0.3,16.9c-0.7,3.7-1.6,7.5-1.6,11.3c0,0.3,0,0.8-0.1,0.9c-1.9,1-1.2,2.7-1.3,4.3
	c0,0.5-0.2,1-0.7,1.1c-0.7,0.2-0.9-0.5-1-1C118.9,187.8,118.3,183.8,118.4,178.7z"/>
<path class="st3" d="M241.5,192.2c5.4-3.1,7.2-8.5,9.5-13.5c1.6-3.3,3.2-6.6,6.8-8.2c3.5-1.5,7.1-1.3,10.6,0.2
	c0.9,0.4,0.9,0.6,1.4,2c-2.5-0.5-4.6,0-6.5,1.6c-1.7,1.5-3.3,3.1-4.4,5.2c-0.3,0.5-0.5,1.2-0.4,1.7c0.4,1.9-0.6,2.6-2.3,3
	c-3,0.8-4.1,3.7-6,5.6c-1.2,1.2-2.1,2.6-1.8,4.5c0.1,1.1-0.6,1.2-1.5,1C244.9,194.8,243.5,193.3,241.5,192.2z"/>
<path class="st3" d="M492.3,301.5c0,0.2,0,0.3,0,0.5c-3.3,0.5-5.9,2.6-8.9,3.5c-0.8,0.3-1.6,0.7-2.4,0.8c-2.1,0.4-3.9,0.7-5.5-1.5
	c-1.3-1.9-2.7-3.8-3.4-6c-0.5-1.4-0.2-2.6,0.9-3.6c2.7-2.3,5.7-3.9,9-5.2c3.4-1.3,5.8-0.2,8.1,2.3c0.8,0.9,0.9,1.4-0.3,2
	c-1.9,0.9-3.8,1.6-5.9,1.9c-2.4,0.4-4.5,1.4-6,3.9c2.9-0.2,5.5,0.8,8.2,0.1c1.1-0.3,1.9-0.7,2.6-1.4c0.6-0.7,1-0.5,1.4,0.1
	C490.8,299.7,491.5,300.6,492.3,301.5z"/>
<path class="st4" d="M416,246.7c3.9-0.5,7.7-1.1,11.6-1.4c2.4-0.2,4.5,0.7,6.2,2.6c0.9,1.1,0.6,2.8-0.6,3.6
	c-0.6,0.4-0.9-0.1-1.2-0.4c-1.4-1.2-2.9-1.3-4.5-0.6c-2.3,1-4,2.7-5.9,4.2c0.4,0.7,1.1,0.4,1.5,0.7c0.6,0.3,1.9,0.4,0.5,1.6
	c-0.9,0.8,0.3,1.2,0.7,1.8c-0.9,0.7-1.9,0.9-3,0.9c-0.3,0-0.8-0.1-0.9,0c-1.4,1.9-1.9,0-2.5-0.7c-2-2.3-3.7-4.8-5-7.6
	C413.7,249.6,414.6,248,416,246.7z"/>
<path class="st3" d="M275,103.5c2.5-0.5,4.7,0,6.8,0.3c3.9,0.4,7.7,0.2,11.6,0.5c4.2,0.3,8.4,1,11.9,3.3c2.3,1.6,4.8,3.4,6.2,6.2
	c0.4,0.8,0.5,1.2-0.8,1.1c-3-0.2-5.4-1.8-8-2.9c-1.7-0.8-3.4-2-5.3-0.3c-0.2,0.2-0.5,0.1-0.8-0.1c-5-2.9-10.5-4-16-5.5
	C278.6,105.6,276.8,105,275,103.5z"/>
<path class="st2" d="M112.7,149.2c-0.4-4.6,1.6-8.7,3.5-12.8c0.5-1,1.2-1.3,2.3-0.5c1.2,0.9,1.9,2.2,2.5,3.4
	c0.8,1.8,1.3,3.7,2.7,5.2c0.3,0.4,0.3,0.7-0.1,1.1c-2,1.8-2.9,4.3-4.2,6.6c-0.9,1.6-1.9,3.3-4.1,3.6c-0.8,0.1-1.2,0-1.5-0.7
	C112.7,153.3,112.5,151.4,112.7,149.2z"/>
<path class="st3" d="M299.5,366.6c2,0.8,3.9,1.7,5.7,2.9c3.4,2.3,3.6,5.5,1,8.5c-0.5,0.6-1,0.5-1.6,0.3c-2.3-0.5-4.4-1.3-6.5-2.4
	c-5-2.6-8.9-6.5-13.6-9.7c1.7-0.5,3.6,0,6.2,1.3c2.2,1.2,4.1,2.7,6.2,3.8c2.2,1.1,4.4,1.2,6.8,0.8
	C302.4,370.1,300.3,368.8,299.5,366.6L299.5,366.6z"/>
<path class="st3" d="M382.8,212.1c-2.8-1.8-5.4-3.8-7.1-6.5c-0.5-0.8-1.5-1.5-1-2.5c0.5-0.8,1.6-0.5,2.5-0.6
	c1.4-0.1,2.8,0.1,4.2-0.6c0.7-0.4,1.4-0.8,1.7-1.5c0.4-1.3,1.1-1.2,2.1-0.7c2.4,1.2,4.8,2.4,7,3.9c1.3,0.9,1.3,2.2,0.7,3.3
	c-0.5,1-1.4,1.5-2.7,1c-1.5-0.5-2.8-1.4-4.1-2.1c-1.3-0.8-2.5-0.5-3.7,0.3c-1.2,0.8-0.7,1.9-0.4,2.9
	C382.2,210,382.5,211,382.8,212.1z"/>
<path class="st3" d="M124.8,118.8c-5.1,2.9-7.8,7.5-10.3,12.3c-0.3,0.6-0.5,1.1-1.3,0.8c-1.7-0.5-3.4-1.1-5-1.9
	c-1.3-0.7-1.4-1.7-0.4-2.6c2.8-2.7,5.4-5.5,8.4-8C118.7,117.4,121.7,117.3,124.8,118.8z"/>
<path class="st3" d="M305.8,96.7c2,0.5,3.4,1.3,4.8,2c2,1.1,4.1,1.8,6.5,1.7c3.3-0.2,6,1.4,8.6,3c0,0,0.1,0.1,0.1,0.1
	c0.6,0.8,1.7,1.8,1.1,2.8c-0.6,1-2,0.6-3,0.3c-0.9-0.3-1.7-0.7-2.5-1.3c-1.1-0.8-2.3-1.1-3.7-0.5c-1.3,0.6-2.6,0-3.8-0.5
	C310.6,102.7,307.9,100.3,305.8,96.7z"/>
<path class="st3" d="M290.8,70.7c8-1.9,15.5,2.2,24.5,11.1c-2.9-0.4-5.4-1.4-7.7-2.7c-4-2.1-7.5-5.2-11.7-6.9
	C294.2,71.6,292.5,71.2,290.8,70.7z"/>
<path class="st4" d="M469.3,263.9c-1.6-0.5-2.6-1.6-3.7-2.8c1.4-0.6,2.2-1.6,2.7-2.8c0.7-1.8,1.9-2.8,3.7-3.6
	c1.5-0.7,2.7-0.5,3.8,0.4c1.2,0.9,2,2.3,1.8,3.9c-0.1,1.5-1.8,2.4-3.2,2c-1.1-0.3-2.2-0.9-3.5-1.4c0.2,1.4,0.5,2.7,0.7,4
	C470.9,264,470,263.6,469.3,263.9z"/>
<path class="st3" d="M339,89.7c2.7-0.2,4.7,0.6,6.7,1.7c3.3,1.9,2.7,8.6,0.3,10.4c-1.4,1-2,1-2.7-0.6c-0.8-1.7-0.9-3.5-1.1-5.4
	C342,93.5,341.7,91.2,339,89.7z"/>
<path class="st3" d="M329.7,363.9c3.8,0,8.8,3.9,9.6,7.2c0.2,0.8-1.2,4-2,4.3c-0.9,0.4-1.6,0.1-2.2-0.7c-0.9-1.2-1.3-2.6-1.8-3.9
	C332.4,368.5,331.6,365.9,329.7,363.9z"/>
<path class="st3" d="M318.3,364.9c2.5,0.9,5,1.7,7,3.5c1.5,1.4,2.1,3.2,1.8,5.2c-0.2,1.3-1.4,2-2.6,1.5c-1.1-0.4-2-1-2.6-2
	C320.3,370.6,319.4,367.7,318.3,364.9z"/>
<path class="st3" d="M145.2,357.7c3.1-0.2,5.5,0.5,7.4,2.2c1.6,1.3,2.4,3.1,2.1,5.2c-0.1,1,0.1,2.2-1.2,2.5
	c-1.2,0.3-2.4-0.1-3.2-1.2c-1-1.4-1.4-3.1-2.1-4.7C147.6,360.3,147,358.8,145.2,357.7z"/>
<path class="st3" d="M156.6,355.1c3.7,2.4,7.2,4.3,9.6,7.4c0.5,0.6,1.5,1.3,0.5,2.4c-1.6,1.5-3.3,2-4.2,0.9
	C160.2,362.7,157.4,359.7,156.6,355.1z"/>
<path class="st3" d="M164.4,353.9c3.7,1.2,7,2.3,9.1,5.4c0.6,0.9,1.2,1.9-0.1,2.8c-1.1,0.8-2.1,2.4-3.7,0.7
	c-0.5-0.5-1.1-0.9-1.5-1.5C167,358.9,165.8,356.6,164.4,353.9z"/>
<path class="st3" d="M120.2,220.2c2,0.8,3.9,1.2,5.8,1.8c0.6,0.2,1.3,0.7,1.7,1.2c1.2,1.2,1,2-0.7,2.5c-1.4,0.5-2.6,1.5-3.9,2.1
	c-0.4,0.2-0.7,0.4-1.1,0.5c-1.3,0.3-2,0.2-1.9-1.5C120.3,224.6,120.2,222.5,120.2,220.2z"/>
<path class="st3" d="M420.9,186.4c4.6,0.2,9,4.7,10,9.2c0.2,0.9-0.2,1.1-1.1,1.1c-1.7,0-2.9-0.9-3.8-2.1
	C424.2,192,422.6,189.2,420.9,186.4z"/>
<path class="st3" d="M246.1,168.6c-0.6,0-0.8,0-0.9,0c-0.6-0.1-1.4,0.2-1.5-0.5c-0.1-0.5,0.7-0.7,1.1-1c2.4-1.4,4.7-2.7,7-4.2
	c1.5-0.9,3-1.4,4.7-1.5c0.6,0,1.3,0.1,1.5,0.7c0.2,0.6-0.5,0.7-0.8,1.1C254.1,166.6,250.3,168.3,246.1,168.6z"/>
<path class="st3" d="M431.4,231.9c2.2-0.2,4.5,0.2,6.4,2.2c0.9,1,0.8,2.5,2,3.3c0.3,0.2,0.1,0.5-0.2,0.8c-1.1,1.1-3.1,0.7-3.6-0.8
	c-0.6-1.8-2.1-2.3-3.7-2.6c-1.7-0.3-3.4-0.5-5.1-0.8c-0.6-0.1-1.4-0.5-1.4-1.2c0-0.9,0.9-0.4,1.4-0.6
	C428.4,231.8,429.7,231.9,431.4,231.9z"/>
<path class="st3" d="M396,188.5c2.6,1.1,4.9,2.7,6.5,4.9c1.2,1.7,1,3.2-0.7,4.5c-1.2,1-2.6,1.8-4.4,2.9
	C398.9,196.3,398.2,192.3,396,188.5z"/>
<path class="st3" d="M406,187.6c6.1-0.9,11.9,2.9,13.5,8.3c0.1,0.2,0.1,0.5,0,0.6c-0.3,0.3-0.7,0.2-1,0.1c-1.4-0.6-2.8-1.3-4-2.4
	c-1.6-1.6-3.1-3.3-4.9-4.7C408.7,188.8,407.6,188.3,406,187.6z"/>
<path class="st3" d="M136.7,361c3.7,0.7,7,2.3,9.3,5.4c0.3,0.4,0.5,0.9,0.7,1.4c0.2,0.6,0.3,1.3-0.1,1.7c-0.5,0.5-1.1-0.1-1.6-0.4
	C141.4,367.3,138.9,364.3,136.7,361z"/>
<path class="st3" d="M308.9,365c2.6,1.1,4.9,2.4,6.9,4.2c1.2,1.1,1.6,2.6,1.6,4.2c0,1.2-0.6,1.1-1.4,0.7c-2.4-1.3-4-3.4-5.4-5.6
	C310,367.4,309.5,366.2,308.9,365z"/>
<path class="st3" d="M135.9,103.6c-3,1.7-5.8,3.6-9.4,3.3c-0.5,0-1.1,0.1-1.3-0.4c-0.2-0.6,0.4-0.9,0.8-1.3
	C128.3,103.1,133.3,102.3,135.9,103.6z"/>
<path class="st3" d="M477.5,242.4c-2.4-0.8-4.8-0.6-7-1.1c-0.6-0.1-1.2-0.3-1.5-0.8c-0.4-0.6-0.9-1.4-0.4-2.1
	c0.4-0.7,1.1,0.1,1.6,0.2c1.3,0.3,2.7,0.6,4,0.7C476,239.3,477.1,240.3,477.5,242.4z"/>
<path class="st3" d="M341.2,368.6c1.9,1.1,3.4,2.3,4.7,3.7c0.9,1,0.9,2.1,0.3,3.1c-0.5,0.8-2.7,0.1-3.3-1
	C341.9,372.7,341.5,370.9,341.2,368.6z"/>
<path class="st3" d="M332.7,96c2,0.6,3.4,1.4,4.5,2.6c0.7,0.7,1,1.6,0,2.2c-1,0.6-2.1,0.6-2.7-0.5C333.9,99,333.4,97.7,332.7,96z"/>
<path class="st3" d="M413.7,262.5c-0.1-0.1-0.1-0.1-0.2-0.2C413.6,262.3,413.6,262.4,413.7,262.5
	C413.7,262.4,413.7,262.5,413.7,262.5z"/>
<path class="st3" d="M299.5,366.6c-0.1,0-0.1-0.1-0.2-0.1c0,0,0.1,0,0.1,0C299.4,366.5,299.4,366.6,299.5,366.6
	C299.5,366.6,299.5,366.6,299.5,366.6z"/>
<path class="st3" d="M440,343.5c-2.6-0.2-5,0-7.3-0.9c-0.9-0.4-0.9-0.7-0.5-1.4c1.1-2.2,0.9-3.2-0.7-5c-1.2-1.4-1.9-3-2.3-4.8
	c-0.4-1.7-0.9-3.4-2-4.9c-1.2-1.6-2.8-1.7-4.6-1.7c-4.2,0-8.4,0.5-12.6-0.3c-1-0.2-2.1-0.6-2.7-1.6c0.1-0.1,0.2-0.2,0.3-0.2
	c1,0,2.4,0.4,2.8-0.6c0.4-1-1.3-1.3-1.6-2.5c4.8,0.5,9.6,1,14.2,2.3c2.6,0.7,5.2,1.4,7.5,2.8c3.2,1.9,5.3,4.6,6.1,8.5
	C437.1,336.7,438.2,340.1,440,343.5z"/>
<path class="st3" d="M476.1,324.4c-2.1,1.6-3.3,3.8-3.9,6.4c-0.9,3.5-4.2,5.9-7.9,6.1c-2.5,0.1-5,0.5-7.4,0.9
	c-3.1,0.5-6.3-1.2-7.4-4c-0.2-0.4-0.3-0.8,0-1.2c0.1-0.1,0.6-0.1,0.8,0c4.3,2,8.5,1,12.7-0.3c1.4-0.4,2.9-0.8,4.3-1.2
	c2.5-0.6,4.8-2.9,5.1-5c0.2-1.2,0-1.9-1.3-2.3c-2.7-0.8-5.4-1.2-8.3-1.1c-3.5,0.2-6.9,0.8-10.5,0.9
	C457.4,320.1,471.7,318.1,476.1,324.4z"/>
<path class="st3" d="M428.6,346.1c-0.8,1.9-2,2.7-3.9,3.2c-3.2,0.7-5,3.2-6.3,6.1c-1.5,3.4-3,6.7-4.9,9.9c-0.8,1.4-1.9,0.9-2.9,0.9
	c-0.6,0-0.4-0.6-0.3-1c1.4-6.4,4.3-12,9.5-16.1C422.2,347.1,425.1,345.8,428.6,346.1z"/>
<path class="st3" d="M395.8,332.2c2.2,0.2,4.4,0.1,6.1,2c0.7,0.8,0.9,1.3,0.2,2.2c-1.7,2-4.1,2.5-6.4,3.1c-1,0.3-1.5-1-2.2-1.6
	c-0.6-0.5-1.8-1.2-0.4-2.2c0.1-0.1,0.1-0.4,0.1-0.7c0-0.6-1-0.9-0.6-1.7C392.7,333.1,395.1,332.2,395.8,332.2z"/>
<path class="st3" d="M568.6,311.8c-4.1-1.5-8.2-1-12.1-1.9c-1.4-0.3-2.6-1-3.5-2.2C557.3,305.8,565.7,307.9,568.6,311.8z"/>
<path class="st3" d="M562.1,325.7c-2.5,1.2-4.2,0.3-5.9-0.8c-1.1-0.8-2.2-1.6-3.3-2.4c-1.1-0.7-2.4-1.2-3.7-1.6
	c2-0.7,3.8-0.2,5.5,0.8C557,323.2,558.9,325.2,562.1,325.7z"/>
<path class="st3" d="M563.3,318.2c-2,0.7-3.4-0.1-4.8-1.1c-1.7-1.2-3.2-2.6-5.5-3C556.1,312.9,560.1,314.5,563.3,318.2z"/>
<path class="st4" d="M441.2,316.6c0.5-0.6,1.1-1.2,1.5-1.8c0.4-0.6,0.8-1,1.4-0.6c0.4,0.3,1.3,0.4,1.1,1.2c-0.2,0.6-0.5,1.1-1.3,1.3
	C443,317,442.1,316.7,441.2,316.6z"/>
</svg>
