<?xml version="1.0" encoding="utf-8"?>
<!-- Generator: Adobe Illustrator 19.1.0, SVG Export Plug-In . SVG Version: 6.00 Build 0)  -->
<svg version="1.0" id="Layer_1" xmlns="http://www.w3.org/2000/svg" xmlns:xlink="http://www.w3.org/1999/xlink" x="0px" y="0px"
	 viewBox="0 0 612 792" style="enable-background:new 0 0 612 792;" xml:space="preserve">
<style type="text/css">
	.st0{fill:#F69C9E;}
	.st1{fill:#FFFFFF;}
</style>
<path d="M376.2,601.3c0.9,3,1.8,5.6,2.3,8.3c2.2,13-3.1,22.9-13.1,30.7c-10.3,8-22.4,12-35,14.5c-27.3,5.3-54.4,3.6-81.4-1.9
	c-22.2-4.5-43.4-11.7-63-23.2c-10-5.9-19.3-12.8-26.6-22c-3.8-4.8-7.2-9.8-8.7-15.8c-0.3-1-1.3-2.3-2.2-2.5
	c-26.4-5.9-45-22.2-58.4-45c-8.2-14-12.6-29.3-11.4-45.7c1.4-19.7,9.9-34.8,29.1-42.4c0.4-0.2,0.7-0.4,0.9-0.5
	c-3.7-4.6-7.6-8.9-10.8-13.7c-7.3-10.9-11.1-23.1-12.6-36c-2.9-25.1,1.9-48.8,14.2-70.9c9.6-17.2,22.6-31.3,41.3-38.6
	c21.1-8.3,40.4-4.7,57,11.1c0.5,0.5,1,1,1.6,1.5c0.1,0.1,0.3,0.1,0.6,0.2c9.7-16.3,24-27.1,41.3-34.3c14.4-6.1,29.5-9.3,45-10.8
	c0.8-0.1,1.5-0.2,3-0.4c-2.9-1.6-5.2-2.8-7.4-4.2c-22.6-13.6-36-33.7-41.4-59.3c-1.7-8.1-2.8-16.4-1.8-24.7
	c1.3-9.7,6.7-16.5,15.9-19.7c9.3-3.3,17.9-1.3,24.9,5.7c5.1,5,7.4,11.5,7.1,18.8c-0.4,9.8,2,19,7.9,27c6.5,8.9,15.5,13.9,26,16.4
	c7.3,1.7,14.7,2.4,22,4c21.4,4.6,42,11.4,60.3,23.9c8.1,5.6,15.3,12.2,20,21c9.3,17.4,7.7,34.3-2.9,50.5c-2,3-4.3,5.8-6.8,9.1
	c1.4-0.1,2.5-0.2,3.6-0.3c21.6-2.5,38.2,6.1,50.5,23.5c8.6,12.1,12.8,25.9,14.2,40.5c2.3,24.4-2.8,47.3-14.6,68.6
	c-2.9,5.2-6.4,9.9-9.8,15.2c1.1,1,2.4,2.2,3.7,3.4c15.7,13.7,25.5,30.7,26.6,51.7c1.3,23.8-8.8,42.4-27.7,56.2
	c-17,12.4-36.3,17-57.1,15.4c-8-0.6-15.9-2.9-23.8-4.4C377.9,601.7,377.3,601.5,376.2,601.3z M171.1,441.4c-1.2-0.6-1.6-0.8-2-0.9
	c-17.7-7.7-27.6-21.2-30-40.2c-1.2-9.9,1.5-19.3,3.6-28.9c1.6-7.3,3.4-14.6,3.8-22c0.5-9.3-4.3-15.4-13-18.7
	c-1.6-0.6-3.4-1.3-2.6-3.4c0.7-2,2.5-1.7,4.2-1.1c8.4,2.9,13.8,8.6,15.6,17.4c1.4,6.7,0.3,13.2-1.2,19.7c-2.1,9-4.4,18.1-5.7,27.2
	c-2.7,19.4,9.4,38.6,27.7,45.8c16,6.3,45.6,0.2,57.7-10c5.5-4.7,11.7-8.7,18.2-12c9.9-5,20.4-1.4,25.9,8.2c2.7,4.8,3.3,10,2.8,15.3
	c-0.8,8.8-4.1,16.8-7.6,24.7c-5.4,12.1-9.4,24.6-8.8,38c0.9,18.4,9.6,31.7,26.9,38.9c9.5,4,19.5,4.3,29.6,2.9
	c15.9-2.1,29.6-8.7,40.8-20.2c12.9-13.2,20.6-29.4,26-46.8c4.3-13.9,6.7-28.1,8-42.6c1.4-15.6,1-31.1-3.1-46.3
	c-4.8-17.9-12.9-34-26.1-47.3c-8.3-8.4-18.1-14.2-29.8-16.7c-6.9-1.5-13.7-1.2-20.7-0.9c-12.3,0.6-24.4-0.7-35.9-5.4
	c-3.8-1.6-7.6-1.6-11.5-0.8c-6.4,1.3-10.7,5.4-14.6,10.3c-0.6,0.8-2.5,1.2-3.4,0.9c-1.6-0.7-1.1-2.3-0.3-3.5
	c4.1-5.9,9.3-10.2,16.4-11.9c0.8-0.2,1.5-0.4,2.8-0.7c-1.4-1.1-2.4-1.9-3.4-2.6c-6.9-5.6-12.3-12.3-15.3-20.8
	c-0.5-1.5-0.7-3,1.2-3.6c1.8-0.6,2.5,0.6,3.2,2.1c1.1,2.6,2.2,5.2,3.6,7.6c7.7,12.7,20,18.3,33.7,21.7c9.8,2.4,19.9,2,29.9,1.6
	c19-0.7,34.9,6.3,48.1,19.6c2.5,2.5,5.3,4,8.5,4.4c4,0.5,8,0.8,12,0.5c5.5-0.5,11.2-1.5,15.6-5.2c6.9-5.9,12.8-12.7,17-20.8
	c7.6-14.4,7.6-31.7-3.4-45.7c-5.6-7.1-12.3-12.9-20-17.5c-18.2-11-38.1-17.2-58.9-20.9c-7.9-1.4-15.9-2.1-23.4-4.9
	c-11.4-4.3-20.6-11.2-26.1-22.3c-3.9-7.8-5.4-16.2-5.1-24.9c0.3-8.4-3.5-14.6-10.9-18.3c-12.4-6.2-27.4,2.7-27.8,16.5
	c-0.7,25.2,6.9,47.4,24.8,65.6c13.8,14.1,31.1,21.7,50.4,24.8c13.5,2.1,26.9,4.6,39.7,9.7c8.2,3.2,16.2,6.7,23.2,12.1
	c1.2,0.9,2.2,2.2,3.2,3.3c-0.2,0.2-0.3,0.3-0.5,0.5c-8.7-7.2-18.6-12.4-29.2-16.3c-20-7.3-40.6-9.8-61.8-8.8
	c-20.1,1-39.3,5.2-57.3,14.5c-11.8,6.1-22,14.1-29.3,25.5c-6,9.4-2.8,19,3.7,25.2c5.8,5.5,12.7,9.1,19.9,12.2
	c15.5,6.5,31.8,10.5,48.1,14.5c14.7,3.7,27.9,9.7,38.5,20.8c12,12.6,18.7,27.5,19.4,44.9c0.6,14.9-4.2,28.5-11.2,41.4
	c-1.3,2.3-2.6,4.6-3.4,7.1c-3.5,9.7-0.9,16.1,8.3,20.7c1.5,0.7,2.6,1.6,1.9,3.3c-0.7,1.7-2.2,1.6-3.7,1c-6.2-2.6-10.7-6.9-12.3-13.6
	c-0.3-1.2-0.4-2.4-0.5-3.7c-0.4,0.1-0.6,0.1-0.7,0.2c-0.6,0.6-1.1,1.2-1.7,1.8c-7.9,8.4-17.2,14.6-28.5,17.3c-2,0.5-4.1,0.8-6.2,0.8
	c-0.8,0-2.1-1.1-2.2-1.8c-0.1-0.7,0.8-1.9,1.6-2.4c0.7-0.5,1.7-0.4,2.6-0.6c5.8-0.9,11.3-2.9,16.3-6c13.5-8.2,22-20.5,28.4-34.4
	c5-11,8.1-22.7,6.4-34.8c-3.8-27.4-18.8-46-45.2-54.8c-5.3-1.8-10.8-3.1-16.3-4.6c-1.6-0.4-3.2-0.6-4.8-0.5
	c-9.5,0.1-18.9,1.6-28,4.3c-13.8,4-26.4,9.9-35.3,21.9c-0.5,0.7-1.1,1.6-1.9,1.9c-1,0.4-2.3,0.4-3.4,0.5c-0.1-1.1-0.7-2.6-0.2-3.4
	c1.1-1.9,2.7-3.6,4.2-5.4c7.8-9.1,11.7-19.7,10.7-31.7c-0.5-6-2-11.7-6.5-16.4c-4.3-4.6-6-10.3-5.8-16.6c0-1.1-0.2-2.5-0.8-3.3
	c-9-10.4-20.1-16.7-34-17.4c-13-0.6-24.6,3.8-34.9,11.4c-16.9,12.4-27.6,29.3-34,49c-7.4,22.9-8.5,46,0.3,68.8
	c4.9,12.7,11.6,24.3,25.4,29.7c5.5,2.2,11,4.1,17,2.8c3.8-0.8,7.4-2.3,10.4-4.9C154.3,448,161.9,443.8,171.1,441.4z M367.6,517.9
	c-0.3,0.2-0.6,0.2-0.7,0.4c-6.3,8-13.7,14.8-22.6,20c-0.7,0.4-1.1,1.9-1,2.7c2.4,15.4,8,29.5,18.3,41.4c6.6,7.7,14.3,14.1,24.4,16.7
	c11.9,3,23.8,3.7,36,1.7c14.8-2.5,28.2-7.7,39.6-17.6c12.2-10.6,19.4-23.9,20.8-40.1c1.3-15.1-2.8-28.8-11.3-41
	c-4.9-7.1-9.8-14.5-17.8-18.8c-0.4,0.3-0.8,0.5-1.2,0.8c-11.9,10.4-26,13.3-41.3,11.9c-1.8-0.2-4.1-0.3-3.8-2.9
	c0.3-2.7,2.6-1.8,4.3-1.8c4.4,0,8.9,0.2,13.3-0.3c15.1-1.7,25.8-10.1,33.8-22.4c7.8-11.9,13.2-24.7,16-38.6
	c4.6-22.9,3.6-45.1-7.8-66.1c-6.7-12.4-16.3-21.7-30.1-25.8c-15.7-4.6-25-1.9-33.7,8.3c-9.6,11.2-12.7,24.8-10.2,39.2
	c1.9,11.2,4.1,22.4,3.7,33.9c-0.5,16.9-2.6,33.6-6.9,50c-0.2,0.6-0.2,1.3-0.2,2.2c14.2-2.9,25.3-9.6,31.8-22.6
	c5.7-11.3,6.6-23.4,5.2-35.7c-1.1-9.2-1.3-18.3,1-27.4c1.6-6.3,4.5-12,9.6-16.2c5.7-4.6,12.5-5.7,19.6-4.7c3.4,0.5,5,1.5,4.5,3.5
	c-0.7,3.2-3.2,2-5.1,1.7c-10.3-1.6-19,3.1-22.7,12.8c-3.1,8-4,16.5-2.7,25c2.1,14.1,1.7,27.9-4.2,41c-7.1,16-20,24.4-37,27.2
	c-0.8,0.1-1.8,1.1-2.1,1.8c-3.8,11.7-8.6,22.8-15.2,33.2c-0.6,0.9-0.7,2.5-0.3,3.5c2.3,5,4.4,10,7.3,14.6
	c9.8,15.6,23.4,19.9,40.1,12.4c6.5-2.9,12.3-7.4,18.4-11.2c1.6-1,3.4-2.6,5-0.5c1.7,2.3-0.7,3.3-2.2,4.3c-4.2,3-8.4,5.9-12.7,8.9
	c0.4,0.2,0.6,0.4,0.9,0.5c10.8,2.5,15.7,11.2,16.6,20.3c0.2,1.7,0.1,3.6-2.1,3.7c-2,0.2-2.4-1.5-2.6-3.1
	c-1.2-12.1-10.3-19.9-25.1-16.3c-7.2,1.7-14.2,2.5-21.2,0c-9-3.2-15.1-9.7-19.8-17.6C371.9,526.6,369.8,522.2,367.6,517.9z
	 M305.3,586.1c0.8,0.6,1.6,1.1,2.3,1.6c7.8,6.7,13,15.1,17,24.4c0.7,1.5,1,3.1-1,3.9c-1.9,0.7-2.7-0.6-3.4-2.2
	c-1.3-3.1-2.4-6.4-4.2-9.1c-4.7-7.1-10.6-13.2-17.5-18.2c-15.2-10.9-32.5-16.9-50.5-21.4c-15.1-3.8-30.4-5.9-45.8-7
	c-9-0.7-17.9-0.4-26.8,2c-18.4,5-24.9,27.7-14.6,41.3c5.7,7.6,12.5,14,20.3,19.3c16,10.8,33.6,18.2,52.1,23.3
	c29,8,58.4,11.4,88.4,7.4c13.7-1.8,27-5.3,38.7-13.2c8.9-6,15-14,13.9-25.5c-0.8-8.2-4.7-15.3-10.6-21
	c-12.7-12.2-20.3-27.2-23.9-44.2c-0.4-1.9-0.7-3.8-1.1-6c-1.1,0.4-1.9,0.7-2.6,1c-17.1,6.6-34.3,8-52,1.8c-14.5-5.1-28.4-4-40.6,6.4
	c-2.3,1.9-4.2,4.4-6.6,7c2.2,0.5,3.5,0.7,4.8,1c18,3.8,35.5,9.1,51.4,18.6c4.1,2.4,8.1,3.3,12.6,3.4c9.3,0.1,18-4.7,19.2-14.8
	c0.1-0.8,1.5-1.4,2.3-2.1c0.7,0.9,1.5,1.8,2.1,2.8c0.2,0.3,0,0.9-0.1,1.3c-1.3,7-5,12.4-11.7,15.1
	C313.7,584.2,309.8,584.9,305.3,586.1z M195.1,498.6c-2.9-2.4-6.1-4.3-8.3-7.1c-6-7.5-8.4-16.4-8.1-26c0-1.5,0.6-2.7,2.4-2.7
	c1.8,0,2.3,1.2,2.4,2.7c0.2,2.9,0.2,5.8,0.7,8.7c1.2,7.2,3.7,13.7,10.2,17.9c3,1.9,6.5,3.8,10,2.7c15.9-4.8,32.2-5.6,48.7-4.6
	c1.8,0.1,2.6-0.4,2.8-2.3c1.3-9.4,4.5-18.2,8.2-26.8c2.2-5.2,4.3-10.5,5.9-15.8c1.9-6,2.6-12.1,0.1-18.2c-3.4-8.1-11.6-12-19.7-8.5
	c-4.5,1.9-9.2,4.4-12.8,7.6c-11.9,10.5-25.9,15.7-41.4,17.4c-6.4,0.7-12.9,0.7-19.2,1.6c-14.4,1.8-25.1,9.9-34.4,20.5
	c-7,8-9.7,17.4-9.2,27.5c0.5,11.9,4.7,22.7,11.7,32.5c7.9,11.1,17.6,20.4,28.5,28.3c0.9,0.7,2.5,0.8,3.7,0.7
	c4.1-0.4,8.1-1.4,12.2-1.5c13.2-0.5,26.4,1.1,39.4,3.1c1.9,0.3,3.1-0.1,4.3-1.8c6.2-8.4,14.2-14.3,24.5-16.6
	c4.1-0.9,8.4-1.1,12.5-1.7c-2.2-2.5-4.6-4.9-6.6-7.6c-6.5-9-9-19.2-8.9-30.1c0-2.3-0.6-3.4-3-3.4c-5.3,0-10.6-0.5-15.8-0.3
	c-12.8,0.3-25.5,2-37.2,7.7c-10.5,5-18.5,12.3-20.2,24.6c-0.3,2-2.4,3-3.5,1.7c-0.7-0.8-1.1-2.3-0.9-3.4c1.7-11,8.2-18.6,17.3-24.3
	C192.6,500,194,499.2,195.1,498.6z M137.7,463.7c-7.7,0.7-14.6-1.4-21.3-4.5c-0.9-0.4-2.2-0.3-3.2,0c-4.1,1.7-8.5,3-12.1,5.4
	c-12.6,8.5-17.7,21.2-18.1,35.8c-1,33.6,23.9,69.7,55.7,81c3.9,1.4,7.9,2.3,12.3,3.6c1-13.1,7.1-22.4,18.5-27.7
	c-0.3-0.6-0.4-0.8-0.5-0.9c-0.5-0.4-1-0.8-1.5-1.2c-10.5-8.1-19.9-17.4-27.2-28.5c-8.5-12.9-13.3-26.9-10.9-42.6
	C130.4,476.8,132.8,469.9,137.7,463.7z M250.1,358.5c-11.5-4.5-23.5-9.3-35-13.8c0.1,3.9,0.7,8.5,0.3,13c-0.4,4.6-1.8,9-2.7,13.7
	C224.4,364.1,237.3,360.3,250.1,358.5z M398.4,343.9c-7.9,2.7-15.8,3.4-23.8,2.1c4.7,8.6,9.3,17.1,13.9,25.7
	C389.9,361.8,392.5,352.4,398.4,343.9z"/>
<path class="st0" d="M171.1,441.4c-9.2,2.4-16.8,6.6-23.4,12.3c-3.1,2.7-6.6,4.1-10.4,4.9c-6,1.3-11.5-0.7-17-2.8
	c-13.8-5.4-20.5-17-25.4-29.7c-8.8-22.8-7.7-45.9-0.3-68.8c6.4-19.7,17.1-36.6,34-49c10.3-7.6,21.9-12,34.9-11.4
	c13.9,0.7,25.1,6.9,34,17.4c0.7,0.8,0.8,2.2,0.8,3.3c-0.2,6.3,1.5,12,5.8,16.6c4.4,4.7,6,10.4,6.5,16.4c1,12-2.9,22.6-10.7,31.7
	c-1.5,1.7-3.1,3.4-4.2,5.4c-0.5,0.8,0.1,2.2,0.2,3.4c1.1-0.1,2.4-0.1,3.4-0.5c0.8-0.3,1.3-1.2,1.9-1.9c8.9-11.9,21.6-17.8,35.3-21.9
	c9.1-2.7,18.5-4.2,28-4.3c1.6,0,3.3,0.1,4.8,0.5c5.5,1.4,11,2.8,16.3,4.6c26.4,8.9,41.4,27.5,45.2,54.8c1.7,12.1-1.3,23.8-6.4,34.8
	c-6.4,14-14.9,26.3-28.4,34.4c-5.1,3.1-10.5,5-16.3,6c-0.9,0.1-2,0.1-2.6,0.6c-0.8,0.6-1.7,1.7-1.6,2.4c0.1,0.7,1.4,1.8,2.2,1.8
	c2.1,0,4.2-0.4,6.2-0.8c11.4-2.7,20.6-8.9,28.5-17.3c0.6-0.6,1.1-1.2,1.7-1.8c0.1-0.1,0.3-0.1,0.7-0.2c0.2,1.2,0.3,2.5,0.5,3.7
	c1.6,6.8,6.1,11,12.3,13.6c1.5,0.6,3,0.7,3.7-1c0.7-1.7-0.4-2.6-1.9-3.3c-9.2-4.6-11.8-10.9-8.3-20.7c0.9-2.5,2.2-4.8,3.4-7.1
	c7-12.9,11.7-26.5,11.2-41.4c-0.7-17.4-7.4-32.3-19.4-44.9c-10.6-11.1-23.8-17.2-38.5-20.8c-16.3-4-32.6-8-48.1-14.5
	c-7.3-3-14.1-6.7-19.9-12.2c-6.5-6.2-9.7-15.8-3.7-25.2c7.3-11.5,17.4-19.5,29.3-25.5c18-9.2,37.2-13.4,57.3-14.5
	c21.2-1.1,41.8,1.5,61.8,8.8c10.6,3.9,20.5,9,29.2,16.3c0.2-0.2,0.3-0.3,0.5-0.5c-1.1-1.1-2-2.4-3.2-3.3c-7-5.5-15-8.9-23.2-12.1
	c-12.8-5-26.2-7.5-39.7-9.7c-19.2-3-36.6-10.7-50.4-24.8c-17.8-18.2-25.5-40.4-24.8-65.6c0.4-13.8,15.5-22.7,27.8-16.5
	c7.3,3.7,11.2,9.9,10.9,18.3c-0.3,8.7,1.2,17,5.1,24.9c5.6,11.1,14.7,18,26.1,22.3c7.6,2.9,15.6,3.5,23.4,4.9
	c20.7,3.7,40.7,10,58.9,20.9c7.7,4.6,14.5,10.4,20,17.5c11,14,11,31.3,3.4,45.7c-4.3,8.1-10.1,14.9-17,20.8
	c-4.4,3.7-10,4.7-15.6,5.2c-4,0.3-8,0-12-0.5c-3.2-0.4-6-1.9-8.5-4.4c-13.2-13.3-29.1-20.3-48.1-19.6c-10,0.4-20.1,0.8-29.9-1.6
	c-13.7-3.4-26-9-33.7-21.7c-1.4-2.4-2.5-5-3.6-7.6c-0.6-1.5-1.4-2.7-3.2-2.1c-1.9,0.6-1.7,2.2-1.2,3.6c3,8.5,8.4,15.2,15.3,20.8
	c1,0.8,2,1.5,3.4,2.6c-1.3,0.3-2,0.5-2.8,0.7c-7.1,1.8-12.3,6-16.4,11.9c-0.8,1.2-1.3,2.8,0.3,3.5c0.9,0.4,2.8-0.1,3.4-0.9
	c3.9-4.9,8.3-9,14.6-10.3c3.9-0.8,7.7-0.7,11.5,0.8c11.5,4.7,23.6,6,35.9,5.4c6.9-0.3,13.8-0.6,20.7,0.9
	c11.7,2.5,21.5,8.2,29.8,16.7c13.2,13.3,21.2,29.4,26.1,47.3c4.1,15.2,4.6,30.7,3.1,46.3c-1.3,14.5-3.7,28.7-8,42.6
	c-5.4,17.4-13.1,33.6-26,46.8c-11.2,11.5-24.9,18.1-40.8,20.2c-10.1,1.3-20,1.1-29.6-2.9c-17.2-7.2-26-20.5-26.9-38.9
	c-0.6-13.4,3.3-25.9,8.8-38c3.6-7.9,6.8-15.9,7.6-24.7c0.5-5.4,0-10.6-2.8-15.3c-5.5-9.5-15.9-13.2-25.9-8.2
	c-6.4,3.2-12.7,7.3-18.2,12c-12.1,10.2-41.7,16.3-57.7,10c-18.2-7.2-30.4-26.4-27.7-45.8c1.3-9.2,3.6-18.2,5.7-27.2
	c1.5-6.5,2.5-13.1,1.2-19.7c-1.8-8.8-7.2-14.5-15.6-17.4c-1.6-0.6-3.4-0.9-4.2,1.1c-0.8,2.1,1,2.8,2.6,3.4c8.8,3.3,13.6,9.3,13,18.7
	c-0.4,7.4-2.2,14.7-3.8,22c-2.1,9.5-4.8,19-3.6,28.9c2.4,19,12.3,32.5,30,40.2C169.5,440.6,169.9,440.8,171.1,441.4z"/>
<path class="st0" d="M367.6,517.9c2.3,4.3,4.3,8.6,6.8,12.7c4.8,7.9,10.9,14.4,19.8,17.6c7.1,2.5,14.1,1.8,21.2,0
	c14.7-3.6,23.9,4.2,25.1,16.3c0.2,1.7,0.6,3.3,2.6,3.1c2.3-0.2,2.3-2,2.1-3.7c-1-9.1-5.9-17.8-16.6-20.3c-0.2-0.1-0.5-0.2-0.9-0.5
	c4.3-3,8.5-5.9,12.7-8.9c1.5-1.1,3.9-2,2.2-4.3c-1.6-2.1-3.3-0.5-5,0.5c-6.1,3.8-11.9,8.2-18.4,11.2c-16.8,7.6-30.3,3.3-40.1-12.4
	c-2.9-4.6-5-9.7-7.3-14.6c-0.4-0.9-0.3-2.6,0.3-3.5c6.6-10.4,11.4-21.5,15.2-33.2c0.3-0.8,1.3-1.7,2.1-1.8c17-2.8,29.9-11.2,37-27.2
	c5.9-13.2,6.2-27,4.2-41c-1.2-8.5-0.4-16.9,2.7-25c3.7-9.7,12.4-14.4,22.7-12.8c2,0.3,4.4,1.4,5.1-1.7c0.5-2-1.1-3-4.5-3.5
	c-7.2-1-13.9,0.1-19.6,4.7c-5.1,4.2-8,9.9-9.6,16.2c-2.3,9-2.1,18.1-1,27.4c1.5,12.3,0.5,24.4-5.2,35.7c-6.5,13-17.6,19.7-31.8,22.6
	c0.1-0.8,0.1-1.5,0.2-2.2c4.3-16.4,6.4-33.1,6.9-50c0.3-11.5-1.8-22.6-3.7-33.9c-2.5-14.4,0.7-28,10.2-39.2
	c8.7-10.2,18-12.9,33.7-8.3c13.8,4.1,23.4,13.4,30.1,25.8c11.4,21,12.4,43.2,7.8,66.1c-2.8,13.9-8.3,26.7-16,38.6
	c-8.1,12.3-18.8,20.8-33.8,22.4c-4.4,0.5-8.9,0.3-13.3,0.3c-1.8,0-4-0.9-4.3,1.8c-0.3,2.6,2,2.7,3.8,2.9
	c15.3,1.5,29.4-1.5,41.3-11.9c0.3-0.3,0.7-0.5,1.2-0.8c8,4.3,12.9,11.7,17.8,18.8c8.5,12.3,12.6,26,11.3,41
	c-1.4,16.2-8.6,29.5-20.8,40.1c-11.4,9.9-24.9,15.1-39.6,17.6c-12.2,2-24.1,1.3-36-1.7c-10.1-2.6-17.8-9-24.4-16.7
	c-10.3-11.9-15.8-26-18.3-41.4c-0.1-0.9,0.3-2.3,1-2.7c8.9-5.1,16.2-12,22.6-20C367,518.2,367.3,518.1,367.6,517.9z"/>
<path class="st0" d="M305.3,586.1c4.5-1.2,8.4-1.8,12-3.3c6.6-2.7,10.3-8.1,11.7-15.1c0.1-0.4,0.3-1,0.1-1.3c-0.6-1-1.4-1.8-2.1-2.8
	c-0.8,0.7-2.3,1.3-2.3,2.1c-1.2,10.1-9.9,14.9-19.2,14.8c-4.6-0.1-8.6-0.9-12.6-3.4c-15.9-9.5-33.4-14.8-51.4-18.6
	c-1.3-0.3-2.6-0.6-4.8-1c2.5-2.6,4.4-5,6.6-7c12.2-10.4,26.1-11.5,40.6-6.4c17.7,6.3,34.9,4.8,52-1.8c0.7-0.3,1.5-0.6,2.6-1
	c0.4,2.2,0.7,4.1,1.1,6c3.7,17.1,11.2,32,23.9,44.2c6,5.7,9.8,12.8,10.6,21c1.1,11.5-5,19.5-13.9,25.5c-11.6,7.9-25,11.4-38.7,13.2
	c-30,4-59.4,0.6-88.4-7.4c-18.5-5.1-36.1-12.5-52.1-23.3c-7.8-5.3-14.5-11.7-20.3-19.3c-10.3-13.6-3.8-36.3,14.6-41.3
	c8.9-2.4,17.8-2.7,26.8-2c15.5,1.2,30.8,3.2,45.8,7c17.9,4.5,35.2,10.6,50.5,21.4c7,5,12.8,11.1,17.5,18.2c1.8,2.7,2.9,6,4.2,9.1
	c0.7,1.6,1.5,2.9,3.4,2.2c2-0.7,1.7-2.4,1-3.9c-4-9.3-9.3-17.7-17-24.4C306.9,587.1,306.1,586.6,305.3,586.1z"/>
<path class="st0" d="M195.1,498.6c-1.1,0.6-2.4,1.4-3.8,2.3c-9.1,5.7-15.6,13.4-17.3,24.3c-0.2,1.1,0.2,2.6,0.9,3.4
	c1.2,1.3,3.3,0.3,3.5-1.7c1.7-12.4,9.7-19.6,20.2-24.6c11.7-5.6,24.3-7.3,37.2-7.7c5.3-0.1,10.6,0.3,15.8,0.3c2.4,0,3.1,1.1,3,3.4
	c-0.1,10.9,2.4,21.1,8.9,30.1c2,2.8,4.5,5.2,6.6,7.6c-4.1,0.5-8.4,0.8-12.5,1.7c-10.3,2.3-18.4,8.2-24.5,16.6
	c-1.2,1.7-2.4,2.1-4.3,1.8c-13.1-2-26.2-3.6-39.4-3.1c-4.1,0.2-8.1,1.1-12.2,1.5c-1.2,0.1-2.8,0-3.7-0.7
	c-11-7.9-20.6-17.3-28.5-28.3c-7-9.8-11.1-20.6-11.7-32.5c-0.4-10.2,2.2-19.5,9.2-27.5c9.3-10.6,20-18.6,34.4-20.5
	c6.4-0.8,12.8-0.8,19.2-1.6c15.5-1.7,29.4-6.9,41.4-17.4c3.7-3.2,8.3-5.7,12.8-7.6c8.1-3.4,16.3,0.4,19.7,8.5
	c2.5,6.1,1.7,12.2-0.1,18.2c-1.7,5.4-3.7,10.7-5.9,15.8c-3.8,8.6-6.9,17.4-8.2,26.8c-0.3,1.9-1,2.4-2.8,2.3
	c-16.5-1-32.7-0.2-48.7,4.6c-3.5,1.1-7-0.8-10-2.7c-6.5-4.2-9-10.7-10.2-17.9c-0.5-2.9-0.5-5.8-0.7-8.7c-0.1-1.5-0.5-2.7-2.4-2.7
	c-1.8,0-2.3,1.2-2.4,2.7c-0.3,9.6,2.1,18.5,8.1,26C189,494.2,192.2,496.2,195.1,498.6z"/>
<path class="st0" d="M137.7,463.7c-4.9,6.2-7.2,13.1-8.4,20.5c-2.5,15.7,2.3,29.7,10.9,42.6c7.3,11.1,16.7,20.4,27.2,28.5
	c0.5,0.4,1,0.8,1.5,1.2c0.1,0.1,0.2,0.3,0.5,0.9c-11.4,5.4-17.4,14.6-18.5,27.7c-4.3-1.3-8.4-2.2-12.3-3.6
	c-31.7-11.3-56.6-47.4-55.7-81c0.4-14.6,5.5-27.3,18.1-35.8c3.6-2.4,8-3.8,12.1-5.4c0.9-0.4,2.3-0.4,3.2,0
	C123.1,462.3,130,464.4,137.7,463.7z"/>
<path class="st1" d="M250.1,358.5c-12.8,1.9-25.7,5.7-37.4,12.8c1-4.7,2.3-9.1,2.7-13.7c0.4-4.5-0.2-9-0.3-13
	C226.6,349.2,238.6,353.9,250.1,358.5z"/>
<path class="st1" d="M398.4,343.9c-5.9,8.5-8.6,18-9.8,27.8c-4.7-8.6-9.3-17.1-13.9-25.7C382.6,347.3,390.6,346.6,398.4,343.9z"/>
</svg>
