<?xml version="1.0" encoding="utf-8"?>
<!-- Generator: Adobe Illustrator 19.1.0, SVG Export Plug-In . SVG Version: 6.00 Build 0)  -->
<svg version="1.1" id="Layer_2" xmlns="http://www.w3.org/2000/svg" xmlns:xlink="http://www.w3.org/1999/xlink" x="0px" y="0px"
	 viewBox="0 0 500 500" style="enable-background:new 0 0 500 500;" xml:space="preserve">
<style type="text/css">
	.st0{fill:#DC8C6B;stroke:#000000;stroke-width:4;stroke-miterlimit:10;}
	.st1{fill:#BC775E;}
</style>
<path class="st0" d="M244.3,76.5c0,0-14.4,84.7,32.2,111s-17.2,112.7-17.2,112.7s-20.4,35-64.7,16.1C163.8,303.1,112,278,80.7,302
	c-2.7,2.1-29.3,16.8-29.3,95.5H97l6.9-42.6c2.2-13.4,16.1-21.5,28.7-16.6c7.4,2.9,15.7,8,23.8,17.2c0,0,68.7,100.4,174.9,61.7
	c30.8-11.2,57.3-31.9,76.4-58.5c56.1-78.3,66.6-170.2-14.2-225.2c-5.3-3.6-33.6-14.5-66.1,4.5c-51,29.9-41.4-61.5-41.4-61.5H244.3z"
	/>
<path class="st0" d="M97,397.5c0,12.1-10.7,15.8-22.8,15.8s-22.8-3.7-22.8-15.8s10.7-15.3,22.8-15.3S97,385.4,97,397.5z"/>
<path class="st0" d="M286,76.5c0,12.1-11.6,12.8-23.7,12.8s-18-0.7-18-12.8s7.2-15.1,19.3-15.1C275.7,61.4,286,64.4,286,76.5z"/>
<path class="st1" d="M69.9,413c0,0.2,0,0.3,0,0.5c-1.3-0.1-2.6-0.3-3.9-0.5H69.9z"/>
<path class="st1" d="M69.9,413c0,0.2,0,0.3,0,0.5c-1.3-0.1-2.6-0.3-3.9-0.5H69.9z"/>
<path class="st1" d="M258.9,92c0,1-0.1,1.8-0.2,2.6C258.8,93,258.9,92,258.9,92z"/>
</svg>
