<?xml version="1.0" encoding="utf-8"?>
<!-- Generator: Adobe Illustrator 19.1.0, SVG Export Plug-In . SVG Version: 6.00 Build 0)  -->
<svg version="1.0" id="Layer_1" xmlns="http://www.w3.org/2000/svg" xmlns:xlink="http://www.w3.org/1999/xlink" x="0px" y="0px"
	 viewBox="0 0 640.3 389.4" style="enable-background:new 0 0 640.3 389.4;" xml:space="preserve">
<style type="text/css">
	.st0{fill:#386B37;}
	.st1{fill:#F3ECD6;}
	.st2{fill:#2D2B29;}
	.st3{fill:#D4D3D2;}
	.st4{fill:#C5DD99;}
	.st5{fill:#EDEEEE;}
	.st6{fill:#448D42;}
	.st7{fill:#FEFEFE;}
	.st8{fill:#294E28;}
	.st9{fill:#1EA44C;}
	.st10{fill:#3BBBE5;}
	.st11{fill:#A2DCF7;}
	.st12{fill:#99BE48;}
	.st13{fill:#B5712A;}
	.st14{fill:#85401D;}
	.st15{fill:none;}
	.st16{font-family:'ComicSansMS';}
	.st17{font-size:11.6586px;}
	.st18{fill:none;stroke:#000000;stroke-miterlimit:10;}
</style>
<path class="st0" d="M378.5,320c-4.5,1.7-9.1,3.3-13.8,4.2c-5.3,1-10.5,1.9-15.9,2.4c-5.6,0.6-11.2,0.9-16.8,1c-3.1,0-6.2,0-9.2-0.3
	c-0.7-0.1-1.4-0.1-2.1-0.1c-6.3-0.2-12.4-1.3-18.5-2.7c-7-1.6-13.6-4-19.8-7.7c-3.3-2-6.1-4.4-8.5-7.4c-1.1-1.4-2-2.9-2.6-4.6
	c-0.8-2.7-0.7-5.4,0.5-8c0.3-0.6,0.5-1.1,0.8-1.7c0.2-0.1,0.2-0.2,0.3-0.4c2-2.3,3.9-4.6,5-7.5c-1.7,2.4-3.6,4.6-5.5,6.8
	c-0.1,0.1-0.2,0.2-0.3,0.3c-2,1.2-3.9,2.4-6.2,2.8c-1.2,0.2-2.4,0.3-3.7,0.1c-3.5-0.6-6.8-1.8-9.7-3.8c-4.6-3.2-8.7-6.8-11.9-11.4
	c-0.4-0.6-0.8-1.1-1.2-1.7c-7.4-11.8-14.6-23.8-20.2-36.6c-1.4-3.1-2.5-6.3-3.8-9.5c0.9,0,1.8,0,2.7,0c-0.3,1.1,0.2,2.1,0.6,3.1
	c1.2,2.9,2.4,5.9,3.8,8.7c2.6,5.3,5.1,10.6,8.1,15.7c1.9,3.2,3.7,6.4,5.6,9.5c2,3.2,3.8,6.5,6,9.6c1.6,2.1,3.1,4.2,5.1,6
	c1.8,1.6,3.6,3,5.5,4.5c2.7,2.1,5.8,3.4,9.1,4c1.3,0.2,2.7,0.3,3.9,0c3.1-0.9,5.8-2.5,7.8-5.1c1.3-1.8,2.5-3.6,3.7-5.5
	c1.5-2.4,3.2-4.6,4.8-6.9c1.6-2.4,2.6-5,3-7.8c0.5-3.4-0.5-6.5-2.3-9.3c-1.3-2.1-2.8-4-4.6-5.8c-2.7-2.6-5.1-5.5-7.5-8.5
	c-2.4-3-4.1-6.5-5.8-10c-0.3-0.7-0.3-1.4-0.4-2c0.6,0,1.2-0.1,1.8-0.1c1.7,5.5,4.9,10,8.6,14.3c2,2.3,4.2,4.5,6.2,6.8
	c1.7,1.9,3.1,4,4.3,6.3c0.8,1.5,1.3,3.1,1.4,4.8c0.3,3.1-0.2,6.1-1.3,9c-0.5,0.5-0.7,1-0.7,1.8c0.6-0.3,1.1-0.6,1.3-1.2
	c3.9-3.1,8.4-4.3,13.3-3.6c2.6,0.4,5.2,1,7.7,1.7c5.1,1.4,10.1,3.1,15.1,4.5c6.3,1.9,12.8,2.3,19.3,1.4c7.2-0.9,13.8-3.8,20.4-6.7
	c0.3,0.6,0.3,1.3,0.3,1.9c-0.3,0.2-0.6,0.4-0.9,0.5c-2.6,0.8-5,2-7.6,3c-4.8,1.9-9.7,3-14.8,3.4c-5.1,0.5-10.2-0.1-15.2-1.2
	c-2.6-0.6-5.2-1.4-7.8-2.2c-4.9-1.5-9.7-3.2-14.7-4.2c-3.2-0.6-5.5-0.6-8.8,0.1c-1.3,0.3-2.5,0.8-3.6,1.6c-3.1,2.1-5.4,5-7.2,8.3
	c-2.1,3.8-4.3,7.4-6.9,10.9c-2.9,3.7-2.6,8.4-0.2,11.8c2,2.9,4.6,5.1,7.4,7c2.4,1.7,5.1,3.1,7.9,4.2c5.7,2.4,11.5,4.2,17.6,5.1
	c3.8,0.6,7.6,1.5,11.4,1.5c0.3,0,0.7,0,1,0.1c1,0.4,2.1,0.3,3.1,0.3c6,0,12,0,18,0c0.6,0,1.3,0.1,1.8-0.1c2.2-0.7,4.6-0.2,6.8-0.9
	c2.1,0.2,4.2-0.3,6.3-0.7c4.7-0.7,9.3-1.6,13.9-2.9c2.7-0.8,5.4-1.6,7.9-2.9C378.2,318.5,378.5,319.2,378.5,320z"/>
<path class="st1" d="M435,197.1c0.3,1.4,0.3,1.4,1.3,1.5c1.2,0.1,2.4-0.4,3.5,0.4c-3.8,0.2-7.6,0-11.3,0c-1.8,0-3.7,0-5.5,0.2
	c-4.2,0.5-7.8,2.2-10.5,5.5c-1.7,2.1-3,4.5-3.7,7.2c-0.7,2.5-1.3,4.9-1.8,7.4c-0.7,3.5-1.5,6.9-2.6,10.2c-1.1,3.3-2.6,6.5-4.7,9.4
	c-2.3,3.2-4.7,6.4-7.4,9.3c-0.8-1.1-1.7-2.2-1.8-3.6c1.9-3.1,3.3-6.4,4.8-9.7c4.8-10.7,8.3-21.8,10-33.5c1.1-8,1-16-0.4-23.9
	c-2.2-12.6-6.6-24.4-13.2-35.4c-2.3-3.9-5.1-7.6-7.8-11.2c0-0.2,0-0.4,0-0.7c2.7,2.4,5.4,4.8,7.8,7.5c6.9,7.6,11.6,16.3,13.9,26.3
	c1.2,5.1,2.4,10.3,3.7,15.4c0.9,3.6,2.2,7,4.1,10.2c2.1,3.6,5.2,5.9,9.2,7c2.9,0.8,5.9,1,8.9,0.7C432.5,197.2,433.7,197.2,435,197.1
	z"/>
<path class="st0" d="M435,197.1c-1.2,0.1-2.5,0.1-3.7,0.2c-3,0.3-6,0.1-8.9-0.7c-4-1.1-7-3.4-9.2-7c-1.9-3.2-3.2-6.6-4.1-10.2
	c-1.3-5.1-2.5-10.2-3.7-15.4c-2.3-10-7-18.7-13.9-26.3c-2.4-2.7-5.2-5-7.8-7.5c-0.6-0.9-1.4-1.5-2.4-1.9c-0.9-0.9-1.8-1.8-2.8-2.7
	c-0.4-0.4-0.8-0.9-0.9-1.5c-0.8-0.4-1-1.3-1.9-1.6c-0.9-1.5-1.9-2.9-2.8-4.4c-2.5-4.1-3.1-8.5-2-13.2c0.2-0.8,0.4-1.7,0.6-2.5
	c2-3.9,3.8-8,5.2-12.2c0.5-1,1.1-2,1.6-3c0.2-0.4,0-0.6-0.4-0.7l0,0.1c0.2,0.2,0.4,0.5,0.6,0.2c0.4-0.4,0.8-0.9,1.2-1.4
	c2.6-3.2,6-4.8,10.1-4.8c4.1-0.1,8,0.8,11.7,2.6c8.1,3.8,15.2,9.2,21.1,16c2.2,2.5,4.2,5.1,6.2,7.9c6.2,8.7,11.8,17.7,16.7,27.2
	c2.5,5,4.9,10.1,6.8,15.4c0.8,2.3,1.6,4.7,2.4,7c1.8,5,2.8,10.2,3.5,15.4c0.5,4.4,0.4,8.8-0.4,13.1c-0.5,2.5-1.5,4.9-3,7
	c-2.1,3-5.1,4.5-8.7,4.7c-1,0.1-2.1,0.1-3.2-0.1C440.2,196.4,437.6,196.6,435,197.1z M440.6,194.9
	C440.6,194.9,440.6,194.9,440.6,194.9c1.8,0,3.5,0.1,5.3,0c3-0.3,5.6-1.3,7.3-4c1.8-2.9,3-5.9,2.9-9.4c0-1.1,0-2.3,0.4-3.4
	c0.2-0.6,0.2-1.3,0.1-1.8c-0.8-2.4-0.4-4.9-0.9-7.3c-0.6-2.9-1.1-5.9-1.9-8.7c-2.2-7.3-4.9-14.5-8.2-21.4c-1.7-3.6-3.6-7.1-5.5-10.5
	c-2-3.7-4.2-7.3-6.5-10.8c-2.3-3.5-4.7-7-7.1-10.5c-2.5-3.7-5.8-6.8-8.6-10.3c-0.2-0.2-0.4-0.4-0.6-0.5c-0.9-0.5-1.5-1.2-2.2-1.9
	c-1.5-1.2-3-2.5-4.5-3.6c-2.8-2.1-5.9-3.8-9.1-5.4c-2-1-4-1.8-6.2-2.3c-1.4-0.3-2.7-0.6-4.1-0.7c-2.9-0.2-5.6,0.5-7.9,2.3
	c-1.8,1.4-3.4,3.1-4.2,5.3c-0.4,1-0.8,1.9-1.2,2.9c-1.1,2.5-2,5.1-3.2,7.5c-1.4,3-2.3,6.1-2,9.4c0.1,1,0,2.1,0.3,3.1
	c1,3.3,2.7,6.3,5.1,8.8c2.9,2.9,5.7,5.7,8.7,8.4c3.8,3.4,7.4,7,10.3,11.2c3.1,4.4,5.9,9,7.7,14c2.2,5.9,3.3,12,4.8,18
	c1.2,5,2.4,10.1,5,14.6c1,1.7,2,3.2,3.7,4.4c2.9,2,6.1,3,9.7,3c2.1,0,4.2,0.2,6.3-0.4c0.5-0.2,1-0.1,1.6-0.1
	C437.4,194.9,439,194.9,440.6,194.9z"/>
<path class="st0" d="M392.2,248.2c2.7-2.9,5.1-6,7.4-9.3c2-2.9,3.5-6.1,4.7-9.4c1.1-3.3,2-6.7,2.6-10.2c0.5-2.5,1.1-5,1.8-7.4
	c0.7-2.7,2-5.1,3.7-7.2c2.7-3.3,6.3-5,10.5-5.5c1.8-0.2,3.7-0.2,5.5-0.2c3.8,0,7.6,0.2,11.3,0c1.6,0.2,3.1,0.3,4.7,0.7
	c4.4,1.2,7.7,3.7,9.4,8.1c1,2.5,1.6,5.1,1.7,7.9c0.2,7.5-1.4,14.7-4.3,21.5c-3.5,8.2-7,16.3-11,24.2c-3.2,6.3-6.7,12.3-10.7,18.1
	c-2.6,3.7-5.8,6.9-9.3,9.6c-1.1,0.8-2.2,1.7-3.7,2c-0.7-0.2-0.6-0.9-0.7-1.5c2.2-1.2,4.1-2.8,6-4.3c1.4-1.2,2.8-2.5,3.9-3.9
	c4-5.2,7.4-10.7,10.4-16.5c3.7-7.2,7.3-14.4,10.5-21.9c2-4.6,4-9.2,5.4-14c0.9-3,1.6-6.1,1.5-9.3c-0.1-1.9,0-3.9,0-5.8
	c0-0.8-0.2-1.6-0.3-2.3c-0.4-2-1.4-3.8-2.3-5.6c-0.7-1.2-1.7-2.2-3-2.9c-2.9-1.6-6-2.4-9.3-2.4c-4.1,0-8.3,0-12.4,0
	c-2.1,0-4,0.4-5.9,1c-3.1,1-5.6,2.8-7.4,5.6c-1.3,2-2,4.3-2.6,6.6c-1.1,4.4-2,8.9-3.2,13.3c-1.2,4.5-2.9,8.9-5.7,12.7
	c-2.5,3.5-5,7-8.1,10C392.7,249.4,392.4,248.8,392.2,248.2z"/>
<path class="st2" d="M362.2,275c-0.1-0.6,0-1.3-0.3-1.9c-0.1-0.2-0.2-0.3-0.3-0.5c0-0.7-0.4-1.2-0.6-1.7c-0.4-2.2-1.3-4.2-2.1-6.2
	c-0.2-0.7-0.4-1.4-0.6-2c-3.6-10-7.2-20-10.8-30c-0.9-2.4-1.5-4.9-2.7-7.1c-0.2-0.6-0.3-1.2-0.5-1.7c-0.7-2.2-1.5-4.4-2.3-6.6
	c-0.5-1.1-1-2.2-1.5-3.3c0-0.7-0.2-1.4-0.4-2c-0.9-2.4-1.7-4.8-2.6-7.2c-0.3-0.7-0.5-1.5-0.8-2.2c-0.4-1-1.4-0.5-2-0.9
	c-1.3-0.8-1.9-2.3-1.4-3.6c0.5-1.4,2-2.2,3.4-1.9c1.4,0.3,2.4,1.6,2.3,3.1c0,0.7-0.3,1.4-0.8,1.9c-0.4,0.4-0.4,0.9-0.2,1.5
	c0.9,2.5,1.8,4.9,2.7,7.4c0.2,0.4,0.5,0.4,0.9,0.3c0,0.6,0,1.2,0.1,1.8c0,0.5,0.4,0.7,0.9,0.8c-0.1,0.5-0.1,1.1-0.2,1.6
	c-0.3,0.5-0.1,0.8,0.3,1c0.3,0.9,0.7,1.8,1,2.6c0.7,1.8,1.3,3.5,2,5.3c1,3.6,2.3,7.1,3.8,10.6c0.6,1.6,1.1,3.3,1.7,4.9
	c1.1,3,2.1,6.1,3.2,9.1c1.9,5.4,3.9,10.8,5.9,16.2c0.7,1.9,1.3,3.8,2,5.7c0.3,0.7,0.5,1.5,0.8,2.2c0.1,0.1,0.2,0.3,0.3,0.4
	c0.2,0.9,0.3,1.8,0.9,2.6c0.5,1.4,0.8,3,1.7,4.3c-0.1,0.9,0.3,1.7,0.6,2.5c2.7,7.7,5.5,15.3,8.2,23c0.9,2.5,1.8,4.9,2.7,7.4
	c0.7,1.7,0.8,3.7,2.1,5.1c0,0.6,0,1.1,0.5,1.5c-0.1,0.6,0.1,1.2,0.3,1.8c3.3,9.2,6.6,18.3,9.8,27.5c0.5,1.4,0.5,1.4,2.1,1.4
	c7.7,0,15.5,0,23.2,0c1.1,0,2.1,0,3.2,0.1c0,0.4,0.1,0.9-0.6,1c-0.4,0-0.9,0-1.3,0c-8.3,0-16.7,0-25,0c-0.7,0-1.4-0.1-2.1-0.2
	c-1.6-4.7-3.3-9.4-4.9-14.1c-1.7-4.8-3.5-9.7-5.2-14.5c-0.3-0.7-0.4-1.5-0.9-2.1c0-0.8-0.3-1.4-0.8-2c-0.3-1.6-0.8-3.2-1.6-4.7
	c-0.2-0.6-0.3-1.2-0.5-1.8c-3.5-9.8-7-19.7-10.6-29.5c-0.2-0.6-0.5-1.1-0.8-1.6C363.8,278.5,363.5,276.6,362.2,275z"/>
<path class="st0" d="M213.1,198.6c0-0.1,0-0.2,0-0.3c-3.6-8.5-3.4-17.3-2.3-26.2c1-8,3.9-15.5,6.7-23c2.5-6.7,5.4-13.2,8.6-19.5
	c2.1-4.2,4.3-8.3,6.8-12.2c3.5-5.6,7.2-11,11.6-16c2.9-3.3,6-6.4,9.5-9.1c0.7-0.5,1.3-1.1,1.9-1.6c-0.3-0.6-0.7-0.5-1-0.5
	c-10.8,0-21.6,0-32.5,0c-0.3,0-0.5,0.1-0.8,0.1c0.1,0,0.2-0.1,0.1-0.3c0.8-0.5,1.7-0.2,2.6-0.2c7.9,0,15.7,0,23.6,0
	c3.7,0,7.5-0.2,11.2,0.6c-0.2,1-1.2,1.3-1.8,1.8c-2.8,2-5.4,4.1-7.9,6.5c-1.1,1-2,2.2-2.9,3.4c-1.4,1.6-2.8,3.1-4.1,4.8
	c-5.4,7.4-10.2,15.1-14.4,23.3c-3.4,6.6-6.3,13.3-8.9,20.2c-2.2,5.9-4.5,11.8-5.7,18c-0.2,1-0.3,2.1-0.5,3.1c-0.5,2.5-1,5-0.8,7.5
	c0.1,3.2-0.1,6.5,0.4,9.7c0.3,1.8,0.5,3.6,1.2,5.4c0.5,1.5,1.1,3,1.6,4.4C214.5,198.6,213.8,198.6,213.1,198.6z"/>
<path class="st3" d="M306.5,28c-0.5-0.3-1.1-0.6-1.7-0.6c-2,0-4,0-6.1,0c-1.4,0-1.6,0.2-1.6,1.8c0,3.1,0,6.2,0,9.2
	c0,2.7,0,2.7-2.8,2.7c-2.5,0-4.9,0-7.4,0c-0.9,0-1.7,0-2.6-0.3c-0.8-0.2-1.6-0.2-2.3-0.2c-1.9,0-3.9,0-5.8,0c-1.5,0-3,0.1-4.4-0.4
	c-0.6-0.2-1.2-0.1-1.8-0.1c-2.2,0-4.4,0-6.6,0c-1.4,0-2.8,0.1-4.2-0.4c-0.6-0.2-1.2-0.1-1.8-0.1c-2.2,0-4.4,0-6.6,0
	c-1.2,0-2.4,0-3.7-0.4c-0.6-0.2-1.4-0.1-2.1-0.1c-2.2,0-4.4,0-6.6,0c-1.1,0-2.3,0-3.4-0.3c-0.6-0.2-1.4-0.1-2.1-0.1
	c-2.1,0-4.2,0-6.3,0c-1.5,0-3,0.1-4.4-0.4c-0.6-0.2-1.2-0.1-1.8-0.1c-2.1,0-4.2,0-6.3,0c-1.3,0-2.6,0-3.9-0.4
	c-0.7-0.2-1.6-0.1-2.4-0.1c-1,0-1.9-0.1-3.4-0.1c1.3-0.6,2.2-0.4,3-0.4c9.9,0,19.9,0,29.8,0c18.4,0,36.8,0,55.2,0
	c3.5,0,3.3,0.2,3.3-3.3c0-2.3,0-4.6,0-6.9c2.8,0,5.6,0.1,8.4,0.1c0.7,0,1.4,0,2.1,0.1C306.7,27.1,306.6,27.6,306.5,28z"/>
<path class="st3" d="M130.7,189.1c-1.7,0-3.3,0.1-5-0.4c-0.6-0.2-1.2-0.1-1.8-0.1c-2.2,0-4.4,0-6.6,0c-1.1,0-2.3,0-3.4-0.3
	c-0.6-0.2-1.4-0.1-2.1-0.2c-2,0-4,0-6.1,0c-1.4,0-2.8,0-4.2-0.4c-0.8-0.3-1.7-0.1-2.6-0.1c-1,0-2.1,0-3.7-0.1
	c1.4-0.6,2.2-0.4,3.1-0.4c10.3,0,20.6,0,30.9,0c17.2,0,34.3,0,51.5,0c3.5,0,3.3,0.2,3.3-3.3c0-3.7,0-7.4,0-11.1c0-1,0.3-1.5,0.8-1.4
	c0.7,0.2,0.7,0.7,0.7,1.2c0,5.7,0,11.4,0,17.2c0,1.3-0.2,1.5-1.6,1.5c-2.6,0-5.3,0.3-7.9-0.1c-4-0.6-7.9-0.1-11.8-0.5
	c-4-0.5-8.1-0.1-12.1-0.6c-3.9-0.5-7.7-0.3-11.6-0.4c-0.4,0-0.7,0.1-1.1,0c-2.4-0.7-4.9-0.4-7.3-0.5c0-0.2-0.1-0.3-0.1-0.5
	c-0.1-0.4-0.3-0.7-0.6-0.7c-0.4,0-0.6,0.3-0.6,0.7C130.8,188.8,130.8,189,130.7,189.1z"/>
<path class="st3" d="M397.9,36.7c0-2.3,0-4.6,0.1-6.9c0-0.7,0-1.4,0-2.1c0.1-1,0.3-1.2,1.3-1.2c0.2,0,0.4,0,0.5,0c2.3,0,4.6,0,6.9,0
	c1.6,0,1.7,0.2,1.8,1.9c0,1.4,0,2.8,0,4.2c0,3.8,0,7.6,0,11.4c0,0.7,0,1.4,0,2.1c0,0.6-0.4,0.9-1,1c-0.2,0-0.4,0-0.5,0
	c-2.5,0-4.9,0-7.4,0c-1.3,0-1.5-0.2-1.5-1.6c0-1.5,0-3,0-4.5c0-0.6,0-1.2,0-1.8c0-0.6-0.4-0.9-1-1c-0.7,0-1.4,0-2.1,0
	c-13,0-26.1,0-39.1,0c-0.4,0-0.9,0-1.3,0c0.2-0.2,0.4-0.4,0.6-0.4c0.8-0.1,1.6,0,2.4,0c12.6,0,25.2,0,37.7,0c0.8,0,1.6,0,2.4-0.1
	C397.9,37.4,397.9,37,397.9,36.7z"/>
<path class="st2" d="M397.9,36.7c-0.1,0.3-0.1,0.8-0.5,0.8c-0.8,0.1-1.6,0.1-2.4,0.1c-12.6,0-25.2,0-37.7,0c-0.8,0-1.6,0-2.4,0
	c-0.2,0-0.4,0.3-0.6,0.4c0,0.4-0.1,0.9-0.1,1.3c0,7.5,0,14.9,0,22.4c0,0.8-0.2,1.6,0.5,2.2c-0.5,0.2-0.6,0.5-0.6,1
	c0,1.5,0,2.9,0.1,4.4c0,11,0,22,0,33c0,1,0,1.9,0.1,2.9c0,0.3,0,0.7-0.1,1c-0.2,2.2-0.2,4.3,0,6.5c0,0.8,0,1.6-0.1,2.4
	c0,0.8,0,1.6,0,2.4c0,1.1,0.1,2.3,0.1,3.4c0,3.3-0.1,6.7-0.1,10c0,1.3,0,2.6,0,3.9c-0.1,3.9-0.2,7.7,0.1,11.6c-0.2,4-0.2,8,0,12
	c0,0.9-0.1,1.7-0.1,2.6c0,4.2,0,8.3,0,12.5c0,1.1,0.1,2.3,0.1,3.4c-0.3,2.6-0.1,5.3-0.2,7.9c0,1.3-0.1,2.5,1.4,3.1
	c0.2,0.1,0.4,0.4,0.5,0.6c0.8,1.1,0.7,2.4,0,3.4c-0.7,1-2.1,1.4-3.3,1c-1.2-0.4-2-1.4-1.9-2.8c0-1.1,0.5-1.9,1.4-2.4
	c0.7-0.4,0.9-1,0.9-1.7c0-4-0.1-8.1-0.1-12.1c0-0.7,0.1-1.4,0.1-2.1c0-10.6,0-21.2,0-31.8c0-0.7-0.1-1.4-0.1-2.1c0-2.7,0-5.5,0-8.2
	c0.1-2.8,0.2-5.7,0-8.5c0-1.2,0-2.5,0-3.7c0-0.7,0-1.4,0-2.1c0-0.9,0-1.8,0-2.7c0-0.7,0-1.4,0-2.1c0-1.6,0-3.2,0-4.8
	c0-0.7,0.1-1.4,0.1-2.1c0-10.9,0-21.8,0-32.7c0-0.7-0.1-1.4-0.1-2.1c0-1.1,0-2.1,0-3.2c0-0.7,0-1.4,0-2.1c0-1.1,0.1-2.1,0.1-3.2
	c0-7,0-13.9,0-20.9c0-0.7,0-1.4,0.1-2.1c0-0.4,0.2-0.7,0.6-0.7c0.4,0,0.9-0.1,1.3-0.1c13.6,0,27.3,0,40.9,0
	C396.7,36.5,397.3,36.6,397.9,36.7z"/>
<path class="st3" d="M389.6,350.7c0.7,0.1,1.4,0.2,2.1,0.2c8.3,0,16.7,0,25,0c0.4,0,0.9,0,1.3,0c0.6-0.1,0.6-0.5,0.6-1
	c0-2.3,0-4.6,0-6.9c0-0.6,0-1.2,0.1-1.8c0-0.5,0.4-0.8,0.8-0.9c0.1,0,0.2,0,0.3,0c2.7,0,5.4,0,8.2,0c0.8,0,1.1,0.3,1.2,1.1
	c0,0.5,0,1.1,0,1.6c0,5,0,10,0,15c0,0.4,0,0.9,0,1.3c-0.1,1.2-0.3,1.5-1.4,1.5c-2.6,0-5.3,0-7.9,0c-1,0-1.2-0.3-1.2-1.3
	c0-1.7,0-3.3,0-5c0-0.7,0-1.4,0-2.1c0-0.6-0.4-0.9-1-1c-0.7,0-1.4,0-2.1,0c-7.6,0-15.1,0-22.7,0c-0.8,0-1.6,0-2.4-0.1
	C390,351.3,389.8,351,389.6,350.7z"/>
<path class="st2" d="M130.7,189.1c0-0.2,0.1-0.3,0.1-0.5c0.1-0.4,0.3-0.7,0.6-0.7c0.4,0,0.5,0.3,0.6,0.7c0,0.2,0.1,0.3,0.1,0.5
	c-0.3,2.9-0.1,5.8-0.1,8.7c0,0.5,0.2,0.8,0.8,0.9c0.5,0,1.1,0,1.6,0c25.6,0,51.2,0,76.9,0c0.6,0,1.2-0.1,1.8-0.1c0.7,0,1.4,0,2.1,0
	c0.5,0,1.1,0.1,1.6,0.1c10.9,0,21.8,0,32.7,0c0.7,0,1.4-0.1,2.1-0.2c0.7,0,1.4,0.1,2.2,0.1c3.5,0,7.1,0,10.6,0
	c1-0.4,1.2-1.6,2.1-2.2c1,0,2,0.1,3,0.1c1.8,2.3,1.8,3.1,0,5.3c-0.1,0-0.2,0-0.4,0c-2.9-0.1-2.9-0.1-4.9-2.1c-2,0-4,0-6,0
	c-2,0-4-0.2-6,0.1c-0.6-0.1-1.2-0.2-1.8-0.2c-11.3,0-22.7,0-34,0c-0.8,0-1.6-0.1-2.3,0.4c-1-0.5-2.1-0.3-3.1-0.3
	c-25.6,0-51.2,0-76.8,0c-1,0-2.3,0.4-3.1-0.3c-0.8-0.7-0.2-2-0.3-3C130.8,194,131,191.6,130.7,189.1z"/>
<path class="st3" d="M422,301.3c0.9-0.3,1.9-0.2,2.9-0.2c5.3,0,10.5,0,15.8,0c0.7,0,1.4,0,2.1,0c0.8-0.1,1.1-0.3,1.1-1.1
	c0-1.6,0-3.2,0-4.7c0-3.8-0.3-3.5,3.6-3.5c1.8,0,3.5,0,5.3,0c1.2,0,1.6,0.5,1.7,1.6c0,0.3,0,0.5,0,0.8c0,5.4,0,10.7,0,16.1
	c0,0.4,0,0.9-0.1,1.3c-0.1,0.4-0.3,0.6-0.7,0.7c-0.3,0.1-0.5,0.1-0.8,0.1c-2.5,0-4.9,0-7.4,0c-1.3,0-1.6-0.2-1.6-1.5
	c0-2.2,0-4.4,0-6.6c0-0.5-0.1-1.1-0.1-1.6c0-0.3,0-0.8-0.4-0.8c-0.7-0.1-1.4-0.1-2.1-0.1c-5.6,0-11.2,0-16.8,0
	C423.7,301.6,422.8,301.8,422,301.3z"/>
<path class="st3" d="M161.9,336.5c1,0,1.9,0,2.9,0c24.2,0,48.4,0,72.6,0c0.5,0,1.1,0,1.6,0c3.1,0,3.2-0.1,3.2-3.3c0-3.5,0-7,0-10.6
	c0-0.5-0.1-1.1,0.2-1.5c0-0.1,0.1-0.1,0.2-0.1c0.2,0,0.4,0.1,0.4,0.2c0.1,0.3,0.2,0.7,0.2,1c0,5.6,0,11.3,0,16.9
	c0,0.3,0,0.5-0.1,0.8c-0.1,0.5-0.4,0.8-0.8,0.9c-0.5,0.1-1.1,0.1-1.6,0.1c-2.3,0-4.6,0-6.9,0c-0.4,0-0.9,0.1-1.3,0
	c-2.4-0.7-4.9-0.4-7.3-0.5c-1.8-0.1-3.7,0-5.5-0.4c-1.7-0.3-3.5-0.1-5.3-0.1c-1.7,0-3.5,0.1-5.2-0.4c-0.6-0.2-1.4-0.1-2.1-0.1
	c-3.1-0.1-6.3,0.2-9.5-0.4c-1.8-0.3-3.7-0.1-5.5-0.1c-1.5,0-3,0.1-4.4-0.4c-0.6-0.2-1.2-0.1-1.8-0.1c-3.3-0.1-6.7,0.1-10-0.5
	c-2-0.3-4-0.1-6.1-0.1c-1.2,0-2.4-0.1-3.7-0.4c-1.3-0.3-2.8-0.2-4.2-0.3C162,336.8,162,336.7,161.9,336.5z"/>
<path class="st3" d="M417.1,47c0.9,0,1.8,0,2.7,0c28.9,0,57.8,0,86.7,0c0.9,0,1.8,0,2.8,0c0.6,0,1-0.4,1-1c0-0.7,0-1.4,0-2.1
	c0-3.6,0-7.2,0-10.8c0-0.6,0.1-1.2,0.2-1.8c0-0.2,0.2-0.3,0.4-0.2c0.1,0.1,0.3,0.2,0.4,0.3c0.1,0.2,0.1,0.5,0.1,0.8
	c0,0.5,0,1.1,0,1.6c0,4.8,0,9.7,0,14.5c0,0.6,0,1.2,0,1.8c-0.1,0.8-0.3,1.2-1.2,1.2c-1.3,0-2.6,0.1-3.8-0.1
	c-1.3-0.3-2.5-0.3-3.8-0.3c-2.1,0-4.2,0-6.3,0c-1.4,0-2.7,0.1-4.1-0.4c-0.6-0.2-1.3-0.1-1.9-0.1c-2.3,0-4.6,0-6.9,0
	c-1.3,0-2.6,0-3.8-0.4c-0.7-0.2-1.5-0.1-2.2-0.1c-2.2,0-4.4,0-6.6,0c-1.6,0-3.1,0.1-4.6-0.4c-0.6-0.2-1.3-0.1-1.9-0.1
	c-2.1,0-4.2,0-6.3,0c-1.5,0-2.9,0.1-4.4-0.4c-0.6-0.2-1.3-0.1-1.9-0.1c-2.2,0-4.4,0-6.6,0c-1.4,0-2.7,0.1-4.1-0.4
	c-0.7-0.2-1.5-0.1-2.2-0.1c-2.4,0-4.8,0-7.2,0c-1.3,0-2.6,0-3.8-0.4c-0.8-0.2-1.6-0.1-2.5-0.1c-2.7,0-5.3,0-8,0
	C417.2,47.4,417.1,47.2,417.1,47z"/>
<path class="st3" d="M146,326.5c0-2.4,0-4.7,0-7.1c0-0.6,0-1.2,0-1.8c0-0.6,0.4-1,1-1c2.8,0,5.6,0,8.4,0c0.8,0,1,0.4,1.1,1.2
	c0,0.6,0,1.2,0,1.8c0,4.7,0,9.3,0,14c0,0.6,0,1.2,0,1.8c-0.1,0.8-0.3,1.2-1.1,1.2c-2.7,0-5.4,0-8.2,0c-0.9,0-1.2-0.3-1.2-1.3
	c0-0.5,0-1.1,0-1.6C146,331.2,146,328.8,146,326.5z"/>
<path class="st3" d="M136,86.1c0,2.8,0,5.6,0,8.4c0,1.3-0.2,1.5-1.6,1.5c-2.5,0-5.1,0-7.6,0c-1,0-1.3-0.3-1.3-1.2c0-0.5,0-1.1,0-1.6
	c0-4.8,0-9.7,0-14.5c0-0.6,0-1.2,0.1-1.8c0-0.5,0.4-0.8,0.8-0.9c0.3,0,0.5-0.1,0.8-0.1c2.4,0,4.7,0,7.1,0c1.5,0,1.7,0.2,1.7,1.7
	c0,1.5,0,3,0,4.5C136,83.5,136,84.8,136,86.1C136,86.1,136,86.1,136,86.1z"/>
<path class="st3" d="M88.9,176.9c0,2.5,0,5.1,0,7.6c0,0.4,0,0.9,0,1.3c-0.1,0.8-0.3,1.1-1.2,1.1c-1.8,0-3.5,0-5.3,0
	c-1,0-1.9,0-2.9,0c-0.8,0-1.1-0.3-1.1-1.1c0-0.2,0-0.4,0-0.5c0-5.6,0-11.2,0-16.8c0-1.2,0.3-1.5,1.3-1.5c2.6,0,5.3,0,7.9,0
	c1,0,1.3,0.3,1.3,1.3C88.9,171.1,88.9,174,88.9,176.9C88.9,176.9,88.9,176.9,88.9,176.9z"/>
<path class="st3" d="M439.3,360.9c1,0,1.9-0.1,2.9-0.1c26.5,0,53,0,79.5,0c0.9,0,1.8,0,2.6,0c0.6,0,1-0.4,1-1c0-0.7,0-1.4,0-2.1
	c0-3.6,0-7.2,0-10.8c0-0.6,0.1-1.2,0.2-1.8c0-0.2,0.2-0.3,0.4-0.2c0.1,0.1,0.3,0.2,0.4,0.3c0.1,0.2,0.1,0.5,0.1,0.8
	c0,0.5,0,1.1,0,1.6c0,4.8,0,9.7,0,14.5c0,0.6,0,1.2,0,1.8c-0.1,0.9-0.4,1.2-1.4,1.2c-0.4,0-0.7,0.1-1-0.1c-1.8-0.6-3.7-0.4-5.5-0.4
	c-1.6,0-3.2,0-4.8,0c-0.5,0-1.1,0.1-1.6,0c-2.6-0.7-5.2-0.4-7.9-0.5c-2.1-0.1-4.2,0-6.3-0.4c-2-0.3-4-0.1-6.1-0.1c-2,0-4,0.2-6-0.4
	c-0.5-0.2-1,0-1.6-0.1c-3.7-0.1-7.4,0.1-11-0.4c-2.4-0.4-4.9-0.1-7.4-0.1c-1.3,0-2.6,0.1-3.9-0.4c-0.6-0.2-1.2-0.1-1.8-0.1
	c-1.9,0-3.9,0-5.8,0c-1.6,0-3.2,0.1-4.7-0.4c-0.7-0.2-1.6-0.1-2.4-0.1c-2.6,0-5.3,0-7.9,0C439.3,361.2,439.3,361,439.3,360.9z"/>
<path class="st3" d="M119.1,260.4c0,2.5,0,4.9,0,7.4c0,0.6,0,1.2-0.1,1.8c0,0.5-0.4,0.8-0.9,0.8c-1,0.1-1.9,0.1-2.9,0.1
	c-1.7,0-3.3,0-5,0c-0.8,0-1.1-0.3-1.2-1.1c0-0.4,0-0.9,0-1.3c0-5.3,0-10.5,0-15.8c0-0.5,0-1,0.1-1.6c0-0.4,0.3-0.6,0.7-0.7
	c0.3-0.1,0.7-0.1,1-0.1c2.1,0,4.2,0,6.3,0c1.7,0,1.8,0.2,1.9,1.8C119.1,254.6,119.1,257.5,119.1,260.4
	C119.1,260.4,119.1,260.4,119.1,260.4z"/>
<path class="st3" d="M221.6,90.4c0,2.8,0,5.6-0.1,8.4c0,1.3-0.2,1.6-1.6,1.6c-3.1-0.1-6.3,0.3-9.5-0.4c-1.3-0.3-2.8-0.1-4.2-0.1
	c-2.1-0.1-4.2-0.1-6.3-0.4c-2.1-0.4-4.4-0.1-6.6-0.1c-1.4,0-2.8,0.1-4.2-0.4c-0.5-0.2-1-0.1-1.6-0.1c-3.2-0.1-6.5,0.1-9.7-0.5
	c-2-0.3-4-0.1-6.1-0.1c-1.2,0-2.4,0-3.7-0.4c-0.6-0.2-1.4-0.1-2.1-0.1c-2,0-4,0-6.1,0c-0.5,0-1.1,0.1-1.6-0.1
	c-2.2-0.7-4.5-0.4-6.8-0.5c-1.8-0.1-3.7,0.1-5.5-0.4c-0.6-0.2-1.4,0-2.1-0.1c-0.8,0-1.6,0.2-2.5-0.3c0.9-0.4,1.8-0.2,2.6-0.2
	c11.5,0,23,0,34.6,0c12.7,0,25.3,0,38,0c0.8,0,1.6,0,2.4,0c0.9-0.1,1.2-0.3,1.2-1.3c0-1.5,0-3,0-4.5c0.4-0.1,0.8-0.1,1.2-0.2
	C221.8,90.2,221.7,90.3,221.6,90.4z"/>
<path class="st2" d="M217.9,234.1c-0.9,0-1.8,0-2.7,0c-20.9,0-41.9,0-62.8,0c-0.4,0-0.7,0-1.1,0c-1.1-0.1-1.2,0.3-1.2,1.2
	c0,4.4,0,8.8,0,13.2c0,1.1-0.2,1.6-0.6,1.4c-0.7-0.3-0.4-0.9-0.4-1.3c0-4.7,0-9.5,0-14.2c0-1.2,0.1-1.3,1.4-1.4c0.7,0,1.4,0,2.1,0
	c19.8,0,39.6,0,59.4,0c1,0,1.9,0,2.9,0c0.7,0,1.3-0.1,2-0.1c1.3,0.2,2.6,0.2,3.9,0c0.8,0,1.6,0.1,2.4,0.1c11.5,0,22.9,0,34.4,0
	c0.7,0,1.4-0.1,2.1-0.1c1.2,0,2.5,0,3.7,0c0.7,0,1.5,0,2.2,0c2.1,0.2,4.1,0.1,6.2,0c0.8,0,1.5,0,2.3,0c0.9,0,1.7,0,2.6,0
	c2,0.2,4.1,0.2,6.1,0c0.6,0,1.3,0,1.9,0c1,0.2,2.1,0.2,3.1,0c1.2,0.2,2.4,0.2,3.7,0c2.3,0,4.6,0,6.8,0.1c0.7,0,1.1-0.3,1.4-0.9
	c0.2-0.3,0.4-0.6,0.7-0.8c1.1-0.9,3.1-0.8,4.1,0.2c1.1,1.1,1,3-0.1,4.1c-1.1,1.1-2.9,1.2-4,0.1c-0.3-0.3-0.6-0.7-0.8-1
	c-0.3-0.6-0.7-0.6-1.3-0.6c-3.3,0-6.7,0-10,0.1c-1.7-0.2-3.5-0.1-5.2,0c-1.9,0-3.8,0-5.6,0c-0.7,0-1.5-0.1-2.2-0.1
	c-0.9,0-1.9,0-2.8,0c-2,0-4.1,0-6.1,0c-0.6,0-1.2,0.1-1.8,0.1c-1.4-0.3-2.8-0.2-4.2-0.1c-0.4,0-0.7-0.1-1.1-0.1c-12.5,0-25,0-37.5,0
	C220.3,234.1,219.1,234.1,217.9,234.1z"/>
<path class="st3" d="M197.8,27.2c0,2.3,0,4.6,0,6.9c0,0.6,0,1.2,0,1.8c0,0.6-0.4,1-1,1c-2.6,0-5.3,0-7.9,0c-0.8,0-1-0.3-1.1-1.2
	c0-0.4,0-0.9,0-1.3c0-5,0-10,0-15c0-0.4,0-0.9,0-1.3c0.1-0.8,0.3-1.2,1.1-1.2c2.6,0,5.3,0,7.9,0c0.6,0,0.9,0.4,1,1
	c0,0.6,0,1.2,0,1.8C197.8,22.3,197.8,24.7,197.8,27.2z"/>
<path class="st2" d="M221.7,90.1c-0.4,0.1-0.8,0.1-1.2,0.2c-0.6-0.5-0.5-1,0-1.5c0.3,0,0.7,0,1,0c0.9,0.3,1.7,0.2,2.6,0.2
	c10.7,0,21.4,0,32.1,0c1.1,0,2.3,0,3.4-0.4c3.2,0.3,6.4,0.7,9.6,0.6c3.1-0.1,6.3,0.1,9.4-0.5c0.1,0,0.3,0,0.4,0c0.7,0,1.4,0,2.1,0
	c2.5,0.1,5,0.2,7.5,0c2.2,0.4,4.4,0.2,6.6,0.2c4.5,0.1,3.8-0.4,3.8,3.8c0.1,4.5,0.1,9,0.1,13.5c-0.1,2.3-0.2,4.5,0,6.8
	c0,0.7-0.1,1.4-0.1,2c0,2,0,3.9,0,5.9c0,0.8,0,1.5,0.1,2.3c-0.2,2.1-0.2,4.2,0,6.2c0,2.1,0,4.2-0.1,6.3c0,0.8,0.4,1.1,1.1,1.2
	c0.4,0.5,0.8,1,1.2,1.5c0.1,1.1,0.1,2.2-0.7,3.2c-0.3,0.2-0.6,0.4-0.9,0.5c-2.3,1-4.5-0.6-4.2-3.1c0-0.4,0.2-0.8,0.4-1.2
	c0.3-0.2,0.5-0.5,0.8-0.6c0.8-0.5,1.2-1.1,1.2-2.1c-0.1-1.5-0.1-3-0.2-4.4c0.1-0.3,0.1-0.5,0.2-0.8c0-0.2,0-0.4,0.1-0.6
	c0-1.3,0-2.6,0-3.9c-0.2-1-0.5-2-0.5-3c0.5-1.9,0.5-6.1,0.1-8.3c0-0.7,0-1.4,0-2.1l0,0c0.1-0.3,0.4-0.6,0.4-0.9
	c0-1.8,0.2-3.7-0.1-5.5c0-0.5,0.2-1-0.3-1.3c0.4-0.8,0.3-1.7,0.3-2.6c0-3.4,0-6.8,0-10.3c0-1-0.2-1.3-1.2-1.3c-2.4,0-4.7,0-7.1,0.1
	c-2.6,0-5.2,0-7.8,0c-1.3,0-2.5,0-3.8,0.1c-6.1-0.2-12.3-0.2-18.4,0c-0.2,0-0.3,0.1-0.5,0.1c-3.7-0.8-7.5-0.6-11.2-0.6
	c-7.9,0-15.7,0-23.6,0C223.4,89.9,222.5,89.6,221.7,90.1z"/>
<path class="st2" d="M422,301.3c0.8,0.5,1.7,0.2,2.6,0.3c5.6,0,11.2,0,16.8,0c0.7,0,1.4,0,2.1,0.1c0.4,0.1,0.4,0.5,0.4,0.8
	c-1.9,0-3.9,0.1-5.8,0.1c-5,0-10-0.1-15,0c-1.5,0-2.2-0.5-2.9-1.7c-1.4-2.6-2.9-5.2-4.3-7.8c-0.3-0.4-0.6-0.8-0.9-1.3
	c-0.2-0.7-0.5-1.3-1-1.9c-0.8-1.4-1.5-2.9-2.3-4.3c-1.3-2.3-2.6-4.5-3.9-6.7c-0.3-0.6-0.6-1.3-0.9-1.9c-3.7-6.5-7.3-13.1-11-19.6
	c-0.3-0.4-0.6-0.8-0.9-1.2c-0.4-1.6-1.5-2.8-2.2-4.2c-0.3-0.8-0.7-1.6-1.5-2.2c-0.2-1.3-0.9-2.3-1.7-3.2c-0.1-0.9-0.9-1.3-1.2-2.1
	c0-0.1,0-0.2,0-0.3c0-0.3-0.1-0.5-0.4-0.7c-0.6-0.8-0.8-1.7-1.6-2.4c-0.2-0.6-0.4-1.2-0.7-1.7c-3.5-6.3-7.1-12.6-10.6-18.8
	c-0.3-0.6-0.8-1.2-1.2-1.7c-0.2-0.5-0.4-1-0.6-1.4c-0.5-1.1-1.1-1.9-2.5-1.9c-1.1,0-1.7-0.7-2.1-1.7c-0.2-0.5-0.2-1-0.4-1.5
	c0.3-0.5,0.4-1,0.8-1.4c1.1-1.4,2.5-1.6,3.9-0.6c1,0.6,1.3,1.6,1.5,2.6c-1,2.5-1,2.5,0.4,4.7c0.1,0.2,0.4,0.4,0.5,0.5
	c0.1,0.8,0.6,1.5,1,2.2c3.2,5.8,6.4,11.5,9.7,17.2c0.3,0.6,0.8,1.2,1.2,1.7c0.5,1,0.9,1.9,1.4,2.9c0.2,1,1.1,1.5,1.7,2.3
	c0.1,1.5,1,2.5,1.8,3.6c0.2,0.6,0.5,1.2,1,1.7c0.6,1.7,1.6,3.2,2.5,4.7c0.2,0.4,0.3,0.8,0.5,1.2c4.5,8.1,9.1,16.2,13.6,24.2
	c0.4,0.7,0.9,1.3,1.3,1.9c1,2.6,2.6,4.9,4,7.3c0.1,0.2,0.4,0.3,0.7,0.4c0.1,0.6,0,1.2,0.7,1.5c0,0.3-0.1,0.6,0,0.8
	C418.4,295,420,298.3,422,301.3z"/>
<path class="st0" d="M379.9,319.1c-0.5-0.4-0.5-1-0.5-1.5c0.4-0.8,1.2-0.9,1.9-1.3c5.5-2.8,10.6-6.3,14.7-10.9
	c1.2-1.4,2.4-2.9,3-4.6c0.7-1.7,1.5-3.4,1.4-5.3c0-3.5-1.5-6.5-3.8-9c-2.1-2.3-4.3-4.6-6.4-7c-0.2-0.3-0.5-0.5-0.7-0.8
	c-0.6-1.2-1.6-2.1-2.6-2.9c-2.5-2.3-5.5-3.8-8.9-4.2c-4.6-0.6-8.9,0.8-13.1,2.4c-0.6,0.2-1,0.7-1.1,1.4c-0.5-0.8-0.7-1.7-0.9-2.6
	c1.5-0.6,3.1-1.1,4.6-1.7c2-0.6,4-1.1,6.1-1.3c4.9-0.4,9.4,0.6,13.3,3.7c0.4,0.3,0.8,0.6,1.3,0.9c2,2.3,4,4.6,6,6.9
	c1.3,1.4,2.7,2.7,4,4.1c0.2,0.2,0.4,0.2,0.6-0.1l0,0c-0.1,0.1-0.3,0.3-0.3,0.3c0.6,0.8,0.8,1.9,1.9,2.3l0,0
	c-0.2,0.7,0.3,1.2,0.6,1.7c1.7,4,1.6,8-0.2,12c-1.3,2.8-3.3,5.2-5.5,7.3C390.9,313.2,385.8,316.7,379.9,319.1z"/>
<path class="st0" d="M265.5,232.9c-0.7,0-1.5,0-2.2,0c0.1-0.8,0-1.6-0.3-2.3c-0.3-0.9-0.5-1.9-0.8-2.8c-1.3-4.6-2.5-9.3-4.8-13.6
	c-1.1-2-2.6-3.5-4.4-4.8c-1.3-1-2.9-1.7-4.6-1.7c-4.2-0.2-8.4-0.2-12.6,0.7c-3.3,0.7-6.7,1.5-10.1,1.3c-1.9-0.1-3.6,0.7-5.3,1.5
	c-1.1,0.5-2.1,1.3-2.8,2.3c-1.4,2.2-2.3,4.5-2.4,7.1c-0.1,3.7,0.4,7.3,1.4,10.9c0.1,0.4,0.2,0.9,0.2,1.3c-0.7,0-1.3,0.1-2,0.1
	c-0.1-0.6-0.2-1.2-0.3-1.8c-1-3.7-1.2-7.4-1-11.2c0.3-6.5,4.1-10.8,10.3-11.9c1,0.1,2.1,0,3-0.4c1.7,0,3.4,0,5.1-0.4
	c1.5-0.4,3-0.5,4.6-0.8c1.6-0.2,3.3-0.4,4.9-0.6c0.5-0.1,1-0.3,1.5-0.4c1.1,0,2.3,0,3.4,0.1c5.2,0.2,9.2,2.5,12.1,6.8
	c1.2,1.8,2,3.9,2.8,5.9C263,223,264.2,228,265.5,232.9z"/>
<path class="st0" d="M354.3,69.3c0-1.5,0-2.9-0.1-4.4c0-0.4,0.1-0.8,0.6-1c6.7,0.4,12.9,2.3,18.5,5.9c0.9,0.6,1.8,1.4,2.6,2.2
	c3.2,3.3,4,7.2,2.7,11.7c-0.3,1-1,1.8-0.8,3c0,0,0-0.1,0-0.1c-1,0.6-1.2,1.7-1.6,2.7c-0.7,0.5-0.8,1.3-1.1,2
	c-1.4,3.7-2.8,7.4-4.2,11.2c-0.9,1.3-1.7,2.6-2.6,3.9c-2.3,3.2-5.4,5.1-9.2,6c-1.6,0.4-3.3,0.2-5,0.3c-0.2-2.2-0.3-4.3,0-6.5
	c0.3,0.4,0.4,0.8,0.4,1.2c0,0.7,0,1.4,0,2.1c0.1,1.2,0.5,1.6,1.7,1.4c1.5-0.3,3.1-0.6,4.6-1.1c1.1-0.3,2.1-0.8,3-1.6
	c1.6-1.5,3.2-3,4.3-5c1.2-2.2,2.4-4.5,3.2-6.9c1.2-3.8,2.6-7.5,4.5-11c0.7-1.3,1-2.6,1.3-4c0.3-1.2,0.3-2.5-0.2-3.6
	c-0.7-1.7-1.5-3.3-2.9-4.6c-1.4-1.3-2.8-2.4-4.5-3.2c-4.1-2.1-8.4-3.4-13-3.8c-0.6,0-1.2-0.6-1.7-0.1c-0.5,0.5-0.2,1.2-0.3,1.8
	c0,0.4,0,0.9,0,1.3C354.6,69.2,354.4,69.2,354.3,69.3z"/>
<path class="st3" d="M515.9,302.6c0.3,0,0.7,0.1,1,0.1c0,3.5,0,7,0,10.6c0,0.7,0,1.4,0,2.1c0,0.6-0.4,1-1,1c-1.2,0-2.5,0.2-3.7-0.2
	c-0.4-0.1-0.9-0.3-1.3-0.2c-4,0.2-7.9-0.7-11.8-0.6c-1.1,0-2.1,0-3.1-0.3c-0.8-0.2-1.7-0.1-2.6-0.2c-1.9-0.1-3.9,0.2-5.8-0.4
	c-0.5-0.2-1-0.1-1.6-0.1c-2.2-0.1-4.4,0.1-6.6-0.5c-0.9-0.2-1.9-0.1-2.9-0.1c-1.6,0-3.2,0.1-4.7-0.4c-0.6-0.2-1.4-0.1-2.1-0.1
	c-2-0.1-4,0.1-6-0.4c-0.8-0.2-1.7-0.1-2.6-0.1c-0.6,0-1.2,0.2-1.9-0.3c1-0.4,1.9-0.2,2.9-0.2c16.6,0,33.3,0,49.9,0
	c0.8,0,1.6,0,2.4,0c1.1-0.1,1.4-0.3,1.4-1.4C515.8,308.1,515.8,305.3,515.9,302.6z"/>
<path class="st3" d="M183.8,254.6c0.4,0.5,0.3,1,0.3,1.4c0,5.5,0,10.9,0,16.4c0,0.5,0,1.1-0.1,1.6c0,0.4-0.3,0.7-0.7,0.7
	c-0.6,0.1-1.3,0.2-1.8,0c-1.5-0.5-3-0.4-4.4-0.4c-1.8,0-3.7,0.1-5.5-0.4c-0.7-0.2-1.6-0.1-2.4-0.1c-1.8-0.1-3.7,0-5.5-0.4
	c-1.3-0.3-2.8-0.1-4.2-0.1c-1.3,0-2.6,0.1-3.9-0.4c-0.6-0.2-1.4-0.1-2.1-0.1c-2.1-0.1-4.2,0.1-6.3-0.5c-0.6-0.2-1.2,0-1.8-0.1
	c-2-0.1-4,0-6-0.4c-1.5-0.3-3.2-0.1-4.7-0.1c-1.3,0-2.6-0.1-3.9-0.4c-1.2-0.3-2.4-0.1-3.7-0.2c-0.5,0-1,0-1.5-0.2
	c0.9-0.5,1.8-0.3,2.7-0.3c17.3,0,34.6,0,52,0c0.8,0,1.6,0,2.4,0c0.6,0,0.9-0.4,1-1c0-0.7,0-1.4,0-2.1c0-3.6,0-7.2,0-10.8
	C183.5,255.9,183.3,255.3,183.8,254.6z"/>
<path class="st0" d="M391.2,249.8c0.7,0.6,1.1,1.4,1.5,2.2c-0.6,0-1,0.2-1.3,0.7c-0.8,1.2-1.7,2.5-2.4,3.8c-1.2,2.1-2,4.4-2,6.7
	c0,2.5,0.6,4.9,2,7c1.8,2.9,3.9,5.6,6.4,8c1.8,1.8,3.7,3.5,5.3,5.5c1.3,1.6,2.6,3,4.1,4.5c2.6,2.6,5.7,3.1,9.2,1.9
	c0.5,0.5,0.8,1.2,1,1.9c-1.9,0.6-3.7,1-5.7,0.6c-2.5-0.5-4.6-1.6-6.4-3.4c-0.6-0.5-1.1-1.1-1.7-1.6c-0.3-0.2-0.4,0.2-0.5,0.4
	c0,0,0,0,0,0c0.1-0.1,0.4-0.2,0.4-0.2c-0.1-0.9-0.9-1.9-2-2.5c0,0,0,0,0,0c0-0.1,0.1-0.1,0.1-0.2c0-0.1-0.1-0.2-0.2-0.4
	c-0.5-1.1-1.4-1.8-2.2-2.6c-3-2.8-5.8-5.8-8.4-9c-0.7-1.4-1.5-2.8-2.2-4.2c-1.5-3.4-1.6-6.9-0.3-10.5
	C387.2,255.3,389,252.4,391.2,249.8z"/>
<path class="st2" d="M306.5,28c0.1-0.4,0.2-0.9-0.4-1c-0.7-0.1-1.4-0.1-2.1-0.1c-2.8,0-5.6-0.1-8.4-0.1c0-0.3,0-0.5,0-0.8
	c0.5-0.1,1-0.1,1.5-0.2c2.5,0,5.1,0.1,7.6,0.1c0.7,0,1.4,0,2.1,0c0.5,0,0.8,0.3,0.8,0.8c0,0.7,0,1.4,0,2.1c0,11.2,0,22.5,0,33.7
	c0,1,0,1.9,0.1,2.9c0,0.6,0.1,1.1,0.1,1.7c-0.2,1.2-0.2,2.4-0.1,3.6c0,3.1,0,6.1-0.1,9.2c0,1.3-0.2,2.7,1.5,3.3
	c0.1,0.1,0.2,0.2,0.4,0.4c0.8,1.1,0.8,2.6-0.1,3.6c-0.9,1.1-2.6,1.4-3.8,0.7c-1.2-0.7-1.7-2.1-1.3-3.4c0.2-0.7,0.6-1.3,1.3-1.6
	c0.9-0.4,1-1.1,1-1.9c-0.1-3.2-0.1-6.5-0.1-9.7c0-1.2,0-2.4,0-3.6c0-0.7,0.1-1.3,0.1-2c0-0.2-0.1-0.5-0.1-0.7c0-0.9,0.1-1.8,0.1-2.6
	c0-10.6,0-21.1,0-31.7C306.6,29.8,306.5,28.9,306.5,28z"/>
<path class="st0" d="M214.1,200.1c0.7-0.5,1.5-0.4,2.3-0.4c11.3,0,22.7,0,34,0c0.6,0,1.2,0.1,1.8,0.2c-2.5,2.9-5.7,4.4-9.4,5.1
	c-1.9,0.4-3.8,0.5-5.7,0.6c-0.2,0-0.4,0.2-0.7,0.4c-0.7,0-1.4,0-2.1,0.1c-3.4,0.7-6.8,1-10.2,1c-0.8-0.2-1.5-0.3-2.3-0.6
	C218.6,205.3,215.7,203.5,214.1,200.1z M248.7,200.2c-0.7,0-1.1,0-1.5,0c-9.3,0-18.6,0-27.9,0c-0.5,0-1.1,0-1.6,0
	c-0.3,0-0.6,0.1-0.6,0.4c0,0.2,0,0.5,0.1,0.7c1.7,1.9,3.8,3.3,6.3,3.5c2.8,0.2,5.6,0.4,8.4-0.2c1.5-0.4,3.1-0.6,4.7-0.7
	c2,0,3.8-0.5,5.7-0.7c1.2-0.1,2.4-0.6,3.5-1C246.9,201.9,247.9,201.4,248.7,200.2z"/>
<path class="st0" d="M307.9,67.2c0-0.6-0.1-1.1-0.1-1.7c1-0.1,2.1-0.3,3.1-0.4c8.8-1.2,17.6-1.9,26.4-2.2c5.3-0.2,10.5,0.3,15.8,0.5
	c0,0.7,0,1.4,0,2.1c-1.2-0.5-2.5-0.6-3.9-0.6c-6.3,0-12.6,0-18.9,0c-2.7,0-5.4,0.7-8.1,0.6c-0.1,0-0.2,0-0.3,0
	c-1.2,0.5-2.4,0.4-3.6,0.4c-0.5,0-1.1,0-1.6,0.1C313.8,66.7,310.8,67.1,307.9,67.2z"/>
<path class="st0" d="M306.6,65.7c0,0.7-0.1,1.3-0.1,2c-1.2,0.2-2.4,0.5-3.6,0.7c-4.5,1-8.6,3-12.5,5.3c-2.3,1.3-4.4,2.9-6.1,4.9
	c-1.9,2.2-3.4,4.6-3.1,7.8c0.1,0.8,0,1.6,0,2.4c-0.7,0-1.4,0-2.1,0c0-0.9,0-1.8,0-2.6c0-2.5,0.8-4.8,2.3-6.9c2.5-3.4,5.6-6,9.3-8
	c4.7-2.5,9.6-4.6,15-5.4c0.2,0,0.3-0.2,0.5-0.2c0,0,0.2,0,0.2,0L306.6,65.7z"/>
<path class="st0" d="M278.7,88.7c-3.1,0.6-6.3,0.4-9.4,0.5c-3.2,0.1-6.4-0.3-9.6-0.6c2.7-1.8,5.8-3,8.9-3.4
	C272.5,84.6,276,85.5,278.7,88.7z M264.2,88.7c3,0,5.8,0,8.6,0c0.7,0,1.5,0.2,2.2-0.2c-0.3-1.1-1.4-1-2.1-1.1
	c-1.8-0.4-3.7-0.4-5.4,0C266.4,87.6,265.2,87.8,264.2,88.7z"/>
<path class="st4" d="M259.4,24c0,2.1,0.1,4.2,0.1,6.3c0,0.3,0,0.8,0.3,1c0.3,0.2,0.8,0.3,1.2,0.4c-1.6,0.1-3.2,0.3-4.8,0
	c0.4-0.6,1-0.1,1.4-0.1c0.6,0,1.1-0.2,1.1-0.9c0-1.9,0-3.9,0-5.8c0-0.5-0.4-0.7-0.9-0.8c-0.6-0.1-1.2,0.5-1.7-0.1
	C257.2,23.7,258.3,23.6,259.4,24z"/>
<path class="st3" d="M221.5,88.8c-0.3,0-0.7,0-1,0c0-2.3,0-4.5,0-6.8c0-0.4,0.1-0.8,0.2-1.3c0-0.1,0.3-0.1,0.4-0.2
	c0.1,0,0.1,0.1,0.2,0.1c0.3,0.4,0.2,0.8,0.2,1.3C221.6,84.3,221.5,86.5,221.5,88.8z"/>
<path class="st3" d="M224.2,207.1c3.4,0.1,6.8-0.3,10.2-1c0.7-0.1,1.4-0.1,2.1-0.1c-0.1,0.1-0.1,0.3,0,0.4c-1.5,0.3-3.1,0.4-4.6,0.8
	c-1.7,0.4-3.4,0.4-5.1,0.4c-0.9,0-1.7,0-2.6,0C224.2,207.5,224.2,207.3,224.2,207.1z"/>
<path class="st3" d="M297.1,25.8c-0.5,0.1-1,0.1-1.5,0.2c0-1.4,0-2.8,0-4.2c0-0.4,0.3-0.6,0.7-0.6c0.4,0,0.7,0.3,0.7,0.7
	C297.1,23.2,297.1,24.5,297.1,25.8z"/>
<path class="st5" d="M209.5,23.8c-0.2,0.3-0.4,0.5-0.6,0.8c-0.1,0.2-0.2,0.5-0.2,0.7c-1.2,0-2.3,0-3.4,0c-0.6,0-0.7-0.4-0.7-0.9
	c0-0.4,0.2-0.7,0.6-0.7c1.1,0,2.3-0.1,3.4-0.1C208.9,23.7,209.2,23.8,209.5,23.8z"/>
<path class="st3" d="M189.3,323.8c0.1,2.4-0.2,4.9,0.2,7.3c-0.3,0-0.5,0-0.8,0c0.4-2.4,0.1-4.9,0.2-7.4
	C189,323.8,189.1,323.8,189.3,323.8z"/>
<path class="st3" d="M219.1,30.1c-0.1-1.8-0.2-3.5,0-5.3c0.4,0.3,0.4,0.8,0.4,1.2c-0.3,1.4-0.3,2.8,0.5,4.1
	C219.7,30.1,219.4,30.1,219.1,30.1z"/>
<path class="st4" d="M224.2,207.7c0.9,0,1.7,0,2.6,0c-1,0.4-2,0.5-3,0.4C223.9,208,224.1,207.8,224.2,207.7z"/>
<path class="st4" d="M217.5,31.6c0.4,0,0.8,0,1.3,0C218.3,31.9,217.9,31.8,217.5,31.6z"/>
<path class="st0" d="M160.3,90.6c0,0,0.2-0.1,0.2-0.1c0.4,0,0.8,0,1.3,0C161.3,91,160.8,90.8,160.3,90.6z"/>
<path class="st5" d="M154.4,80.7c-0.5,0-1,0.1-1.6,0.1C153.3,80.1,153.9,80.1,154.4,80.7z"/>
<path class="st4" d="M217.1,23.3c0.4,0.2,0.5,0.4,0.2,0.8C216.9,23.9,216.9,23.6,217.1,23.3z"/>
<path class="st3" d="M200.4,83.4c-0.2-0.1-0.4-0.3-0.7-0.4C200.1,82.9,200.4,83.1,200.4,83.4z"/>
<path class="st3" d="M306.6,65.7l-0.2,0.1c0,0-0.2,0-0.2,0c-0.1-0.3,0.1-0.5,0.3-0.7C306.5,65.2,306.6,65.4,306.6,65.7z"/>
<path class="st6" d="M362.2,275c1.3,1.5,1.6,3.5,2.1,5.3c-3.4,1.2-6.8,2.4-10.2,3.6c-5,1.8-10.2,2.9-15.4,3.3
	c-5.8,0.5-11.6-0.3-17.3-1.7c-5.6-1.4-11.2-2.9-16.9-4.3c-2.3-0.6-4.7-0.9-7.1-0.8c-3.8,0.1-6.8,1.7-8.9,4.8c-1,1.5-1.9,3.2-2.6,4.9
	c-0.9,2.1-1.8,4.2-3.2,6.1c-0.3,0.4-0.5,0.9-0.8,1.4c-1.3,2.3-1.2,4.7-0.2,7.1c0.8,1.8,2.1,3.3,3.6,4.5c3.2,2.6,6.7,4.6,10.5,6.1
	c6.6,2.6,13.5,3.9,20.5,4.8c4.6,0.6,9.3,0.5,13.9,0.9c0.8,0.1,1.6,0,2.4-0.1c1.1-0.1,2.1-0.2,3.2-0.2c3.4-0.1,6.8-0.1,10.3-0.5
	c4.2-0.5,8.4-0.9,12.5-1.7c4.2-0.8,8.3-1.6,12.2-3.2c1.7-0.7,3.4-1.4,5.1-2.1c0.8,1.5,1.3,3,1.6,4.7c-2.5,1.3-5.2,2.1-7.9,2.9
	c-4.6,1.3-9.2,2.1-13.9,2.9c-2.1,0.3-4.1,0.9-6.3,0.7c-2.2,0.8-4.6,0.2-6.8,0.9c-0.6,0.2-1.2,0.1-1.8,0.1c-6,0-12,0-18,0
	c-1.1,0-2.1,0.1-3.1-0.3c-0.3-0.1-0.7-0.1-1-0.1c-3.9,0-7.6-0.9-11.4-1.5c-6.1-1-12-2.7-17.6-5.1c-2.7-1.1-5.5-2.5-7.9-4.2
	c-2.8-2-5.4-4.2-7.4-7c-2.4-3.4-2.7-8,0.2-11.8c2.7-3.4,4.9-7.1,6.9-10.9c1.8-3.3,4.1-6.1,7.2-8.3c1.1-0.8,2.3-1.3,3.6-1.6
	c3.3-0.7,5.6-0.8,8.8-0.1c5,1,9.8,2.7,14.7,4.2c2.6,0.8,5.2,1.7,7.8,2.2c5,1.1,10.1,1.7,15.2,1.2c5.1-0.5,10-1.6,14.8-3.4
	c2.5-1,5-2.2,7.6-3C361.6,275.5,361.9,275.2,362.2,275z"/>
<path class="st6" d="M217.9,234.1c1.2,0,2.4,0,3.6,0c-0.2,1.5,0.4,2.8,0.8,4.1c1.9,5.1,4.3,10,6.9,14.8c3.5,6.3,7.1,12.6,10.7,18.8
	c3.3,5.7,7.4,10.7,13,14.3c1.4,0.9,2.9,1.7,4.5,2.1c2.6,0.7,5.2,0.5,7.7-0.8c2.2-1.2,3.8-3.1,5.4-5c1.3-1.6,2.5-3.2,3.7-4.8
	c1.1-1.4,2.2-2.7,3.1-4.3c2.4-4.2,2.2-8.4-0.2-12.5c-0.7-1.3-1.6-2.5-2.6-3.6c-2-2.4-4.1-4.8-6.1-7.2c-3.8-4.7-6.7-9.9-8.3-15.7
	c1.4-0.1,2.8-0.2,4.2,0.1c0.1,0.7,0.1,1.4,0.4,2.1c1.7,3.5,3.4,7,5.8,10c2.4,2.9,4.8,5.9,7.5,8.5c1.8,1.7,3.2,3.7,4.6,5.8
	c1.8,2.8,2.8,5.9,2.3,9.3c-0.4,2.8-1.4,5.4-3,7.8c-1.6,2.3-3.2,4.6-4.8,6.9c-1.2,1.8-2.4,3.7-3.7,5.5c-2,2.7-4.7,4.2-7.8,5.1
	c-1.3,0.4-2.6,0.3-3.9,0c-3.3-0.6-6.4-2-9.1-4c-1.9-1.4-3.7-2.9-5.5-4.5c-2-1.7-3.6-3.9-5.1-6c-2.2-3.1-4.1-6.4-6-9.6
	c-1.9-3.1-3.7-6.4-5.6-9.5c-3-5.1-5.5-10.4-8.1-15.7c-1.4-2.8-2.6-5.8-3.8-8.7C218.1,236.2,217.6,235.2,217.9,234.1z"/>
<path class="st1" d="M266.1,234.1c2,0,4.1,0,6.1,0c0.4,0.9,0.8,1.8,1.2,2.6c4.2,9.1,9.3,17.5,16.2,24.8c3.5,3.7,7.3,6.8,11.8,9.2
	c4.5,2.4,9.3,3.6,14.4,3.4c5.6-0.2,10.2-2.3,13.7-6.7c3.1-3.9,5-8.4,5.8-13.4l0.2,0l0.2-0.1c0.3,1.5,0.7,3.1,1,4.6
	c0.7,2.8,1.6,5.6,3,8.1c2.4,4.2,6.1,6.4,10.8,7c3.7,0.4,7.3,0.2,10.9-1c0.1,0.2,0.2,0.3,0.3,0.5c-6.6,3-13.2,5.8-20.4,6.7
	c-6.5,0.9-13,0.4-19.3-1.4c-5-1.5-10.1-3.1-15.1-4.5c-2.5-0.7-5.1-1.3-7.7-1.7c-4.9-0.7-9.4,0.5-13.3,3.6c-0.2-0.2-0.4-0.4-0.6-0.6
	c1.1-2.9,1.6-5.9,1.3-9c-0.2-1.7-0.6-3.3-1.4-4.8c-1.2-2.2-2.6-4.4-4.3-6.3c-2.1-2.2-4.3-4.4-6.2-6.8
	C271,244.1,267.8,239.6,266.1,234.1z"/>
<path class="st4" d="M272.2,294c2-2.1,3.8-4.4,5.5-6.8c-1,2.9-3,5.2-5,7.5C272.6,294.5,272.4,294.2,272.2,294z"/>
<path class="st4" d="M285.3,275.2c0.2,0.2,0.4,0.4,0.6,0.6c-0.3,0.6-0.7,0.9-1.3,1.2C284.6,276.2,284.9,275.7,285.3,275.2z"/>
<path class="st7" d="M272.2,294c0.2,0.2,0.4,0.5,0.6,0.7c0,0.2-0.1,0.3-0.3,0.4c-0.2-0.3-0.4-0.5-0.6-0.8
	C272,294.1,272.1,294,272.2,294z"/>
<path class="st8" d="M390.3,244.6c-0.6-0.7-1.5-1.2-1.7-2.3c0.3,0,0.6,0,0.7-0.1c0.3-0.3,0.5-0.7,0.7-1.1c5.1-10,9-20.4,11.6-31.3
	c1.1-4.5,1.8-9.1,2.1-13.8c0.5-7.3,0-14.6-1.7-21.7c-3.8-16.3-10.5-31.1-21.6-43.8c-3-3.4-6.3-6.3-10.1-8.9
	c-3.2-2.1-6.6-3.6-10.4-4.2c-1.9-0.3-3.8-0.5-5.8,0c0-0.8,0-1.6,0-2.4c1.6,0.1,3.2,0.1,4.7,0.3c5,0.6,9.5,2.5,13.6,5.3
	c0.9,0.6,1.9,1.3,2.8,1.9c0.6,0.8,1.3,1.4,2.3,1.5c0.1,0.6,0.4,1.1,0.9,1.5c0.9,0.9,1.8,1.8,2.8,2.7c0.9,0.8,1.4,1.9,2.4,2.6
	c2.8,3.6,5.5,7.3,7.8,11.2c6.5,11,11,22.8,13.2,35.4c1.4,7.9,1.5,15.9,0.4,23.9c-1.6,11.7-5.2,22.8-10,33.5
	C393.7,238.2,392.2,241.5,390.3,244.6z"/>
<path class="st4" d="M383.7,130.9c-1-0.6-1.5-1.8-2.4-2.6c1,0.4,1.8,1,2.4,1.9C383.7,130.5,383.7,130.7,383.7,130.9z"/>
<path class="st6" d="M440.6,194.9c-1.6,0-3.2,0-4.8,0c-0.5,0-1.1-0.1-1.6,0.1c-2.1,0.7-4.2,0.4-6.3,0.4c-3.5,0-6.7-1-9.7-3
	c-1.7-1.1-2.7-2.7-3.7-4.4c-2.6-4.5-3.9-9.6-5-14.6c-1.4-6.1-2.6-12.2-4.8-18c-1.9-5.1-4.6-9.6-7.7-14c-3-4.2-6.5-7.8-10.3-11.2
	c-3-2.7-5.9-5.5-8.7-8.4c-2.5-2.5-4.1-5.4-5.1-8.8c-0.3-1-0.2-2.1-0.3-3.1c-0.3-3.3,0.6-6.4,2-9.4c1.2-2.4,2.1-5,3.2-7.5
	c0.4-1,0.9-1.9,1.2-2.9c0.8-2.2,2.4-3.9,4.2-5.3c2.3-1.8,5-2.5,7.9-2.3c1.4,0.1,2.8,0.4,4.1,0.7c2.2,0.4,4.2,1.3,6.2,2.3
	c3.2,1.6,6.2,3.2,9.1,5.4c1.5,1.2,3,2.4,4.5,3.6c0.7,0.6,1.3,1.4,2.2,1.9c0.2,0.1,0.4,0.3,0.6,0.5c2.8,3.5,6,6.6,8.6,10.3
	c2.4,3.5,4.8,6.9,7.1,10.5c2.3,3.5,4.5,7.1,6.5,10.8c1.9,3.5,3.7,7,5.5,10.5c3.3,6.9,6,14,8.2,21.4c0.9,2.8,1.3,5.8,1.9,8.7
	c0.5,2.4,0.1,4.9,0.9,7.3c0.2,0.5,0.1,1.3-0.1,1.8c-0.4,1.1-0.4,2.3-0.4,3.4c0.1,3.5-1.1,6.5-2.9,9.4c-1.7,2.7-4.3,3.8-7.3,4
	C444.1,195,442.4,194.9,440.6,194.9C440.6,194.9,440.6,194.9,440.6,194.9z M450.8,173.9c0.1-1.4-0.2-3-0.4-4.7
	c-0.4-3.5-1.1-7-2.1-10.3c-3-9.4-6.9-18.4-11.7-27.1c-3.9-7-8.2-13.7-12.8-20.3c-4.3-6.1-9.4-11.4-15.5-15.7
	c-3.6-2.6-7.4-4.7-11.8-5.7c-1.9-0.4-3.8-0.6-5.7-0.1c-2.9,0.8-4.9,2.7-6.3,5.3c-1.4,2.7-2.8,5.5-4.2,8.2c-1.5,3-1.6,6.1-0.6,9.2
	c0.4,1.3,1.1,2.6,1.9,3.8c1.4,2.2,3.1,4.2,5,6.1c3.2,3.3,6.5,6.7,9.7,10c4.5,4.7,8.1,9.9,11,15.7c2.2,4.4,3.6,9.2,5,13.9
	c1.5,5.4,3,10.9,4.8,16.2c0.7,2,1.5,3.9,2.8,5.7c1.9,2.7,4.5,4.4,7.8,4.8c1.4,0.2,2.8,0.2,4.2-0.1c1.5-0.3,2.9-0.6,4.4-0.8
	c2-0.3,4-0.5,6-0.5c3.3,0.1,5.5-1.6,6.8-4.5c0.3-0.7,0.6-1.5,0.8-2.2C450.5,178.7,450.8,176.5,450.8,173.9z"/>
<path class="st1" d="M375.3,122.6c-0.9-0.6-1.9-1.3-2.8-1.9c-4.1-2.8-8.6-4.7-13.6-5.3c-1.6-0.2-3.1-0.2-4.7-0.3
	c0-0.8,0-1.6,0.1-2.4c1.7-0.1,3.3,0.1,5-0.3c3.8-0.8,6.9-2.8,9.2-6c0.9-1.3,1.7-2.6,2.6-3.9c0.2,0,0.3,0,0.5,0
	c-0.2,0.8-0.4,1.7-0.6,2.5c-1.1,4.7-0.5,9.1,2,13.2c0.9,1.5,1.9,2.9,2.8,4.4C375.6,122.5,375.5,122.5,375.3,122.6z"/>
<path class="st3" d="M371.6,102.5c-0.2,0-0.3,0-0.5,0c1.4-3.7,2.8-7.5,4.2-11.2c0.3-0.7,0.4-1.5,1.1-2c0.1,0.4,0.1,0.8,0.4,1
	C375.4,94.5,373.6,98.5,371.6,102.5z"/>
<path class="st7" d="M376.8,90.3c-0.4-0.2-0.4-0.7-0.4-1c0.4-1,0.6-2.1,1.6-2.7c0.4,0.1,0.6,0.4,0.4,0.7
	C377.8,88.3,377.3,89.3,376.8,90.3z"/>
<path class="st4" d="M375.3,122.6c0.1-0.1,0.3-0.1,0.5,0c0.8,0.3,1.1,1.2,1.9,1.6C376.6,124,375.9,123.4,375.3,122.6z"/>
<path class="st6" d="M415.9,289.7c-0.2-0.1-0.6-0.2-0.7-0.4c-1.3-2.4-3-4.7-4-7.3c0.4,0.1,0.9,0.1,1.3,0.2c1.8,0.6,3.5,0.3,5.2-0.3
	c2.3-0.9,4.2-2.2,5.9-3.9c1.9-1.8,3.5-4,4.9-6.2c3.7-5.7,6.8-11.7,9.6-17.9c2.2-4.9,4.4-9.8,6.7-14.6c1.6-3.4,2.9-7,3.7-10.7
	c0.9-4.2,1.2-8.3,0.2-12.5c-1.1-4.6-4.2-7-8.6-7.9c-1.8-0.4-3.6-0.6-5.5-0.6c-1.2,0-2.5-0.1-3.7-0.3c-1.8-0.3-3.7-0.4-5.5-0.2
	c-4.8,0.4-8.5,2.6-10.5,7.2c-1,2.3-2,4.7-2.5,7.2c-0.6,3.1-1.5,6.2-2.4,9.2c-1.2,4.1-3.2,7.8-5.6,11.3c-1.8,2.6-3.7,5.1-5.6,7.6
	c-1.2,1.6-2.2,3.2-3,4.9c-0.9-1.5-1.9-3-2.5-4.7c3.1-3,5.6-6.5,8.1-10c2.8-3.8,4.5-8.2,5.7-12.7c1.2-4.4,2.1-8.9,3.2-13.3
	c0.6-2.3,1.3-4.5,2.6-6.6c1.8-2.8,4.3-4.6,7.4-5.6c1.9-0.6,3.9-1,5.9-1c4.1,0.1,8.3,0,12.4,0c3.3,0,6.4,0.8,9.3,2.4
	c1.3,0.7,2.3,1.6,3,2.9c1,1.8,2,3.5,2.3,5.6c0.1,0.8,0.3,1.5,0.3,2.3c0,1.9-0.1,3.9,0,5.8c0.1,3.2-0.6,6.3-1.5,9.3
	c-1.4,4.8-3.4,9.4-5.4,14c-3.2,7.5-6.8,14.7-10.5,21.9c-3,5.8-6.4,11.3-10.4,16.5c-1.1,1.5-2.5,2.8-3.9,3.9
	C419.9,286.9,418,288.5,415.9,289.7z"/>
<path class="st4" d="M387.2,239.4c-0.4-0.6-0.8-1.1-1.2-1.7c-3.2-5.7-6.5-11.5-9.7-17.2c-0.4-0.7-0.9-1.3-1-2.2
	c5.2-1.8,8-9.8,2.2-14.9c-3.9-3.4-10.1-3.5-14.1-0.2c-5.3,4.5-4.1,12,1.5,15c2.8,1.5,5.8,2.1,8.8,0.7c0.4,0.6,0.8,1.1,1.2,1.7
	c3.5,6.3,7.1,12.6,10.6,18.8c0.3,0.5,0.5,1.1,0.7,1.7c-0.3,0.5-0.7,1-1,1.5c-1.5,2.6-3,5.1-4.8,7.6c-2.3,3.2-4.9,6.2-8.2,8.5
	c-3.8,2.7-7.8,4.8-12.4,5.6c-2-5.4-3.9-10.8-5.9-16.2c-1.1-3-2.1-6.1-3.2-9.1c0.3,0.1,0.5,0.1,0.8,0.1c3.1,0.4,4.4-0.4,5.3-3.3
	c0.7-2.3,1.4-4.5,2-6.8c0.2-0.6,0.3-1.2,0.3-1.8c0-1.7-1-3.1-2.6-3.5c-1.9-0.6-4,0.3-4.8,2.2c-0.3,0.6-0.4,1.2-0.6,1.7
	c-0.7,2.2-1.2,4.4-2.2,6.5c-1.5-3.5-2.8-7-3.8-10.6c2.3-4,4.6-7.9,6.8-11.9c1.7-3,3.4-5.9,4.6-9.2c1-2.9,1.9-5.8,1.9-9
	c0.1-6-1.6-11.4-4.5-16.5c0-1.1-0.1-2.3-0.1-3.4c0-4.2,0-8.3,0-12.5c0-0.9,0.1-1.7,0.1-2.6c0.2,0.5,0.5,0.9,0.7,1.4
	c1.5,4.1,3.9,7.7,6.8,10.9c1.3,1.4,2.3,3.1,2.9,5c0.9,2.7,1.8,5.3,2.8,8c1.6,4.3,4.6,7.1,9.1,7.9c5.5,1,9.2-0.7,11.6-5.6
	c1-2,1.6-4.1,1.7-6.3c0.2-4.5,0.4-9-0.5-13.4c-1-5.5-2.8-10.7-5.8-15.5c-2.5-3.9-5.6-7.3-9.5-9.8c-1.9-1.2-3.8-2.3-5.9-2.8
	c-3.1-0.8-6.1-0.6-8.9,1.3c-1.8,1.2-3,2.9-4,4.8c-0.4,0.7-0.6,1.5-1.1,2.1c-0.3-3.9-0.1-7.7-0.1-11.6c0-1.3,0-2.6,0-3.9
	c-0.1-3.3,0-6.7,0.1-10c0.9,0,1.8,0,2.6-0.1c4.8-0.1,9.2,1.2,13.2,3.9c2.1,1.4,4.1,3,6,4.8c3.5,3.4,6.5,7.1,9.2,11.2
	c7.9,12.1,12.9,25.3,14.9,39.7c1,7.2,0.8,14.4-0.3,21.6c-1.4,8.8-3.9,17.3-7.3,25.5C390.9,231.4,389,235.4,387.2,239.4z
	 M395.1,187.1c-1.7,0-2.9,0.7-3.8,1.8c-1.7,1.9-3.3,3.9-5,5.8c-0.3,0.4-0.7,0.8-1,1.2c-0.8,1.3-0.6,2.7,0.4,3.9
	c1.3,1.6,3.8,1.9,5.4,0.6c0.2-0.2,0.4-0.3,0.6-0.5c2-2.2,4-4.4,5.9-6.7c1.1-1.2,1.2-2.7,0.5-4.2
	C397.5,187.7,396.3,187.2,395.1,187.1z M384.7,227.7c1.8,0,3.1-0.8,3.8-2.7c1-2.8,1.8-5.7,2.6-8.6c0.5-1.7-0.3-3.1-1.8-4
	c-2.2-1.2-4.9-0.2-5.7,2.3c-0.9,2.7-1.7,5.5-2.4,8.3C380.4,225.6,382.1,227.6,384.7,227.7z M360,249.6c-0.3,2.2,2.8,5,5.4,3.3
	c2.4-1.6,4.8-3.3,7.1-5c0.8-0.6,1.2-1.5,1.1-2.6c-0.3-2.6-2.8-4.5-5.4-3.1c-2.5,1.4-4.8,3.3-7.1,5C360.3,247.9,360,248.7,360,249.6z
	"/>
<path class="st4" d="M376.1,313.3c-1.7,0.7-3.4,1.4-5.1,2.1c-3.9,1.6-8.1,2.4-12.2,3.2c-4.2,0.8-8.4,1.1-12.5,1.7
	c-3.4,0.4-6.8,0.4-10.3,0.5c-1.1,0-2.1,0.1-3.2,0.2c-0.8,0-1.6,0.1-2.4,0.1c-4.6-0.4-9.3-0.3-13.9-0.9c-7-0.9-13.9-2.2-20.5-4.8
	c-3.8-1.5-7.3-3.5-10.5-6.1c-1.5-1.2-2.8-2.7-3.6-4.5c-1.1-2.4-1.1-4.8,0.2-7.1c0.3-0.5,0.5-0.9,0.8-1.4c1.4-1.9,2.3-4,3.2-6.1
	c0.7-1.7,1.5-3.4,2.6-4.9c2.1-3.2,5.1-4.7,8.9-4.8c2.4-0.1,4.7,0.2,7.1,0.8c5.6,1.4,11.2,2.9,16.9,4.3c5.7,1.4,11.4,2.2,17.3,1.7
	c5.3-0.4,10.4-1.6,15.4-3.3c3.4-1.2,6.8-2.4,10.2-3.6c0.3,0.5,0.6,1.1,0.8,1.6c3.5,9.8,7.1,19.7,10.6,29.5
	C375.9,312.1,376,312.7,376.1,313.3z M334.1,295.8c-2.4,0.2-4.8,0.7-6.9,2.2c-3.8,2.8-4.4,7.8-0.2,11.2c4.2,3.4,10.5,2.6,14-0.1
	c2.5-2,4-6,1-9.6C339.9,297.2,337.3,296,334.1,295.8z"/>
<path class="st1" d="M341.4,210.3c-0.3,0-0.7,0.1-0.9-0.3c-0.9-2.5-1.8-4.9-2.7-7.4c-0.2-0.5-0.2-1,0.2-1.5c0.5-0.5,0.8-1.1,0.8-1.9
	c0.1-1.5-0.9-2.8-2.3-3.1c-1.4-0.3-2.8,0.5-3.4,1.9c-0.5,1.3,0.1,2.9,1.4,3.6c0.7,0.4,1.7-0.1,2,0.9c0.3,0.7,0.5,1.5,0.8,2.2
	c0.9,2.4,1.7,4.8,2.6,7.2c0.3,0.7,0.4,1.3,0.4,2c-0.6,0.7-0.6,1.7-0.8,2.5c-1.9,7.1-3.4,14.3-4.2,21.7c-0.2,2.5-0.2,5-0.6,7.4
	c-0.8-4.5-1.7-9-2.9-13.4c-1.5-5.2-3-10.5-4.5-15.7c-2.4-8.7-2.8-17.5-1-26.4c1-5.1,2.3-10.1,3.6-15.1c2.6-9.6,4.7-19.3,5.1-29.3
	c0.2,0,0.4,0,0.6,0c0.1,0.2,0.2,0.3,0.2,0.5c0.7,4.8,2,9.4,3.3,14.1c1.6,5.6,3.4,11.1,4.5,16.7c0.8,4.3,1.4,8.6,1.1,13.1
	c-0.4,4.9-1.2,9.7-2.3,14.5C342.2,206.5,341.5,208.3,341.4,210.3z"/>
<path class="st8" d="M335.3,145.7c-0.4,10-2.5,19.7-5.1,29.3c-1.3,5-2.6,10-3.6,15.1c-1.8,8.9-1.5,17.7,1,26.4
	c1.5,5.2,3,10.5,4.5,15.7c1.2,4.4,2.1,8.9,2.9,13.4c0.3-2.5,0.3-5,0.6-7.4c0.7-7.4,2.3-14.6,4.2-21.7c0.2-0.8,0.2-1.8,0.8-2.5
	c0.5,1.1,1,2.2,1.5,3.3c-0.8,0.4-0.8,1.3-1,2c-1,3.9-1.9,7.8-2.5,11.8c-0.5,3.3-1,6.6-1.2,9.9c-0.3,5.4,0.1,10.7,1.2,16
	c0.6,3.3,1.6,6.5,3.5,9.3c1.7,2.5,3.9,4.3,6.8,5c2.1,0.5,4.2,0.9,6.5,0.6c1.9-0.3,3.8-0.5,5.7-0.9c0.3,0.6,0.6,1.1,0.6,1.7
	c-3.6,1.2-7.2,1.4-10.9,1c-4.7-0.5-8.4-2.8-10.8-7c-1.5-2.5-2.4-5.2-3-8.1c-0.4-1.5-0.7-3.1-1-4.6c-0.1-1.4-0.2-2.9-0.3-4.4
	c-0.2,1.5-0.5,2.9-0.2,4.4c-0.8,4.9-2.7,9.4-5.8,13.4c-3.5,4.4-8.2,6.5-13.7,6.7c-5.1,0.2-9.9-1-14.4-3.4c-4.5-2.4-8.3-5.6-11.8-9.2
	c-6.9-7.3-12.1-15.7-16.2-24.8c-0.4-0.9-0.8-1.8-1.2-2.6c0.9,0,1.9,0,2.8,0c-0.3,0.8,0.1,1.4,0.4,2c2.8,5.9,5.9,11.6,9.8,16.9
	c3.9,5.3,8.4,10.2,13.8,14c5.5,3.8,11.5,5.7,18.2,5.1c3.4-0.3,6.5-1.6,9-4c3.7-3.5,5.6-8,6.8-12.9c0.1-0.4,0.1-0.9,0.1-1.3
	c0.1-3.9-0.2-7.7-0.9-11.6c-0.9-4.9-2.2-9.8-3.6-14.6c-1.6-5.5-3.2-11-4.3-16.6c-1-5.1-1.1-10.2-0.6-15.2c0.6-5.7,1.9-11.3,3.3-16.8
	c2.3-8.8,4.7-17.5,5.7-26.5c0.3-3,0.1-6,0.7-8.9c0-0.2,0-0.5-0.1-0.8c-0.3-2.2-0.6-4.4-0.8-6.5c-0.3-2.9-0.9-5.7-1.8-8.5
	c-0.6-2-1.6-3.9-2.9-5.6c-1.2-1.6-2.7-2.8-4.5-3.6c-1.8-0.8-3.7-1.3-5.6-1.3c-5.3-0.1-10.3,1.2-14.9,3.8c-1.2,0.7-2.4,1.4-3.6,2.1
	c0-0.8,0-1.5-0.1-2.3c0.8-0.4,1.5-0.9,2.3-1.3c5.7-3.1,11.7-4.8,18.2-4c4.9,0.6,8.6,3,11,7.3c1.4,2.4,2.3,5,2.8,7.6
	c0.5,2.3,0.9,4.6,1.4,7.4c0.1-1.7,0-2.9,0.3-4.1c1-4.2,2.6-8.2,5.3-11.7c2.3-3,5.3-5.2,8.9-6.2c1.2-0.3,2.4-0.5,3.6-0.8
	c0,0.7,0,1.4,0,2.1c-0.7-0.1-1.4,0-2.1,0.2c-4.8,1.2-8.2,4.2-10.6,8.4c-1.2,2.1-2,4.3-2.7,6.6c-0.4,1.1-0.5,2.2-0.5,3.4
	c-0.1,4.7,0.6,9.3,1.5,13.8c1,4.6,2.3,9.2,3.6,13.7c1.6,5.6,3.2,11.1,4.1,16.9c0.7,4.5,0.6,9,0.2,13.4c-0.4,4.5-1.4,9-2.5,13.4
	c-0.5,1.9-0.7,4-1.7,5.8c-0.4-0.1-0.8-0.3-0.9-0.8c-0.1-0.6-0.1-1.2-0.1-1.8c0.1-1.9,0.8-3.8,1.2-5.6c1.1-4.8,1.9-9.6,2.3-14.5
	c0.3-4.4-0.3-8.8-1.1-13.1c-1.1-5.7-2.9-11.2-4.5-16.7c-1.3-4.6-2.6-9.3-3.3-14.1c0-0.2-0.1-0.3-0.2-0.5c-0.1-1.5-0.3-3-0.4-4.4
	c0,0-0.1,0-0.1,0C335.3,142.8,335.3,144.3,335.3,145.7z"/>
<path class="st9" d="M342.4,212.9c1-1.8,1.2-3.9,1.7-5.8c1.1-4.4,2.1-8.9,2.5-13.4c0.4-4.5,0.4-8.9-0.2-13.4
	c-0.8-5.8-2.4-11.3-4.1-16.9c-1.3-4.5-2.7-9.1-3.6-13.7c-0.9-4.6-1.6-9.2-1.5-13.8c0-1.2,0.2-2.3,0.5-3.4c0.7-2.3,1.5-4.5,2.7-6.6
	c2.4-4.2,5.8-7.2,10.6-8.4c0.7-0.2,1.4-0.3,2.1-0.2c0,1.2,0,2.5,0,3.7c-1.8,0.3-3.4,1-4.9,1.9c-3.1,2.1-5.5,4.6-6,8.6
	c-0.1,0.8-0.2,1.6-0.3,2.4c-1.2,7.8-0.5,15.4,2.3,22.8c2.3,6,5.4,11.6,8.9,17c0,4,0.1,8.1,0.1,12.1c0,0.8-0.2,1.3-0.9,1.7
	c-0.9,0.5-1.4,1.3-1.4,2.4c0,1.4,0.7,2.4,1.9,2.8c1.2,0.4,2.6,0,3.3-1c0.8-1,0.8-2.4,0-3.4c-0.2-0.2-0.3-0.5-0.5-0.6
	c-1.5-0.6-1.4-1.8-1.4-3.1c0.1-2.6-0.2-5.3,0.2-7.9c2.9,5.1,4.7,10.6,4.5,16.5c-0.1,3.1-0.9,6.1-1.9,9c-1.2,3.2-2.9,6.2-4.6,9.2
	c-2.3,4-4.6,7.9-6.8,11.9c-0.7-1.8-1.3-3.5-2-5.3c-0.3-0.9-0.7-1.8-1-2.6c0-0.4-0.1-0.7-0.3-1C342.3,214,342.3,213.5,342.4,212.9z"
	/>
<path class="st4" d="M377.4,312.5c-0.9-2.5-1.9-4.9-2.7-7.4c-2.8-7.6-5.5-15.3-8.2-23c-0.3-0.8-0.8-1.6-0.6-2.5
	c2.4-0.5,4.8-1,7.2-1.4c4.6-0.7,8.5,0.6,11.5,4.2c1.9,2.4,3.9,4.8,5.7,7.2c0.5,0.7,1,1.5,1.4,2.2c1.2,2.2,1.4,4.5,0.6,6.9
	c-0.7,2.1-1.9,3.9-3.4,5.6C385.7,307.9,381.7,310.4,377.4,312.5z"/>
<path class="st6" d="M377.4,312.5c4.3-2.1,8.3-4.6,11.5-8.2c1.5-1.7,2.7-3.4,3.4-5.6c0.8-2.4,0.6-4.7-0.6-6.9
	c-0.4-0.8-0.9-1.5-1.4-2.2c-1.9-2.4-3.8-4.8-5.7-7.2c-3-3.6-6.9-4.9-11.5-4.2c-2.4,0.4-4.8,0.9-7.2,1.4c-0.9-1.3-1.2-2.8-1.7-4.3
	c0.1-0.7,0.5-1.1,1.1-1.4c4.2-1.6,8.5-2.9,13.1-2.4c3.4,0.4,6.4,1.9,8.9,4.2c1,0.9,2,1.8,2.6,2.9c0.2,0.3,0.4,0.5,0.7,0.8
	c2.1,2.3,4.3,4.6,6.4,7c2.3,2.5,3.8,5.5,3.8,9c0,1.9-0.8,3.6-1.4,5.3c-0.7,1.7-1.8,3.2-3,4.6c-4.2,4.6-9.2,8.1-14.7,10.9
	c-0.7,0.4-1.5,0.5-1.9,1.3C378.2,316.1,378,314.2,377.4,312.5z"/>
<path class="st4" d="M344.7,225.5c1.2,2.3,1.8,4.7,2.7,7.1c3.6,10,7.2,20,10.8,30c0.2,0.7,0.4,1.3,0.6,2c-1.3,0-2.6,0.1-3.9,0.1
	c-3.3-0.1-6.1-1.3-8.4-3.7c-1.5-1.5-2.7-3.3-3.4-5.3c-2-5.5-2.9-11.1-2.2-17C341.3,234.1,342.5,229.7,344.7,225.5z"/>
<path class="st9" d="M344.7,225.5c-2.2,4.2-3.4,8.6-3.9,13.3c-0.7,5.9,0.2,11.5,2.2,17c0.7,2,1.9,3.7,3.4,5.3
	c2.3,2.4,5.1,3.6,8.4,3.7c1.3,0,2.6-0.1,3.9-0.1c0.8,2,1.7,4.1,2.1,6.2c-1.9,0.4-3.8,0.6-5.7,0.9c-2.3,0.4-4.4-0.1-6.5-0.6
	c-3-0.7-5.1-2.5-6.8-5c-1.9-2.8-2.9-6-3.5-9.3c-1-5.3-1.5-10.6-1.2-16c0.2-3.3,0.7-6.6,1.2-9.9c0.6-4,1.5-7.9,2.5-11.8
	c0.2-0.7,0.2-1.6,1-2c0.8,2.2,1.5,4.4,2.3,6.6C344.5,224.3,344.6,224.9,344.7,225.5z"/>
<path class="st9" d="M360.1,264.3c4.6-0.8,8.6-2.9,12.4-5.6c3.3-2.3,5.9-5.3,8.2-8.5c1.7-2.4,3.3-5,4.8-7.6c0.3-0.5,0.7-1,1-1.5
	c0.8,0.6,1,1.6,1.6,2.3c0.1,0.2,0.2,0.4,0.4,0.7c0,0.1,0,0.2,0,0.3c-0.7,1.1-1.4,2.2-2,3.4c-3.1,5.2-6.6,10.1-11,14.3
	c-3.1,3-6.6,5.5-10.6,7.2c-0.9,0.4-1.8,0.8-2.8,0.6C361.4,268.1,360.8,266.2,360.1,264.3z"/>
<path class="st8" d="M362.1,270c1,0.2,1.9-0.2,2.8-0.6c4-1.7,7.4-4.3,10.6-7.2c4.4-4.2,7.9-9.1,11-14.3c0.7-1.1,1.4-2.2,2-3.4
	c0.3,0.7,1.1,1.2,1.2,2.1c-0.6,0.4-0.8,1.1-1.2,1.7c-1.4,2.4-2.9,4.8-4.6,7.1c-4.5,6.2-9.8,11.5-16.6,15.1c-1.5,0.6-2.9,1.2-4.4,1.7
	C362.6,271.5,362.3,270.8,362.1,270z"/>
<path class="st9" d="M349.3,234c1-2.1,1.4-4.3,2.2-6.5c0.2-0.6,0.3-1.2,0.6-1.7c0.8-1.8,2.9-2.7,4.8-2.2c1.6,0.5,2.6,1.8,2.6,3.5
	c0,0.6-0.1,1.2-0.3,1.8c-0.7,2.3-1.3,4.5-2,6.8c-0.9,2.9-2.2,3.7-5.3,3.3c-0.3,0-0.5-0.1-0.8-0.1C350.5,237.3,349.9,235.7,349.3,234
	z M353.2,237.2c1,0,1.6-0.3,1.9-1.1c0.9-2.8,1.7-5.7,2.5-8.5c0.2-0.6,0-1-0.4-1.4c-1.2-1.2-2.9-0.8-3.5,1c-0.9,2.6-1.6,5.3-2.5,8
	c-0.2,0.6,0,1,0.4,1.4C352.1,237,352.6,237.3,353.2,237.2z"/>
<path class="st4" d="M362.9,272.3c1.5-0.6,2.9-1.2,4.4-1.7c0.2,0.2,0.4,0.3,0.6,0.5c-1.5,0.6-3.1,1.1-4.6,1.7
	C363.1,272.5,363,272.4,362.9,272.3z"/>
<path class="st8" d="M342.2,214.5c0.3,0.3,0.3,0.6,0.3,1C342.1,215.3,341.9,215,342.2,214.5z"/>
<path class="st6" d="M259.1,90.4c0.2,0,0.3-0.1,0.5-0.1c6.1-0.1,12.3-0.2,18.4,0c0.1,1.1,1.1,1.8,1.5,2.8c1.3,2.9,3.3,5.4,5.3,7.8
	c2.2,2.8,4.2,5.6,5.5,8.9c1.1,3.1,1.1,6.1,0.1,9.2c-1,2.8-2.6,5.2-4.5,7.4c-3.2,3.8-6.4,7.7-9.8,11.4c-2.1,2.3-4,4.7-5.9,7.1
	c-3,3.8-5.3,8-7.2,12.5c-2.3,5.3-3.4,10.9-4.4,16.5c-0.6,3.5-1,7.1-1.7,10.6c-0.8,3.9-1.8,7.7-3.7,11.2c-0.5,0.9-1.3,1.6-1.6,2.7
	c-0.7,0.1-1.4,0.2-2.1,0.2c-10.9,0-21.8,0-32.7,0c-0.5,0-1.1-0.1-1.6-0.1c-0.5-1.5-1.1-3-1.6-4.4c-0.6-1.7-0.9-3.5-1.2-5.4
	c-0.5-3.2-0.3-6.5-0.4-9.7c-0.1-2.6,0.4-5.1,0.8-7.5c0.2-1,0.3-2.1,0.5-3.1c1.1-6.2,3.4-12.1,5.7-18c2.6-6.9,5.6-13.6,8.9-20.2
	c4.2-8.1,8.9-15.9,14.4-23.3c1.2-1.7,2.7-3.2,4.1-4.8c1-1.1,1.9-2.3,2.9-3.4c2.4-2.4,5.1-4.5,7.9-6.5
	C258,91.7,258.9,91.5,259.1,90.4z M217.3,179.4c-0.1,3.2,0.4,6.3,1.1,9.4c0.3,1.2,0.6,2.4,1.2,3.5c2.2,4,5.6,6,10.2,5.7
	c3.2-0.2,6.5-0.6,9.7-0.9c3.3-0.3,5.8-1.9,7.7-4.5c1.5-2.2,2.8-4.5,3.4-7.1c0.7-3,1.5-6,2.1-9c1.2-5.9,2.3-11.7,4.2-17.4
	c2.6-7.6,6.7-14.3,11.7-20.5c3.6-4.4,7.2-8.9,10.8-13.3c1.6-1.9,2.8-4,3.8-6.3c1-2.4,1.4-4.9,0.6-7.5c-0.6-1.9-1.6-3.5-2.9-5
	c-2.5-2.9-5.3-5.7-7.3-9c-1.1-1.7-2.9-2.5-5-2.6c-2.3-0.1-4.6,0.2-6.7,1.3c-2.4,1.2-4.6,2.6-6.6,4.3c-5,4.1-9.2,9-12.8,14.3
	c-10.3,14.8-17.4,31.1-22.9,48.2C218,168.3,217.5,173.8,217.3,179.4z"/>
<path class="st4" d="M306.5,71.2c0,3.2,0,6.5,0.1,9.7c0,0.8-0.1,1.5-1,1.9c-0.7,0.3-1,0.9-1.3,1.6c-0.4,1.3,0.1,2.7,1.3,3.4
	c1.2,0.7,2.9,0.4,3.8-0.7c0.9-1.1,0.9-2.6,0.1-3.6c-0.1-0.1-0.2-0.3-0.4-0.4c-1.6-0.6-1.5-1.9-1.5-3.3c0.1-3.1,0.1-6.1,0.1-9.2
	c2.3-0.4,4.7-0.8,7-1.1c2.5-0.3,5.1-0.3,7.6-0.7c3.8-0.6,7.7-0.7,11.5-0.8c6.4-0.3,12.8-0.3,19.2,0.5c0,0.7,0.1,1.4,0.1,2.1
	c0,10.9,0,21.8,0,32.7c0,0.7-0.1,1.4-0.1,2.1c-3.3,0.3-6.5-0.3-9.7-0.7c-2.6-0.4-5.2-1-7.8-1.2c-4.9-0.4-9.8-0.1-14.6,1.4
	c-3.1,0.9-6.2,1.9-9.3,2.7c-4.3,1.2-8.5,1-12.4-1.6c0-4.5,0-9-0.1-13.5c-0.1-4.2,0.7-3.7-3.8-3.8c-2.2,0-4.4,0.2-6.6-0.2
	c-0.1-0.9-0.1-1.7-0.2-2.6c-0.1-2.3,0.6-4.3,1.9-6.1c1.1-1.5,2.4-2.8,4-3.8c2.2-1.4,4.6-2.6,7-3.6C303.1,71.9,304.7,71.3,306.5,71.2
	z M330.7,76c-0.2,0-0.8,0-1.3,0c-2.8,0.2-5.1,1.4-6.8,3.5c-2.3,2.6-2.2,6.1,0.1,8.6c0.5,0.5,1,1,1.6,1.4c3.6,2.4,9.9,3.1,14.1-1.1
	c3.7-3.6,2.9-7.9-0.7-10.6c-0.7-0.5-1.5-0.9-2.3-1.2C334,76.2,332.5,75.9,330.7,76z"/>
<path class="st9" d="M387.2,239.4c1.8-4,3.7-8,5.4-12c3.4-8.2,5.9-16.7,7.3-25.5c1.1-7.1,1.3-14.3,0.3-21.6
	c-1.9-14.4-7-27.5-14.9-39.7c-2.6-4.1-5.7-7.8-9.2-11.2c-1.9-1.8-3.9-3.3-6-4.8c-4-2.7-8.4-4-13.2-3.9c-0.9,0-1.8,0-2.6,0.1
	c0-1.1-0.1-2.3-0.1-3.4c1.9-0.5,3.9-0.3,5.8,0c3.8,0.6,7.3,2.1,10.4,4.2c3.7,2.5,7.1,5.4,10.1,8.9c11.1,12.7,17.8,27.5,21.6,43.8
	c1.6,7.1,2.2,14.4,1.7,21.7c-0.3,4.6-1.1,9.2-2.1,13.8c-2.6,10.9-6.5,21.3-11.6,31.3c-0.2,0.4-0.4,0.8-0.7,1.1
	c-0.1,0.1-0.5,0.1-0.7,0.1C388.1,241.4,387.7,240.4,387.2,239.4z"/>
<path class="st6" d="M354.7,69c0-0.4,0-0.9,0-1.3c0-0.6-0.2-1.3,0.3-1.8c0.5-0.6,1.1,0,1.7,0.1c4.6,0.4,8.9,1.7,13,3.8
	c1.7,0.8,3.1,1.9,4.5,3.2c1.4,1.3,2.2,2.9,2.9,4.6c0.5,1.2,0.4,2.5,0.2,3.6c-0.3,1.4-0.6,2.7-1.3,4c-1.9,3.5-3.3,7.2-4.5,11
	c-0.8,2.4-2,4.7-3.2,6.9c-1.1,2-2.7,3.5-4.3,5c-0.9,0.8-1.9,1.3-3,1.6c-1.5,0.4-3.1,0.8-4.6,1.1c-1.2,0.2-1.7-0.2-1.7-1.4
	c0-0.7,0-1.4,0-2.1c0-0.5-0.1-0.9-0.4-1.2c0-0.3,0-0.7,0.1-1c2.9-0.1,4.9-1.7,6.6-3.8c1.2-1.5,2.1-3.3,2.7-5.1
	c0.6-1.8,1.1-3.5,1.5-5.3c0.5-2,1-4.1,1.9-6c0.5-1.1,0.8-2.3,1-3.5c0.5-2.7-0.3-5-2.1-7c-1-1.1-2.2-2-3.6-2.7
	C360,70.4,357.3,69.7,354.7,69z"/>
<path class="st1" d="M353.1,115.2c-1.2,0.3-2.4,0.4-3.6,0.8c-3.7,1.1-6.6,3.2-8.9,6.2c-2.7,3.5-4.2,7.5-5.3,11.7
	c-0.3,1.2-0.2,2.4-0.3,4.1c-0.5-2.8-0.9-5.1-1.4-7.4c-0.6-2.7-1.5-5.2-2.8-7.6c-2.4-4.3-6.1-6.7-11-7.3c-6.5-0.8-12.5,0.9-18.2,4
	c-0.8,0.4-1.5,0.9-2.3,1.3c0-2,0-3.9,0-5.9c0.8,0.1,1.6,0.2,2.3,0.4c1.3,0.3,2.6,0.3,3.9,0.1c2.9-0.5,5.7-1.1,8.4-2.1
	c2.6-1,5.3-1.9,8-2.7c3.2-1,6.5-1.4,9.9-1.5c4.6-0.2,9.1,1,13.5,1.9c2.6,0.6,5.2,1.1,7.8,1.3C353.1,113.4,353.1,114.3,353.1,115.2z"
	/>
<path class="st4" d="M354.7,69c2.7,0.6,5.3,1.3,7.7,2.6c1.3,0.7,2.6,1.5,3.6,2.7c1.8,2,2.6,4.3,2.1,7c-0.2,1.2-0.5,2.4-1,3.5
	c-0.8,1.9-1.4,4-1.9,6c-0.4,1.8-1,3.6-1.5,5.3c-0.6,1.9-1.4,3.6-2.7,5.1c-1.7,2.1-3.8,3.7-6.6,3.8c0-1-0.1-1.9-0.1-2.9
	c0-11,0-22,0-33C354.4,69.2,354.6,69.2,354.7,69z"/>
<path class="st4" d="M353,173.8c-3.4-5.4-6.6-11-8.9-17c-2.8-7.4-3.5-15-2.3-22.8c0.1-0.8,0.2-1.6,0.3-2.4c0.5-3.9,2.9-6.5,6-8.6
	c1.5-1,3.1-1.6,4.9-1.9c0.2,2.8,0.2,5.7,0,8.5c-0.2-0.1-0.3-0.1-0.5-0.2c-2.8-0.9-4.2-0.3-5.5,2.3c-1,2.1-1.9,4.1-2.9,6.2
	c-0.4,0.9-0.7,1.8-0.7,2.8c0,2,1.5,3.4,3.1,3.8c1.5,0.4,3-0.3,4-1.9c0.3-0.4,0.4-1,0.7-1.4c0.6-1.2,1-2.4,1.8-3.5
	c0,0.7,0.1,1.4,0.1,2.1c0,10.6,0,21.2,0,31.8C353.1,172.4,353.1,173.1,353,173.8z"/>
<path class="st10" d="M354.4,146.4c0.6-0.6,0.8-1.4,1.1-2.1c1-1.9,2.2-3.6,4-4.8c2.8-1.8,5.8-2,8.9-1.3c2.2,0.5,4.1,1.6,5.9,2.8
	c3.9,2.5,7,5.8,9.5,9.8c3,4.8,4.7,10,5.8,15.5c0.8,4.5,0.7,8.9,0.5,13.4c-0.1,2.2-0.7,4.4-1.7,6.3c-2.4,4.8-6.1,6.5-11.6,5.6
	c-4.5-0.8-7.6-3.6-9.1-7.9c-1-2.6-1.9-5.3-2.8-8c-0.6-1.9-1.6-3.5-2.9-5c-2.9-3.2-5.3-6.8-6.8-10.9c-0.2-0.5-0.5-0.9-0.7-1.4
	C354.2,154.4,354.2,150.4,354.4,146.4z M378.9,189.7c0.2,0,0.4,0,0.5,0c3.4,0.1,5.7-1.4,7.1-4.5c0.4-1,0.8-1.9,1-3
	c0.5-2.8,0.8-5.5,0.9-8.3c0-0.5,0-1.1-0.2-1.6c-0.3-0.9-0.3-1.7-0.3-2.6c0-0.7,0-1.4-0.1-2.1c-0.9-4.7-2.1-9.2-4.4-13.5
	c-3.1-5.8-7.4-10.4-13.5-13.2c-1.5-0.7-2.9-1-4.6-1c-3.5-0.1-5.9,1.6-7.6,4.4c-2,3.4-2.6,7.1-2,10.9c0.8,4.5,2.9,8.6,5.9,12.2
	c1.1,1.3,2.3,2.7,3.2,4.2c1.4,2.3,2.5,4.8,3.2,7.5c0.3,1.4,0.9,2.6,1.3,4C370.7,187.1,374.8,190.1,378.9,189.7z"/>
<path class="st6" d="M299.3,106.2c3.9,2.6,8.1,2.8,12.4,1.6c3.1-0.8,6.2-1.8,9.3-2.7c4.8-1.4,9.7-1.8,14.6-1.4
	c2.6,0.2,5.2,0.8,7.8,1.2c3.2,0.5,6.4,1.1,9.7,0.7c0,1.6,0,3.2,0,4.8c-0.9,0-1.8,0.1-2.6-0.1c-3.6-0.7-7.2-1.5-10.7-2.3
	c-1.2-0.3-2.4-0.6-3.6-0.7c-3.8-0.2-7.5-0.2-11.2,0.6c-4,0.9-7.9,2.2-11.7,3.7c-3.3,1.3-6.6,2.1-10.2,2c-1.3,0-2.4-0.6-3.6-0.6
	C299.1,110.7,299.2,108.4,299.3,106.2z"/>
<path class="st6" d="M353,68.7c-6.4-0.8-12.8-0.8-19.2-0.5c-3.8,0.2-7.7,0.3-11.5,0.8c-2.5,0.4-5.1,0.4-7.6,0.7
	c-2.3,0.3-4.7,0.7-7,1.1c-0.1-1.2-0.2-2.4,0.1-3.6c3,0,5.9-0.5,8.8-1c0.5-0.1,1-0.1,1.6-0.1c1.2,0,2.5,0.1,3.6-0.4
	c0.1,0,0.2,0,0.3,0c2.7,0.2,5.4-0.6,8.1-0.6c6.3,0,12.6,0,18.9,0c1.3,0,2.6,0.1,3.9,0.6C353.1,66.6,353,67.6,353,68.7z"/>
<path class="st0" d="M299.3,113c1.2,0,2.3,0.6,3.6,0.6c3.6,0.1,6.9-0.7,10.2-2c3.8-1.5,7.7-2.8,11.7-3.7c3.7-0.8,7.5-0.8,11.2-0.6
	c1.2,0.1,2.4,0.4,3.6,0.7c3.6,0.8,7.1,1.6,10.7,2.3c0.8,0.2,1.7,0.1,2.6,0.1c0,0.7,0,1.4,0,2.1c-2.6-0.3-5.2-0.8-7.8-1.3
	c-4.5-0.9-8.9-2.1-13.5-1.9c-3.4,0.1-6.7,0.5-9.9,1.5c-2.7,0.8-5.4,1.7-8,2.7c-2.7,1-5.6,1.6-8.4,2.1c-1.3,0.2-2.6,0.2-3.9-0.1
	c-0.8-0.2-1.6-0.3-2.3-0.4C299.2,114.3,299.3,113.7,299.3,113z"/>
<path class="st9" d="M353.1,137.7c-0.9,1-1.2,2.3-1.8,3.5c-0.2,0.5-0.4,1-0.7,1.4c-0.9,1.6-2.5,2.3-4,1.9c-1.6-0.4-3.1-1.8-3.1-3.8
	c0-1,0.3-1.9,0.7-2.8c1-2.1,1.9-4.1,2.9-6.2c1.2-2.7,2.6-3.3,5.5-2.3c0.2,0.1,0.3,0.1,0.5,0.2C353.1,132.3,353.1,135,353.1,137.7z
	 M352.6,133.3c0.1-1.7-0.7-2.4-2.1-2.3c-0.7,0-1.1,0.5-1.4,1c-1.2,2.6-2.5,5.2-3.6,7.9c-0.4,0.9,0.2,2.2,1.1,2.6
	c0.9,0.4,1.8,0,2.3-1.1c1-2,2-4.1,3-6.1C352.3,134.6,352.4,133.8,352.6,133.3z"/>
<path class="st4" d="M300.2,137c-0.7-0.1-1.1-0.4-1.1-1.2c0.1-2.1,0.1-4.2,0.1-6.3c1.8-0.9,3.6-1.9,5.4-2.8c3.5-1.6,7.2-2.3,11-2.1
	c2.4,0.1,4.5,0.9,6.4,2.1c2.7,1.8,4.4,4.4,5.4,7.3c2.4,6.6,2.9,13.4,1.5,20.2c-1,4.5-2.7,8.7-4.9,12.8c-1.9,3.4-3.8,6.7-5.8,10.1
	c-1.5,2.6-2.9,5.2-4.2,7.9c-1.9,4.1-3,8.4-2.7,13c0.2,3.9,1.3,7.6,2.9,11.2c1.3,3,2.9,5.8,4.5,8.7c1.9,3.4,3.9,6.7,5.5,10.2
	c1.9,4.2,3.4,8.5,4.1,13c0.7,4.3,0.5,8.6,0.3,12.9c-0.1,1.8-0.6,3.6-0.9,5.4c-0.1,0.6-0.3,1.2-0.6,1.7c-2.4,3.9-5.7,6.4-10.3,7.1
	c-2,0.3-4,0.4-6,0.1c-3.4-0.4-6.5-1.4-9.4-3.1c-2.7-1.6-5.1-3.4-7.3-5.6c-7.5-7.3-12.8-16-16.8-25.6c1.9,0,3.8,0,5.6,0
	c0.4,1.6,0.7,3.3,1.2,4.9c2.1,7.3,5.7,13.6,11.6,18.5c2.5,2.1,5.3,3.8,8.5,4.7c4.8,1.3,9.1-0.3,11.8-4.3c1-1.5,1.7-3.1,2.2-4.8
	c1-3.6,0.9-7.3-0.2-10.9c-1.3-4.3-3.4-8.1-6.4-11.4c-2.1-2.3-3.7-4.9-4.5-7.9c-0.6-1.9-1.3-3.8-1.9-5.8c-1.4-4.5-6.1-8.8-12.3-8.5
	c-4,0.2-6.8,2.1-8.6,5.6c-1,2-1.6,4.1-1.8,6.3c-0.3,4.1-0.4,8.3,0.2,12.4c-2,0.2-4.1,0.2-6.1,0c-0.1-0.3-0.2-0.7-0.3-1
	c-3.8-9.7-6.4-19.6-6.7-30c1.8-2.2,1.8-3,0-5.3c0.3-2.8,0.4-5.6,0.8-8.4c1.1-7.1,2.9-14.1,5.3-20.9c1.6-4.4,3.3-8.7,5.3-12.9
	c3-6.5,6.4-12.7,10.9-18.3c1.7-2.1,3.6-4,5.9-5.5c0,1.5,0.1,3,0.2,4.4c0.1,1-0.3,1.6-1.2,2.1c-0.3,0.2-0.6,0.4-0.8,0.6
	c-1.4,0.2-2.1,1.2-2.4,2.5c-0.3,1.3,0.2,2.4,1.1,3.3c0.7,0.7,1.6,1.1,2.6,1c1-0.1,2.1-0.3,3.1-0.5c1.7-0.3,3.4-0.7,5.2-1
	c0.8-0.2,1.5-0.6,1.9-1.3c0.7-1.1,0.9-2.3,0.3-3.5c-0.6-1.3-1.6-2.1-3.1-2.1C303.1,136.2,301.7,136.7,300.2,137z M299.4,168.4
	c-1.7-0.1-3.7,0.5-5.5,1.7c-5.5,3.5-5.4,10.5-1.7,14.1c4.2,4,10.7,4.1,14.9,0.3c3.3-3,4.4-7.9,1.3-12.1
	C306.2,169.7,303.3,168.4,299.4,168.4z M276.1,206.5c1.4-0.1,2.5-0.7,3.3-1.7c1.8-2.1,3.7-4.2,5.5-6.4c0.2-0.2,0.3-0.4,0.5-0.6
	c1.1-1.7,0.6-4-1.3-5c-1.6-0.9-3.5-0.7-4.8,0.7c-2.2,2.3-4.2,4.7-6.3,7.1c-0.9,1.1-1.1,2.4-0.4,3.7
	C273.3,205.7,274.6,206.4,276.1,206.5z M320.3,153c0-1.1-0.3-1.8-0.8-2.5c-2-2.3-5.6-1.7-6.7,1.1c-1.1,3-1.9,6-2.7,9.1
	c-0.4,1.7,0.9,3.6,2.6,4c2.3,0.6,4.3-0.5,5-2.7c0.9-2.7,1.6-5.4,2.4-8.1C320.3,153.6,320.3,153.1,320.3,153z M292.4,160.2
	c0-1.8-1.5-3.5-3.2-3.7c-1.5-0.2-2.8,0.1-3.8,1.3c-1.8,2.4-3.6,4.7-5.4,7.1c-0.1,0.1-0.2,0.3-0.3,0.5c-0.6,1.1-0.5,2.2,0,3.3
	c1.3,2.5,4.8,2.9,6.6,0.6c1.8-2.2,3.5-4.6,5.3-6.9C292.1,161.7,292.4,160.9,292.4,160.2z M314.8,219.2c-3-0.1-4.7,2.1-3.8,4.9
	c0.1,0.3,0.2,0.5,0.3,0.7c0.9,2.2,1.8,4.4,2.7,6.6c0.2,0.5,0.4,1,0.7,1.4c1,1.6,3.2,2.2,4.9,1.5c1.9-0.9,2.7-2.7,2-4.8
	c-0.3-0.7-0.6-1.5-0.9-2.2c-0.8-1.9-1.6-3.9-2.5-5.8C317.6,220,316.4,219.1,314.8,219.2z"/>
<path class="st1" d="M297.7,114.1c0.5,2.2,0.4,6.4-0.1,8.3c-0.9,0.4-1.6,1.1-2.3,1.7c-4.8,4.1-8.6,9-11.9,14.4
	c-3.2,5.2-5.9,10.6-8.3,16.1c-6.2,14-10.3,28.5-10.7,44c-3.5,0-7.1,0-10.6,0c1.2-2.2,2.5-4.4,3.2-6.9c0.9-2.8,1.6-5.6,2-8.4
	c0.7-4.2,1.4-8.3,2.1-12.5c0.6-4.2,2-8.2,3.5-12.1c1.2-3.1,2.7-6.1,4.5-8.9c1.9-2.8,4-5.6,6.3-8.1c3.4-3.8,6.8-7.6,10.1-11.5
	c1.8-2.1,3.5-4.2,4.9-6.5c1.9-3.2,2.8-6.6,2.6-10.3c0-0.6-0.3-1.2,0.2-1.9C294.6,112.5,295.9,113.7,297.7,114.1z"/>
<path class="st1" d="M242.8,205c3.7-0.7,6.9-2.2,9.4-5.1c2-0.3,4-0.1,6-0.1c2,0,4,0,6,0c0.1,0.6,0.2,1.2,0.3,1.8
	c0.3,5.8,1.2,11.5,2.6,17.1c1.2,4.8,2.8,9.6,4.6,14.2c-2.1,0.1-4.1,0.2-6.2,0c-1.3-4.9-2.5-9.9-4.3-14.6c-0.8-2.1-1.6-4.1-2.8-5.9
	c-2.9-4.3-7-6.6-12.1-6.8c-1.1-0.1-2.3,0-3.4-0.1C242.9,205.3,242.9,205.2,242.8,205z"/>
<path class="st0" d="M297.7,114.1c-1.7-0.4-3-1.6-4.5-2.7c-0.5,0.7-0.2,1.3-0.2,1.9c0.3,3.7-0.7,7.1-2.6,10.3
	c-1.4,2.4-3.1,4.5-4.9,6.5c-3.3,3.9-6.7,7.7-10.1,11.5c-2.3,2.6-4.3,5.3-6.3,8.1c-1.9,2.8-3.4,5.8-4.5,8.9
	c-1.5,3.9-2.8,7.9-3.5,12.1c-0.6,4.2-1.4,8.3-2.1,12.5c-0.5,2.9-1.2,5.7-2,8.4c-0.8,2.4-2.1,4.6-3.2,6.9c-0.7,0-1.4-0.1-2.2-0.1
	c0.2-1.1,1-1.8,1.6-2.7c1.9-3.5,2.9-7.3,3.7-11.2c0.7-3.5,1.1-7.1,1.7-10.6c1-5.6,2.1-11.2,4.4-16.5c1.9-4.4,4.2-8.7,7.2-12.5
	c1.9-2.4,3.8-4.8,5.9-7.1c3.4-3.7,6.6-7.5,9.8-11.4c1.8-2.2,3.5-4.6,4.5-7.4c1.1-3.1,1-6.1-0.1-9.2c-1.2-3.4-3.3-6.2-5.5-8.9
	c-1.9-2.5-3.9-5-5.3-7.8c-0.4-1-1.4-1.7-1.5-2.8c1.2,0,2.5,0,3.7-0.1c0.4,1.9,1.4,3.6,2.4,5.2c2.3,3.6,4.6,7.2,7.2,10.7
	c1.7,2.3,3.6,4.5,6.3,5.8C297.7,112.7,297.7,113.4,297.7,114.1z"/>
<path class="st9" d="M297.8,130.7c-2.3,1.5-4.2,3.4-5.9,5.5c-4.5,5.5-7.9,11.8-10.9,18.3c-2,4.2-3.7,8.5-5.3,12.9
	c-2.5,6.8-4.2,13.7-5.3,20.9c-0.4,2.8-0.6,5.6-0.8,8.4c-1,0-2-0.1-3-0.1c-0.2-2.7,0.3-5.4,0.6-8.1c0.8-5.9,2.1-11.7,3.9-17.4
	c2.8-9,6.5-17.6,10.9-25.9c2.6-4.9,5.6-9.6,9.1-13.8c1.6-1.9,3.5-3.7,5.3-5.5c0.5-0.5,1-0.7,1.6-0.3c0,1.3,0,2.6,0,3.9
	c0,0.1-0.1,0.1-0.1,0.2c0,0.1,0,0.3,0.1,0.4C297.9,130.2,297.9,130.4,297.8,130.7z"/>
<path class="st8" d="M298,125.4c-0.6-0.5-1.2-0.2-1.6,0.3c-1.8,1.8-3.7,3.5-5.3,5.5c-3.6,4.2-6.6,8.9-9.1,13.8
	c-4.4,8.3-8.1,16.9-10.9,25.9c-1.8,5.7-3.1,11.5-3.9,17.4c-0.4,2.7-0.8,5.4-0.6,8.1c-0.9,0.5-1.1,1.7-2.1,2.2
	c0.4-15.4,4.5-30,10.7-44c2.4-5.5,5.2-11,8.3-16.1c3.3-5.3,7.1-10.2,11.9-14.4c0.7-0.6,1.4-1.4,2.3-1.7
	C297.5,123.4,297.9,124.4,298,125.4z"/>
<path class="st9" d="M269.5,201.9c0.3,10.4,2.9,20.4,6.7,30c0.1,0.3,0.2,0.7,0.3,1c-0.9,0-1.7,0-2.6,0c0-0.1,0-0.2-0.1-0.3
	c-3.2-7.8-5.5-15.7-6.7-24c-0.3-1.7-0.4-3.5-0.6-5.2c-0.1-0.6,0.2-1,0.9-1c0.6,0,1.2,0.1,1.7-0.5
	C269.2,201.8,269.4,201.8,269.5,201.9z"/>
<path class="st8" d="M269.1,201.9c-0.5,0.6-1.1,0.5-1.7,0.5c-0.7,0-0.9,0.4-0.9,1c0.2,1.7,0.3,3.5,0.6,5.2c1.3,8.3,3.6,16.3,6.7,24
	c0,0.1,0.1,0.2,0.1,0.3c-0.8,0-1.5,0-2.3,0c-1.7-4.7-3.4-9.4-4.6-14.2c-1.4-5.6-2.2-11.3-2.6-17.1c0-0.6-0.2-1.2-0.3-1.8
	C266.3,201.8,266.3,201.8,269.1,201.9z"/>
<path class="st4" d="M260,234.2c1.6,5.9,4.5,11,8.3,15.7c2,2.5,4.1,4.8,6.1,7.2c0.9,1.2,1.9,2.4,2.6,3.6c2.3,4.1,2.5,8.3,0.2,12.5
	c-0.9,1.5-2,2.9-3.1,4.3c-1.2,1.6-2.5,3.2-3.7,4.8c-1.5,1.9-3.2,3.8-5.4,5c-2.5,1.3-5,1.5-7.7,0.8c-1.6-0.4-3.1-1.1-4.5-2.1
	c-5.6-3.6-9.7-8.7-13-14.3c-3.6-6.2-7.2-12.5-10.7-18.8c-2.6-4.8-5-9.7-6.9-14.8c-0.5-1.3-1.1-2.6-0.8-4.1c12.5,0,25,0,37.5,0
	C259.3,234.1,259.7,234.1,260,234.2z M248.8,267.2c3.5,0.2,6.3-1.8,7.1-4.9c0.5-1.7,0.5-3.5,0-5.2c-1.1-4.2-3.8-7.1-7.9-8.5
	c-3.6-1.2-7.1,0.6-8.2,4.1c-0.4,1.1-0.5,2.2-0.4,3.4c0.3,4.3,2.5,7.4,5.9,9.8C246.4,266.7,247.8,267.1,248.8,267.2z"/>
<path class="st9" d="M277.2,234.2c4,9.6,9.4,18.3,16.8,25.6c2.2,2.2,4.7,4,7.3,5.6c2.9,1.7,6.1,2.7,9.4,3.1c2,0.2,4,0.2,6-0.1
	c4.5-0.7,7.9-3.2,10.3-7.1c0.3-0.5,0.5-1.1,0.6-1.7c0.4-1.8,0.8-3.6,0.9-5.4c0.3-4.3,0.4-8.6-0.3-12.9c-0.7-4.6-2.2-8.9-4.1-13
	c-1.6-3.5-3.6-6.9-5.5-10.2c-1.6-2.8-3.1-5.7-4.5-8.7c-1.6-3.6-2.6-7.3-2.9-11.2c-0.3-4.6,0.9-8.9,2.7-13c1.2-2.7,2.6-5.4,4.2-7.9
	c2-3.3,3.9-6.7,5.8-10.1c2.2-4,3.9-8.3,4.9-12.8c1.5-6.9,0.9-13.7-1.5-20.2c-1.1-2.9-2.7-5.5-5.4-7.3c-2-1.3-4.1-2-6.4-2.1
	c-3.9-0.2-7.5,0.5-11,2.1c-1.8,0.9-3.6,1.8-5.4,2.8c-0.2-2.1-0.2-4.2,0-6.2c1.2-0.7,2.4-1.4,3.6-2.1c4.6-2.6,9.6-3.9,14.9-3.8
	c2,0,3.8,0.5,5.6,1.3c1.8,0.8,3.3,2,4.5,3.6c1.2,1.7,2.2,3.6,2.9,5.6c0.9,2.8,1.5,5.6,1.8,8.5c0.2,2.2,0.5,4.4,0.8,6.5
	c0,0.3,0.1,0.5,0.1,0.8c-0.6,3-0.4,6-0.7,8.9c-1,9-3.4,17.8-5.7,26.5c-1.4,5.5-2.8,11.1-3.3,16.8c-0.5,5.1-0.4,10.2,0.6,15.2
	c1.1,5.6,2.7,11.1,4.3,16.6c1.4,4.8,2.7,9.6,3.6,14.6c0.7,3.8,1,7.7,0.9,11.6c0,0.4,0,0.9-0.1,1.3c-1.2,4.8-3.1,9.4-6.8,12.9
	c-2.5,2.4-5.6,3.7-9,4c-6.7,0.6-12.7-1.3-18.2-5.1c-5.5-3.8-9.9-8.7-13.8-14c-3.9-5.3-7-10.9-9.8-16.9c-0.3-0.6-0.7-1.3-0.4-2
	C275.7,234.1,276.5,234.1,277.2,234.2z"/>
<path class="st11" d="M288.1,234.1c3.3,0,6.7,0,10-0.1c0.5,0,1,0,1.3,0.6c0.2,0.4,0.5,0.7,0.8,1c1.2,1.1,2.9,1,4-0.1
	c1.1-1.1,1.1-2.9,0.1-4.1c-1-1-3-1.2-4.1-0.2c-0.3,0.2-0.5,0.5-0.7,0.8c-0.3,0.6-0.7,0.9-1.4,0.9c-2.3-0.1-4.6-0.1-6.8-0.1
	c-0.8-0.8-1.1-2-2-2.7c-0.5-0.4-1.3-0.2-1.5,0.4c-0.3,0.8-0.1,1.5-0.2,2.3c-1,0.1-2.1,0.1-3.1,0c-0.2-2.2,0.1-4.4-0.5-6.6
	c-0.1-0.5-0.1-1.1,0.1-1.6c0.3-1,0.3-2.1,0.3-3.1c0.1-2.6,0.8-5,1.9-7.3c0.6-1.2,1.6-2,2.7-2.8c1.5-0.9,3.2-0.9,4.9-0.8
	c3.7,0.1,6.5,1.8,8.3,5.1c1,1.7,1.6,3.5,2.1,5.4c0.7,2.5,1.7,4.8,2.8,7.1c0.4,0.9,1,1.6,1.6,2.4c2.2,2.5,4.2,5.2,5.6,8.2
	c1.6,3.3,2.5,6.7,2.3,10.4c-0.3,4.1-1.8,7.5-5,10c-1.4,1.2-3.2,1.6-4.9,1.4c-1.7-0.1-3.4-0.7-5-1.5c-3.8-1.9-7-4.7-9.6-8.1
	c-3.2-4.1-5.3-8.9-6.6-14c-0.6-2.5-0.6-2.5,1.9-2.8C287.6,234.4,287.8,234.3,288.1,234.1z M286,222.9c0.2,1.3,0.5,2.6,1.7,3.6
	c1,0.9,2.1,0.8,3-0.2c1-1,1.3-2.3,1.1-3.7c-0.2-1.2-0.3-2.4,0-3.6c0.2-1.1-0.4-1.9-1.3-2.3c-0.8-0.4-1.8,0-2.5,0.9
	C286.8,219.2,286.4,221,286,222.9z"/>
<path class="st4" d="M259.6,232.9c-0.7,0-1.4,0.1-2.1,0.1c-11.5,0-22.9,0-34.4,0c-0.8,0-1.6-0.1-2.4-0.1c-0.1-1-0.2-2.1-0.4-3.1
	c-0.4-1.7-0.1-3.4,0.3-5c0.7-3.2,2.7-5.5,6-6.4c0.8-0.2,1.5-0.5,2.3-0.5c3.1-0.2,6-1.2,9-2c2.8-0.8,5.7-1.1,8.6-0.9
	c2.7,0.2,4.9,1.3,6.6,3.4c1.3,1.6,2.5,3.4,3.3,5.4C257.6,226.7,258.7,229.8,259.6,232.9z"/>
<path class="st6" d="M259.6,232.9c-0.8-3.1-1.9-6.2-3.1-9.2c-0.8-2-2-3.7-3.3-5.4c-1.7-2.1-3.9-3.2-6.6-3.4
	c-2.9-0.2-5.8,0.1-8.6,0.9c-3,0.8-5.9,1.7-9,2c-0.8,0.1-1.6,0.3-2.3,0.5c-3.2,1-5.2,3.2-6,6.4c-0.4,1.6-0.6,3.3-0.3,5
	c0.2,1,0.3,2.1,0.4,3.1c-1.3,0.2-2.6,0.2-3.9,0c-0.1-0.4-0.1-0.9-0.2-1.3c-1-3.6-1.5-7.2-1.4-10.9c0.1-2.6,1-5,2.4-7.1
	c0.7-1.1,1.7-1.8,2.8-2.3c1.6-0.8,3.4-1.6,5.3-1.5c3.5,0.1,6.8-0.6,10.1-1.3c4.2-0.9,8.4-0.9,12.6-0.7c1.7,0.1,3.3,0.8,4.6,1.7
	c1.8,1.3,3.3,2.8,4.4,4.8c2.3,4.3,3.5,8.9,4.8,13.6c0.3,0.9,0.4,1.9,0.8,2.8c0.3,0.8,0.4,1.5,0.3,2.3
	C262,232.9,260.8,232.9,259.6,232.9z"/>
<path class="st10" d="M288.1,234.1c-0.2,0.1-0.5,0.3-0.7,0.3c-2.5,0.3-2.5,0.3-1.9,2.8c1.3,5.1,3.4,9.8,6.6,14
	c2.6,3.4,5.8,6.1,9.6,8.1c1.6,0.8,3.3,1.4,5,1.5c1.7,0.1,3.5-0.3,4.9-1.4c3.2-2.6,4.8-6,5-10c0.2-3.7-0.7-7.1-2.3-10.4
	c-1.5-3.1-3.5-5.7-5.6-8.2c-0.6-0.7-1.2-1.5-1.6-2.4c-1.1-2.3-2.2-4.6-2.8-7.1c-0.5-1.9-1.1-3.7-2.1-5.4c-1.8-3.3-4.6-5-8.3-5.1
	c-1.7,0-3.3-0.1-4.9,0.8c-1.2,0.7-2.1,1.5-2.7,2.8c-1.2,2.3-1.9,4.7-1.9,7.3c0,1.1,0,2.1-0.3,3.1c-0.2,0.5-0.2,1.1-0.1,1.6
	c0.6,2.2,0.3,4.4,0.5,6.6c-0.6,0-1.3,0-1.9,0c-0.5-4.1-0.5-8.3-0.2-12.4c0.2-2.2,0.8-4.3,1.8-6.3c1.8-3.5,4.5-5.4,8.6-5.6
	c6.2-0.3,10.9,4,12.3,8.5c0.6,1.9,1.3,3.8,1.9,5.8c0.9,3,2.5,5.6,4.5,7.9c3,3.3,5.1,7.2,6.4,11.4c1.1,3.6,1.2,7.3,0.2,10.9
	c-0.5,1.7-1.2,3.3-2.2,4.8c-2.7,4-6.9,5.6-11.8,4.3c-3.2-0.8-6-2.5-8.5-4.7c-5.9-4.9-9.5-11.2-11.6-18.5c-0.5-1.6-0.8-3.2-1.2-4.9
	C284.6,234,286.3,234,288.1,234.1z"/>
<path class="st7" d="M287.6,232.9c0-0.8-0.1-1.6,0.2-2.3c0.2-0.6,1-0.8,1.5-0.4c0.9,0.7,1.2,1.9,2,2.7
	C290,233.1,288.8,233.1,287.6,232.9z"/>
<path class="st6" d="M306.5,71.2c-1.8,0-3.4,0.7-5,1.4c-2.4,1-4.7,2.2-7,3.6c-1.6,1-2.9,2.3-4,3.8c-1.3,1.8-2,3.8-1.9,6.1
	c0,0.9,0.1,1.7,0.2,2.6c-2.5,0.2-5,0.1-7.5,0c0-0.8,0.1-1.6,0-2.4c-0.4-3.2,1.2-5.6,3.1-7.8c1.7-2,3.8-3.6,6.1-4.9
	c3.9-2.2,8-4.3,12.5-5.3c1.2-0.3,2.4-0.5,3.6-0.7C306.5,68.9,306.5,70.1,306.5,71.2z"/>
<path class="st6" d="M297.7,112c-2.7-1.3-4.6-3.5-6.3-5.8c-2.5-3.5-4.9-7.1-7.2-10.7c-1-1.6-2-3.3-2.4-5.2c2.6,0,5.2,0,7.8,0
	c0.1,0.9,0.6,1.7,1,2.4c1.7,3,3.3,6,5,8.9c0.6,1,1.2,2,2.1,2.7c0.5,0.3,0.3,0.8,0.3,1.3c-0.3,0.4-0.3,1-0.3,1.5
	C297.6,108.7,297.6,110.4,297.7,112L297.7,112z"/>
<path class="st4" d="M297.7,104.4c-0.9-0.7-1.5-1.7-2.1-2.7c-1.7-3-3.4-5.9-5-8.9c-0.4-0.8-0.9-1.5-1-2.4c2.4,0,4.7-0.1,7.1-0.1
	c1,0,1.2,0.2,1.2,1.3c0,3.4,0,6.8,0,10.3C297.9,102.6,298.1,103.5,297.7,104.4z"/>
<path class="st9" d="M300.2,137c1.5-0.3,2.9-0.8,4.4-0.7c1.5,0.1,2.4,0.9,3.1,2.1c0.6,1.2,0.5,2.4-0.3,3.5c-0.5,0.7-1.1,1.1-1.9,1.3
	c-1.7,0.3-3.4,0.7-5.2,1c-1,0.2-2.1,0.4-3.1,0.5c-1,0.1-1.9-0.3-2.6-1c-0.9-0.9-1.4-2-1.1-3.3c0.3-1.3,1-2.2,2.4-2.5
	c-0.1,0.4-0.3,0.8-0.4,1.2c-0.2,2.4,2,4,4.2,3.1c0.3-0.1,0.6-0.3,0.9-0.5c0.4,0.5,0.9,0.5,1.4,0.4c0.9-0.2,1.7-0.3,2.6-0.5
	c0.9-0.2,1.4-0.8,1.3-1.7c0-0.9-0.6-1.5-1.5-1.5c-1,0-2.1,0.1-3.1,0.1C301,138,300.6,137.5,300.2,137z"/>
<path class="st12" d="M301.4,138.5c1,0,2.1-0.1,3.1-0.1c0.9,0,1.5,0.6,1.5,1.5c0,0.9-0.4,1.5-1.3,1.7c-0.9,0.2-1.7,0.4-2.6,0.5
	c-0.5,0.1-1.1,0.1-1.4-0.4C301.5,140.7,301.5,139.6,301.4,138.5z"/>
<path class="st0" d="M297.7,112c0-1.6,0-3.3,0-4.9c0-0.5,0-1,0.3-1.5c0.3,1.8,0.1,3.6,0.1,5.5C298.1,111.4,297.8,111.7,297.7,112z"
	/>
<path class="st8" d="M298,129.9c0-0.1-0.1-0.3-0.1-0.4c0-0.1,0.1-0.1,0.1-0.2C298,129.5,298,129.7,298,129.9z"/>
<path class="st3" d="M120,176.2c-0.9,0.6-1.6,0.4-2.6,0.1C118.4,175.5,119.1,175.7,120,176.2z"/>
<path class="st4" d="M395.7,254.6c0.9-1.7,1.9-3.4,3-4.9c1.9-2.5,3.8-5,5.6-7.6c2.4-3.5,4.4-7.2,5.6-11.3c0.9-3,1.8-6.1,2.4-9.2
	c0.5-2.5,1.4-4.9,2.5-7.2c2-4.5,5.7-6.8,10.5-7.2c1.8-0.2,3.7-0.1,5.5,0.2c1.2,0.2,2.5,0.3,3.7,0.3c1.9,0,3.7,0.2,5.5,0.6
	c4.4,0.9,7.5,3.3,8.6,7.9c1,4.2,0.7,8.4-0.2,12.5c-0.8,3.7-2.1,7.3-3.7,10.7c-2.3,4.8-4.5,9.8-6.7,14.6c-2.8,6.2-5.9,12.2-9.6,17.9
	c-1.5,2.2-3,4.3-4.9,6.2c-1.7,1.7-3.7,3-5.9,3.9c-1.7,0.6-3.4,1-5.2,0.3c-0.4-0.1-0.9-0.2-1.3-0.2c-0.5-0.6-1-1.2-1.3-1.9
	c-4.6-8.1-9.1-16.1-13.6-24.2C396.1,255.4,395.9,255,395.7,254.6z M436.5,241.8c0-1.3-0.3-2.6-0.7-3.9c-1.1-2.9-4-4.7-6.8-4.2
	c-1.4,0.2-2.7,0.7-3.9,1.6c-3.8,3-5.6,6.9-4.8,11.8c0.9,5,5.6,7.9,10.5,4.8C434.4,249.6,436.2,246.1,436.5,241.8z"/>
<path class="st6" d="M414,290c-3.4,1.2-6.6,0.7-9.2-1.9c-1.4-1.4-2.8-2.9-4.1-4.5c-1.6-2-3.5-3.7-5.3-5.5c-2.4-2.4-4.5-5.1-6.4-8
	c-1.4-2.1-2-4.5-2-7c0-2.4,0.8-4.7,2-6.7c0.7-1.3,1.6-2.5,2.4-3.8c0.3-0.5,0.8-0.7,1.3-0.7c0.7,1.4,1.8,2.6,2.2,4.2
	c-2,4.2-1.4,8.1,1.3,11.8c0.5,0.7,1.1,1.4,1.7,2c1.3,1.4,2.8,2.6,4.2,3.9c1.9,1.6,3.8,3.3,5.7,5c1.3,2.2,2.6,4.5,3.9,6.7
	C412.5,287.1,413.2,288.6,414,290z"/>
<path class="st13" d="M374,218.9c-3.1,1.3-6,0.8-8.8-0.7c-5.6-3-6.9-10.5-1.5-15c3.9-3.3,10.2-3.2,14.1,0.2c5.8,5.1,3,13.2-2.2,14.9
	c-0.2-0.2-0.4-0.3-0.5-0.5c-1.4-2.2-1.4-2.2-0.4-4.7c0.8-0.4,1.1-1.1,1.3-1.9c0.1-0.6,0.1-1.2-0.2-1.8c-1.8-3.1-5.1-2.8-6.9-1.1
	c-0.3,0.3-0.6,0.7-0.7,1.1c-0.1,1-0.4,2.1,0.4,3c0.1,0.5,0.2,1,0.4,1.5c0.4,0.9,1,1.7,2.1,1.7c1.4,0,2,0.8,2.5,1.9
	C373.5,217.9,373.8,218.4,374,218.9z"/>
<path class="st1" d="M367.8,271c-0.2-0.2-0.4-0.3-0.6-0.5c6.8-3.7,12.1-8.9,16.6-15.1c1.6-2.3,3.1-4.7,4.6-7.1
	c0.4-0.6,0.6-1.3,1.2-1.7c0.8,1,1.5,2,1.7,3.2c-2.2,2.6-4.1,5.5-5.2,8.7c-1.3,3.5-1.2,7.1,0.3,10.5c0.6,1.4,1.4,2.8,2.2,4.2
	c0,0.4,0,0.8,0,1.1c-0.4-0.3-0.8-0.6-1.3-0.9c-3.9-3.1-8.4-4.1-13.3-3.7C371.9,269.9,369.8,270.4,367.8,271z"/>
<path class="st4" d="M407.8,279c-1.9-1.7-3.7-3.4-5.7-5c-1.5-1.2-2.9-2.5-4.2-3.9c-0.6-0.6-1.2-1.3-1.7-2c-2.7-3.7-3.3-7.6-1.3-11.8
	c0.3,0.4,0.7,0.8,0.9,1.2c3.7,6.5,7.4,13.1,11,19.6C407.2,277.7,407.5,278.3,407.8,279z"/>
<path class="st14" d="M368.3,212.4c-0.8-0.9-0.5-2-0.4-3c0-0.4,0.4-0.8,0.7-1.1c1.8-1.7,5.2-2,6.9,1.1c0.3,0.6,0.3,1.2,0.2,1.8
	c-0.2,0.8-0.5,1.5-1.3,1.9c-0.2-1-0.5-2-1.5-2.6c-1.4-0.9-2.9-0.7-3.9,0.6C368.8,211.4,368.6,212,368.3,212.4z"/>
<path class="st8" d="M388.4,244.2c-0.1-0.2-0.2-0.4-0.4-0.7C388.3,243.7,388.4,243.9,388.4,244.2z"/>
<path class="st5" d="M232.5,26.2c-0.5,0.5-1,0.3-1.5,0.3c-0.1,0-0.2-0.2-0.3-0.3c0.1-0.1,0.3-0.2,0.4-0.3
	C231.6,25.7,232.1,25.7,232.5,26.2z"/>
<path class="st5" d="M469.1,353.4c-1,0-1.9-1.1-1.9-2.2c0-1.1,1-2,2-2c1.1,0,1.9,1,1.9,2.1C471.1,352.4,470.1,353.4,469.1,353.4z"/>
<path class="st3" d="M388.5,274.3c0-0.4,0-0.8,0-1.1c2.6,3.2,5.4,6.2,8.4,9c0.8,0.8,1.7,1.5,2.2,2.6c-0.2,0.2-0.4,0.4-0.6,0.6
	c-1.3-1.4-2.7-2.7-4-4.1C392.5,279,390.5,276.6,388.5,274.3z"/>
<path class="st7" d="M399.1,285.3c1.1,0.6,1.9,1.5,2,2.5c0,0.1-0.3,0.2-0.4,0.2c-1-0.5-1.3-1.5-1.9-2.3
	C398.8,285.6,399,285.4,399.1,285.3z"/>
<path class="st7" d="M398.5,285.3c0.2-0.2,0.4-0.4,0.6-0.6c0.1,0.1,0.1,0.2,0.2,0.4c0,0-0.1,0.1-0.1,0.2
	C398.9,285.5,398.7,285.5,398.5,285.3z"/>
<path class="st12" d="M242.8,205c0,0.1,0.1,0.3,0,0.4c-0.5,0.1-1,0.3-1.5,0.4c-1.6,0.2-3.3,0.4-4.9,0.6c-0.1-0.1-0.1-0.3,0-0.4
	c0.2-0.1,0.4-0.4,0.7-0.4C239.1,205.6,241,205.4,242.8,205z"/>
<path class="st3" d="M515.1,350.2c0,0-0.3,0-0.7-0.1c0,0-0.1-0.3,0-0.4c0.5-0.5,1.1-0.6,1.9-0.2c0.1,0.1,0.2,0.3,0.2,0.4
	c0,0.1-0.2,0.2-0.3,0.2C516,350.2,515.8,350.2,515.1,350.2z"/>
<path class="st3" d="M492.8,301.5c-0.8,0.3-1.5,0.2-2.2,0.2c-0.1,0-0.2-0.1-0.4-0.2c0.1-0.1,0.2-0.3,0.3-0.4
	C491.3,300.6,492,300.7,492.8,301.5z"/>
<path class="st7" d="M134.7,257.8c-0.1,0.1-0.2,0.3-0.3,0.4c-0.2,0.2-0.4,0.3-0.6,0.2c-0.3-0.2-0.1-0.4,0-0.6
	c0.1-0.2,0.2-0.4,0.3-0.7C134.3,257.3,134.5,257.5,134.7,257.8z"/>
<path class="st5" d="M218.4,326.1c-0.2-0.1-0.5-0.1-0.7-0.2c-0.1,0-0.1-0.1-0.2-0.2c0,0,0.1-0.1,0.1-0.2c0.4-0.3,1.3-0.3,1.6,0
	c0.1,0.1,0.1,0.3-0.1,0.3C218.9,326.1,218.7,326.1,218.4,326.1z"/>
<path class="st3" d="M275.7,26.1c0.5-0.4,1.1-0.4,1.7-0.3c0.2,0,0.4,0.2,0.4,0.3c0,0.3-0.2,0.4-0.5,0.4
	C276.8,26.5,276.2,26.7,275.7,26.1z"/>
<path class="st6" d="M248.7,200.2c-0.8,1.2-1.8,1.7-2.9,2.1c-1.2,0.4-2.3,0.8-3.5,1c-1.9,0.2-3.8,0.7-5.7,0.7
	c-1.6,0-3.1,0.3-4.7,0.7c-2.8,0.6-5.6,0.5-8.4,0.2c-2.5-0.2-4.6-1.6-6.3-3.5c-0.1-0.2-0.2-0.5-0.1-0.7c0-0.3,0.4-0.4,0.6-0.4
	c0.5,0,1.1,0,1.6,0c9.3,0,18.6,0,27.9,0C247.6,200.2,248,200.2,248.7,200.2z"/>
<path class="st3" d="M172.3,259.8c-0.9,0.3-1.7,0.2-2.5,0.1C170.9,258.7,170.9,258.7,172.3,259.8z"/>
<path class="st7" d="M439,347.5c0.1,0.5-0.2,0.7-0.5,0.8c-0.1,0-0.4-0.3-0.5-0.5c-0.1-0.2-0.1-0.4,0.2-0.6
	C438.7,347.1,438.9,347.3,439,347.5z"/>
<path class="st6" d="M264.2,88.7c1.1-1,2.2-1.2,3.2-1.4c1.8-0.4,3.7-0.4,5.4,0c0.7,0.1,1.8,0,2.1,1.1c-0.7,0.5-1.5,0.2-2.2,0.2
	C269.9,88.7,267.2,88.7,264.2,88.7z"/>
<path class="st4" d="M335.3,254c-0.3-1.5,0-2.9,0.2-4.4c0.1,1.5,0.2,2.9,0.3,4.4c0,0-0.2,0.1-0.2,0.1L335.3,254z"/>
<path class="st4" d="M450.8,173.9c0,2.6-0.3,4.8-0.9,7.1c-0.2,0.8-0.5,1.5-0.8,2.2c-1.3,2.9-3.5,4.6-6.8,4.5c-2-0.1-4,0.2-6,0.5
	c-1.5,0.2-2.9,0.5-4.4,0.8c-1.4,0.3-2.8,0.3-4.2,0.1c-3.3-0.4-5.9-2.1-7.8-4.8c-1.2-1.7-2.1-3.7-2.8-5.7c-1.8-5.3-3.3-10.8-4.8-16.2
	c-1.4-4.7-2.8-9.4-5-13.9c-2.9-5.8-6.5-11.1-11-15.7c-3.2-3.4-6.5-6.7-9.7-10c-1.8-1.9-3.5-3.9-5-6.1c-0.8-1.2-1.4-2.4-1.9-3.8
	c-1-3.1-0.9-6.2,0.6-9.2c1.4-2.7,2.8-5.5,4.2-8.2c1.4-2.6,3.4-4.5,6.3-5.3c1.9-0.5,3.8-0.4,5.7,0.1c4.4,1,8.2,3.1,11.8,5.7
	c6.1,4.3,11.2,9.6,15.5,15.7c4.6,6.6,8.9,13.3,12.8,20.3c4.8,8.6,8.7,17.7,11.7,27.1c1.1,3.4,1.7,6.8,2.1,10.3
	C450.6,170.8,451,172.5,450.8,173.9z M432.4,145.8c0-4.7-2.7-9-6.7-10.7c-2.9-1.2-6-0.5-7.8,1.9c-1.4,1.8-2,3.9-1.8,6.2
	c0.2,3,1.6,5.6,3.7,7.7c1.8,1.7,3.9,2.6,6.4,2.5c2.4-0.1,4.1-1.3,5.3-3.4C432.3,148.6,432.5,147.1,432.4,145.8z"/>
<path class="st9" d="M395.1,187.1c1.2,0.1,2.4,0.6,3,1.9c0.7,1.5,0.6,2.9-0.5,4.2c-1.9,2.3-3.9,4.5-5.9,6.7
	c-0.2,0.2-0.4,0.4-0.6,0.5c-1.6,1.3-4.1,1-5.4-0.6c-1-1.2-1.1-2.6-0.4-3.9c0.3-0.5,0.6-0.9,1-1.2c1.7-1.9,3.3-3.9,5-5.8
	C392.3,187.8,393.4,187.1,395.1,187.1z M388.9,199.2c0.7,0.1,1.3-0.3,1.9-0.9c1.8-2,3.6-4,5.4-6c0.1-0.1,0.2-0.3,0.3-0.4
	c0.7-1.2,0.1-2.5-1.3-2.7c-0.6-0.1-1.2,0.1-1.7,0.6c-2.3,2.1-4,4.6-6.1,6.8c-0.5,0.5-0.5,1.3-0.2,2C387.5,199,388,199.2,388.9,199.2
	z"/>
<path class="st9" d="M384.7,227.7c-2.6,0-4.3-2.1-3.6-4.6c0.7-2.8,1.5-5.6,2.4-8.3c0.9-2.6,3.5-3.6,5.7-2.3c1.5,0.9,2.3,2.3,1.8,4
	c-0.8,2.9-1.6,5.7-2.6,8.6C387.8,226.9,386.5,227.7,384.7,227.7z M389.1,216.1c0-1.5-0.6-2.2-1.9-2.2c-1.1,0-1.5,0.3-1.9,1.4
	c-0.8,2.5-1.6,5-2.3,7.5c-0.6,2,0.3,3,2.4,2.7c0.8-0.1,1.2-0.7,1.4-1.4c0.8-2.4,1.5-4.8,2.2-7.3C389.1,216.6,389,216.3,389.1,216.1z
	"/>
<path class="st9" d="M360,249.6c0-0.9,0.3-1.8,1.1-2.3c2.3-1.7,4.6-3.6,7.1-5c2.6-1.4,5.1,0.5,5.4,3.1c0.1,1-0.3,2-1.1,2.6
	c-2.3,1.7-4.7,3.4-7.1,5C362.8,254.6,359.7,251.9,360,249.6z M371.6,245.5c-0.1-0.7-0.4-1.2-1.1-1.3c-0.7-0.2-1.4-0.2-2,0.2
	c-1.9,1.3-3.7,2.6-5.6,3.9c-0.2,0.1-0.4,0.4-0.5,0.6c-0.4,0.6-0.4,1.4,0,2c0.4,0.6,1,0.8,1.6,0.6c0.6-0.2,1.2-0.4,1.7-0.7
	c1.2-0.8,2.4-1.7,3.6-2.6c0.6-0.5,1.2-1,1.9-1.5C371.5,246.3,371.6,245.9,371.6,245.5z"/>
<path class="st13" d="M334.1,295.8c3.2,0.2,5.9,1.4,7.9,3.7c3,3.6,1.5,7.6-1,9.6c-3.4,2.7-9.7,3.5-14,0.1c-4.1-3.4-3.6-8.4,0.2-11.2
	C329.2,296.6,331.6,296,334.1,295.8z M335,301.6c-0.2,0-0.7,0-1.1,0.1c-1,0.2-2.1,1.2-2.2,2.3c-0.1,0.8,0.3,1.6,1,2
	c1.3,0.7,2.7,1.2,4.2,0.3c1.6-1,1.9-2.5,0.8-4C336.9,301.6,336.1,301.6,335,301.6z"/>
<path class="st4" d="M335.3,145.7c0-1.5,0-2.9,0-4.4c0,0,0.1,0,0.1,0c0.1,1.5,0.3,3,0.4,4.4C335.6,145.7,335.4,145.7,335.3,145.7z"
	/>
<path class="st12" d="M353.2,237.2c-0.7,0-1.2-0.2-1.6-0.7c-0.4-0.4-0.6-0.8-0.4-1.4c0.8-2.7,1.6-5.3,2.5-8c0.6-1.7,2.3-2.1,3.5-1
	c0.4,0.4,0.6,0.8,0.4,1.4c-0.8,2.8-1.7,5.7-2.5,8.5C354.9,236.9,354.2,237.2,353.2,237.2z"/>
<path class="st4" d="M217.3,179.4c0.2-5.5,0.7-11.1,2.4-16.4c5.5-17.1,12.7-33.4,22.9-48.2c3.7-5.3,7.8-10.2,12.8-14.3
	c2.1-1.7,4.2-3.1,6.6-4.3c2.1-1,4.3-1.4,6.7-1.3c2.1,0.1,3.9,0.9,5,2.6c2.1,3.3,4.8,6.1,7.3,9c1.3,1.5,2.2,3.1,2.9,5
	c0.9,2.6,0.5,5-0.6,7.5c-1,2.3-2.2,4.4-3.8,6.3c-3.6,4.4-7.2,8.9-10.8,13.3c-5,6.2-9.1,12.9-11.7,20.5c-1.9,5.7-3.1,11.5-4.2,17.4
	c-0.6,3-1.3,6-2.1,9c-0.6,2.6-1.9,4.9-3.4,7.1c-1.9,2.7-4.5,4.2-7.7,4.5c-3.2,0.3-6.5,0.7-9.7,0.9c-4.6,0.3-8-1.7-10.2-5.7
	c-0.6-1.1-1-2.3-1.2-3.5C217.8,185.7,217.2,182.6,217.3,179.4z M240.6,145.1c0,0.4,0,0.7,0,1.1c0.3,4.5,4.4,7.4,8.8,6.1
	c4.8-1.4,8.1-6.4,7.4-11.4c-0.4-3.2-2.5-5.8-5.4-6.5c-2.5-0.6-4.7,0.2-6.6,1.7C241.9,138.4,240.6,141.5,240.6,145.1z"/>
<path class="st13" d="M330.7,76c1.8-0.1,3.3,0.1,4.7,0.6c0.8,0.3,1.6,0.7,2.3,1.2c3.6,2.7,4.4,7,0.7,10.6
	c-4.3,4.1-10.5,3.4-14.1,1.1c-0.6-0.4-1.1-0.9-1.6-1.4c-2.3-2.6-2.4-6-0.1-8.6c1.8-2.1,4.1-3.3,6.8-3.5C330,76,330.5,76,330.7,76z
	 M329.5,80.8c-1.2-0.2-2.1,0.4-2.8,1.4c-0.4,0.5-0.5,1.1-0.3,1.7c0.5,1.4,1.6,2.1,3,2.2c1.4,0.1,2.6-0.5,3.4-1.6
	c0.7-1,0.2-2.5-0.9-3.1C331.1,80.9,330.4,80.8,329.5,80.8z"/>
<path class="st11" d="M378.9,189.7c-4.1,0.4-8.2-2.6-9.4-6.5c-0.4-1.3-1-2.6-1.3-4c-0.7-2.7-1.8-5.2-3.2-7.5c-0.9-1.5-2-2.9-3.2-4.2
	c-3-3.6-5.1-7.7-5.9-12.2c-0.7-3.8-0.1-7.6,2-10.9c1.7-2.8,4.1-4.5,7.6-4.4c1.6,0.1,3.1,0.4,4.6,1c6.1,2.8,10.4,7.4,13.5,13.2
	c2.3,4.2,3.5,8.8,4.4,13.5c0.1,0.7,0.1,1.4,0.1,2.1c0,0.9,0,1.8,0.3,2.6c0.2,0.5,0.2,1,0.2,1.6c-0.1,2.8-0.4,5.6-0.9,8.3
	c-0.2,1.1-0.6,2-1,3c-1.4,3.1-3.7,4.6-7.1,4.5C379.3,189.7,379.1,189.7,378.9,189.7z M386.3,178.1c0-1.3-0.5-2.9-1.1-3.7
	c-1.3-1.6-2.6-1.4-3.9,0.2c-0.5,0.5-0.7,1.2-0.7,1.9c0,0.6-0.1,1.3,0.1,1.8c0.3,1,0.3,1.8,0,2.8c-0.3,1.1,0.2,1.9,1.1,2.4
	c0.8,0.4,1.7,0.2,2.6-0.7C385.7,181.5,385.8,179.6,386.3,178.1z M384.8,168.9c0-0.4,0-0.8-0.1-1.2c-0.3-1.3-1-2.2-2.3-2.6
	c-0.7-0.2-1.1,0-1.5,0.7c-0.2,0.4-0.3,0.8-0.1,1.2c0.6,1.2,1.3,2.4,2.4,3.4c0.3,0.2,0.6,0.3,1,0.2c0.4-0.1,0.5-0.4,0.6-0.8
	C384.8,169.4,384.8,169.2,384.8,168.9z"/>
<path class="st12" d="M352.6,133.3c-0.2,0.5-0.3,1.3-0.6,2c-1,2.1-2,4.1-3,6.1c-0.6,1.1-1.5,1.4-2.3,1.1c-0.9-0.4-1.5-1.7-1.1-2.6
	c1.2-2.6,2.4-5.3,3.6-7.9c0.3-0.6,0.7-1,1.4-1C351.9,130.9,352.7,131.7,352.6,133.3z"/>
<path class="st13" d="M299.4,168.4c3.9,0,6.8,1.3,8.9,4c3.2,4.2,2.1,9.1-1.3,12.1c-4.2,3.7-10.7,3.7-14.9-0.3
	c-3.7-3.6-3.9-10.5,1.7-14.1C295.7,169,297.6,168.3,299.4,168.4z M302.3,177.1c-0.2-0.9-0.6-1.8-1.6-2.3c-1.1-0.7-2.4-0.6-3.6-0.4
	c-1.4,0.3-2.6,2.6-2,3.8c0.6,1.3,1.8,2.2,3.2,2.4c1.3,0.2,2.4-0.5,3.1-1.6C302,178.5,302.3,177.9,302.3,177.1z"/>
<path class="st9" d="M276.1,206.5c-1.5-0.1-2.8-0.7-3.5-2.2c-0.6-1.3-0.5-2.6,0.4-3.7c2.1-2.4,4.1-4.8,6.3-7.1
	c1.3-1.4,3.2-1.5,4.8-0.7c1.8,1,2.4,3.3,1.3,5c-0.1,0.2-0.3,0.4-0.5,0.6c-1.8,2.1-3.7,4.3-5.5,6.4
	C278.6,205.8,277.6,206.4,276.1,206.5z M276.2,204.5c0.8,0.1,1.5-0.3,2-1c0.9-1.4,2.2-2.5,3.3-3.7c0.8-0.9,1.6-1.9,2.3-2.9
	c0.7-1.1,0-2.4-1.3-2.5c-1.1-0.1-1.9,0.3-2.5,1.1c-1.1,1.5-2.4,2.8-3.6,4.1c-0.6,0.7-1.1,1.4-1.6,2.1c-0.5,0.6-0.5,1.3-0.1,2
	C274.9,204.3,275.5,204.5,276.2,204.5z"/>
<path class="st9" d="M320.3,153c0,0.1,0,0.6-0.2,1c-0.8,2.7-1.5,5.4-2.4,8.1c-0.7,2.2-2.7,3.3-5,2.7c-1.7-0.4-3.1-2.3-2.6-4
	c0.8-3.1,1.6-6.1,2.7-9.1c1-2.9,4.6-3.4,6.7-1.1C320,151.2,320.3,151.9,320.3,153z M318.3,152.9c0-0.8-0.4-1.3-1.1-1.6
	c-0.7-0.3-1.4-0.2-1.9,0.3c-0.5,0.4-0.8,1-1,1.5c-0.8,2.5-1.5,5-2.2,7.5c-0.3,1,0.1,1.7,0.9,2.2c0.7,0.4,1.7,0.2,2.4-0.5
	c0.4-0.5,0.6-1,0.8-1.6c0.6-2.1,1.3-4.2,1.9-6.3C318.2,154,318.2,153.5,318.3,152.9z"/>
<path class="st9" d="M292.4,160.2c0.1,0.8-0.2,1.5-0.7,2.1c-1.7,2.3-3.4,4.7-5.3,6.9c-1.9,2.2-5.3,1.8-6.6-0.6
	c-0.6-1.1-0.6-2.2,0-3.3c0.1-0.2,0.2-0.3,0.3-0.5c1.8-2.4,3.6-4.7,5.4-7.1c1-1.2,2.3-1.6,3.8-1.3
	C290.9,156.7,292.3,158.4,292.4,160.2z M288.3,158.4c-0.7,0-1.3,0.3-1.7,0.9c-1.6,2.1-3.2,4.1-4.8,6.2c-1.1,1.4-0.7,2.7,1,3.2
	c0.9,0.3,1.5-0.1,2.1-0.8c1.3-1.6,2.6-3.3,3.9-4.9c0.4-0.6,0.9-1.1,1.3-1.7C290.8,159.9,290,158.4,288.3,158.4z"/>
<path class="st9" d="M314.8,219.2c1.6,0,2.7,0.8,3.4,2.3c0.9,1.9,1.7,3.9,2.5,5.8c0.3,0.7,0.6,1.5,0.9,2.2c0.7,2.1-0.1,3.9-2,4.8
	c-1.7,0.8-3.8,0.1-4.9-1.5c-0.3-0.4-0.5-0.9-0.7-1.4c-0.9-2.2-1.8-4.4-2.7-6.6c-0.1-0.2-0.2-0.5-0.3-0.7
	C310.2,221.3,311.8,219.1,314.8,219.2z M319.8,230.5c0-0.2-0.1-0.6-0.2-1c-0.9-2.3-1.9-4.5-2.8-6.8c-0.2-0.6-0.6-1-1.2-1.4
	c-0.8-0.5-1.5-0.5-2.2,0.1c-0.8,0.6-1,1.3-0.6,2.3c0.9,2.1,1.7,4.2,2.6,6.3c0.3,0.6,0.6,1.3,1,1.8c0.4,0.6,1.5,0.8,2.4,0.5
	C319.5,232.2,319.9,231.5,319.8,230.5z"/>
<path class="st13" d="M248.8,267.2c-1-0.1-2.4-0.5-3.6-1.3c-3.5-2.3-5.6-5.5-5.9-9.8c-0.1-1.1,0.1-2.3,0.4-3.4
	c1.2-3.5,4.6-5.3,8.2-4.1c4.1,1.4,6.8,4.3,7.9,8.5c0.5,1.7,0.4,3.5,0,5.2C255,265.4,252.3,267.4,248.8,267.2z M248.6,262
	c1.1,0.1,1.8-0.4,2.2-1.4c0.9-2.1-1.3-5.1-3.6-4.9c-0.8,0.1-1.7,0.8-1.8,1.6c-0.1,0.9-0.2,1.7,0.2,2.6
	C246.2,261.2,247,262.2,248.6,262z"/>
<path class="st7" d="M286,222.9c0.4-1.9,0.8-3.7,1.9-5.2c0.7-0.9,1.7-1.3,2.5-0.9c0.9,0.4,1.5,1.3,1.3,2.3c-0.2,1.2-0.1,2.4,0,3.6
	c0.2,1.3-0.1,2.6-1.1,3.7c-0.9,1-2,1-3,0.2C286.6,225.5,286.3,224.2,286,222.9z"/>
<path class="st13" d="M436.5,241.8c-0.3,4.3-2.1,7.8-5.7,10.1c-4.9,3.1-9.6,0.2-10.5-4.8c-0.8-4.8,1-8.8,4.8-11.8
	c1.1-0.9,2.5-1.4,3.9-1.6c2.9-0.5,5.7,1.3,6.8,4.2C436.2,239.1,436.5,240.4,436.5,241.8z M426.5,243c0.1,0.5,0.1,1.1,0.2,1.6
	c0.1,0.4,0.4,0.8,0.8,1c1.3,0.5,2.7,0.1,3.5-1c0.6-0.9,0.9-1.9,0.8-3c-0.1-1-0.5-1.7-1.4-2.1c-0.8-0.3-1.7-0.3-2.5,0.3
	C426.9,240.6,426.3,241.6,426.5,243z"/>
<path class="st13" d="M432.4,145.8c0.1,1.3-0.2,2.8-0.9,4.1c-1.1,2.1-2.8,3.3-5.3,3.4c-2.5,0.1-4.7-0.7-6.4-2.5
	c-2.1-2.1-3.5-4.7-3.7-7.7c-0.2-2.3,0.4-4.4,1.8-6.2c1.8-2.4,4.9-3.1,7.8-1.9C429.7,136.8,432.4,141.1,432.4,145.8z M427.1,143.5
	c0-1.8-1.2-3.5-3-3.9c-0.3-0.1-0.7-0.1-1,0.1c-1.5,0.9-2.3,2.1-1.4,3.9c0.4,0.7,0.9,1.3,1.5,1.8c0.8,0.6,1.7,0.6,2.5,0.2
	C426.6,145.2,427.1,144.5,427.1,143.5z"/>
<path class="st12" d="M388.9,199.2c-0.8,0-1.4-0.2-1.8-0.8c-0.4-0.7-0.4-1.4,0.2-2c2.1-2.2,3.9-4.7,6.1-6.8c0.5-0.4,1-0.6,1.7-0.6
	c1.4,0.2,2,1.5,1.3,2.7c-0.1,0.1-0.2,0.3-0.3,0.4c-1.8,2-3.6,4-5.4,6C390.2,198.9,389.6,199.3,388.9,199.2z"/>
<path class="st12" d="M389.1,216.1c0,0.2,0,0.5-0.1,0.9c-0.7,2.4-1.4,4.9-2.2,7.3c-0.2,0.7-0.6,1.3-1.4,1.4c-2.1,0.3-3-0.7-2.4-2.7
	c0.7-2.5,1.5-5,2.3-7.5c0.4-1.1,0.8-1.4,1.9-1.4C388.5,213.9,389.1,214.6,389.1,216.1z"/>
<path class="st12" d="M371.6,245.5c0,0.5-0.1,0.9-0.4,1.2c-0.6,0.5-1.2,1-1.9,1.5c-1.2,0.9-2.4,1.8-3.6,2.6
	c-0.5,0.3-1.1,0.6-1.7,0.7c-0.6,0.2-1.2,0-1.6-0.6c-0.4-0.5-0.4-1.4,0-2c0.2-0.2,0.3-0.4,0.5-0.6c1.9-1.3,3.7-2.6,5.6-3.9
	c0.6-0.4,1.3-0.4,2-0.2C371.2,244.3,371.5,244.8,371.6,245.5z"/>
<path class="st14" d="M335,301.6c1.1,0,2,0,2.6,0.8c1.2,1.5,0.9,3-0.8,4c-1.5,0.9-2.9,0.4-4.2-0.3c-0.7-0.4-1.1-1.2-1-2
	c0.2-1.1,1.2-2.2,2.2-2.3C334.3,301.6,334.7,301.6,335,301.6z"/>
<path class="st13" d="M240.6,145.1c0.1-3.6,1.3-6.7,4.2-9c1.9-1.5,4.1-2.3,6.6-1.7c2.9,0.7,5,3.2,5.4,6.5c0.7,4.9-2.6,9.9-7.4,11.4
	c-4.4,1.3-8.5-1.5-8.8-6.1C240.5,145.8,240.6,145.4,240.6,145.1z M250.6,143.8c0-1.3-0.7-2.2-1.8-2.6c-1.2-0.4-2,0.2-2.8,1
	c-0.7,0.7-0.9,1.5-1,2.3c-0.3,2,1.3,3.3,3.3,2.7C249.8,146.7,250.6,145.4,250.6,143.8z"/>
<path class="st14" d="M329.5,80.8c0.9-0.1,1.7,0.1,2.4,0.5c1.1,0.6,1.6,2.1,0.9,3.1c-0.8,1.2-2,1.8-3.4,1.6c-1.4-0.1-2.5-0.8-3-2.2
	c-0.2-0.6-0.1-1.2,0.3-1.7C327.4,81.2,328.3,80.6,329.5,80.8z"/>
<path class="st7" d="M386.3,178.1c-0.5,1.5-0.6,3.4-1.9,4.8c-0.9,0.9-1.7,1.1-2.6,0.7c-0.9-0.5-1.4-1.4-1.1-2.4c0.3-1,0.2-1.9,0-2.8
	c-0.2-0.6-0.1-1.2-0.1-1.8c0-0.7,0.2-1.4,0.7-1.9c1.4-1.6,2.7-1.7,3.9-0.2C385.8,175.2,386.4,176.9,386.3,178.1z"/>
<path class="st7" d="M384.8,168.9c0,0.3,0,0.6-0.1,0.8c0,0.4-0.2,0.7-0.6,0.8c-0.4,0.1-0.7,0.1-1-0.2c-1-1-1.7-2.2-2.4-3.4
	c-0.2-0.4-0.1-0.8,0.1-1.2c0.3-0.7,0.8-0.9,1.5-0.7c1.3,0.4,2,1.4,2.3,2.6C384.8,168,384.8,168.5,384.8,168.9z"/>
<path class="st14" d="M302.3,177.1c0,0.8-0.3,1.4-0.7,1.9c-0.8,1-1.8,1.7-3.1,1.6c-1.5-0.2-2.6-1.1-3.2-2.4c-0.6-1.2,0.6-3.5,2-3.8
	c1.2-0.3,2.4-0.3,3.6,0.4C301.6,175.3,302,176.2,302.3,177.1z"/>
<path class="st12" d="M276.2,204.5c-0.7,0-1.3-0.2-1.6-0.8c-0.4-0.7-0.3-1.3,0.1-2c0.5-0.7,1-1.4,1.6-2.1c1.2-1.4,2.5-2.6,3.6-4.1
	c0.6-0.8,1.4-1.3,2.5-1.1c1.3,0.1,2,1.4,1.3,2.5c-0.7,1-1.5,2-2.3,2.9c-1.1,1.2-2.3,2.3-3.3,3.7C277.7,204.2,277,204.5,276.2,204.5z
	"/>
<path class="st12" d="M318.3,152.9c-0.1,0.5-0.1,1.1-0.2,1.5c-0.6,2.1-1.3,4.2-1.9,6.3c-0.2,0.6-0.4,1.2-0.8,1.6
	c-0.6,0.7-1.7,0.9-2.4,0.5c-0.8-0.5-1.2-1.2-0.9-2.2c0.7-2.5,1.4-5,2.2-7.5c0.2-0.6,0.5-1.1,1-1.5c0.6-0.5,1.2-0.6,1.9-0.3
	C317.9,151.6,318.3,152.1,318.3,152.9z"/>
<path class="st12" d="M288.3,158.4c1.7,0,2.5,1.5,1.7,3c-0.3,0.6-0.8,1.1-1.3,1.7c-1.3,1.7-2.5,3.3-3.9,4.9
	c-0.5,0.6-1.2,1.1-2.1,0.8c-1.7-0.6-2.1-1.8-1-3.2c1.6-2.1,3.2-4.1,4.8-6.2C287.1,158.7,287.6,158.4,288.3,158.4z"/>
<path class="st12" d="M319.8,230.5c0,1.1-0.4,1.7-1,1.9c-0.9,0.3-2,0.1-2.4-0.5c-0.4-0.6-0.7-1.2-1-1.8c-0.9-2.1-1.8-4.2-2.6-6.3
	c-0.4-1-0.2-1.7,0.6-2.3c0.7-0.5,1.4-0.5,2.2-0.1c0.6,0.3,0.9,0.8,1.2,1.4c0.9,2.3,1.9,4.5,2.8,6.8
	C319.8,229.8,319.8,230.3,319.8,230.5z"/>
<path class="st14" d="M248.6,262c-1.6,0.1-2.4-0.8-3-2.1c-0.4-0.8-0.4-1.7-0.2-2.6c0.1-0.8,1-1.6,1.8-1.6c2.3-0.2,4.5,2.8,3.6,4.9
	C250.4,261.6,249.7,262.2,248.6,262z"/>
<path class="st14" d="M426.5,243c-0.2-1.4,0.5-2.4,1.5-3.2c0.8-0.6,1.7-0.6,2.5-0.3c0.9,0.4,1.3,1.1,1.4,2.1c0.1,1.1-0.2,2.1-0.8,3
	c-0.8,1.1-2.3,1.5-3.5,1c-0.4-0.2-0.7-0.5-0.8-1C426.5,244,426.5,243.5,426.5,243z"/>
<path class="st14" d="M427.1,143.5c0,1-0.4,1.7-1.3,2.1c-0.8,0.4-1.7,0.4-2.5-0.2c-0.6-0.5-1.1-1.1-1.5-1.8c-1-1.8-0.2-3,1.4-3.9
	c0.3-0.2,0.7-0.2,1-0.1C425.8,140.1,427.1,141.7,427.1,143.5z"/>
<path class="st14" d="M250.6,143.8c0.1,1.6-0.8,2.9-2.3,3.4c-1.9,0.7-3.6-0.6-3.3-2.7c0.1-0.8,0.4-1.7,1-2.3c0.8-0.8,1.6-1.4,2.8-1
	C249.9,141.6,250.5,142.5,250.6,143.8z"/>
<rect x="410.1" y="31.7" class="st15" width="99.6" height="17.5"/>
<text transform="matrix(1 0 0 1 410.0704 40.8063)" class="st16 st17">Inner thick wall</text>
<rect x="201.8" y="22.2" class="st15" width="99.6" height="17.5"/>
<text transform="matrix(1 0 0 1 201.8048 31.2672)" class="st16 st17">Epidermal cell</text>
<rect x="93.2" y="171.6" class="st15" width="99.6" height="17.5"/>
<text transform="matrix(1 0 0 1 93.1671 180.7096)" class="st16 st17">Outer thin wall</text>
<rect x="122.3" y="255.4" class="st15" width="99.6" height="17.5"/>
<text transform="matrix(1 0 0 1 122.3146 264.4415)" class="st16 st17">Vacuole</text>
<rect x="163.1" y="322.7" class="st15" width="99.6" height="17.5"/>
<text transform="matrix(1 0 0 1 163.1193 331.7423)" class="st16 st17">Guard Cells</text>
<rect x="434.4" y="346.5" class="st15" width="99.6" height="17.5"/>
<text transform="matrix(1 0 0 1 434.4474 355.59)" class="st16 st17">Stomata Pore</text>
<rect x="457.8" y="297.8" class="st15" width="99.6" height="17.5"/>
<text transform="matrix(1 0 0 1 457.7648 306.8361)" class="st16 st17">Nucleus</text>
<rect x="140.3" y="81" class="st15" width="99.6" height="17.5"/>
<text transform="matrix(1 0 0 1 140.3312 90.0905)" class="st16 st17">Chloroplast</text>
<polyline class="st18" points="313.4,266.2 193.9,317.4 354.4,268.6 "/>
<ellipse class="st2" cx="313.2" cy="265.8" rx="2.2" ry="2.1"/>
<ellipse class="st2" cx="354.6" cy="268" rx="2.2" ry="2.1"/>
</svg>
