<?xml version="1.0" encoding="utf-8"?>
<!-- Generator: Adobe Illustrator 19.1.0, SVG Export Plug-In . SVG Version: 6.00 Build 0)  -->
<svg version="1.0" id="Layer_1" xmlns="http://www.w3.org/2000/svg" xmlns:xlink="http://www.w3.org/1999/xlink" x="0px" y="0px"
	 viewBox="-140 263 330 268" style="enable-background:new -140 263 330 268;" xml:space="preserve">
<style type="text/css">
	.st0{fill:#D4E0E5;}
	.st1{fill:#504F4F;}
	.st2{fill:#3B3A3A;}
	.st3{fill:#F9F9F9;}
	.st4{fill:#F5F7F7;}
	.st5{fill:#EDF0F1;}
	.st6{fill:#2E2B2C;}
	.st7{fill:#DCE8EC;}
	.st8{fill:#D2D1D2;}
	.st9{fill:#6A6868;}
	.st10{fill:#E4E4E4;}
	.st11{fill:#909194;}
	.st12{fill:#ECC398;}
	.st13{fill:#FCFDFD;}
</style>
<g id="Layer_1_1_">
	<path class="st0" d="M22,515.8c-3.8,0-7.5,0-11.3,0c-0.7-3.4-3.5-2.8-5.9-3.1c-4.6-0.4-9.1-1.2-12-5.4c-0.3-2.5-1.1-4.9,0.1-7.4
		c1.5,0.3,3,0.6,4.6,0.9c-2.4,3.1-1.6,5.5,2.5,6.8c1.2,0.4,2.4,0.6,3.6,0.6c4.2,0.1,8.4,0.4,12.4,2c2.3,0.9,4.7,0.9,7,0.3
		c2.3-0.7,3.9-2.1,2.7-4.9c1-2.1,3.2-2.4,5.1-3.2c0.1,0.2,0.2,0.5,0.4,0.7c0,0.3,0.1,0.6,0.1,0.8c0.2,3.3-1.2,5.6-3.9,7.7
		C25.5,512.9,22.9,513.4,22,515.8z"/>
	<path class="st1" d="M-1.1,513.8c-2.7-1.3-5.7-2.3-6.7-5.6c0.2-0.3,0.5-0.6,0.7-0.9c2.9,4.2,7.4,5,12,5.4c2.4,0.2,5.1-0.3,5.9,3.1
		c-1.3,0-2.5,0-3.8,0C4.6,513.9,1.5,514.8-1.1,513.8z"/>
	<path class="st1" d="M34,505.8c-2.5,3.3-5,6.6-7.5,10c-1.5,0-3,0-4.5,0c0.9-2.4,3.5-2.9,5.3-4.2c2.7-2.1,4.1-4.4,3.9-7.7
		c2.8-0.1,2-1.9,1.7-3.5l0.1-0.2c0.3,0,0.6-0.1,1-0.1c0.2,1.5,0.4,3,0.6,4.6C34,504.8,33.9,505.2,34,505.8z"/>
	<path class="st2" d="M-112,295.3c3.9-2.4,8.5-2.9,12.8-4.4c3.2-1.1,6.3,0.2,9.1,1.8c-2.5-0.2-2.7,2-3.6,3.5
		c-5.8-3.6-7.8-3.3-11.5,0.9c-2.7,3.2-3.1,6.9-3.2,10.7c-2.3,6.5,0.4,11.4,6.4,11.4c2.3,0,4.7-0.2,7-0.3c0.5-0.2,1.1-0.4,1.6-0.6
		c0.1,0.9,0.5,1.5,1.3,1.9c-0.2,0.9-3.8,1.4-0.4,2.9c0.4,1.9-2.4,1.7-2.4,3.4c-2.5-0.1-4.9-2.8-7.5-0.3c-1-0.2-1.2,1.2-2.1,1.2
		c-0.9-0.3-1.4-0.8-1.7-1.7c0.3-0.9,1.3-0.6,1.8-0.9c0.5-0.3,1.1-0.6,1.1-1.3c0-0.8-0.8-0.9-1.3-1c-3.4-0.9-5.9-2.9-7.1-6.3
		c2.1-1.6,0.2-2.9-0.1-4.4c-1.5,0.5-1,1.7-1.2,2.6c-0.4-0.7-0.9-1.4-1.3-2c-0.2-0.3-0.4-0.5-0.6-0.8c0-0.5,0-1,0-1.5
		c1.4-0.1,2.2-1,2.8-2.2c2.8-1.3,3.5-4.2,1.1-5.9c-1-0.7-0.9-1.6-1.4-2.3c0.7-0.4,2.2,0.8,2.3-0.6c0.1-1.5-1.4-1.7-2.6-1.9
		C-112.5,296.7-112.3,296-112,295.3z"/>
	<path class="st1" d="M-112.8,297.3c1.2,0.2,2.7,0.4,2.6,1.9c-0.1,1.5-1.6,0.2-2.3,0.6c-0.5,0.9-0.9,1.9-1.4,2.8c-0.4,0-0.9,0-1.3,0
		c-0.7-2.1,1.2-3.4,1.7-5.1C-113.3,297.5-113,297.4-112.8,297.3z"/>
	<path class="st3" d="M156.2,290.6l0.1,0.2c-0.5,0-1,0-1.5,0"/>
	<path class="st1" d="M165.3,293.7c0.5-0.1,1-0.1,1.5-0.2c0.2,0.1,0.4,0.2,0.7,0.2c0.1,0.4,0.2,0.9,0.4,1.3
		C165,295.4,165,295.4,165.3,293.7z"/>
	<path class="st4" d="M173.7,210.7c0.2,0.2,0.3,0.4,0.5,0.6C174,211.1,173.8,210.9,173.7,210.7z"/>
	<path class="st5" d="M91.8,491.1c-0.3,0.5-0.5,0.9-0.8,1.4c-1.5,0.5-3,1-4.5,1.5c-1.5-0.1-2.1,1.3-3.3,1.8
		c-1.5-1.3-2.5-3.3-5.3-2.2c-1.6,0.7-1.8-1.1-1.9-2.4c2.1-1.2,4-2.6,6.8-1.8c1.6,0.5,3.1-0.7,3.5-2.5c0.3-1.3,1-2.2,1.9-3
		c0.9-0.3,1.5-1,1.7-1.8c0.5-2-1-3.6-2-4.7c-0.9-1-1.4,0.9-1.7,1.9c-0.2,0.4-0.4,0.8-0.5,1.2c0.1,0.3,0,0.5-0.1,0.7
		c-0.8-0.5-0.3-2.2-1.7-2c-1.3,0.3-1.3,1.5-1.2,2.6c-1.2,0.4-0.8,2.4-1.9,2.5c-4,0.5-4.6,4-6.3,6.6c-0.2,1.3-0.8,1.9-2,1.2
		c-1-0.6-2-1.4-1.3-2.7c1.6-2.8,0.9-5.4-0.4-8c2.1-0.8,2-3.7,4.2-4.5c0.7-0.3,1.3-0.8,1-1.7s-1.2-0.7-1.9-0.7
		c-3.1-0.1-4,1.5-4.2,6.8c-0.9,0.2-1.9,0.5-2.8,0.7c0.1-1.7,1.6-3.5,0-5.2c0.4-2.6-1.2-5.4,1.1-7.7c3.1,2.4,6.2,4,9.5,0.2
		c5.5,0.4,9.6,4.8,15,5.6c1.7,0.3,2.1,1.7,2.3,3.4c0.4,5.1-0.9,9.4-5.9,12.5C90.4,490.9,91.1,491,91.8,491.1z"/>
	<path class="st6" d="M145.7,396.5c1.6,2.9-1.1,5.8-0.1,8.7c1.4,4.2,0,7.9-2,11.5c-1.1,0-1.8,0.5-2.2,1.5c-0.3,0.2-0.5,0.5-0.8,0.7
		c-3.2,0.8-6.5,1.5-9.7,2.3c-2.2,0.4-4.6-0.9-6.7,0.6c-0.3,0.3-0.7,0.6-1,1c-0.2,0-0.4,0-0.6,0.1c-0.4-0.4-1.5-0.4-0.8-1.4
		c0.8-0.7,1.7-1.3,1.5-2.6c0.1-0.2,0.1-0.4,0.1-0.6c0.2-0.1,0.5-0.1,0.7-0.2c2.4,0.8,4.9,0.6,7.4,0.1c4.3-0.9,8-5,6.7-8.3
		c-2-5.4-1.1-9.5,3.9-12.5c0.8,0.6,0.4,2.1,1.6,2.6c1-1,0.5-2.3,0.8-3.3C144.8,396.6,145.2,396.6,145.7,396.5z M142.8,402.7
		c-0.8,0.9-1.5,1.8-2.3,2.4c-0.5,0.4-2.1-0.3-1.4,1.2c0.4,0.8,1.1,1.5,2.4,0.8C143.4,406.2,144.8,405.2,142.8,402.7z"/>
	<path class="st6" d="M161.9,352c-0.3,0.1-0.6,0.3-0.9,0.4c-1.7-1-2.7-0.2-3.3,2.8c-1.4,2.8-4.6,2.4-6.9,3.8
		c-2.1,0.8-4.1,1.6-3.7,4.5c-0.4,0-0.9,0-1.3,0c-0.9-3.7-3.7-3.8-6.8-3.6c-0.8,0.3-1.5,0.6-2.3,0.9c-2,0.8-4.6,0.5-5.2,3.6
		c-0.2,1.2-1.9,1.3-3.2,0.5c-0.5-0.2-0.9-0.4-1.4-0.6c0.5-2.9,3-4.5,4.4-6.7c2.4,0.9,3.9-0.7,5.3-2.2c0.7-0.3,1.8,0.3,2.2-0.8
		c5.6,2.4,11,3.3,15-2.8c0.1-0.1,0.1-0.2,0.2-0.3c0.6-0.5,1.2-1,1.8-1.5c1.6,2.5,2.3,0.8,3.2-0.6c0-0.3,0-0.5,0-0.8
		c0.3-0.2,0.5-0.5,0.8-0.7c1.2-0.2,2.3-0.4,3.5-0.6c-0.3,0.9-0.5,1.9-0.8,2.8C161.6,350.3,161.4,351,161.9,352z"/>
	<path class="st7" d="M122.5,423c0.2-0.1,0.4-0.1,0.6-0.1c0.9,1.6,1.9,3.2,2.6,4.9c0.9,2.3,1.7,4.6,3.7,6.3c4.1,3.6,4,4-0.1,7.4
		c-1,1.4-1.7,3.2-4,2.9c-0.6-2.5-2.2-1.1-3.1-0.5c-2.2,1.6-4.9,2.3-7.2,3.6c-1.5-0.2-3.1,0.4-4.6-0.3c1.2-3.4-2.8-3-3.6-4.9
		c2,1.3,4-1.6,6,0.1c1.5,1.8,5.6,2.1,6.2,0.2c1.1-3.4,2.4-6.7,5-9.3c0.4-0.4,0.3-1.4,0.5-2.1c0.2-0.8,0-1.3-0.9-0.8
		c-2.5,1.4-1.3-1.1-1.9-1.7C122.4,426.8,122.7,424.9,122.5,423z"/>
	<path class="st1" d="M91.8,491.1c-0.7-0.1-1.4-0.2-2.8-0.4c5-3.1,6.3-7.4,5.9-12.5c-0.1-1.6-0.6-3.1-2.3-3.4
		c-5.4-0.9-9.5-5.2-15-5.6c-0.8-1.6-2.5-1.8-3.9-2.5c-2.7-1.2-4.7-0.9-5.6,2.3c-2.3,2.3-0.7,5.2-1.1,7.7c-0.3,1.5-0.6,3-0.9,4.5
		c-0.5,0-0.9,0-1.4,0c0.2-4,0.5-7.9,0.6-11.9s3.7-6.9,7.3-5.2c4.7,2.2,9.5,4.1,14.3,6c4.3,3.5,4.5,3.5,5.4-0.4
		c2.8,0.4,2.2,4,4.6,4.8c0.7,1.5,2.7-0.1,3.3,1.5c0,0.7-0.6,0.7-1,0.9c-0.9,0-2.6-1-1.6,1.3c0.5,3.2-1.8,5.9-1.9,9
		c-0.8,0.7-2.3,0.8-2.4,2.2c-0.3,0.5-0.7,1-1,1.4C92.2,490.9,92,491,91.8,491.1z"/>
	<path class="st6" d="M150.2,380.8c2.5,6.2-1.3,11.7-8.2,11.9c-0.9,0.1-0.8,0.7-0.8,1.3c-0.8,0.3-0.9,0.8-0.6,1.5
		c-3.3-1.7-6.9-1.5-10.5-1.4c-0.2-0.7-0.5-1.5-0.7-2.2c0-0.3,0-0.5,0-0.8c3.2,1.1,5.4-0.9,8.1-2.1c5.8-2.5,6.4-2.7,6.4-9.1
		c0.4,0,0.8,0,1.2,0c0.3,0.8,0.6,1.6,0.9,2.4c0.2,0.8,0.3,2,1.2,1.9c1,0,1.2-1.3,1.5-2.1c0.2-0.4,0.3-0.7,0.5-1.1
		C149.4,381,149.8,380.9,150.2,380.8z"/>
	<path class="st2" d="M145,380c-0.4,0-0.8,0-1.2,0c-1.1-2.4-0.9-5-0.9-7.5c0.1-0.3,0.3-0.6,0.4-0.9c1.1-2.6,2.1-5.3,2.7-8.1
		c0.4,0,0.9,0,1.3,0c1.4,1.3,2.9-0.6,4.4,0.1c0.2,1.6,0.3,3.2-0.9,4.5c-0.7-0.8,0.4-2.4-1.3-2.7c-0.3,0-1,0.9-1,1.4
		c0,1.6,1,1.8,2.2,1.3c-0.5,2.5-1.8,4.8-1,7.4c0,0.5-0.1,1-0.1,1.5c-0.7,0-1.5,0-2.2-0.1c-0.7-0.6-1.3-1.2-2-1.9
		c-0.4,1-0.6,1.8-0.3,2.7c0.1,0.5,0.2,1,0.2,1.5C145.1,379.5,145,379.7,145,380z"/>
	<path class="st1" d="M106.7,474.4c-2.1,0.6-3.9,2.6-6.5,1.6c2.4-2.1,5.1-3.5,8.1-4.3c7.6-2,8.7-3.5,8-11.2
		c-0.1-1.4-0.3-2.7-0.4-4.1c1.1-2.2-0.4-4-0.9-6c0.3-0.3,0.5-0.5,0.8-0.8c1.5,0.7,2.2,2.3,2.2,3.7c0.2,5.4,1.2,10.9-0.9,16.2
		c-1.1,1.5-2.9,2.1-4.4,3C110.6,472.7,108.6,473.5,106.7,474.4z"/>
	<path class="st2" d="M115.8,449.7c-0.3,0.3-0.5,0.5-0.8,0.8c-1.4-1-3.1-1.2-4.7-1.7c-6.1-1.6-12.3-0.6-18.5-1.3c0-0.4,0-0.8,0-1.2
		c2-0.1,4-0.2,6-0.3c1.2,0,2.4,0,3.5,0.1c2.4,0.1,1.3-1.2,0.9-2.2c0.3-0.3,0.6-0.6,1-0.9c1.6,2.8,4.2,3.8,7.2,4.3
		c1.5,0.6,3.1,0.1,4.6,0.3c0.2,0.2,0.3,0.5,0.5,0.7C115.6,448.7,115.7,449.2,115.8,449.7z"/>
	<path class="st1" d="M129.3,441.5c4.1-3.4,4.2-3.8,0.1-7.4c-2-1.8-2.7-4-3.7-6.3c-0.7-1.7-1.7-3.2-2.6-4.9c0.3-0.3,0.7-0.6,1-1
		c0.7,0.5,1.4,1.1,2.1,1.6c0.7,1.5,1.3,3,2,4.5c0.6,2.4,1.8,4.5,4,5.8c2.3,1.3,2.1,3.7,1.6,5.6C133.2,441.3,131.3,442,129.3,441.5z"
		/>
	<path class="st8" d="M162.4,340.2c0.4,0,0.9,0,1.3,0c0.4,1.3,0.7,2.6,1.1,3.8s0.8,2.4-0.9,3c0-1.1,0.6-2.5-0.8-3.2
		c-1.3-0.7-1.8,0.3-2.6,1.1c-1.2,1.2-1.2-0.2-1.5-0.9c-0.1-1,0-2-1.4-2.2c-0.4-0.9-1.9-1.3-1.3-2.6c3,0.4,0.2-3.4,2.4-3.5
		C160,339.6,160.3,340,162.4,340.2z"/>
	<path class="st9" d="M115.5,448.2c-0.2-0.2-0.3-0.5-0.5-0.7c2.3-1.3,5-2,7.2-3.6c0.9-0.6,2.4-2.1,3.1,0.5
		C121.9,445.4,119.3,448.2,115.5,448.2z"/>
	<path class="st2" d="M159.2,344c0.3,0.7,0.3,2.1,1.5,0.9c0.8-0.8,1.3-1.8,2.6-1.1c1.4,0.8,0.8,2.1,0.8,3.2
		c-0.1,0.1-0.2,0.2-0.4,0.1c-1.2,0.2-2.3,0.4-3.5,0.6c-0.3-0.4-0.7-0.8-1.1-0.4c-0.5,0.4-0.1,0.8,0.3,1.1c0,0.3,0,0.5,0,0.8
		c-1.1,0-1.5-0.7-1.6-1.7c0.1-0.7,0.2-1.4,0.3-2C158.4,345,158.8,344.5,159.2,344z"/>
	<path class="st1" d="M151.6,363.5c-1.5-0.6-2.9,1.3-4.4-0.1c-0.4-2.9,1.6-3.7,3.7-4.5C149.6,360.7,152.4,361.8,151.6,363.5z"/>
	<path class="st5" d="M128.1,428.1c-0.7-1.5-1.3-3-2-4.5c1.1-0.2,1.6,1,2.5,1.3"/>
	<path class="st8" d="M149.5,377c0-0.5,0.1-1,0.1-1.5c4.1,1.3,0.3,3.6,0.6,5.4c-0.4,0.1-0.8,0.2-1.2,0.2
		C148.3,379.6,149.3,378.3,149.5,377z"/>
	<path class="st9" d="M141.1,394c0.1-0.6,0-1.3,0.8-1.3c0.9,1.6,3.7,1.3,3.7,3.8c-0.4,0-0.8,0-1.2,0.1
		C143.8,395.2,142.2,395,141.1,394z"/>
	<path class="st2" d="M157.7,355.2c0.6-3,1.5-3.8,3.3-2.8C160.5,354,159.7,355.3,157.7,355.2z"/>
	<path class="st10" d="M141.3,418.3c0.4-1,1.2-1.5,2.2-1.5"/>
	<path class="st2" d="M161.9,352c-0.5-1-0.3-1.7,0.9-2C162.9,350.8,162.4,351.4,161.9,352z"/>
	<path class="st10" d="M140.5,420.5c0.1,0.1,0.2,0.1,0.3,0.2C140.7,420.6,140.6,420.6,140.5,420.5L140.5,420.5z"/>
	<path class="st2" d="M-15.5,468.4c1.5,0,3,0,4.4,0c0.3,0,0.6,0,0.9,0c0.5,2.7,2.6,4.7,2.8,7.5c0.3,3.8,1.4,7.6,0.9,11.5
		c-0.1,1.2,0.3,2,1.1,2.6c0.6,0.4,1.3,0.1,1.6-0.5c2.8-4,7.6-5.5,10.8-9.1c2.9-3.3,6.7-5.1,11.3-3.8c0,0.4,0,0.9,0,1.3
		c-4.9-0.8-7.8,2.3-10.9,5.3c0.4,0.1,0.7,0.1,1.1,0.3c1.2,0.5,3,0,3.2,1.8c0.2,1.6-1.5,1.7-2.5,2.4c-1.8,1.3-3.9,2.2-4.4,4.6
		c-3.1,0.1-1-1.6-0.7-2.3c0.7-1.4,2.2-2.3,2.6-4c0.1-0.6,0.6-1.3-0.1-1.6c-0.5-0.2-1.3-0.2-1.7,0.2c-3.8,3.1-8.2,5.8-9.9,10.8
		c-1.3,1.2-1.7,2.7-2,4.4c-1.1,2.5-0.4,4.9-0.1,7.4c-0.2,0.3-0.5,0.6-0.7,0.9c-0.7-1-1.2-2-1.1-3.3c0.1-0.6,0.3-1.2-0.3-1.5
		c-0.8-0.3-0.9,0.4-1,0.9c-0.8,1.5-2.4,1.3-3.7,1.6c-0.5,0-1,0.1-1.5,0.1c-2.3-0.1-4.6,0.1-6.8,0.8c-1.5-0.1-3-0.1-4.5-0.2
		c-0.4-0.2-0.8-0.4-1.2-0.5c-0.4-0.3-0.7-0.6-1.1-0.9c0.3-0.7,0.9-0.7,1.5-0.7c3,0.2,6.1,0.4,9-0.7c6,0.1,7.3-0.9,7.4-5.3
		c0.3-2.2,0.5-4.5,0.8-6.7c0.4-1.5,2-2.5,1.6-4.3c0.9-1.8,0.6-3.6,0.1-5.5c-0.1-0.7-0.2-1.5-0.2-2.2c0.2-2.1-0.4-4.2-1-6.2
		s-1.5-3.7-4.1-3.4c-0.5-0.1-1-0.1-1.5-0.2C-15.5,469.5-15.5,469-15.5,468.4z"/>
	<path class="st0" d="M-57.9,483.4c0.1-0.4,0.3-0.7,0.2-0.8c-0.4-0.6-1-1.1-1.3-1.7c-2.1-5-5.7-9.7-2.2-15.5
		c0.6,1.2,1.4,2.1,2.7,2.5c-2.3,7.5,4.9,15.5,12.1,14c1.9,0.5,4.2-1.3,5.8,1c-4.8,2.3-9.7,3.8-15.2,1.9c0.4,1.8,1.4,1.7,2.2,2"/>
	<path class="st2" d="M-53.7,486.7c-0.8-0.2-1.8-0.2-2.2-2c5.6,2,10.5,0.5,15.2-1.9c1.2-0.3,1.6-1.4,2.1-2.3
		c0.5-0.8,0.9-1.6,1.4-2.3c3,1.4,4.5-1.3,6.7-2.2c1-0.2,2-0.5,3-0.7c0,0.5,0,1,0,1.5c-2.3,1.6-4.7,3.1-6.8,4.8
		c-2.3,1.8-4.6,3.7-4.6,7.1c-1,2-0.2,4.1-0.4,6.1c-0.5,0-0.9,0-1.4,0c-0.1-0.2-0.2-0.5-0.4-0.7c0-2-0.2-4,0.1-5.9
		c0.6-3.2-0.9-2.9-3-2.1c-0.5,0.2-1,0.4-1.4,0.6c-0.5,0.1-1,0.1-1.6,0.2C-49.3,487.3-51.5,487.6-53.7,486.7z"/>
	<path class="st1" d="M-40.8,494.7c0.5,0,0.9,0,1.4,0c1,2.4,2.2,4.7,4.7,6c2.4,1.3,4.8,2.5,7.2,3.7c-0.6,0.1-1.2,0.1-1.5,0.7
		C-34.4,503.4-39.5,501.1-40.8,494.7z"/>
	<path class="st10" d="M-44,486.1c2.1-0.9,3.6-1.1,3,2.1c-0.3,1.9-0.1,3.9-0.1,5.9C-44.3,492.2-44.5,489.3-44,486.1z"/>
	<path class="st1" d="M-53.7,486.7c0.2,1.2-7.2-4.3-7.6-5.7c-0.4-0.7-1.3-2.2-1.7-2.9c-0.1-0.5-0.2-0.9-0.3-1.4
		c0.5-3.6-3.1-6.7-1.3-10.4c0.5-1,1-2,1.5-3c1.3-1.2,1.9-3,3.5-3.9c0.5,0.3,1,0.5,1.4,0.8c-0.1,0.2-0.1,0.4-0.1,0.6
		c-1.6,1.1-2.6,2.6-3,4.5c-3.5,5.8,0.1,10.5,2.2,15.5c0.3,0.6,2.7,3.3,3.1,3.9"/>
	<path class="st5" d="M4.7,492.5c0.5-2.4,2.6-3.4,4.4-4.6c1-0.7,2.7-0.8,2.5-2.4c-0.2-1.8-2-1.3-3.2-1.8c-0.3-0.1-0.7-0.2-1.1-0.3
		c3-3,6-6.2,10.9-5.3c2,1.5,2.6,4,4.3,5.7c0.1,2.5-0.4,5,1,7.2c1.1,4.1,5,6.3,6.9,9.8c0.1,0.5,0.2,0.9,0.3,1.4
		c-1.9,0.8-4,1.2-5.1,3.2c-1.9,0.2-2.9-1-3.5-2.5c-0.4-1-0.8-2.2-1.8-2.1c-2.4,0.2-3.6,3-6.3,3.2c-0.4,0-1.8,0.9-2.8,0.9
		c-1.4-0.1-1.5-1.1-1.2-2.2c0.5-1.5-0.5-3-1.6-2.7c-3.7,0.7-7.4-0.5-11,0.8c-1.5-0.3-3-0.6-4.6-0.9c0.3-1.6,0.8-3.2,2-4.4
		c1.1,0,2.3-0.3,3.3,0.1C1.7,497,3.1,494.6,4.7,492.5z M21.2,494.7c-1.5-1.4-1.5-3.4-2.7-4.8c-0.5-0.6-1.1-1-2-0.8
		c-0.5,0.2-0.9,0.7-0.6,1.2C17.5,492,17.7,495.1,21.2,494.7z"/>
	<path class="st2" d="M-2.5,500.8c3.6-1.3,7.3,0,11-0.8c1.1-0.2,2,1.2,1.6,2.7c-0.3,1.1-0.2,2.1,1.2,2.2c1,0,2.4-0.9,2.8-0.9
		c2.7-0.2,3.9-3,6.3-3.2c1-0.1,1.4,1.1,1.8,2.1c0.6,1.6,1.6,2.8,3.5,2.5c1.2,2.8-0.3,4.3-2.7,4.9c-2.3,0.6-4.7,0.7-7-0.3
		c-4-1.6-8.1-1.9-12.4-2c-1.2,0-2.5-0.2-3.6-0.6C-4,506.3-4.9,503.9-2.5,500.8z M0.2,502.3c-1.1-0.7-1.5-1.8-2.7-1.2
		c-0.2,0.1-0.3,0.7-0.2,0.9C-2.1,503.1-1.2,503,0.2,502.3z"/>
	<path class="st9" d="M32.9,500.3c0.4,1.6,1.1,3.4-1.7,3.5c0-0.3-0.1-0.6-0.1-0.8c0.9-0.6,0.6-1.5,0.7-2.3
		C32.2,500.5,32.5,500.4,32.9,500.3z"/>
	<path class="st1" d="M31.8,500.7c-0.1,0.8,0.2,1.7-0.7,2.3c-0.1-0.2-0.2-0.5-0.4-0.7c-0.1-0.5-0.2-0.9-0.3-1.4
		C30.9,500.8,31.3,500.7,31.8,500.7L31.8,500.7z"/>
	<path class="st7" d="M34.5,504.6c-0.2-1.5-0.4-3-0.6-4.6c1-5.3,2.5-10.4,5.4-15c1.7-0.1,1.2,2.6,3,2.3c-0.2,1.6-1.2,3-0.9,4.7
		c0.1,0.4-0.1,1.1,0.6,0.9c0.3-0.1,0.2-0.9,0.9-0.9c0.3,2.2-0.9,3.7-2.5,5.1c-1.3,1.2-2.3,2.4,0,3.6c-0.1,1,1.5,1.1,1.2,2.4
		c-0.9,3.9,1.9,3.8,4.1,3.1c3.3-1,6.7-2,10.1-2.7c3.2-0.7,5.6-2.6,6.5-6c0.4-1.5,1.2-3.3-1.9-2.4c-1.3,0.4-2.3-1-3.3-1.9
		c2.5-1.6,4.9-3.1,7.4-4.7c1.2,0.7,1.4,2.2,2.3,3.2c0.2,3,0.9,5.9-0.1,8.9c-1.2,1.9-3,3.3-3.5,5.6c-1.9,2.6-4.3,4.2-7.7,4.2
		c-2.1-2.7-4.7-0.8-6.7-0.2C40.8,512.4,38,511.5,34.5,504.6z"/>
	<path class="st9" d="M34.5,504.6c3.5,6.9,6.3,7.8,14.3,5.6c2-0.5,4.6-2.5,6.7,0.2c-2.7,0.7-5.5,1.3-8.2,2.2
		c-6.4,2.1-12.7-1.2-13.3-6.8C33.9,505.2,34,504.8,34.5,504.6z"/>
	<path class="st9" d="M63.2,506.2c0.5-2.3,2.4-3.8,3.5-5.6c0.3,0.3,0.6,0.6,0.9,0.9c0.3,1.5-1.1,2.4-1.6,3.6
		C65.1,505.4,64.2,505.8,63.2,506.2z"/>
	<path class="st1" d="M-10.3,504.3c0.1-0.5,0.2-1.3,1-0.9c0.7,0.3,0.4,0.9,0.3,1.5C-9.4,504.7-9.8,504.5-10.3,504.3z"/>
	<path class="st2" d="M39.4,485c-3,4.6-4.4,9.7-5.4,15c-0.3,0-0.6,0.1-1,0.1c-0.1-1.7-0.3-3.5-0.4-5.2c1.7-0.7,1.3-2.5,2.1-3.8
		c1.7-2.7,1.4-6.5,4.6-8.4C39.3,483.5,39.3,484.2,39.4,485z"/>
	<path class="st10" d="M32.6,494.9c0.1,1.7,0.3,3.5,0.4,5.2l-0.1,0.2c-0.3,0.1-0.7,0.3-1,0.4l0,0c-0.9-2.7-3.1-4.5-4.6-6.7
		C29,494.3,30.8,494.6,32.6,494.9z"/>
	<path class="st2" d="M-93.4,419.7c-0.6-2-1.2-4-1.7-6c0.5-3.3,1.9-6.1,4.7-8.2c0.9-0.9,2.4-1.2,2.8-2.7c-1.3-0.2-2.4-0.4-3.5-0.6
		c-4.5-2.4-9.3-4.7-9.2-10.9c0-2.3,0-4.5,0-6.8c0.2-1.7-0.4-3.2-1.3-4.6c-2.9-4.4-3-8.6,0.4-12.7c1.8-2.1,1.3-3.1-1.3-3.2
		c-0.1-1.3,0.1-2.5,0.8-3.6c4.5,1,9,1.7,12.6-2.2c1.1-2.1,1.9-4.3,1.8-6.8c1.7,0.2,3,0,2.8-2.2c0.4,0,0.9-0.1,1.3-0.1
		c0.3,0.6,0.8,0.8,1.5,0.9c0.6,3.5-1.4,5.7-3.6,8c-0.9,0.9-3,1.1-2.1,3.2c-1.4,0.5-1.6,1.6-1.5,2.9c-0.7,0.2-2,0.3-1.6,1.3
		c0.2,0.7,1.5,0.3,2.3,0.3l0,0c-0.7,2.3-3.2,1.3-4.5,2.3c-3.3,1.1-4.7,3.5-5.3,6.7c-0.4,0-0.8,0-1.2-0.1c-0.2-0.8,0-1.8-1-2.2
		c0-0.5-0.1-0.9-0.1-1.4c-1.2,0.2-1.3,1.4-1.8,2.1c-0.7,0.9,0.3,1.4,1.2,1.5c-0.5,2,1.2,2.9,2.2,4.1c0.1,0.1,0.4-0.7,0.3-1.2
		c0.4,0,0.7,0,1.1,0.1c0.2,0.3,0.5,0.5,0.7,0.8c1.5,2,2.4,4.1,0.8,6.5c-3.3,0.7-3.6,1.5-1.8,6c-0.1-2.6,1.9-2.4,2.6-3.5
		c3.3-0.3,1.6,1.9,1.5,3.2c-0.4,3.6,1.9,7.7,4.9,8.7c3.9,1.3,6.5,0.2,8.9-3.6c1.2-0.7,1-2.2,1.9-3.1c2.7-0.2,2.3,1.8,2.4,3.4
		c-1,1.2-1.3,1.8,0.8,2.1c2.2,0.4,5-0.6,6.7,1.9c-0.6,0.1-1.5,0.4-0.9,1c1.3,1.5,1.3,3.3,1.6,5.1c0.2,1-0.5,2.1,0.7,2.9
		c2.5,1.9,4.2,4.1,3,7.5c-0.7-1.1-1.6-2-3-2.1c-3.1-1.3-4.5-3.3-3.2-6.8c0.2-0.7-0.3-1.6-0.5-2.4c0-1.6-1-2.4-2.2-3.1
		c-4.8-3.5-14.9,0.7-16.6,6.8c-1.3,2.1-0.7,4.5-1.2,6.7c-0.2-0.5-0.5-0.7-1-0.6c-0.4,0.1-0.4,0.4-0.1,0.7c0.2,0.4,0.2,0.9,0.9,0.7
		c-0.5,2.4,0.2,4.6,2.9,4.3c4.1-0.4,3.4,1.6,2.5,4c-0.4,2-0.3,3.7,1.9,4.6c4.9,1.9,13.1,0.9,15.2-4.6c0.9-2.2,2.8-4.1,4.2-6.1
		c0.8,0.4,1,1.2,1,2c-0.1,0.3-0.2,0.6-0.3,0.9c-1.1,1-2.5,1.9-2.4,3.7c1.4,0.7,2.7-0.4,4,0c0.1,0.8,0.1,1.6,0.2,2.4
		c-3.6-0.4-6.1,1.8-8.6,3.9c-1.5,0.5-2.1,1.9-3.2,2.8c-0.3-0.4-0.6-0.8-0.9-1.2c-0.9-1-2-0.7-3-0.5c-3.7-0.4-7.5-0.4-10.4-3.3
		c-0.5-0.4-0.9-0.7-1.4-1.1c-0.4-0.9-1-1.7-2-2.2v-0.1c-0.5-1.1-1-2.3-1.5-3.4C-92.3,421.5-92.6,420.5-93.4,419.7z"/>
	<path class="st6" d="M-81.7,350c-0.6,0-1.2-0.3-1.5-0.9c0-0.4,0-0.8,0-1.3c1.4-1.2,0.5-1.4-0.6-1.6c-0.8-1.1-2.2-0.9-3.2-1.6
		c-1.2-2.8,0.5-5.9-0.8-8.6c-1.6,0.4-0.8,2.2-2,2.7c-0.9-0.6-0.5-1.4-0.5-2.2c-0.1-2.2,0.7-4.6-0.8-6.7c0.5-0.1,1.4,0.2,1.5-0.6
		c0.1-0.8-0.6-0.9-1.2-1c-0.6-0.1-1.2-0.1-1.8-0.1c-0.8-0.5-1.6-1-2.4-1.5c-0.1-1.7,2.7-1.5,2.4-3.4c1.2,0.3,2.1,1.3,3.1,1.8
		c2.6,1.4,3.4,4.8,6.5,5.2c0,0.2,0.1,0.3,0.3,0.2c0.2,3.8,2.2,7.3,1.8,11.2C-81.3,344.5-80.9,347.3-81.7,350z"/>
	<path class="st2" d="M-58.2,460.3c-0.5-0.3-1-0.5-1.4-0.8c-2-1.5-4.5-0.5-6.7-1.3c-0.1-0.2-0.1-0.4-0.1-0.5l0,0
		c2.1-1,4.4-0.6,6.6-0.9c4.5-0.6,8.8-1.6,10.9-6.4c0.9,0,1.7,0.1,2.6,0.1c-0.2,0.7-0.5,1.4-0.7,2.1c-0.4,0.2-0.7,0.4-1.1,0.5
		c0.5,0.4,1,0.3,1.5-0.1c1.7-0.5,3.5-0.5,5.1-1.6c3.8-1,7.3-0.9,9.7,2.9c-1.8,0.1-3.4-1.4-5.3-0.8c-0.5,0-1,0-1.4,0.1
		c-0.6-0.1-1.2-0.2-1.5,0.6c-4.1-0.4-7.6,0.8-10.6,3.6C-53.5,457.9-55.6,459.8-58.2,460.3z"/>
	<path class="st6" d="M-88.9,364.1c-0.1-1.3,0.2-2.4,1.5-2.9c4.3,0.5,7.2,2.6,8.1,7c0.2,0.9,0.9,1.7,1.3,2.6c-3.2,0.2-0.6,3.2-2,4.3
		c-0.9,0.6-1.1,2.4-2.9,1.8c0-0.5,0-0.9,0-1.4c0.1-1.2,0.3-2.4-1.5-2.3c-0.7-1.6-1-3.4-1-5.1c0.2-2.1-1.1-2.5-2.8-2.4l0,0
		C-88.5,365.2-88.7,364.6-88.9,364.1z"/>
	<path class="st6" d="M-46.4,450.5c-0.9,0-1.7-0.1-2.6-0.1c0.3-1.2,0.5-2.4,0.8-3.6c2.5-0.1,2.3-1.9,1.7-3.3
		c-0.7-1.9-1.3,0.2-2.1,0.3c-0.3-0.7-0.6-1.4-0.9-2c-0.1-1.7-0.4-3.2-2-4c-1-1.5-1.1-2.5,1.2-2.4c0.6,0,1.4,0.2,1.5-0.6
		c0.1-0.9-0.7-1.2-1.4-1.5c-0.3-0.1-0.4-0.2-0.4-0.5c1.2-0.4,1.4-1.4,1.4-2.4c0.5-0.2,0.7,0.1,0.8,0.5c0.2,3.3,1,6.3,4.4,7.7
		c1.2,3.7,0.1,7.1-1.4,10.5C-45.7,449.5-46,450-46.4,450.5z"/>
	<path class="st6" d="M-63.5,416.8c1.2-3.4-0.6-5.6-3-7.5c0.3-0.7,0.5-1.5,0.8-2.2c-0.3-0.2-0.5-0.5-0.8-0.7c-0.2,0-0.5,0-0.7,0.1
		c-0.4-1.7-0.3-3.6-1.6-5.1c-0.6-0.7,0.3-0.9,0.9-1c7.3,4.4,10,15,5.3,20.7c-0.1-0.8-0.2-1.6-1-2C-63.6,418.2-63.6,417.5-63.5,416.8
		z"/>
	<path class="st8" d="M-37.3,453.6c1.9-0.6,3.5,0.9,5.3,0.8c1.6,1.7,1.5,3.7,1.4,5.8c-0.8,0.5-1.5,1-2.3,1.5
		c-2.4-0.3-2.8-3.4-5.1-3.8c0-0.2,0-0.5-0.1-0.7C-37.8,456-37.5,454.8-37.3,453.6z"/>
	<path class="st6" d="M-75.4,396.2c-0.1-1.6,0.2-3.6-2.4-3.4c0.1-0.5,0.1-1,0.2-1.5c1.9-0.4,2.6-1.3,2.2-3.4c-0.5-3-1.7-5.6-3.4-8
		c-0.1-0.7-0.2-1.4-0.3-2.1c1.6,0.1,1.2-2.2,2.6-2.3c-0.6,2.9-0.3,5.3,2.3,7.6C-71.4,385.5-72.3,391.7-75.4,396.2z"/>
	<path class="st6" d="M-61.2,427.8c-0.1-0.8-0.1-1.6-0.2-2.4c0.1-0.1,0.1-0.3,0.2-0.4c4.5-1.7,7.9-0.2,11.3,5
		c-0.3,0.8-0.9,1.4-1.8,1.7c-0.8-0.8-1.3-2.2-2.9-1.2c-0.7-3.8-3.8-2.2-6-2.6C-60.9,428.1-61.1,428-61.2,427.8z"/>
	<path class="st1" d="M-27.5,476.8c0-0.5,0-1,0-1.5c3.9-1.3,6.3-5.1,10.3-6.4c0.6-0.2,1.1-0.3,1.7-0.5c0,0.5,0,1.1,0,1.6
		c-1.3,0.7-2.5,1.6-3.8,2.3C-22,473.8-23.9,477-27.5,476.8z"/>
	<path class="st1" d="M-32.8,461.7c0.8-0.5,1.5-1,2.3-1.5c0.5,1.7-0.8,2.8-1.4,4c-1.7,3.2-2.4,6.7-3.1,10.2c-0.5,0-0.9,0-1.4,0
		c0.3-2.8,0.7-5.5,1.6-8.1C-33.9,464.9-33,463.5-32.8,461.7z"/>
	<path class="st8" d="M-36.5,474.4c0.5,0,0.9,0,1.4,0c1.5,0.5,3,1,4.5,1.5c-2.2,0.9-3.8,3.7-6.7,2.2
		C-37.4,476.9-37.2,475.6-36.5,474.4z"/>
	<path class="st2" d="M-44,438.5c-3.5-1.4-4.2-4.4-4.4-7.7C-44,431.7-44.7,435.5-44,438.5z"/>
	<path class="st2" d="M-76.5,375.5c-1.4,0.1-1,2.3-2.6,2.3c-0.2-0.9,1.2-2.4-0.9-2.6c1.4-1.1-1.2-4.1,2-4.3
		C-76.3,372-75.9,373.6-76.5,375.5z"/>
	<path class="st8" d="M-46.4,450.5c0.3-0.5,0.7-1,1-1.5c1.7,0.1,3.3,0.4,3.7,2.5c-1.5,1-3.4,1-5.1,1.6c-0.1-0.2-0.3-0.3-0.4-0.4
		C-46.9,451.9-46.6,451.2-46.4,450.5z"/>
	<path class="st8" d="M-61.2,425.1c-0.1,0.1-0.1,0.2-0.2,0.4c-1.3-0.3-2.6,0.8-4,0c0-1.8,1.3-2.7,2.4-3.7
		C-61.8,422.6-61.4,423.8-61.2,425.1z"/>
	<path class="st2" d="M-51.7,431.8c0.9-0.3,1.4-0.9,1.8-1.7c0.2,0.1,0.5,0.1,0.7,0.2c0,1.1-0.2,2.1-1.4,2.4
		C-51,432.5-51.3,432.1-51.7,431.8z"/>
	<path class="st1" d="M-81.2,329.3c-0.3,0.2-0.5,0.5-0.8,0.7c-0.1-0.1-0.3-0.3-0.4-0.4c0.3-0.2,0.5-0.5,0.8-0.7
		C-81.5,329-81.3,329.2-81.2,329.3z"/>
	<path class="st1" d="M-81.9,330c-0.3,0.2-0.5,0.4-0.8,0.6c-0.2,0-0.3,0-0.3-0.2c0.2-0.3,0.4-0.5,0.6-0.8
		C-82.2,329.8-82.1,329.9-81.9,330z"/>
	<path class="st1" d="M-78.9,327.1c-0.3,0.3-0.5,0.5-0.8,0.8c-0.1-0.1-0.3-0.3-0.4-0.4c0.3-0.2,0.5-0.5,0.8-0.7
		C-79.1,326.8-79,327-78.9,327.1z"/>
	<path class="st1" d="M-80.4,328.6c-0.3,0.2-0.5,0.5-0.8,0.7c-0.1-0.1-0.3-0.3-0.4-0.4c0.3-0.2,0.5-0.5,0.8-0.7
		C-80.7,328.3-80.6,328.5-80.4,328.6z"/>
	<path class="st6" d="M-101.7,360.4c-0.6,1.1-0.9,2.3-0.8,3.6c-3.2-1.8-6-3.9-7.9-7.1c-0.8-1.3,0.8-2,0.4-3.1
		c0.2-0.6,0.3-1.1-0.3-1.5c-1.2-1.2-0.2-2.6-0.1-3.8c1.7-1.9,1.2-3.9-1.6-5.3c-1.2-8.1,0.2-14.8,5.8-17.3c0.3,0.8,0.9,1.4,1.7,1.7
		c-0.6,2.8-2.9,5.1-2.7,8.1l-0.3-0.1c-2.3,0.4-2.8,2-2.3,3.9c0.5,2.3,1.5,1.3,2.3,0.1c0.2,0,0.4-0.1,0.6-0.1l0,0
		c0,0.8,0,1.5-0.1,2.3c-3.3,1.2-1.7,4.4-1,5.5c1,1.5,2.3-0.8,3.4-1.6c0.3-0.2,0.4-0.6,0.6-0.9c1.1,0.2,0.6,1.4,1.3,1.9
		c-0.1,0.4-0.2,0.9-0.4,1.3c-0.3,1.7-1.3,3.3-1,5.1C-105.3,356.1-105.6,358.9-101.7,360.4z"/>
	<path class="st9" d="M-115.2,302.8c0.4,0,0.9,0,1.3,0c0.4,0.7-0.9,2.1,0.2,2.1c3.6-0.1,0.9,2.2,1.4,3.3c-0.6,1.1-1.4,2-2.8,2.2
		C-114.8,307.8-117.1,305.3-115.2,302.8z"/>
	<path class="st9" d="M-112.1,343.2c2.7,1.4,3.3,3.4,1.6,5.3C-112.2,347.1-111.3,344.9-112.1,343.2z"/>
	<path class="st1" d="M-113.2,314.6c0.3-0.8-0.2-2,1.2-2.6c0.3,1.5,2.2,2.8,0.1,4.4C-112.8,316.2-113,315.4-113.2,314.6z"/>
	<path class="st9" d="M-110.4,352.3c0.7,0.4,0.5,0.9,0.3,1.5C-111.1,353-111.1,352.8-110.4,352.3z"/>
	<path class="st1" d="M-115.1,311.7c0.2,0.3,0.4,0.5,0.6,0.8C-115,312.5-115.3,312.3-115.1,311.7z"/>
	<path class="st6" d="M-84.5,297.5c3.4,9.4,2.5,19.1-7.7,22.9c-0.8-0.4-1.2-1-1.3-1.9c0-0.3,0-0.5,0-0.8c3.1-0.7,4.4-4,3.1-7.6
		c-0.2-0.8,0.2-1.4,0.6-2c0.3-0.7,0.9-0.9,1.7-0.9c0,0.1,0,0.2,0.1,0.3c0,0,0.1,0,0.2,0.1c-0.1-0.1-0.2-0.2-0.3-0.3c0-0.3,0-0.6,0-1
		c1.3-1.7,1.6,2.1,2.5,0.6c0.6-1,1.9-2.5,0-3.7c-0.2-1.1-0.7-2.4-1.7-2.4c-1.4,0-1.6,1.5-1.7,2.7c-0.7-0.3-1.4-0.5-2.2-0.8
		c-0.2-1,0-1.8,0.6-2.6c0.2-1.5-0.5-2-1.9-1.6c-1.5-0.1-1.3-1.2-1.1-2.2c0.8-1.5,1-3.7,3.6-3.5c0.2-0.1,0.3,0,0.4,0.2
		c-2.4,2.7,0.9,4.3,1.7,5.8C-86.8,301-85.6,298.4-84.5,297.5z"/>
	<path class="st2" d="M-84.5,297.5c-1.1,0.9-2.3,3.5-3.5,1.3c-0.9-1.5-4.2-3.1-1.7-5.8c2.3,0.1,3.6,1.7,5,3.2
		C-84.6,296.6-84.5,297.1-84.5,297.5z"/>
	<path class="st5" d="M-102.8,346.6c-0.7-0.5-0.1-1.7-1.3-1.9c-0.6-1.1-0.9-2.3-2.1-2.9c-0.1-0.7-0.2-1.5-0.2-2.2
		c1.7-4.2,4.9-8.1,3.9-13.1c2.6-2.5,5,0.2,7.5,0.3c0.8,0.5,1.6,1,2.4,1.5c0.2,0.8,0.9,1.3,1.6,1.7c1.5,2.1,0.7,4.4,0.8,6.7
		c0,0.8-0.4,1.6,0.5,2.2c0.1,1.3-1.8,1.5-1.5,2.9c-0.7,4.1,2.1,6.7,4,9.8c0.2,2.5-0.6,4.6-1.8,6.8c-1.9-0.3-3.8-0.7-5.8-1
		c0.9-3.1,0.5-6.4,0.7-9.6c0-0.6,0.1-1.3-0.8-1.4c-0.6-0.1-1,0.4-0.8,0.9c1.9,4.2-1.9,6.5-3.3,9.6c-2.9,0.4-2.8-3.3-5.1-3.8
		c-0.3-1.8,0.7-3.4,1-5.1c3,0.3,4.7-0.9,4.9-4c0-0.6,0.1-1.2,0.9-1.3c1.2,2,1.5-0.1,2.2-0.5c-0.8-1.2,0-4-2.9-3.2
		c-2.6-3.3,2.5-6.1,0.7-10.1c-1.3,2.7-2.4,4.9-3.5,7.1c-2.4,1.6-2.5,4.7-0.2,6.7c-0.5,0.7-0.5,1.2,0,2.1
		C-100.3,346-100.3,347.7-102.8,346.6z"/>
	<path class="st5" d="M-93.7,296.4c-0.2,1-0.4,2.1,1.1,2.2c0.6,0.5,1.3,1.1,1.9,1.6c-0.6,0.8-0.9,1.6-0.6,2.6
		c-0.8,2.1-1.7,4.3,1.4,5.4c-0.4,0.6-0.8,1.2-0.6,2c-0.6,3.5-3.8,2.2-5.8,3.1c0-3.1-2.1-5.5-2.9-8.2c-0.6-2-1.4-2.7-3.1-2.3
		c-1.5,0.3-2.4,1.7-3.2,2.9c-0.4,0.6-0.1,1.6,0.7,1.9c1.1,0.3,0.4-0.8,0.7-1.1c1-1.2,1.9-0.8,2.7,0.2c1.1,1.3,1.2,2.9,1.1,4.5
		c-1.2,0.3-1.8,1.2-2.5,2.1c-4.1,0.7-4.3-3-5.8-5.2c0.1-3.9,0.5-7.6,3.2-10.7C-101.6,293-99.5,292.8-93.7,296.4z"/>
	<path class="st0" d="M-96.2,313.2c2-0.9,5.2,0.4,5.8-3.1c1.3,3.6,0,6.9-3.1,7.6c0-0.5-0.1-1.1-0.7-0.9c-1,0.4-0.7,1.4-0.9,2.3
		c-2.3,0.1-4.7,0.3-7,0.3c-6,0-8.7-4.9-6.4-11.4c1.5,2.3,1.7,5.9,5.8,5.2c-0.2,1-1.3,1.9,0.3,3c1-1.2,2-2.4,3.1-3.6
		C-98,311.1-97.7,315.3-96.2,313.2z"/>
	<path class="st0" d="M-102.5,326.4c1.1,5.1-2.1,8.9-3.9,13.1c-0.2-0.1-0.4-0.1-0.6-0.1l0,0c-0.1-1.2-0.2-2.5-0.3-3.7
		c-0.2-3.1,2-5.3,2.7-8.1C-103.7,327.5-103.5,326.2-102.5,326.4z"/>
	<path class="st10" d="M-112.3,308.1c-0.5-1.1,2.2-3.3-1.4-3.3c-1,0,0.2-1.4-0.2-2.1c0.5-0.9,0.9-1.9,1.4-2.8
		c0.4,0.8,0.4,1.6,1.4,2.3C-108.8,303.9-109.4,306.8-112.3,308.1z"/>
	<path class="st11" d="M-95.1,319.1c0.2-0.8-0.1-1.9,0.9-2.3c0.6-0.3,0.7,0.4,0.7,0.9c0,0.3,0,0.5,0,0.8
		C-94,318.7-94.6,318.9-95.1,319.1z"/>
	<path class="st12" d="M27.2,494L27.2,494L27.2,494L27.2,494z"/>
	<path class="st12" d="M85,450.2L85,450.2L85,450.2L85,450.2z"/>
	<path class="st12" d="M107.5,389L107.5,389L107.5,389L107.5,389z"/>
	<path class="st12" d="M109,390.5L109,390.5L109,390.5L109,390.5z"/>
	<path class="st12" d="M109.7,391.2L109.7,391.2C109.8,391.3,109.7,391.3,109.7,391.2C109.7,391.3,109.7,391.2,109.7,391.2z"/>
	<path class="st12" d="M110.5,392L110.5,392L110.5,392L110.5,392z"/>
	<path class="st12" d="M111.3,392.8h-0.1C111.2,392.8,111.2,392.8,111.3,392.8L111.3,392.8z"/>
	<path class="st3" d="M-15.5,192.3c-0.1-0.2-0.2-0.3-0.3-0.5c0.2-0.1,0.5-0.2,0.7-0.4c0.1,0.2,0.2,0.4,0.2,0.6
		C-15.1,192.1-15.3,192.2-15.5,192.3z"/>
	<path class="st3" d="M58,459.5c-0.2,0.3-0.3,0.6-0.5,0C57.7,459.5,57.8,459.5,58,459.5z"/>
	<path class="st12" d="M107.5,389L107.5,389L107.5,389L107.5,389z"/>
	<path class="st12" d="M109,390.5L109,390.5L109,390.5L109,390.5z"/>
	<path class="st12" d="M109.8,391.2C109.8,391.2,109.8,391.3,109.8,391.2L109.8,391.2C109.7,391.2,109.8,391.2,109.8,391.2z"/>
	<path class="st12" d="M110.5,392L110.5,392L110.5,392L110.5,392z"/>
	<polygon class="st12" points="111.2,392.7 111.3,392.7 111.3,392.8 	"/>
	<path class="st12" d="M121.8,363.4L121.8,363.4C121.8,363.5,121.8,363.5,121.8,363.4C121.7,363.5,121.7,363.5,121.8,363.4
		C121.7,363.5,121.8,363.5,121.8,363.4z"/>
	<path class="st1" d="M107.5,388.2c0,0.3,0,0.5,0,0.8c-0.4,0-0.8,0-1.1-0.1C106.5,388.3,106.9,388.2,107.5,388.2z"/>
	<path class="st6" d="M140.9,310.9c-2.3-3.1-1.5-6.4-0.3-9.6c0.6-0.4,1.3-0.7,1.3-1.6l0.2,0.1c0.3,0,0.6,0,0.9,0
		c-0.7,3.4-1.9,7.1,3.2,8.3c0.5,0.8,1,1.7,1.6,2.5C145.5,311.8,143.1,309.5,140.9,310.9z"/>
	<path class="st6" d="M165.3,293.7c-0.3,1.6-0.3,1.6,2.5,1.3c0.5,0.3,1.1,0.7,1.6,1c0.3,0.5,0.6,1,0.9,1.5c1.3,3-0.1,5.9,0,8.9
		c-0.5,2.4-4.2,3.6-2.5,6.8c-1-0.2-2.2,0.3-2.8-1c0.6-4.1-0.6-8.2,0.4-12.3c0.4-1.7-1-2.8-2.3-2.9c-2.3-0.2-4.3-0.9-6.1-2.4
		c-0.2-1.3-0.5-2.5-0.7-3.8l-0.1-0.2c0.3,0.1,0.5,0.1,0.8,0.2c0.4,0.7,0.9,1.2,1.7,1.5c1,1.1,1.9,1,2.8-0.1c0.3,0,0.5,0,0.7,0.1
		c0.2,0.6-0.1,1.9,0.8,1.7c1.1-0.2,0.1-1.1,0-1.8C164.5,291.7,165.1,292.3,165.3,293.7z"/>
	<path class="st2" d="M162.4,340.2c-2.1-0.2-2.4-0.6-3.5-4.5c-2.3,0.2,0.6,3.9-2.4,3.5c-0.4-2.6,0-5.2,0.9-7.7
		c1-2.8,0.8-5.4-1.1-7.7c0.3-0.6,0.7-0.7,1.3-0.8c0.8,2,2.5,2.8,4.6,3c0.1,1.2,0.3,2.5,0.4,3.7c-0.7-0.1-1.6-0.3-1.6,0.8
		c0,0.8,0.8,0.7,1.4,0.7C161.7,334.3,161.3,337.2,162.4,340.2z M159.9,328.4c0.4,0.2,0.7,0.3,1,0.4c0.1,0,0.4-0.4,0.3-0.5
		c-0.1-0.2-0.4-0.4-0.6-0.6C160.5,327.8,160.3,328,159.9,328.4z"/>
	<path class="st9" d="M167.8,313.2c1.1,0.5,0.5,1.5,0.5,2.3c-0.2,0.3-0.5,0.5-0.7,0.8c-0.8,0.2-1.3,1.1-2.2,0.7
		c-0.2-1-1.8-1.1-1.5-2.4c-0.2-1.1,0.5-1.8,1.2-2.4C165.6,313.5,166.8,313,167.8,313.2z"/>
	<path class="st9" d="M160.8,322.2c0.5,1,1.1,2,1.6,3c-0.1,0.3-0.2,0.5-0.2,0.8c-2-0.3-3.7-1-4.6-3c0.9-0.1,1.9,0.1,2.5-0.8
		C160.3,322.2,160.5,322.2,160.8,322.2z"/>
	<path class="st9" d="M162.3,331.2c-0.6-0.1-1.4,0.1-1.4-0.7c0-1,0.9-0.9,1.6-0.8C163.3,330.4,162.6,330.8,162.3,331.2z"/>
	<path class="st1" d="M146.2,308c-5.1-1.2-3.9-4.8-3.2-8.3c0.5-1-0.5-0.6-0.8-0.7c-1.4-1.8,1-1.5,1.3-2.3c0.4-0.1,0.9-0.3,1.3-0.4
		c0.1,0.6,0.2,1.1,0.3,1.7c-0.3,0.4-0.8,0.8-0.8,1.1c0.4,1.3,1.5,0.2,2.2,0.6c0.4,0.3-0.5,1.5,0.8,1.2
		C148.5,303.5,145.4,305.5,146.2,308z"/>
	<path class="st2" d="M156.3,290.9c0.2,1.3,0.5,2.5,0.7,3.8c-1.9,1.2-4.2-1.5-6.1,0.5c-0.2,0.1-0.4,0.1-0.6,0.2
		c-0.4-0.4-0.7-0.7-1.1-1.1c0.2-1-0.3-1.3-1.2-1.2c-0.4-0.1-0.8-0.1-1.1-0.2c1.3-2.3,3.7-1.1,5.5-1.6c0.8,0,1.7,0.6,2.3-0.5
		C155.3,290.9,155.8,290.9,156.3,290.9z"/>
	<path class="st1" d="M145.9,293.4c0.3-0.2,0.7-0.3,1-0.5c0.4,0.1,0.8,0.1,1.1,0.2c-0.8,1.3-1.6,2.5-2.3,3.8c0-0.4-0.1-0.9-0.1-1.3
		C145.2,294.7,145.7,294.1,145.9,293.4z"/>
	<path class="st2" d="M145.7,295.5c0,0.4,0.1,0.9,0.1,1.3c-0.2,0.4-0.5,0.8-0.7,1.2c-0.1-0.6-0.2-1.1-0.3-1.7
		C145.1,296,145.4,295.8,145.7,295.5z"/>
	<path class="st8" d="M161.5,292.2c-0.9,1.1-1.8,1.2-2.8,0.1c1.8-0.2,1.6-1,0.5-1.9c-0.2-0.1-0.3-0.3-0.2-0.5
		c0.6,0.1,1.2,0.1,1.7,0.2c0.3,0.2,0.5,0.5,0.8,0.7C161.5,291.2,161.5,291.7,161.5,292.2z"/>
	<path class="st3" d="M160.7,290c-0.6-0.1-1.2-0.1-1.7-0.2"/>
	<path class="st2" d="M159.2,290.4c1.1,1,1.3,1.7-0.5,1.9c-0.8-0.3-1.3-0.8-1.7-1.5C157.7,290.7,158.5,290.5,159.2,290.4z"/>
	<path class="st2" d="M142.2,299c0.3,0.2,1.3-0.3,0.8,0.7c-0.3,0-0.6,0-0.9,0C142.1,299.5,142.1,299.3,142.2,299z"/>
	<path class="st1" d="M163,292.3c0.1,0.6,1.1,1.6,0,1.8c-0.9,0.2-0.6-1.1-0.8-1.7C162.5,292.3,162.8,292.3,163,292.3z"/>
	<path class="st7" d="M67,482c0.9-0.2,1.9-0.5,2.8-0.7c0.3,0.1,0.6,0.1,0.9,0.2c1.4,2.6,2,5.2,0.4,8c-0.7,1.3,0.3,2.1,1.3,2.7
		c1.2,0.7,1.9,0.1,2-1.2c0.5,0.1,1,0.2,1.5,0.3c0.1,1.3,0.3,3.1,1.9,2.4c2.8-1.2,3.8,0.9,5.3,2.2c-1.7,2-4.5,2-6.4,3.4
		c-1.7-0.1-2.7-1.5-4.1-2.1c1.2-0.7,1.4-1.8,0.8-2.8c-1-1.6-2.6,0.1-3.9-0.4c-0.5-0.8-0.5-2-1.6-2.3c0.1-1.6-0.7-2.9-1.1-4.4
		c-0.1-1.8-0.2-3.5-0.3-5.3C66.7,482,66.9,482,67,482z"/>
	<path class="st6" d="M76,491.3c-0.5-0.1-1-0.2-1.5-0.3c1.6-2.6,2.2-6.1,6.3-6.6c1.1-0.1,0.7-2.1,1.9-2.5c1.1,0.6,2.4,1.8,2.9-0.7
		c0.2-0.2,0.2-0.4,0.1-0.7c0.5,0,1,0,1.5,0c0.3,1.2-0.5,2.6,1,3.5c-1,0.8-1.7,1.7-1.9,3c-0.4,1.8-1.9,3-3.5,2.5
		C80,488.7,78.1,490.1,76,491.3z"/>
	<path class="st0" d="M68.1,469c0.8-3.2,2.9-3.5,5.6-2.3c1.4,0.6,3.1,0.9,3.9,2.5C74.4,473,71.3,471.4,68.1,469z"/>
	<path class="st2" d="M70.8,481.4c-0.3-0.1-0.6-0.1-0.9-0.2c0.2-5.2,1.2-6.8,4.2-6.8c0.7,0,1.6-0.2,1.9,0.7c0.3,0.9-0.3,1.4-1,1.7
		C72.8,477.7,72.9,480.6,70.8,481.4z"/>
	<path class="st11" d="M76.7,499.2c2-1.5,4.7-1.5,6.4-3.4c1.2-0.5,1.8-1.9,3.3-1.8c0,0.5,0,1,0,1.4c-3.1,1.8-5.7,4.7-9.7,4.5
		C76.8,499.8,76.8,499.5,76.7,499.2z"/>
	<path class="st9" d="M88.2,484c-1.4-0.8-0.7-2.3-1-3.5c0.5-0.3,0.7-0.8,0.4-1.1c-0.2-0.2-0.9-0.1-1.3-0.1c0.3-1,0.9-2.9,1.7-1.9
		c1,1.2,2.5,2.8,2,4.7C89.8,483,89.1,483.6,88.2,484z"/>
	<path class="st8" d="M85.6,481.2c-0.5,2.4-1.7,1.2-2.9,0.7c0-1.1,0-2.4,1.2-2.6C85.3,479,84.8,480.7,85.6,481.2z"/>
	<path class="st10" d="M67,482c-0.2,0-0.3,0-0.5,0c-0.1-0.3-0.2-0.5-0.3-0.8c0.3-1.5,0.6-3,0.9-4.5C68.7,478.5,67.2,480.2,67,482z"
		/>
	<path class="st8" d="M86.3,479.3c0.5,0,1.1-0.1,1.3,0.1c0.4,0.4,0.1,0.8-0.4,1.1c-0.5,0-1,0-1.5,0
		C85.9,480.1,86.1,479.7,86.3,479.3z"/>
	<path class="st5" d="M130,394.2c3.6-0.1,7.1-0.3,10.5,1.4c0,1.1,1.2,1,1.5,1.8c-5.1,3-5.9,7.2-3.9,12.5c1.3,3.4-2.5,7.5-6.7,8.3
		c-2.4,0.5-4.9,0.7-7.4-0.1c0.2-1.7-0.6-3.1-0.9-4.7c1.5-1.6,3.2-2.1,5.3-1.2c0.6,0.2,1.3,1.2,1.9,0.4c0.6-0.8-0.3-1.6-0.4-2.4
		c0-1.4,1.4-2.6,0.1-4.2c-1.1-1.3,0.7-2.4,1.3-2.5c4.8-0.5,2.1-2.5,0.9-4.2c0.2-0.7,1-1.2,0.4-2.2c-1.3,0.8-2.8,1.1-4.3,0.9
		c-2.7-0.3-4.2,0.8-4.3,3.6c-1.6,0.6-2.3,2-3.5,3.2c1.8,0.8,2.5-0.4,3.4-1.1c0.8-0.6,1.3-0.6,1.8,0.2c-0.8,0.8-0.7,2-1,3
		c-0.7,2.2-1.3,4.4-4.3,4.5c-2.7-1.3-3.6-4.9-6.8-5.5c1.3-2.8,3.7-5.3,2.5-9c-0.3-1,1-1.6,2.2-2c3.4-1.2,6.9-0.3,10.2-0.9
		C129,394.2,129.5,394.2,130,394.2z"/>
	<path class="st5" d="M112.8,442.3c-2-1.7-4,1.2-6-0.1c-0.3-0.3-0.5-0.5-0.8-0.8c0-0.5,0-1,0-1.5c0.7-0.1,1-0.5,1.1-1.2
		c1-4.9,3.8-8.7,7.9-11.7c0.2-0.2,0.5-0.4,0.7-0.5c-0.2-0.2-0.5-0.4-0.7-0.6c-4-2.1-5.5,2.4-8.3,3.2c-2.8,0.8-3.1,2.5-1.4,4.7
		c-1.6,0-3.2-0.1-3,2.3c-0.5-0.7-1-1.5-1.5-2.2c-0.8-0.6-0.7-1.5-0.9-2.3c0.2-3.2,2.4-5.5,4.3-7.4c3.3-3.2,6.9-6.7,12.3-4.3
		c0.6,0.4,1.1,0.6,1.5-0.2l-0.1-0.1c0.7,2,2,2.4,3.9,1.6l-0.1,0.2c-0.6,1,0.4,1,0.8,1.4c0.2,1.9-0.1,3.8-0.7,5.7
		c-1.9,3.1-5.1,4.1-8.8,4.9c1.6,1.4,2.8,2,3.7,3c0.8,0.9,1.1,2.1,0.4,2.5C115.4,440,114.9,442.1,112.8,442.3z"/>
	<path class="st0" d="M113.6,406.1c3.2,0.6,4.1,4.2,6.8,5.5c0.1,1.1-1,2.6,0.4,3.3c1.1,0.6,1.2-1.3,2.3-1.5c0.3,1.6,1.1,3,0.9,4.7
		c-0.2,0.1-0.5,0.1-0.7,0.2c-0.3,0-0.5-0.1-0.8-0.1c-0.2-0.1-0.4-0.1-0.6-0.1c-0.6-0.9-1.4-1.4-2.4-1.4c-1.9-1.1-3.9-1.1-6-0.7
		c-0.3-1-0.5-2-0.8-3C113.1,410.8,112.4,408.3,113.6,406.1z"/>
	<path class="st8" d="M142.8,402.7c2,2.5,0.6,3.4-1.2,4.5c-1.3,0.7-2,0-2.4-0.8c-0.7-1.5,0.9-0.8,1.4-1.2
		C141.4,404.5,142,403.6,142.8,402.7z"/>
	<path class="st9" d="M121.9,418.2c0.2,0,0.4,0,0.6,0.1c0.2,0.2,0.4,0.5,0.7,0.7c0.2,1.3-0.8,1.9-1.5,2.6l0.1-0.2
		c-0.8-1.6-2.3-1.6-3.9-1.6l0.1,0.1c-0.2-0.8-0.9-0.8-1.5-0.9c0.2-2.3,1.8-1.2,3-1.4C119.9,419.6,121.2,417.9,121.9,418.2z"/>
	<path class="st11" d="M142,397.4c-0.3-0.8-1.6-0.7-1.5-1.8c-0.3-0.7-0.1-1.2,0.6-1.5c1.1,0.9,2.7,1.1,3.3,2.6
		c-0.3,1.1,0.2,2.4-0.8,3.3C142.4,399.4,142.9,398,142,397.4z"/>
	<path class="st1" d="M123.2,419c-0.2-0.2-0.4-0.5-0.7-0.7c0.3,0,0.5,0.1,0.8,0.1C123.3,418.6,123.2,418.8,123.2,419z"/>
	<path class="st5" d="M145.9,363.5c-0.5,2.8-1.6,5.5-2.7,8.1c-0.2-0.3-0.4-0.5-0.6-0.8c-0.1-1.4,0.6-3.3-1-4c-0.9-0.4-2,0.7-2.6,1.7
		c-0.9,0.1-1.8-0.2-2.5-0.1c-2.5,0.1-4.3,1.3-4.2,4.2c-2.3,1.7-3.6,4-3.8,6.9c-0.3,3.5-0.5,7-0.7,10.5c-4.5-1.1-5.2-4.8-5.9-8.5
		c0.8-1.6,1.6-3.2,2.5-4.8c2.6-3.5,2.5-8,4.2-11.8c1.3,0.8,3,0.6,3.2-0.5c0.6-3.1,3.2-2.8,5.2-3.6c-0.1,1.1,0.2,1.8,1.6,1.5
		c1.7-0.4,1.3-1.3,0.7-2.3C142.1,359.6,145,359.8,145.9,363.5z"/>
	<path class="st5" d="M156.2,323.8c1.9,2.4,2.1,5,1.1,7.7c-0.9,2.5-1.3,5.1-0.9,7.7c-0.6,1.4,0.9,1.8,1.3,2.6
		c-1.1,1.3,0.4,2.4,0.2,3.6c-0.1,0.7-0.2,1.4-0.3,2c-0.9,0.6-1.3,1.4-1.6,2.4c-0.6,0.5-1.2,1-1.8,1.5c-0.7-2.2-1.6-4.3-4.6-3.6
		c0.3-1.1-0.7-1.4-1.2-2.1c-2.9-4.2-2.1-6.4,2.8-7.5c0.5-0.1,1,0,1.2-0.6c0.2-0.8-0.3-1.1-1-1.1c-1.4,0-1.5-0.8-1.3-2
		c0.2-1.1-0.2-2.4-1.2-2.9c-2.1-1.1-0.6-2.1-0.2-3.2c1.3-2.1,0.6-4.5,0.8-6.8c1.3-0.2,2.4,1,3.7,0.4
		C154.2,322.6,155.2,323.2,156.2,323.8z"/>
	<path class="st7" d="M149.7,347.7c3-0.7,3.9,1.4,4.6,3.6c-0.1,0.1-0.1,0.2-0.2,0.3c-4.1,6.1-9.4,5.2-15,2.8
		c-0.2-0.6-0.7-0.8-1.3-0.7c0.1-1.5-0.2-2.9-1-4.3c-1.6-2.8-1.4-5.9,0.1-8.6c1.3-2.3,3.8-2.9,6.1-2.2c2.7,0.9,1.1,2.6,0.3,4.2
		c-1.4,2.8,1.9,4.4,2,6.8C146.3,348,148.7,349.5,149.7,347.7z"/>
	<path class="st1" d="M128.5,364.8c-1.7,3.8-1.6,8.3-4.2,11.8c-0.4-0.4-0.8-0.8-1.2-1.2c0.4-1.1,0.9-2.2,1.3-3.3
		c0.1-0.3,0.1-0.6,0.2-0.8c-0.2,0.1-0.5,0.2-0.7,0.3c-0.4,0.1-0.9,0.2-1.3,0.3c0-2.1-0.5-4.3,2.1-5.4c0.2,0.4,0.4,0.9,0.5,1.3
		c0.5-0.3,0.5-0.8,0.3-1.3l0,0c0.5-0.7,1.1-1.5,1.6-2.2C127.5,364.4,128,364.6,128.5,364.8z"/>
	<path class="st8" d="M137.7,353.8c0.6-0.1,1.1,0.1,1.3,0.7c-0.4,1.1-1.5,0.5-2.2,0.8c-1.7-0.6-3.5-0.2-5.3-0.3
		c-0.2-1.8,0.9-2.9,2.4-3.6C134.8,352.8,135.6,354.3,137.7,353.8z"/>
	<path class="st11" d="M127,364.2c-0.5,0.7-1.1,1.5-1.6,2.2c-0.3-2.4,1-4.4,1.7-6.6c1.1-0.9,2.1-2,3.6-2.5c0.2,0.1,0.5,0.1,0.7,0.2
		C130,359.8,127.5,361.3,127,364.2z"/>
	<path class="st1" d="M131.4,357.5c-0.2-0.1-0.5-0.1-0.7-0.2c0-0.8-0.3-1.3-1-1.6c0.6-0.2,1.2-0.5,1.8-0.7c1.8,0.1,3.5-0.3,5.3,0.3
		C135.3,356.8,133.9,358.4,131.4,357.5z"/>
	<path class="st11" d="M139.1,359.9c0.6,1,1,1.9-0.7,2.3c-1.4,0.3-1.7-0.3-1.6-1.5C137.6,360.4,138.3,360.1,139.1,359.9z"/>
	<path class="st1" d="M156.1,349.9c0.2-1,0.7-1.8,1.6-2.4c0.1,1,0.5,1.7,1.6,1.7C158.4,350.6,157.7,352.3,156.1,349.9z"/>
	<path class="st1" d="M159.2,348.5c-0.4-0.3-0.8-0.7-0.3-1.1c0.4-0.4,0.8,0,1.1,0.4C159.8,348,159.5,348.2,159.2,348.5z"/>
	<path class="st2" d="M112.8,442.3c2.1-0.2,2.6-2.4,4.2-3.3c0.8-0.4,0.5-1.6-0.4-2.5c-0.9-1-2.2-1.6-3.7-3c3.7-0.8,6.9-1.8,8.8-4.9
		c0.6,0.6-0.6,3.1,1.9,1.7c0.9-0.5,1.1,0.1,0.9,0.8c-0.1,0.7,0,1.7-0.5,2.1c-2.6,2.6-3.9,5.8-5,9.3
		C118.4,444.4,114.3,444.1,112.8,442.3z"/>
	<path class="st0" d="M106,441.5c0.3,0.3,0.5,0.5,0.8,0.8c0.9,1.9,4.8,1.5,3.6,4.9c-3-0.4-5.6-1.5-7.2-4.3c-0.1-0.4-0.2-0.9-0.3-1.3
		C103.9,441.6,104.9,441.5,106,441.5z"/>
	<path class="st6" d="M67.9,491.7c1.1,0.4,1.1,1.5,1.6,2.3c0.2,0.4,0.4,0.9,0.6,1.3c-0.1,0.6-0.1,1.2-0.2,1.8
		c-2.2,0.7-1.3,3-2.3,4.4c-0.3-0.3-0.6-0.6-0.9-0.9c1-2.9,0.3-5.9,0.1-8.9C67.2,491.7,67.5,491.7,67.9,491.7z"/>
	<path class="st1" d="M70,497.1c0.1-0.6,0.1-1.2,0.2-1.8c1,0.4,1.3,1.8,2.5,1.9c1.4,0.6,2.4,2,4.1,2.1c0,0.3,0,0.5,0,0.8
		C73.6,501,71.7,499.2,70,497.1z"/>
	<path class="st7" d="M115.9,456.5c0.1,1.4,0.3,2.7,0.4,4.1c0.7,7.7-0.4,9.1-8,11.2c-3,0.8-5.7,2.3-8.1,4.3h0.1
		c-0.7-1.5-2.7,0-3.3-1.5c0.7-2.1,3-3.5,2.3-6.1c1.1,0,1.9-0.6,2.3-1.6c1.9,2,3.9,0,5.9,0.1c4,0.2,6.7-3.8,5.5-7.6
		c-0.3-1-1.4-1.9,0-2.9C113.9,456.5,114.9,456.5,115.9,456.5z"/>
	<path class="st0" d="M99.2,468.5c0.7,2.6-1.6,4-2.3,6.1c-2.3-0.8-1.8-4.4-4.6-4.8c-0.2-0.2-0.4-0.3-0.5-0.5
		c-0.5-3.7,0.5-7.8-3.1-10.6c-0.1-0.5-0.1-0.9-0.2-1.4c2.3,0.3,4.2,1.7,6.1,3c0.9,1.9,0.5,4.3,2.2,5.9
		C97.4,467.2,98.2,468,99.2,468.5z"/>
	<path class="st8" d="M91.9,469.3c0.2,0.2,0.4,0.3,0.5,0.5c-0.9,3.8-1.1,3.8-5.4,0.4c1.5-0.2,2.5-1.1,3.2-2.4
		C91,468.1,90.7,469.4,91.9,469.3z"/>
	<path class="st9" d="M66.2,481.2c0.1,0.3,0.2,0.5,0.3,0.8c0.1,1.8,0.2,3.5,0.3,5.3c-0.6,0-1.1-0.2-1.3-0.8c-0.3-1.5-0.6-3-0.9-4.5
		c0.1-0.3,0.1-0.5,0.2-0.8C65.3,481.2,65.7,481.2,66.2,481.2z"/>
	<path class="st7" d="M99.3,477c-0.1,1-0.7,1.3-1.6,1.3C96.6,475.9,98.4,476.9,99.3,477z"/>
	<path class="st7" d="M127.7,389.9c0.2-3.5,0.4-7,0.7-10.5c0.3-2.8,1.5-5.2,3.8-6.9c4.8-0.1,2.1,2.6,1.7,4.5
		c-0.1,0.7-0.2,1.4-0.3,2.1c-3.6,0.9,0.3,4-2.1,5.4c1.9,0.4,2.1-1.9,3.6-1.3c1.8-1.8,0.3-4.1,0.8-6.1c1.2-2.2,2.8-3.9,5.3-4.5
		c0.5,0,1,0,1.5,0c0,2.5-0.2,5.1,0.9,7.5c0,6.4-0.6,6.6-6.4,9.1c-2.7,1.1-4.9,3.2-8.1,2.1c-0.2-0.1-0.5-0.3-0.7-0.4
		c-0.3-0.1-0.5-0.3-0.8-0.4l0,0C127.7,390.3,127.7,390.1,127.7,389.9z"/>
	<path class="st1" d="M127.7,389.9c0,0.2,0,0.4,0.1,0.6c-0.1,0-0.2,0.1-0.3,0.1c0,0,0,0.1-0.1,0.2c0.1-0.1,0.2-0.2,0.3-0.3
		c0.3,0.1,0.5,0.3,0.8,0.4c0.2,0.4,0.5,0.8,0.7,1.1c0.2,0.7,0.5,1.5,0.7,2.2c-0.5,0-1,0.1-1.5,0.1c-0.4-2.2-2.5-2.1-3.9-3.1
		c-1.1-2.5-3.9-3.5-5.3-5.8c-0.1-0.6-0.3-1.1-0.4-1.7c1.8-0.6,0.4-2.2,0.8-3.2c1.2-0.3,0.8,1.8,2.1,0.9
		C122.5,385.2,123.2,388.8,127.7,389.9z"/>
	<path class="st13" d="M149.5,377c-0.2,1.4-1.2,2.6-0.5,4.1c-0.2,0.4-0.3,0.7-0.5,1.1c-2.7,0.8-1.4-2.8-3.3-3
		c-0.1-0.5-0.2-1-0.2-1.5c0.8-0.1,1.7,0.1,2.3-0.8C148,377,148.8,377,149.5,377z"/>
	<path class="st8" d="M145.2,379.2c1.9,0.1,0.6,3.8,3.3,3c-0.3,0.8-0.5,2.1-1.5,2.1s-1-1.1-1.2-1.9s-0.6-1.6-0.9-2.4
		C145,379.7,145.1,379.5,145.2,379.2z"/>
	<path class="st2" d="M129.3,392c-0.2-0.4-0.5-0.8-0.7-1.1c0.2,0.1,0.5,0.3,0.7,0.4C129.3,391.5,129.3,391.7,129.3,392z"/>
	<path class="st1" d="M150.6,368c-1.3,0.5-2.3,0.3-2.2-1.3c0-0.5,0.7-1.4,1-1.4C151,365.6,149.9,367.3,150.6,368L150.6,368z"/>
	<path class="st8" d="M147.3,376.9c-0.5,0.9-1.5,0.7-2.3,0.8c-0.3-0.8-0.1-1.7,0.3-2.7C146,375.7,146.6,376.3,147.3,376.9z"/>
	<path class="st5" d="M142.8,372.5c-0.5,0-1,0-1.5,0c-0.2-0.7-0.4-1.5-0.7-2.2c0.7,0.2,1.3,0.3,2,0.5c0.2,0.3,0.4,0.5,0.6,0.8
		C143.1,371.9,142.9,372.2,142.8,372.5z"/>
	<path class="st5" d="M94.7,460.2c-1.9-1.3-3.8-2.6-6.1-3c-0.2-0.2-0.3-0.4-0.5-0.6c2.3-0.3,2.6-2,1.7-3.5c-0.9-1.5-0.9-3.3-1.8-4.8
		c1-1.2,2.5-0.5,3.7-0.9c6.1,0.8,12.4-0.2,18.5,1.3c1.7,0.4,3.3,0.6,4.7,1.7c0.5,2,2,3.8,0.9,6c-1,0-1.9,0-2.9,0
		c-0.7-1.5,0.3-3,0.1-5c-2.9,2.4-6.1,4-6.2,7.7c-0.1,2.8-1.6,3.6-3.8,4c-2.7,0.5-3,1.7-1.6,3.8c-0.4,1-1.1,1.6-2.3,1.6
		c-1.1-0.5-1.9-1.3-2.3-2.4c0-2.5-0.2-4.9,0.9-7.3c0.4-0.7,0.9-1.8-0.1-2.3c-1.1-0.6-1.9,0.5-2.3,1.3
		C95,458.5,94.9,459.4,94.7,460.2z M103.6,456.5c0.6-1.2,1-2.1,1.4-2.9c0.4-0.7,1.5-1.2,0.6-2.2c-0.2-0.3-1-0.3-1.3-0.1
		c-0.9,0.4-1.9,0.6-2.1,1.8C102.1,454.4,102.5,455.4,103.6,456.5z"/>
	<path class="st6" d="M102.9,441.6c0.1,0.4,0.2,0.9,0.3,1.3c-0.3,0.3-0.6,0.6-1,0.9c-0.5-0.3-0.9-0.5-1.4-0.8
		c-0.2-1.7-0.9-3.2-2.1-4.5c-4.6-4.8-4.7-10.5-0.1-15.5c1.3-1.5,1.9-3.9,4.5-4c0.1,1,0.1,2.3-0.7,2.8c-2.3,1.2-2,4-3.7,5.6
		c-1.2,1.2-2.3,3.7,1.2,4.3c0.3,0.8,0.2,1.7,0.9,2.3c0.2,1.5-0.5,3.2,0.8,4.5c0.1,0.5,0.2,1,0.3,1.5
		C101.7,440.8,102.3,441.2,102.9,441.6L102.9,441.6z"/>
	<path class="st1" d="M91.7,447.5c-1.2,0.4-2.7-0.3-3.7,0.9c-1,0.6-2,1.2-3,1.8c0.3-3.8,2-4.8,6.8-4
		C91.8,446.7,91.8,447.1,91.7,447.5z"/>
	<path class="st8" d="M100.8,443.1c0.5,0.3,0.9,0.5,1.4,0.8c0.4,1,1.6,2.3-0.9,2.2c-1.2-0.1-2.4,0-3.5-0.1
		C97.6,443.8,99.8,444.1,100.8,443.1z"/>
	<path class="st1" d="M158,345.5c0.3-1.2-1.3-2.4-0.2-3.6c1.3,0.2,1.3,1.2,1.4,2.2C158.8,344.5,158.4,345,158,345.5z"/>
	<path class="st7" d="M-73.1,434.5c1.1-0.9,1.8-2.3,3.2-2.8c2.2-0.7,2.4,2.2,4.1,2.4c-0.8,1.6-0.9,3.8-3,4.6c-0.5,0-1-0.1-1.5-0.1
		c-0.1-0.6-0.1-1.2-0.9-1.1c-0.1,0-0.2,0.1-0.2,0.2c-0.1,0.8,0.6,0.8,1.1,0.9c0.2,0.3,0.4,0.5,0.5,0.8c0.3,0.4,0.6,0.7,1,1.1
		c-0.9,0.3-1.4,0.9-1.5,1.8c-0.8,0-1.5,0-2.3,0l0,0c-0.1-0.5-0.1-1.2-0.8-1.2c-0.3,0-0.5,0.6-0.7,1c-1.9,1.4,0,2.2,0.7,2.7
		c0.9,0.8,1.9,1.4,2.1,2.7c-1,0-2-0.2-2.8,0.5c-0.7,0.7-1.7,1.4-1.8,2.2c-0.1,1.4,1.5,0.8,2.2,1.2c1.4,0.8,3.5,0.4,4.1,2.6
		c-3.1-0.3-6.2-0.5-9,1c-1.3,0.1-1.9-1.1-2.9-1.5c0-1.2-0.3-2.5,0.7-3.5c1.3-0.1,1.3-1.2,1.8-2.1C-76.6,443.6-75.7,438.7-73.1,434.5
		z"/>
	<path class="st1" d="M-73.1,434.5c-2.6,4.2-3.5,9.1-5.9,13.4c-0.5,0.8-0.5,2-1.8,2.1c-1.2-0.9-0.4-2.1-0.5-3.1
		c2.2-2.9,3.7-6.2,4.5-9.7c0.9-1.3,1.8-2.6,2.7-3.8C-73.7,433.7-73.4,434.1-73.1,434.5z"/>
	<path class="st1" d="M-68.5,457.4c-3.1-1.7-6.9-0.6-10-2.3c2.9-1.5,6-1.3,9-1c0.5,0.2,0.9,0.4,1.4,0.5c0.6,1,1.1,2.1,1.7,3.1l0,0
		C-67.1,457.6-67.8,457.5-68.5,457.4z"/>
	<path class="st5" d="M-27.5,504.5c-2.4-1.2-4.8-2.5-7.2-3.7c-2.4-1.3-3.7-3.6-4.7-6c0.2-2-0.6-4.1,0.4-6.1c1.6-0.2,1.8,2,3.6,2.1
		c-1.1-4.5,2.7-1.8,4-2.9c2.6-2.2,3.7,0.6,5.7,1.5c-1.2-4.5,2.6-6,4.5-8.4c0.7-0.9,1.4-3.1,3.3-2.2c1.8,0.8,1.7,2.6,1.7,4.2
		c-2.6,1.6-3,4-2.4,6.6c0.1,0.5,0.6,1.1,1.1,1.3c0.8,0.2,1.4-0.5,1.6-1.1c0.3-0.8,0.2-1.7,0.3-2.5c1.2-0.1,2.1,0.1,2.3,1.7
		c0.2,1.6,1.2,2.6,2.9,2.8c-0.3,2.2-0.5,4.5-0.8,6.7c-1.6,0.8-1.6-3.8-3.7-1.1c-5.3-1.4-11.2,0.1-16-3.8c-1-0.8-2,1.6-3.4,1.7
		c-0.2,0,0.1,1.4,0.8,1.8c3.1,1.5,5,4.8,9.3,4.7c1.8-0.1,3.8-1.2,5.7-0.2c0.6,0.7,0.4,1.5,0,2.2C-21.4,504.9-24.5,504.7-27.5,504.5z
		"/>
	<path class="st7" d="M-10.3,491.8c-1.7-0.2-2.7-1.2-2.9-2.8c-0.2-1.5-1.1-1.7-2.3-1.7c-0.4-1.3,0.8-1.6,1.3-2.3
		c0.6-0.9,1.5-2,0.5-3c-1.1-1-1.5,0.9-2.4,1c0-1.6,0.1-3.4-1.7-4.2c-2-0.9-2.6,1.3-3.3,2.2c-1.9,2.4-5.7,3.9-4.5,8.4
		c-1.9-0.9-3.1-3.7-5.7-1.5c-1.3,1.1-5.1-1.5-4,2.9c-1.8-0.1-2-2.2-3.6-2.1c0-3.4,2.3-5.3,4.6-7.1c2.2-1.7,4.6-3.2,6.8-4.8
		c3.6,0.2,5.5-3,8.2-4.5c1.3-0.7,2.5-1.6,3.8-2.3c0.5,0.1,1,0.1,1.5,0.2c0.5,1.5,1.1,3,1.5,4.5c0.5,2.3,1.1,4.3,3.6,5
		c0.1,0.7,0.2,1.5,0.2,2.2c-1.1,1.8-4.4,3.6-0.1,5.5C-8.3,489.2-9.9,490.3-10.3,491.8z"/>
	<path class="st0" d="M4.7,492.5c-1.6,2.2-3,4.6-6.5,3.1c-0.9-0.4-2.2-0.1-3.3-0.1c1.7-5,6.1-7.7,9.9-10.8c0.4-0.3,1.3-0.4,1.7-0.2
		c0.7,0.3,0.2,1,0.1,1.6c-0.4,1.6-1.9,2.6-2.6,4C3.7,490.9,1.7,492.6,4.7,492.5z"/>
	<path class="st0" d="M-18.5,503.8c0.4-0.7,0.6-1.5,0-2.2c2.4-0.4,4.2-1.2,3.7-4.2c2.1-2.7,2.2,1.9,3.7,1.1
		C-11.2,503-12.5,503.9-18.5,503.8z"/>
	<path class="st8" d="M-8.9,479.8c-2.6-0.7-3.2-2.8-3.6-5c-0.3-1.5-1-3-1.5-4.5c2.6-0.4,3.5,1.3,4.1,3.4
		C-9.3,475.6-8.8,477.6-8.9,479.8z"/>
	<path class="st1" d="M18.3,476.8c3.8-0.4,4.3,2.6,5.3,5.2c-0.8,0.4-0.7,1.2-1,1.8c-1.7-1.7-2.3-4.2-4.3-5.6
		C18.3,477.6,18.3,477.2,18.3,476.8z"/>
	<path class="st8" d="M-8.7,487.4c-4.4-1.9-1-3.6,0.1-5.5C-8.1,483.8-7.8,485.6-8.7,487.4z"/>
	<path class="st2" d="M-46.5,481.9c-7.2,1.5-14.3-6.5-12.1-14c1.1-1.8,2.8-3.2,3.3-5.4c1-1.2,2-0.2,3,0.1c0.6,1.5-2.9,1.9-1,3.7
		c0.4,0.7,0.8,1.4,1.2,2.1c-0.8,2.1,2.7,4.9-1,6.8c-0.3,0.2,0.9,1,1.3,1.5C-50.1,478.6-47.2,479.1-46.5,481.9z"/>
	<path class="st8" d="M-46.5,481.9c-0.7-2.8-3.6-3.3-5.2-5.2c-0.4-0.5-1.6-1.3-1.3-1.5c3.7-1.8,0.2-4.6,1-6.8
		c1.6,0.2,2.5,1.5,3.3,2.6c0.9,1.1,1.7,1.9,3.2,1.2c0,1.2-1.1,1.5-1.8,2.2c-0.7,0.7-1.6,1.5-0.8,2.5c0.7,0.9,1.9,0.7,2.7,0
		c2.8-2.8,3.8,0.3,5,1.7c0.6,0.6,0.5,1.9,1.8,2c-0.5,1-0.9,2-2.1,2.3C-42.3,480.6-44.6,482.4-46.5,481.9z"/>
	<path class="st8" d="M-55.3,462.5c-0.5,2.2-2.2,3.6-3.3,5.4c-1.3-0.4-2.1-1.3-2.7-2.5c0.4-1.9,1.4-3.4,3-4.5
		C-57.7,462.3-56.6,462.6-55.3,462.5z"/>
	<path class="st0" d="M-38.6,480.5c-1.3-0.1-1.2-1.3-1.8-2c-1.3-1.3-2.2-4.5-5-1.7c-0.7,0.7-1.9,0.9-2.7,0c-0.8-1,0.1-1.8,0.8-2.5
		c0.7-0.7,1.8-1,1.8-2.2c0.6-0.8,1.1-1.6,1.7-2.5c1.3,0.3,0.5,1.9,1.7,2.4c1.7-1.8,1.5-5.3,4.7-5.9c0.8,0,1.7,0,2.5,0
		c-0.9,2.6-1.3,5.4-1.6,8.1c-0.7,1.2-0.9,2.4-0.8,3.8C-37.7,479-38.2,479.8-38.6,480.5z"/>
	<path class="st7" d="M-55.3,462.5c-1.3,0.1-2.5-0.2-3-1.6c0-0.2,0.1-0.4,0.1-0.6c2.6-0.5,4.6-2.4,7.3-2.5c0.6,1.9-1.4,3-1.5,4.8
		C-53.3,462.3-54.2,461.3-55.3,462.5z"/>
	<path class="st9" d="M24.7,491c0.6,0.8,1.3,1.6,1.9,2.3c0.2,0.2,0.4,0.5,0.6,0.7l0,0c1.6,2.2,3.7,4,4.6,6.7c-0.5,0-0.9,0.1-1.4,0.1
		c-1.9-3.6-5.7-5.7-6.9-9.8C23.9,491,24.3,491,24.7,491z"/>
	<path class="st1" d="M21.2,494.7c-3.5,0.4-3.8-2.7-5.2-4.4c-0.4-0.4,0.1-1,0.6-1.2c0.8-0.3,1.5,0.2,2,0.8
		C19.8,491.3,19.8,493.3,21.2,494.7z"/>
	<path class="st6" d="M24.7,491c-0.4,0-0.8,0-1.1,0c-1.4-2.3-1-4.8-1-7.2c0.3-0.6,0.2-1.5,1-1.8C25.3,484.8,23.7,488,24.7,491z"/>
	<path class="st0" d="M0.2,502.3c-1.4,0.7-2.3,0.8-2.9-0.3c-0.1-0.2,0-0.8,0.2-0.9C-1.3,500.5-0.9,501.6,0.2,502.3z"/>
	<path class="st5" d="M40.5,500.7c-2.3-1.2-1.3-2.4,0-3.6c1.5-1.4,2.8-2.9,2.5-5.1c1.2-2.2,5.1-3.8,1.2-6.9c0.2-1.3,0.1-2.7,1.9-3.3
		c1-0.3,1.8-1.2,1-2.3c-0.8-1-1.4-0.1-2.1,0.5c-2.5,2.1-2.8,0.5-2.7-1.7c2.9-1.9,6.1-3.6,9.1-1c4.3,3.9,9.4,6.8,13.3,11.1
		c-2.5,1.6-4.9,3.1-7.4,4.7c-2.2,3.6-6.1,3.9-9.7,4.8c-2.2,0-4.1,0.3-5.4,2.4C41.6,500.5,41.1,500.6,40.5,500.7z M56.3,487.8
		c-0.3-2-2.2-2.3-3.8-2.8c-0.7-0.2-1.9,0-1.5,0.9c0.8,1.8,3.1,1.9,4.5,3C55.7,489.1,56.3,488.6,56.3,487.8z"/>
	<path class="st6" d="M40.5,500.7c0.5-0.1,1.1-0.2,1.6-0.3c2,0.7,3.7-0.1,5.4-2.4c3.6-1,7.4-1.2,9.7-4.8c1,0.9,2,2.3,3.3,1.9
		c3.1-1,2.3,0.9,1.9,2.4c-0.8,3.4-3.2,5.3-6.5,6c-3.4,0.8-6.7,1.7-10.1,2.7c-2.2,0.7-5,0.8-4.1-3.1
		C42.1,501.8,40.4,501.7,40.5,500.7z"/>
	<path class="st1" d="M64.6,488.5c-3.9-4.4-9-7.3-13.3-11.1c-3-2.6-6.2-0.9-9.1,1c-0.9-0.4-1.6,0-2.2,0.6c2.9-5.5,9.8-6.4,14.1-1.9
		c1.5,1.6,2.9,3.4,5.1,4.2c2.1,1.7,4.1,3.5,6.2,5.2c0.2,0.6,0.7,0.7,1.3,0.8c0.4,1.4,1.2,2.8,1.1,4.4c-0.3,0-0.7,0-1,0
		C66,490.7,65.8,489.2,64.6,488.5z"/>
	<path class="st0" d="M40.1,479c0.6-0.6,1.3-1,2.2-0.6c-0.1,2.2,0.2,3.8,2.7,1.7c0.7-0.6,1.3-1.5,2.1-0.5c0.8,1.1,0,2-1,2.3
		c-1.7,0.5-1.7,2-1.9,3.3c-0.6,0.7-1.2,1.5-1.8,2.2c-1.8,0.3-1.4-2.4-3-2.3c0-0.8-0.1-1.5-0.1-2.3C39.3,481.4,39.5,480.1,40.1,479z"
		/>
	<path class="st2" d="M42.4,487.3c0.6-0.7,1.2-1.5,1.8-2.2c3.9,3,0,4.7-1.2,6.9c-0.7-0.1-0.6,0.8-0.9,0.9c-0.7,0.2-0.5-0.5-0.6-0.9
		C41.2,490.3,42.2,488.9,42.4,487.3z"/>
	<path class="st5" d="M-89.1,409.2c1.7-6.2,11.8-10.3,16.6-6.8c-0.2,1.7,0.2,2.9,2.2,3.1c0.2,0.8,0.7,1.8,0.5,2.4
		c-1.3,3.4,0.1,5.5,3.2,6.8c-0.2,2.5-1.7,4-3.8,5c-5.1-0.4-6.3-4.2-7.2-8.3c-0.1-0.5-0.7-1-1-1.5c1.8-0.2,2.4-1.1,1.9-3.4
		c-1.3,1.3-1.9,2.2-1.9,3.4c-1.7,0.4-3.2-0.7-5-0.6c3.9,2.1,3.8,6.2,5.2,9.6c-2.2,0.4-3.9-1.7-6.1-1.5c-0.7-0.9-1.7-0.7-2.6-0.6
		l-0.2-0.1C-86.2,413.9-86.7,411.3-89.1,409.2z"/>
	<path class="st5" d="M-65.7,434c-1.8-0.1-1.9-3-4.1-2.4c2.5-2.1,5-4.3,8.6-3.9c0.2,0.2,0.4,0.3,0.6,0.2c3.3,2.1,3.7,5.5,3.8,9
		c0.3,3.4,4.1,2.2,5.4,4.2c-0.4,5.5-1.3,6.3-5.7,5c-1.6-0.1-4,1-4.7-0.8c-1.3-3-3.8-5.9-2.2-9.6C-63.2,433.7-64.2,433.6-65.7,434z"
		/>
	<path class="st7" d="M-70.3,419.7c2.1-1,3.6-2.5,3.8-5c1.4,0.1,2.2,1,3,2.1c0,0.7-0.1,1.5-0.1,2.2c-1.4,2-3.3,3.9-4.2,6.1
		c-2.1,5.5-10.3,6.5-15.2,4.6c-2.2-0.9-2.3-2.6-1.9-4.6c2.2-2.2,4.5-0.9,6.7,0c0.3,0.2,0.8,0.6,0.8,0.6
		C-75.6,423-71.9,422.7-70.3,419.7z"/>
	<path class="st7" d="M-79.7,395.8c-2.4,3.8-5,4.9-8.9,3.6c-3-1-5.3-5.1-4.9-8.7c0.1-1.2,1.9-3.4-1.5-3.2c0-0.5,0-1,0-1.4
		c1.5,0.6,3.4-2.5,4.5,0.6c0,2.4,0.4,4.7,1.5,6.8c-0.1,0.2-0.1,0.4,0,0.7c0.2,2.8,2.3,1,3.5,1.3c1.4,0.3,1.7-1,1.6-2.3
		c0.3-1.6,0.5-3.2-0.3-4.7c3.5-1.2,0.3-3.9,1.3-5.7c2.8,0.8,4.2,2.7,4.5,5.5C-81.8,389.9-82.4,393.4-79.7,395.8z"/>
	<path class="st8" d="M-82.9,382.8c-1,1.8,2.1,4.5-1.3,5.7c-1-0.5-1.8,0.1-2.6,0.5c-1.3-0.6-1.9-2.2-3.6-2.2c-1.1-3.1-3.1,0-4.5-0.6
		c-0.3-0.3-0.5-0.7-0.8-1c1.6-2.4,0.7-4.5-0.8-6.5c0.6,0,1.3-0.1,1.9-0.1c2.1,3.2,3.8,0,5.8-0.3c0,1.1,0,2.2,0,3.3
		c-0.9,0.3-2.1-0.5-2.6,0.8c-0.1,0.2,0.4,1,0.7,1.1c1.4,0.3,1.3-1.2,1.9-1.8c1.1,0,2,2.5,2.9,0.6c0.9-1.8,2.8-2.8,2.9-5l0.2-0.2
		c1.7,0.7,2-1.1,2.9-1.8c2.1,0.2,0.7,1.7,0.9,2.6c0.1,0.7,0.2,1.4,0.3,2.1c-0.7,1.6-2,1.9-3.6,1.6
		C-84.1,381.3-83.1,382.2-82.9,382.8z"/>
	<path class="st0" d="M-94.8,357.3c1.9,0.3,3.8,0.7,5.8,1c-3.7,3.8-8.1,3.1-12.6,2.2c-3.9-1.5-3.6-4.3-2.4-7.5
		c2.2,0.5,2.1,4.2,5.1,3.8C-97.7,357.5-96.2,356.9-94.8,357.3z"/>
	<path class="st8" d="M-78.3,425c-2.2-0.9-4.5-2.2-6.7,0c0.8-2.4,1.6-4.4-2.5-4c-2.6,0.3-3.3-1.9-2.9-4.3l-0.1,0.1
		c1.8,0.7,2.6,2.8,4.7,3c0.5-0.8,0.9-1.5,1.4-2.3c2.2-0.2,3.8,1.9,6.1,1.5C-76.5,421-77.8,423-78.3,425z"/>
	<path class="st10" d="M-94.7,378.4c-0.6,0-1.3,0.1-1.9,0.1c-0.2-0.3-0.5-0.5-0.7-0.8c-0.2-1-0.5-2-0.7-3c0.6-3.2,2-5.7,5.3-6.7
		c0.3,0.7,0.6,1.4,1.5,1.2c-0.4,1.1-1,2.2-0.7,3.4c-1,1.6-0.1,4.6-3.4,4.6C-95.1,377.6-94.9,378-94.7,378.4z"/>
	<path class="st1" d="M-87.3,351.5c-1.9-3-4.6-5.7-4-9.8c1.5,0.9,1.1,4.6,4.3,3c1,0.7,2.4,0.5,3.2,1.6c-0.7,0.9-3.7,1.2-0.7,3l0,0
		C-84.3,351.5-85.7,351.6-87.3,351.5z"/>
	<path class="st8" d="M-79.7,395.8c-2.6-2.4-2.1-5.9,1.3-7.6c0.3,1,0.6,2,0.8,3c-0.1,0.5-0.1,1-0.2,1.5
		C-78.7,393.6-78.5,395.2-79.7,395.8z"/>
	<path class="st7" d="M-89.1,409.2c2.4,2.1,2.9,4.6,1.8,7.5c-1.1-0.2-1.9-1.4-3.2-0.8l0,0h0.2C-89.8,413.7-90.4,411.3-89.1,409.2z"
		/>
	<path class="st10" d="M-95.8,385.1c0.3,0.3,0.5,0.7,0.8,1c0,0.5,0,1,0,1.4c-0.7,1.2-2.8,1-2.6,3.5
		C-99.4,386.6-99.1,385.8-95.8,385.1z"/>
	<path class="st11" d="M-91.2,369.2c-1,0.2-1.2-0.5-1.5-1.2c1.4-1,3.8,0,4.5-2.3c1.7-0.1,3,0.3,2.8,2.4
		C-87.6,367.5-89.4,368.5-91.2,369.2z"/>
	<path class="st11" d="M-100.2,372.5c1,0.4,0.8,1.4,1,2.2c-0.3,1.2,0.4,2.1,0.8,3c0.1,0.5-0.2,1.3-0.3,1.2c-1-1.2-2.7-2.1-2.2-4.1
		C-100.7,374-100.5,373.3-100.2,372.5z"/>
	<path class="st7" d="M-74,433.2c-0.9,1.3-1.8,2.6-2.7,3.8c-1.8-1.3,0.5-3-0.3-4.4C-76,432.6-74.9,432.3-74,433.2z"/>
	<path class="st0" d="M-90.5,405.6c-0.2-1.1-0.4-2.2-0.6-3.4c1.1,0.2,2.2,0.4,3.5,0.6C-88.1,404.4-89.6,404.7-90.5,405.6z"/>
	<path class="st1" d="M-100.2,372.5c-0.2,0.7-0.5,1.5-0.7,2.2c-1-0.1-1.9-0.7-1.2-1.5c0.5-0.7,0.7-1.9,1.8-2.1
		C-100.3,371.6-100.3,372.1-100.2,372.5z"/>
	<path class="st8" d="M-70.3,405.5c-2-0.2-2.4-1.4-2.2-3.1C-71.2,403.1-70.2,403.9-70.3,405.5z"/>
	<path class="st1" d="M-98.5,377.7c-0.4-1-1.1-1.9-0.8-3c0.4,0,0.8,0,1.2,0.1c0.2,1,0.5,2,0.7,3C-97.7,377.7-98.1,377.7-98.5,377.7z
		"/>
	<path class="st1" d="M-88.9,364.1c0.2,0.5,0.4,1.1,0.7,1.6c-0.8,0-2,0.4-2.3-0.3C-90.9,364.4-89.7,364.3-88.9,364.1z"/>
	<path class="st9" d="M-67.2,406.3c0.2,0,0.5-0.1,0.7-0.1c0.3,0.2,0.5,0.5,0.8,0.7c-0.3,0.7-0.5,1.5-0.8,2.2
		C-67.7,408.5-67,407.3-67.2,406.3z"/>
	<path class="st1" d="M-83.2,347.9c0,0.4,0,0.8,0,1.3c-0.4,0-0.9,0.1-1.3,0.1l0,0C-84.1,348.8-83.6,348.3-83.2,347.9z"/>
	<path class="st9" d="M-90.3,416h-0.2c-0.3,0-0.6,0-0.9,0c-0.3-0.3-0.2-0.6,0.1-0.7C-90.8,415.2-90.4,415.5-90.3,416z"/>
	<path class="st8" d="M-91.3,416c0.3,0,0.6,0,0.9,0l0,0c0,0.3,0,0.5,0,0.8l0.1-0.1C-91.1,416.9-91.2,416.4-91.3,416z"/>
	<path class="st8" d="M-87,344.7c-3.3,1.6-2.8-2.1-4.3-3c-0.3-1.4,1.7-1.6,1.5-2.9c1.3-0.5,0.4-2.3,2-2.7
		C-86.5,338.8-88.2,341.9-87,344.7z"/>
	<path class="st2" d="M-83.2,347.9c-0.4,0.5-0.9,0.9-1.3,1.4c-3-1.8,0-2.1,0.7-3C-82.7,346.4-81.8,346.7-83.2,347.9z"/>
	<path class="st1" d="M-91.1,329.9c-0.7-0.4-1.3-0.8-1.6-1.7c0.6,0,1.2,0.1,1.8,0.1c0.6,0.1,1.3,0.2,1.2,1
		C-89.7,330.1-90.5,329.8-91.1,329.9z"/>
	<path class="st7" d="M-57.1,446.2c4.4,1.4,5.4,0.5,5.7-5c0.6,0.2,1.2,0.4,1.9,0.5c0.3,0.7,0.6,1.4,0.9,2c0.1,1,0.2,2,0.3,3
		c-0.3,1.2-0.5,2.4-0.8,3.6c-2.1,4.8-6.4,5.8-10.9,6.4c-2.2,0.3-4.5-0.1-6.6,0.9c-0.6-1-1.1-2.1-1.7-3.1c1-1.6,2.6-0.8,3.9-1.1
		c2.8-1.8,5.3-4.4,9.3-3.5C-56.2,448.9-57.8,448.1-57.1,446.2z"/>
	<path class="st5" d="M-52.3,462.6c0-1.7,2.1-2.8,1.5-4.8c3-2.8,6.5-4,10.6-3.6c0,0.2,0,0.5,0,0.7c-0.9,2.4,1.7,1.2,2.2,2.2
		c0,0.2,0.1,0.5,0.1,0.7c-1.5,1.1,0.4,2.3-0.1,3.4c-0.7,0.4-1.5,0.7-2.2,1.1c0-0.9-0.5-1.3-1.3-1.5c-3.1-1.6-5.3-0.7-6.9,2.2
		c-2.4-0.3-2.1,3.8-4.8,3.1C-55.2,464.5-51.6,464.1-52.3,462.6z M-41.2,458.1c-0.2-0.2-0.3-0.5-0.4-0.5c-0.2,0-0.5,0.1-0.6,0.2
		c-0.1,0.4,0.1,0.7,0.5,0.6C-41.5,458.4-41.4,458.2-41.2,458.1z"/>
	<path class="st7" d="M-38,457.3c-0.5-1-3.2,0.2-2.2-2.2c0.9,0,1.5-0.4,1.5-1.3c0.5,0,1,0,1.4-0.1C-37.5,454.8-37.8,456-38,457.3z"
		/>
	<path class="st8" d="M-38.7,453.7c0,1-0.6,1.3-1.5,1.3c0-0.2,0-0.5,0-0.7C-40,453.5-39.3,453.6-38.7,453.7z"/>
	<path class="st8" d="M-46.7,453.1c-0.5,0.3-1,0.5-1.5,0.1c0.4-0.2,0.7-0.4,1.1-0.5C-47,452.8-46.8,452.9-46.7,453.1z"/>
	<path class="st8" d="M-91.2,369.2c1.9-0.7,3.7-1.7,5.8-1.1c0,1.8,0.2,3.5,1,5.1c-1.7,2.3,0,2.2,1.5,2.3c0,0.5,0,0.9,0,1.4l-0.2,0.2
		c-1.5-0.3-3-0.6-4.5-0.8c-1.3-1.4-0.1-5.8-4.3-3.6C-92.2,371.4-91.6,370.3-91.2,369.2z"/>
	<path class="st7" d="M-82.9,375.5c-1.5-0.1-3.3,0-1.5-2.3C-82.6,373.1-82.9,374.4-82.9,375.5z"/>
	<path class="st0" d="M-51.7,431.8c0.3,0.3,0.7,0.6,1,1c0,0.3,0.2,0.4,0.4,0.5c0.2,0.7,0.5,1.4-0.1,2.1c-2.3-0.2-2.2,0.9-1.2,2.4
		c-1.5,0.9-2.8,0.9-3.8-0.8c-0.6-2.2,1.1-4.1,0.8-6.3C-53,429.7-52.5,431-51.7,431.8z"/>
	<path class="st9" d="M-55.3,437c1,1.6,2.3,1.6,3.8,0.8c1.6,0.9,2,2.4,2,4c-0.6-0.2-1.2-0.4-1.9-0.5c-1.3-2-5.2-0.8-5.4-4.2
		C-56.3,437-55.8,437-55.3,437z"/>
	<path class="st1" d="M-48.2,446.8c-0.1-1-0.2-2-0.3-3c0.7-0.1,1.3-2.2,2.1-0.3C-46,444.9-45.7,446.7-48.2,446.8z"/>
	<path class="st2" d="M-50.3,435.4c0.6-0.7,0.3-1.4,0.1-2.1c0.7,0.2,1.5,0.6,1.4,1.5C-48.9,435.6-49.7,435.4-50.3,435.4z"/>
	<path class="st2" d="M-65.8,407c-0.3-0.2-0.5-0.5-0.8-0.7C-66.3,406.5-66,406.7-65.8,407z"/>
	<path class="st7" d="M-38,461.4c0.5-1.1-1.4-2.3,0.1-3.4c2.4,0.3,2.7,3.5,5.1,3.8c-0.2,1.7-1.1,3.2-2.1,4.6c-0.8,0-1.7,0-2.5,0
		C-38.2,464.7-36.5,462.9-38,461.4z"/>
	<path class="st2" d="M-77.6,391.3c-0.3-1-0.6-2-0.8-3c-0.3-2.8-1.7-4.7-4.5-5.5c-0.1-0.5-1.1-1.5,0.5-1.2c1.6,0.3,2.9,0,3.6-1.6
		c1.7,2.4,2.9,5,3.4,8C-75.1,390-75.8,390.9-77.6,391.3z"/>
	<path class="st2" d="M-55.3,437c-0.5,0-1,0-1.4,0c-0.2-3.5-0.5-6.8-3.8-9c2.2,0.4,5.3-1.2,6,2.6C-54.2,432.8-56,434.7-55.3,437z"/>
	<path class="st9" d="M-97.3,342.5c-0.8,0.1-0.9,0.8-0.9,1.3c-0.2,3.1-1.9,4.3-4.9,4c0.1-0.4,0.2-0.9,0.4-1.3c2.5,1.1,2.5-0.6,1.8-2
		c-0.5-0.9-0.5-1.4,0-2.1c2.8-2.2-0.9-4.5,0.2-6.7c1.1-2.2,2.1-4.3,3.5-7.1c1.8,4-3.3,6.7-0.7,10.1C-99.2,340.3-97,341.2-97.3,342.5
		z"/>
	<path class="st8" d="M-106.1,341.8c1.2,0.6,1.5,1.9,2.1,2.9c-0.2,0.3-0.3,0.7-0.6,0.9c-1.1,0.8-2.3,3.1-3.4,1.6
		c-0.7-1-2.3-4.2,1-5.5C-106.7,341.8-106.4,341.8-106.1,341.8z"/>
	<path class="st11" d="M-107.6,339.6c-0.8,1.2-1.8,2.2-2.3-0.1c-0.4-1.8,0-3.5,2.3-3.9C-107.8,336.9-108,338.3-107.6,339.6z"/>
	<path class="st1" d="M-107.6,339.6c-0.4-1.3-0.2-2.6,0.1-4l0.3,0.1c0.1,1.2,0.2,2.5,0.3,3.7C-107.1,339.5-107.3,339.6-107.6,339.6z
		"/>
	<path class="st1" d="M-106.1,341.8c-0.3,0-0.6,0-0.9,0c0-0.8,0-1.5,0.1-2.3c0.2,0,0.4,0,0.6,0.1
		C-106.2,340.3-106.2,341-106.1,341.8z"/>
	<path class="st2" d="M-89.8,308.2c-3.1-1.1-2.2-3.3-1.4-5.4c0.7,0.3,1.4,0.5,2.2,0.8c0.8,0.2,1.6,0.5,2.4,0.7
		c-0.4,0.8-1.6,1-1.5,2.1c0,0.3,0,0.6,0,1l0,0C-88.9,307.3-89.5,307.5-89.8,308.2z"/>
	<path class="st9" d="M-88.2,306.4c-0.1-1.1,1.1-1.4,1.5-2.1l0,0c0.2-0.2,0.4-0.4,0.6-0.6c0.2-0.1,0.3-0.3,0.5-0.4
		c1.9,1.2,0.6,2.7,0,3.7C-86.6,308.5-86.9,304.7-88.2,306.4z"/>
	<path class="st9" d="M-86.7,304.2c-0.8-0.2-1.6-0.5-2.4-0.7c0.2-1.2,0.3-2.7,1.7-2.7c1,0,1.5,1.3,1.7,2.4c-0.2,0.1-0.3,0.3-0.5,0.4
		C-86.3,303.9-86.6,304.1-86.7,304.2C-86.8,304.3-86.7,304.2-86.7,304.2z"/>
	<path class="st2" d="M-90.6,300.2c-0.6-0.5-1.3-1.1-1.9-1.6C-91.2,298.2-90.5,298.6-90.6,300.2z"/>
	<path class="st9" d="M-88.2,307.3c0.1,0.1,0.2,0.2,0.3,0.3c-0.1,0-0.2,0-0.2-0.1C-88.1,307.5-88.2,307.4-88.2,307.3L-88.2,307.3z"
		/>
	<path class="st2" d="M-94.8,357.3c-1.4-0.3-2.9,0.2-4.2-0.5c1.4-3.1,5.2-5.3,3.3-9.6c-0.2-0.5,0.1-1,0.8-0.9
		c0.8,0.1,0.8,0.8,0.8,1.4C-94.3,350.9-93.9,354.1-94.8,357.3z"/>
	<path class="st4" d="M-100.7,335.8c-1.1,2.2,2.6,4.5-0.2,6.7C-103.3,340.5-103.2,337.4-100.7,335.8z"/>
	<path class="st6" d="M-97.3,342.5c0.3-1.3-1.9-2.2-0.7-3.7c3-0.8,2.1,2,2.9,3.2C-95.7,342.4-96,344.5-97.3,342.5z"/>
	<path class="st2" d="M-96.2,313.2c-1.5,2.1-1.7-2.2-3.1-0.6c-0.7-0.3-0.7-0.9-0.8-1.5c0.1-1.6,0-3.2-1.1-4.5
		c-0.8-1-1.7-1.4-2.7-0.2c-0.3,0.4,0.4,1.5-0.7,1.1c-0.8-0.3-1.1-1.2-0.7-1.9c0.7-1.3,1.7-2.6,3.2-2.9c1.7-0.3,2.5,0.3,3.1,2.3
		C-98.3,307.8-96.2,310.1-96.2,313.2z"/>
	<path class="st9" d="M-100.2,311.1c0.1,0.6,0.2,1.2,0.8,1.5c-1,1.2-2,2.4-3.1,3.6c-1.5-1.1-0.5-2.1-0.3-3
		C-102,312.3-101.3,311.4-100.2,311.1z"/>
	<path class="st2" d="M124.7,391.2c1.3,1,3.5,0.9,3.9,3.1c-3.4,0.6-6.9-0.4-10.2,0.9c-1.2,0.4-2.5,1-2.2,2c1.2,3.6-1.2,6.1-2.5,9
		c-1.3,2.2-0.6,4.7-0.9,7c-1.9-0.2-1.8-1.9-2.4-3c-0.5-1.5-0.8-3.1-1.5-4.4c-0.8-1.5-0.8-2.7,0.2-4c4.4-0.8,3.8-4.2,3.6-7.3
		c0-0.5,0-1.1,0.1-1.6c1.3-2.2,3.5-1.2,5.3-1.6C120.2,390.2,122.4,391.2,124.7,391.2z"/>
	<path class="st2" d="M99.8,431.8c-3.5-0.6-2.4-3.2-1.2-4.3c1.7-1.7,1.4-4.4,3.7-5.6c0.8-0.4,0.8-1.8,0.7-2.8c1.7-2.3,4-3,6.7-3.1
		c1.2,1.1,2.5,1.1,3.8,0.2c2.1-0.4,4.1-0.5,6,0.7c0,0.3,0,0.6,0,0.9c-1.1,0.1-2.8-0.9-3,1.4c0,0.4,0,0.7,0,1.1
		c-5.4-2.4-9,1-12.3,4.3C102.1,426.3,100,428.6,99.8,431.8z"/>
	<path class="st0" d="M85,450.2c1-0.6,2-1.2,3-1.8c0.9,1.5,0.9,3.3,1.8,4.8c0.9,1.5,0.6,3.2-1.7,3.5C86.3,454.9,85.2,452.8,85,450.2
		L85,450.2z"/>
	<path class="st8" d="M112.7,394.4c0.2,3.1,0.8,6.4-3.6,7.3c-1.1-3,2.4-4.6,2.2-7.3C111.8,394.3,112.2,394.3,112.7,394.4z"/>
	<path class="st9" d="M85,450.2c0.1,2.6,1.2,4.8,3.1,6.6c0.2,0.2,0.3,0.4,0.5,0.6c0.1,0.5,0.1,0.9,0.2,1.4c0,0.3-0.1,0.6-0.1,0.9
		c-2-1.3-3.1-3.4-4.4-5.3C83.2,452.8,82.8,451.2,85,450.2z"/>
	<path class="st10" d="M113.5,416.1c-1.3,1-2.6,0.9-3.8-0.2c0.2-2-0.5-4.1,0.7-5.9c0.6,1.1,0.5,2.9,2.4,3
		C113,414.1,113.3,415.1,113.5,416.1z"/>
	<path class="st2" d="M88.7,459.6c0-0.3,0.1-0.6,0.1-0.9c3.6,2.8,2.6,6.9,3.1,10.6c-1.1,0.1-0.9-1.2-1.6-1.5
		C90.3,464.9,89.8,462.2,88.7,459.6z"/>
	<path class="st8" d="M65.5,486.5c-2.1-1.7-4.1-3.5-6.2-5.2c1.8,0.2,3.6,0.5,5.4,0.7C64.9,483.5,65.2,485,65.5,486.5z"/>
	<path class="st1" d="M112.7,394.4c-0.5,0-0.9,0-1.4-0.1c-0.1-0.5-0.6-1-0.1-1.6c0.5,0,1,0,1.5,0
		C112.7,393.3,112.7,393.8,112.7,394.4z"/>
	<path class="st1" d="M110.5,392c0.5,0,0.8,0.3,0.8,0.8C110.5,393,110.3,392.7,110.5,392z"/>
	<path class="st1" d="M109.7,391.2c0.5,0.1,0.8,0.3,0.8,0.8C109.7,392.3,109.5,391.9,109.7,391.2z"/>
	<path class="st1" d="M109,390.5c0.5,0,0.8,0.3,0.8,0.8C109,391.5,108.8,391.2,109,390.5z"/>
	<path class="st10" d="M27.2,494.1c-0.2-0.2-0.4-0.5-0.6-0.7C26.8,493.6,27,493.8,27.2,494.1z"/>
	<path class="st1" d="M108.2,389.7c0.5,0,0.8,0.3,0.8,0.8C108.3,390.7,108.1,390.4,108.2,389.7z"/>
	<path class="st2" d="M137.7,353.8c-2.1,0.5-2.9-1-3.8-2.4c-0.1-0.4-0.3-0.8-0.4-1.2c1.4-2.9,2.3-5.8-0.5-8.4c0-0.2,0-0.5-0.1-0.7
		c0-0.3,0.1-0.6,0.1-0.9c0.9-0.5,1.4-1.2,1.4-2.2c3.8-1.6,3.1-5,2.9-8.1c0.3-2,2.3-3.3,2.4-5.4c2.1-0.5,1.7-1.4,0.2-2.9
		c-0.1,1.2-0.2,2-0.2,2.8c-1.6,0.6-2.2-1.3-3.5-1.5c2.7-2.9,6.3-4.2,9.7-5.8c0.2,0,0.4-0.1,0.6-0.1c0.2,1.5-0.6,3.2,0.8,4.5
		c-0.5,0.9-0.9,2.5-1.6,2.7c-3.7,0.8-4,4.2-5.7,6.7c-1.9,2.9,2.1,3.8,1.9,6.3c-0.1,0.8,2.7-0.7,4.2-1.1c1.2-0.3,1.2-0.7,0.1-1.7
		c-1.6-1.5-0.4-3.2-0.4-4.7c-0.1-1.5,1.6-1.6,2.9-1.4c-0.4,1.1-1.9,2.1,0.2,3.2c1,0.5,1.4,1.8,1.2,2.9c-0.2,1.2-0.1,1.9,1.3,2
		c0.7,0,1.2,0.3,1,1.1c-0.1,0.6-0.7,0.5-1.2,0.6c-4.9,1.1-5.7,3.4-2.8,7.5c0.5,0.7,1.4,1,1.2,2.1c-1,1.7-3.4,0.2-4.4,2
		c-0.2-2.4-3.4-3.9-2-6.8c0.8-1.6,2.3-3.3-0.3-4.2c-2.3-0.8-4.8-0.1-6.1,2.2c-1.5,2.7-1.8,5.8-0.1,8.6
		C137.5,350.9,137.8,352.3,137.7,353.8z"/>
	<path class="st6" d="M121.8,381.4c-1.2,0.8-0.9-1.2-2.1-0.9c-0.3,0.9,1,2.5-0.8,3.2c-2.1-3-2-6.1-0.2-9c2.2-3.5,2.8-7.2,3-11.2v0.1
		c2.3-0.8,1.9-4,4.2-4.7c0.4,0.3,0.8,0.7,1.2,1c-0.6,2.2-2,4.2-1.7,6.6l0,0c-0.3,0-0.6,0-0.9,0c-2.6,1.1-2,3.4-2.1,5.4
		c-1.2,1.5-2.3,3-3.2,5.5c1.7-0.9,2.8-1.4,3.8-1.9c0.4,0.4,0.8,0.8,1.2,1.2C123.5,378.2,122.6,379.8,121.8,381.4z"/>
	<path class="st1" d="M134.5,338c0,1.1-0.5,1.8-1.4,2.2c-0.4-0.6-1-0.8-1.7-0.8c0.3-1.2,0.6-2.3,1-3.5c0.2-0.3,0.3-0.5,0.5-0.8
		c0.1-0.3,0.1-0.5,0.2-0.8c1.5-1.5,1.9-3.3,1.5-5.3l0,0c0.8-0.6,0.8-1.2,0.1-1.9c0.4-1.4,1.8-2.5,1.6-4.2c1.3,0.2,1.9,2.1,3.5,1.5
		h0.1c-0.1,2.1-2.1,3.4-2.4,5.4C135.7,332.3,134.2,334.8,134.5,338z"/>
	<path class="st6" d="M133,341.8c2.8,2.7,1.8,5.5,0.5,8.4c-2.4-2.8-3.5-5.9-2.4-9.5c0.1,0.1,0.3,0.2,0.4,0.3
		C131.6,342,131.8,342.9,133,341.8z"/>
	<path class="st10" d="M124.7,391.2c-2.2,0-4.4-1-6.6,0c-0.2-2.1,0.2-4,1.4-5.8C120.7,387.7,123.6,388.7,124.7,391.2z"/>
	<path class="st1" d="M140.9,310.9c2.2-1.4,4.7,0.9,6.9-0.4l-0.1,0.2c-0.5,1.2-1,2.3-1.5,3.5c-0.4,0.2-0.7,0.4-1.1,0.6
		C143.2,313.9,141.4,313.1,140.9,310.9z"/>
	<path class="st2" d="M127.1,359.8c-0.4-0.3-0.8-0.7-1.2-1c0.9-1.4,2.3-2.3,3.8-3.1c0.7,0.3,1,0.9,1,1.6
		C129.2,357.8,128.2,358.9,127.1,359.8z"/>
	<path class="st8" d="M134.5,329c0.4,2,0,3.8-1.5,5.3C133.5,332.6,131.8,330.2,134.5,329z"/>
	<path class="st11" d="M145,314.8c0.4-0.2,0.7-0.4,1.1-0.6c0.2,0.2,0.5,0.4,0.7,0.6c0.1,0.5,0.2,1,0.3,1.4c-0.2,0.3-0.4,0.6-0.7,0.9
		c-0.2,0-0.4,0.1-0.6,0.1C145.6,316.4,145.3,315.6,145,314.8z"/>
	<path class="st6" d="M131.4,339.4c0.7,0,1.3,0.1,1.7,0.8c0,0.3-0.1,0.6-0.1,0.8c-0.5,0-1,0-1.5,0c-0.1-0.1-0.3-0.2-0.4-0.3
		C131.2,340.3,131.3,339.8,131.4,339.4z"/>
	<path class="st8" d="M134.6,327.1c0.7,0.7,0.7,1.3-0.1,1.9C134.6,328.4,134.6,327.8,134.6,327.1z"/>
	<path class="st8" d="M132.9,335.1c-0.2,0.3-0.3,0.5-0.5,0.8C132.6,335.6,132.7,335.4,132.9,335.1z"/>
	<path class="st6" d="M121.8,363.4c-0.2,0-0.4,0.1-0.5,0.1c0-0.2,0.1-0.3,0.1-0.5C121.5,363.2,121.6,363.4,121.8,363.4
		C121.7,363.5,121.8,363.4,121.8,363.4z"/>
	<path class="st7" d="M146.2,308c-0.8-2.6,2.3-4.5,1.1-7.1c0-0.4,0-0.7,0-1.1c0.8-1,1.6-2,2.4-3c0.7,0.3,1.4,0.6,2.1,0.9
		c0,0.1,0,0.3,0,0.4c-0.5,1.5-1.8,3.4,1.5,2.9c0.7-0.1,1,0.2,1.2,1c0.5,2.3-1.8,3.9-1.3,6.3c0.1,0.7-1.6,1.2-2.7,1.4
		c-1-0.2-1.6,0.2-1.7,1.2c-0.4-0.1-0.7-0.1-1.1-0.2l0.1-0.2C147.2,309.7,146.7,308.9,146.2,308z"/>
	<path class="st10" d="M151.7,298.1c0-0.1,0-0.3,0-0.4c-0.2-0.8-0.5-1.7-0.7-2.5c1.9-2,4.1,0.7,6.1-0.5c1.7,1.5,3.7,2.2,6.1,2.4
		c1.3,0.1,2.7,1.2,2.3,2.9c-1,4.1,0.1,8.2-0.4,12.3c-0.7,0.6-1.4,1.3-1.2,2.4c-1,0-2,0.1-3,0.1c0-0.8,0-1.5,0-2.3
		c0.1-0.1,0.2-0.1,0.3-0.2c0.1-0.1,0.1-0.3,0.1-0.3c-0.7-0.6-1.5-1.3-2.2-1.9c-2.3-1.9-0.7-4.2-0.4-6.2c0.3-2.1,1.8-1.6,3.1-1.1
		c0.6,0.2,1.3,0.4,1.3-0.6c0-0.6,0.2-1.2-0.9-1.5C158.6,299.4,155.2,298.7,151.7,298.1z"/>
	<path class="st1" d="M156.2,323.8c-1-0.6-2-1.2-3-1.8c0-0.9,0-1.8,0-2.8c0.9-0.2,1.8,1.1,2.6,0.2c0.2-0.2-0.2-1.1-0.4-1.6
		c1.4,0,2.1,0.8,2.3,2.1c-0.8,1,0.5,0.8,0.7,1.3c0,1.1,0.8,1.2,1.6,1.1l0,0c-0.6,0.9-1.6,0.8-2.5,0.8
		C157,323.1,156.5,323.2,156.2,323.8z"/>
	<path class="st9" d="M159.9,328.4c0.3-0.3,0.5-0.6,0.7-0.8c0.2,0.2,0.5,0.4,0.6,0.6c0.1,0.1-0.2,0.5-0.3,0.5
		C160.7,328.7,160.4,328.6,159.9,328.4z"/>
	<path class="st6" d="M153.2,319.2c0,0.9,0,1.8,0,2.8c-1.3,0.6-2.4-0.7-3.7-0.4c-0.7,0-1.5,0-2.2,0c-1.4-1.3-0.6-3-0.8-4.5
		c0.2-0.3,0.4-0.6,0.7-0.9c1.1-0.2,0.1,2.4,1.7,1.4c0.9-0.6,1.8-1.4,0.9-2.7c-1-1.4-1.9-1.4-2.9-0.1c-0.2-0.2-0.5-0.4-0.7-0.6
		c0.5-1.2,1-2.3,1.5-3.5c0.4,0.1,0.7,0.1,1.1,0.2c3.6,2.5,6.6,6.9,12,3.9c1,0,2-0.1,3-0.1c-0.2,1.3,1.3,1.4,1.5,2.4
		c-0.8,0.5-1.5,1-2.3,1.5c-1.8-1.2-2.4-0.5-2.3,1.4l0.1,0.3c-1-0.1-2-0.3-3-0.4c-0.2-1.3-0.9-2.1-2.3-2.1
		C154.4,317.7,153.3,317.8,153.2,319.2z"/>
	<path class="st1" d="M160.7,319.9c-0.1-1.9,0.6-2.6,2.3-1.4c-0.1,0.4-0.1,0.8-0.2,1.2C162.1,319.7,161.4,319.8,160.7,319.9z"/>
	<path class="st8" d="M145.1,298c0.2-0.4,0.5-0.8,0.7-1.2c0.8-1.3,1.6-2.5,2.3-3.8c0.9-0.1,1.4,0.2,1.2,1.2
		c-1.4,1.6-2.5,3.4-2.9,5.5l0.1-0.1c-0.7-0.4-1.8,0.7-2.2-0.6C144.2,298.8,144.8,298.4,145.1,298z"/>
	<path class="st8" d="M147.3,299.8c0,0.4,0,0.7,0,1.1c-1.3,0.3-0.4-0.9-0.8-1.2l-0.1,0.1C146.7,299.8,147,299.8,147.3,299.8z"/>
	<path class="st1" d="M147.3,299.8c-0.3,0-0.5,0-0.8,0c0.3-2.2,1.4-3.9,2.9-5.5c0.4,0.4,0.7,0.7,1.1,1.1c-0.3,0.5-0.5,1-0.8,1.5
		C148.9,297.8,148.1,298.8,147.3,299.8z"/>
	<path class="st8" d="M149.7,296.8c0.3-0.5,0.5-1,0.8-1.5c0.2,0,0.4-0.1,0.6-0.2c0.2,0.8,0.5,1.7,0.7,2.5
		C151,297.4,150.3,297.1,149.7,296.8z"/>
	<path class="st0" d="M72.7,497.2c-1.2-0.1-1.5-1.5-2.5-1.9c-0.2-0.4-0.4-0.9-0.6-1.3c1.3,0.5,2.9-1.2,3.9,0.4
		C74.1,495.4,73.9,496.5,72.7,497.2z"/>
	<path class="st2" d="M123.1,413.5c-1,0.1-1.2,2-2.3,1.5c-1.4-0.7-0.4-2.2-0.4-3.3c2.9-0.1,3.6-2.4,4.3-4.5c0.3-1,0.1-2.2,1-3
		c1.7-0.2,1.4-1.5,1.5-2.7c-1.1,0.1-2.2,0.3-3.2,0.4c0.1-2.8,1.6-3.9,4.3-3.6c1.6,0.2,3-0.1,4.3-0.9c0.6,1-0.2,1.6-0.4,2.2
		c-1.5,1.9-3.2,3.6-4.4,5.7c-1.4,2.3-1.4,4.5,2,5.1c0.1,0.8,1,1.6,0.4,2.4s-1.3-0.2-1.9-0.4C126.3,411.4,124.6,411.8,123.1,413.5z"
		/>
	<path class="st0" d="M129.9,410.3c-3.4-0.6-3.4-2.8-2-5.1c1.2-2,2.9-3.8,4.4-5.7c1.1,1.7,3.9,3.7-0.9,4.2c-0.6,0.1-2.4,1.2-1.3,2.5
		C131.3,407.7,129.8,408.9,129.9,410.3z"/>
	<path class="st9" d="M124,401.7c1-0.1,2.1-0.3,3.2-0.4c-0.1,1.2,0.2,2.5-1.5,2.7c-0.5-0.8-1-0.9-1.8-0.2c-0.9,0.7-1.6,2-3.4,1.1
		C121.6,403.7,122.4,402.3,124,401.7z"/>
	<path class="st2" d="M115,427.2c-4.1,2.9-6.8,6.7-7.9,11.7c-0.2,0.7-0.5,1.1-1.1,1.2l-0.1-0.2h-0.2c-0.8-1.9-0.6-3.8-0.5-5.8
		c-1.8-2.2-1.4-3.9,1.4-4.7c2.9-0.8,4.4-5.3,8.3-3.2C115,426.5,115,426.8,115,427.2z"/>
	<path class="st0" d="M105.2,434c-0.1,2-0.3,3.9,0.5,5.8c-0.9,0.1-1.8,0.1-2.8,0.2c-0.4,0-0.8,0-1.1,0c-0.1-0.5-0.2-1-0.3-1.5
		c0.8-0.6,0.7-1.4,0.7-2.2C102,433.9,103.6,434,105.2,434z"/>
	<path class="st8" d="M102.3,436.3c0,0.8,0.1,1.7-0.7,2.2c-1.4-1.3-0.6-3-0.8-4.5C101.2,434.8,101.7,435.5,102.3,436.3z"/>
	<path class="st7" d="M103,440c0.9-0.1,1.8-0.1,2.8-0.2h0.2l0.1,0.2c0,0.5,0,1,0,1.5c-1,0-2.1,0.1-3.1,0.1l0,0
		C102.9,441.1,102.9,440.5,103,440z"/>
	<path class="st6" d="M117.9,419.8c1.5,0,3,0,3.9,1.6C119.9,422.2,118.5,421.8,117.9,419.8z"/>
	<path class="st6" d="M116.5,420.1c0-0.4,0-0.7,0-1.1c0.6,0.1,1.3,0.1,1.5,0.9C117.5,420.6,117,420.5,116.5,420.1z"/>
	<path class="st1" d="M115,427.2c0-0.4,0-0.7,0-1.1c0.2,0.2,0.5,0.4,0.7,0.6C115.4,426.9,115.2,427,115,427.2z"/>
	<path class="st1" d="M119.5,417.6c0-0.3,0-0.6,0-0.9c1.1,0.1,1.9,0.5,2.4,1.4C121.2,417.9,119.9,419.6,119.5,417.6z"/>
	<path class="st2" d="M140.6,370.3c0.2,0.7,0.4,1.5,0.7,2.2c-2.5,0.6-4.1,2.3-5.3,4.5c-0.7,0-1.4,0-2,0c0.4-1.9,3.1-4.6-1.7-4.5
		c-0.1-2.9,1.7-4,4.2-4.2c0.8,0,1.7,0.2,2.5,0.1C139,369.6,139.7,370,140.6,370.3z"/>
	<path class="st11" d="M140.6,370.3c-0.9-0.3-1.6-0.7-1.6-1.8c0.6-1,1.7-2.1,2.6-1.7c1.6,0.7,0.8,2.6,1,4
		C141.9,370.6,141.2,370.4,140.6,370.3z"/>
	<path class="st7" d="M147.3,321.5c0.7,0,1.5,0,2.2,0c-0.2,2.3,0.5,4.6-0.8,6.8c-1.3-0.2-3-0.1-2.9,1.4s-1.2,3.3,0.4,4.7
		c1.1,1,1.1,1.4-0.1,1.7c-1.5,0.4-4.3,1.9-4.2,1.1c0.2-2.5-3.8-3.5-1.9-6.3c1.7-2.4,1.9-5.9,5.7-6.7
		C146.4,324,146.8,322.5,147.3,321.5z"/>
	<path class="st8" d="M123.1,375.4c-1,0.5-2.1,1.1-3.8,1.9c0.9-2.5,2.1-4,3.2-5.5c0.4-0.1,0.9-0.2,1.3-0.3c0.2,0.2,0.4,0.3,0.6,0.5
		C124,373.2,123.6,374.3,123.1,375.4z"/>
	<path class="st11" d="M124.6,366.4c0.3,0,0.6,0,0.9,0c0.2,0.5,0.2,0.9-0.3,1.3C125,367.3,124.8,366.9,124.6,366.4z"/>
	<path class="st8" d="M123.8,371.6c0.2-0.1,0.5-0.2,0.7-0.3c-0.1,0.3-0.1,0.6-0.2,0.8C124.2,371.9,124,371.8,123.8,371.6z"/>
	<path class="st2" d="M101.5,466.9c-1.5-2.1-1.1-3.3,1.6-3.8c2.1-0.4,3.7-1.2,3.8-4c0.1-3.7,3.3-5.3,6.2-7.7c0.2,2-0.8,3.6-0.1,5
		c-1.4,1-0.3,1.9,0,2.9c1.1,3.9-1.6,7.8-5.5,7.6C105.5,466.9,103.4,468.9,101.5,466.9z"/>
	<path class="st1" d="M94.7,460.2c0.2-0.8,0.2-1.8,0.7-2.5c0.5-0.8,1.2-1.9,2.3-1.3c1,0.5,0.5,1.6,0.1,2.3c-1.1,2.3-0.9,4.8-0.9,7.3
		C95.3,464.5,95.6,462.1,94.7,460.2z"/>
	<path class="st6" d="M133.9,377c0.7,0,1.4,0,2,0c-0.5,2,1,4.3-0.8,6.1c0.2-1.6-2.1-2.3-1.5-4C133.7,378.4,133.8,377.7,133.9,377z"
		/>
	<path class="st9" d="M133.6,379.1c-0.6,1.8,1.8,2.4,1.5,4c-1.5-0.6-1.7,1.7-3.6,1.3C133.9,383.1,130,380,133.6,379.1z"/>
	<path class="st2" d="M127.8,390.5c-0.1,0.1-0.2,0.2-0.3,0.3c0-0.1,0-0.1,0.1-0.2C127.6,390.5,127.7,390.5,127.8,390.5L127.8,390.5z
		"/>
	<path class="st1" d="M103.6,456.5c-1.1-1.2-1.6-2.1-1.4-3.3c0.2-1.2,1.2-1.5,2.1-1.8c0.4-0.2,1.1-0.1,1.3,0.1
		c0.9,1-0.3,1.5-0.6,2.2C104.6,454.5,104.2,455.3,103.6,456.5z"/>
	<path class="st8" d="M103,440c0,0.5,0,1.1-0.1,1.6c-0.5-0.4-1.2-0.8-1.1-1.6C102.2,440,102.6,440,103,440z"/>
	<path class="st2" d="M-57.1,446.2c-0.7,1.9,0.9,2.7,2.2,3.7c-4-0.9-6.5,1.7-9.3,3.5c-0.1-1-0.4-2.1-0.1-2.9c1.8-4.9-2.3-7-4.4-10.1
		c-0.3-0.4-0.6-0.7-1-1.1c0.3-0.2,0.7-0.5,1-0.7c2.2-0.7,2.2-2.9,3-4.6c1.6-0.4,2.5-0.3,1.6,1.7c-1.6,3.7,1,6.6,2.2,9.6
		C-61,447.2-58.7,446.1-57.1,446.2z"/>
	<path class="st5" d="M-68.8,440.4c2.1,3.1,6.3,5.3,4.4,10.1c-0.3,0.8,0.1,2,0.1,2.9c-1.3,0.2-3-0.6-3.9,1.1
		c-0.5-0.2-0.9-0.4-1.4-0.5c-0.6-2.1-2.7-1.8-4.1-2.6c-0.8-0.4-2.4,0.2-2.2-1.2c0.1-0.8,1.1-1.5,1.8-2.2c0.8-0.8,1.8-0.5,2.8-0.5
		c0.7,1.7,0.8,3.8,3.3,4.2c-1.9-2.4-0.6-5.8-3-8c0.6-0.3,0.7-0.9,0.7-1.5C-70.2,441.3-69.7,440.7-68.8,440.4z"/>
	<path class="st2" d="M-70.9,443.7c2.4,2.2,1.1,5.6,3,8c-2.6-0.4-2.7-2.5-3.3-4.2c-0.2-1.3-1.2-1.9-2.1-2.7
		c-0.7-0.6-2.6-1.3-0.7-2.7c0.5,0.1,1,0.1,1.5,0.2l0,0C-72.2,443-71.8,443.6-70.9,443.7z"/>
	<path class="st0" d="M-70.9,443.7c-0.8-0.1-1.2-0.8-1.6-1.5c0.8,0,1.5,0,2.3,0C-70.2,442.9-70.3,443.4-70.9,443.7z"/>
	<path class="st0" d="M-70.3,438.5c-0.6-0.1-1.2-0.1-1.1-0.9c0-0.1,0.1-0.2,0.2-0.2C-70.3,437.3-70.3,437.9-70.3,438.5L-70.3,438.5z
		"/>
	<path class="st0" d="M-72.5,442.3c-0.5-0.1-1-0.1-1.5-0.2c0.2-0.3,0.4-1,0.7-1C-72.6,441-72.6,441.7-72.5,442.3z"/>
	<path class="st1" d="M-68.7,438.6c-0.3,0.2-0.7,0.5-1,0.7c-0.2-0.3-0.4-0.5-0.5-0.8l0,0C-69.8,438.5-69.3,438.5-68.7,438.6z"/>
	<path class="st2" d="M-14.9,497.4c0.5,2.9-1.3,3.8-3.7,4.2c-1.9-1-3.8,0.1-5.7,0.2c-4.2,0.1-6.2-3.2-9.3-4.7
		c-0.7-0.4-1-1.8-0.8-1.8c1.5-0.1,2.4-2.5,3.4-1.7C-26,497.5-20.1,496-14.9,497.4z"/>
	<path class="st2" d="M-16.2,482.9c1,0,1.4-1.9,2.4-1c1.1,1,0.1,2.1-0.5,3c-0.5,0.8-1.7,1.1-1.3,2.3c-0.1,0.8,0,1.7-0.3,2.5
		c-0.2,0.6-0.9,1.3-1.6,1.1c-0.5-0.1-1-0.8-1.1-1.3C-19.2,486.9-18.8,484.5-16.2,482.9z"/>
	<path class="st3" d="M-53.3,466.3c2.7,0.7,2.4-3.4,4.8-3.1c2.5,2.6,4.4,0.4,6.5-0.9c0.6,0,1.2,0.1,1.8,0.1c-1.8,2.1-3,4.6-3.6,7.3
		c-0.6,0.8-1.1,1.6-1.7,2.5c-1.5,0.6-2.3-0.1-3.2-1.2c-0.9-1.1-1.7-2.3-3.3-2.6C-52.5,467.7-52.9,467-53.3,466.3z"/>
	<path class="st1" d="M-43.8,469.8c0.6-2.7,1.8-5.2,3.6-7.3l0,0c0.7-0.4,1.5-0.7,2.2-1.1c1.5,1.4-0.2,3.3,0.6,4.8
		c-3.2,0.6-3.1,4.1-4.7,5.9C-43.4,471.7-42.6,470.1-43.8,469.8z"/>
	<path class="st1" d="M56.3,487.8c0,0.8-0.6,1.3-0.9,1.1c-1.4-1.1-3.7-1.2-4.5-3c-0.4-0.9,0.9-1.1,1.5-0.9
		C54.1,485.5,56,485.8,56.3,487.8z"/>
	<path class="st9" d="M47.6,498c-1.7,2.3-3.4,3-5.4,2.4C43.4,498.3,45.4,498,47.6,498z"/>
	<path class="st2" d="M-78.3,425c0.5-2,1.9-4-0.1-6c-1.3-3.4-1.2-7.5-5.2-9.6c1.8-0.1,3.3,1.1,5,0.6l0,0c0.4,0.5,0.9,0.9,1,1.5
		c0.9,4,2.1,7.8,7.2,8.3c-1.6,2.9-5.3,3.3-7.2,5.8C-77.5,425.6-78.1,425.2-78.3,425z"/>
	<path class="st9" d="M-90.5,416.8c0-0.3,0-0.5,0-0.8c1.3-0.6,2.1,0.6,3.2,0.8l0.2,0.1c0.4,1,0.8,1.9,1.2,2.9
		C-88,419.6-88.8,417.4-90.5,416.8z"/>
	<path class="st8" d="M-78.5,410c0-1.2,0.6-2.1,1.9-3.4C-76.1,408.9-76.7,409.8-78.5,410L-78.5,410z"/>
	<path class="st7" d="M-85.9,419.7c-0.4-1-0.8-1.9-1.2-2.9c0.9-0.1,1.9-0.3,2.6,0.6C-85,418.2-85.4,419-85.9,419.7z"/>
	<path class="st2" d="M-86.9,388.9c0.8-0.4,1.6-1,2.6-0.5c0.9,1.5,0.7,3.1,0.3,4.7c-1.5,1.2-3.3,1.2-5,1c-0.1-0.2-0.1-0.4,0-0.7
		C-86.7,392.7-86.5,391-86.9,388.9z"/>
	<path class="st0" d="M-86.9,388.9c0.4,2,0.2,3.8-2.1,4.6c-1.2-2.1-1.5-4.4-1.5-6.8C-88.8,386.7-88.2,388.4-86.9,388.9z"/>
	<path class="st8" d="M-88.9,394.2c1.8,0.2,3.5,0.2,5-1c0.1,1.2-0.1,2.6-1.6,2.3C-86.6,395.2-88.7,397-88.9,394.2z"/>
	<path class="st6" d="M-91.9,372.6c4.3-2.1,3,2.3,4.3,3.6c-0.1,0.9-0.8,1.3-1.4,1.9c-1.9,0.3-3.7,3.4-5.8,0.3
		c-0.2-0.4-0.4-0.8-0.6-1.2C-92.1,377.3-93,374.2-91.9,372.6z"/>
	<path class="st7" d="M-89,378.1c0.6-0.5,1.2-1,1.4-1.9c1.5,0.3,3,0.6,4.5,0.8c-0.1,2.1-2.1,3.2-2.9,5c-1,1.9-1.9-0.5-2.9-0.6l0,0
		C-89,380.4-89,379.3-89,378.1z"/>
	<path class="st7" d="M-89,381.5c-0.6,0.7-0.5,2.1-1.9,1.8c-0.3-0.1-0.8-0.8-0.7-1.1C-91.1,381-89.9,381.8-89,381.5L-89,381.5z"/>
	<path class="st1" d="M-42,462.4c-2,1.2-3.9,3.4-6.5,0.9c1.6-3,3.9-3.8,6.9-2.2C-41.7,461.4-41.8,461.9-42,462.4z"/>
	<path class="st7" d="M-41.2,458.1c-0.2,0.1-0.3,0.3-0.5,0.4c-0.4,0-0.6-0.3-0.5-0.6c0-0.1,0.4-0.3,0.6-0.2
		C-41.5,457.6-41.4,457.8-41.2,458.1z"/>
	<path class="st7" d="M-42,462.4c0.2-0.5,0.3-0.9,0.5-1.4c0.8,0.1,1.3,0.6,1.3,1.5l0,0C-40.8,462.5-41.4,462.4-42,462.4z"/>
	<path class="st2" d="M-86.8,304.3c0.2-0.2,0.4-0.4,0.6-0.6C-86.3,303.9-86.6,304.1-86.8,304.3z"/>
	<path class="st8" d="M134.5,338c-0.3-3.1,1.1-5.7,2.9-8.1C137.6,333,138.3,336.3,134.5,338z"/>
	<path class="st1" d="M139.7,324.5c0.1-0.8,0.1-1.6,0.2-2.8C141.4,323.1,141.9,324,139.7,324.5C139.8,324.5,139.7,324.5,139.7,324.5
		z"/>
	<path class="st1" d="M131.5,341c0.5,0,1,0,1.5,0c0,0.2,0,0.5,0.1,0.7C131.8,342.9,131.6,342,131.5,341z"/>
	<path class="st1" d="M146.8,314.7c1-1.3,2-1.3,2.9,0.1c0.9,1.3,0,2.1-0.9,2.7c-1.6,1-0.6-1.5-1.7-1.4
		C147.1,315.7,147,315.2,146.8,314.7z"/>
	<path class="st2" d="M151.7,298.1c3.5,0.6,6.9,1.4,10.2,2.5c1.1,0.4,0.9,0.9,0.9,1.5c0,1-0.7,0.9-1.3,0.6c-1.4-0.5-2.8-1-3.1,1.1
		c-0.3,2.1-1.9,4.3,0.4,6.2c0.7,0.6,1.5,1.3,2.2,1.9c0,0,0,0.2-0.1,0.3c-0.1,0.1-0.2,0.1-0.3,0.2c-1-0.9-0.9,2.2-2.4,0.6
		c-1.6-1.7-3.9-2.2-6.3-1.9c-1,0.1-1.7-0.3-1.6-1.5c1.1-0.3,2.8-0.7,2.7-1.4c-0.5-2.4,1.7-4,1.3-6.3c-0.2-0.8-0.5-1.1-1.2-1
		C149.9,301.4,151.2,299.5,151.7,298.1z"/>
	<path class="st8" d="M150.4,309.6c-0.1,1.2,0.6,1.6,1.6,1.5c2.4-0.3,4.7,0.2,6.3,1.9c1.5,1.7,1.4-1.5,2.4-0.6c0,0.8,0,1.5,0,2.3
		c-5.4,3-8.4-1.4-12-3.9C148.9,309.8,149.5,309.4,150.4,309.6z"/>
	<path class="st2" d="M153.2,319.2c0.1-1.4,1.2-1.4,2.2-1.5c0.2,0.6,0.6,1.4,0.4,1.6C155,320.3,154.1,319,153.2,319.2z"/>
	<path class="st9" d="M160,322.2c-0.8,0.1-1.5,0-1.6-1.1"/>
</g>
</svg>
