<?xml version="1.0" encoding="utf-8"?>
<!-- Generator: Adobe Illustrator 19.1.0, SVG Export Plug-In . SVG Version: 6.00 Build 0)  -->
<svg version="1.0" id="Layer_1" xmlns="http://www.w3.org/2000/svg" xmlns:xlink="http://www.w3.org/1999/xlink" x="0px" y="0px"
	 viewBox="0 0 500 500" style="enable-background:new 0 0 500 500;" xml:space="preserve">
<style type="text/css">
	.st0{fill:#808583;stroke:#020202;stroke-width:4;stroke-miterlimit:10;}
	.st1{fill:#F2A2C2;stroke:#020202;stroke-width:4;stroke-miterlimit:10;}
	.st2{fill:#F2A2C2;}
	.st3{fill:#BB4D79;}
	.st4{fill:none;stroke:#020202;stroke-width:4;stroke-miterlimit:10;}
</style>
<g id="Layer_3">
	<polygon class="st0" points="10.1,240 256.9,365.6 484,240 484,223.8 257.6,347.2 10.1,228.4 	"/>
	<polygon class="st1" points="10.1,228.4 257.9,351.5 484,223.8 484,201.8 258.6,324.7 11,197 	"/>
	<polygon class="st2" points="36.4,219.8 277.2,339.3 259.8,349.1 12.1,226.1 13,194.7 36.8,207 	"/>
</g>
<g id="Layer_4">
	<path class="st1" d="M11,197c0,0,28-36,83.7-40.2c0,0,40.9-38.8,83.2-36c0,0,44.4-57.8,103.7-15.5c40.7,29.1,73.1,38.2,89.4,41
		c10.4,1.8,20.4,5.7,29.1,11.7c0.2,0.1,0.3,0.2,0.5,0.3c5,3.5,10.5,6.4,16.2,8.6c19.5,7.4,60.4,24,67.3,34.8l-225.5,123L11,197z"/>
	
		<ellipse transform="matrix(0.2353 -0.9719 0.9719 0.2353 48.0259 312.6357)" class="st3" cx="222.7" cy="125.8" rx="13.4" ry="20.5"/>
	
		<ellipse transform="matrix(0.2353 -0.9719 0.9719 0.2353 -41.7784 286.671)" class="st3" cx="161.3" cy="169.9" rx="13.4" ry="20.5"/>
	
		<ellipse transform="matrix(0.2353 -0.9719 0.9719 0.2353 -132.6517 210.5686)" class="st3" cx="67.5" cy="189.6" rx="13.4" ry="20.5"/>
	
		<ellipse transform="matrix(0.2353 -0.9719 0.9719 0.2353 -107.7672 338.5974)" class="st3" cx="161.3" cy="237.8" rx="13.4" ry="20.5"/>
	
		<ellipse transform="matrix(0.2353 -0.9719 0.9719 0.2353 -25.5186 402.1457)" class="st3" cx="242.8" cy="217.3" rx="13.4" ry="20.5"/>
	
		<ellipse transform="matrix(0.2353 -0.9719 0.9719 0.2353 79.4044 397.32)" class="st3" cx="292.2" cy="148.2" rx="13.4" ry="20.5"/>
	
		<ellipse transform="matrix(0.2353 -0.9719 0.9719 0.2353 37.0402 509.4849)" class="st3" cx="342.3" cy="231.2" rx="13.4" ry="20.5"/>
	
		<ellipse transform="matrix(0.2353 -0.9719 0.9719 0.2353 114.3678 485.1332)" class="st3" cx="365.5" cy="169.9" rx="13.4" ry="20.5"/>
	
		<ellipse transform="matrix(0.2353 -0.9719 0.9719 0.2353 134.3978 566.0149)" class="st3" cx="426.9" cy="197.6" rx="13.4" ry="20.5"/>
	
		<ellipse transform="matrix(0.2353 -0.9719 0.9719 0.2353 -84.8568 472.1187)" class="st3" cx="257.6" cy="290" rx="13.4" ry="20.5"/>
	<path class="st4" d="M94.7,156.8l16.4,46.6l95,8.1c0,0,17.6-27.2-3.6-54.7s-24.7-36-24.7-36"/>
	<path class="st4" d="M202.6,156.8c0,0,30.4,7.1,34.9,5.3c0,0,19.4-48.3,44.1-56.8"/>
	<path class="st4" d="M206.1,211.5c0,0,2.1,31.3,0,58.1L191.4,290v28.4"/>
	<path class="st4" d="M206.1,269.7c0,0,70.8-25.8,132.4,11.4l1.2,24.2"/>
	<path class="st4" d="M277.8,261.7c0,0,3.9-62.7,14.4-72.1l14.1-10.9c0,0,70.6,13.4,79.4,21.9l21.1-38.2"/>
	<line class="st4" x1="306.3" y1="178.7" x2="352.1" y2="139.7"/>
	<path class="st4" d="M292.2,189.6c0,0-30.1-1.7-54.7-27.5"/>
	<path class="st4" d="M385.7,200.5c0,0,28.7,16.6,43.5,31.1l1.7,22.1"/>
	<polyline class="st4" points="111.1,203.5 88.9,237.2 88.9,266.2 	"/>
</g>
</svg>
